<svg xmlns="http://www.w3.org/2000/svg" width="126" height="30" viewBox="0 0 126 30" fill="none">
    <g clip-path="url(#clip0_4502_5979)">
        <mask id="mask0_4502_5979" style="mask-type:luminance" maskUnits="userSpaceOnUse" x="0" y="0" width="126" height="30">
            <path d="M125.854 0H0V30H125.854V0Z" fill="white"/>
        </mask>
        <g mask="url(#mask0_4502_5979)">
            <path fill-rule="evenodd" clip-rule="evenodd" d="M25.9444 4.60548L26.1023 5.55985C26.2267 6.44767 26.2843 7.34358 26.2747 8.24005C26.2737 10.2211 26.0347 12.1948 25.5629 14.1189C24.9249 16.7328 23.8135 19.2078 22.284 21.4214C20.5164 23.9636 17.9607 26.464 14.2355 28.4731L13.7797 28.7187L13.324 28.4731C9.59877 26.464 7.04414 23.9636 5.27557 21.4214C3.746 19.2078 2.63468 16.7328 1.99661 14.1189C1.52491 12.1952 1.28592 10.2218 1.28479 8.2411C1.27516 7.34463 1.33281 6.44871 1.45726 5.56089L1.61509 4.60653C1.62856 4.5287 1.6265 4.44897 1.60902 4.37193C1.59155 4.29491 1.559 4.2221 1.51325 4.1577C1.4675 4.09331 1.40947 4.0386 1.34249 3.99675C1.2755 3.95488 1.2009 3.92669 1.12298 3.9138C1.04505 3.9009 0.965348 3.90355 0.88845 3.9216C0.811553 3.93965 0.738993 3.97275 0.674943 4.01897C0.610894 4.06519 0.556626 4.12363 0.515265 4.19092C0.473904 4.25822 0.446268 4.33303 0.43395 4.41105L0.276117 5.36542C0.140358 6.3178 0.0771132 7.27911 0.0869262 8.2411C0.0876785 10.3194 0.338247 12.39 0.833236 14.4084C1.50704 17.1648 2.68001 19.7745 4.29407 22.1082C6.15986 24.7936 8.86602 27.434 12.7606 29.5299L13.5006 29.9281C13.5879 29.9753 13.6854 30 13.7844 30C13.8835 30 13.9811 29.9753 14.0682 29.9281L14.8072 29.5299C18.6977 27.433 21.4049 24.7936 23.2738 22.1082C24.8871 19.7746 26.0593 17.1654 26.7325 14.4095C27.2275 12.391 27.4781 10.3204 27.4788 8.24215C27.4887 7.28016 27.4254 6.31885 27.2897 5.36647L27.1318 4.4121C27.1195 4.33407 27.0918 4.25926 27.0505 4.19197C27.0092 4.12467 26.9549 4.06623 26.8908 4.02001C26.8268 3.97379 26.7542 3.9407 26.6773 3.92265C26.6004 3.90459 26.5207 3.90195 26.4428 3.91484C26.3649 3.92774 26.2902 3.95592 26.2233 3.99779C26.1563 4.03965 26.0982 4.09435 26.0526 4.15875C26.0068 4.22314 25.9743 4.29595 25.9568 4.37298C25.9393 4.45002 25.9372 4.52974 25.9507 4.60758L25.9444 4.60548Z" fill="white"/>
            <path fill-rule="evenodd" clip-rule="evenodd" d="M4.88632 3.95538L13.7817 1.23759L22.8757 4.01392C23.0279 4.05943 23.192 4.04278 23.3321 3.96761C23.472 3.89244 23.5766 3.76487 23.6227 3.61282C23.6689 3.46076 23.6529 3.29662 23.5784 3.15629C23.5038 3.01597 23.3767 2.9109 23.2248 2.86408L13.9562 0.0344467C13.8425 -0.000414538 13.7209 -0.000414538 13.6071 0.0344467L4.53615 2.80345C4.46034 2.82612 4.38977 2.86353 4.32845 2.91354C4.26715 2.96356 4.21633 3.02518 4.1789 3.09489C4.14147 3.16459 4.11818 3.24101 4.11036 3.31974C4.10255 3.39847 4.11035 3.47797 4.13334 3.55368C4.15633 3.62939 4.19404 3.69981 4.24431 3.7609C4.29458 3.822 4.35643 3.87256 4.4263 3.90969C4.49616 3.94681 4.57268 3.96978 4.65143 3.97726C4.7302 3.98474 4.80967 3.9766 4.88528 3.95329L4.88632 3.95538Z" fill="white"/>
            <path fill-rule="evenodd" clip-rule="evenodd" d="M0.492881 4.78097L13.2458 29.6719C13.2956 29.7692 13.371 29.851 13.4639 29.9084C13.5569 29.9658 13.6637 29.9967 13.773 29.9977C13.8822 29.9987 13.9896 29.9697 14.0836 29.9139C14.1775 29.8581 14.2544 29.7777 14.3058 29.6813L22.083 15.1358L22.0945 15.1128L27.0724 4.76424C27.1398 4.62143 27.1482 4.45776 27.0956 4.30881C27.0431 4.15986 26.9339 4.03766 26.7917 3.96879C26.6496 3.89993 26.486 3.88995 26.3366 3.94103C26.1871 3.99211 26.0639 4.10013 25.9936 4.24158L21.0241 14.5818L13.7967 28.1081L1.55806 4.23322C1.52279 4.16234 1.47381 4.09915 1.41394 4.04733C1.35407 3.99552 1.28452 3.95609 1.2093 3.93135C1.13409 3.9066 1.05472 3.89703 0.975772 3.90318C0.896835 3.90933 0.8199 3.93109 0.74943 3.96719C0.678957 4.00329 0.616351 4.05301 0.565235 4.11348C0.51412 4.17395 0.475513 4.24396 0.451651 4.31946C0.427789 4.39496 0.419146 4.47444 0.426223 4.5533C0.433301 4.63216 0.455958 4.70883 0.492881 4.77888V4.78097Z" fill="white"/>
            <path fill-rule="evenodd" clip-rule="evenodd" d="M6.59843 15.8661H20.78C20.9387 15.8661 21.0909 15.8031 21.2032 15.6908C21.3154 15.5786 21.3784 15.4264 21.3784 15.2676C21.3784 15.1089 21.3154 14.9568 21.2032 14.8445C21.0909 14.7323 20.9387 14.6692 20.78 14.6692H6.59843C6.43972 14.6692 6.28751 14.7323 6.17528 14.8445C6.06305 14.9568 6 15.1089 6 15.2676C6 15.4264 6.06305 15.5786 6.17528 15.6908C6.28751 15.8031 6.43972 15.8661 6.59843 15.8661ZM46.1545 10.7023H36.9288C36.7693 10.7031 36.6166 10.7669 36.5039 10.8796C36.3912 10.9923 36.3275 11.145 36.3267 11.3044V18.7093C36.3277 18.8686 36.3916 19.0212 36.5042 19.1338C36.6169 19.2465 36.7694 19.3103 36.9288 19.3114H46.1545V20.5657H36.9288C36.6853 20.5668 36.4441 20.5197 36.219 20.4271C35.9939 20.3344 35.7894 20.1981 35.6173 20.026C35.4451 19.8539 35.3089 19.6494 35.2162 19.4243C35.1235 19.1991 35.0764 18.9579 35.0776 18.7146V11.3097C35.0764 11.0662 35.1235 10.825 35.2162 10.5999C35.3089 10.3748 35.4451 10.1703 35.6173 9.99815C35.7894 9.82602 35.9939 9.68975 36.219 9.59712C36.4441 9.50442 36.6853 9.45732 36.9288 9.45845H46.1545V10.7023ZM63.4782 9.45215V10.7065H54.5932V14.3724H61.7346V15.6372H54.5922V19.3093H63.4772V20.5637H53.3378V9.45215H63.4782Z" fill="white"/>
            <path d="M81.7748 11.319V14.5741C81.7763 14.8175 81.729 15.0586 81.636 15.2837C81.543 15.5087 81.4073 15.7132 81.2348 15.8852C81.063 16.0574 80.8583 16.1936 80.6333 16.2863C80.4083 16.379 80.1668 16.4263 79.9238 16.4253H78.2273L81.7133 20.5595H80.0625L76.5915 16.4253H72.5147C72.3131 16.415 72.1121 16.3945 71.9126 16.3637V20.5595H70.6582V9.46779H79.914C80.1578 9.46681 80.3985 9.51406 80.6235 9.60676C80.8493 9.69946 81.0533 9.83574 81.2258 10.0079C81.3975 10.18 81.534 10.3844 81.6263 10.6094C81.7193 10.8345 81.7665 11.0756 81.7658 11.319H81.7748ZM72.5189 15.1605H79.9238C80.001 15.1615 80.0775 15.147 80.1495 15.1178C80.2208 15.0887 80.286 15.0456 80.3408 14.9909C80.3955 14.9363 80.4383 14.8712 80.4675 14.7997C80.4968 14.7281 80.511 14.6513 80.5103 14.5741V11.319C80.511 11.2406 80.4968 11.1627 80.4683 11.0899C80.439 11.0171 80.3955 10.9507 80.3408 10.8947C80.2875 10.8373 80.223 10.7918 80.151 10.7612C80.079 10.7305 80.001 10.7155 79.923 10.7169H72.5178C72.3584 10.7177 72.2058 10.7815 72.093 10.8942C71.9802 11.0069 71.9166 11.1596 71.9157 11.319V14.5741C71.9141 14.6524 71.9291 14.7301 71.9598 14.8022C71.9904 14.8742 72.036 14.939 72.0934 14.9922C72.1496 15.0471 72.2161 15.0903 72.2892 15.1192C72.3622 15.1481 72.4403 15.1622 72.5189 15.1605Z" fill="white"/>
            <path fill-rule="evenodd" clip-rule="evenodd" d="M88.4082 9.45215H99.5112V10.7065H94.5987V20.5647H93.344V10.7065H88.4082V9.45215ZM106.241 20.5595V9.45215H107.496V20.5595H106.241ZM124.167 9.45215H125.772L121.128 15.0058L125.787 20.5595H124.167L120.033 15.6382H116.454V20.5595H115.191V9.45215H116.456V14.3724H120.035L124.167 9.45215Z" fill="white"/>
        </g>
    </g>
    <defs>
        <clipPath id="clip0_4502_5979">
            <rect width="126" height="30" fill="white"/>
        </clipPath>
    </defs>
</svg>
