<svg width="200" height="21" viewBox="0 0 200 21" fill="none" xmlns="http://www.w3.org/2000/svg">
<g opacity="0.4">
<path d="M111.436 0.173828H104.138C104.132 4.85428 104.125 9.5415 104.159 14.222C104.956 14.1981 105.772 14.2154 106.592 14.2329C109.258 14.2896 111.98 14.3475 114.338 12.9977C118.274 10.786 118.646 4.23879 114.866 1.70918C113.824 0.998995 112.62 0.572884 111.436 0.173828Z" fill="black"/>
<path fill-rule="evenodd" clip-rule="evenodd" d="M22.4802 6.83179C24.2062 6.81961 25.9321 6.80742 27.6543 6.91623C28.7267 7.14778 29.8526 7.46615 30.6499 8.26498C32.6036 10.0508 32.5298 13.6296 30.4184 15.262C30.1168 15.4899 29.7867 15.6725 29.4568 15.855C29.3657 15.9054 29.2745 15.9559 29.184 16.0072C29.6234 16.5633 30.0145 17.1534 30.4058 17.7438C30.6988 18.1859 30.992 18.6282 31.3055 19.0564C31.5958 19.455 31.8695 19.8652 32.1434 20.2757C32.2572 20.4463 32.3713 20.6173 32.4864 20.7872C31.6832 20.8014 30.8801 20.7997 30.0772 20.798H30.0764C29.404 20.7966 28.7315 20.7952 28.0595 20.8031C27.6666 20.2364 27.2879 19.6592 26.9091 19.0819C26.3574 18.2412 25.8055 17.4001 25.2101 16.5919C24.8575 16.5504 24.502 16.5565 24.1465 16.5627C23.9447 16.5662 23.7428 16.5696 23.5415 16.5644C23.5408 17.2699 23.5412 17.9757 23.5415 18.6816C23.5419 19.3874 23.5423 20.0933 23.5415 20.7988C23.08 20.8003 22.6185 20.7991 22.157 20.7979C21.3262 20.7957 20.4954 20.7935 19.6646 20.8075C19.6729 17.8266 19.6718 14.8458 19.6707 11.865V11.8636C19.67 10.1865 19.6694 8.50939 19.6704 6.8323C20.6063 6.84502 21.5428 6.83841 22.4792 6.83179H22.4802ZM23.5415 10.1607V13.5254C23.9382 13.5224 24.3351 13.5241 24.7321 13.5258C25.2965 13.5282 25.8617 13.5306 26.4257 13.5196C27.2419 13.5037 28.1145 12.9132 28.1551 12.0435C28.3186 11.2114 27.6659 10.3807 26.8483 10.2505C26.1033 10.1421 25.3502 10.1511 24.5977 10.1601C24.2453 10.1644 23.8928 10.1686 23.5415 10.1607Z" fill="black"/>
<path d="M6.65326 6.83227H10.3942C11.2501 8.87937 12.1216 10.9206 12.9931 12.9618C14.1078 15.5727 15.2225 18.1834 16.3043 20.806C14.5378 20.7941 12.7712 20.7961 11.0046 20.798C9.97402 20.7992 8.94287 20.8003 7.91228 20.7987V17.505C8.26507 17.5025 8.61785 17.5039 8.97063 17.5053C9.61204 17.508 10.2535 17.5106 10.8949 17.4891C10.481 16.3849 10.0398 15.2908 9.59862 14.1969C9.22695 13.2752 8.85515 12.3532 8.49983 11.4255C7.83376 12.995 7.19128 14.5752 6.54877 16.1555C5.91825 17.7063 5.2874 19.2578 4.63448 20.7987C4.07566 20.7969 3.51711 20.7974 2.9586 20.798C2.21405 20.7987 1.46923 20.7994 0.724274 20.7944C2.67069 16.1288 4.65619 11.4762 6.65326 6.83227Z" fill="black"/>
<path d="M44.0994 6.83213C41.0334 6.83186 37.9672 6.83159 34.9002 6.83376C34.9016 7.33731 34.9014 7.84116 34.9012 8.34517C34.901 8.95047 34.9008 9.55669 34.9031 10.1622C35.9507 10.16 36.9982 10.1603 38.0464 10.1606L39.0984 10.1608V20.7973H42.9565C42.9754 18.6025 42.9725 16.4077 42.9697 14.2129C42.968 12.8622 42.9663 11.5115 42.9696 10.1608H47.1663V6.83232L44.0994 6.83213Z" fill="black"/>
<path d="M50.9289 6.83227H54.8V12.042H59.7565V6.83227H63.6639C63.6606 8.59575 63.6625 10.3592 63.6644 12.1226V12.1234C63.6675 15.015 63.6706 17.9065 63.6508 20.7973C63.1669 20.7994 62.6832 20.7984 62.1996 20.7973H62.1979C61.382 20.7956 60.5663 20.7938 59.7508 20.8074C59.7591 19.5249 59.7577 18.2425 59.7562 16.96C59.7557 16.4668 59.7551 15.9736 59.7551 15.4805C58.7634 15.4779 57.7723 15.4784 56.7814 15.4789H56.7805C56.1204 15.4792 55.4601 15.4796 54.8 15.479C54.8 16.0699 54.8002 16.6607 54.8004 17.2517C54.8007 18.4337 54.801 19.6159 54.8 20.7987C54.3385 20.8003 53.877 20.7991 53.4155 20.7979C52.5847 20.7957 51.7539 20.7935 50.9231 20.8074C50.9315 17.8261 50.9303 14.8448 50.9292 11.8635C50.9285 10.1864 50.9279 8.50935 50.9289 6.83227Z" fill="black"/>
<path d="M72.4915 6.83227H68.548C68.5518 7.82121 68.5497 8.81015 68.5477 9.79908V9.80013C68.5443 11.4707 68.5408 13.1413 68.5654 14.8119C68.5712 16.5094 69.0603 18.3227 70.3555 19.4978C71.6044 20.6685 73.4003 20.9941 75.0559 20.9811C76.817 21.0144 78.6839 20.5397 79.9603 19.2619C80.7157 18.45 81.1802 17.395 81.3814 16.3111C81.5465 15.5382 81.5417 14.7489 81.5369 13.9626V13.9603C81.5357 13.7552 81.5344 13.5502 81.5362 13.3459V6.83227H77.6289C77.6266 7.86159 77.6277 8.89091 77.6288 9.92022C77.6305 11.4987 77.6322 13.0771 77.6217 14.6556C77.6289 15.2301 77.4885 15.7873 77.2845 16.3213C76.5102 17.7004 74.3699 17.8958 73.2527 16.8437C72.6232 16.1925 72.4669 15.2315 72.4886 14.3575C72.4923 12.7616 72.4919 11.1651 72.4915 9.56882C72.4912 8.6567 72.491 7.74415 72.4915 6.83227Z" fill="black"/>
<path fill-rule="evenodd" clip-rule="evenodd" d="M88.9948 6.83208C90.3866 6.82969 91.7788 6.82729 93.1713 6.84243C94.6633 6.87282 96.219 7.24908 97.3478 8.27656C98.3405 9.12603 98.7327 10.4864 98.724 11.757C98.7385 12.9538 98.2638 14.1404 97.4274 14.9957C96.9817 15.4139 96.4346 15.6961 95.8876 15.9566C96.9802 17.5745 98.0858 19.1837 99.2016 20.7872C98.4037 20.8021 97.6058 20.8 96.8079 20.798C96.1297 20.7962 95.4515 20.7945 94.7733 20.8031L94.6612 20.6354L94.6606 20.6345C93.7504 19.2726 92.8404 17.911 91.9079 16.5644L91.4818 16.5646C91.0586 16.5649 90.6359 16.5651 90.2133 16.563L90.215 16.9652V16.9679C90.2205 18.2427 90.226 19.5184 90.209 20.793C89.6184 20.801 89.0275 20.7994 88.4367 20.7979C87.7504 20.7961 87.0642 20.7942 86.3784 20.8075C86.3867 17.8264 86.3856 14.8453 86.3844 11.8642V11.8468C86.3838 10.1753 86.3831 8.50381 86.3842 6.8323C87.2538 6.83508 88.1235 6.83358 88.9933 6.83208H88.9948ZM90.2191 10.1608C90.2191 10.4812 90.2189 10.8016 90.2187 11.1219V11.1228C90.2181 11.923 90.2175 12.7233 90.2206 13.5239C90.6006 13.5191 90.9808 13.5224 91.3609 13.5257C92.0101 13.5313 92.6594 13.5369 93.3074 13.5022C93.8587 13.482 94.2856 13.1043 94.6503 12.7294C94.808 12.2649 94.9397 11.7584 94.7574 11.278C94.617 10.6542 93.989 10.3098 93.3971 10.2302C92.6992 10.142 91.9957 10.151 91.2927 10.1599C90.9344 10.1645 90.5763 10.1691 90.2191 10.1608Z" fill="black"/>
<path d="M125.035 6.83196C124.174 6.83164 123.314 6.83131 122.453 6.83228C122.454 9.16002 122.454 11.4878 122.454 13.8153V13.9262C122.454 16.2168 122.454 18.5072 122.454 20.7973C123.77 20.7979 125.086 20.7978 126.401 20.7976C128.156 20.7973 129.91 20.7971 131.664 20.7988C132.168 19.6989 132.648 18.5875 133.091 17.4616C132.007 17.472 130.922 17.4701 129.838 17.4682C128.666 17.4661 127.493 17.464 126.321 17.4775C126.328 15.2808 126.327 13.0841 126.326 10.8874C126.325 9.53571 126.324 8.18399 126.326 6.83228C125.895 6.83228 125.465 6.83212 125.035 6.83196Z" fill="black"/>
<path d="M136.531 6.82941H140.417C140.419 8.59018 140.417 10.3508 140.416 12.1113V12.1178C140.414 15.0143 140.412 17.9106 140.425 20.8075C139.458 20.7881 138.491 20.7919 137.524 20.7958C137.191 20.7971 136.857 20.7984 136.524 20.7988C136.535 17.871 136.533 14.9433 136.531 12.0159V12.015C136.53 10.2864 136.529 8.55772 136.531 6.82941Z" fill="black"/>
<path d="M156.643 6.83227H144.379V10.1607H148.576L148.575 12.8253C148.575 15.4831 148.575 18.1413 148.577 20.7987C149.128 20.7963 149.68 20.797 150.231 20.7977C150.966 20.7986 151.701 20.7996 152.437 20.793C152.451 18.6232 152.449 16.4534 152.447 14.2836C152.445 12.9093 152.444 11.535 152.447 10.1607H156.643C156.642 9.05076 156.642 7.94224 156.643 6.83227Z" fill="black"/>
<path d="M159.355 6.83228C162.081 6.83131 164.807 6.83164 167.533 6.83196C168.896 6.83212 170.259 6.83228 171.621 6.83228V10.1607H167.425C167.421 11.5084 167.423 12.8564 167.425 14.2043V14.2136C167.428 16.4086 167.431 18.6035 167.412 20.7973H163.554C163.553 18.4336 163.553 16.0699 163.553 13.7063C163.553 12.5244 163.554 11.3426 163.554 10.1607C163.087 10.1607 162.621 10.1609 162.154 10.1611C161.221 10.1614 160.288 10.1617 159.355 10.1607C159.357 9.05077 159.357 7.94225 159.355 6.83228Z" fill="black"/>
<path d="M175.701 6.83213L174.733 6.83232C174.731 8.61696 174.732 10.4014 174.733 12.1858V12.2053C174.734 15.0706 174.736 17.9359 174.724 20.8017C176.448 20.796 178.173 20.7967 179.897 20.7974H179.898C181.253 20.7979 182.608 20.7984 183.963 20.7959L184.109 20.4433C184.523 19.4429 184.937 18.4408 185.407 17.4631C184.046 17.47 182.686 17.4692 181.325 17.4683C180.418 17.4677 179.511 17.4672 178.604 17.4689C178.605 15.9505 178.604 14.4322 178.604 12.9139C178.604 10.8869 178.604 8.8601 178.605 6.83376C177.637 6.83159 176.669 6.83186 175.701 6.83213Z" fill="black"/>
<path d="M188.589 20.7973C188.589 19.2454 188.589 17.6937 188.589 16.142C188.589 13.039 188.588 9.93572 188.589 6.83227H199.841C199.842 7.22743 199.841 7.62239 199.841 8.01731C199.84 8.72012 199.838 9.42276 199.847 10.126C197.991 10.1238 196.135 10.1241 194.28 10.1244L192.424 10.1245C192.423 10.8235 192.423 11.5239 192.424 12.2229C193.381 12.2223 194.338 12.2225 195.295 12.2227C196.571 12.2229 197.847 12.2231 199.123 12.2215C199.115 12.6805 199.116 13.1395 199.118 13.5983C199.119 14.1652 199.121 14.7319 199.104 15.2981H192.424C192.423 16.0347 192.423 16.7699 192.424 17.505C193.405 17.5033 194.386 17.5041 195.366 17.5048C196.882 17.506 198.398 17.5071 199.915 17.4992C199.911 17.93 199.912 18.3607 199.913 18.7913C199.915 19.4588 199.917 20.1262 199.902 20.793C197.388 20.7997 194.873 20.7987 192.359 20.7978C191.103 20.7973 189.846 20.7968 188.589 20.7973Z" fill="black"/>
<path d="M113.07 17.4682C110.062 17.4716 107.055 17.475 104.048 17.4544C104.065 18.5716 104.063 19.6902 104.05 20.8074C106.862 20.7879 109.675 20.7917 112.488 20.7956C113.631 20.7972 114.775 20.7987 115.918 20.7987C116.348 19.7554 116.794 18.7183 117.239 17.6817L117.332 17.466C115.912 17.465 114.492 17.4666 113.073 17.4682L113.07 17.4682Z" fill="black"/>
</g>
</svg>
