<svg width="119" height="32" viewBox="0 0 119 32" fill="none" xmlns="http://www.w3.org/2000/svg">
<g id="Belvoir" clip-path="url(#clip0_3698_4639)">
<g id="Vector">
<path id="Vector_2" d="M13.1136 10.7362C13.1136 12.0736 12.5768 13.0994 11.5031 13.8146C10.4294 14.5286 8.88166 14.8856 6.85875 14.8856H1.43457V0.535339H7.02443C10.7438 0.535339 12.6034 1.71876 12.6034 4.0856C12.6034 4.91207 12.3857 5.60522 11.9492 6.16513C11.5128 6.72631 10.8864 7.10773 10.069 7.31068V7.43659C11.0738 7.55638 11.832 7.8816 12.3447 8.41342C12.8573 8.9476 13.1136 9.72031 13.1136 10.7362ZM8.54191 4.6223C8.54191 4.12472 8.41008 3.77875 8.14772 3.58191C7.88411 3.38631 7.49596 3.28728 6.98332 3.28728H5.58073V6.06126H7.02443C7.57095 6.06126 7.96149 5.95121 8.19366 5.72991C8.42582 5.50989 8.54191 5.14064 8.54191 4.6223ZM8.92641 10.4942C8.92641 9.878 8.78252 9.44405 8.49472 9.19214C8.20696 8.94031 7.76927 8.8144 7.1804 8.8144H5.58073V12.1544H6.96274C7.67613 12.1544 8.18156 12.0272 8.48022 11.7705C8.77648 11.5162 8.92641 11.0896 8.92641 10.4942Z" fill="white"/>
<path id="Vector_3" d="M20.543 0.535339H28.8775V3.39242H24.3952V6.1028H28.8775V8.97089H24.3952V12.0493H28.8775V14.8856H20.543V0.535339Z" fill="white"/>
<path id="Vector_4" d="M36.792 14.8856V0.535339H40.9381V11.7228H45.9984V14.8856H36.792Z" fill="white"/>
<path id="Vector_5" d="M61.7476 14.8856H56.8119L52.2812 0.535339H56.3442L58.6621 8.92929L59.1507 11.3352H59.2135L59.702 8.92929L62.0297 0.535339H66.2782L61.7476 14.8856Z" fill="white"/>
<path id="Vector_6" d="M86.2335 7.53195C86.2335 9.99661 85.6337 11.8745 84.4355 13.163C83.2373 14.4515 81.5095 15.0958 79.2505 15.0958C77.0684 15.0958 75.383 14.4626 74.1907 13.1948C72.9994 11.927 72.4033 10.1519 72.4033 7.86814C72.4033 5.42429 73.0165 3.55503 74.2424 2.26402C75.4684 0.973017 77.2244 0.325073 79.5105 0.325073C81.6364 0.325073 83.2895 0.957133 84.4669 2.22124C85.6448 3.48657 86.2335 5.25682 86.2335 7.53195ZM82.0353 7.74223C82.0353 6.20185 81.8179 5.06363 81.3815 4.32767C80.9447 3.59171 80.2761 3.22495 79.3767 3.22495C78.4901 3.22495 77.8048 3.61371 77.32 4.39125C76.8347 5.16878 76.5919 6.27884 76.5919 7.72145C76.5919 9.17136 76.8204 10.2827 77.2775 11.0565C77.7346 11.8304 78.3922 12.2179 79.2519 12.2179C80.229 12.2179 80.9364 11.8329 81.3765 11.0627C81.8156 10.2913 82.0353 9.18488 82.0353 7.74223Z" fill="white"/>
<path id="Vector_7" d="M93.9746 0.535339H98.1213V14.8856H93.9746V0.535339Z" fill="white"/>
<path id="Vector_8" d="M110.396 14.8856H106.251V0.535339H112.287C113.887 0.535339 115.103 0.916776 115.934 1.68086C116.766 2.44495 117.181 3.53302 117.181 4.9475C117.181 5.87908 116.976 6.68475 116.567 7.36325C116.159 8.04295 115.598 8.56501 114.884 8.92805L118.698 14.8843H114.335L111.373 9.54796H110.396V14.8856ZM113.118 4.9475C113.118 3.88266 112.588 3.35086 111.527 3.35086H110.395V6.73363H111.268C112.501 6.73363 113.118 6.13823 113.118 4.9475Z" fill="white"/>
<path id="Vector_9" d="M6.94958 30.9119C6.58198 31.1038 5.81299 31.2945 4.84205 31.2945C2.59184 31.2945 0.911133 29.858 0.911133 27.2002C0.911133 24.6623 2.60514 22.9629 5.07903 22.9629C6.06206 22.9629 6.70172 23.178 6.97378 23.3223L6.71382 24.172C6.33532 23.98 5.7779 23.837 5.11531 23.837C3.24477 23.837 2.00178 25.0461 2.00178 27.1648C2.00178 29.1526 3.12628 30.4094 5.05727 30.4094C5.69691 30.4094 6.33652 30.2774 6.75006 30.0744L6.94958 30.9119Z" fill="white"/>
<path id="Vector_10" d="M12.6337 28.6257L11.8055 31.1637H10.7402L13.4633 23.0949H14.6941L17.4171 31.1637H16.3168L15.4644 28.6257H12.6337ZM15.2625 27.8114L14.4693 25.4886C14.2915 24.9617 14.173 24.4825 14.0545 24.0167H14.0304C13.9119 24.4837 13.7934 24.9862 13.6277 25.4777L12.8466 27.8127H15.2625V27.8114Z" fill="white"/>
<path id="Vector_11" d="M21.6348 23.1903C22.1317 23.1071 22.7835 23.035 23.6117 23.035C24.6298 23.035 25.3758 23.2746 25.8499 23.705C26.2755 24.0877 26.5487 24.6745 26.5487 25.3933C26.5487 26.1231 26.3359 26.699 25.9333 27.1171C25.3771 27.7039 24.5005 28.0035 23.4944 28.0035C23.1861 28.0035 22.902 27.9912 22.6661 27.9313V31.1637H21.636V23.1903H21.6348ZM22.665 27.0805C22.8899 27.1403 23.1741 27.1636 23.5174 27.1636C24.7604 27.1636 25.5185 26.5413 25.5185 25.452C25.5185 24.3749 24.7604 23.8603 23.6359 23.8603C23.1861 23.8603 22.8427 23.8957 22.665 23.9445V27.0805Z" fill="white"/>
<path id="Vector_12" d="M32.008 23.0937V31.1625H30.9658V23.0937H32.008Z" fill="white"/>
<path id="Vector_13" d="M38.3682 23.9801H35.9414V23.0937H41.8493V23.9801H39.4104V31.1625H38.3682V23.9801Z" fill="white"/>
<path id="Vector_14" d="M46.1835 28.6257L45.3553 31.1637H44.29L47.0131 23.0949H48.244L50.9669 31.1637H49.8652L49.0129 28.6257H46.1835ZM48.8124 27.8114L48.0192 25.4886C47.8414 24.9617 47.7228 24.4825 47.6045 24.0167H47.5801C47.4619 24.4837 47.3432 24.9862 47.1774 25.4777L46.3964 27.8127H48.8124V27.8114Z" fill="white"/>
<path id="Vector_15" d="M55.1719 23.0937H56.2145V30.2884H59.6241V31.1625H55.1719V23.0937Z" fill="white"/>
<path id="Vector_16" d="M70.6613 28.6257L69.8328 31.1637H68.7676L71.4905 23.0949H72.7215L75.4445 31.1637H74.3441L73.4918 28.6257H70.6613ZM73.29 27.8114L72.4966 25.4886C72.3189 24.9617 72.2002 24.4825 72.082 24.0167H72.0575C71.9393 24.4837 71.8206 24.9862 71.6549 25.4777L70.8741 27.8127H73.29V27.8114Z" fill="white"/>
<path id="Vector_17" d="M85.5702 30.8042C85.1085 30.984 84.1845 31.2468 83.1073 31.2468C81.8994 31.2468 80.9057 30.9351 80.1235 30.1819C79.4363 29.512 79.0098 28.4338 79.0098 27.177C79.0098 24.7698 80.6554 23.0106 83.3312 23.0106C84.2547 23.0106 84.9889 23.2147 85.3324 23.3822L85.0711 24.2319C84.6453 24.0277 84.1121 23.8847 83.3067 23.8847C81.3651 23.8847 80.098 25.1059 80.098 27.1293C80.098 29.177 81.306 30.3862 83.1765 30.3862C83.8511 30.3862 84.3129 30.2908 84.5498 30.171V27.765H82.9419V26.9276H85.5702V30.8042Z" fill="white"/>
<path id="Vector_18" d="M97.9457 30.4339C99.7431 30.4339 101.2 28.961 101.2 27.144C101.2 25.327 99.7431 23.8541 97.9457 23.8541C96.1484 23.8541 94.6924 25.327 94.6924 27.144C94.6924 28.961 96.1484 30.4339 97.9457 30.4339Z" fill="white"/>
<path id="Vector_19" d="M106.743 30.4339C108.54 30.4339 109.997 28.961 109.997 27.144C109.997 25.327 108.54 23.8541 106.743 23.8541C104.946 23.8541 103.489 25.327 103.489 27.144C103.489 28.961 104.946 30.4339 106.743 30.4339Z" fill="white"/>
<path id="Vector_20" d="M115.541 30.4339C117.339 30.4339 118.796 28.961 118.796 27.144C118.796 25.327 117.339 23.8541 115.541 23.8541C113.745 23.8541 112.288 25.327 112.288 27.144C112.288 28.961 113.745 30.4339 115.541 30.4339Z" fill="white"/>
</g>
</g>
<defs>
<clipPath id="clip0_3698_4639">
<rect width="118.222" height="32" fill="white" transform="translate(0.625977)"/>
</clipPath>
</defs>
</svg>
