<svg xmlns="http://www.w3.org/2000/svg" width="97" height="30" viewBox="0 0 97 30" fill="none">
    <g clip-path="url(#clip0_4773_3051)">
        <mask id="mask0_4773_3051" style="mask-type:luminance" maskUnits="userSpaceOnUse" x="0" y="0" width="97" height="30">
            <path d="M0 0H96.5625V30H0V0Z" fill="white"/>
        </mask>
        <g mask="url(#mask0_4773_3051)">
            <path d="M37.8483 15.0694C38.5748 14.6569 39.1561 14.1431 39.5798 13.5375C40.0614 12.8529 40.3161 12.0345 40.3083 11.1975C40.3083 9.58314 39.7045 8.32221 38.5148 7.45127C37.3392 6.58877 35.722 6.15283 33.7064 6.15283H26.4183V24.8569H33.998C36.1205 24.8569 37.8202 24.3638 39.0492 23.3897C40.2877 22.4072 40.9167 21.0319 40.9167 19.3003C40.9167 18.2456 40.6205 17.3391 40.0383 16.605C39.5161 15.9488 38.7802 15.4331 37.8483 15.0694ZM30.3623 9.52408H33.3895C34.3392 9.52408 35.0555 9.70783 35.5214 10.0706C35.9808 10.4269 36.2058 10.8975 36.2058 11.505C36.2058 12.1144 35.9808 12.6075 35.5214 12.9666C35.0555 13.3285 34.3392 13.5122 33.3895 13.5122H30.3623V9.52408ZM36.0614 20.8519C35.5364 21.2728 34.7348 21.4856 33.6802 21.4856H30.3623V16.9088H33.6811C34.7348 16.9088 35.5373 17.115 36.0642 17.5181C36.5864 17.9213 36.8395 18.4528 36.8395 19.1456C36.8395 19.875 36.5855 20.4328 36.0614 20.8519ZM46.2464 10.8703H42.2752V24.856H46.2455L46.2464 10.8703ZM85.463 12.975C84.8273 12.2213 84.0262 11.6246 83.122 11.2313C82.1977 10.8216 81.158 10.6135 80.0339 10.6135C78.6558 10.6135 77.4127 10.9266 76.3373 11.5435C75.274 12.1487 74.3957 13.0322 73.7967 14.0991C73.1864 15.1772 72.878 16.426 72.878 17.8125C72.878 19.2 73.178 20.5313 73.7686 21.6253C74.3457 22.7063 75.2253 23.5957 76.2998 24.1847C77.3845 24.7838 78.6586 25.0875 80.0873 25.0875C81.8405 25.0875 83.3283 24.6469 84.5123 23.776C85.6514 22.9388 86.4342 21.7585 86.8617 20.2791H82.8642C82.6542 20.7825 82.358 21.211 81.9333 21.5128C81.4317 21.8691 80.7839 22.0491 80.0077 22.0491C79.3345 22.0491 78.757 21.886 78.292 21.5635C77.8261 21.24 77.4698 20.7638 77.2355 20.1441C77.0858 19.7369 76.9854 19.3133 76.9364 18.8822H86.9311L86.9508 18.7585C87.1289 17.6306 87.0839 16.5619 86.8158 15.5822C86.5594 14.625 86.0978 13.735 85.463 12.9741V12.975ZM77.0002 16.2938C77.0608 16.004 77.1439 15.7194 77.2486 15.4425C77.4923 14.8144 77.8439 14.3316 78.2948 14.0091C78.7439 13.6866 79.3027 13.5244 79.9552 13.5244C80.7736 13.5244 81.4458 13.7897 81.952 14.3119C82.433 14.8088 82.7048 15.4875 82.763 16.2928L77.0002 16.2938ZM46.3289 6.15283H42.1927V9.52408H46.3289V6.15283ZM68.0714 12.4575C67.6238 11.9111 67.0644 11.4667 66.4308 11.1544C65.6902 10.7953 64.823 10.6135 63.8536 10.6135C62.6677 10.6135 61.6036 10.9069 60.6942 11.4825C59.7848 12.0591 59.063 12.8728 58.552 13.9003C58.0411 14.926 57.7823 16.1297 57.7823 17.4797C57.7823 18.8297 58.0542 19.9631 58.5923 20.9953C59.1314 22.0313 59.8786 22.8563 60.8133 23.4488C61.7489 24.0422 62.8167 24.3441 63.9867 24.3441C64.8698 24.3441 65.677 24.1528 66.3839 23.775C66.9288 23.488 67.4053 23.0866 67.7808 22.5985V24.121C67.7808 25.065 67.5333 25.7897 67.0458 26.2725C66.5564 26.7553 65.812 26.9991 64.8333 26.9991C63.9895 26.9991 63.3267 26.8078 62.8627 26.43C62.483 26.1206 62.1511 25.7156 62.0742 24.8569H58.2455C58.2811 26.0588 58.6336 26.8678 59.1323 27.5775C59.6902 28.3716 60.4758 28.9931 61.4695 29.4225C62.452 29.8463 63.5939 30.0619 64.8595 30.0619C66.9858 30.0619 68.678 29.5275 69.8892 28.4747C71.108 27.4163 71.7248 25.9341 71.7248 24.0703V10.8703H68.0723L68.0714 12.4575ZM67.373 19.3378C67.1428 19.8334 66.776 20.253 66.3155 20.5472C65.8655 20.8285 65.3217 20.9728 64.7011 20.9728C63.8011 20.9728 63.1027 20.6663 62.5636 20.0372C62.0255 19.41 61.7527 18.5494 61.7527 17.4788C61.7527 16.4081 62.0245 15.5475 62.5627 14.9203C63.0961 14.2997 63.8152 13.9847 64.7002 13.9847C65.5861 13.9847 66.368 14.3035 66.9183 14.9344C67.4733 15.571 67.7545 16.4353 67.7545 17.5031C67.7545 18.196 67.6261 18.8119 67.373 19.3369V19.3378ZM96.5639 14.2163V10.8713H93.698V6.15283H89.7539V10.8713H87.3061V14.2163H89.7539V19.6913C89.7539 22.7353 90.3539 24.9722 94.0908 24.9028L96.4373 24.856V21.7219H95.273C93.6117 21.7219 93.7045 20.7535 93.7045 18.9544L93.698 14.2172L96.5639 14.2163ZM56.8177 14.2163V10.8713H53.9517V6.15283H50.0077V10.8713H47.5589V14.2163H50.0058V19.6913C50.0058 22.7353 50.6058 24.9722 54.3436 24.9028L56.6892 24.856V21.7219H55.5277C53.8664 21.7219 53.9583 20.7535 53.9583 18.9544L53.9517 14.2172L56.8177 14.2163ZM9.89953 9.52408H15.8555L21.9483 15.5775C22.3448 15.9713 22.3467 16.6125 21.952 17.0081L14.138 24.8616H8.00391L9.85922 23.0578L16.6692 16.291L9.94547 9.52314" fill="white"/>
            <path d="M12.3464 16.275H6.39233L0.298579 10.2216C0.204279 10.1279 0.129369 10.0166 0.0781357 9.89403C0.0269024 9.77142 0.000351787 9.63991 3.47222e-06 9.50703C-0.000344843 9.37415 0.025516 9.2425 0.0761058 9.11962C0.126696 8.99675 0.201021 8.88506 0.294829 8.79094L8.10889 0.9375H14.2439L12.3895 2.74125L5.57858 9.50813L12.3033 16.275" fill="white"/>
        </g>
    </g>
    <defs>
        <clipPath id="clip0_4773_3051">
            <rect width="96.5625" height="30" fill="white"/>
        </clipPath>
    </defs>
</svg>
