<svg width="162" height="40" viewBox="0 0 162 40" fill="none" xmlns="http://www.w3.org/2000/svg">
<g id="Blockchain Magazing" clip-path="url(#clip0_4862_11916)">
<g id="BLOCKCHAIN&#226;&#128;&#168;MAGAZINE">
<path d="M10.4417 8.64817C11.4408 8.86109 12.2434 9.36066 12.8494 10.1469C13.4554 10.9167 13.7584 11.8011 13.7584 12.8003C13.7584 14.2416 13.2507 15.3882 12.2352 16.2399C11.2361 17.0752 9.83565 17.4929 8.03395 17.4929H0V0.245686H7.76369C9.51626 0.245686 10.8839 0.646974 11.8667 1.44955C12.8658 2.25213 13.3653 3.34134 13.3653 4.71718C13.3653 5.73269 13.0951 6.57621 12.5546 7.24775C12.0305 7.9193 11.3261 8.3861 10.4417 8.64817ZM4.20124 7.22318H6.95293C7.64085 7.22318 8.16498 7.07577 8.52532 6.78095C8.90204 6.46975 9.0904 6.01932 9.0904 5.42967C9.0904 4.84002 8.90204 4.3896 8.52532 4.0784C8.16498 3.76719 7.64085 3.61159 6.95293 3.61159H4.20124V7.22318ZM7.29689 14.1024C8.00119 14.1024 8.5417 13.9468 8.91842 13.6356C9.31152 13.308 9.50807 12.8412 9.50807 12.2352C9.50807 11.6292 9.30333 11.1542 8.89385 10.8102C8.50075 10.4662 7.95205 10.2943 7.24775 10.2943H4.20124V14.1024H7.29689Z" fill="white"/>
<path d="M20.3964 14.2498H25.8998V17.4929H16.1952V0.245686H20.3964V14.2498Z" fill="white"/>
<path d="M36.0604 17.6649C34.4389 17.6649 32.9484 17.2881 31.589 16.5347C30.2459 15.7813 29.173 14.733 28.3705 13.3899C27.5843 12.0304 27.1912 10.5072 27.1912 8.82015C27.1912 7.1331 27.5843 5.61803 28.3705 4.27494C29.173 2.93186 30.2459 1.8836 31.589 1.13016C32.9484 0.376719 34.4389 0 36.0604 0C37.682 0 39.1643 0.376719 40.5074 1.13016C41.8668 1.8836 42.9315 2.93186 43.7013 4.27494C44.4875 5.61803 44.8806 7.1331 44.8806 8.82015C44.8806 10.5072 44.4875 12.0304 43.7013 13.3899C42.9151 14.733 41.8505 15.7813 40.5074 16.5347C39.1643 17.2881 37.682 17.6649 36.0604 17.6649ZM36.0604 13.8322C37.4363 13.8322 38.5337 13.3735 39.3526 12.4563C40.188 11.5391 40.6056 10.327 40.6056 8.82015C40.6056 7.29689 40.188 6.08484 39.3526 5.18398C38.5337 4.26676 37.4363 3.80814 36.0604 3.80814C34.6682 3.80814 33.5544 4.25857 32.7191 5.15942C31.9002 6.06027 31.4907 7.28051 31.4907 8.82015C31.4907 10.3434 31.9002 11.5636 32.7191 12.4809C33.5544 13.3817 34.6682 13.8322 36.0604 13.8322Z" fill="white"/>
<path d="M46.5054 8.84471C46.5054 7.14129 46.8739 5.62622 47.611 4.29951C48.348 2.95643 49.3717 1.91635 50.6821 1.17929C52.0088 0.425856 53.5075 0.0491367 55.1781 0.0491367C57.2255 0.0491367 58.9781 0.589647 60.4358 1.67067C61.8936 2.75169 62.8681 4.22581 63.3595 6.09303H58.7406C58.3966 5.37234 57.9052 4.82365 57.2665 4.44693C56.6441 4.07021 55.9316 3.88185 55.129 3.88185C53.835 3.88185 52.7868 4.33227 51.9842 5.23312C51.1816 6.13397 50.7803 7.33784 50.7803 8.84471C50.7803 10.3516 51.1816 11.5555 51.9842 12.4563C52.7868 13.3572 53.835 13.8076 55.129 13.8076C55.9316 13.8076 56.6441 13.6192 57.2665 13.2425C57.9052 12.8658 58.3966 12.3171 58.7406 11.5964H63.3595C62.8681 13.4636 61.8936 14.9377 60.4358 16.0188C58.9781 17.0834 57.2255 17.6157 55.1781 17.6157C53.5075 17.6157 52.0088 17.2472 50.6821 16.5101C49.3717 15.7567 48.348 14.7166 47.611 13.3899C46.8739 12.0632 46.5054 10.5481 46.5054 8.84471Z" fill="white"/>
<path d="M75.9317 17.4929L70.1335 9.8766V17.4929H65.9323V0.245686H70.1335V7.81283L75.8826 0.245686H80.8209L74.1382 8.6973L81.0666 17.4929H75.9317Z" fill="white"/>
<path d="M82.3507 8.84471C82.3507 7.14129 82.7192 5.62622 83.4563 4.29951C84.1933 2.95643 85.217 1.91635 86.5273 1.17929C87.854 0.425856 89.3527 0.0491367 91.0234 0.0491367C93.0708 0.0491367 94.8233 0.589647 96.2811 1.67067C97.7388 2.75169 98.7134 4.22581 99.2048 6.09303H94.5859C94.2419 5.37234 93.7505 4.82365 93.1117 4.44693C92.4893 4.07021 91.7768 3.88185 90.9743 3.88185C89.6803 3.88185 88.632 4.33227 87.8295 5.23312C87.0269 6.13397 86.6256 7.33784 86.6256 8.84471C86.6256 10.3516 87.0269 11.5555 87.8295 12.4563C88.632 13.3572 89.6803 13.8076 90.9743 13.8076C91.7768 13.8076 92.4893 13.6192 93.1117 13.2425C93.7505 12.8658 94.2419 12.3171 94.5859 11.5964H99.2048C98.7134 13.4636 97.7388 14.9377 96.2811 16.0188C94.8233 17.0834 93.0708 17.6157 91.0234 17.6157C89.3527 17.6157 87.854 17.2472 86.5273 16.5101C85.217 15.7567 84.1933 14.7166 83.4563 13.3899C82.7192 12.0632 82.3507 10.5481 82.3507 8.84471Z" fill="white"/>
<path d="M116.715 0.245686V17.4929H112.514V10.3925H105.979V17.4929H101.778V0.245686H105.979V7.00207H112.514V0.245686H116.715Z" fill="white"/>
<path d="M130.485 14.4464H124.048L123.016 17.4929H118.618L124.858 0.245686H129.723L135.964 17.4929H131.517L130.485 14.4464ZM129.404 11.2033L127.266 4.88916L125.153 11.2033H129.404Z" fill="white"/>
<path d="M142.064 0.245686V17.4929H137.863V0.245686H142.064Z" fill="white"/>
<path d="M160.538 17.4929H156.336L149.31 6.85465V17.4929H145.109V0.245686H149.31L156.336 10.9331V0.245686H160.538V17.4929Z" fill="white"/>
<path d="M17.2226 22.8756V39.828H15.5028V26.2907L9.45893 39.828H8.20593L2.16204 26.3398V39.828H0.442236V22.8756H2.26032L8.82015 37.5677L15.38 22.8756H17.2226Z" fill="white"/>
<path d="M37.4622 35.7496H29.6494L28.1507 39.828H26.3326L32.5976 22.8756H34.5385L40.779 39.828H38.9609L37.4622 35.7496ZM36.9463 34.3246L33.5558 25.0377L30.1653 34.3246H36.9463Z" fill="white"/>
<path d="M63.4397 27.6665C62.9483 26.5364 62.1949 25.6519 61.1794 25.0131C60.1803 24.358 59.001 24.0304 57.6415 24.0304C56.3639 24.0304 55.2174 24.3252 54.2019 24.9148C53.1864 25.5045 52.3838 26.348 51.7942 27.4454C51.2045 28.5264 50.9097 29.7876 50.9097 31.229C50.9097 32.6704 51.2045 33.9397 51.7942 35.0371C52.3838 36.1345 53.1864 36.9781 54.2019 37.5677C55.2174 38.1573 56.3639 38.4522 57.6415 38.4522C58.8372 38.4522 59.91 38.1983 60.86 37.6905C61.8264 37.1664 62.5962 36.4294 63.1695 35.4794C63.7591 34.513 64.0949 33.391 64.1768 32.1135H56.9536V30.713H65.9949V31.9661C65.913 33.4729 65.5035 34.8406 64.7664 36.069C64.0294 37.2811 63.0384 38.2392 61.7936 38.9436C60.5652 39.6479 59.1811 40 57.6415 40C56.0527 40 54.6114 39.6315 53.3174 38.8944C52.0235 38.141 50.9998 37.1009 50.2463 35.7742C49.5093 34.4311 49.1408 32.916 49.1408 31.229C49.1408 29.5419 49.5093 28.0351 50.2463 26.7084C50.9998 25.3653 52.0235 24.3252 53.3174 23.5881C54.6114 22.8347 56.0527 22.458 57.6415 22.458C59.476 22.458 61.0811 22.9166 62.457 23.8338C63.8328 24.7511 64.8319 26.0286 65.4543 27.6665H63.4397Z" fill="white"/>
<path d="M85.4834 35.7496H77.6705L76.1718 39.828H74.3538L80.6188 22.8756H82.5597L88.8001 39.828H86.982L85.4834 35.7496ZM84.9674 34.3246L81.5769 25.0377L78.1865 34.3246H84.9674Z" fill="white"/>
<path d="M99.0537 38.3048H107.825V39.828H97.0391V38.4522L105.687 24.1778H97.1865V22.6545H107.702V24.0304L99.0537 38.3048Z" fill="white"/>
<path d="M118.964 22.6545V39.828H117.244V22.6545H118.964Z" fill="white"/>
<path d="M142.194 39.828H140.474L130.966 25.3817V39.828H129.246V22.6545H130.966L140.474 37.0763V22.6545H142.194V39.828Z" fill="white"/>
<path d="M154.197 24.0549V30.4674H160.708V31.8923H154.197V38.403H161.445V39.828H152.477V22.63H161.445V24.0549H154.197Z" fill="white"/>
</g>
</g>
<defs>
<clipPath id="clip0_4862_11916">
<rect width="161.445" height="40" fill="white"/>
</clipPath>
</defs>
</svg>
