<svg width="60" height="64" viewBox="0 0 60 64" fill="none" xmlns="http://www.w3.org/2000/svg">
<g id="ocp-logo 1" clip-path="url(#clip0_4389_24766)">
<g id="Clip path group">
<mask id="mask0_4389_24766" style="mask-type:luminance" maskUnits="userSpaceOnUse" x="0" y="0" width="60" height="64">
<g id="a">
<path id="Vector" d="M0.282959 0H59.3599V64H0.282959V0Z" fill="white"/>
</g>
</mask>
<g mask="url(#mask0_4389_24766)">
<g id="Group">
<path id="Vector_2" d="M18.4826 24.4382C18.4826 23.6407 18.581 22.8451 18.7799 22.0742C18.967 21.321 19.2821 20.6101 19.7124 19.976C20.1377 19.3517 20.697 18.8378 21.3429 18.4774C22.0704 18.0843 22.8883 17.8891 23.7148 17.9112C24.5411 17.8888 25.3588 18.0841 26.0858 18.4774C26.738 18.8442 27.2965 19.3572 27.7173 19.976C28.1466 20.6101 28.4626 21.321 28.6497 22.0732C29.0452 23.6248 29.0452 25.2507 28.6497 26.8023C28.4648 27.5508 28.1491 28.2608 27.7173 28.8995C27.2919 29.5228 26.7327 30.0368 26.0858 30.3961C25.3522 30.791 24.537 30.9869 23.7148 30.9633C22.8882 30.9859 22.0702 30.7906 21.3429 30.3971C20.6914 30.0296 20.1334 29.5168 19.7124 28.8985C19.2807 28.2594 18.965 27.5491 18.7799 26.8003C18.5826 26.0278 18.4827 25.2336 18.4826 24.4363V24.4382ZM16.47 24.4382C16.4667 25.4944 16.62 26.5453 16.9249 27.5565C17.2095 28.5186 17.6728 29.4185 18.2906 30.2091C18.9006 30.9814 19.6753 31.6077 20.5582 32.0424C21.543 32.5116 22.6241 32.7436 23.7148 32.7198C24.8056 32.7443 25.8868 32.5123 26.8715 32.0424C27.7533 31.6082 28.527 30.9825 29.1361 30.211C29.7543 29.4206 30.2179 28.5207 30.5028 27.5585C30.808 26.5493 30.9606 25.4987 30.9577 24.4392C30.961 23.383 30.8077 22.3322 30.5028 21.321C30.2181 20.3592 29.7548 19.4597 29.1371 18.6694C28.5257 17.8967 27.7519 17.2678 26.8705 16.8272C25.8884 16.3499 24.8066 16.1136 23.7148 16.1379C22.6228 16.1137 21.5407 16.3499 20.5582 16.8272C19.6772 17.2671 18.904 17.8957 18.2935 18.6684C17.6759 19.4588 17.2123 20.3583 16.9269 21.32C16.6205 22.3309 16.4665 23.3819 16.47 24.4382ZM35.4258 62.2209V49.923H38.8139C39.6173 49.899 40.4172 50.0384 41.1652 50.3326C41.7798 50.5903 42.3166 51.0036 42.7228 51.5319C43.1423 52.0941 43.4377 52.7449 43.5922 53.4401C43.7783 54.274 43.8679 55.1267 43.8571 55.9814C43.8728 56.8233 43.7768 57.6636 43.5716 58.4803C43.4153 59.087 43.1691 59.6668 42.841 60.2004C42.5779 60.6236 42.2368 60.9928 41.8357 61.2884C41.4867 61.5413 41.1056 61.7466 40.7024 61.8989C40.3544 62.0319 39.9913 62.1212 39.6213 62.1648C39.3399 62.1983 39.0569 62.2167 38.7735 62.2199L35.4258 62.2209ZM33.4133 48.1468V63.9991H38.6002C39.7127 64.0243 40.8197 63.8361 41.8613 63.4448C42.7386 63.1039 43.5175 62.5504 44.1279 61.8339C44.75 61.0746 45.1986 60.1884 45.4423 59.2375C45.7407 58.0835 45.8825 56.8912 45.8667 55.6958C45.8667 53.1506 45.2395 51.2552 43.9822 50.0126C42.7258 48.7691 40.9338 48.1488 38.6032 48.1488H33.4143L33.4133 48.1468ZM48.7467 48.1468V63.9991H59.2535V62.2219H50.7573V56.7376H58.6165V54.9623H50.7573V49.923H59.1836V48.1468H48.7467ZM59.3599 40.8291H16.47V39.1622H59.3599V40.8291Z" fill="white"/>
<path id="Vector_3" d="M17.4213 4.45543C17.1112 2.31685 18.404 0.385033 20.5445 0.0443556C21.8304 -0.15946 23.0769 0.342694 23.8262 1.32239L22.9096 2.09334C22.432 1.42479 21.601 1.08411 20.7178 1.22392C19.1995 1.46614 18.3577 2.75303 18.5782 4.27032C18.7988 5.78663 19.9665 6.75451 21.4848 6.51229C22.369 6.37149 23.0769 5.78565 23.3339 4.99992L24.4268 5.44103C24.2074 6.02899 23.8348 6.54765 23.3477 6.94336C22.8606 7.33908 22.2766 7.59749 21.6561 7.69186C19.5156 8.03254 17.7334 6.59205 17.4223 4.45346L17.4213 4.45543ZM30.4241 7.24189L27.5333 6.29272L26.6275 7.57076L25.4164 7.17199L30.0086 0.863555L31.3477 1.30269L31.6736 9.22589L30.4704 8.83205L30.4241 7.24189ZM30.3828 6.02392L30.2666 2.45765L28.2284 5.31796L30.3828 6.02589V6.02392ZM39.6027 9.76546C38.7372 10.7983 37.2958 10.9037 36.2875 9.97518L35.1946 8.97088L33.5838 10.8909L32.7055 10.0835L37.4031 4.48005L39.3723 6.29469C39.8554 6.72991 40.1495 7.33652 40.192 7.98533C40.2344 8.63415 40.022 9.27392 39.5998 9.76842L39.6017 9.76448L39.6027 9.76546ZM38.7235 8.95808C39.201 8.38897 39.1685 7.63672 38.6486 7.1582L37.5557 6.15291L35.9183 8.10639L37.0112 9.11069C37.5301 9.5902 38.2538 9.51832 38.7225 8.95709L38.7235 8.95808ZM43.9823 12.2979L37.8875 16.1507L37.284 15.1011L43.3787 11.2473L43.9823 12.2959V12.2979ZM45.8688 21.2264L45.3667 19.1941L39.5604 20.7744L39.265 19.588L45.0723 18.0077L44.5662 15.9646L45.6492 15.6712L46.9519 20.932L45.8688 21.2264ZM41.0373 28.2841L41.4134 25.1333L40.0527 24.4293L40.2102 23.108L46.9519 26.7176L46.7776 28.1768L39.3979 29.9274L39.5535 28.6179L41.0373 28.2861V28.2841ZM42.1745 28.0242L45.5025 27.268L42.4552 25.6768L42.1745 28.0242ZM37.6847 35.4462L36.7099 34.8722L38.7018 31.1552L44.9068 34.8082L44.3338 35.8755L39.1035 32.7966L37.6847 35.4462ZM31.0208 45.2451C30.4153 44.0261 30.8446 42.5788 32.035 41.9299L33.3248 41.2269L32.1994 38.9583L33.2372 38.3922L36.5199 45.0088L34.1923 46.277C33.0028 46.9268 31.6313 46.4729 31.0218 45.2431L31.0208 45.2451ZM32.0586 44.6809C32.3924 45.3524 33.0728 45.5927 33.6862 45.2599L34.976 44.5568L33.8319 42.2499L32.542 42.9529C31.9286 43.2867 31.7317 44.0192 32.0586 44.6809ZM23.9818 42.9982L26.9957 42.6752L27.3452 41.1264L28.6085 40.9906L26.7633 48.6863L25.3681 48.837L22.0854 41.6906L23.3388 41.5567L23.9788 42.9972L23.9818 42.9982ZM24.4771 44.101L25.9274 47.3305L26.722 43.8617L24.4771 44.101ZM17.5867 43.0711L18.8982 43.5319L19.7243 40.9541L20.832 41.345L18.5674 48.4175L15.8686 47.4674C14.6634 47.043 14.0234 45.6951 14.4291 44.4318C14.5649 43.9985 14.828 43.6162 15.1841 43.3345C15.5403 43.0528 15.973 42.8849 16.4259 42.8525L15.774 39.5658L16.9881 39.9922L17.5907 43.0711H17.5867ZM18.5644 44.5726L16.9743 44.0143C16.3865 43.8076 15.7475 44.166 15.5368 44.8217C15.3231 45.4893 15.6303 46.1706 16.2191 46.3774L17.8092 46.9367L18.5674 44.5736L18.5644 44.5726ZM7.30537 40.3772L8.83054 41.7399L12.7227 36.9546L13.6128 37.7502L9.72162 42.5354L11.2537 43.904L10.528 44.7971L6.58168 41.2722L7.30734 40.3791L7.30537 40.3772ZM1.53848 32.5829L7.93848 29.3199L8.33823 30.1815L5.46316 35.5604L9.80728 33.345L10.3183 34.4478L3.9183 37.7108L3.51854 36.8483L6.39263 31.4703L2.0495 33.6857L1.53848 32.5829ZM6.27251 22.8264L7.38906 22.7712L7.59091 27.2946L0.481989 27.6441L0.281128 23.173L1.39768 23.1168L1.5434 26.3641L3.39153 26.2735L3.2586 23.2931L4.36433 23.2389L4.49823 26.2194L6.41627 26.1239L6.26857 22.8254L6.27251 22.8264ZM6.03719 17.6512L5.57147 19.0169L8.01331 19.9306L7.61947 21.0846L0.917189 18.5738L1.87522 15.7637C2.30254 14.5093 3.60223 13.8634 4.79953 14.3124C5.66107 14.6344 6.23214 15.494 6.26759 16.4362L9.4154 15.8159L8.98414 17.0792L6.03719 17.6493V17.6512ZM4.58488 18.6457L5.14907 16.9896C5.3578 16.3772 5.02796 15.6997 4.40568 15.4664C3.77257 15.2301 3.1178 15.5383 2.90907 16.1507L2.34488 17.8068L4.58488 18.6457ZM8.77737 13.828L9.02057 12.6327C9.72457 12.9468 10.4483 12.8601 11.0991 12.1128C11.7233 11.398 11.684 10.7964 11.3019 10.4291C10.8362 9.98208 10.3016 10.2637 9.34746 10.8525C8.35202 11.4728 7.32408 12.0202 6.33454 11.072C5.36667 10.1436 5.55079 8.77789 6.36211 7.8494C7.1498 6.94454 8.19153 6.71512 9.1919 7.03808L8.94673 8.20189C8.35596 7.99512 7.73762 8.04042 7.20297 8.65285C6.74316 9.1806 6.70377 9.76251 7.10156 10.1445C7.50722 10.5335 7.94636 10.3917 8.88666 9.81863C9.96088 9.17174 11.0331 8.50909 12.0768 9.51045C13.0368 10.4291 12.9226 11.7928 11.9203 12.9418C10.975 14.0279 9.8122 14.2858 8.77737 13.829V13.828Z" fill="#B2B2B2"/>
</g>
</g>
</g>
</g>
<defs>
<clipPath id="clip0_4389_24766">
<rect width="59.0769" height="64" fill="white" transform="translate(0.282959)"/>
</clipPath>
</defs>
</svg>
