<svg width="87" height="32" viewBox="0 0 87 32" fill="none" xmlns="http://www.w3.org/2000/svg">
<g id="Chainlink BUILD Lockup - White 1" clip-path="url(#clip0_3698_4510)">
<g id="Layer_1-2">
<path id="Vector" d="M34.6636 7.67344C34.5883 5.63883 36.1795 3.92944 38.2114 3.85687C38.2624 3.85687 38.3108 3.85419 38.3646 3.85419C40.2352 3.85419 41.3426 4.95078 41.6785 6.24088L40.504 6.63598C40.2917 5.64152 39.3805 4.95884 38.3646 5.02603C37.1524 5.02603 35.9402 5.91029 35.9402 7.69494C35.9402 9.47959 37.1228 10.3316 38.3807 10.3316C39.394 10.3612 40.2997 9.69192 40.5658 8.71358L41.7081 9.08449C41.3049 10.5816 39.9127 11.5948 38.3646 11.5196C36.3542 11.5572 34.6958 9.958 34.6582 7.95027C34.6582 7.8562 34.6582 7.76482 34.6636 7.67075V7.67344Z" fill="white"/>
<path id="Vector_2" d="M43.9687 11.3449H42.7646V3.8327H43.9687V6.77844C44.3235 6.35916 44.8503 6.12533 45.3986 6.14414C46.6457 6.14414 47.2478 7.03647 47.2478 8.14918V11.3422H46.0759V8.35345C46.1565 7.81859 45.7883 7.32136 45.2535 7.23804C45.1809 7.22729 45.1083 7.22461 45.0358 7.22998C44.4552 7.22998 43.9849 7.70302 43.9849 8.28088C43.9849 8.31044 43.9849 8.34001 43.9902 8.36957L43.9661 11.3395L43.9687 11.3449Z" fill="white"/>
<path id="Vector_3" d="M49.938 8.45018L51.2335 8.2486C51.5264 8.21097 51.6044 8.06315 51.6044 7.88576C51.6044 7.4611 51.3168 7.11707 50.6502 7.11707C50.1235 7.07138 49.6612 7.4611 49.6155 7.9852C49.6155 8.00133 49.6155 8.01745 49.6155 8.03089L48.5162 7.78362C48.6076 6.91011 49.4005 6.13336 50.6395 6.13336C52.1957 6.13336 52.7897 7.01762 52.7897 8.04433V10.552C52.787 10.8234 52.8085 11.0949 52.8515 11.3637H51.7307C51.6931 11.1513 51.6743 10.9363 51.6823 10.7186C51.341 11.2427 50.7497 11.5437 50.1261 11.5142C49.2553 11.5841 48.4893 10.9363 48.4167 10.0628C48.4167 10.0386 48.4168 10.0144 48.4141 9.99024C48.4141 9.06835 49.0779 8.57112 49.9407 8.44749L49.938 8.45018ZM51.6044 9.26187V9.03072L50.2874 9.22693C49.9165 9.23768 49.6182 9.54408 49.6155 9.91498C49.6208 10.2832 49.9246 10.5789 50.2928 10.5735C50.3116 10.5735 50.3304 10.5735 50.3492 10.5708C50.9808 10.6353 51.5479 10.1757 51.6098 9.54139C51.6178 9.44732 51.6178 9.35325 51.6044 9.26187Z" fill="white"/>
<path id="Vector_4" d="M54.8292 3.72784C55.2673 3.72247 55.6221 4.07187 55.6248 4.50728V4.51535C55.6248 4.94807 55.2754 5.29747 54.8427 5.29747C54.41 5.29747 54.0605 4.94538 54.0605 4.51535C54.0605 4.08531 54.4019 3.7386 54.8265 3.72784H54.8292ZM54.2433 11.3663V6.28924H55.434V11.3422L54.2433 11.3663Z" fill="white"/>
<path id="Vector_5" d="M58.1914 11.3448H56.9873V6.29193H58.1618V6.96386C58.4709 6.43706 59.0434 6.1226 59.6562 6.1441C60.8872 6.1441 61.4785 7.03643 61.4785 8.14914V11.3422H60.2771V8.35341C60.2771 7.73255 59.9949 7.23263 59.2423 7.23263C58.6537 7.23532 58.1807 7.71642 58.1833 8.30234C58.1833 8.34266 58.186 8.38297 58.1914 8.42598V11.3422V11.3448Z" fill="white"/>
<path id="Vector_6" d="M62.9492 11.3449V3.8327H64.1533V11.3422H62.9492V11.3449Z" fill="white"/>
<path id="Vector_7" d="M66.3009 3.72784C66.7363 3.72784 67.0884 4.07994 67.0884 4.51535C67.0884 4.94807 66.7337 5.29479 66.3009 5.29479C65.8682 5.2921 65.5188 4.94001 65.5215 4.50728C65.5242 4.07725 65.8709 3.73053 66.3009 3.72784ZM65.707 11.3663V6.28924H66.9003V11.3422L65.707 11.3663Z" fill="white"/>
<path id="Vector_8" d="M69.6602 11.3448H68.4561V6.29193H69.6279V6.96386C69.9397 6.43976 70.5122 6.1253 71.1223 6.14411C72.3586 6.14411 72.9526 7.03643 72.9526 8.14915V11.3422H71.7485V8.35342C71.8291 7.81856 71.4609 7.32133 70.9261 7.23801C70.8535 7.22726 70.7809 7.22457 70.7057 7.22995C70.1198 7.23264 69.6494 7.71105 69.6521 8.29697C69.6521 8.33998 69.6548 8.38298 69.6602 8.42598V11.3422V11.3448Z" fill="white"/>
<path id="Vector_9" d="M77.0649 8.42602L79.1855 11.3422H77.7099L76.2263 9.25921L75.6055 9.91501V11.3476H74.4121V3.8327H75.6055V8.33463L77.5433 6.29197H79.1425L77.0676 8.42602H77.0649Z" fill="white"/>
<path id="Vector_10" d="M35.6396 15.0351V28.1082H40.913C43.3857 28.1082 45.0064 26.5412 45.0064 24.4018C45.0064 22.7059 43.8641 21.6173 42.6842 21.3405C43.7539 20.9911 44.6005 19.8837 44.6005 18.5372C44.6005 16.5268 43.1061 15.0324 40.5259 15.0324H35.6396V15.0351ZM38.4779 20.2708V17.4487H40.0287C41.171 17.4487 41.7435 18.0023 41.7435 18.849C41.7435 19.6956 41.0796 20.2681 40.0663 20.2681H38.4806L38.4779 20.2708ZM38.4779 25.7295V22.6682H40.3028C41.4451 22.6682 42.109 23.2945 42.109 24.1975C42.109 25.1006 41.4263 25.7269 40.3028 25.7269H38.4779V25.7295Z" fill="white"/>
<path id="Vector_11" d="M51.9056 28.4038C54.7841 28.4038 57.0875 26.6702 57.0875 23.3885V15.0351H54.174V23.1493C54.174 24.7351 53.2897 25.528 51.9056 25.528C50.5214 25.528 49.6371 24.7351 49.6371 23.1493V15.0351H46.7236V23.3885C46.7236 26.6702 49.027 28.4038 51.9029 28.4038H51.9056Z" fill="white"/>
<path id="Vector_12" d="M62.5839 28.1082V15.0351H59.6328V28.1082H62.5839Z" fill="white"/>
<path id="Vector_13" d="M73.7865 28.1082V25.3237H68.1449V15.0351H65.2314V28.1082H73.7865Z" fill="white"/>
<path id="Vector_14" d="M78.4037 25.3613V17.7819H80.0997C82.1101 17.7819 83.7496 18.9619 83.7496 21.5797C83.7496 24.1975 82.1101 25.3586 80.0997 25.3586H78.4037V25.3613ZM80.2099 28.1082C84.1554 28.1082 86.7921 25.6193 86.7921 21.5797C86.7921 17.5401 84.1554 15.0351 80.2287 15.0351H75.4902V28.1082H80.2099Z" fill="white"/>
<path id="Vector_15" d="M13.8606 6.77843L21.8592 11.3717V20.596L13.8848 25.2189L5.88611 20.6336V11.4094L13.8606 6.78112M13.8606 0L10.9256 1.70401L2.93499 6.33496L0 8.03897V24.0309L2.93499 25.7188L10.9336 30.3121L13.8686 32L16.8036 30.296L24.7781 25.6677L27.7131 23.9745V7.96909L24.7781 6.2812L16.7821 1.68789L13.8444 0H13.8606Z" fill="white"/>
</g>
</g>
<defs>
<clipPath id="clip0_3698_4510">
<rect width="86.7919" height="32" fill="white"/>
</clipPath>
</defs>
</svg>
