<svg width="185" height="44" viewBox="0 0 185 44" fill="none" xmlns="http://www.w3.org/2000/svg">
<g id="Coin Live" clip-path="url(#clip0_4512_13570)">
<g id="Layer_1-2">
<path id="Vector" d="M22 0C9.84971 0 0 9.84971 0 22C0 34.1503 9.84971 44 22 44C34.1503 44 44 34.1503 44 22C44 9.84971 34.1503 0 22 0ZM21.5558 16.1124L16.3114 13.3844V30.5611L21.5558 27.8436V33.6516L14.9181 37.0899C14.5451 37.2827 14.1387 37.379 13.7322 37.379C13.267 37.379 12.8019 37.2533 12.3912 37.004C11.6223 36.5368 11.153 35.7008 11.153 34.8019V9.22324C11.153 8.33067 11.6139 7.50095 12.3724 7.03162C13.1309 6.56229 14.0779 6.51619 14.8783 6.91429L21.5537 10.3128V16.1103L21.5558 16.1124ZM39.6063 24.3027L25.233 31.7491V12.2215L28.556 13.9815C29.788 14.5682 30.3621 15.796 30.3621 16.743V23.2844L37.2345 19.7246C38.4979 19.0688 40.0547 19.5632 40.7105 20.8288C41.3663 22.0922 40.8718 23.649 39.6063 24.3048V24.3027Z" fill="white"/>
<path id="Vector_2" d="M92.0689 25.7567C91.5409 26.9867 90.8075 28.0678 89.8647 28.996C88.9218 29.9263 87.7988 30.6596 86.4935 31.2002C85.1881 31.7407 83.7675 32.011 82.2359 32.011C80.7043 32.011 79.2984 31.747 78.0161 31.219C76.7359 30.691 75.6234 29.9703 74.6826 29.0526C73.7397 28.1369 73.0127 27.0621 72.4973 25.8322C71.9818 24.6023 71.7241 23.2844 71.7241 21.8764C71.7241 20.4684 71.9818 19.1526 72.4973 17.9206C73.0127 16.6906 73.746 15.6095 74.7015 14.6813C75.6548 13.7531 76.7799 13.024 78.0727 12.496C79.3655 11.968 80.7776 11.704 82.3114 11.704C83.8451 11.704 85.2552 11.968 86.55 12.496C87.8428 13.024 88.9616 13.7447 89.9024 14.6625C90.8453 15.5802 91.5723 16.6529 92.0877 17.8828C92.6032 19.1127 92.8609 20.4327 92.8609 21.8386C92.8609 23.2446 92.5969 24.5268 92.0689 25.7567ZM87.1912 19.6533C86.9272 18.9745 86.5563 18.3857 86.0807 17.8828C85.603 17.38 85.0373 16.9777 84.3856 16.6781C83.7319 16.3764 83.0175 16.2255 82.238 16.2255C81.4586 16.2255 80.7127 16.3764 80.0715 16.6781C79.4304 16.9798 78.8856 17.3758 78.4331 17.864C77.9805 18.3543 77.6285 18.9451 77.3792 19.6345C77.1277 20.3259 77.002 21.0466 77.002 21.8009C77.002 22.5552 77.134 23.3137 77.398 24.0051C77.662 24.6966 78.0329 25.3 78.5085 25.8133C78.9862 26.3287 79.5498 26.731 80.2036 27.0181C80.8573 27.3072 81.5592 27.4518 82.3134 27.4518C83.0677 27.4518 83.8074 27.3009 84.4611 26.9992C85.1148 26.6975 85.6721 26.2973 86.1373 25.7945C86.6024 25.2916 86.9586 24.6966 87.21 24.0051C87.4615 23.3137 87.5872 22.5929 87.5872 21.8386C87.5872 21.0844 87.4552 20.3322 87.1912 19.6533Z" fill="white"/>
<path id="Vector_3" d="M95.8362 4.32038C96.4626 3.79238 97.2295 3.52838 98.1346 3.52838C99.0398 3.52838 99.8108 3.79238 100.452 4.32038C101.093 4.84838 101.412 5.60057 101.412 6.58114C101.412 7.56172 101.091 8.24476 100.452 8.78533C99.8108 9.32591 99.0398 9.59619 98.1346 9.59619C97.2295 9.59619 96.4647 9.32591 95.8362 8.78533C95.2076 8.24476 94.8933 7.51143 94.8933 6.58114C94.8933 5.60267 95.2076 4.84838 95.8362 4.32038ZM100.846 31.5585H95.4967V12.1566H100.846V31.5585Z" fill="white"/>
<path id="Vector_4" d="M119.156 12.2131C119.986 12.5526 120.694 13.0303 121.285 13.6442C121.876 14.2602 122.339 15.0249 122.678 15.9426C123.018 16.8604 123.187 17.8954 123.187 19.0499V31.5564H117.801V20.7449C117.801 19.9676 117.7 19.3139 117.499 18.7859C117.298 18.2579 117.04 17.8242 116.726 17.4868C116.411 17.1474 116.034 16.896 115.596 16.7325C115.156 16.5691 114.71 16.4874 114.26 16.4874C113.809 16.4874 113.348 16.5628 112.885 16.7137C112.42 16.8645 112.005 17.1097 111.643 17.4491C111.278 17.7885 110.976 18.2285 110.738 18.767C110.499 19.3076 110.379 19.9676 110.379 20.7449V31.5564H104.992V12.1566L110.417 14.7567C111.071 13.927 111.886 13.2126 112.866 12.6091C113.845 12.0057 115.027 11.704 116.407 11.704C117.411 11.704 118.329 11.8737 119.158 12.2131H119.156Z" fill="white"/>
<path id="Vector_5" d="M133.131 31.5585H127.782V4.02075H133.131V31.5606V31.5585Z" fill="white"/>
<path id="Vector_6" d="M138.068 4.36439C138.694 3.83639 139.461 3.57239 140.366 3.57239C141.271 3.57239 142.043 3.83639 142.684 4.36439C143.325 4.89239 143.643 5.64458 143.643 6.62515C143.643 7.60572 143.323 8.28877 142.684 8.82934C142.043 9.36991 141.271 9.6402 140.366 9.6402C139.461 9.6402 138.696 9.36991 138.068 8.82934C137.439 8.28877 137.125 7.55544 137.125 6.62515C137.125 5.64667 137.439 4.89239 138.068 4.36439ZM143.078 31.6025H137.728V12.2006H143.078V31.6025Z" fill="white"/>
<path id="Vector_7" d="M158.109 31.856H153.099L145.225 12.3787H150.914L155.661 25.5263L160.445 12.3787H166.02L158.109 31.856Z" fill="white"/>
<path id="Vector_8" d="M179.428 27.0705C180.046 26.7939 180.633 26.4671 181.188 26.0899C181.743 25.7128 182.259 25.3 182.732 24.8516C183.206 24.4033 183.608 23.9465 183.935 23.4814L184.991 27.9149C184.54 28.4094 184.054 28.8619 183.532 29.2684C183.011 29.677 182.455 30.0353 181.871 30.3412C181.286 30.6492 180.698 30.9174 180.107 31.1478C179.516 31.3783 178.915 31.5669 178.305 31.7115C176.863 32.0551 175.491 32.1221 174.19 31.9168C172.889 31.7115 171.694 31.2715 170.605 30.601C169.515 29.9305 168.589 29.0484 167.824 27.9526C167.06 26.8568 166.507 25.5892 166.163 24.1455C165.832 22.7522 165.754 21.4029 165.935 20.0954C166.113 18.788 166.513 17.5895 167.131 16.5C167.749 15.4105 168.585 14.476 169.639 13.6945C170.693 12.9151 171.916 12.3577 173.308 12.0267C174.774 11.6768 176.134 11.6433 177.389 11.9261C178.644 12.209 179.771 12.7139 180.771 13.4452C181.77 14.1743 182.623 15.0962 183.325 16.2067C184.029 17.3172 184.576 18.5366 184.97 19.8629L172.423 26.3749C173.019 27.0328 173.746 27.4874 174.607 27.7326C175.466 27.9798 176.432 27.9756 177.509 27.72C178.169 27.5629 178.808 27.3471 179.426 27.0705H179.428ZM171.168 22.88L179.22 18.6393C178.701 17.6524 177.991 16.9191 177.09 16.4351C176.187 15.9532 175.187 15.8421 174.087 16.104C173.329 16.2842 172.715 16.6048 172.243 17.0657C171.772 17.5267 171.424 18.0673 171.198 18.6895C170.971 19.3118 170.858 19.9718 170.856 20.6695C170.854 21.3673 170.932 22.0461 171.089 22.7061L171.168 22.88Z" fill="white"/>
<path id="Vector_9" d="M62.0338 32.0572C60.0182 32.0572 58.2226 31.6235 56.6469 30.7581C55.0713 29.8928 53.8435 28.6922 52.9656 27.1543C52.0877 25.6164 51.6477 23.8669 51.6477 21.9036C51.6477 19.9404 52.0877 18.1574 52.9656 16.6341C53.8435 15.1109 55.0588 13.9145 56.6071 13.0492C58.1576 12.1838 59.9407 11.7501 61.9542 11.7501C63.9677 11.7501 65.6607 12.2278 67.2635 13.1833C68.8643 14.1387 70.0271 15.5216 70.7521 17.3297L65.9456 19.0353C65.5831 18.2852 65.0216 17.6859 64.261 17.2334C63.4984 16.7808 62.6519 16.5545 61.7237 16.5545C60.7955 16.5545 59.9281 16.7808 59.2052 17.2334C58.4824 17.6859 57.9125 18.3124 57.4997 19.1128C57.0869 19.9132 56.8795 20.8435 56.8795 21.9036C56.8795 22.9638 57.0869 23.8857 57.4997 24.6736C57.9125 25.4614 58.4949 26.0878 59.2429 26.553C59.9909 27.0181 60.8437 27.2507 61.8012 27.2507C62.7587 27.2507 63.5759 27.0056 64.3386 26.5153C65.1012 26.025 65.6628 25.3776 66.0252 24.5772L70.8694 26.2827C70.1193 28.116 68.9502 29.5387 67.362 30.5465C65.7738 31.5543 63.997 32.0572 62.0338 32.0572Z" fill="white"/>
</g>
</g>
<defs>
<clipPath id="clip0_4512_13570">
<rect width="184.991" height="44" fill="white"/>
</clipPath>
</defs>
</svg>
