<svg xmlns="http://www.w3.org/2000/svg" width="106" height="28" viewBox="0 0 106 28" fill="none">
    <g clip-path="url(#clip0_4502_5586)">
        <path d="M17.7268 8.30119C17.6955 8.21014 17.6603 8.12398 17.6191 8.04272C17.674 8.13475 17.7092 8.22189 17.7268 8.30119Z" fill="white"/>
        <path d="M43.8147 12.3284C43.5278 11.2094 42.8053 10.3909 41.3857 10.3909C39.2985 10.3909 38.4252 12.2325 38.4252 14.1024C38.4252 15.9723 39.2985 17.8139 41.3857 17.8139C42.9003 17.8139 43.7325 16.6812 43.8685 15.2625H45.5329C45.3968 17.5956 43.7452 19.206 41.3848 19.206C38.4653 19.206 36.7188 16.8867 36.7188 14.1034C36.7188 11.32 38.4653 9.00073 41.3848 9.00073C43.5817 9.01444 45.3146 10.2284 45.5192 12.3294H43.8147V12.3284Z" fill="white"/>
        <path d="M46.5449 15.439C46.5449 13.2832 47.8411 11.7275 50.1056 11.7275C52.3701 11.7275 53.6663 13.2832 53.6663 15.439C53.6663 17.6085 52.3701 19.1642 50.1056 19.1642C47.8411 19.1642 46.5449 17.6085 46.5449 15.439ZM52.1116 15.439C52.1116 14.225 51.4978 12.9562 50.1056 12.9562C48.7135 12.9562 48.0996 14.225 48.0996 15.439C48.0996 16.6667 48.7135 17.9355 50.1056 17.9355C51.4978 17.9365 52.1116 16.6667 52.1116 15.439Z" fill="white"/>
        <path d="M55.0039 9.23096H56.5596V10.7044H55.0039V9.23096ZM55.0039 11.9193H56.5596V18.9732H55.0039V11.9193Z" fill="white"/>
        <path d="M58.252 11.9194H59.7254V12.9562L59.7528 12.9836C60.2168 12.2063 61.0216 11.7285 61.9497 11.7285C63.478 11.7285 64.4462 12.547 64.4462 14.1301V18.9733H62.8906V14.5393C62.8631 13.434 62.4265 12.9562 61.5121 12.9562C60.4753 12.9562 59.8066 13.7747 59.8066 14.8115V18.9733H58.252V11.9194Z" fill="white"/>
        <path d="M74.8018 18.9733H73.7102L73.4507 17.8269C72.5363 18.8636 71.7041 19.2053 70.5176 19.2053C67.5981 19.2053 65.8516 16.886 65.8516 14.1027C65.8516 11.3193 67.5981 9 70.5176 9C72.646 9 74.4337 10.1327 74.6931 12.3287H73.0288C72.8653 11.0462 71.7462 10.3912 70.5186 10.3912C68.4313 10.3912 67.558 12.2327 67.558 14.1027C67.558 15.9726 68.4313 17.8141 70.5186 17.8141C72.2651 17.8415 73.2197 16.791 73.2471 15.1394H70.6546V13.8432H74.8027V18.9733H74.8018Z" fill="white"/>
        <path d="M77.6533 15.8482C77.6533 16.9536 78.2535 17.9355 79.5497 17.9355C80.4504 17.9355 80.9957 17.54 81.2688 16.7617H82.7423C82.4016 18.3036 81.0916 19.1632 79.5497 19.1632C77.3391 19.1632 76.0977 17.6212 76.0977 15.4517C76.0977 13.4457 77.4076 11.7266 79.5086 11.7266C81.7329 11.7266 83.0967 13.7326 82.8372 15.8473H77.6533V15.8482ZM81.2826 14.8252C81.2277 13.8432 80.5591 12.9562 79.5086 12.9562C78.4307 12.9562 77.6935 13.7747 77.6533 14.8252H81.2826Z" fill="white"/>
        <path d="M88.7862 14.2798C88.6639 13.4203 88.0353 12.9562 87.1767 12.9562C86.372 12.9562 85.2393 13.3791 85.2393 15.5212C85.2393 16.6951 85.7581 17.9365 87.1082 17.9365C88.0089 17.9365 88.6365 17.3363 88.7862 16.326H90.3419C90.0551 18.1548 88.9233 19.1642 87.1082 19.1642C84.8976 19.1642 83.6836 17.5948 83.6836 15.5212C83.6836 13.3929 84.8437 11.7285 87.163 11.7285C88.8 11.7285 90.1921 12.547 90.3419 14.2798H88.7862Z" fill="white"/>
        <path d="M91.6523 9.23096H93.208V14.7703L96.0188 11.9184H97.9289L95.2277 14.5108L98.1883 18.9722H96.2919L94.1361 15.5476L93.208 16.4483V18.9722H91.6523V9.23096Z" fill="white"/>
        <path d="M98.6113 15.439C98.6113 13.2832 99.9076 11.7275 102.173 11.7275C104.437 11.7275 105.734 13.2832 105.734 15.439C105.734 17.6085 104.437 19.1642 102.173 19.1642C99.9076 19.1642 98.6113 17.6085 98.6113 15.439ZM104.178 15.439C104.178 14.225 103.564 12.9562 102.172 12.9562C100.78 12.9562 100.166 14.225 100.166 15.439C100.166 16.6667 100.78 17.9355 102.172 17.9355C103.564 17.9365 104.178 16.6667 104.178 15.439Z" fill="white"/>
        <path d="M13.9855 0.000139984C6.22671 0.0353847 -0.0341257 6.35203 0.000139984 14.1117C0.0353847 21.8705 6.35399 28.1313 14.1117 28.0971C21.8705 28.0618 28.1313 21.7442 28.0971 13.9864C28.0618 6.22671 21.7442 -0.0341257 13.9855 0.000139984ZM12.2066 13.3589C10.8193 13.3589 9.6944 12.235 9.6944 10.8477C9.6944 9.4614 10.8193 8.3365 12.2066 8.3365C13.5929 8.3365 14.7178 9.4614 14.7178 10.8477C14.7187 12.235 13.5938 13.3589 12.2066 13.3589ZM14.2097 16.0747L14.2224 16.059L14.2361 16.0434C14.9527 16.5055 15.7712 16.6689 16.5887 16.6924C17.4071 16.714 18.2413 16.6523 19.0617 16.4869C19.8811 16.3165 20.6869 16.0649 21.4652 15.7438C21.9018 15.5636 22.3365 15.3669 22.7506 15.1358C22.7536 15.1338 22.7555 15.1329 22.7585 15.1309C23.0159 14.9762 23.2676 14.8127 23.5152 14.6443C23.5691 14.6062 23.621 14.566 23.6719 14.5249L23.6778 14.5317L23.6993 14.5572C23.0678 15.1319 22.3159 15.5587 21.5504 15.9357C20.7769 16.2999 19.9702 16.5985 19.1371 16.8138C18.3069 17.0283 17.4404 17.1908 16.5632 17.1105C15.7007 17.0331 14.7912 16.7306 14.2097 16.0747ZM20.6555 13.3589C20.6545 13.0573 20.8973 12.8145 21.1969 12.8116C21.4985 12.8106 21.7413 13.0524 21.7442 13.353C21.7452 13.6536 21.5024 13.8993 21.2028 13.9003C20.9022 13.9022 20.6575 13.6594 20.6555 13.3589ZM16.3527 26.8331C15.8103 23.0316 19.1302 19.3084 21.0021 17.4032C21.427 16.9715 22.0839 16.3762 22.6948 15.7438C25.1248 13.4715 25.6084 10.7566 20.635 9.39972C19.6922 9.12657 18.7151 8.73986 17.7253 8.34923C17.694 8.25818 17.6587 8.17203 17.6176 8.09077C17.5041 7.89497 17.3053 7.66979 17.0048 7.41427C16.3586 6.85329 15.1436 6.86797 14.0951 7.11664C12.9359 6.8435 11.7924 6.74657 10.693 7.00993C5.88406 8.33455 5.11063 10.6803 4.92364 13.5067C4.66909 16.5613 4.52028 18.8375 3.36406 21.4378C1.92098 19.3564 1.07021 16.8315 1.05846 14.1069C1.02615 6.93259 6.81608 1.09077 13.9903 1.05846C21.1646 1.02615 27.0064 6.8151 27.0387 13.9894C27.0681 20.3971 22.4501 25.7435 16.3527 26.8331Z" fill="white"/>
        <path d="M13.9727 10.8711C13.9727 11.8472 13.1817 12.6373 12.2066 12.6373C11.2305 12.6373 10.4395 11.8472 10.4395 10.8711C10.4395 9.89505 11.2305 9.10498 12.2066 9.10498C13.1817 9.104 13.9727 9.89505 13.9727 10.8711Z" fill="white"/>
    </g>
    <defs>
        <clipPath id="clip0_4502_5586">
            <rect width="105.734" height="28" fill="white"/>
        </clipPath>
    </defs>
</svg>
