<svg xmlns="http://www.w3.org/2000/svg" width="157" height="28" viewBox="0 0 157 28" fill="none">
    <path d="M23.1446 16.7371C22.6751 17.024 22.1274 17.0762 21.7102 16.8414C21.1886 16.5285 20.8756 15.8243 20.8756 14.8594V11.9123C20.8756 10.504 20.3279 9.48687 19.389 9.22607C17.7982 8.75663 16.5985 10.7126 16.1551 11.4429L13.3385 15.9547V10.3997C13.3124 9.12175 12.8951 8.36544 12.1127 8.13072C11.5911 7.97424 10.8087 8.05248 10.0524 9.2L3.76712 19.2669C2.93256 17.676 2.4892 15.9026 2.4892 14.103C2.4892 8.02639 7.36616 3.09727 13.3385 3.09727C19.3108 3.09727 24.1878 8.02639 24.1878 14.103V14.1291V14.1552C24.2399 15.3288 23.8748 16.2677 23.1446 16.7371ZM26.5871 14.103V14.077V14.0509C26.561 6.67023 20.6148 0.645752 13.3385 0.645752C6.03608 0.645752 0.0898438 6.67023 0.0898438 14.103C0.0898438 21.5098 6.03608 27.5603 13.3385 27.5603C16.7028 27.5603 19.8846 26.2824 22.3361 23.9613C22.8316 23.4918 22.8577 22.7355 22.3882 22.24C21.9449 21.7445 21.1886 21.7184 20.693 22.1618C20.693 22.1618 20.693 22.1618 20.667 22.1878C18.6849 24.0656 16.0247 25.1349 13.2863 25.1349C10.0785 25.1349 7.20968 23.7266 5.2276 21.4837L10.887 12.4078V16.6067C10.887 18.6149 11.6694 19.2669 12.3214 19.4494C12.9734 19.632 13.9644 19.5016 15.0337 17.8064L18.1372 12.773C18.2415 12.6165 18.3198 12.46 18.4241 12.3557V14.9115C18.4241 16.7893 19.1804 18.3019 20.4844 19.0322C21.658 19.7102 23.1446 19.632 24.3703 18.8757C25.883 17.8846 26.6914 16.1634 26.5871 14.103ZM45.0518 9.51295C45.3647 9.69551 45.6516 10.1389 45.6516 10.5301C45.6516 11.156 45.13 11.6776 44.5302 11.6776C44.3737 11.6776 44.2433 11.6254 44.1129 11.5994C43.4087 11.0778 42.522 10.7387 41.5831 10.7387C39.3663 10.7387 37.8537 12.5382 37.8537 14.7811C37.8537 17.024 39.3924 18.7974 41.5831 18.7974C42.6785 18.7974 43.6695 18.3541 44.3998 17.6499C44.5823 17.5195 44.8171 17.4413 45.0518 17.4413C45.6516 17.4413 46.121 17.9107 46.121 18.5106C46.121 18.9018 45.8863 19.2408 45.5994 19.4234C44.5302 20.3362 43.0958 20.936 41.6092 20.936C38.2188 20.936 35.4543 18.1454 35.4543 14.7029C35.4543 11.2603 38.2188 8.46975 41.6092 8.46975C42.861 8.44367 44.0607 8.83487 45.0518 9.51295ZM51.2588 12.121C53.5799 12.121 55.5098 14.077 55.5098 16.5024C55.5098 18.9018 53.5538 20.9621 51.2588 20.9621C48.8334 20.9621 46.8252 18.9278 46.8252 16.5024C46.8252 14.077 48.8334 12.121 51.2588 12.121ZM51.2327 18.7974C52.2499 18.7974 53.1105 17.8325 53.1105 16.5285C53.1105 15.2245 52.2499 14.3899 51.2327 14.3899C50.1374 14.3899 49.2246 15.1984 49.2246 16.5285C49.2246 17.8064 50.1374 18.7974 51.2327 18.7974ZM56.9703 19.6059V13.451C56.9703 12.773 57.4919 12.2253 58.17 12.2253C58.822 12.2253 59.3697 12.773 59.3697 13.451V19.6059C59.3697 20.284 58.822 20.8317 58.17 20.8317C57.518 20.8317 56.9703 20.2579 56.9703 19.6059ZM56.7878 9.90415C56.7878 9.09567 57.4137 8.46975 58.17 8.46975C58.9524 8.46975 59.5783 9.12175 59.5783 9.90415C59.5783 10.6866 58.9524 11.3125 58.17 11.3125C57.3876 11.2864 56.7878 10.6605 56.7878 9.90415ZM63.9598 16.2677V19.6059C63.9598 20.284 63.4121 20.8317 62.7601 20.8317C62.1081 20.8317 61.5604 20.284 61.5604 19.6059V13.1642C61.5604 12.6426 61.9777 12.2253 62.4993 12.2253C63.0209 12.2253 63.4121 12.6686 63.4121 13.1642C64.3771 12.2514 65.2377 12.121 66.0462 12.121C68.4455 12.121 69.5148 13.9205 69.5148 15.9808V19.6059C69.5148 20.284 68.9671 20.8317 68.3151 20.8317C67.6631 20.8317 67.1155 20.284 67.1155 19.6059V16.2677C67.1155 15.2245 66.9851 14.3378 65.4724 14.3378C64.4031 14.3378 63.9598 15.2245 63.9598 16.2677ZM77.2867 17.5456C76.9998 17.5456 76.8172 17.4152 76.6607 17.2326L73.8702 14.2074V19.6059C73.8702 20.284 73.3225 20.8317 72.6705 20.8317C72.0185 20.8317 71.4708 20.284 71.4708 19.6059V8.91312C71.549 8.73056 71.7316 8.60015 71.9142 8.60015C72.1228 8.60015 72.3054 8.78271 72.4358 8.91312L76.8955 13.9205C77.0259 14.077 77.1823 14.1552 77.2867 14.1552C77.3649 14.1552 77.5475 14.077 77.6779 13.9205L82.1375 8.91312C82.2679 8.78271 82.4244 8.60015 82.6591 8.60015C82.8678 8.60015 83.0503 8.73056 83.1025 8.91312V19.6059C83.1025 20.284 82.5809 20.8317 81.9028 20.8317C81.2508 20.8317 80.7031 20.284 80.7031 19.6059V14.2074L77.9126 17.2326C77.7039 17.4152 77.5214 17.5456 77.2867 17.5456ZM88.814 18.7974C89.8833 18.7974 90.7961 17.8325 90.7961 16.5285C90.7961 15.2245 89.8572 14.3638 88.814 14.3638C87.7708 14.3638 86.9102 15.2506 86.9102 16.5285C86.9102 17.7803 87.7447 18.7974 88.814 18.7974ZM91.3699 19.8928L91.3177 19.6059C90.8483 20.5187 89.3617 20.936 88.4228 20.936C86.1799 20.936 84.5108 18.9018 84.5108 16.4763C84.5108 14.077 86.206 12.0949 88.5532 12.0949C88.9444 12.0949 90.3006 12.1992 91.3438 13.425L91.3959 13.1381C91.3959 12.6165 91.7871 12.1992 92.3087 12.1992C92.8303 12.1992 93.2476 12.6426 93.2476 13.1381V19.8667C93.2476 20.3883 92.8303 20.8056 92.3087 20.8056C91.761 20.8317 91.3699 20.3883 91.3699 19.8928ZM99.8459 14.3378H99.5851C98.0724 14.416 97.7855 15.2766 97.7855 16.2677V19.6059C97.7855 20.284 97.2379 20.8317 96.5859 20.8317C95.9339 20.8317 95.3862 20.284 95.3862 19.6059V13.1642C95.3862 12.6426 95.8035 12.2253 96.3251 12.2253C96.8467 12.2253 97.2379 12.6686 97.2379 13.1642C98.1246 12.3296 98.8548 12.147 99.5851 12.121H99.8198C100.394 12.121 100.915 12.6165 100.915 13.2424C100.941 13.8162 100.42 14.3378 99.8459 14.3378ZM109.104 19.0322C109.209 19.2147 109.287 19.3973 109.287 19.6059C109.287 20.2318 108.713 20.8056 108.087 20.8056C107.67 20.8056 107.305 20.4926 107.018 20.1275L104.253 16.9197V19.5798C104.253 20.2579 103.706 20.8056 103.054 20.8056C102.402 20.8056 101.854 20.2579 101.854 19.5798V9.79983C101.854 9.12175 102.376 8.57407 103.054 8.57407C103.732 8.57407 104.253 9.12175 104.253 9.79983V15.9026L107.018 12.8512C107.305 12.5382 107.644 12.1992 108.061 12.1992C108.661 12.1992 109.209 12.7469 109.209 13.3728C109.209 13.5554 109.156 13.764 109.052 13.9205L106.861 16.3198L109.104 19.0322ZM113.799 14.3638C113.147 14.3638 112.077 14.7029 112.077 15.72H115.546C115.52 14.7029 114.425 14.3638 113.799 14.3638ZM116.928 17.2587H112.077C112.077 18.6931 113.46 18.9278 114.059 18.9278C114.503 18.9278 115.129 18.8496 115.624 18.6149C115.781 18.5106 116.015 18.4323 116.25 18.4323C116.772 18.4323 117.215 18.8757 117.215 19.4234C117.215 19.7885 116.98 20.1014 116.694 20.284C115.963 20.8317 114.998 20.9621 114.086 20.9621C111.66 20.9621 109.652 19.6581 109.652 16.6067C109.652 14.2074 110.878 12.121 113.746 12.121C116.068 12.121 117.815 13.6336 117.867 16.3198C117.867 16.8154 117.45 17.2587 116.928 17.2587ZM123.605 20.936H122.953C121.127 20.936 120.058 20.1275 120.058 17.2848V14.3378H119.432C118.858 14.3378 118.363 13.8162 118.363 13.2424C118.363 12.6165 118.884 12.121 119.432 12.121H120.058V9.852C120.058 9.17392 120.579 8.62623 121.258 8.62623C121.91 8.62623 122.457 9.17392 122.457 9.852V12.121H123.448C124.022 12.121 124.518 12.6165 124.518 13.2424C124.518 13.8162 123.996 14.3378 123.448 14.3378H122.457V16.8154C122.457 18.4584 122.535 18.7974 123.266 18.7974H123.605C124.178 18.7974 124.674 19.2669 124.674 19.8667C124.674 20.4405 124.178 20.936 123.605 20.936ZM135.21 9.51295C135.523 9.69551 135.81 10.1389 135.81 10.5301C135.81 11.156 135.289 11.6776 134.689 11.6776C134.532 11.6776 134.402 11.6254 134.271 11.5994C133.567 11.0778 132.681 10.7387 131.742 10.7387C129.525 10.7387 128.012 12.5382 128.012 14.7811C128.012 17.024 129.551 18.7974 131.742 18.7974C132.837 18.7974 133.828 18.3541 134.558 17.6499C134.741 17.5195 134.976 17.4413 135.21 17.4413C135.81 17.4413 136.28 17.9107 136.28 18.5106C136.28 18.9018 136.045 19.2408 135.758 19.4234C134.689 20.3362 133.254 20.936 131.768 20.936C128.377 20.936 125.613 18.1454 125.613 14.7029C125.613 11.2603 128.377 8.46975 131.768 8.46975C133.02 8.44367 134.245 8.83487 135.21 9.51295ZM141.287 18.7974C142.356 18.7974 143.269 17.8325 143.269 16.5285C143.269 15.2245 142.33 14.3638 141.287 14.3638C140.218 14.3638 139.383 15.2506 139.383 16.5285C139.383 17.7803 140.244 18.7974 141.287 18.7974ZM143.843 19.8928L143.791 19.6059C143.321 20.5187 141.835 20.936 140.896 20.936C138.653 20.936 136.984 18.9018 136.984 16.4763C136.984 14.077 138.679 12.0949 141.026 12.0949C141.417 12.0949 142.774 12.1992 143.817 13.425L143.869 13.1381C143.869 12.6165 144.26 12.1992 144.782 12.1992C145.303 12.1992 145.721 12.6426 145.721 13.1381V19.8667C145.721 20.3883 145.303 20.8056 144.782 20.8056C144.234 20.8317 143.843 20.3883 143.843 19.8928ZM152.267 18.7974C153.336 18.7974 154.171 17.7803 154.171 16.5285C154.171 15.2245 153.31 14.3638 152.267 14.3638C151.197 14.3638 150.285 15.2245 150.285 16.5285C150.285 17.8325 151.197 18.7974 152.267 18.7974ZM150.285 20.2318V23.2832C150.285 23.9613 149.737 24.509 149.085 24.509C148.433 24.509 147.885 23.9613 147.885 23.2832V13.1642C147.885 12.6426 148.303 12.2253 148.824 12.2253C149.346 12.2253 149.737 12.6686 149.737 13.2685C150.624 12.3557 151.719 12.121 152.554 12.121C154.875 12.121 156.596 14.077 156.596 16.5024C156.596 18.9018 154.953 20.9621 152.684 20.9621C151.98 20.936 150.937 20.7274 150.285 20.2318Z" fill="white"/>
</svg>
