<svg width="250" height="41" viewBox="0 0 250 41" fill="none" xmlns="http://www.w3.org/2000/svg">
    <g id="Frame 1171277157" clip-path="url(#clip0_2393_24588)">
        <g id="Vector">
            <path
                d="M70.9139 28.4281C69.8967 29.4162 68.6906 30.1912 67.2955 30.7531C65.9005 31.315 64.3843 31.596 62.7471 31.596C61.0905 31.596 59.5646 31.315 58.1696 30.7531C56.7745 30.1816 55.5587 29.3871 54.5221 28.3699C53.4952 27.343 52.696 26.1417 52.1244 24.7661C51.5528 23.3904 51.267 21.8888 51.267 20.2612C51.267 18.6337 51.5528 17.1321 52.1244 15.7564C52.696 14.371 53.4952 13.1697 54.5221 12.1525C55.5587 11.1353 56.7745 10.3457 58.1696 9.78384C59.5646 9.21226 61.0905 8.92647 62.7471 8.92647C64.3746 8.92647 65.8811 9.20742 67.2665 9.76931C68.6615 10.3312 69.8676 11.1111 70.8849 12.1089L67.7605 15.2478C67.1502 14.5018 66.4042 13.9157 65.5226 13.4894C64.6507 13.0535 63.7013 12.8355 62.6744 12.8355C61.696 12.8355 60.7901 13.0244 59.957 13.4022C59.1335 13.7704 58.4118 14.2935 57.7918 14.9717C57.1717 15.6401 56.6922 16.4248 56.3531 17.3258C56.0141 18.2268 55.8445 19.2004 55.8445 20.2467C55.8445 21.3124 56.0141 22.2957 56.3531 23.1966C56.6922 24.0976 57.1717 24.8872 57.7918 25.5653C58.4118 26.2338 59.1335 26.7569 59.957 27.1347C60.7901 27.5029 61.696 27.6869 62.6744 27.6869C63.7013 27.6869 64.6507 27.4738 65.5226 27.0475C66.3946 26.6116 67.1357 26.0206 67.746 25.2747L70.9139 28.4281Z"
                fill="white" />
            <path
                d="M84.5447 31.596C82.8881 31.596 81.3574 31.315 79.9527 30.7531C78.5576 30.1816 77.3418 29.3871 76.3052 28.3699C75.2783 27.343 74.479 26.1417 73.9075 24.7661C73.3456 23.3904 73.0646 21.8888 73.0646 20.2612C73.0646 18.6337 73.3456 17.1321 73.9075 15.7564C74.479 14.371 75.2783 13.1697 76.3052 12.1525C77.3418 11.1353 78.5576 10.3457 79.9527 9.78384C81.3574 9.21226 82.8881 8.92647 84.5447 8.92647C86.2013 8.92647 87.7271 9.21226 89.1222 9.78384C90.5172 10.3457 91.7234 11.1353 92.7406 12.1525C93.7675 13.1697 94.5667 14.371 95.1383 15.7564C95.7099 17.1321 95.9957 18.6337 95.9957 20.2612C95.9957 21.8888 95.7099 23.3904 95.1383 24.7661C94.5667 26.1417 93.7675 27.343 92.7406 28.3699C91.7234 29.3871 90.5172 30.1816 89.1222 30.7531C87.7271 31.315 86.2013 31.596 84.5447 31.596ZM84.5447 27.6869C85.5232 27.6869 86.429 27.498 87.2621 27.1202C88.105 26.7424 88.8364 26.2192 89.4564 25.5508C90.0764 24.8726 90.556 24.0879 90.8951 23.1966C91.2438 22.2957 91.4182 21.3172 91.4182 20.2612C91.4182 19.2052 91.2438 18.2268 90.8951 17.3258C90.556 16.4248 90.0764 15.6401 89.4564 14.9717C88.8364 14.2935 88.105 13.7704 87.2621 13.4022C86.429 13.0244 85.5232 12.8355 84.5447 12.8355C83.5565 12.8355 82.641 13.0244 81.7982 13.4022C80.965 13.7704 80.2336 14.2935 79.6039 14.9717C78.9839 15.6401 78.4995 16.4248 78.1507 17.3258C77.8116 18.2268 77.6421 19.2052 77.6421 20.2612C77.6421 21.3172 77.8116 22.2957 78.1507 23.1966C78.4995 24.0976 78.9839 24.8872 79.6039 25.5653C80.2336 26.2338 80.965 26.7569 81.7982 27.1347C82.641 27.5029 83.5565 27.6869 84.5447 27.6869Z"
                fill="white" />
            <path d="M103.262 9.36242H98.7858V31.16H103.262V9.36242Z" fill="white" />
            <path
                d="M126.614 31.16H121.47L111.283 16.2795V31.16H106.807V9.36242H111.952L122.138 24.272V9.36242H126.614V31.16Z"
                fill="white" />
            <path
                d="M152.272 29.1626C150.886 28.8817 153.337 29.894 152.272 29.6033C151.206 29.3127 152.318 29.383 151.359 29.0052C150.409 28.6371 148.915 30.9633 148.31 31.5814H147.641C145.985 31.5814 144.454 31.3005 143.049 30.7386C141.654 30.167 140.439 29.3726 139.402 28.3554C138.375 27.3382 137.576 26.1417 137.004 24.7661C136.442 23.3904 136.161 21.8888 136.161 20.2612C136.161 18.6337 136.442 17.1321 137.004 15.7564C137.576 14.371 138.375 13.1697 139.402 12.1525C140.439 11.1353 141.654 10.3457 143.049 9.78384C144.454 9.21226 145.985 8.92647 147.641 8.92647C149.298 8.92647 150.824 9.21226 152.219 9.78384C153.614 10.3457 154.82 11.1353 155.837 12.1525C156.864 13.1697 157.664 14.371 158.235 15.7564C158.807 17.1321 159.092 18.6337 159.092 20.2612C159.092 21.7919 158.836 23.216 158.322 24.5336C157.809 25.8414 157.087 26.9943 156.157 27.9921C155.237 28.99 154.147 29.7795 152.887 30.3608C153.595 30.5255 154.273 30.6659 154.922 30.7822C155.571 30.8985 156.23 30.9905 156.898 31.0583C157.576 31.1164 158.293 31.1649 159.049 31.2036L152.272 29.1626ZM147.641 27.6869C148.62 27.6869 149.526 27.498 150.359 27.1202C151.202 26.7424 151.933 26.2192 152.553 25.5508C153.173 24.8726 153.653 24.0879 153.992 23.1966C154.341 22.2957 154.515 21.3172 154.515 20.2612C154.515 19.2052 154.341 18.2268 153.992 17.3258C153.653 16.4248 153.173 15.6401 152.553 14.9717C151.933 14.2935 151.202 13.7704 150.359 13.4022C149.526 13.0244 148.62 12.8355 147.641 12.8355C146.653 12.8355 145.738 13.0244 144.895 13.4022C144.062 13.7704 143.33 14.2935 142.701 14.9717C142.081 15.6401 141.596 16.4248 141.248 17.3258C140.908 18.2268 140.739 19.2052 140.739 20.2612C140.739 21.3172 140.908 22.2957 141.248 23.1966C141.596 24.0976 142.081 24.8872 142.701 25.5653C143.33 26.2338 144.062 26.7569 144.895 27.1347C145.738 27.5029 146.653 27.6869 147.641 27.6869Z"
                fill="white" />
            <path
                d="M180.977 9.36242V21.3511C180.977 23.4824 180.595 25.3134 179.829 26.8441C179.074 28.3748 177.984 29.5518 176.56 30.3753C175.145 31.1891 173.445 31.596 171.459 31.596C169.483 31.596 167.782 31.1891 166.358 30.3753C164.934 29.5518 163.84 28.3748 163.074 26.8441C162.319 25.3134 161.941 23.4824 161.941 21.3511V9.36242H166.416V20.7989C166.416 22.3199 166.605 23.589 166.983 24.6062C167.371 25.6234 167.937 26.3936 168.683 26.9168C169.429 27.4302 170.355 27.6869 171.459 27.6869C172.563 27.6869 173.489 27.4302 174.235 26.9168C174.981 26.3936 175.542 25.6234 175.92 24.6062C176.308 23.589 176.501 22.3199 176.501 20.7989V9.36242H180.977Z"
                fill="white" />
            <path
                d="M195.102 31.596C193.445 31.596 191.915 31.315 190.51 30.7531C189.115 30.1816 187.899 29.3871 186.863 28.3699C185.836 27.343 185.036 26.1417 184.465 24.7661C183.903 23.3904 183.622 21.8888 183.622 20.2612C183.622 18.6337 183.903 17.1321 184.465 15.7564C185.036 14.371 185.836 13.1697 186.863 12.1525C187.899 11.1353 189.115 10.3457 190.51 9.78384C191.915 9.21226 193.445 8.92647 195.102 8.92647C196.759 8.92647 198.285 9.21226 199.68 9.78384C201.075 10.3457 202.281 11.1353 203.298 12.1525C204.325 13.1697 205.124 14.371 205.696 15.7564C206.267 17.1321 206.553 18.6337 206.553 20.2612C206.553 21.8888 206.267 23.3904 205.696 24.7661C205.124 26.1417 204.325 27.343 203.298 28.3699C202.281 29.3871 201.075 30.1816 199.68 30.7531C198.285 31.315 196.759 31.596 195.102 31.596ZM195.102 27.6869C196.081 27.6869 196.986 27.498 197.82 27.1202C198.662 26.7424 199.394 26.2192 200.014 25.5508C200.634 24.8726 201.113 24.0879 201.452 23.1966C201.801 22.2957 201.976 21.3172 201.976 20.2612C201.976 19.2052 201.801 18.2268 201.452 17.3258C201.113 16.4248 200.634 15.6401 200.014 14.9717C199.394 14.2935 198.662 13.7704 197.82 13.4022C196.986 13.0244 196.081 12.8355 195.102 12.8355C194.114 12.8355 193.198 13.0244 192.356 13.4022C191.522 13.7704 190.791 14.2935 190.161 14.9717C189.541 15.6401 189.057 16.4248 188.708 17.3258C188.369 18.2268 188.2 19.2052 188.2 20.2612C188.2 21.3172 188.369 22.2957 188.708 23.1966C189.057 24.0976 189.541 24.8872 190.161 25.5653C190.791 26.2338 191.522 26.7569 192.356 27.1347C193.198 27.5029 194.114 27.6869 195.102 27.6869Z"
                fill="white" />
            <path
                d="M226.956 31.16H222L217.423 23.2838H213.819V31.16H209.343V9.36242H217.626C219.38 9.36242 220.881 9.63852 222.131 10.1907C223.381 10.7429 224.335 11.5422 224.994 12.5885C225.662 13.6251 225.997 14.8699 225.997 16.3231C225.997 17.815 225.643 19.089 224.936 20.145C224.238 21.1913 223.24 21.976 221.942 22.4991L226.956 31.16ZM213.819 19.7235H217.292C218.619 19.7235 219.637 19.4474 220.344 18.8952C221.061 18.3333 221.419 17.5341 221.419 16.4975C221.419 15.4609 221.061 14.6665 220.344 14.1143C219.637 13.5524 218.619 13.2715 217.292 13.2715H213.819V19.7235Z"
                fill="white" />
            <path
                d="M232.608 31.16H227.915L236.605 9.36242H241.328L250.003 31.16H245.309L243.522 26.4808H234.396L232.608 31.16ZM235.864 22.5572H242.069L238.959 14.4776L235.864 22.5572Z"
                fill="white" />
            <path d="M147.631 27.694H159.272V31.5812H147.631V27.694Z" fill="white" />
            <path
                d="M40.544 20.2612C40.544 25.2584 38.7347 29.8331 35.7359 33.3659H29.2938C33.49 30.4904 36.2431 25.6621 36.2431 20.1909C36.2431 11.3763 29.0975 4.23065 20.2826 4.23065C11.468 4.23065 4.32241 11.3763 4.32241 20.1909C4.32241 29.0055 11.468 36.1512 20.2826 36.1512C20.4125 36.1512 20.5418 36.1497 20.671 36.1466H32.8604C29.4051 38.8862 25.0351 40.5224 20.2826 40.5224C9.09259 40.5224 0.0214844 31.4512 0.0214844 20.2612C0.0214844 9.07127 9.09259 0 20.2826 0C31.4726 0 40.544 9.07127 40.544 20.2612Z"
                fill="white" />
            <path fill-rule="evenodd" clip-rule="evenodd"
                d="M20.2826 7.58159C13.3189 7.58159 7.67335 13.227 7.67335 20.1909C7.67335 27.1548 13.3189 32.8002 20.2826 32.8002C27.2466 32.8002 32.8921 27.1548 32.8921 20.1909C32.8921 13.227 27.2466 7.58159 20.2826 7.58159ZM24.9029 29.4043C26.1291 28.9019 27.1851 28.208 28.0706 27.3224L26.078 25.3426C25.4477 26.0663 24.6856 26.6369 23.7916 27.0541C22.9061 27.4628 21.9351 27.6672 20.8795 27.6672C19.8575 27.6672 18.9167 27.4841 18.0567 27.118C17.1967 26.7433 16.4473 26.2197 15.8085 25.5469C15.1701 24.8657 14.6717 24.0695 14.314 23.1584C13.9652 22.2473 13.7905 21.2553 13.7905 20.1823C13.7905 19.1095 13.9652 18.1174 14.314 17.2063C14.6717 16.2952 15.1701 15.5033 15.8085 14.8305C16.4473 14.1493 17.1967 13.6256 18.0567 13.2595C18.9167 12.8849 19.8575 12.6975 20.8795 12.6975C21.9351 12.6975 22.9061 12.9061 23.7916 13.3234C24.6856 13.7321 25.452 14.2984 26.0908 15.0221L28.0451 13.0296C27.168 12.1525 26.1163 11.467 24.8901 10.9732C23.6725 10.4708 22.3484 10.2196 20.9178 10.2196C19.4785 10.2196 18.1503 10.4665 16.9326 10.9604C15.715 11.4542 14.6547 12.1482 13.7522 13.0423C12.8581 13.9364 12.1598 14.9924 11.6575 16.21C11.1637 17.4192 10.9166 18.7433 10.9166 20.1823C10.9166 21.6129 11.1637 22.937 11.6575 24.1547C12.1598 25.3638 12.8581 26.4198 13.7522 27.3224C14.6547 28.2165 15.715 28.9105 16.9326 29.4043C18.1503 29.8982 19.4785 30.1452 20.9178 30.1452C22.357 30.1452 23.6852 29.8982 24.9029 29.4043Z"
                fill="white" />
        </g>
    </g>
    <defs>
        <clipPath id="clip0_2393_24588">
            <rect width="249.982" height="40.5224" fill="white" transform="translate(0.0214844)" />
        </clipPath>
    </defs>
</svg>
