<svg width="185" height="47" viewBox="0 0 185 47" fill="none" xmlns="http://www.w3.org/2000/svg">
<g id="Crypto Briefing" clip-path="url(#clip0_4512_13543)">
<g id="cb-logo">
<path id="Path 1" d="M184.225 32.0716C184.032 32.0649 184.107 32.2089 184.097 32.2966C183.997 33.3212 183.779 34.3319 183.446 35.3102C183.08 36.1858 182.538 36.9845 181.852 37.6612C180.276 39.29 178.102 40.2714 175.786 40.3995C173.47 40.5276 171.192 39.7926 169.43 38.3485C168.487 37.5851 167.72 36.643 167.177 35.5817C166.633 34.5203 166.325 33.3627 166.272 32.1817C166.219 31.0007 166.422 29.822 166.868 28.7199C167.314 27.6177 167.994 26.616 168.865 25.7779C169.732 24.9082 170.786 24.2296 171.954 23.7892C173.122 23.3488 174.376 23.1572 175.629 23.2278C177.116 23.2796 178.567 23.6846 179.85 24.4062C181.133 25.1278 182.208 26.1435 182.979 27.3617C183.097 27.5282 183.081 27.6373 182.883 27.7363C181.904 28.2065 180.928 28.6808 179.954 29.1593C179.781 29.2448 179.699 29.2088 179.586 29.0558C179.064 28.2538 178.305 27.618 177.406 27.2286C176.507 26.8391 175.507 26.7136 174.533 26.8679C173.528 26.9667 172.578 27.3587 171.812 27.991C171.047 28.6233 170.503 29.4654 170.254 30.4034C170.049 31.0528 169.986 31.7356 170.068 32.4094C170.151 33.0832 170.377 33.7336 170.733 34.3202C171.088 34.9068 171.567 35.4171 172.137 35.8194C172.708 36.2218 173.358 36.5075 174.049 36.6589C175.1 36.8909 176.199 36.8115 177.202 36.4314C178.204 36.0513 179.062 35.3884 179.662 34.5306C179.7 34.4766 179.78 34.426 179.72 34.3529C179.66 34.2798 179.569 34.3102 179.491 34.3102H175.613C175.21 34.3102 175.21 34.3102 175.21 33.9187V32.0953C175.21 31.8703 175.281 31.7814 175.529 31.7825C178.305 31.7878 181.08 31.7878 183.856 31.7825C183.99 31.7825 184.091 31.9052 184.226 31.8388L184.225 32.0716Z" fill="white"/>
<path id="Path 2" d="M30.0588 0.00585938C30.0286 0.148018 30.0286 0.294532 30.0588 0.436691V16.8105C30.0588 17.0929 29.98 17.1896 29.6804 17.1739C29.221 17.1514 28.7592 17.1593 28.2986 17.1739C28.0789 17.1739 28.0025 17.1041 28.0213 16.8983C28.033 16.7858 28.0213 16.6632 28.0213 16.5451V0.00585938H30.0588Z" fill="white"/>
<path id="Path 3" d="M37.9878 0.00585938V16.8533C37.9878 17.0929 37.9256 17.1907 37.6624 17.1795C37.2218 17.1626 36.7811 17.1716 36.3417 17.1795C36.1325 17.1795 36.0338 17.1098 36.0538 16.9039C36.0608 16.806 36.0538 16.7082 36.0538 16.6103V0.48956C36.0513 0.324265 36.082 0.160048 36.1443 0.00585938H37.9878Z" fill="white"/>
<path id="Path 4" d="M33.8082 0.00562443C33.9003 0.109656 33.9459 0.244232 33.9351 0.380212V16.8778C33.9351 17.0938 33.8693 17.1781 33.639 17.1725C33.1984 17.1613 32.7577 17.1624 32.3183 17.1725C32.1338 17.1725 32.0504 17.1106 32.0598 16.934V0.607439C32.0598 0.404959 32.0751 0.20248 32.0845 0L33.8082 0.00562443Z" fill="white"/>
<path id="Path 5" d="M4.72233 3.58899C5.02257 3.20696 5.39577 2.88289 5.82213 2.63396C7.21137 1.60121 8.79972 0.840901 10.4963 0.396561C11.035 0.249329 11.585 0.143257 12.1413 0.0793433C12.1715 0.0839202 12.2025 0.0793329 12.2299 0.066223C12.2573 0.053113 12.2797 0.032136 12.294 0.00622559H25.2625C25.2096 0.533797 25.2496 1.06249 25.2378 1.59119C25.2296 2.05689 25.2202 2.06702 24.7385 2.06702C21.1629 2.06702 17.5886 2.06027 14.0142 2.06702C11.5302 2.04304 9.10751 2.80548 7.12285 4.2358C5.21334 5.59524 3.75466 7.4538 2.92223 9.58801C2.39591 10.9131 2.10403 12.3129 2.0586 13.7298C1.9565 15.869 2.4239 17.9979 3.4169 19.9167C4.62961 22.3353 6.71682 24.2511 9.2919 25.3094C10.4908 25.8212 11.7821 26.1055 13.0942 26.1463C16.9553 26.2419 20.8163 26.1632 24.6774 26.188C25.1403 26.188 25.1403 26.188 25.1403 26.6188C25.1403 27.0687 25.1321 27.5187 25.1403 27.9686C25.1403 28.188 25.0839 28.287 24.8313 28.287C20.9197 28.2802 17.0058 28.314 13.0942 28.2622C11.3902 28.2205 9.71517 27.8305 8.18153 27.1182C6.69267 26.4565 5.33965 25.5448 4.18653 24.4264C2.90625 23.1805 1.88612 21.7121 1.18088 20.1001C0.632034 18.846 0.257534 17.5284 0.066975 16.181C0.0663426 16.1584 0.059899 16.1363 0.0482157 16.1167C0.0365325 16.0971 0.0199708 16.0805 0 16.0685L0 12.4205C0.103124 12.1501 0.166399 11.8673 0.188 11.5802C0.450245 10.184 0.919918 8.83087 1.58273 7.56209C2.24311 6.29246 3.09292 5.12157 4.10545 4.08619C4.23959 3.92365 4.41028 3.79215 4.60483 3.70148C4.62245 3.79372 4.55548 3.84659 4.49673 3.89946C4.1877 4.18518 3.89983 4.49002 3.619 4.79937C2.84727 5.66495 2.19417 6.62134 1.67555 7.64533C1.11217 8.7404 0.694146 9.89865 0.431225 11.0931C0.247595 11.9533 0.125114 12.8245 0.064625 13.7006C0.0431045 14.3348 0.0725664 14.9696 0.15275 15.5994C0.240262 16.4931 0.406529 17.3782 0.649775 18.2451C1.52712 21.4329 3.5856 24.2064 6.44135 26.0485C7.42907 26.6783 8.50039 27.1789 9.62678 27.5367C11.2642 28.0084 12.97 28.226 14.6793 28.1813H24.6668C24.9547 28.1813 25.0498 28.1025 25.031 27.8314C25.0099 27.5187 25.031 27.2049 25.031 26.8899C25.031 26.3387 25.031 26.3387 24.4694 26.3387H14.0471C13.169 26.3387 12.2931 26.2539 11.4328 26.0856C10.2585 25.8558 9.13132 25.4439 8.09575 24.8662C6.52428 23.9966 5.17862 22.7979 4.1595 21.3599C3.60408 20.5889 3.14468 19.7583 2.79063 18.8852C2.44468 18.0201 2.19958 17.1212 2.05978 16.2046C1.92888 15.3482 1.8809 14.4821 1.91643 13.6173C1.94189 12.8756 2.03825 12.1375 2.2043 11.4126C2.44905 10.3343 2.84095 9.29161 3.3699 8.31126C4.62036 5.96195 6.643 4.07143 9.12623 2.93093C10.711 2.23613 12.4357 1.88285 14.1787 1.89603C17.5862 1.87016 21.0008 1.88816 24.4118 1.88929C24.5142 1.88649 24.6167 1.89063 24.7185 1.90166C25.0628 1.9489 25.0792 1.93766 25.0816 1.59569C25.0816 1.2031 25.0616 0.80827 25.0816 0.419059C25.1015 0.125464 25.0181 0.0388473 24.6973 0.0399721C21.3263 0.0523459 17.9564 0.0399721 14.5853 0.0478463C13.0152 0.0344793 11.4523 0.251863 9.95108 0.692406C8.39262 1.17234 6.93824 1.9194 5.6588 2.89718C5.37521 3.16121 5.06101 3.39332 4.72233 3.58899Z" fill="white"/>
<path id="Path 6" d="M70.6846 31.841V23.8993C70.6846 23.6237 70.7668 23.5326 71.0641 23.5326C73.8723 23.5438 76.6771 23.5326 79.4853 23.545C80.458 23.5348 81.421 23.7307 82.3053 24.1187C82.911 24.3829 83.4257 24.8067 83.7891 25.3405C84.1526 25.8743 84.35 26.4962 84.358 27.1334C84.4494 27.8376 84.354 28.5525 84.0807 29.2121C83.7384 29.922 83.1732 30.5118 82.4639 30.8995C82.3817 30.9478 82.2454 30.9625 82.2501 31.084C82.2548 31.2054 82.3934 31.1964 82.4851 31.2313C83.2678 31.4997 83.9467 31.9897 84.4315 32.6363C84.9163 33.2829 85.1841 34.0554 85.1993 34.8512C85.2747 35.6644 85.1541 36.4834 84.8469 37.245C84.5883 37.7859 84.2203 38.2725 83.7641 38.6764C83.3079 39.0803 82.7725 39.3937 82.189 39.5982C81.2268 39.9596 80.2004 40.1384 79.1669 40.1247C76.5231 40.1145 73.8794 40.1247 71.238 40.1247C70.62 40.1247 70.6893 40.1719 70.6905 39.6162C70.6912 37.0215 70.6893 34.4297 70.6846 31.841ZM76.8921 37.2675H78.2445C78.7276 37.2763 79.2102 37.2348 79.6839 37.1437C80.0833 37.0894 80.4555 36.9186 80.7499 36.6545C81.0442 36.3904 81.2464 36.0459 81.3289 35.6679C81.4213 35.2245 81.4105 34.767 81.2972 34.3281C81.2321 34.0353 81.0931 33.7621 80.8924 33.5325C80.6917 33.3029 80.4353 33.1238 80.1457 33.0109C79.5813 32.8013 78.9772 32.7074 78.3726 32.7353C77.1976 32.7184 76.0167 32.7353 74.8382 32.724C74.5738 32.724 74.5092 32.814 74.5116 33.0503C74.5202 34.3551 74.5202 35.6596 74.5116 36.9637C74.5116 37.2213 74.6067 37.2765 74.8511 37.272C75.5185 37.2585 76.2059 37.2686 76.8886 37.2675H76.8921ZM74.4998 28.3134V29.5507C74.4998 30.2482 74.4998 30.2549 75.2307 30.247C76.4585 30.2335 77.6876 30.3033 78.9143 30.184C79.376 30.1404 79.8099 29.9527 80.1492 29.6497C80.3507 29.4463 80.501 29.2016 80.5886 28.9341C80.6761 28.6666 80.6987 28.3835 80.6545 28.1064C80.6565 27.8155 80.5731 27.53 80.4137 27.2824C80.2544 27.0347 80.0255 26.835 79.7532 26.7059C79.1405 26.4511 78.4726 26.3415 77.8063 26.3864C76.7993 26.3504 75.7993 26.3864 74.7959 26.3729C74.5609 26.3729 74.4939 26.4584 74.4963 26.6688C74.5069 27.2143 74.4963 27.7644 74.4963 28.3122L74.4998 28.3134Z" fill="white"/>
<path id="Path 7" d="M36.0795 20.7598C33.4373 20.7598 30.7948 20.762 28.1518 20.7665C27.8357 20.7665 27.737 20.6788 27.7546 20.383C27.7781 19.9825 27.7734 19.5787 27.7546 19.1771C27.7417 18.9139 27.8451 18.8396 28.1072 18.8396C31.9087 18.8464 35.7078 18.8464 39.5046 18.8396C40.6796 18.8396 41.8547 18.8464 43.0379 18.8396C45.5188 18.7925 47.9667 19.3904 50.1208 20.5697C51.8311 21.511 53.3155 22.7861 54.4777 24.3122C56.5274 26.8993 57.5634 30.0931 57.4051 33.3367C57.2469 36.5803 55.9044 39.6677 53.6117 42.0606C51.9851 43.852 49.9231 45.2327 47.6074 46.081C45.6073 46.8278 43.4539 47.1219 41.3153 46.9404C39.1975 46.7837 37.1341 46.2214 35.2476 45.2868C33.7519 44.5468 32.4096 43.5519 31.2867 42.3509C29.9665 40.9505 28.9894 39.2857 28.4267 37.4779C28.0362 36.1667 27.8513 34.8072 27.878 33.444C27.878 32.327 27.8851 31.2089 27.878 30.0918C27.878 29.8162 27.9403 29.7004 28.2552 29.7184C28.7154 29.7425 29.1767 29.7425 29.637 29.7184C29.9249 29.706 30.0024 29.8151 30.0001 30.0784C29.9871 31.1178 30.0001 32.1571 29.993 33.1965C29.9443 34.5801 30.143 35.9615 30.5805 37.281C31.4965 39.8827 33.3892 42.0659 35.8915 43.4071C38.0408 44.5975 40.4994 45.178 42.9803 45.081C45.2769 45.0142 47.5043 44.3134 49.3946 43.0629C51.7967 41.5421 53.6209 39.3186 54.5952 36.7242C55.047 35.5558 55.2901 34.323 55.3143 33.0773C55.3341 32.0283 55.2117 30.9813 54.95 29.9625C54.4538 27.9816 53.4613 26.1462 52.0583 24.6148C50.7532 23.1678 49.0831 22.0645 47.2068 21.41C46.075 21.0002 44.8775 20.7817 43.6677 20.7643C41.1379 20.7564 38.6069 20.7643 36.0772 20.7643L36.0795 20.7598Z" fill="white"/>
<path id="Path 8" d="M149.428 31.8061V23.8059C149.428 23.5506 149.496 23.4685 149.773 23.4685C151.02 23.482 152.267 23.482 153.515 23.4685C153.62 23.462 153.725 23.4834 153.819 23.5302C153.912 23.577 153.99 23.6475 154.045 23.7339C156.437 26.9489 158.833 30.1638 161.232 33.3787C161.284 33.4485 161.329 33.5643 161.43 33.5396C161.563 33.507 161.506 33.3742 161.506 33.2865V23.8442C161.506 23.4752 161.506 23.4752 161.902 23.4752H164.487C164.722 23.4752 164.807 23.5292 164.807 23.7733C164.8 29.127 164.8 34.48 164.807 39.8322C164.807 40.0898 164.709 40.146 164.466 40.1438C163.602 40.1337 162.725 40.1314 161.855 40.1438C161.75 40.1524 161.644 40.1331 161.549 40.0878C161.454 40.0426 161.374 39.9732 161.318 39.8873C159.783 37.8198 158.24 35.7575 156.69 33.7004L152.703 28.3696C152.651 28.301 152.607 28.1919 152.5 28.2324C152.393 28.2729 152.454 28.3696 152.454 28.4416V39.7658C152.454 40.1505 152.454 40.1494 152.046 40.1494C151.287 40.1494 150.529 40.1382 149.773 40.1562C149.496 40.1562 149.42 40.0752 149.427 39.8187C149.431 37.1403 149.428 34.4744 149.428 31.8061Z" fill="white"/>
<path id="Path 9" d="M132.457 11.5807C132.463 9.29496 133.413 7.10437 135.101 5.48724C136.788 3.8701 139.075 2.95779 141.463 2.94948C142.672 2.94736 143.868 3.1768 144.983 3.62427C146.097 4.07174 147.107 4.72821 147.952 5.55499C148.797 6.38177 149.461 7.36214 149.905 8.43836C150.348 9.51458 150.562 10.6649 150.534 11.8215C150.506 12.9781 150.236 14.1177 149.741 15.173C149.246 16.2283 148.535 17.1781 147.651 17.9664C146.766 18.7547 145.726 19.3656 144.591 19.763C143.456 20.1605 142.249 20.3364 141.042 20.2806C136.611 20.113 132.226 16.2681 132.457 11.5807ZM136.091 11.6178C136.085 12.3013 136.22 12.9791 136.49 13.6119C136.76 14.2447 137.158 14.8199 137.662 15.3041C138.166 15.7882 138.765 16.1717 139.425 16.4322C140.085 16.6927 140.793 16.825 141.507 16.8215C142.221 16.818 142.927 16.6787 143.584 16.4118C144.241 16.1448 144.837 15.7555 145.335 15.2664C145.834 14.7773 146.226 14.1983 146.489 13.5629C146.752 12.9274 146.88 12.2483 146.867 11.565C146.83 10.2163 146.252 8.93299 145.253 7.98141C144.254 7.02983 142.911 6.48308 141.502 6.45462C140.071 6.45935 138.701 7.0048 137.689 7.97224C136.676 8.93967 136.104 10.2508 136.097 11.6201L136.091 11.6178Z" fill="white"/>
<path id="Path 10" d="M87.7949 31.85V23.9094C87.7949 23.6338 87.8689 23.5337 88.1721 23.5337C90.8252 23.545 93.4784 23.5135 96.1292 23.5506C96.9783 23.5277 97.8215 23.6934 98.5925 24.0347C99.3635 24.3761 100.041 24.8838 100.573 25.518C101.154 26.2472 101.51 27.1172 101.602 28.0299C101.765 29.1128 101.61 30.2176 101.155 31.2212C100.874 31.8662 100.443 32.4417 99.8959 32.9041C99.3485 33.3666 98.6986 33.7039 97.9951 33.8906C97.6885 33.9772 97.7342 34.0627 97.8776 34.2573C99.2414 36.1171 100.601 37.9799 101.956 39.8457C102.011 39.9233 102.133 39.9829 102.063 40.0954C102.01 40.1787 101.893 40.1393 101.806 40.1393H98.1185C98.0227 40.1466 97.9268 40.1282 97.8413 40.0863C97.7558 40.0444 97.6842 39.9806 97.6344 39.9019C96.3419 38.1111 95.0129 36.3192 93.7169 34.5284C93.6477 34.4053 93.5408 34.3054 93.4106 34.2423C93.2803 34.1791 93.133 34.1557 92.9884 34.1752C92.6532 34.199 92.3166 34.199 91.9814 34.1752C91.7124 34.1583 91.6289 34.2438 91.6289 34.5047C91.6407 36.2607 91.6289 38.0144 91.6419 39.7692C91.6419 40.0448 91.5725 40.1472 91.2658 40.1427C90.2326 40.1262 89.1982 40.1262 88.1627 40.1427C87.8748 40.1427 87.7961 40.0617 87.7973 39.7883C87.7957 37.1433 87.7949 34.4972 87.7949 31.85ZM91.6113 28.8488V30.7904C91.6113 31.4383 91.5385 31.3528 92.1988 31.3416C93.2939 31.3303 94.3913 31.3989 95.4888 31.3033C95.8484 31.3042 96.2036 31.2285 96.5288 31.0816C96.854 30.9347 97.141 30.7203 97.3688 30.454C97.6746 30.0445 97.858 29.563 97.8994 29.0612C97.9408 28.5593 97.8386 28.0562 97.6038 27.6058C97.4174 27.2408 97.1238 26.9358 96.759 26.7282C96.3941 26.5206 95.9739 26.4194 95.5499 26.437C94.3349 26.3493 93.1165 26.3774 91.898 26.3673C91.656 26.3673 91.6102 26.4697 91.6102 26.6699C91.6102 27.3988 91.6043 28.1233 91.6113 28.8488Z" fill="white"/>
<path id="Path 11" d="M79.7342 14.1184C79.6629 14.2251 79.6373 14.3541 79.6626 14.4784C79.6626 16.2782 79.6555 18.0859 79.6626 19.8891C79.6626 20.1647 79.5874 20.2614 79.2842 20.2558C78.3007 20.2378 77.3184 20.2412 76.335 20.2558C76.0577 20.2558 75.9895 20.1692 75.9895 19.9184C75.995 14.3809 75.995 8.84235 75.9895 3.30266C75.9895 3.05294 76.0659 2.95507 76.3421 2.95732C78.3701 2.9652 80.3981 2.93708 82.4262 2.96857C83.8663 2.99124 85.2553 3.48314 86.3641 4.36314C87.4729 5.24314 88.2352 6.45868 88.5254 7.80925C88.8156 9.15982 88.6163 10.5647 87.9604 11.7923C87.3044 13.0198 86.231 13.9967 84.9172 14.5616C84.6881 14.6606 84.654 14.754 84.7997 14.9554C86.0233 16.6217 87.2421 18.2903 88.4563 19.9611C88.5068 20.0297 88.6161 20.0882 88.5655 20.1861C88.515 20.2839 88.3823 20.2479 88.2883 20.2479C87.0592 20.2479 85.8302 20.2479 84.6011 20.2558C84.4758 20.2663 84.3498 20.2427 84.238 20.1875C84.1261 20.1324 84.0328 20.048 83.9689 19.9442C82.9526 18.5336 81.9256 17.132 80.8998 15.7248L79.7342 14.1184ZM79.6555 9.04858V11.3422C79.6555 11.5447 79.7155 11.6178 79.9352 11.6178C80.7029 11.6066 81.4705 11.6066 82.2381 11.6178C82.6776 11.6231 83.1119 11.5263 83.5038 11.3359C83.8957 11.1454 84.2336 10.8669 84.4885 10.5242C84.7435 10.1815 84.908 9.78475 84.9679 9.36793C85.0278 8.9511 84.9814 8.52658 84.8326 8.13067C84.6393 7.64735 84.2984 7.23103 83.8542 6.93605C83.41 6.64106 82.8833 6.48112 82.3428 6.47709H79.947C79.712 6.47709 79.6509 6.55471 79.6591 6.76731C79.6591 7.51536 79.6485 8.28029 79.6485 9.04521L79.6555 9.04858Z" fill="white"/>
<path id="Path 12" d="M111.99 31.7769V23.8363C111.99 23.5608 112.056 23.4708 112.362 23.4708C116.336 23.482 120.31 23.482 124.283 23.4708C124.602 23.4708 124.682 23.5518 124.675 23.8487C124.654 24.6429 124.661 25.4371 124.675 26.2312C124.675 26.4697 124.611 26.5518 124.348 26.5507C121.614 26.5406 118.878 26.5507 116.144 26.5439C115.749 26.5439 115.749 26.5439 115.749 26.914V29.9141C115.749 30.1695 115.827 30.2516 116.102 30.2516C118.488 30.2415 120.875 30.2516 123.261 30.2392C123.549 30.2392 123.638 30.3134 123.634 30.5879C123.618 31.4601 123.618 32.3326 123.634 33.2055C123.634 33.4507 123.551 33.5239 123.296 33.5227C120.901 33.5149 118.504 33.5227 116.108 33.5115C115.845 33.5115 115.747 33.5722 115.755 33.8377C115.772 34.7886 115.772 35.7395 115.755 36.6904C115.755 36.9525 115.839 37.0279 116.108 37.0279C119.118 37.0178 122.13 37.0279 125.14 37.0144C125.46 37.0144 125.538 37.1066 125.531 37.3991C125.511 38.173 125.514 38.9481 125.531 39.722C125.531 39.9976 125.467 40.0955 125.155 40.0955C120.885 40.0857 116.616 40.0857 112.348 40.0955C112.06 40.0955 112.01 39.9965 112.012 39.758C112.002 37.0935 111.995 34.4332 111.99 31.7769Z" fill="white"/>
<path id="Path 13" d="M105.374 11.6088V3.34204C105.374 2.95733 105.374 2.95733 105.783 2.95733H111.498C113.071 2.90894 114.605 3.42671 115.799 4.40844C116.959 5.31984 117.727 6.6086 117.957 8.02832C118.148 9.03159 118.064 10.065 117.714 11.0281C117.364 11.9912 116.76 12.8512 115.96 13.5245C114.944 14.4385 113.628 14.9858 112.237 15.0724C111.275 15.1399 110.313 15.096 109.358 15.1027C109.114 15.1027 109.044 15.1725 109.045 15.4042C109.055 16.9048 109.045 18.4043 109.056 19.9037C109.056 20.1793 108.981 20.2592 108.692 20.2547C107.709 20.2382 106.726 20.2382 105.743 20.2547C105.455 20.2547 105.382 20.1647 105.382 19.9004C105.381 17.1391 105.379 14.3753 105.374 11.6088ZM109.037 9.03735C109.037 9.79102 109.047 10.5526 109.037 11.2995C109.037 11.5503 109.119 11.6145 109.369 11.61C110.136 11.5965 110.905 11.5875 111.672 11.61C112.282 11.597 112.871 11.3939 113.35 11.0312C113.828 10.6686 114.17 10.1664 114.323 9.60091C114.406 9.22985 114.404 8.84572 114.315 8.47577C114.226 8.10582 114.053 7.75911 113.809 7.46024C113.564 7.16137 113.254 6.91766 112.9 6.74639C112.547 6.57512 112.158 6.4805 111.761 6.46923C110.953 6.45911 110.143 6.46923 109.336 6.46923C109.107 6.46923 109.034 6.53447 109.037 6.7527C109.042 7.50975 109.037 8.27355 109.037 9.03735Z" fill="white"/>
<path id="Path 14" d="M35.6189 24.2346H28.1506C27.8522 24.2346 27.7558 24.1558 27.7723 23.8724C27.7958 23.4427 27.784 23.0096 27.7723 22.5787C27.7723 22.3898 27.8404 22.3032 28.0414 22.3178H42.0238C43.3377 22.294 44.6477 22.4605 45.9096 22.8116C47.7426 23.3414 49.3931 24.3333 50.6883 25.6834C51.843 26.8736 52.6884 28.3076 53.1558 29.8691C53.7604 31.716 53.7645 33.6951 53.1676 35.5442C52.2622 38.3349 50.3317 40.7174 47.7332 42.2508C46.2094 43.2136 44.4265 43.7325 42.6008 43.7446C40.9152 43.7502 39.2529 43.3679 37.7539 42.6299C35.1704 41.4273 33.1916 39.2918 32.2526 36.6927C31.9215 35.7734 31.7624 34.8054 31.7826 33.8332C31.7943 32.5779 31.7826 31.3225 31.7826 30.0671C31.7826 29.8174 31.8519 29.7162 32.135 29.7297C32.605 29.7499 33.0751 29.7477 33.5451 29.7297C33.8083 29.7195 33.8788 29.8174 33.8764 30.0547C33.8682 31.1571 33.8905 32.2595 33.8764 33.3495C33.7841 35.3209 34.4718 37.253 35.8022 38.7602C36.5346 39.6294 37.443 40.3478 38.4728 40.8723C39.5026 41.3967 40.6326 41.7164 41.7947 41.8121C42.9526 41.8991 44.1164 41.7438 45.2052 41.3568C46.294 40.9699 47.2818 40.3606 48.0998 39.5713C49.4138 38.4357 50.4079 37.0016 50.9903 35.4013C51.5439 33.8936 51.6122 32.2615 51.1865 30.7162C50.7796 29.0745 49.8706 27.5862 48.5757 26.4416C47.3355 25.3405 45.7813 24.6173 44.1106 24.3639C43.4218 24.2674 42.7258 24.2256 42.0297 24.2391L35.6189 24.2346Z" fill="white"/>
<path id="Path 15" d="M68.4286 20.266C67.1127 20.3021 65.8053 20.0542 64.6032 19.5407C63.4011 19.0272 62.3351 18.2613 61.4843 17.2997C60.4491 16.2288 59.7485 14.9014 59.4621 13.4683C59.0419 11.5663 59.2898 9.58472 60.1672 7.83148C60.5105 7.16014 60.9486 6.53713 61.4691 5.97992C62.5852 4.71522 64.0627 3.78986 65.7202 3.31731C67.2286 2.89604 68.8256 2.85728 70.3544 3.20482C71.8633 3.54476 73.2575 4.24525 74.407 5.24087C74.723 5.51647 74.7195 5.51647 74.4246 5.79206C73.729 6.458 73.0299 7.11943 72.3437 7.79099C72.1839 7.94622 72.0828 7.94172 71.9125 7.79886C71.2964 7.25735 70.556 6.8621 69.751 6.64501C68.946 6.42792 68.099 6.39507 67.2783 6.54911C66.1703 6.7673 65.1599 7.30817 64.3856 8.09759C63.6113 8.88701 63.1109 9.88635 62.9531 10.9587C62.7792 12.3111 63.1696 13.6745 64.0394 14.753C64.9093 15.8315 66.1884 16.5381 67.599 16.7192C68.3811 16.8244 69.1778 16.7599 69.9304 16.5305C70.6829 16.3012 71.3719 15.9128 71.9465 15.3941C72.0828 15.276 72.1745 15.2726 72.299 15.3941C73.0416 16.1106 73.7854 16.8272 74.5386 17.5314C74.7219 17.7035 74.6149 17.7867 74.4822 17.9048C72.8609 19.4142 70.69 20.2609 68.4286 20.266Z" fill="white"/>
<path id="Path 16" d="M127.751 31.8073V23.8363C127.751 23.5608 127.824 23.4708 128.127 23.4708C132.112 23.482 136.096 23.482 140.081 23.4708C140.369 23.4708 140.45 23.5461 140.445 23.8161C140.428 24.6204 140.431 25.4236 140.445 26.229C140.445 26.4675 140.381 26.5496 140.116 26.5484C137.382 26.5383 134.647 26.5484 131.913 26.5417C131.527 26.5417 131.527 26.5417 131.527 26.9219C131.527 27.9129 131.534 28.9017 131.527 29.8927C131.527 30.1571 131.599 30.2504 131.891 30.2504C134.267 30.2392 136.641 30.2505 139.021 30.237C139.322 30.237 139.414 30.3224 139.408 30.6037C139.395 31.4563 139.395 32.3094 139.408 33.1628C139.408 33.426 139.335 33.5239 139.044 33.5227C136.665 33.5115 134.294 33.5227 131.914 33.5104C131.626 33.5104 131.524 33.57 131.525 33.8658C131.538 35.8366 131.525 37.8029 131.539 39.7782C131.539 40.064 131.441 40.1236 131.169 40.1157C130.162 40.1033 129.14 40.1011 128.127 40.1157C127.839 40.1157 127.76 40.0471 127.761 39.7782C127.755 37.122 127.752 34.465 127.751 31.8073Z" fill="white"/>
<path id="Path 17" d="M18.9316 22.6901H24.7079C25.1109 22.6901 25.1109 22.6901 25.1109 23.0883C25.1109 23.5191 25.1038 23.9522 25.1109 24.383C25.1109 24.608 25.0521 24.7137 24.7819 24.7137C21.1394 24.7059 17.4887 24.7137 13.8438 24.7059C11.5891 24.7034 9.40791 23.938 7.68564 22.5449C5.83894 21.135 4.49347 19.2123 3.83399 17.0409C3.17344 14.9394 3.26987 12.6864 4.10777 10.6436C4.77477 8.93808 5.85383 7.4078 7.25677 6.17785C8.79279 4.76073 10.7573 3.84456 12.8697 3.56024C13.2862 3.51305 13.7054 3.49201 14.1246 3.49724C17.6794 3.49724 21.2334 3.49387 24.7866 3.48712C25.1027 3.48712 25.1978 3.57486 25.1814 3.87183C25.1555 4.28466 25.1814 4.71325 25.1743 5.13508C25.1743 5.50179 25.1567 5.51867 24.776 5.51867H15.0106C14.55 5.51867 14.0894 5.51867 13.6288 5.52992C11.9974 5.59093 10.4306 6.15696 9.16379 7.143C7.33478 8.4699 6.06294 10.3803 5.57887 12.5278C5.2127 14.0799 5.35254 15.7022 5.97954 17.1759C6.78981 19.2474 8.38986 20.948 10.4575 21.9353C11.4921 22.4399 12.638 22.6999 13.7992 22.6934C15.51 22.6878 17.2196 22.6923 18.9316 22.6901Z" fill="white"/>
<path id="Path 18" d="M95.5217 16.3615C95.5217 15.3221 95.497 14.2838 95.5322 13.2467C95.5418 12.7682 95.4112 12.2966 95.1551 11.8856C93.8297 9.56943 92.5184 7.24654 91.2012 4.9259C90.8793 4.36346 90.562 3.78864 90.2224 3.2307C90.0791 3.00572 90.1648 2.9551 90.3892 2.9551H93.953C94.0387 2.94868 94.1244 2.96812 94.198 3.01069C94.2715 3.05326 94.3292 3.11683 94.3631 3.19245C95.2267 4.73242 96.1092 6.26902 96.9846 7.80449C97.0492 7.91698 97.1173 8.02946 97.1749 8.14195C97.209 8.21394 97.2337 8.29944 97.3324 8.30056C97.4311 8.30169 97.4498 8.20157 97.4851 8.13633C98.006 7.22517 98.525 6.31401 99.042 5.40285C99.4563 4.66793 99.8703 3.936 100.284 3.20708C100.319 3.12689 100.379 3.05929 100.457 3.01386C100.534 2.96844 100.625 2.94748 100.715 2.95398C101.89 2.96635 103.065 2.95398 104.247 2.95398C104.573 2.95398 104.584 2.97872 104.438 3.23745C103.162 5.48722 101.884 7.73212 100.605 9.97214C100.161 10.7596 99.7212 11.5391 99.2664 12.3142C99.1834 12.4598 99.1428 12.6242 99.1489 12.79C99.1489 15.1627 99.1513 17.5351 99.156 19.9071C99.156 20.1749 99.0878 20.2615 98.8034 20.257C97.8196 20.2405 96.8365 20.2405 95.8542 20.257C95.5745 20.257 95.5111 20.1726 95.5146 19.9195C95.5287 18.7316 95.5217 17.5482 95.5217 16.3615Z" fill="white"/>
<path id="Path 19" d="M127.552 13.3917V19.9161C127.552 20.1737 127.482 20.2536 127.208 20.2536C126.226 20.2386 125.242 20.2386 124.257 20.2536C123.955 20.2536 123.852 20.1849 123.853 19.8778C123.863 15.535 123.863 11.1915 123.853 6.84716C123.853 6.46132 123.853 6.46245 123.451 6.46245H119.702C119.447 6.46245 119.365 6.38933 119.368 6.1441C119.381 5.1827 119.381 4.22205 119.368 3.26215C119.368 3.0113 119.458 2.9483 119.707 2.9483C123.691 2.95355 127.676 2.95355 131.661 2.9483C131.936 2.9483 132.038 3.01355 132.032 3.29364C132.014 4.23405 132.014 5.17558 132.032 6.11823C132.032 6.40171 131.93 6.46357 131.659 6.46245C130.41 6.4512 129.161 6.46245 127.916 6.4512C127.613 6.4512 127.537 6.54681 127.538 6.82354C127.557 9.01819 127.552 11.205 127.552 13.3917Z" fill="white"/>
<path id="Path 20" d="M35.3498 27.3539H28.1282C27.7652 27.3539 27.7546 27.3314 27.7628 26.9872C27.771 26.5867 27.7628 26.184 27.7628 25.7824C27.7558 25.5574 27.8216 25.4449 28.0906 25.4449C32.8635 25.4517 37.6375 25.4449 42.4104 25.4562C43.3976 25.4719 44.3694 25.6928 45.2586 26.1036C46.1478 26.5144 46.9332 27.1053 47.5604 27.8353C48.4156 28.7267 49.0543 29.788 49.431 30.9434C49.8102 32.0694 49.8391 33.2767 49.5144 34.4182C49.0206 36.2383 47.8601 37.828 46.2444 38.8975C45.5138 39.3998 44.6817 39.7507 43.8014 39.9275C42.9211 40.1044 42.0119 40.1033 41.132 39.9245C39.5843 39.6757 38.1607 38.9585 37.07 37.8783C35.9551 36.8266 35.3213 35.3946 35.3075 33.8962C35.2969 32.5835 35.3075 31.2685 35.3004 29.9591C35.3004 29.7431 35.3686 29.6633 35.6001 29.6689C36.0806 29.6824 36.5624 29.688 37.0394 29.6689C37.3273 29.6565 37.4166 29.7465 37.4131 30.0187C37.4002 31.2032 37.4448 32.3911 37.399 33.5767C37.3847 34.5748 37.7241 35.5481 38.362 36.3377C38.9998 37.1274 39.8984 37.6867 40.9111 37.9244C41.8301 38.2183 42.8204 38.2395 43.7522 37.9852C44.6315 37.6922 45.4223 37.1971 46.0552 36.5435C46.6882 35.8899 47.144 35.0975 47.3826 34.236C47.6213 33.3745 47.6356 32.4701 47.4243 31.602C47.2129 30.734 46.7824 29.9289 46.1704 29.2572C45.5464 28.4569 44.6804 27.8596 43.6899 27.5462C43.2602 27.4162 42.8117 27.3521 42.361 27.3561L35.3498 27.3539Z" fill="white"/>
<path id="Path 21" d="M19.0257 21.1726H13.831C13.0347 21.1771 12.2456 21.028 11.5108 20.7342C10.776 20.4405 10.1105 20.0081 9.554 19.4628C8.14315 18.1876 7.31545 16.4306 7.251 14.574C7.14945 13.3292 7.40881 12.0818 8.00052 10.9691C8.59222 9.85639 9.4933 8.92168 10.6045 8.26793C11.4871 7.70099 12.5237 7.39364 13.5866 7.38378C17.3466 7.36128 21.1066 7.3714 24.8666 7.36353C25.1157 7.36353 25.185 7.45352 25.178 7.67737C25.1651 8.12732 25.1592 8.57728 25.178 9.02723C25.1921 9.3152 25.0781 9.3962 24.7867 9.3962C21.1889 9.38832 17.591 9.3962 13.992 9.38495C13.3862 9.36682 12.7831 9.46945 12.221 9.68634C11.6589 9.90322 11.15 10.2296 10.7266 10.6448C10.0874 11.2586 9.62521 12.0204 9.3851 12.8561C9.14499 13.6918 9.13517 14.5728 9.3566 15.4132C9.47645 16.0286 9.72195 16.6154 10.079 17.1398C10.4361 17.6643 10.8978 18.1161 11.4375 18.4695C12.0309 18.8812 12.7381 19.1159 13.4703 19.1445C14.556 19.167 15.6417 19.1591 16.7274 19.1613H24.7174C25.1063 19.1613 25.1134 19.1692 25.1145 19.5415C25.1145 19.9634 25.1004 20.3863 25.1145 20.8059C25.1263 21.0815 25.0546 21.185 24.7409 21.1816C22.835 21.1659 20.9315 21.1726 19.0257 21.1726Z" fill="white"/>
<path id="Path 22" d="M109.142 31.8343V39.8052C109.142 40.0302 109.092 40.1224 108.839 40.119C107.764 40.1093 106.688 40.1093 105.614 40.119C105.371 40.119 105.3 40.0403 105.3 39.8108C105.308 34.4976 105.308 29.184 105.3 23.8701C105.3 23.6125 105.385 23.5326 105.653 23.5326C106.696 23.5438 107.741 23.5461 108.786 23.5326C109.085 23.5326 109.139 23.6372 109.139 23.8959C109.141 26.5409 109.142 29.187 109.142 31.8343Z" fill="white"/>
<path id="Path 23" d="M146.471 31.8343V39.8041C146.471 40.0572 146.382 40.1213 146.134 40.1191C145.068 40.1093 144.003 40.1093 142.939 40.1191C142.696 40.1191 142.625 40.0403 142.626 39.8108C142.632 34.4976 142.632 29.1844 142.626 23.8712C142.626 23.6136 142.709 23.5338 142.979 23.5338C144.024 23.5465 145.069 23.5465 146.114 23.5338C146.412 23.5338 146.466 23.6372 146.466 23.896C146.465 26.5409 146.467 29.1871 146.471 31.8343Z" fill="white"/>
<path id="Path 24" d="M4.72242 3.58841C5.06202 3.39636 5.37574 3.16516 5.65654 2.89998C6.93598 1.9222 8.39036 1.17513 9.94882 0.695201C11.454 0.25744 13.0206 0.0438409 14.5936 0.0618903C17.9619 0.0618903 21.3326 0.0592656 24.7056 0.0540161C25.0264 0.0540161 25.1098 0.139507 25.0899 0.433103C25.064 0.823438 25.0899 1.22052 25.0899 1.60973C25.0899 1.9472 25.0711 1.96295 24.7268 1.9157C24.625 1.90467 24.5225 1.90054 24.4201 1.90333C21.0126 1.90333 17.5981 1.88421 14.187 1.91008C12.4441 1.8969 10.7193 2.25017 9.13454 2.94497C6.65198 4.08353 4.62904 5.97158 3.37704 8.31855C2.84809 9.2989 2.45619 10.3416 2.21144 11.4199C2.04539 12.1448 1.94903 12.8828 1.92357 13.6246C1.88804 14.4894 1.93602 15.3555 2.06692 16.2119C2.20436 17.125 2.44629 18.021 2.78837 18.8835C3.14242 19.7566 3.60182 20.5872 4.15724 21.3582C5.17393 22.799 6.51802 24.0007 8.08879 24.8735C9.12429 25.4495 10.251 25.8598 11.4246 26.0884C12.2853 26.2568 13.1616 26.3416 14.0402 26.3415C17.5119 26.349 20.9844 26.349 24.4577 26.3415C25.0194 26.3415 25.0194 26.3415 25.0194 26.8927C25.0194 27.2065 25.0017 27.5215 25.0194 27.8342C25.0382 28.1098 24.9406 28.1852 24.6551 28.184C22.4966 28.1739 20.337 28.184 18.1703 28.184H14.6688C12.9593 28.2316 11.2531 28.0139 9.61629 27.5395C8.49111 27.1788 7.42137 26.6756 6.43556 26.0434C3.5825 24.2017 1.52587 21.43 0.64869 18.2445C0.405444 17.3776 0.239177 16.4926 0.151665 15.5988C0.0713143 14.9686 0.0418519 14.3334 0.06354 13.6989C0.124029 12.8228 0.24651 11.9516 0.43014 11.0914C0.693812 9.89844 1.11222 8.74171 1.67564 7.64812C2.19243 6.62443 2.84355 5.66806 3.61322 4.80216C3.89404 4.49057 4.18192 4.1846 4.49094 3.90225C4.54969 3.84826 4.61667 3.79651 4.59904 3.70427L4.72242 3.58841Z" fill="white"/>
</g>
</g>
<defs>
<clipPath id="clip0_4512_13543">
<rect width="184.229" height="47" fill="white"/>
</clipPath>
</defs>
</svg>
