<svg width="24" height="24" viewBox="0 0 24 24" fill="none" xmlns="http://www.w3.org/2000/svg">
<g id="Discord">
<path id="Vector" d="M20.317 4.15533C18.7873 3.45345 17.147 2.93633 15.4319 2.64016C15.4007 2.63444 15.3695 2.64873 15.3534 2.6773C15.1424 3.05251 14.9087 3.54201 14.7451 3.92675C12.9004 3.65059 11.0652 3.65059 9.25832 3.92675C9.09465 3.53346 8.85248 3.05251 8.64057 2.6773C8.62449 2.64968 8.59328 2.6354 8.56205 2.64016C6.84791 2.93539 5.20756 3.4525 3.67693 4.15533C3.66368 4.16104 3.65233 4.17057 3.64479 4.18295C0.533392 8.83131 -0.31895 13.3654 0.0991801 17.8433C0.101072 17.8652 0.11337 17.8862 0.130398 17.8995C2.18321 19.407 4.17171 20.3222 6.12328 20.9289C6.15451 20.9384 6.18761 20.927 6.20748 20.9012C6.66913 20.2708 7.08064 19.6061 7.43348 18.907C7.4543 18.8661 7.43442 18.8175 7.39186 18.8013C6.73913 18.5537 6.1176 18.2518 5.51973 17.909C5.47244 17.8814 5.46865 17.8138 5.51216 17.7814C5.63797 17.6871 5.76382 17.589 5.88396 17.49C5.90569 17.4719 5.93598 17.4681 5.96153 17.4795C9.88928 19.2728 14.1415 19.2728 18.023 17.4795C18.0485 17.4671 18.0788 17.4709 18.1015 17.489C18.2216 17.5881 18.3475 17.6871 18.4742 17.7814C18.5177 17.8138 18.5149 17.8814 18.4676 17.909C17.8697 18.2585 17.2482 18.5537 16.5945 18.8004C16.552 18.8166 16.533 18.8661 16.5538 18.907C16.9143 19.6051 17.3258 20.2698 17.7789 20.9003C17.7978 20.927 17.8319 20.9384 17.8631 20.9289C19.8241 20.3222 21.8126 19.407 23.8654 17.8995C23.8834 17.8862 23.8948 17.8662 23.8967 17.8443C24.3971 12.6673 23.0585 8.17039 20.3482 4.18389C20.3416 4.17057 20.3303 4.16104 20.317 4.15533ZM8.02002 15.1167C6.8375 15.1167 5.86313 14.0311 5.86313 12.6978C5.86313 11.3645 6.8186 10.2789 8.02002 10.2789C9.23087 10.2789 10.1958 11.3741 10.1769 12.6978C10.1769 14.0311 9.22141 15.1167 8.02002 15.1167ZM15.9947 15.1167C14.8123 15.1167 13.8379 14.0311 13.8379 12.6978C13.8379 11.3645 14.7933 10.2789 15.9947 10.2789C17.2056 10.2789 18.1705 11.3741 18.1516 12.6978C18.1516 14.0311 17.2056 15.1167 15.9947 15.1167Z" fill="white"/>
</g>
</svg>
