<?xml version="1.0" encoding="UTF-8"?>
<svg version="1.1" xmlns="http://www.w3.org/2000/svg" width="176" height="32">
<path d="M0 0 C6.93 0 13.86 0 21 0 C21 1.98 21 3.96 21 6 C16.38 6 11.76 6 7 6 C7 7.32 7 8.64 7 10 C11.29 10 15.58 10 20 10 C20 11.98 20 13.96 20 16 C15.71 16 11.42 16 7 16 C7 17.32 7 18.64 7 20 C11.95 20 16.9 20 22 20 C22 21.98 22 23.96 22 26 C14.74 26 7.48 26 0 26 C0 17.42 0 8.84 0 0 Z " fill="#FDFDFD" transform="translate(154,3)"/>
<path d="M0 0 C3.125 1.5 3.125 1.5 5 3 C4.1875 4.9375 4.1875 4.9375 3 7 C2.01 7.33 1.02 7.66 0 8 C-0.66 7.67 -1.32 7.34 -2 7 C-6.66285278 6.57621401 -6.66285278 6.57621401 -10.9375 8.125 C-12.50422245 10.88980433 -12.38976435 12.88188517 -12 16 C-11.06402685 18.01951062 -11.06402685 18.01951062 -9 19 C-5.37464024 19.2503577 -5.37464024 19.2503577 -2 19 C-1.67 18.01 -1.34 17.02 -1 16 C-2.65 16 -4.3 16 -6 16 C-4.84826645 13.53199953 -3.95216435 11.95216435 -2 10 C1.625 9.875 1.625 9.875 5 10 C5.13496251 12.10241603 5.23197307 14.2072961 5.3125 16.3125 C5.37050781 17.48425781 5.42851563 18.65601563 5.48828125 19.86328125 C5 23 5 23 2.7890625 24.890625 C-1.56005301 26.62052529 -5.39395269 26.66433375 -10 26 C-14.40830916 23.83592096 -17.12843553 21.57493538 -19 17 C-19.57687368 13.05802983 -19.38821817 9.94897775 -17.875 6.25 C-12.77653332 0.13183999 -7.65414322 -1.10800409 0 0 Z " fill="#FDFDFD" transform="translate(63,3)"/>
<path d="M0 0 C2.31 0 4.62 0 7 0 C18 21.12389381 18 21.12389381 18 26 C15.69 26 13.38 26 11 26 C10.505 23.525 10.505 23.525 10 21 C6.04 21 2.08 21 -2 21 C-2.99 23.475 -2.99 23.475 -4 26 C-5.98 26 -7.96 26 -10 26 C-9.385789 22.38549563 -8.39633734 19.27609839 -6.93359375 15.91796875 C-6.53076172 14.98662109 -6.12792969 14.05527344 -5.71289062 13.09570312 C-5.29201172 12.13599609 -4.87113281 11.17628906 -4.4375 10.1875 C-4.01275391 9.20845703 -3.58800781 8.22941406 -3.15039062 7.22070312 C-2.10460494 4.81187093 -1.05435216 2.40509197 0 0 Z M3 9 C2.34 10.98 1.68 12.96 1 15 C2.65 15 4.3 15 6 15 C5.67 13.02 5.34 11.04 5 9 C4.34 9 3.68 9 3 9 Z " fill="#FEFEFE" transform="translate(82,3)"/>
<path d="M0 0 C3.1875 -0.4375 3.1875 -0.4375 7 0 C9.11158381 2.08545034 10.56739143 4.41206193 12 7 C12.52787109 6.24203125 12.52787109 6.24203125 13.06640625 5.46875 C14.6106126 3.43668734 16.06782994 1.67231205 18 0 C21.875 -0.4375 21.875 -0.4375 25 0 C23.63968068 4.08095797 21.61869588 6.96930897 18.92578125 10.25390625 C17.81915755 11.96094508 17.81915755 11.96094508 18.1640625 13.95703125 C19.14935216 16.36500551 20.433448 18.09927576 22.0625 20.125 C25 23.78823529 25 23.78823529 25 26 C21.8125 26.375 21.8125 26.375 18 26 C15.91444836 24.20080649 14.62066581 22.26893214 13 20 C12.34 19.67 11.68 19.34 11 19 C10.71125 19.78375 10.4225 20.5675 10.125 21.375 C9 24 9 24 7 26 C3.375 26.125 3.375 26.125 0 26 C0.59607963 22.52415903 1.90080513 20.70501924 4.1875 18.0625 C6.65405629 15.08498389 6.65405629 15.08498389 6.6875 11.375 C5.31644176 9.44536248 3.90538196 7.67441164 2.375 5.875 C0 3 0 3 0 0 Z " fill="#FEFEFE" transform="translate(125,3)"/>
<path d="M0 0 C2.31 0 4.62 0 7 0 C7 6.6 7 13.2 7 20 C10.63 20 14.26 20 18 20 C16 25 16 25 15 26 C12.4672235 26.07320163 9.96896082 26.09227569 7.4375 26.0625 C4.983125 26.041875 2.52875 26.02125 0 26 C0 17.42 0 8.84 0 0 Z " fill="#FEFEFE" transform="translate(104,3)"/>
<path d="M0 0 C2.6875 0.6875 2.6875 0.6875 4.6875 2.6875 C4.703125 4.96484375 4.703125 4.96484375 3.6875 7.6875 C1.64097054 9.72535772 -0.3115916 11.47439283 -2.5625 13.25 C-3.13613281 13.71857422 -3.70976562 14.18714844 -4.30078125 14.66992188 C-5.42977921 15.58932226 -6.56444456 16.50181368 -7.70507812 17.40673828 C-9.19143993 18.59104175 -10.65172029 19.80788122 -12.109375 21.02734375 C-14.3125 22.6875 -14.3125 22.6875 -16.3125 22.6875 C-16.3125 23.3475 -16.3125 24.0075 -16.3125 24.6875 C-17.92707079 26.12331474 -19.60469075 27.48894783 -21.3125 28.8125 C-22.240625 29.53695313 -23.16875 30.26140625 -24.125 31.0078125 C-24.846875 31.56210937 -25.56875 32.11640625 -26.3125 32.6875 C-26.9725 32.3575 -27.6325 32.0275 -28.3125 31.6875 C-27 30.08333333 -25.6875 28.47916667 -24.375 26.875 C-23.14330078 25.36873047 -23.14330078 25.36873047 -21.88671875 23.83203125 C-20.24643275 21.82696246 -18.6028044 19.82480203 -16.95703125 17.82421875 C-16.20808594 16.91285156 -15.45914062 16.00148438 -14.6875 15.0625 C-13.94628906 14.16660156 -13.20507812 13.27070313 -12.44140625 12.34765625 C-11.04495903 10.6027378 -9.69584571 8.81863536 -8.40234375 6.99609375 C-4.01397599 0.83308936 -4.01397599 0.83308936 0 0 Z " fill="#FEFEFE" transform="translate(28.3125,-0.6875)"/>
<path d="M0 0 C2.0625 0.4375 2.0625 0.4375 4 1 C4 2.32 4 3.64 4 5 C1.86508899 6.93549625 -0.17186336 8.58497089 -2.5 10.25 C-3.12003906 10.70890625 -3.74007813 11.1678125 -4.37890625 11.640625 C-5.91085145 12.77190761 -7.45437061 13.88748654 -9 15 C-9.33 14.34 -9.66 13.68 -10 13 C-8.5217985 11.02010587 -7.0424882 9.04105782 -5.5625 7.0625 C-5.14162109 6.49853516 -4.72074219 5.93457031 -4.28710938 5.35351562 C-1.11328125 1.11328125 -1.11328125 1.11328125 0 0 Z " fill="#FDFDFD" transform="translate(12,0)"/>
<path d="M0 0 C1.65 0.33 3.3 0.66 5 1 C5 2.32 5 3.64 5 5 C3.06539252 6.78670171 1.26079212 8.24956938 -0.875 9.75 C-1.43058594 10.16121094 -1.98617188 10.57242187 -2.55859375 10.99609375 C-6.70019207 14 -6.70019207 14 -9 14 C-7.65070536 10.16336928 -5.92248975 7.34827431 -3.375 4.1875 C-2.42753906 3.00220703 -2.42753906 3.00220703 -1.4609375 1.79296875 C-0.97882812 1.20128906 -0.49671875 0.60960938 0 0 Z " fill="#FDFDFD" transform="translate(27,16)"/>
</svg>
