<svg xmlns="http://www.w3.org/2000/svg" width="114" height="26" viewBox="0 0 114 26" fill="none">
    <g clip-path="url(#clip0_4307_11835)">
        <mask id="mask0_4307_11835" style="mask-type:luminance" maskUnits="userSpaceOnUse" x="0" y="0" width="114" height="26">
            <path d="M0 0H113.537V26H0V0Z" fill="white"/>
        </mask>
        <g mask="url(#mask0_4307_11835)">
            <path fill-rule="evenodd" clip-rule="evenodd" d="M93.9945 7.72688H97.2189V4.50171H93.9945V7.72688ZM76.8561 13.0978C77.4723 11.4637 79.05 10.3002 80.9 10.3002C82.7498 10.3002 84.3275 11.4637 84.9439 13.0978H76.8561ZM80.9 7.30155C76.8583 7.30155 73.5807 10.5793 73.5807 14.6228C73.5807 18.6662 76.8583 21.9434 80.9 21.9434C83.6736 21.9434 86.0864 20.401 87.3283 18.1274L84.6238 16.815C83.8723 18.0893 82.4863 18.9448 80.9 18.9448C78.8957 18.9448 77.211 17.5801 76.7221 15.7291H85.0776C85.0771 15.7305 85.0768 15.7323 85.0765 15.734H88.1367C88.192 15.3715 88.2206 15.0004 88.2206 14.6228C88.2206 10.5793 84.9431 7.30155 80.9 7.30155ZM89.0705 21.5532H92.2949V18.328H89.0705V21.5532ZM93.9945 21.5532H97.2189V9.14473H93.9945V21.5532ZM106.219 18.9448C103.832 18.9448 101.897 17.0097 101.897 14.6228C101.897 12.2353 103.832 10.3002 106.219 10.3002C108.605 10.3002 110.54 12.2353 110.54 14.6228C110.54 17.0097 108.605 18.9448 106.219 18.9448ZM106.217 7.30155C102.176 7.30155 98.898 10.5793 98.898 14.6228C98.898 18.6662 102.176 21.9434 106.217 21.9434C110.26 21.9434 113.538 18.6662 113.538 14.6228C113.538 10.5793 110.26 7.30155 106.217 7.30155ZM38.8024 11.9241V15.2587H43.3109C43.0755 16.2116 42.6101 17.0655 41.9427 17.7476C40.9361 18.7765 39.5404 19.3435 38.0124 19.3435C34.8416 19.3435 32.2616 16.7632 32.2616 13.5914C32.2616 10.4196 34.8416 7.83907 38.0124 7.83907C39.7109 7.83907 41.2721 8.56621 42.3545 9.82035L44.9358 7.71069C43.2243 5.70461 40.6851 4.50414 38.0124 4.50414C33.0032 4.50414 28.9277 8.58077 28.9277 13.5914C28.9277 18.602 33.0032 22.6784 38.0124 22.6784C40.4446 22.6784 42.6867 21.8019 44.3258 20.1264C45.7013 18.7202 46.613 16.7586 46.7882 14.7935C46.8737 13.8349 46.8815 12.8829 46.8311 11.9241H38.8024ZM55.226 18.9456C52.8393 18.9456 50.9044 17.01 50.9044 14.6228C50.9044 12.235 52.8393 10.2999 55.226 10.2999C57.6129 10.2999 59.5479 12.235 59.5479 14.6228C59.5479 17.01 57.6129 18.9456 55.226 18.9456ZM59.5484 8.7283C58.3369 7.83988 56.843 7.31395 55.226 7.31395C51.1843 7.31395 47.9078 10.5914 47.9078 14.6341C47.9078 18.6773 51.1843 21.9542 55.226 21.9542C56.843 21.9542 58.3369 21.4286 59.5484 20.5402V21.5532H62.5444V7.71528H59.5484V8.7283ZM68.976 4.50198H65.9797V7.72688H64.1839V10.5553H65.9797V17.9572C65.9797 18.7215 66.0757 19.3645 66.2661 19.8691C66.4537 20.3684 66.7406 20.7592 67.0817 21.0645C67.4274 21.3744 67.833 21.6158 68.3138 21.7528C68.8024 21.8903 69.3414 21.9434 69.9111 21.9434C70.5009 21.9434 71.0267 21.8822 71.4753 21.7611C71.892 21.6492 72.2913 21.4909 72.6629 21.2897V19.0106C72.0718 19.2663 71.5193 19.3588 70.8889 19.3882C70.2234 19.4195 69.8297 19.2294 69.5021 18.9171C69.1588 18.5899 68.976 18.1635 68.976 17.4482V10.5553H72.6629V7.72688H68.976V4.50198Z" fill="white"/>
        </g>
        <mask id="mask1_4307_11835" style="mask-type:luminance" maskUnits="userSpaceOnUse" x="0" y="0" width="114" height="26">
            <path d="M0 0H113.537V26H0V0Z" fill="white"/>
        </mask>
        <g mask="url(#mask1_4307_11835)">
            <path fill-rule="evenodd" clip-rule="evenodd" d="M12.9972 20.1501C9.0493 20.1501 5.84888 16.9493 5.84888 13.0002C5.84888 9.0514 9.0493 5.84996 12.9972 5.84996V0C5.81895 0 0 5.8203 0 13.0002C0 20.1798 5.81895 26.0001 12.9972 26.0001C20.1751 26.0001 25.9944 20.1798 25.9944 13.0002H20.1455C20.1455 16.9493 16.9451 20.1501 12.9972 20.1501Z" fill="white"/>
        </g>
        <mask id="mask2_4307_11835" style="mask-type:luminance" maskUnits="userSpaceOnUse" x="0" y="0" width="114" height="26">
            <path d="M0 0H113.537V26H0V0Z" fill="white"/>
        </mask>
        <g mask="url(#mask2_4307_11835)">
            <path fill-rule="evenodd" clip-rule="evenodd" d="M12.998 12.9998H20.1463V5.84985H12.998V12.9998Z" fill="white"/>
        </g>
    </g>
    <defs>
        <clipPath id="clip0_4307_11835">
            <rect width="113.537" height="26" fill="white"/>
        </clipPath>
    </defs>
</svg>
