<svg width="208" height="32" viewBox="0 0 208 32" fill="none" xmlns="http://www.w3.org/2000/svg">
<g id="Google Cloud">
<path id="Vector" d="M25.3349 8.46859H26.4778L29.7349 5.21144L29.8949 3.82859C28.029 2.18168 25.7741 1.03763 23.3431 0.504508C20.9121 -0.0286118 18.3853 0.0667985 16.0015 0.781726C13.6176 1.49665 11.4554 2.8075 9.71899 4.59043C7.9826 6.37336 6.7294 8.56952 6.07776 10.9714C6.44062 10.8227 6.84258 10.7986 7.22062 10.9029L13.7349 9.82859C13.7349 9.82859 14.0663 9.28001 14.2378 9.3143C15.6336 7.78135 17.5625 6.8399 19.6298 6.68268C21.697 6.52546 23.7462 7.16436 25.3578 8.46859H25.3349Z" fill="white"/>
<path id="Vector_2" d="M34.3749 10.9714C33.6262 8.2144 32.0891 5.7359 29.9521 3.83997L25.3806 8.41139C26.3334 9.18987 27.0969 10.1745 27.6136 11.2911C28.1303 12.4077 28.3867 13.627 28.3635 14.8571V15.6685C28.8978 15.6685 29.4268 15.7738 29.9205 15.9782C30.4141 16.1827 30.8626 16.4824 31.2404 16.8602C31.6182 17.238 31.9179 17.6865 32.1224 18.1801C32.3268 18.6738 32.4321 19.2028 32.4321 19.7371C32.4321 20.2714 32.3268 20.8005 32.1224 21.2941C31.9179 21.7877 31.6182 22.2362 31.2404 22.614C30.8626 22.9918 30.4141 23.2915 29.9205 23.496C29.4268 23.7004 28.8978 23.8057 28.3635 23.8057H20.2263L19.4149 24.6285V29.5085L20.2263 30.32H28.3635C30.6358 30.3377 32.8534 29.6235 34.6883 28.2831C36.5232 26.9428 37.878 25.0474 38.5522 22.8774C39.2264 20.7074 39.1842 18.378 38.4319 16.2338C37.6796 14.0896 36.2572 12.2445 34.3749 10.9714Z" fill="white"/>
<path id="Vector_3" d="M12.0778 30.2743H20.2149V23.76H12.0778C11.498 23.7599 10.9251 23.6352 10.3978 23.3943L9.25492 23.7486L5.97492 27.0057L5.68921 28.1486C7.52856 29.5375 9.77296 30.2843 12.0778 30.2743Z" fill="white"/>
<path id="Vector_4" d="M12.0779 9.14289C9.87309 9.15606 7.72748 9.85752 5.94072 11.1493C4.15395 12.4411 2.81526 14.2586 2.11162 16.3482C1.40798 18.4377 1.37453 20.6948 2.01594 22.8043C2.65736 24.9137 3.9416 26.7702 5.6893 28.1143L10.4093 23.3943C9.80948 23.1233 9.28437 22.7109 8.87901 22.1923C8.47365 21.6737 8.20015 21.0646 8.08198 20.4171C7.9638 19.7696 8.00448 19.1031 8.20052 18.4748C8.39656 17.8465 8.74211 17.2751 9.20752 16.8097C9.67293 16.3443 10.2443 15.9987 10.8726 15.8027C11.5009 15.6066 12.1674 15.566 12.8149 15.6841C13.4624 15.8023 14.0716 16.0758 14.5901 16.4812C15.1087 16.8865 15.5212 17.4116 15.7922 18.0115L20.5122 13.2915C19.5215 11.9963 18.2446 10.9479 16.7814 10.2282C15.3183 9.50854 13.7084 9.13708 12.0779 9.14289Z" fill="white"/>
<path id="Vector_5" d="M60.695 25.7257C59.294 25.7436 57.9038 25.4785 56.6077 24.9463C55.3116 24.4141 54.1363 23.6258 53.1521 22.6286C52.1369 21.6737 51.3313 20.5182 50.7863 19.2355C50.2414 17.9528 49.969 16.5708 49.9864 15.1772C49.9696 13.7837 50.2424 12.4019 50.7873 11.1192C51.3322 9.83661 52.1375 8.68106 53.1521 7.72574C54.1315 6.7182 55.3046 5.91932 56.601 5.37722C57.8973 4.83513 59.2899 4.56103 60.695 4.57145C62.0337 4.55361 63.3627 4.80206 64.6047 5.30236C65.8466 5.80267 66.9767 6.54484 67.9292 7.48574L65.895 9.55431C64.5018 8.20797 62.6321 7.4683 60.695 7.49717C59.6901 7.48483 58.6936 7.68166 57.7689 8.07516C56.8442 8.46866 56.0114 9.05022 55.3235 9.78288C54.6086 10.4921 54.0447 11.3387 53.6656 12.2716C53.2865 13.2046 53.1002 14.2046 53.1178 15.2115C53.1094 16.2068 53.3003 17.1938 53.6791 18.1143C54.0579 19.0348 54.617 19.8703 55.3235 20.5715C56.7388 21.9818 58.6486 22.7842 60.6466 22.8077C62.6445 22.8311 64.5727 22.0739 66.0207 20.6972C66.9171 19.7154 67.4671 18.467 67.5864 17.1429H60.7292V14.2172H70.4321C70.5274 14.8064 70.5657 15.4034 70.5464 16C70.6067 17.2348 70.416 18.4689 69.9859 19.6279C69.5557 20.7869 68.8949 21.8465 68.0435 22.7429C67.0969 23.7284 65.9533 24.5034 64.6871 25.0174C63.4209 25.5313 62.0607 25.7727 60.695 25.7257ZM83.255 23.7829C81.9528 25.0311 80.2187 25.728 78.415 25.728C76.6112 25.728 74.8771 25.0311 73.575 23.7829C72.9268 23.1545 72.4164 22.3982 72.076 21.5621C71.7357 20.7259 71.5728 19.8282 71.5978 18.9257C71.5735 18.0234 71.7367 17.1259 72.077 16.2898C72.4173 15.4538 72.9274 14.6974 73.575 14.0686C74.8785 12.823 76.612 12.1279 78.415 12.1279C80.2179 12.1279 81.9515 12.823 83.255 14.0686C83.9025 14.6974 84.4126 15.4538 84.7529 16.2898C85.0932 17.1259 85.2564 18.0234 85.2321 18.9257C85.2556 19.829 85.091 20.7273 84.7486 21.5634C84.4063 22.3996 83.8937 23.1555 83.2435 23.7829H83.255ZM75.7121 21.8743C76.0585 22.2442 76.4771 22.5391 76.942 22.7406C77.4069 22.9422 77.9082 23.0462 78.415 23.0462C78.9217 23.0462 79.423 22.9422 79.888 22.7406C80.3529 22.5391 80.7715 22.2442 81.1178 21.8743C81.4955 21.484 81.7912 21.022 81.9874 20.5156C82.1837 20.0092 82.2766 19.4686 82.2607 18.9257C82.2775 18.381 82.1851 17.8385 81.9888 17.3301C81.7925 16.8217 81.4963 16.3578 81.1178 15.9657C80.7669 15.5996 80.3455 15.3083 79.879 15.1093C79.4126 14.9103 78.9107 14.8077 78.4035 14.8077C77.8964 14.8077 77.3945 14.9103 76.928 15.1093C76.4616 15.3083 76.0402 15.5996 75.6892 15.9657C75.3107 16.3578 75.0146 16.8217 74.8183 17.3301C74.622 17.8385 74.5295 18.381 74.5464 18.9257C74.5319 19.4694 74.6266 20.0105 74.8249 20.5169C75.0232 21.0234 75.321 21.4849 75.7007 21.8743H75.7121ZM98.135 23.7829C96.8328 25.0311 95.0987 25.728 93.295 25.728C91.4912 25.728 89.7571 25.0311 88.455 23.7829C87.8068 23.1545 87.2964 22.3982 86.956 21.5621C86.6157 20.7259 86.4528 19.8282 86.4778 18.9257C86.4535 18.0234 86.6167 17.1259 86.957 16.2898C87.2973 15.4538 87.8074 14.6974 88.455 14.0686C89.7571 12.8204 91.4912 12.1235 93.295 12.1235C95.0987 12.1235 96.8328 12.8204 98.135 14.0686C98.7825 14.6974 99.2926 15.4538 99.6329 16.2898C99.9732 17.1259 100.136 18.0234 100.112 18.9257C100.137 19.8282 99.9742 20.7259 99.6339 21.5621C99.2935 22.3982 98.7831 23.1545 98.135 23.7829ZM90.5921 21.8743C90.9385 22.2442 91.357 22.5391 91.822 22.7406C92.2869 22.9422 92.7882 23.0462 93.295 23.0462C93.8017 23.0462 94.303 22.9422 94.7679 22.7406C95.2329 22.5391 95.6515 22.2442 95.9978 21.8743C96.3755 21.484 96.6712 21.022 96.8674 20.5156C97.0637 20.0092 97.1566 19.4686 97.1407 18.9257C97.1575 18.381 97.0651 17.8385 96.8688 17.3301C96.6725 16.8217 96.3763 16.3578 95.9978 15.9657C95.6469 15.5996 95.2255 15.3083 94.759 15.1093C94.2926 14.9103 93.7907 14.8077 93.2835 14.8077C92.7764 14.8077 92.2745 14.9103 91.808 15.1093C91.3416 15.3083 90.9202 15.5996 90.5692 15.9657C90.1907 16.3578 89.8946 16.8217 89.6983 17.3301C89.502 17.8385 89.4095 18.381 89.4264 18.9257C89.4119 19.4694 89.5066 20.0105 89.7049 20.5169C89.9032 21.0234 90.201 21.4849 90.5807 21.8743H90.5921ZM107.918 31.8286C106.548 31.8722 105.205 31.4446 104.112 30.6172C103.142 29.8879 102.378 28.9191 101.895 27.8057L104.501 26.72C104.784 27.3854 105.228 27.9704 105.792 28.4229C106.396 28.9097 107.154 29.165 107.929 29.1429C108.421 29.1728 108.913 29.0964 109.373 28.9189C109.832 28.7414 110.248 28.467 110.592 28.1143C111.281 27.2838 111.621 26.2188 111.541 25.1429V24.16H111.438C111.002 24.6773 110.452 25.086 109.831 25.3538C109.211 25.6216 108.536 25.7411 107.861 25.7029C107.003 25.7055 106.153 25.5301 105.366 25.1878C104.58 24.8455 103.872 24.3438 103.289 23.7143C102.657 23.0898 102.157 22.3435 101.821 21.5204C101.485 20.6973 101.32 19.8146 101.335 18.9257C101.319 18.0317 101.484 17.1436 101.82 16.3149C102.156 15.4861 102.656 14.7338 103.289 14.1029C103.871 13.4708 104.578 12.9665 105.365 12.6222C106.152 12.2779 107.002 12.101 107.861 12.1029C108.588 12.1016 109.306 12.2616 109.964 12.5715C110.532 12.8199 111.04 13.1906 111.449 13.6572H111.552V12.5715H114.386V24.7429C114.461 25.7057 114.338 26.6736 114.026 27.5874C113.713 28.5012 113.218 29.3416 112.569 30.0572C111.952 30.6481 111.222 31.1093 110.423 31.4136C109.624 31.7178 108.772 31.8589 107.918 31.8286ZM108.124 23.0515C108.612 23.0622 109.096 22.9653 109.542 22.7678C109.989 22.5703 110.386 22.277 110.706 21.9086C111.412 21.1005 111.783 20.0547 111.746 18.9829C111.789 17.893 111.417 16.8274 110.706 16C110.387 15.631 109.989 15.3373 109.543 15.1397C109.096 14.9421 108.612 14.8456 108.124 14.8572C107.622 14.8469 107.124 14.9435 106.663 15.1405C106.202 15.3376 105.788 15.6306 105.449 16C104.693 16.7976 104.283 17.8613 104.306 18.96C104.295 19.4989 104.39 20.0348 104.586 20.5369C104.782 21.039 105.075 21.4974 105.449 21.8857C105.787 22.2588 106.2 22.5556 106.661 22.7566C107.122 22.9576 107.621 23.0581 108.124 23.0515ZM119.426 5.33717V25.3143H116.444V5.33717H119.426ZM127.609 25.7257C126.716 25.7487 125.827 25.587 125 25.2507C124.172 24.9144 123.422 24.4108 122.798 23.7715C122.164 23.1368 121.666 22.3799 121.334 21.5469C121.002 20.714 120.843 19.8222 120.866 18.9257C120.833 18.0271 120.98 17.1309 121.3 16.2905C121.62 15.4501 122.106 14.6828 122.729 14.0343C123.316 13.4154 124.026 12.926 124.813 12.5973C125.601 12.2686 126.448 12.108 127.301 12.1257C128.085 12.1175 128.863 12.2691 129.586 12.5715C130.238 12.8346 130.832 13.2228 131.335 13.7143C131.767 14.131 132.15 14.5948 132.478 15.0972C132.743 15.5213 132.969 15.9689 133.152 16.4343L133.461 17.2115L124.318 20.9715C124.594 21.6068 125.057 22.1434 125.644 22.5106C126.232 22.8779 126.917 23.0584 127.609 23.0286C128.283 23.0304 128.945 22.8577 129.532 22.5272C130.119 22.1967 130.61 21.7198 130.958 21.1429L133.244 22.6857C132.66 23.5203 131.914 24.2279 131.049 24.7657C130.021 25.4153 128.825 25.7491 127.609 25.7257ZM123.792 18.72L129.872 16.1943C129.685 15.749 129.35 15.3817 128.924 15.1543C128.446 14.8848 127.906 14.7467 127.358 14.7543C126.428 14.7784 125.545 15.1686 124.901 15.84C124.515 16.2088 124.216 16.6582 124.024 17.1561C123.833 17.6539 123.753 18.188 123.792 18.72Z" fill="white"/>
<path id="Vector_6" d="M149.084 25.7257C147.815 25.7476 146.555 25.513 145.38 25.0358C144.204 24.5587 143.137 23.8489 142.242 22.9491C141.348 22.0493 140.644 20.978 140.174 19.7996C139.704 18.6211 139.477 17.3599 139.506 16.0915C139.477 14.823 139.704 13.5618 140.174 12.3833C140.644 11.2049 141.348 10.1336 142.242 9.23382C143.137 8.33401 144.204 7.62423 145.38 7.14708C146.555 6.66994 147.815 6.43527 149.084 6.45717C150.368 6.41702 151.644 6.66754 152.818 7.18999C153.991 7.71244 155.031 8.49333 155.861 9.47431L154.215 11.0743C153.606 10.3085 152.825 9.69715 151.935 9.29005C151.046 8.88295 150.073 8.69156 149.095 8.73145C148.154 8.71025 147.218 8.87953 146.344 9.22912C145.47 9.57871 144.676 10.1014 144.009 10.7657C143.316 11.4629 142.774 12.2959 142.418 13.2124C142.062 14.1289 141.9 15.1091 141.941 16.0915C141.9 17.0738 142.062 18.054 142.418 18.9705C142.774 19.887 143.316 20.72 144.009 21.4172C144.676 22.0815 145.47 22.6042 146.344 22.9538C147.218 23.3034 148.154 23.4727 149.095 23.4515C150.187 23.4637 151.268 23.2296 152.257 22.7666C153.247 22.3036 154.119 21.6236 154.809 20.7772L156.455 22.4229C155.593 23.4533 154.512 24.2773 153.289 24.8343C151.972 25.4426 150.535 25.7472 149.084 25.7257Z" fill="white"/>
<path id="Vector_7" d="M160.878 25.3143H158.512V6.85718H160.878V25.3143Z" fill="white"/>
<path id="Vector_8" d="M164.741 14.2057C165.98 12.9746 167.656 12.2837 169.404 12.2837C171.151 12.2837 172.827 12.9746 174.066 14.2057C174.673 14.8457 175.146 15.5993 175.46 16.4231C175.774 17.2469 175.922 18.1246 175.895 19.0057C175.922 19.8868 175.774 20.7645 175.46 21.5883C175.146 22.4121 174.673 23.1657 174.066 23.8057C172.827 25.0368 171.151 25.7277 169.404 25.7277C167.656 25.7277 165.98 25.0368 164.741 23.8057C164.135 23.1657 163.661 22.4121 163.347 21.5883C163.033 20.7645 162.885 19.8868 162.912 19.0057C162.885 18.1246 163.033 17.2469 163.347 16.4231C163.661 15.5993 164.135 14.8457 164.741 14.2057ZM166.501 22.32C166.873 22.7139 167.323 23.0277 167.821 23.2421C168.319 23.4566 168.856 23.5672 169.398 23.5672C169.94 23.5672 170.477 23.4566 170.975 23.2421C171.473 23.0277 171.922 22.7139 172.295 22.32C172.708 21.8763 173.03 21.3547 173.24 20.7857C173.449 20.2167 173.544 19.6116 173.518 19.0057C173.544 18.3998 173.449 17.7947 173.24 17.2257C173.03 16.6566 172.708 16.1351 172.295 15.6914C171.922 15.2975 171.473 14.9837 170.975 14.7693C170.477 14.5548 169.94 14.4442 169.398 14.4442C168.856 14.4442 168.319 14.5548 167.821 14.7693C167.323 14.9837 166.873 15.2975 166.501 15.6914C166.087 16.1351 165.766 16.6566 165.556 17.2257C165.346 17.7947 165.252 18.3998 165.278 19.0057C165.255 19.6105 165.352 20.2139 165.564 20.7809C165.776 21.3479 166.098 21.8671 166.512 22.3086L166.501 22.32Z" fill="white"/>
<path id="Vector_9" d="M189.004 25.3143H186.718V23.5657H186.649C186.242 24.2298 185.667 24.7741 184.981 25.1429C184.269 25.5554 183.461 25.7723 182.638 25.7714C181.97 25.8171 181.3 25.7114 180.679 25.462C180.057 25.2127 179.5 24.8262 179.049 24.3314C178.184 23.2364 177.749 21.8623 177.826 20.4686V12.6971H180.192V20.0343C180.192 22.3886 181.232 23.5657 183.312 23.5657C183.774 23.5801 184.233 23.4839 184.651 23.2851C185.068 23.0864 185.432 22.7907 185.712 22.4229C186.325 21.6458 186.652 20.6812 186.638 19.6914V12.6971H189.004V25.3143Z" fill="white"/>
<path id="Vector_10" d="M197.038 25.7257C196.235 25.7284 195.442 25.5571 194.712 25.2237C193.982 24.8903 193.333 24.4026 192.809 23.7943C191.624 22.4857 190.99 20.7705 191.038 19.0057C190.99 17.241 191.624 15.5258 192.809 14.2172C193.333 13.6089 193.982 13.1212 194.712 12.7878C195.442 12.4544 196.235 12.2831 197.038 12.2857C197.937 12.2716 198.825 12.4838 199.621 12.9029C200.32 13.2547 200.912 13.7875 201.335 14.4457H201.438L201.335 12.6972V6.85718H203.701V25.3143H201.415V23.5657H201.312C200.889 24.224 200.297 24.7568 199.598 25.1086C198.809 25.524 197.929 25.7361 197.038 25.7257ZM197.426 23.5657C197.961 23.5735 198.491 23.4675 198.982 23.2547C199.473 23.0419 199.912 22.7272 200.272 22.3315C201.076 21.4164 201.486 20.2215 201.415 19.0057C201.486 17.79 201.076 16.5951 200.272 15.68C199.91 15.2821 199.469 14.9643 198.977 14.7467C198.485 14.5292 197.953 14.4169 197.415 14.4169C196.877 14.4169 196.345 14.5292 195.853 14.7467C195.361 14.9643 194.92 15.2821 194.558 15.68C194.159 16.1301 193.852 16.6545 193.656 17.2233C193.46 17.792 193.378 18.3939 193.415 18.9943C193.378 19.5948 193.46 20.1966 193.656 20.7654C193.852 21.3341 194.159 21.8585 194.558 22.3086C194.918 22.7114 195.361 23.0321 195.855 23.249C196.35 23.4659 196.886 23.5739 197.426 23.5657Z" fill="white"/>
</g>
</svg>
