<svg width="159" height="40" viewBox="0 0 159 40" fill="none" xmlns="http://www.w3.org/2000/svg">
<g id="Hyperion" clip-path="url(#clip0_4389_24814)">
<path id="Vector" d="M18.6047 0.863389C19.7831 0.779224 20.9634 0.785236 22.1418 0.865397C22.1498 1.78723 22.1458 2.70908 22.1498 3.63292C21.9453 3.6229 21.7449 3.61488 21.5446 3.60887L21.2901 3.60086C20.4324 3.54474 19.5726 3.57681 18.7189 3.66097C18.5085 2.74314 18.6288 1.79525 18.6047 0.863389Z" fill="white"/>
<path id="Vector_2" d="M15.1279 1.50266C15.8192 1.3243 16.5166 1.17801 17.218 1.05176C17.232 2.93752 17.2301 4.82328 17.216 6.70905C17.216 7.11185 17.212 7.52868 17.4004 7.89542C17.683 8.46856 17.9956 9.02766 18.2801 9.59884C18.6529 10.3944 19.1158 11.1439 19.4765 11.9435C19.5227 14.2661 19.4805 16.5888 19.4906 18.9114C18.5827 18.9094 17.6729 18.9094 16.7651 18.9094C16.6769 16.9114 16.7731 14.9094 16.725 12.9095C16.715 12.5066 16.4866 12.1579 16.3162 11.8073C15.8012 10.8473 15.3243 9.86937 14.7972 8.91746C14.6449 8.6048 14.4685 8.28619 14.4685 7.92948C14.4365 6.82929 14.4786 5.72709 14.4585 4.62689C13.8133 4.88741 13.18 5.182 12.5587 5.49462C12.5848 6.36636 12.4966 7.24612 12.6068 8.11185C13.0758 9.26015 13.7371 10.3223 14.2822 11.4365C14.5567 11.9615 14.8874 12.4986 14.8293 13.1198C14.8293 18.0577 14.8312 22.9975 14.8173 27.9354C14.1459 29.4464 13.2401 30.8492 12.6049 32.3762C12.5166 34.258 12.5587 36.1518 12.5908 38.0375C11.721 37.6588 10.8694 37.236 10.0738 36.7229C6.44854 34.4304 3.55878 30.9575 2.1179 26.9054C0.520715 22.6789 0.516706 17.8873 2.07983 13.6509C3.30827 10.2161 5.54073 7.16195 8.41246 4.91547C8.40044 6.05374 8.44252 7.19201 8.40445 8.33027C8.40845 8.75109 8.01567 9.00766 7.79122 9.31623C4.09585 13.4245 2.76921 19.4766 4.31629 24.7711C5.20205 28.0456 7.20806 30.9535 9.78519 33.1338C9.80527 32.4604 9.69907 31.733 10.0738 31.1298C10.6108 30.1478 11.0978 29.1378 11.6289 28.1518C11.8593 27.717 12.1119 27.258 12.0698 26.745C12.0557 23.0397 12.0798 19.3343 12.0578 15.6308C11.9876 14.6028 12.3103 13.4705 11.7431 12.5366C11.194 11.4926 10.6609 10.4405 10.1098 9.39639C9.92747 9.0617 9.77915 8.69705 9.80127 8.30823C9.78919 6.84332 9.80527 5.38039 9.79923 3.91547C11.4485 2.85937 13.2521 2.04975 15.1279 1.50266Z" fill="white"/>
<path id="Vector_3" d="M23.5307 7.11586C23.5406 5.09183 23.5106 3.06779 23.5427 1.04175C24.2541 1.18603 24.9695 1.32631 25.673 1.51669C27.5387 2.05978 29.3302 2.86338 30.9595 3.9235C30.9474 5.39043 30.9615 6.85535 30.9575 8.3223C30.9775 8.67896 30.8452 9.01569 30.6809 9.32426C30.0857 10.4766 29.4825 11.6229 28.8913 12.7751C28.7291 13.0597 28.6689 13.3824 28.681 13.709C28.6909 18.0597 28.689 22.4104 28.6829 26.7611C28.6689 27.0837 28.7331 27.4064 28.8934 27.691C29.4985 28.8873 30.1318 30.0717 30.7411 31.2661C31.0737 31.8332 30.9294 32.5125 30.9675 33.1358C32.5386 31.7971 33.8873 30.1979 34.9294 28.4163C36.7631 25.1378 37.4805 21.2341 36.8513 17.5226C36.3122 14.1759 34.6989 11.0477 32.3423 8.61887C32.3362 7.3824 32.3382 6.14593 32.3382 4.91147C33.6909 5.99763 34.9415 7.22207 35.9655 8.62687C38.0777 11.4305 39.3803 14.8292 39.747 18.3142C40.238 23.1399 38.8171 28.1238 35.8713 31.9714C33.9054 34.6048 31.22 36.6528 28.25 38.0355C28.1018 36.1639 28.2762 34.2821 28.1639 32.4123C27.5526 30.8472 26.5486 29.4505 25.9535 27.8813C25.8833 23.0958 25.9555 18.3062 25.9175 13.5186C25.9314 13.1218 25.8713 12.701 26.0296 12.3263C26.697 10.8914 27.5486 9.54271 28.1579 8.0838C28.21 7.22207 28.2722 6.32629 28.1258 5.4766C27.5507 5.11788 26.9094 4.89143 26.2902 4.6269C26.2621 5.80324 26.3402 6.98159 26.2561 8.15394C25.8974 9.17594 25.2902 10.0918 24.8333 11.0718C24.5226 11.7291 24.0036 12.3463 24.0216 13.1119C24.0156 14.7531 24.0237 16.3944 24.0216 18.0376C24.0216 18.3283 24.0216 18.6188 24.0216 18.9094C23.0998 18.9114 22.176 18.9094 21.2541 18.9094C21.2541 16.6008 21.2642 14.2942 21.2521 11.9876C21.3624 11.7451 21.4826 11.5066 21.6048 11.2701C22.0998 10.3443 22.5668 9.40247 23.0617 8.47659C23.2762 8.04772 23.5607 7.61687 23.5307 7.11586Z" fill="white"/>
<path id="Vector_4" d="M132.005 6.31837C132.373 6.24423 132.745 6.20415 133.124 6.17208C133.226 6.16807 133.434 6.15805 133.536 6.15204C133.985 6.14402 134.436 6.14603 134.888 6.14803C134.989 6.14803 135.19 6.14803 135.292 6.14803C135.756 6.15004 136.226 6.14402 136.694 6.15405C136.774 6.16206 136.937 6.17609 137.019 6.1821C137.496 6.22218 137.969 6.30635 138.432 6.43861C138.53 6.47869 138.724 6.55886 138.822 6.59893C139.259 6.80935 139.682 7.05184 140.081 7.33641C141.293 8.35841 141.977 9.92755 141.959 11.5107C141.928 12.7893 142.065 14.0858 141.813 15.3504C141.355 17.5187 139.394 19.2041 137.186 19.3464C137.067 19.3504 136.826 19.3604 136.706 19.3664C135.257 19.3624 133.803 19.4486 132.359 19.2982C131.56 19.1299 130.803 18.8033 130.125 18.3504C128.484 17.18 127.869 15.0778 128.037 13.138C128.011 11.6871 127.961 10.1621 128.676 8.84339C128.961 8.39049 129.292 7.96566 129.661 7.57688C130.314 6.95565 131.143 6.55485 132.005 6.31837ZM131.662 8.93359C131.302 9.22216 130.985 9.56086 130.727 9.94363C130.45 10.5529 130.35 11.2201 130.364 11.8855C130.368 12.1179 130.373 12.3524 130.382 12.5869C130.355 13.3925 130.358 14.2001 130.458 15.0017L130.492 14.9716C130.666 15.4807 130.947 15.9496 131.332 16.3303L131.516 16.3844L131.5 16.4707C131.684 16.5769 131.87 16.6791 132.063 16.7872C132.987 17.1259 133.995 17.0338 134.961 17.0398C135.546 17.0498 136.131 17.0498 136.72 17.0458C137.662 16.9836 138.596 16.5788 139.149 15.7853C139.977 14.2482 139.542 12.4285 139.578 10.7632C139.394 10.158 139.063 9.61898 138.653 9.14404C138.213 8.89147 137.756 8.60698 137.231 8.64102L137.115 8.6971L137.093 8.5789C136.967 8.55081 136.716 8.49269 136.59 8.46265C136.177 8.48265 135.768 8.48673 135.362 8.48469C135.227 8.48469 134.963 8.48469 134.83 8.48469C134.406 8.48469 133.981 8.48069 133.56 8.47065C132.909 8.53881 132.262 8.66502 131.662 8.93359Z" fill="white"/>
<path id="Vector_5" d="M145.468 6.4967C145.887 6.05983 146.646 6.04179 147.073 6.48067C148.021 7.37445 148.866 8.37046 149.803 9.27822C150.426 9.9676 151.119 10.641 151.756 11.3403C152.482 12.0979 153.208 12.8554 153.937 13.6109C154.51 14.2021 155.081 14.7953 155.644 15.3985C155.64 12.3745 155.675 9.35242 155.644 6.33037C156.155 6.32836 156.668 6.32436 157.183 6.32436C157.296 6.32636 157.518 6.32836 157.631 6.33037C157.72 6.33438 157.897 6.3424 157.987 6.34641C157.983 6.67506 157.981 7.00371 157.987 7.33437C157.989 7.40251 157.991 7.54079 157.991 7.60892C157.981 8.49667 157.975 9.38246 157.989 10.2702C157.987 10.4425 157.987 10.615 157.989 10.7892C157.979 11.6129 157.979 12.4366 157.991 13.2622C157.989 13.4225 157.989 13.5829 157.993 13.7432C157.959 15.2642 158.019 16.7852 157.968 18.3043C157.957 18.8113 157.558 19.196 157.111 19.3664C156.76 19.3403 156.362 19.3924 156.097 19.1199C155.448 18.5548 154.902 17.8814 154.279 17.2862C153.711 16.679 153.145 16.0658 152.562 15.4726C152.173 15.0758 151.792 14.673 151.412 14.2702C151.009 13.8413 150.592 13.4265 150.182 13.0057L150.053 12.8674C149.686 12.4706 149.314 12.0798 148.941 11.691C148.439 11.1741 147.945 10.653 147.452 10.1319C147.448 11.4045 147.456 12.679 147.452 13.9516C147.444 15.703 147.45 17.4526 147.456 19.2021C146.676 19.2 145.897 19.2041 145.119 19.196C145.111 18.1821 145.115 17.166 145.113 16.1519C145.115 15.0759 145.111 13.9997 145.113 12.9235C145.111 12.5428 145.111 12.162 145.115 11.7833C145.115 10.4225 145.111 9.06181 145.111 7.70111C145.113 7.28227 145.113 6.79329 145.468 6.4967Z" fill="white"/>
<path id="Vector_6" d="M43.9453 6.32434C44.0977 6.32634 44.4043 6.32634 44.5566 6.32834C45.1317 6.32834 45.7089 6.32834 46.288 6.32834C46.268 8.08185 46.282 9.83536 46.27 11.5888C49.0075 11.5909 51.7429 11.5909 54.4804 11.5888C54.4703 9.83731 54.4824 8.08385 54.4724 6.33034C55.2539 6.32634 56.0335 6.33636 56.8151 6.3103C56.803 10.6089 56.813 14.9074 56.809 19.204C56.0295 19.2021 55.2499 19.204 54.4724 19.204C54.4864 17.4485 54.4704 15.695 54.4764 13.9395C51.7429 13.9435 49.0094 13.9456 46.278 13.9395C46.272 15.695 46.276 17.4505 46.276 19.204C45.4964 19.204 44.7189 19.204 43.9394 19.208C43.9394 14.9135 43.9273 10.6189 43.9453 6.32434Z" fill="white"/>
<path id="Vector_7" d="M59.7949 6.28824C60.6386 6.28023 61.4843 6.28623 62.328 6.28423C63.6627 8.01569 64.9973 9.74315 66.3339 11.4706C67.6666 9.74111 69.0053 8.01569 70.336 6.28423C71.1797 6.29024 72.0233 6.29024 72.869 6.28223C71.0875 8.58886 69.3239 10.9094 67.5143 13.194C67.5043 15.2 67.5203 17.206 67.5063 19.212C66.7228 19.2 65.9412 19.204 65.1616 19.208C65.1496 17.214 65.1496 15.2181 65.1637 13.224C63.366 10.9175 61.5905 8.59482 59.7949 6.28824Z" fill="white"/>
<path id="Vector_8" d="M78.1416 6.4526C79.6005 6.21613 81.0855 6.37245 82.5563 6.32836C84.0232 6.34038 85.6763 6.19409 86.9049 7.15601C88.18 8.10991 88.6926 9.77119 88.5922 11.3143C88.6804 12.7913 88.1498 14.3844 86.8673 15.2221C85.22 16.4045 83.0975 15.9556 81.2098 16.0438C80.6205 16.0438 80.0333 16.0497 79.4482 16.0478C79.336 16.0438 79.1095 16.0398 78.9953 16.0358C78.9913 15.9596 78.9833 15.8052 78.9793 15.7291C78.9672 15.0538 78.9793 14.3764 78.9773 13.7011C79.7748 13.7051 80.5724 13.7011 81.372 13.7071C82.4338 13.683 83.504 13.7832 84.5628 13.6469C85.3563 13.5527 86.1098 12.9556 86.2036 12.1279C86.2902 11.146 86.38 9.97764 85.6445 9.20409C85.1138 8.6209 84.2681 8.66099 83.5481 8.65903C82.0093 8.68107 80.4682 8.63494 78.9311 8.68303C78.4642 8.65699 78.0213 9.02376 78.0614 9.5107C78.0253 11.4065 78.0614 13.3023 78.0474 15.198C78.0454 16.5347 78.0474 17.8694 78.0474 19.206C77.2679 19.2041 76.4903 19.202 75.7128 19.204C75.7328 15.9015 75.6907 12.5989 75.7288 9.29829C75.7529 7.93156 76.8209 6.73116 78.1416 6.4526Z" fill="white"/>
<path id="Vector_9" d="M91.7546 6.69921C92.0975 6.29241 92.6804 6.3405 93.1595 6.32446C96.4959 6.34851 99.8306 6.29841 103.165 6.34851C103.132 6.73128 103.128 7.11404 103.128 7.49681C103.128 7.88358 103.132 8.26832 103.135 8.6551C102.829 8.65714 102.522 8.65714 102.22 8.6631C99.4036 8.66718 96.5906 8.6591 93.7767 8.66514C93.7808 11.0178 93.7906 13.3705 93.7726 15.7232C93.7228 16.2002 93.9432 16.8535 94.522 16.8314C97.384 16.9296 100.252 16.8375 103.115 16.8695L103.128 17.0599C103.135 17.4106 103.133 17.7613 103.135 18.114C103.133 18.4767 103.133 18.8394 103.135 19.2022C100.264 19.2062 97.3922 19.2082 94.5204 19.1981C92.9734 19.132 91.5163 17.8975 91.4542 16.3044C91.4183 13.5709 91.4559 10.8355 91.4363 8.10201C91.4502 7.62707 91.3857 7.06996 91.7546 6.69921Z" fill="white"/>
<path id="Vector_10" d="M106.995 6.41057C108.408 6.24624 109.835 6.36247 111.253 6.3304C111.4 6.3304 111.69 6.3304 111.837 6.3304C112.271 6.3304 112.709 6.3304 113.146 6.3304C113.42 6.3304 113.697 6.3304 113.975 6.3304C114.12 6.3304 114.404 6.3304 114.546 6.3304C114.965 6.3284 115.386 6.3284 115.809 6.32639C115.911 6.32439 116.113 6.32439 116.216 6.32239C116.631 6.34844 117.047 6.40054 117.456 6.49474C117.546 6.54484 117.724 6.64303 117.815 6.69313C118.106 6.89955 118.374 7.132 118.628 7.38451C118.927 7.90555 119.161 8.48066 119.169 9.08988C119.19 10.4166 119.315 11.8674 118.551 13.0338C117.777 14.2963 116.306 14.9356 114.869 15.0198C115.929 15.9096 116.979 16.8133 118.017 17.7291C118.293 17.9696 118.574 18.2061 118.855 18.4446C119.146 18.6951 119.438 18.9476 119.731 19.198C119.554 19.198 119.2 19.198 119.021 19.2001C118.737 19.2001 118.456 19.2001 118.177 19.2021C117.937 19.2041 117.698 19.2041 117.462 19.2061C117.085 19.2081 116.711 19.2081 116.337 19.198C116.284 19.1921 116.177 19.182 116.124 19.178C115.983 19.0698 115.847 18.9616 115.716 18.8473C115.558 18.7151 115.404 18.5829 115.252 18.4486C114.314 17.637 113.36 16.8393 112.438 16.0097C112.168 15.7732 111.901 15.5348 111.632 15.3023C111.085 14.7652 110.256 15.0578 109.577 14.9997C109.58 14.2162 109.574 13.4326 109.57 12.649C111.051 12.6971 112.534 12.635 114.019 12.6651C114.981 12.7192 116.2 12.5608 116.646 11.5709C116.969 10.643 116.879 9.62098 116.716 8.66906C114.08 8.66506 111.442 8.66302 108.804 8.6671H108.639C108.658 12.182 108.65 15.6951 108.653 19.2101C107.866 19.2041 107.085 19.2121 106.302 19.2141C106.306 15.7131 106.312 12.2122 106.304 8.70915C106.315 8.05786 106.223 7.37248 106.518 6.76528C106.671 6.64102 106.829 6.52079 106.995 6.41057Z" fill="white"/>
<path id="Vector_11" d="M122.452 7.82134C122.45 7.31633 122.458 6.81333 122.482 6.31032C123.248 6.33036 124.015 6.3464 124.782 6.29028C124.787 6.84739 124.787 7.40451 124.789 7.96162C124.787 8.34238 124.791 8.72312 124.793 9.10393C124.791 9.64695 124.791 10.1901 124.793 10.7351C124.791 11.158 124.791 11.5808 124.791 12.0037C124.789 12.5167 124.789 13.0277 124.791 13.5407C124.791 13.9856 124.791 14.4325 124.793 14.8794C124.789 15.3704 124.789 15.8614 124.793 16.3504C124.791 16.7712 124.791 17.192 124.793 17.6109C124.793 18.162 124.787 18.7131 124.769 19.2621C124.003 19.154 123.226 19.2201 122.458 19.2101C122.458 19.1139 122.458 18.9215 122.456 18.8233C122.454 18.2221 122.454 17.6209 122.454 17.0197C122.452 16.7592 122.45 16.4986 122.452 16.2402C122.452 15.5909 122.454 14.9435 122.454 14.2963C122.45 14.0077 122.45 13.7211 122.452 13.4325C122.452 12.7552 122.454 12.0778 122.454 11.4025C122.452 11.1881 122.452 10.9736 122.454 10.7612C122.454 10.0418 122.456 9.3223 122.454 8.60287C122.45 8.34238 122.448 8.08186 122.452 7.82134Z" fill="white"/>
<path id="Vector_12" d="M94.7089 11.5909C96.5522 11.5889 98.3938 11.5929 100.238 11.5889C100.851 11.5889 101.466 11.5909 102.081 11.5909C102.08 12.3464 102.077 13.1039 102.095 13.8614L102.011 13.9215C101.556 13.9436 101.103 13.9436 100.653 13.9436C98.6706 13.9496 96.691 13.9416 94.7106 13.9416C94.7089 13.158 94.7065 12.3745 94.7089 11.5909Z" fill="white"/>
<path id="Vector_13" d="M16.7289 21.5586C17.6508 21.5606 18.5707 21.5606 19.4925 21.5606C19.4945 23.6929 19.4905 25.8251 19.4985 27.9574C19.5125 28.3141 19.4364 28.6648 19.262 28.9774C18.6668 30.1237 18.0657 31.2659 17.4745 32.4143C17.3201 32.6988 17.208 33.0114 17.224 33.3441C17.208 34.4343 17.234 35.5264 17.22 36.6187C19.3021 37.0074 21.4444 36.9894 23.5285 36.6246C23.5165 35.5365 23.5405 34.4463 23.5265 33.3581C23.5325 32.6447 23.0536 32.0655 22.771 31.4423C22.296 30.4463 21.6969 29.5064 21.292 28.4784C21.2079 26.1778 21.276 23.8652 21.262 21.5606C22.1799 21.5626 23.0997 21.5606 24.0196 21.5606C24.0196 23.3502 24.0255 25.1418 24.0155 26.9313C24.0236 27.3582 23.9894 27.813 24.2059 28.2019C24.8051 29.3882 25.4303 30.5646 26.0415 31.7469C26.2079 32.0535 26.3101 32.3922 26.292 32.7449C26.2941 34.7549 26.284 36.765 26.292 38.773C22.4645 39.9633 18.2941 39.9593 14.4664 38.781C14.4605 38.0114 14.4664 37.2399 14.4464 36.4703C14.5125 35.0535 14.3782 33.6286 14.5125 32.2179C15.1238 30.8071 15.9394 29.4884 16.5927 28.0957C16.7711 27.741 16.7249 27.3321 16.739 26.9494C16.727 25.1538 16.731 23.3561 16.7289 21.5586Z" fill="white"/>
<path id="Vector_14" d="M93.3579 25.2761C96.2755 25.2862 99.1914 25.2782 102.11 25.2782C102.107 25.8152 102.107 26.3543 102.113 26.8934C100.923 26.8994 99.7326 26.8954 98.544 26.8974C98.5481 29.3302 98.5424 31.7631 98.5465 34.198C98.0053 34.1939 97.4681 34.1939 96.931 34.198C96.9253 31.7631 96.9334 29.3302 96.9253 26.8974C96.011 26.8994 95.0975 26.8954 94.1832 26.8954C93.9073 26.8954 93.6322 26.8954 93.3604 26.8954C93.3604 26.3563 93.3595 25.8152 93.3579 25.2761Z" fill="white"/>
<path id="Vector_15" d="M45.8472 28.9214C47.5506 28.9234 49.256 28.9255 50.9593 28.9194C50.9614 29.4625 50.9614 30.0076 50.9593 30.5507C49.775 30.5567 48.5926 30.5527 47.4103 30.5567C46.8873 30.5547 46.3642 30.5627 45.8452 30.5226C45.8432 29.9896 45.8452 29.4545 45.8472 28.9214Z" fill="white"/>
<path id="Vector_16" d="M74.3579 25.9272C74.3279 25.3821 74.9932 24.9814 75.4641 25.2378C75.9812 25.5464 76.3399 26.0475 76.7568 26.4723C77.6886 27.4442 78.6225 28.4142 79.5583 29.3821C79.6926 29.5284 79.8269 29.6747 79.9672 29.823C80.2137 30.0875 80.4681 30.346 80.7227 30.6066C81.0253 30.9192 81.3279 31.2338 81.6345 31.5464C81.6305 29.4583 81.6385 27.3701 81.6305 25.2819C81.9672 25.2819 82.3015 25.2799 82.6427 25.2799C82.7203 25.2799 82.873 25.2799 82.9513 25.2799C83.0272 25.2799 83.1799 25.2779 83.2558 25.2779C83.2558 25.4041 83.2534 25.6547 83.2534 25.7809C83.2517 26.0034 83.2501 26.2258 83.2517 26.4503C83.2476 27.0655 83.2501 27.6847 83.2558 28.3019C83.2534 28.5344 83.2558 28.7689 83.2574 29.0034C83.2517 29.7048 83.2517 30.4081 83.2599 31.1116C83.2574 31.2738 83.2574 31.4362 83.2599 31.6005C83.2501 32.2599 83.2615 32.9192 83.2574 33.5805C83.1595 34.1135 82.6746 34.326 82.1815 34.358C82.0836 34.2639 81.885 34.0734 81.7868 33.9773C81.0874 33.2939 80.4221 32.5765 79.7467 31.8711C79.2658 31.3661 78.7848 30.861 78.3018 30.3601C78.2056 30.2639 78.1134 30.1676 78.0233 30.0735C77.3339 29.3541 76.6506 28.6266 75.9552 27.9152C75.9632 28.0435 75.9772 28.3 75.9852 28.4282C75.913 30.3521 75.9772 32.2799 75.9491 34.2037C75.4121 34.1997 74.875 34.2077 74.34 34.1897C74.3379 32.7628 74.344 31.3361 74.3319 29.9112C74.356 28.5825 74.2958 27.2538 74.3579 25.9272Z" fill="#FFFFFE"/>
<path id="Vector_17" d="M149.095 25.2681C149.217 25.27 149.462 25.274 149.584 25.2761C149.646 25.2761 149.768 25.278 149.83 25.2801L150.027 25.278C150.189 25.2761 150.516 25.274 150.678 25.2721C150.68 25.769 150.684 26.264 150.69 26.761C150.69 27.0837 150.693 27.4063 150.693 27.729C150.684 28.1378 150.68 28.5466 150.676 28.9554C152.574 28.9093 154.472 28.9414 156.369 28.9173C156.365 27.7089 156.365 26.5005 156.368 25.2921C156.454 25.2881 156.626 25.282 156.712 25.278C157.133 25.2721 157.558 25.2801 157.983 25.2841C157.983 28.256 157.99 31.2259 157.987 34.1979C157.862 34.1979 157.612 34.1998 157.488 34.2019C157.223 34.1998 156.959 34.1998 156.7 34.1939C156.618 34.1918 156.454 34.1838 156.372 34.1798C156.364 32.9714 156.366 31.761 156.372 30.5506C155.941 30.5486 155.514 30.5486 155.089 30.5506C154.741 30.5506 154.395 30.5506 154.053 30.5506C153.586 30.5506 153.119 30.5486 152.654 30.5486C152.003 30.5446 151.351 30.5606 150.702 30.5726C150.698 30.8692 150.694 31.1658 150.697 31.4624C150.697 31.6006 150.698 31.8793 150.698 32.0175C150.697 32.4304 150.693 32.8451 150.694 33.26C150.684 33.5706 150.684 33.8812 150.682 34.1939C150.518 34.1958 150.187 34.1979 150.023 34.1998C149.915 34.1998 149.702 34.2019 149.596 34.2019C149.464 34.2019 149.204 34.2038 149.073 34.2038C149.081 31.8532 149.059 29.5045 149.073 27.1558C149.073 27.0075 149.073 26.7129 149.073 26.5646C149.073 26.1317 149.083 25.6989 149.095 25.2681Z" fill="#FFFFFE"/>
<path id="Vector_18" d="M112.19 26.1319C112.143 25.689 112.504 25.3944 112.887 25.2781C113.302 25.2721 113.72 25.2762 114.139 25.2762C114.227 25.2762 114.404 25.2762 114.492 25.2762C115.044 25.2741 115.599 25.2762 116.151 25.2802C116.665 25.2821 117.178 25.2802 117.693 25.2762C118.554 25.2661 119.416 25.2781 120.28 25.2561C120.278 25.7952 120.284 26.3342 120.271 26.8733C120.209 26.8773 120.084 26.8874 120.019 26.8914C118.132 26.9154 116.242 26.8874 114.354 26.9014C114.249 26.8954 114.045 26.8853 113.943 26.8794L113.791 26.8653C113.817 28.4499 113.767 30.038 113.803 31.623C113.809 31.8563 113.755 32.126 113.902 32.3069C114.16 32.6232 114.643 32.5814 115.051 32.5802C116.703 32.5751 118.356 32.5836 120.009 32.5747L120.275 32.5527C120.278 33.1057 120.282 33.6589 120.288 34.212C118.169 34.1252 116.043 34.2906 113.929 34.1261C113.86 34.1208 113.795 34.1108 113.729 34.0935C113.601 34.0611 113.475 34.0109 113.364 33.941C113.275 33.8854 113.19 33.8276 113.105 33.7675C112.797 33.5497 112.548 33.25 112.392 32.9066C112.243 32.5775 112.189 32.2124 112.185 31.8511C112.164 29.9447 112.168 28.0383 112.19 26.1319Z" fill="#FFFFFD"/>
<path id="Vector_19" d="M43.6007 26.1398C43.5606 25.6528 43.9814 25.244 44.4664 25.2941C46.8631 25.2621 49.2599 25.2962 51.6568 25.2801C51.7128 25.8232 51.7088 26.3763 51.6106 26.9154C49.4744 26.8813 47.3382 26.9094 45.2018 26.8973C45.1999 28.0696 45.2039 29.242 45.1999 30.4163C45.2018 31.6749 45.1959 32.9354 45.2018 34.1959C44.6608 34.1959 44.1217 34.1959 43.5846 34.1999C43.6007 31.5126 43.5586 28.8252 43.6007 26.1398Z" fill="#FFFFFD"/>
<path id="Vector_20" d="M114.504 28.9254C116.151 28.9273 117.799 28.9013 119.446 28.9313L119.538 29.0115C119.56 29.5245 119.548 30.0356 119.548 30.5485C119.434 30.5485 119.205 30.5506 119.091 30.5506C118.771 30.5506 118.454 30.5506 118.138 30.5506C117.915 30.5506 117.694 30.5506 117.476 30.5525C117.049 30.5506 116.624 30.5506 116.201 30.5565C115.64 30.5606 115.081 30.5726 114.524 30.5565L114.418 30.5045C114.428 29.9774 114.424 29.4484 114.504 28.9254Z" fill="#FFFFFD"/>
<path id="Vector_21" d="M132.051 25.4122C132.204 25.3617 132.364 25.3308 132.525 25.3179C133.518 25.2382 134.515 25.2984 135.51 25.278C135.853 25.276 136.199 25.278 136.548 25.28C137.257 25.282 137.967 25.28 138.679 25.286C138.676 25.8291 138.675 26.3702 138.664 26.9133C138.025 26.8972 137.388 26.8972 136.752 26.8953C136.424 26.8953 136.095 26.8972 135.773 26.8972C135.64 26.8972 135.38 26.8972 135.248 26.8972C134.453 26.9024 133.657 26.8848 132.863 26.9069C132.645 26.913 132.44 27.0363 132.321 27.2186C132.257 27.318 132.224 27.4247 132.219 27.5433C132.157 28.904 132.187 30.2722 132.208 31.6363C132.212 31.8457 132.15 32.0829 132.259 32.2612C132.459 32.585 132.92 32.5777 133.3 32.5789C134.071 32.5811 134.845 32.5722 135.618 32.5786C135.751 32.5766 136.015 32.5766 136.147 32.5766C136.37 32.5766 136.594 32.5766 136.822 32.5766C136.906 32.5766 137.077 32.5786 137.164 32.5786C137.564 32.5786 137.969 32.5846 138.376 32.5826C138.456 32.5806 138.618 32.5745 138.698 32.5726C138.66 33.1056 138.671 33.6407 138.697 34.1758C136.76 34.1532 134.821 34.2522 132.885 34.1854C132.628 34.1765 132.372 34.1398 132.125 34.0635C132.112 34.0594 132.099 34.0553 132.086 34.0511C131.926 34.0006 131.77 33.9314 131.626 33.8464C131.365 33.693 131.136 33.4912 130.973 33.2367C130.955 33.2085 130.937 33.1801 130.919 33.1514C130.693 32.7781 130.6 32.342 130.583 31.9055C130.533 30.5862 130.596 29.2623 130.562 27.9413C130.537 27.4851 130.614 27.031 130.784 26.6103C130.913 26.2909 131.14 26.0239 131.386 25.783C131.391 25.7793 131.395 25.7752 131.401 25.771C131.597 25.6163 131.813 25.4905 132.051 25.4122Z" fill="#FFFEFF"/>
<path id="Vector_22" d="M61.9212 25.2781C62.4583 25.2821 62.9954 25.2821 63.5344 25.2821C63.5264 28.254 63.5364 31.2259 63.5304 34.1959C62.9914 34.1938 62.4543 34.1938 61.9172 34.1938C61.9192 31.2219 61.9092 28.25 61.9212 25.2781Z" fill="#FFFEFD"/>
</g>
<defs>
<clipPath id="clip0_4389_24814">
<rect width="158.367" height="40" fill="white" transform="translate(0.388916)"/>
</clipPath>
</defs>
</svg>
