<svg xmlns="http://www.w3.org/2000/svg" width="32" height="33" viewBox="0 0 25 25" fill="none">
    <path d="M12.4219 0.883301C5.79441 0.883301 0.421875 6.25584 0.421875 12.8833C0.421875 19.5108 5.79441 24.8833 12.4219 24.8833C19.0493 24.8833 24.4219 19.5108 24.4219 12.8833C24.4219 6.25584 19.0492 0.883301 12.4219 0.883301ZM9.22025 18.6848H6.58553V10.1727H9.22025V18.6848ZM7.89034 9.058C7.02986 9.058 6.3323 8.35475 6.3323 7.48739C6.3323 6.61993 7.02996 5.91672 7.89034 5.91672C8.75071 5.91672 9.44828 6.61993 9.44828 7.48739C9.44832 8.3548 8.75076 9.058 7.89034 9.058ZM19.0939 18.6848H16.4719V14.2166C16.4719 12.9912 16.0064 12.3071 15.0374 12.3071C13.9828 12.3071 13.4319 13.0196 13.4319 14.2166V18.6848H10.9049V10.1727H13.4319V11.3191C13.4319 11.3191 14.192 9.91307 15.9969 9.91307C17.8018 9.91307 19.0939 11.0152 19.0939 13.2951L19.0939 18.6848Z" fill="white"/>
</svg>
