<svg width="169" height="32" viewBox="0 0 169 32" fill="none" xmlns="http://www.w3.org/2000/svg">
<g id="Loop Finance" clip-path="url(#clip0_3698_4683)">
<g id="Vector">
<path id="Vector_2" d="M19.9754 10.4918L20.1679 10.6256C20.8023 11.0669 21.3585 11.6123 21.8119 12.2373L29.4455 20.0637L29.4532 20.0744C29.8304 20.5937 30.2826 21.055 30.7939 21.4424C30.9401 21.0326 31.0694 20.6148 31.1811 20.1899C30.8948 18.9262 30.7438 17.6114 30.7438 16.2616C30.7438 14.8961 30.8983 13.5665 31.191 12.2895C31.3527 11.5844 31.5564 10.8954 31.7994 10.2253L28.3119 6.73773L28.3052 6.72926C27.4453 5.6381 26.4411 4.66593 25.3215 3.84154L25.1219 3.69457L25.1598 3.66666C22.6483 1.89127 19.5826 0.848206 16.2727 0.848206C14.7071 0.848206 13.1962 1.08159 11.773 1.51535C5.45534 3.44069 0.859375 9.31464 0.859375 16.2616C0.859375 23.2085 5.45533 29.0825 11.773 31.0078C13.1962 31.4415 14.7071 31.675 16.2727 31.675C19.5831 31.675 22.6492 30.6316 25.1609 28.8558C24.1987 28.1283 23.3225 27.2931 22.5502 26.3682L18.8038 22.6219C18.0082 22.9444 17.1386 23.122 16.2277 23.122C12.4388 23.122 9.36731 20.0505 9.36731 16.2616C9.36731 12.4727 12.4388 9.40113 16.2277 9.40113C17.2276 9.40113 18.1779 9.61516 19.0351 9.99998C19.3605 10.1462 19.6725 10.3169 19.9686 10.5099L19.9754 10.4918Z" fill="white"/>
<path id="Vector_3" fill-rule="evenodd" clip-rule="evenodd" d="M32.0231 10.1476L32.0284 10.1333L32.0431 10.1388C32.0364 10.1417 32.0298 10.1446 32.0231 10.1476ZM34.7131 9.40113C33.8023 9.40113 32.9326 9.57878 32.137 9.90125L28.3906 6.15496C27.6183 5.23004 26.7422 4.39488 25.7799 3.66745C28.2916 1.89158 31.3578 0.848206 34.6681 0.848206C36.2337 0.848206 37.7446 1.08159 39.1679 1.51536C45.4855 3.4407 50.0814 9.31464 50.0814 16.2616C50.0814 23.2085 45.4855 29.0825 39.1679 31.0078C37.7446 31.4415 36.2337 31.675 34.6681 31.675C31.3582 31.675 28.2925 30.6319 25.781 28.8565L25.8189 28.8286L25.6194 28.6816C24.4997 27.8573 23.4956 26.8851 22.6357 25.7939L22.629 25.7854L19.1415 22.298C19.3845 21.6278 19.5882 20.9388 19.7498 20.2337C20.0425 18.9566 20.1971 17.6271 20.1971 16.2616C20.1971 14.9117 20.046 13.5969 19.7598 12.3332C19.8714 11.9083 20.0008 11.4906 20.147 11.0809L20.1528 11.0646C20.6773 11.4586 21.1403 11.93 21.5246 12.4621L21.5325 12.473L29.1665 20.2997C29.5969 20.89 30.1192 21.4088 30.7125 21.8354C30.7976 21.8966 30.8843 21.9559 30.9722 22.0132C31.2684 22.2063 31.5803 22.377 31.9058 22.5231C32.7629 22.908 33.7132 23.122 34.7131 23.122C38.502 23.122 41.5735 20.0505 41.5735 16.2616C41.5735 12.4727 38.502 9.40113 34.7131 9.40113ZM30.7946 21.4424C30.2833 21.055 29.8311 20.5937 29.454 20.0744L29.4462 20.0637L21.8126 12.2373C21.3592 11.6123 20.803 11.0669 20.1687 10.6256L19.9761 10.4918L19.9693 10.5099C20.0573 10.5672 20.144 10.6266 20.2291 10.6878C20.8223 11.1143 21.3447 11.6332 21.7751 12.2234L29.409 20.0502L29.4169 20.0611C29.8013 20.5932 30.2642 21.0647 30.7887 21.4586L30.7946 21.4424ZM18.9185 22.3756C18.9118 22.3785 18.9051 22.3814 18.8984 22.3844L18.9132 22.3898L18.9185 22.3756Z" fill="white"/>
<path id="Vector_4" d="M58.4121 22.7475V9.90326H59.9675V21.3678H65.9381V22.7475H58.4121Z" fill="white"/>
<path id="Vector_5" d="M72.0583 22.9482C71.1888 22.9482 70.4257 22.7413 69.7692 22.3273C69.117 21.9134 68.6069 21.3343 68.239 20.5901C67.8752 19.8458 67.6934 18.9762 67.6934 17.9811C67.6934 16.9776 67.8752 16.1018 68.239 15.3533C68.6069 14.6049 69.117 14.0237 69.7692 13.6098C70.4257 13.1959 71.1888 12.9889 72.0583 12.9889C72.928 12.9889 73.689 13.1959 74.3412 13.6098C74.9977 14.0237 75.5078 14.6049 75.8716 15.3533C76.2395 16.1018 76.4234 16.9776 76.4234 17.9811C76.4234 18.9762 76.2395 19.8458 75.8716 20.5901C75.5078 21.3343 74.9977 21.9134 74.3412 22.3273C73.689 22.7413 72.928 22.9482 72.0583 22.9482ZM72.0583 21.6187C72.719 21.6187 73.2625 21.4493 73.689 21.1107C74.1155 20.772 74.4312 20.3267 74.636 19.7748C74.8409 19.2229 74.9434 18.625 74.9434 17.9811C74.9434 17.3372 74.8409 16.7373 74.636 16.1811C74.4312 15.6251 74.1155 15.1756 73.689 14.8327C73.2625 14.4899 72.719 14.3184 72.0583 14.3184C71.3978 14.3184 70.8542 14.4899 70.4278 14.8327C70.0013 15.1756 69.6856 15.6251 69.4808 16.1811C69.2759 16.7373 69.1734 17.3372 69.1734 17.9811C69.1734 18.625 69.2759 19.2229 69.4808 19.7748C69.6856 20.3267 70.0013 20.772 70.4278 21.1107C70.8542 21.4493 71.3978 21.6187 72.0583 21.6187Z" fill="white"/>
<path id="Vector_6" d="M82.5975 22.9482C81.7278 22.9482 80.9648 22.7413 80.3083 22.3273C79.6561 21.9134 79.146 21.3343 78.7781 20.5901C78.4143 19.8458 78.2324 18.9762 78.2324 17.9811C78.2324 16.9776 78.4143 16.1018 78.7781 15.3533C79.146 14.6049 79.6561 14.0237 80.3083 13.6098C80.9648 13.1959 81.7278 12.9889 82.5975 12.9889C83.4672 12.9889 84.228 13.1959 84.8803 13.6098C85.5367 14.0237 86.0468 14.6049 86.4106 15.3533C86.7785 16.1018 86.9625 16.9776 86.9625 17.9811C86.9625 18.9762 86.7785 19.8458 86.4106 20.5901C86.0468 21.3343 85.5367 21.9134 84.8803 22.3273C84.228 22.7413 83.4672 22.9482 82.5975 22.9482ZM82.5975 21.6187C83.2581 21.6187 83.8016 21.4493 84.228 21.1107C84.6545 20.772 84.9702 20.3267 85.175 19.7748C85.3799 19.2229 85.4824 18.625 85.4824 17.9811C85.4824 17.3372 85.3799 16.7373 85.175 16.1811C84.9702 15.6251 84.6545 15.1756 84.228 14.8327C83.8016 14.4899 83.2581 14.3184 82.5975 14.3184C81.9368 14.3184 81.3933 14.4899 80.9669 14.8327C80.5404 15.1756 80.2246 15.6251 80.0198 16.1811C79.815 16.7373 79.7125 17.3372 79.7125 17.9811C79.7125 18.625 79.815 19.2229 80.0198 19.7748C80.2246 20.3267 80.5404 20.772 80.9669 21.1107C81.3933 21.4493 81.9368 21.6187 82.5975 21.6187Z" fill="white"/>
<path id="Vector_7" d="M89.2207 26.36V13.1143H90.6506V14.6446H90.8262C90.9349 14.4773 91.0855 14.2641 91.2778 14.0049C91.4743 13.7415 91.754 13.5074 92.1179 13.3025C92.4863 13.0934 92.9837 12.9889 93.6109 12.9889C94.4219 12.9889 95.1369 13.1917 95.7558 13.5973C96.3748 14.0028 96.8575 14.5777 97.2041 15.322C97.5515 16.0662 97.7252 16.9442 97.7252 17.956C97.7252 18.9762 97.5515 19.8605 97.2041 20.6089C96.8575 21.3531 96.3766 21.9301 95.7622 22.3398C95.1469 22.7454 94.4383 22.9482 93.6356 22.9482C93.0175 22.9482 92.522 22.8458 92.1499 22.6409C91.7778 22.4319 91.491 22.1957 91.2903 21.9323C91.0896 21.6646 90.9349 21.443 90.8262 21.2675H90.7008V26.36H89.2207ZM90.6757 17.931C90.6757 18.6585 90.7823 19.3002 90.9955 19.8564C91.2088 20.4082 91.5203 20.841 91.9305 21.1546C92.3401 21.464 92.8411 21.6187 93.4354 21.6187C94.0543 21.6187 94.57 21.4556 94.9842 21.1295C95.402 20.7992 95.7156 20.3559 95.925 19.7999C96.138 19.2396 96.245 18.6166 96.245 17.931C96.245 17.2536 96.1407 16.6432 95.9314 16.0997C95.7266 15.5519 95.4148 15.1192 94.997 14.8014C94.5828 14.4795 94.0626 14.3184 93.4354 14.3184C92.8329 14.3184 92.3273 14.4711 91.9177 14.7763C91.5078 15.0774 91.1983 15.4996 90.9893 16.0432C90.7802 16.5826 90.6757 17.2118 90.6757 17.931Z" fill="white"/>
<path id="Vector_8" d="M105.15 22.7475V9.90326H112.851V11.283H106.706V15.6229H112.275V17.0027H106.706V22.7475H105.15Z" fill="white"/>
<path id="Vector_9" d="M115.316 22.7475V13.1143H116.797V22.7475H115.316ZM116.069 11.5088C115.781 11.5088 115.532 11.4106 115.323 11.2141C115.118 11.0175 115.016 10.7813 115.016 10.5053C115.016 10.2294 115.118 9.99314 115.323 9.79666C115.532 9.60018 115.781 9.50189 116.069 9.50189C116.358 9.50189 116.605 9.60018 116.809 9.79666C117.018 9.99314 117.123 10.2294 117.123 10.5053C117.123 10.7813 117.018 11.0175 116.809 11.2141C116.605 11.4106 116.358 11.5088 116.069 11.5088Z" fill="white"/>
<path id="Vector_10" d="M120.986 16.9526V22.7475H119.506V13.1143H120.936V14.6195H121.061C121.287 14.1304 121.63 13.7373 122.09 13.4405C122.55 13.1394 123.144 12.9889 123.871 12.9889C124.523 12.9889 125.094 13.1227 125.583 13.3903C126.072 13.6537 126.453 14.055 126.724 14.5945C126.997 15.1296 127.132 15.807 127.132 16.6265V22.7475H125.652V16.7268C125.652 15.97 125.456 15.3805 125.063 14.9582C124.67 14.5317 124.13 14.3184 123.445 14.3184C122.972 14.3184 122.55 14.4209 122.177 14.6258C121.81 14.8306 121.519 15.1296 121.306 15.5227C121.093 15.9157 120.986 16.3923 120.986 16.9526Z" fill="white"/>
<path id="Vector_11" d="M132.673 22.9733C132.062 22.9733 131.508 22.8583 131.01 22.6284C130.513 22.3942 130.118 22.0577 129.826 21.6187C129.533 21.1755 129.387 20.6403 129.387 20.0131C129.387 19.4612 129.496 19.0139 129.712 18.671C129.93 18.3239 130.221 18.0522 130.584 17.8556C130.948 17.6592 131.35 17.5129 131.789 17.4167C132.232 17.3163 132.677 17.2368 133.124 17.1783C133.709 17.1031 134.184 17.0467 134.548 17.009C134.916 16.9672 135.183 16.8982 135.351 16.802C135.522 16.7059 135.608 16.5386 135.608 16.3003V16.2501C135.608 15.6314 135.438 15.1505 135.1 14.8077C134.765 14.4648 134.257 14.2934 133.576 14.2934C132.869 14.2934 132.315 14.4481 131.914 14.7575C131.512 15.0669 131.23 15.3972 131.067 15.7484L129.662 15.2467C129.913 14.6613 130.248 14.2056 130.666 13.8795C131.088 13.5492 131.548 13.3192 132.045 13.1896C132.547 13.0558 133.04 12.9889 133.526 12.9889C133.835 12.9889 134.19 13.0266 134.592 13.1018C134.998 13.1728 135.388 13.3213 135.765 13.5471C136.145 13.7729 136.461 14.1136 136.712 14.5693C136.962 15.0251 137.088 15.6356 137.088 16.4006V22.7475H135.608V21.443H135.533C135.432 21.6521 135.265 21.8757 135.031 22.1141C134.797 22.3525 134.485 22.5552 134.096 22.7225C133.708 22.8897 133.233 22.9733 132.673 22.9733ZM132.898 21.6437C133.484 21.6437 133.977 21.5288 134.379 21.2988C134.784 21.0688 135.089 20.772 135.294 20.4082C135.503 20.0444 135.608 19.6619 135.608 19.2605V17.9058C135.545 17.9811 135.407 18.0501 135.194 18.1128C134.985 18.1713 134.743 18.2236 134.466 18.2696C134.195 18.3114 133.929 18.3491 133.67 18.3825C133.415 18.4118 133.208 18.4368 133.049 18.4578C132.664 18.5079 132.305 18.5894 131.97 18.7024C131.64 18.8111 131.373 18.9762 131.168 19.1978C130.967 19.4152 130.867 19.7121 130.867 20.0884C130.867 20.6026 131.057 20.9915 131.437 21.2549C131.821 21.5141 132.309 21.6437 132.898 21.6437Z" fill="white"/>
<path id="Vector_12" d="M141.269 16.9526V22.7475H139.789V13.1143H141.219V14.6195H141.344C141.57 14.1304 141.913 13.7373 142.373 13.4405C142.833 13.1394 143.427 12.9889 144.154 12.9889C144.807 12.9889 145.377 13.1227 145.866 13.3903C146.355 13.6537 146.736 14.055 147.007 14.5945C147.28 15.1296 147.415 15.807 147.415 16.6265V22.7475H145.935V16.7268C145.935 15.97 145.738 15.3805 145.346 14.9582C144.953 14.5317 144.414 14.3184 143.728 14.3184C143.255 14.3184 142.833 14.4209 142.461 14.6258C142.093 14.8306 141.802 15.1296 141.589 15.5227C141.375 15.9157 141.269 16.3923 141.269 16.9526Z" fill="white"/>
<path id="Vector_13" d="M154.033 22.9482C153.129 22.9482 152.351 22.735 151.7 22.3086C151.048 21.8821 150.546 21.2946 150.195 20.5462C149.844 19.7978 149.668 18.9427 149.668 17.9811C149.668 17.0027 149.847 16.1393 150.206 15.3909C150.57 14.6384 151.077 14.0509 151.724 13.6286C152.377 13.2021 153.138 12.9889 154.007 12.9889C154.685 12.9889 155.295 13.1143 155.838 13.3652C156.382 13.6161 156.828 13.9673 157.174 14.4188C157.522 14.8704 157.737 15.3972 157.821 15.9993H156.34C156.228 15.5602 155.977 15.1715 155.588 14.8327C155.203 14.4899 154.685 14.3184 154.033 14.3184C153.456 14.3184 152.949 14.469 152.515 14.77C152.084 15.0669 151.748 15.4871 151.505 16.0306C151.267 16.57 151.147 17.2035 151.147 17.931C151.147 18.6752 151.264 19.3232 151.499 19.8751C151.737 20.4271 152.072 20.8556 152.502 21.1608C152.937 21.4661 153.448 21.6187 154.033 21.6187C154.418 21.6187 154.766 21.5517 155.08 21.418C155.393 21.2842 155.659 21.0918 155.877 20.841C156.094 20.5901 156.249 20.2891 156.34 19.9378H157.821C157.737 20.5065 157.53 21.0187 157.2 21.4744C156.873 21.9259 156.441 22.2855 155.902 22.5531C155.367 22.8165 154.743 22.9482 154.033 22.9482Z" fill="white"/>
<path id="Vector_14" d="M164.023 22.9482C163.095 22.9482 162.294 22.7433 161.621 22.3336C160.952 21.9197 160.436 21.3427 160.073 20.6026C159.712 19.8584 159.533 18.9929 159.533 18.0062C159.533 17.0194 159.712 16.1498 160.073 15.3972C160.436 14.6405 160.942 14.0509 161.59 13.6286C162.242 13.2021 163.003 12.9889 163.872 12.9889C164.374 12.9889 164.87 13.0725 165.359 13.2398C165.848 13.407 166.293 13.6788 166.695 14.055C167.096 14.4272 167.416 14.9206 167.655 15.5352C167.893 16.1498 168.012 16.9066 168.012 17.8055V18.4326H160.586V17.1533H166.506C166.506 16.6097 166.399 16.1247 166.181 15.6983C165.968 15.2718 165.663 14.9352 165.265 14.6885C164.872 14.4419 164.408 14.3184 163.872 14.3184C163.284 14.3184 162.773 14.4648 162.343 14.7575C161.916 15.046 161.588 15.4223 161.358 15.8864C161.128 16.3505 161.013 16.848 161.013 17.379V18.232C161.013 18.9595 161.139 19.5762 161.389 20.0821C161.644 20.5839 161.997 20.9664 162.449 21.2298C162.901 21.489 163.425 21.6187 164.023 21.6187C164.412 21.6187 164.764 21.5642 165.077 21.4555C165.395 21.3427 165.669 21.1755 165.898 20.9539C166.129 20.728 166.306 20.4479 166.431 20.1135L167.861 20.5148C167.711 20.9999 167.458 21.4263 167.103 21.7943C166.747 22.158 166.308 22.4423 165.786 22.6472C165.263 22.8479 164.675 22.9482 164.023 22.9482Z" fill="white"/>
</g>
</g>
<defs>
<clipPath id="clip0_3698_4683">
<rect width="168.229" height="32" fill="white" transform="translate(0.160156)"/>
</clipPath>
</defs>
</svg>
