<svg width="102" height="32" viewBox="0 0 102 32" fill="none" xmlns="http://www.w3.org/2000/svg">
<g id="Magic Square" clip-path="url(#clip0_3698_4619)">
<path id="Vector" d="M99.2024 1.06958L42.3445 8.50859C41.5132 8.5094 40.7162 8.83881 40.1287 9.42449C39.5412 10.0101 39.2112 10.8041 39.2112 11.632L38.8252 22.5788C38.8252 24.3026 40.2305 24.681 41.9585 24.681L58.192 22.6178L57.9327 30.1048C57.9327 31.0058 58.5871 31.219 59.3953 31.219L85.7134 27.8914C86.5242 27.8914 87.1756 27.1466 87.1756 26.2307L87.3417 18.9118L98.1257 17.5393C98.9567 17.5362 99.7519 17.2049 100.338 16.6182C100.924 16.0314 101.252 15.2373 101.25 14.41L101.808 3.67638C101.82 1.95252 100.949 1.06958 99.2024 1.06958ZM100.168 14.455C100.166 14.9143 99.9815 15.3543 99.6547 15.6785C99.328 16.0028 98.8858 16.1849 98.4241 16.1848L86.6059 17.7585C86.6092 17.8116 86.6092 17.8647 86.6059 17.9177L86.1988 25.8913C86.1981 26.169 86.0867 26.4352 85.8896 26.6315C85.6925 26.828 85.4252 26.9386 85.1464 26.9394L60.0256 30.1979C59.8875 30.1979 59.7508 30.1708 59.6232 30.1181C59.4957 30.0654 59.3799 29.9881 59.2824 29.8908C59.1849 29.7934 59.1077 29.6779 59.0551 29.5507C59.0026 29.4235 58.9757 29.2873 58.9761 29.1498L59.0816 23.3296C59.0809 23.1914 59.1075 23.0545 59.16 22.9266C59.2126 22.7987 59.2899 22.6825 59.3878 22.5846C59.4856 22.4865 59.6019 22.4088 59.7299 22.3558C59.8581 22.3027 59.9954 22.2754 60.1341 22.2754L78.4457 19.2001L41.6479 23.756C41.1866 23.7552 40.7445 23.5724 40.4183 23.2476C40.0922 22.9228 39.9086 22.4825 39.9079 22.0231L40.2094 11.3106C40.2102 10.8508 40.3942 10.41 40.721 10.0851C41.0478 9.76022 41.4907 9.57777 41.9525 9.57777L99.0816 2.30991C99.3105 2.30951 99.5366 2.35397 99.7472 2.44073C99.9585 2.52749 100.15 2.65484 100.312 2.81552C100.474 2.97619 100.602 3.16702 100.69 3.37709C100.777 3.58717 100.822 3.81236 100.822 4.03978L100.168 14.455Z" fill="white"/>
<path id="Vector_2" d="M45.416 20.7311L46.2108 10.8372L48.147 10.6011L50.7265 15.073L54.1251 9.87205L55.9764 9.6463L55.1816 19.5402L53.1041 19.7935L53.3766 16.4013C53.4228 15.8265 53.475 15.293 53.5333 14.8007C53.5914 14.3085 53.6623 13.8333 53.7457 13.3752L50.9484 17.5372L50.0157 17.6509L47.8925 14.117C47.8954 14.5459 47.8869 14.9994 47.8672 15.4777C47.8474 15.9559 47.8137 16.4919 47.766 17.0856L47.4935 20.4777L45.416 20.7311Z" fill="white"/>
<path id="Vector_3" d="M56.582 19.3696L61.2492 9.00345L63.1429 8.77252L66.2063 18.1959L64.03 18.4613L63.4196 16.4784L59.632 16.9403L58.6737 19.1145L56.582 19.3696ZM61.091 13.5853L60.4054 15.1525L62.921 14.8457L62.4653 13.3757C62.3987 13.16 62.3149 12.8669 62.214 12.4967C62.1226 12.1253 62.0343 11.7721 61.9493 11.4373C61.8177 11.7985 61.6762 12.1657 61.5249 12.5387C61.3737 12.9117 61.2291 13.2606 61.091 13.5853Z" fill="white"/>
<path id="Vector_4" d="M71.8443 17.6483C71.072 17.7425 70.3801 17.7009 69.7698 17.5235C69.1596 17.3366 68.6418 17.0405 68.2178 16.6351C67.7932 16.2297 67.4785 15.7315 67.274 15.1406C67.079 14.5486 67.0106 13.8898 67.069 13.1642C67.1272 12.4387 67.3081 11.7542 67.6116 11.1107C67.9255 10.4566 68.336 9.8747 68.8436 9.36492C69.3614 8.84465 69.9507 8.41823 70.6116 8.08566C71.2725 7.75315 71.9847 7.54031 72.7482 7.44727C73.5393 7.35073 74.2616 7.41662 74.9151 7.64485C75.5692 7.86368 76.0749 8.18919 76.432 8.62152L75.0062 10.1669C74.6674 9.86314 74.2981 9.63752 73.8991 9.49023C73.5009 9.34287 73.0614 9.2985 72.5808 9.35712C71.9962 9.42831 71.4575 9.63403 70.964 9.97413C70.48 10.3037 70.0824 10.7255 69.7705 11.2393C69.4593 11.7437 69.2797 12.2975 69.2311 12.9006C69.1839 13.4942 69.2811 14.0188 69.5248 14.4743C69.7685 14.9204 70.1195 15.2555 70.5772 15.4796C71.0355 15.7037 71.5607 15.7795 72.1548 15.7072C72.5787 15.6554 72.9709 15.5282 73.3328 15.3255C73.6946 15.1134 73.9909 14.8534 74.2211 14.5454C74.4507 14.2375 74.5796 13.9139 74.6066 13.5747L72.063 13.8849L72.2047 12.1181L76.7837 11.5597C76.7897 11.7176 76.7877 11.9185 76.7776 12.1623C76.7769 12.405 76.7708 12.5923 76.76 12.7242C76.6912 13.5817 76.4279 14.3649 75.9695 15.074C75.522 15.7724 74.9387 16.3519 74.2205 16.8128C73.5036 17.2641 72.7117 17.5427 71.8443 17.6483Z" fill="white"/>
<path id="Vector_5" d="M77.9131 16.7684L78.0596 14.9451L79.7128 14.7435L80.215 8.49614L78.5611 8.69776L78.7076 6.8745L84.1344 6.21271L83.9879 8.03604L82.3347 8.23766L81.8325 14.485L83.4864 14.2833L83.3399 16.1066L77.9131 16.7684Z" fill="white"/>
<path id="Vector_6" d="M89.7815 15.461C88.8108 15.5793 87.9663 15.4678 87.2473 15.1262C86.5379 14.7835 85.9971 14.2523 85.6258 13.5325C85.264 12.8115 85.1236 11.9516 85.2033 10.9528C85.262 10.2272 85.4429 9.54271 85.7467 8.89921C86.0505 8.2463 86.4521 7.66553 86.9496 7.15696C87.4485 6.63892 88.0189 6.21479 88.6616 5.88455C89.3036 5.55431 89.9874 5.34495 90.7131 5.25649C91.4199 5.17032 92.0862 5.23365 92.7126 5.44648C93.3499 5.64874 93.8501 5.97958 94.2146 6.43901L92.768 8.07098C92.4662 7.76254 92.13 7.53767 91.7588 7.39629C91.3976 7.24435 90.9912 7.19595 90.5389 7.25114C90.0016 7.31662 89.5014 7.50829 89.0369 7.82614C88.5738 8.13451 88.1917 8.54042 87.89 9.04368C87.5889 9.5376 87.4141 10.0907 87.3648 10.7032C87.3142 11.3346 87.3972 11.8656 87.6146 12.2963C87.8414 12.7258 88.1755 13.0396 88.6163 13.2378C89.0673 13.4347 89.6033 13.4953 90.225 13.4195C90.6773 13.3644 91.1087 13.2231 91.5184 12.9958C91.939 12.758 92.3028 12.471 92.6093 12.135L93.5227 13.6612C93.2662 13.9444 92.9367 14.2132 92.5337 14.4675C92.1314 14.7219 91.6892 14.9391 91.2079 15.119C90.7374 15.2885 90.2621 15.4024 89.7815 15.461Z" fill="white"/>
<path id="Vector_7" d="M62.3636 27.83C62.0053 27.8705 61.6998 27.8375 61.4472 27.7313C61.1947 27.6251 60.9847 27.4524 60.8174 27.2135L61.3647 26.5976C61.5316 26.8405 61.702 27.0022 61.876 27.0826C62.0499 27.163 62.2518 27.1903 62.4816 27.1644C62.6803 27.142 62.8516 27.0803 62.9957 26.9794C63.144 26.8742 63.2246 26.7496 63.2376 26.6058C63.2527 26.4386 63.185 26.3135 63.0345 26.2304C62.8878 26.1469 62.6747 26.0939 62.3953 26.0715C61.5577 25.9966 61.1692 25.6248 61.2296 24.956C61.2503 24.7267 61.3329 24.5172 61.4773 24.3278C61.6258 24.134 61.8138 23.9743 62.041 23.8485C62.2722 23.7224 62.5221 23.6442 62.7909 23.6139C63.1336 23.5753 63.4182 23.6048 63.6446 23.7024C63.8752 23.7957 64.0483 23.9494 64.1639 24.1634L63.6166 24.7158C63.4078 24.3814 63.1125 24.2358 62.7308 24.2788C62.5244 24.3021 62.3529 24.3656 62.2162 24.4696C62.0799 24.5696 62.0051 24.6935 61.9918 24.8413C61.9777 24.9968 62.0329 25.1118 62.1572 25.1863C62.2855 25.2604 62.4776 25.3098 62.7337 25.3349C63.1544 25.3721 63.4785 25.476 63.706 25.6467C63.9374 25.8169 64.039 26.0575 64.0109 26.3685C63.987 26.6329 63.902 26.8696 63.7559 27.0785C63.6137 27.2869 63.4229 27.4566 63.1836 27.5875C62.9447 27.7145 62.6714 27.7954 62.3636 27.83Z" fill="white"/>
<path id="Vector_8" d="M66.4942 27.3644C66.2021 27.3973 65.9361 27.3753 65.6963 27.2984C65.4565 27.2216 65.2516 27.1004 65.0815 26.9348C64.9156 26.7649 64.7936 26.5574 64.7156 26.3122C64.6375 26.067 64.6122 25.7927 64.6396 25.4895C64.667 25.1862 64.7429 24.9006 64.8674 24.6325C64.9918 24.3645 65.1541 24.1269 65.354 23.9196C65.5581 23.708 65.7896 23.5357 66.0484 23.4025C66.3072 23.2694 66.5827 23.1865 66.8748 23.1535C67.1708 23.1201 67.4387 23.1419 67.6782 23.2188C67.9186 23.2957 68.1211 23.419 68.2871 23.5889C68.4532 23.7588 68.5747 23.9663 68.653 24.2115C68.7313 24.4528 68.757 24.7251 68.7293 25.0284C68.6996 25.3589 68.6098 25.6711 68.46 25.9651C68.3141 26.2548 68.1258 26.505 67.8943 26.7158L68.3256 27.3195L67.7154 27.804L67.242 27.1531C67.0045 27.2645 66.7552 27.3349 66.4942 27.3644ZM66.5596 26.6411C66.6492 26.6311 66.7377 26.6115 66.8252 26.5824L66.3472 25.9204L66.9731 25.4573L67.4878 26.1613C67.6195 26.0272 67.7262 25.8708 67.8078 25.6922C67.8895 25.5098 67.9402 25.3175 67.9584 25.1154C67.982 24.851 67.9469 24.6221 67.8524 24.4288C67.7626 24.2311 67.6276 24.0828 67.4475 23.9837C67.2675 23.8847 67.0548 23.8491 66.8094 23.8767C66.564 23.9044 66.3405 23.9892 66.1387 24.1313C65.9373 24.2694 65.7726 24.4497 65.6446 24.6719C65.5168 24.8903 65.4409 25.1336 65.4167 25.4019C65.3924 25.6702 65.4253 25.9031 65.5154 26.1008C65.6059 26.2946 65.7411 26.4409 65.9211 26.54C66.1014 26.6351 66.3142 26.6688 66.5596 26.6411Z" fill="white"/>
<path id="Vector_9" d="M71.0005 26.8332C70.6772 26.8697 70.395 26.8341 70.154 26.7265C69.9137 26.6151 69.7301 26.4472 69.6038 26.2229C69.4823 25.9942 69.4351 25.7262 69.4627 25.419L69.6902 22.8996L70.4558 22.8133L70.233 25.2803C70.2168 25.4591 70.2431 25.6159 70.312 25.7505C70.3849 25.8847 70.4855 25.9869 70.6137 26.0571C70.746 26.1268 70.8966 26.1522 71.064 26.1333C71.2429 26.1132 71.4083 26.0521 71.5602 25.9503C71.7121 25.8485 71.8356 25.7212 71.9301 25.5681C72.0293 25.4145 72.0867 25.2483 72.1029 25.0695L72.3257 22.6025L73.0615 22.5195L72.834 25.039C72.8063 25.3462 72.7071 25.6305 72.537 25.8922C72.3716 26.1495 72.1556 26.3624 71.8896 26.5309C71.6243 26.6955 71.3279 26.7963 71.0005 26.8332Z" fill="white"/>
<path id="Vector_10" d="M73.1748 26.5535L75.1386 22.2912L75.8514 22.2108L77.0658 26.1148L76.2774 26.2037L76.0114 25.3101L74.3751 25.4945L73.9342 26.4678L73.1748 26.5535ZM75.0191 24.0653L74.6802 24.8078L75.8197 24.6794L75.6104 23.9813C75.5956 23.9369 75.5746 23.8661 75.549 23.7689C75.5267 23.6713 75.5017 23.5665 75.4734 23.4542C75.445 23.338 75.4201 23.2331 75.3978 23.1394C75.3377 23.2924 75.2729 23.4556 75.2027 23.629C75.1338 23.7984 75.0724 23.9439 75.0191 24.0653Z" fill="white"/>
<path id="Vector_11" d="M77.71 26.0422L78.0785 21.9597L79.8546 21.7594C80.1003 21.7318 80.317 21.7631 80.5054 21.8535C80.6978 21.9434 80.8456 22.0807 80.9482 22.2654C81.0515 22.4461 81.092 22.661 81.0691 22.9098C81.0461 23.1664 80.9529 23.4078 80.7903 23.634C80.6269 23.8602 80.4257 24.0369 80.1867 24.1638L80.9813 25.6791L80.0814 25.7747L79.376 24.3708L78.5869 24.4596L78.4518 25.9585L77.71 26.0422ZM78.6469 23.8006L79.6865 23.6834C79.8539 23.6645 79.9937 23.591 80.1057 23.4629C80.2212 23.3345 80.2867 23.1847 80.3022 23.0136C80.3191 22.827 80.2684 22.6826 80.151 22.5804C80.0328 22.4744 79.8708 22.433 79.6643 22.4563L78.759 22.5584L78.6469 23.8006Z" fill="white"/>
<path id="Vector_12" d="M81.7832 25.5829L82.1525 21.5004L84.8284 21.1987L84.7663 21.8869L82.8437 22.1036L82.7566 23.0717L84.3808 22.8886L84.3194 23.5651L82.6952 23.7483L82.5993 24.8097L84.5449 24.5904L84.4828 25.2786L81.7832 25.5829Z" fill="white"/>
<path id="Vector_13" d="M17.8035 0.970325C16.4569 -0.323442 14.2728 -0.323442 12.9255 0.970325C11.5782 2.26409 11.5782 4.36073 12.9255 5.65449L22.153 14.5155L24.3225 12.4322C25.8187 10.9961 25.8187 8.66642 24.3225 7.22971L17.8035 0.970325Z" fill="white"/>
<path id="Vector_14" d="M9.44717 4.94843L27.475 22.5316L22.5024 27.3815L4.47461 9.79838L9.44717 4.94843Z" fill="white"/>
<path id="Vector_15" d="M9.45406 17.4845L18.6863 26.1651C20.0322 27.5001 20.0322 29.6644 18.6863 30.9987C17.3411 32.3337 15.1594 32.3337 13.8136 30.9987L7.28699 24.4547C5.79236 22.9721 5.79236 21.1168 7.28699 19.6341L9.45406 17.4845Z" fill="white"/>
<path id="Vector_16" d="M31.2188 13.2065C29.897 11.8728 27.7559 11.8728 26.4347 13.2065C25.1142 14.5408 25.1142 16.7034 26.4347 18.0376L28.8268 20.4536L31.2188 18.0376C32.5393 16.7034 32.5393 14.5408 31.2188 13.2065Z" fill="white"/>
<path id="Vector_17" d="M3.45964 11.5463L5.85112 13.9616C7.17228 15.296 7.17228 17.4586 5.85112 18.7929C4.53058 20.1273 2.3888 20.1273 1.06755 18.7929C-0.252987 17.4586 -0.252987 15.296 1.06755 13.9616L3.45964 11.5463Z" fill="white"/>
</g>
<defs>
<clipPath id="clip0_3698_4619">
<rect width="101.731" height="32" fill="white" transform="translate(0.0771484)"/>
</clipPath>
</defs>
</svg>
