<svg width="128" height="40" viewBox="0 0 128 40" fill="none" xmlns="http://www.w3.org/2000/svg">
<g id="Magic Square" clip-path="url(#clip0_4503_6594)">
<path id="Vector" d="M124.128 1.33691L53.0552 10.6357C52.016 10.6367 51.0198 11.0485 50.2854 11.7806C49.551 12.5126 49.1385 13.5051 49.1385 14.5399L48.656 28.2234C48.656 30.3782 50.4127 30.8512 52.5726 30.8512L72.8645 28.2721L72.5403 37.631C72.5403 38.7572 73.3583 39.0237 74.3686 39.0237L107.266 34.8643C108.28 34.8643 109.094 33.9332 109.094 32.7883L109.302 23.6397L122.782 21.9241C123.82 21.9201 124.814 21.506 125.547 20.7727C126.279 20.0392 126.689 19.0465 126.687 18.0124L127.385 4.59542C127.4 2.44059 126.311 1.33691 124.128 1.33691ZM125.334 18.0687C125.332 18.6428 125.101 19.1928 124.693 19.5981C124.285 20.0034 123.732 20.2311 123.155 20.231L108.382 22.1981C108.386 22.2644 108.386 22.3308 108.382 22.3971L107.873 32.3641C107.872 32.7112 107.733 33.0439 107.487 33.2894C107.24 33.5349 106.906 33.6732 106.557 33.6742L75.1564 37.7474C74.9839 37.7474 74.813 37.7135 74.6535 37.6476C74.4941 37.5816 74.3494 37.4851 74.2275 37.3634C74.1056 37.2417 74.0091 37.0973 73.9434 36.9383C73.8777 36.7794 73.8441 36.6091 73.8446 36.4372L73.9765 29.1619C73.9756 28.9892 74.0088 28.818 74.0745 28.6582C74.1402 28.4984 74.2369 28.3531 74.3592 28.2306C74.4815 28.1081 74.6269 28.011 74.7869 27.9447C74.9471 27.8784 75.1187 27.8442 75.2921 27.8442L98.1817 24L52.1844 29.6949C51.6078 29.694 51.0552 29.4654 50.6474 29.0595C50.2398 28.6534 50.0103 28.1031 50.0093 27.5289L50.3863 14.1382C50.3873 13.5634 50.6172 13.0124 51.0258 12.6064C51.4343 12.2002 51.9879 11.9721 52.5651 11.9721L123.977 2.88733C124.263 2.88683 124.545 2.9424 124.809 3.05085C125.073 3.1593 125.312 3.31849 125.515 3.51933C125.716 3.72017 125.877 3.95871 125.987 4.2213C126.095 4.4839 126.152 4.76538 126.152 5.04966L125.334 18.0687Z" fill="white"/>
<path id="Vector_2" d="M56.8945 25.9138L57.888 13.5464L60.3082 13.2513L63.5326 18.8412L67.7809 12.34L70.0951 12.0579L69.1015 24.4253L66.5047 24.7419L66.8453 20.5016C66.903 19.7832 66.9683 19.1163 67.0411 18.5009C67.1138 17.8856 67.2023 17.2916 67.3066 16.719L63.81 21.9215L62.6441 22.0637L59.9902 17.6463C59.9937 18.1823 59.9832 18.7493 59.9585 19.3471C59.9338 19.9449 59.8916 20.6148 59.8321 21.3569L59.4914 25.5971L56.8945 25.9138Z" fill="white"/>
<path id="Vector_3" d="M70.8513 24.2119L76.6853 11.2542L79.0524 10.9656L82.8817 22.7448L80.1612 23.0766L79.3982 20.5979L74.6638 21.1752L73.4659 23.8931L70.8513 24.2119ZM76.4876 16.9815L75.6305 18.9405L78.775 18.5571L78.2054 16.7196C78.1221 16.4499 78.0174 16.0836 77.8913 15.6208C77.777 15.1565 77.6667 14.7151 77.5604 14.2965C77.3958 14.7481 77.2191 15.2071 77.03 15.6733C76.8409 16.1395 76.6601 16.5757 76.4876 16.9815Z" fill="white"/>
<path id="Vector_4" d="M89.9291 22.0604C88.9638 22.1781 88.0989 22.1261 87.336 21.9043C86.5732 21.6707 85.926 21.3006 85.3961 20.7938C84.8653 20.287 84.4719 19.6643 84.2163 18.9258C83.9726 18.1857 83.8871 17.3622 83.96 16.4553C84.0328 15.5483 84.259 14.6927 84.6383 13.8883C85.0307 13.0707 85.5438 12.3433 86.1783 11.7061C86.8255 11.0558 87.5622 10.5227 88.3883 10.107C89.2144 9.6914 90.1046 9.42535 91.059 9.30904C92.0479 9.18837 92.9508 9.27073 93.7677 9.55602C94.5853 9.82955 95.2173 10.2364 95.6637 10.7769L93.8816 12.7086C93.458 12.3289 92.9964 12.0469 92.4977 11.8627C91.9999 11.6785 91.4505 11.6231 90.8497 11.6964C90.119 11.7853 89.4456 12.0425 88.8288 12.4676C88.2237 12.8795 87.7267 13.4068 87.3369 14.049C86.9479 14.6796 86.7234 15.3718 86.6627 16.1257C86.6036 16.8677 86.7251 17.5234 87.0297 18.0928C87.3344 18.6505 87.7731 19.0693 88.3452 19.3495C88.9182 19.6295 89.5747 19.7243 90.3173 19.6339C90.8472 19.5692 91.3375 19.4102 91.7897 19.1569C92.242 18.8917 92.6125 18.5667 92.9002 18.1817C93.1871 17.7968 93.3483 17.3923 93.382 16.9683L90.2025 17.356L90.3797 15.1475L96.1034 14.4496C96.111 14.6469 96.1084 14.898 96.0958 15.2028C96.0949 15.5062 96.0873 15.7404 96.0738 15.9053C95.9878 16.9771 95.6587 17.9561 95.0857 18.8424C94.5263 19.7154 93.7972 20.4399 92.8994 21.0159C92.0032 21.5801 91.0134 21.9283 89.9291 22.0604Z" fill="white"/>
<path id="Vector_5" d="M97.5151 20.9605L97.6982 18.6813L99.7648 18.4293L100.393 10.6202L98.3252 10.8722L98.5083 8.5931L105.292 7.76587L105.109 10.045L103.042 10.2971L102.414 18.1062L104.482 17.8541L104.299 20.1333L97.5151 20.9605Z" fill="white"/>
<path id="Vector_6" d="M112.351 19.3263C111.138 19.4742 110.082 19.3347 109.183 18.9078C108.297 18.4794 107.621 17.8154 107.157 16.9156C106.704 16.0144 106.529 14.9395 106.628 13.691C106.702 12.784 106.928 11.9284 107.308 11.124C107.687 10.3079 108.189 9.58191 108.811 8.9462C109.435 8.29865 110.148 7.76849 110.951 7.35569C111.754 6.94289 112.609 6.68119 113.516 6.57061C114.399 6.4629 115.232 6.54207 116.015 6.8081C116.812 7.06092 117.437 7.47448 117.893 8.04876L116.084 10.0887C115.707 9.70317 115.287 9.42208 114.823 9.24536C114.371 9.05544 113.863 8.99494 113.298 9.06393C112.626 9.14578 112.001 9.38536 111.42 9.78267C110.842 10.1681 110.364 10.6755 109.987 11.3046C109.61 11.922 109.392 12.6134 109.33 13.3791C109.267 14.1682 109.371 14.832 109.642 15.3703C109.926 15.9073 110.344 16.2996 110.895 16.5472C111.458 16.7934 112.128 16.8691 112.906 16.7744C113.471 16.7054 114.01 16.5289 114.522 16.2448C115.048 15.9475 115.503 15.5888 115.886 15.1688L117.028 17.0765C116.707 17.4305 116.295 17.7665 115.791 18.0844C115.288 18.4024 114.736 18.6739 114.134 18.8988C113.546 19.1106 112.952 19.253 112.351 19.3263Z" fill="white"/>
<path id="Vector_7" d="M78.0788 34.7875C77.6309 34.8381 77.249 34.7969 76.9333 34.6641C76.6176 34.5313 76.3552 34.3155 76.146 34.0169L76.8301 33.247C77.0388 33.5506 77.2518 33.7527 77.4693 33.8533C77.6866 33.9538 77.939 33.9879 78.2263 33.9555C78.4746 33.9275 78.6888 33.8504 78.8688 33.7243C79.0542 33.5928 79.1551 33.437 79.1713 33.2572C79.1902 33.0482 79.1055 32.8918 78.9174 32.788C78.734 32.6836 78.4677 32.6174 78.1184 32.5894C77.0714 32.4958 76.5857 32.031 76.6612 31.195C76.6871 30.9083 76.7903 30.6465 76.9708 30.4097C77.1566 30.1675 77.3915 29.9678 77.6755 29.8107C77.9645 29.653 78.2769 29.5553 78.6129 29.5174C79.0413 29.4691 79.3971 29.506 79.68 29.628C79.9683 29.7446 80.1846 29.9367 80.3292 30.2043L79.6451 30.8948C79.384 30.4768 79.0149 30.2947 78.5378 30.3485C78.2798 30.3775 78.0654 30.457 77.8946 30.587C77.7242 30.712 77.6307 30.8669 77.614 31.0516C77.5964 31.246 77.6654 31.3897 77.8208 31.4828C77.9811 31.5754 78.2213 31.6373 78.5414 31.6686C79.0673 31.7151 79.4724 31.845 79.7568 32.0583C80.046 32.2711 80.1731 32.5718 80.1379 32.9607C80.108 33.2912 80.0018 33.587 79.8192 33.8481C79.6414 34.1086 79.4029 34.3207 79.1038 34.4844C78.8051 34.6431 78.4635 34.7442 78.0788 34.7875Z" fill="white"/>
<path id="Vector_8" d="M83.242 34.2055C82.8767 34.2466 82.5443 34.2192 82.2446 34.123C81.9448 34.027 81.6886 33.8755 81.476 33.6685C81.2687 33.4561 81.1162 33.1967 81.0187 32.8903C80.921 32.5838 80.8894 32.2409 80.9236 31.8619C80.9579 31.4828 81.0527 31.1257 81.2083 30.7907C81.3639 30.4556 81.5667 30.1586 81.8167 29.8995C82.0718 29.635 82.3612 29.4196 82.6847 29.2532C83.0081 29.0868 83.3525 28.9831 83.7176 28.9419C84.0876 28.9002 84.4225 28.9274 84.7219 29.0235C85.0223 29.1196 85.2755 29.2738 85.4831 29.4861C85.6906 29.6985 85.8425 29.9579 85.9404 30.2644C86.0383 30.5661 86.0704 30.9064 86.0358 31.2855C85.9986 31.6986 85.8864 32.0889 85.6991 32.4564C85.5168 32.8185 85.2814 33.1313 84.992 33.3948L85.5312 34.1494L84.7683 34.755L84.1767 33.9414C83.8797 34.0806 83.5682 34.1687 83.242 34.2055ZM83.3236 33.3014C83.4356 33.2888 83.5462 33.2644 83.6556 33.228L83.0581 32.4005L83.8405 31.8217L84.4839 32.7016C84.6485 32.534 84.7819 32.3385 84.884 32.1153C84.9861 31.8873 85.0493 31.6469 85.0721 31.3942C85.1017 31.0637 85.0578 30.7777 84.9396 30.536C84.8274 30.2889 84.6587 30.1035 84.4335 29.9797C84.2086 29.8559 83.9427 29.8114 83.6359 29.8459C83.3292 29.8805 83.0497 29.9866 82.7975 30.1641C82.5458 30.3368 82.3399 30.5621 82.1798 30.8399C82.0202 31.1129 81.9253 31.417 81.895 31.7524C81.8647 32.0877 81.9058 32.3789 82.0184 32.626C82.1315 32.8682 82.3005 33.0512 82.5255 33.175C82.7509 33.2939 83.0169 33.3361 83.3236 33.3014Z" fill="white"/>
<path id="Vector_9" d="M88.8752 33.5415C88.471 33.587 88.1183 33.5426 87.817 33.4081C87.5166 33.2689 87.2871 33.059 87.1293 32.7785C86.9774 32.4927 86.9184 32.1577 86.9529 31.7737L87.2373 28.6244L88.1942 28.5165L87.9158 31.6003C87.8955 31.8238 87.9284 32.0198 88.0145 32.1881C88.1056 32.3558 88.2313 32.4836 88.3917 32.5713C88.5571 32.6585 88.7452 32.6902 88.9545 32.6666C89.1781 32.6414 89.3849 32.5651 89.5747 32.4379C89.7646 32.3106 89.919 32.1514 90.0371 31.9601C90.1612 31.7681 90.2329 31.5604 90.2531 31.3369L90.5316 28.2531L91.4514 28.1493L91.167 31.2987C91.1324 31.6827 91.0084 32.0381 90.7957 32.3652C90.589 32.6869 90.319 32.953 89.9865 33.1636C89.6549 33.3694 89.2844 33.4953 88.8752 33.5415Z" fill="white"/>
<path id="Vector_10" d="M91.5923 33.1918L94.047 27.8639L94.938 27.7634L96.4561 32.6434L95.4705 32.7546L95.138 31.6376L93.0926 31.8681L92.5416 33.0848L91.5923 33.1918ZM93.8976 30.0817L93.474 31.0097L94.8984 30.8492L94.6368 29.9766C94.6182 29.9211 94.5921 29.8326 94.56 29.7112C94.5322 29.5891 94.5009 29.458 94.4655 29.3177C94.4301 29.1725 94.3988 29.0414 94.371 28.9243C94.2959 29.1155 94.2149 29.3195 94.1271 29.5362C94.0411 29.748 93.9643 29.9298 93.8976 30.0817Z" fill="white"/>
<path id="Vector_11" d="M97.262 32.5527L97.7227 27.4496L99.9428 27.1993C100.25 27.1647 100.521 27.2039 100.756 27.3168C100.997 27.4293 101.182 27.6009 101.31 27.8317C101.439 28.0577 101.49 28.3262 101.461 28.6373C101.432 28.958 101.316 29.2598 101.112 29.5425C100.908 29.8253 100.657 30.0461 100.358 30.2048L101.351 32.0989L100.226 32.2184L99.3445 30.4635L98.3581 30.5746L98.1893 32.4482L97.262 32.5527ZM98.4332 29.7508L99.7327 29.6042C99.9419 29.5806 100.117 29.4888 100.257 29.3287C100.401 29.1681 100.483 28.9809 100.502 28.767C100.523 28.5337 100.46 28.3532 100.313 28.2256C100.166 28.093 99.963 28.0413 99.7048 28.0704L98.5733 28.198L98.4332 29.7508Z" fill="white"/>
<path id="Vector_12" d="M102.354 31.9785L102.815 26.8754L106.16 26.4983L106.082 27.3585L103.679 27.6295L103.57 28.8396L105.601 28.6107L105.524 29.4564L103.494 29.6853L103.374 31.0121L105.806 30.738L105.728 31.5982L102.354 31.9785Z" fill="white"/>
<path id="Vector_13" d="M22.379 1.21291C20.6957 -0.404302 17.9656 -0.404302 16.2814 1.21291C14.5974 2.83011 14.5974 5.45092 16.2814 7.06812L27.8159 18.1444L30.5278 15.5402C32.398 13.7451 32.398 10.833 30.5278 9.03714L22.379 1.21291Z" fill="white"/>
<path id="Vector_14" d="M11.9325 6.18555L34.4672 28.1645L28.2515 34.2269L5.7168 12.248L11.9325 6.18555Z" fill="white"/>
<path id="Vector_15" d="M11.9414 21.8556L23.4817 32.7063C25.164 34.3751 25.164 37.0805 23.4817 38.7484C21.8002 40.4171 19.073 40.4171 17.3908 38.7484L9.23251 30.5684C7.36423 28.7151 7.36423 26.3959 9.23251 24.5427L11.9414 21.8556Z" fill="white"/>
<path id="Vector_16" d="M39.1481 16.5082C37.4959 14.841 34.8195 14.841 33.168 16.5082C31.5174 18.1761 31.5174 20.8793 33.168 22.5471L36.1581 25.5671L39.1481 22.5471C40.7988 20.8793 40.7988 18.1761 39.1481 16.5082Z" fill="white"/>
<path id="Vector_17" d="M4.4487 14.4329L7.43805 17.452C9.0895 19.1201 9.0895 21.8233 7.43805 23.4912C5.78737 25.1592 3.11014 25.1592 1.45859 23.4912C-0.192088 21.8233 -0.192088 19.1201 1.45859 17.452L4.4487 14.4329Z" fill="white"/>
</g>
<defs>
<clipPath id="clip0_4503_6594">
<rect width="127.164" height="40" fill="white" transform="translate(0.220581)"/>
</clipPath>
</defs>
</svg>
