<svg width="24" height="24" viewBox="0 0 24 24" fill="none" xmlns="http://www.w3.org/2000/svg">
<g id="Medium" clip-path="url(#clip0_3491_3920)">
<g id="Union">
<path d="M6.76884 18.6547C10.5069 18.6547 13.5374 15.5979 13.5374 11.8272C13.5374 8.0565 10.5072 4.99951 6.76884 4.99951C3.0305 4.99951 0 8.05719 0 11.8272C0 15.5972 3.03073 18.6547 6.76884 18.6547Z" fill="white"/>
<path d="M20.9632 11.8272C20.9632 15.3765 19.4479 18.2549 17.5788 18.2549C15.7096 18.2549 14.1943 15.3765 14.1943 11.8272C14.1943 8.27785 15.7094 5.39941 17.5785 5.39941C19.4477 5.39941 20.9632 8.27693 20.9632 11.8272Z" fill="white"/>
<path d="M24 11.8275C24 15.0068 23.4672 17.5857 22.8097 17.5857C22.1522 17.5857 21.6196 15.0075 21.6196 11.8275C21.6196 8.64746 22.1525 6.06921 22.8097 6.06921C23.467 6.06921 24 8.64723 24 11.8275Z" fill="white"/>
</g>
</g>
<defs>
<clipPath id="clip0_3491_3920">
<rect width="24" height="24" fill="white"/>
</clipPath>
</defs>
</svg>
