<svg width="122" height="29" viewBox="0 0 122 29" fill="none" xmlns="http://www.w3.org/2000/svg">
<g opacity="0.4">
<path d="M36.6528 8.8232H42.3152V27.3204H36.6528V8.8232ZM18.6306 0.238263H23.9398V27.3204H18.6306V0.238263ZM0.255142 0.238263H5.91755V27.3204H0.255142V0.238263ZM9.44894 0.238263H15.0992V18.7598H9.44894V0.238263ZM36.6528 0.238263H51.4969V5.6693H36.6528V0.238263ZM27.4712 0.238263H33.1214V5.6693H27.4712V0.238263ZM106.306 22.5835L104.748 27.503C104.638 27.8075 104.541 28.0754 104.322 28.3311C104.017 28.6721 103.725 28.6964 103.384 28.6964H102.434V27.637H102.897C103.104 27.637 103.445 27.637 103.445 27.3082C103.445 27.1864 103.408 27.0768 103.384 26.9794L102.057 22.5835H103.445L104.175 25.8469L104.906 22.5835H106.306ZM100.242 26.5289C99.9865 26.6994 99.6699 26.9185 99.0732 26.9185C98.7079 26.9185 98.3426 26.8211 98.0625 26.6141C97.4658 26.2244 97.2345 25.5182 97.2345 24.7266C97.2345 23.8133 97.6485 22.4982 99.1219 22.4982C99.8039 22.4982 100.108 22.8026 100.315 22.9975V22.5713H101.533V26.9429C101.521 27.4422 101.496 28.0267 100.851 28.4163C100.401 28.6964 99.743 28.7573 99.3411 28.7573C98.4522 28.7573 97.8799 28.4529 97.6363 28.1971C97.2954 27.8318 97.2954 27.3813 97.2954 27.1256H98.647C98.6714 27.3326 98.6836 27.6248 99.0367 27.7831C99.1219 27.8318 99.2437 27.8684 99.4507 27.8684C100.242 27.8684 100.242 27.3934 100.242 27.016V26.5289ZM98.5861 24.7266C98.5861 25.1041 98.6105 25.8957 99.4142 25.8957C100.084 25.8957 100.23 25.372 100.23 24.7266C100.23 24.5075 100.218 24.0569 100.072 23.8377C99.9743 23.6672 99.7308 23.4846 99.3533 23.4967C98.7323 23.5333 98.5861 24.0812 98.5861 24.7266ZM97.0031 24.8728C97.0031 26.0296 96.3577 27.2839 94.6164 27.2839C93.3743 27.2839 92.2296 26.5532 92.2296 24.8728C92.2296 23.4724 93.0942 22.3643 94.7868 22.4617C96.6012 22.5713 97.0031 24.0447 97.0031 24.8728ZM93.7761 23.9717C93.6057 24.2396 93.557 24.544 93.557 24.8606C93.557 25.5912 93.8857 26.2244 94.6164 26.2244C95.3226 26.2244 95.6758 25.6399 95.6758 24.9215C95.6758 24.4222 95.554 24.0204 95.3105 23.7768C95.0426 23.5211 94.7381 23.5089 94.5433 23.5333C94.1658 23.5576 93.9466 23.6916 93.7761 23.9717ZM91.3285 27.1621H89.7089V21.0126H91.3285V27.1621ZM88.9053 24.8728C88.9053 26.0296 88.2599 27.2839 86.5185 27.2839C85.2765 27.2839 84.1318 26.5532 84.1318 24.8728C84.1318 23.4724 84.9964 22.3643 86.689 22.4617C88.5034 22.5713 88.9053 24.0447 88.9053 24.8728ZM85.6783 23.9717C85.5078 24.2396 85.4591 24.544 85.4591 24.8606C85.4591 25.5912 85.7879 26.2244 86.5185 26.2244C87.2248 26.2244 87.5779 25.6399 87.5779 24.9215C87.5779 24.4222 87.4562 24.0204 87.2126 23.7768C86.9447 23.5211 86.6403 23.5089 86.4455 23.5333C86.068 23.5576 85.8488 23.6916 85.6783 23.9717ZM80.8074 22.9975C80.9414 22.8635 81.0144 22.7539 81.2458 22.6443C81.4528 22.5469 81.745 22.4739 82.0617 22.4739C82.3174 22.4739 82.6218 22.5226 82.8532 22.6565C83.3159 22.9122 83.4377 23.3263 83.4377 24.0325V27.1377H82.1347V24.5805C82.1347 24.1665 82.1226 24.0204 82.0738 23.8986C81.9764 23.655 81.745 23.5455 81.4893 23.5455C80.7952 23.5455 80.7952 24.1178 80.7952 24.6779V27.1377H79.4923V22.5956H80.8074V22.9975ZM75.5347 20.9639V23.0584C75.7173 22.8635 76.107 22.4617 76.8133 22.4617C77.1299 22.4617 77.4952 22.5469 77.7509 22.7783C78.1406 23.1192 78.2137 23.5455 78.2137 24.1421V27.1377H76.9107V24.751C76.9107 24.3857 76.8985 24.2152 76.8498 24.0569C76.728 23.6429 76.3749 23.5942 76.241 23.5942C76.0096 23.5942 75.8148 23.7159 75.7052 23.8621C75.5347 24.0934 75.5347 24.4709 75.5347 24.8606V27.1377H74.2317V20.9639H75.5347ZM73.9151 26.0783C73.7568 26.334 73.5741 26.6263 73.221 26.8942C72.88 27.1377 72.4417 27.296 71.9424 27.296C71.09 27.296 69.7383 26.7724 69.7383 24.9215C69.7383 23.5942 70.4933 22.4739 71.9668 22.4739C72.466 22.4739 73.3062 22.62 73.8664 23.5698L72.8922 24.13C72.8192 23.9717 72.7339 23.8133 72.5147 23.655C72.393 23.5698 72.2346 23.4967 72.0276 23.4967C71.3214 23.4967 71.0778 24.3248 71.0778 24.8728C71.0778 25.4816 71.3701 26.2366 72.0642 26.2366C72.1372 26.2366 72.466 26.2366 72.7339 25.92C72.8435 25.7861 72.8922 25.6886 72.9287 25.5547L73.9151 26.0783ZM69.4704 25.9931C69.3121 26.2244 69.166 26.4558 68.9346 26.675C68.5571 27.0403 67.9726 27.3204 67.2542 27.3204C65.939 27.3204 65.0136 26.4558 65.0136 24.958C65.0136 23.8621 65.5372 22.4495 67.2907 22.4495C67.5586 22.4495 68.3258 22.4739 68.8859 23.1071C69.4704 23.7403 69.507 24.6292 69.5191 25.1407H66.3531C66.3409 25.713 66.6575 26.2853 67.3638 26.2853C68.07 26.2853 68.3258 25.7982 68.4841 25.4816L69.4704 25.9931ZM68.1675 24.3126C68.1431 24.1178 68.1066 23.8621 67.9239 23.6672C67.7656 23.4967 67.5099 23.4115 67.2907 23.4115C66.9741 23.4115 66.7549 23.5698 66.621 23.7038C66.4383 23.9108 66.4018 24.1178 66.3531 24.3126H68.1675ZM60.5567 20.9639H65.184V22.1816H63.6254V27.1377H62.1276V22.1816H60.5567V20.9639ZM103.883 11.6605C103.883 11.4291 103.895 11.1247 104.066 10.8811C104.236 10.662 104.602 10.4184 105.211 10.4184C105.478 10.4184 105.734 10.4671 105.99 10.5037V11.5022H105.673C105.186 11.5022 105.162 11.6118 105.162 12.2206H106.039V13.0365H105.174V16.6653H103.871V13.0365H103.177V12.2206H103.883V11.6605ZM102.666 14.4004C102.666 15.5572 102.02 16.8115 100.291 16.8115C99.0367 16.8115 97.892 16.0808 97.892 14.4004C97.892 13 98.7566 11.8919 100.449 11.9893C102.264 12.0989 102.666 13.5723 102.666 14.4004ZM99.4385 13.4992C99.2681 13.7671 99.2194 14.0716 99.2194 14.3882C99.2194 15.1188 99.5481 15.752 100.291 15.752C100.985 15.752 101.338 15.1675 101.338 14.4491C101.338 13.9498 101.216 13.548 100.973 13.3044C100.705 13.0487 100.401 13.0365 100.206 13.0609C99.8282 13.0852 99.609 13.207 99.4385 13.4992ZM95.3835 15.5207C95.2252 15.752 95.0791 15.9834 94.8477 16.2026C94.4702 16.5679 93.8857 16.848 93.1673 16.848C91.8521 16.848 90.9267 15.9834 90.9267 14.4856C90.9267 13.3897 91.4503 11.9771 93.2038 11.9771C93.4717 11.9771 94.2389 12.0015 94.8112 12.6347C95.3835 13.2679 95.4201 14.1568 95.4322 14.6683H92.2662C92.254 15.2406 92.5706 15.8129 93.2769 15.8129C93.9832 15.8129 94.2389 15.3258 94.3972 15.0092L95.3835 15.5207ZM94.0806 13.8402C94.0562 13.6454 94.0197 13.3897 93.837 13.1948C93.6787 13.0243 93.423 12.9391 93.2038 12.9391C92.8872 12.9391 92.668 13.0974 92.5341 13.2313C92.3514 13.4384 92.3149 13.6454 92.2662 13.8402H94.0806ZM88.0894 10.8324H89.3923V12.2572H90.2448V13.073H89.3802V15.1188C89.368 15.4111 89.368 15.6424 89.7211 15.6424H90.196V16.6897C89.9038 16.7262 89.7333 16.7384 89.5019 16.7384C89.0514 16.7384 88.5521 16.7019 88.272 16.3C88.1016 16.0199 88.0894 15.7033 88.0894 15.2649V13.0609H87.444V12.245H88.0894V10.8324ZM85.6661 12.1232H86.9813V16.6775H85.6661V16.2391C85.5443 16.3853 85.4591 16.4827 85.2277 16.5923C84.9598 16.7384 84.6676 16.8115 84.3875 16.8115C84.0953 16.8115 83.5595 16.7627 83.255 16.3244C83.0237 15.9956 82.975 15.7277 82.975 14.9849V12.1232H84.3023V14.9483C84.3023 15.1553 84.3023 15.3502 84.3997 15.4963C84.4727 15.5937 84.6554 15.7155 84.9233 15.7155C84.9964 15.7155 85.179 15.7155 85.3739 15.6059C85.6539 15.4354 85.6539 15.2041 85.6661 14.9605V12.1232ZM79.9915 10.8324H81.2945V12.2572H82.1469V13.073H81.2823V15.1188C81.2701 15.4111 81.2701 15.6424 81.6233 15.6424H82.086V16.6897C81.8059 16.7262 81.6355 16.7384 81.4041 16.7384C80.9535 16.7384 80.4543 16.7019 80.1742 16.3C80.0037 16.0199 79.9915 15.7033 79.9915 15.2649V13.0609H79.3461V12.245H79.9915V10.8324ZM77.5683 10.4915H78.7738V11.5387H77.5683V10.4915ZM77.5683 12.1232H78.7738V16.6897H77.5683V12.1232ZM74.731 10.8324H76.0339V12.2572H76.8863V13.073H76.0218V15.1188C76.0096 15.4111 76.0096 15.6424 76.3627 15.6424H76.8255V16.6897C76.5454 16.7262 76.3749 16.7384 76.1435 16.7384C75.693 16.7384 75.1937 16.7019 74.9136 16.3C74.7432 16.0199 74.731 15.7033 74.731 15.2649V13.0609H74.0856V12.245H74.731V10.8324ZM70.2741 15.1553C70.6273 15.5085 71.0778 15.7886 71.5649 15.7886C71.8815 15.7886 72.3564 15.679 72.3564 15.338C72.3564 15.1797 72.259 15.1188 72.1859 15.0823C71.9911 14.9727 71.6867 14.9483 71.431 14.8996C71.2361 14.8631 71.0291 14.8266 70.8343 14.7657C70.5664 14.6804 70.2863 14.5708 70.0915 14.376C69.8966 14.169 69.7627 13.8524 69.7627 13.5114C69.7627 12.7686 70.3959 11.9893 71.638 11.9893C72.6852 11.9893 73.3062 12.452 73.6107 12.6712L72.807 13.4384C72.393 13.1096 72.0033 12.9878 71.6989 12.9878C71.1874 12.9878 71.0656 13.1948 71.0656 13.3288C71.0656 13.5845 71.3457 13.6332 71.7719 13.7184C72.6609 13.8767 73.6959 14.1203 73.6959 15.2041C73.6959 16.2757 72.6487 16.7993 71.6014 16.7993C70.3715 16.7993 69.7261 16.1904 69.4461 15.9225L70.2741 15.1553ZM66.2313 12.5372C66.3531 12.4033 66.4383 12.2937 66.6697 12.1841C66.8767 12.0867 67.1689 12.0136 67.4855 12.0136C67.7413 12.0136 68.0457 12.0623 68.2771 12.1963C68.7398 12.452 68.8616 12.866 68.8616 13.5723V16.6775H67.5586V14.1203C67.5586 13.7063 67.5464 13.5601 67.4977 13.4384C67.4003 13.1948 67.1689 13.0852 66.9132 13.0852C66.2191 13.0852 66.2191 13.6576 66.2191 14.2177V16.6775H64.9161V12.1354H66.2313V12.5372ZM63.7958 16.6897H62.1763V10.5402H63.7958V16.6897ZM118.459 4.68295C118.812 5.03609 119.263 5.31616 119.714 5.31616C120.079 5.31616 120.566 5.20657 120.566 4.8656C120.566 4.7073 120.444 4.64641 120.322 4.60988C120.201 4.50029 119.835 4.47593 119.592 4.42722C119.47 4.39069 119.214 4.35416 119.02 4.29327C118.752 4.20803 118.472 4.09844 118.277 3.89143C118.082 3.69659 117.948 3.37998 117.948 3.03902C117.948 2.29621 118.581 1.51687 119.835 1.51687C120.81 1.51687 121.54 1.9796 121.784 2.19879L120.931 2.96596C120.566 2.63717 120.201 2.5154 119.835 2.5154C119.348 2.5154 119.251 2.72241 119.251 2.85636C119.251 3.11209 119.47 3.16079 119.957 3.24603C120.81 3.40434 121.906 3.64788 121.906 4.73165C121.906 5.80325 120.81 6.32687 119.835 6.32687C118.557 6.32687 117.911 5.71801 117.631 5.45011L118.459 4.68295ZM115.22 0.360035H116.523V1.78477H117.376V2.60064H116.511V4.64641C116.499 4.92649 116.499 5.17003 116.852 5.17003H117.315V6.21728C117.035 6.25381 116.864 6.29034 116.633 6.29034C116.182 6.29034 115.683 6.24163 115.403 5.83978C115.232 5.54753 115.22 5.23092 115.22 4.79254V2.58846H114.575V1.77259H115.22V0.360035ZM112.785 0.360035H114.088V1.78477H114.94V2.60064H114.076V4.64641C114.076 4.92649 114.076 5.17003 114.417 5.17003H114.891V6.21728C114.599 6.25381 114.429 6.29034 114.197 6.29034C113.747 6.29034 113.247 6.24163 112.967 5.83978C112.797 5.54753 112.785 5.23092 112.785 4.79254V2.58846H112.139V1.77259H112.785V0.360035ZM111.579 5.04826C111.421 5.27963 111.275 5.511 111.043 5.73019C110.666 6.0955 110.081 6.37558 109.363 6.37558C108.048 6.37558 107.122 5.511 107.122 4.0132C107.122 2.91725 107.646 1.50469 109.4 1.50469C109.667 1.50469 110.435 1.52905 110.995 2.16226C111.579 2.79548 111.616 3.68441 111.628 4.19586H108.462C108.45 4.76819 108.766 5.34052 109.473 5.34052C110.179 5.34052 110.435 4.85343 110.593 4.53682L111.579 5.04826ZM110.276 3.36781C110.252 3.17297 110.215 2.91725 110.033 2.72241C109.874 2.55193 109.619 2.46669 109.4 2.46669C109.083 2.46669 108.864 2.625 108.73 2.75895C108.547 2.96596 108.511 3.17297 108.462 3.36781H110.276ZM103.481 4.68295C103.835 5.03609 104.285 5.31616 104.772 5.31616C105.089 5.31616 105.564 5.20657 105.564 4.8656C105.564 4.7073 105.466 4.64641 105.393 4.60988C105.198 4.50029 104.894 4.47593 104.638 4.42722C104.443 4.39069 104.236 4.35416 104.042 4.29327C103.774 4.20803 103.494 4.09844 103.299 3.89143C103.104 3.69659 102.97 3.37998 102.97 3.03902C102.97 2.29621 103.603 1.51687 104.845 1.51687C105.892 1.51687 106.514 1.9796 106.818 2.19879L106.014 2.96596C105.6 2.63717 105.211 2.5154 104.906 2.5154C104.395 2.5154 104.273 2.72241 104.273 2.85636C104.273 3.11209 104.553 3.16079 104.979 3.24603C105.868 3.40434 106.903 3.64788 106.903 4.73165C106.903 5.80325 105.856 6.32687 104.809 6.32687C103.579 6.32687 102.933 5.71801 102.653 5.45011L103.481 4.68295ZM100.644 1.65082H101.959V6.2051H100.644V5.76672C100.522 5.91284 100.437 6.01026 100.206 6.11986C99.9378 6.26598 99.6456 6.33905 99.3655 6.33905C99.0732 6.33905 98.5374 6.29034 98.233 5.85196C98.0016 5.52317 97.9529 5.25527 97.9529 4.51246V1.65082H99.2802V4.47593C99.2802 4.68295 99.2802 4.87778 99.3777 5.02391C99.4507 5.12133 99.6334 5.2431 99.9013 5.2431C99.9743 5.2431 100.157 5.2431 100.352 5.1335C100.632 4.96302 100.632 4.73165 100.644 4.48811V1.65082ZM94.1658 0.03125V2.12573C94.3485 1.9309 94.7381 1.51687 95.4444 1.51687C95.761 1.51687 96.1263 1.61429 96.3821 1.84566C96.7717 2.18662 96.8448 2.61282 96.8448 3.2095V6.2051H95.5418V3.81836C95.5418 3.45305 95.5297 3.28257 95.4809 3.12426C95.3592 2.71024 95.006 2.66153 94.8721 2.66153C94.6407 2.66153 94.4459 2.7833 94.3363 2.92943C94.1658 3.16079 94.1658 3.53829 94.1658 3.92796V6.2051H92.8628V0.03125H94.1658ZM92.5462 5.1335C92.3879 5.38922 92.2053 5.68148 91.8521 5.94938C91.5112 6.19292 91.0728 6.35122 90.5735 6.35122C89.7211 6.35122 88.3695 5.8276 88.3695 3.97667C88.3695 2.64935 89.1245 1.52905 90.5979 1.52905C91.0972 1.52905 91.9374 1.67517 92.4975 2.625L91.5234 3.18515C91.4503 3.02684 91.3651 2.86854 91.158 2.71024C91.0241 2.625 90.8658 2.55193 90.6588 2.55193C89.9525 2.55193 89.7211 3.37998 89.7211 3.92796C89.7211 4.53682 90.0012 5.29181 90.7075 5.29181C90.7684 5.29181 91.0972 5.29181 91.3651 4.9752C91.4746 4.84125 91.5234 4.74383 91.5599 4.60988L92.5462 5.1335ZM83.6325 2.92943C83.6569 2.61282 83.7056 2.23533 84.0953 1.91872C84.5093 1.58993 85.0329 1.51687 85.5565 1.51687C86.1045 1.51687 87.4196 1.65082 87.4196 2.81983V5.47446C87.4196 5.96155 87.444 6.03462 87.5414 6.19292H86.2628V5.77889C85.934 6.02244 85.5565 6.31469 84.8989 6.31469C83.8761 6.31469 83.4499 5.55971 83.4499 4.92649C83.4499 4.19586 84.01 3.78183 84.3753 3.62353C84.7406 3.46522 85.5809 3.30692 86.1289 3.19733V2.95378C86.1167 2.74677 86.1045 2.39363 85.6296 2.39363C85.0573 2.39363 84.972 2.75895 84.9355 2.92943H83.6325ZM85.2886 4.29327C85.0694 4.39069 84.7285 4.51247 84.7285 4.8656C84.7285 5.08479 84.9111 5.32834 85.2277 5.32834C85.386 5.32834 85.5322 5.26745 85.6783 5.18221C86.1045 4.90214 86.1289 4.48811 86.1289 4.0132L85.2886 4.29327ZM79.5897 4.68295C79.9428 5.03609 80.3934 5.31616 80.8805 5.31616C81.1971 5.31616 81.672 5.20657 81.672 4.8656C81.672 4.7073 81.5746 4.64641 81.5015 4.60988C81.3067 4.50029 81.0022 4.47593 80.7465 4.42722C80.5517 4.39069 80.3447 4.35416 80.1498 4.29327C79.8819 4.20803 79.6019 4.09844 79.407 3.89143C79.2122 3.69659 79.0782 3.37998 79.0782 3.03902C79.0782 2.29621 79.7115 1.51687 80.9535 1.51687C82.0008 1.51687 82.6218 1.9796 82.9262 2.19879L82.1225 2.96596C81.7085 2.63717 81.3189 2.5154 81.0144 2.5154C80.503 2.5154 80.3812 2.72241 80.3812 2.85636C80.3812 3.11209 80.6613 3.16079 81.0875 3.24603C81.9764 3.40434 83.0115 3.64788 83.0115 4.73165C83.0115 5.80325 81.9642 6.32687 80.917 6.32687C79.6871 6.32687 79.0417 5.71801 78.7616 5.45011L79.5897 4.68295ZM75.1328 4.68295C75.486 5.03609 75.9365 5.31616 76.4236 5.31616C76.7402 5.31616 77.2151 5.20657 77.2151 4.8656C77.2151 4.7073 77.1177 4.64641 77.0446 4.60988C76.8498 4.50029 76.5454 4.47593 76.2897 4.42722C76.0948 4.39069 75.8878 4.35416 75.693 4.29327C75.4251 4.20803 75.145 4.09844 74.9502 3.89143C74.7553 3.69659 74.6214 3.37998 74.6214 3.03902C74.6214 2.29621 75.2546 1.51687 76.4967 1.51687C77.5439 1.51687 78.1649 1.9796 78.4694 2.19879L77.6657 2.96596C77.2517 2.63717 76.862 2.5154 76.5576 2.5154C76.0461 2.5154 75.9243 2.72241 75.9243 2.85636C75.9243 3.11209 76.2044 3.16079 76.6306 3.24603C77.5196 3.40434 78.5546 3.64788 78.5546 4.73165C78.5546 5.80325 77.5074 6.32687 76.4601 6.32687C75.2302 6.32687 74.5848 5.71801 74.3048 5.45011L75.1328 4.68295ZM69.8723 2.92943C69.8966 2.61282 69.9453 2.23533 70.335 1.91872C70.749 1.58993 71.2727 1.51687 71.7963 1.51687C72.3321 1.51687 73.6594 1.65082 73.6594 2.81983V5.47446C73.6594 5.96155 73.6837 6.03462 73.7812 6.19292H72.5025V5.77889C72.1738 6.02244 71.7963 6.31469 71.1387 6.31469C70.1158 6.31469 69.6896 5.55971 69.6896 4.92649C69.6896 4.19586 70.2498 3.78183 70.6151 3.62353C70.9804 3.46522 71.8206 3.30692 72.3686 3.19733V2.95378C72.3564 2.74677 72.3321 2.39363 71.8693 2.39363C71.297 2.39363 71.2118 2.75895 71.1752 2.92943H69.8723ZM71.5284 4.29327C71.3092 4.39069 70.9682 4.51247 70.9682 4.8656C70.9682 5.08479 71.1509 5.32834 71.4675 5.32834C71.6258 5.32834 71.7719 5.26745 71.918 5.18221C72.3442 4.90214 72.3686 4.48811 72.3686 4.0132L71.5284 4.29327ZM68.6545 0.0677815V6.22945H67.2176L67.3151 1.83348L67.3272 1.22462L67.2785 1.44381C67.2055 1.78477 67.1933 1.83348 67.1202 2.0892L65.9877 6.22945H64.697L63.6132 2.27186L63.3453 1.16373C63.3818 1.65082 63.3818 1.76041 63.394 2.34492L63.4792 6.22945H62.018V0.0677815H64.222L65.1353 3.52611L65.3423 4.51246C65.4276 4.08626 65.4398 4.03755 65.5128 3.7453L66.4748 0.0677815H68.6545Z" fill="black"/>
<path opacity="0.5" d="M33.1215 8.78809H27.4712V27.3218H33.1215V8.78809Z" fill="black"/>
</g>
</svg>
