<svg width="126" height="41" viewBox="0 0 126 41" fill="none" xmlns="http://www.w3.org/2000/svg">
<g id="ADVFN" clip-path="url(#clip0_4512_13581)">
<g id="ADVFN_LOGO">
<path id="Vector" d="M14.7378 25.2648H11.9676C11.8568 25.2648 11.7459 25.2648 11.7459 25.3756C11.7459 25.4865 11.5243 25.4865 11.5243 25.4865L10.1946 30.3621C10.1946 30.3621 10.1946 30.4729 10.0838 30.4729H9.97297L0.221622 30.5837H0.110811C0.110811 30.5837 0 30.5837 0 30.4729V30.3621V30.2513C3.21351 21.054 6.31622 11.7459 9.41892 2.54862C9.64054 1.88375 9.86216 1.10808 9.97297 0.664833C9.97297 0.554022 10.0838 0.3324 10.1946 0.22159C10.3054 0.110779 10.527 0.110779 10.6378 0.110779H23.8243C23.9351 0.110779 24.1568 0.22159 24.2676 0.22159C24.2676 0.3324 24.3784 0.554022 24.3784 0.664833L24.6 30.4729C24.6 30.4729 24.6 30.4729 24.6 30.5837C24.6 30.5837 24.6 30.5837 24.6 30.6946C24.6 30.6946 24.6 30.6946 24.4892 30.6946C24.4892 30.6946 24.4892 30.6946 24.3784 30.6946H14.7378C14.7378 30.6946 14.7378 30.6946 14.627 30.6946C14.627 30.6946 14.627 30.6946 14.627 30.5837L14.9595 25.5973V25.4865C14.9595 25.4865 14.9595 25.3756 14.8486 25.3756L14.7378 25.2648ZM15.5135 19.7243C15.6243 19.7243 15.6243 19.7243 15.7351 19.6135C15.7351 19.6135 15.8459 19.5027 15.8459 19.3919L16.5108 8.31078C16.5108 7.64591 16.5108 7.64591 16.2892 8.31078L12.7432 19.5027C12.7432 19.5027 12.7432 19.5027 12.7432 19.6135C12.7432 19.6135 12.7432 19.6135 12.7432 19.7243C12.7432 19.7243 12.7432 19.7243 12.8541 19.7243H15.5135Z" fill="white"/>
<path id="Vector_2" d="M48.5352 0.554058C50.8622 0.886491 52.4136 2.10541 52.9676 3.98919C53.1892 4.87568 53.1892 6.31622 52.8568 8.42163C51.8595 15.2919 50.8622 21.0541 49.7541 25.7081C49.2 27.9243 47.7595 29.3649 45.4325 30.0297C43.9919 30.473 42.5514 30.6946 41 30.6946C41 30.6946 39.5595 30.6946 36.5676 30.6946C33.1325 30.6946 29.8082 30.6946 26.4838 30.8054H26.373C26.373 30.8054 26.373 30.8054 26.2622 30.8054C26.2622 30.8054 26.2622 30.8054 26.2622 30.6946V30.5838L31.5811 0.443248C31.5811 0.443248 31.5811 0.332437 31.6919 0.332437H31.8027C34.019 0.221626 37.5649 0.221626 42.3298 0.332437C45.1 0.221626 47.0946 0.332437 48.5352 0.554058ZM42.773 5.87298C42.1082 5.42973 41.4433 5.31892 40.7784 5.42973C40.7784 5.42973 40.6676 5.42973 40.6676 5.54054L40.5568 5.65136L37.1217 25.0432C37.1217 25.0432 37.1217 25.0432 37.1217 25.1541C37.1217 25.1541 37.1217 25.1541 37.1217 25.2649C37.1217 25.2649 37.1217 25.2649 37.2325 25.2649C37.2325 25.2649 37.2325 25.2649 37.3433 25.2649C38.4514 25.3757 39.2271 25.1541 39.6703 24.6C40.0027 24.2676 40.2244 23.6027 40.446 22.4946C41.4433 17.3973 42.3298 12.0784 43.2163 6.75946C43.2163 6.64865 43.2163 6.42703 43.1055 6.31622C43.1055 6.0946 42.9946 5.98379 42.773 5.87298Z" fill="white"/>
<path id="Vector_3" d="M64.9351 20.1676C65.0459 20.1676 65.0459 20.1676 64.9351 20.1676C66.9297 13.5189 68.8134 6.98109 70.5864 0.33244C70.5864 0.33244 70.5864 0.221629 70.6972 0.221629H70.808C74.1324 0.110818 77.5675 0.110818 80.8918 0.221629C80.8918 0.221629 80.8918 0.221629 81.0026 0.221629C81.0026 0.221629 81.0026 0.221629 81.0026 0.33244C81.0026 0.33244 81.0026 0.33244 81.0026 0.44325L70.9188 30.473C70.9188 30.5838 70.808 30.5838 70.808 30.5838C70.808 30.5838 70.6972 30.6946 70.5864 30.6946H55.9594C55.9594 30.6946 55.9594 30.6946 55.8486 30.6946C55.8486 30.6946 55.8486 30.6946 55.7378 30.6946C55.7378 30.6946 55.7378 30.6946 55.7378 30.5838C55.7378 30.5838 55.7378 30.5838 55.7378 30.473L55.627 0.44325C55.627 0.33244 55.627 0.33244 55.7378 0.221629C55.7378 0.221629 55.8486 0.110818 55.9594 0.110818C59.1729 7.26059e-06 62.4972 7.26059e-06 65.9324 0.110818C66.0432 0.110818 66.0432 0.110818 66.0432 0.221629C66.0432 0.33244 66.154 0.33244 66.154 0.33244C65.8215 7.0919 65.4891 13.6297 64.9351 20.1676C64.9351 20.0568 64.9351 20.0568 64.9351 20.1676Z" fill="white"/>
<path id="Vector_4" d="M90.7541 11.9675H96.2946C96.2946 11.9675 96.2946 11.9675 96.4054 11.9675C96.4054 11.9675 96.4054 11.9675 96.4054 12.0784C96.4054 12.0784 96.4054 12.0784 96.4054 12.1892C96.1838 14.073 95.8513 15.8459 95.4081 17.7297C95.4081 17.7297 95.4081 17.8405 95.2973 17.8405H95.1865L89.6459 17.9513C89.5351 17.9513 89.5351 17.9513 89.4243 18.0621L89.3135 18.173L87.2081 30.5838C87.2081 30.5838 87.2081 30.6946 87.0973 30.6946H86.9865H77.4568C77.4568 30.6946 77.4568 30.6946 77.3459 30.6946C77.3459 30.6946 77.3459 30.6946 77.3459 30.5838C77.3459 30.5838 77.3459 30.5838 77.3459 30.473L82.5541 0.332414C82.5541 0.332414 82.554 0.221604 82.6649 0.221604H82.7757C88.3162 -1.79661e-05 94.4108 -0.110829 99.8405 0.110793C99.8405 0.110793 99.8405 0.110793 99.9513 0.110793C99.9513 0.110793 99.9513 0.110793 99.9513 0.221604C99.9513 0.332414 99.9513 0.221604 99.9513 0.332414L98.9541 5.98377C98.9541 5.98377 98.954 6.09458 98.8432 6.09458H98.7324L91.8622 6.3162C91.7514 6.3162 91.6405 6.3162 91.6405 6.42701C91.5297 6.53782 91.5297 6.53782 91.5297 6.64863L90.6432 11.8567C90.6432 11.8567 90.6432 11.8567 90.6432 11.9675C90.6432 11.9675 90.6432 11.9675 90.6432 12.0784C90.6432 11.9675 90.6432 11.9675 90.7541 11.9675Z" fill="white"/>
<path id="Vector_5" d="M114.135 12.854C114.246 13.4081 114.357 13.4081 114.468 12.854L116.684 0.443219C116.684 0.443219 116.684 0.332408 116.795 0.332408C116.795 0.332408 116.905 0.332408 116.905 0.221597C119.454 0.110786 122.003 0.110786 124.551 0.221597C124.551 0.221597 124.662 0.221597 124.662 0.332408V0.443219C124.662 1.10808 124.551 2.10538 124.33 3.43511C122.778 12.5216 121.227 21.6081 119.565 30.6946C119.565 30.6946 119.565 30.8054 119.454 30.8054H119.343L111.032 30.6946H110.922L110.811 30.5838L108.373 17.9513V17.8405C108.373 17.8405 108.373 17.7297 108.262 17.7297C108.151 17.7297 108.151 17.7297 108.151 17.9513C107.376 22.0513 106.711 26.2621 105.935 30.4729C105.935 30.5838 105.824 30.6946 105.824 30.6946C105.713 30.8054 105.603 30.8054 105.603 30.8054H97.8459C97.8459 30.8054 97.8459 30.8054 97.7351 30.8054C97.7351 30.8054 97.7351 30.8054 97.7351 30.6946C97.7351 30.6946 97.7351 30.6946 97.7351 30.5838C99.2865 21.6081 100.949 12.5216 102.5 3.54592C102.722 1.77295 102.722 1.77295 102.832 0.554029C102.832 0.443218 102.832 0.443219 102.943 0.443219L103.054 0.332408C105.713 0.221597 108.373 0.221597 111.032 0.332408C111.143 0.332408 111.143 0.332408 111.254 0.443219L111.365 0.554029L114.135 12.854Z" fill="white"/>
</g>
<g id="Group">
<path id="Vector_6" d="M0.443214 39.1162C0.332403 39.1162 0.221593 39.1162 0.110782 39.0054C-2.90275e-05 39.0054 -2.90275e-05 38.8946 -0.11084 38.7838C-0.11084 38.6729 -0.11084 38.5621 -2.90275e-05 38.4513L1.77294 34.5729C1.88375 34.4621 1.88375 34.3513 1.99457 34.2405C2.10538 34.1297 2.21619 34.1297 2.327 34.1297C2.43781 34.1297 2.54862 34.1297 2.65943 34.2405C2.77024 34.3513 2.88105 34.4621 2.88105 34.5729L4.65403 38.4513C4.87565 38.6729 4.98646 38.7838 4.87565 38.7838C4.87565 38.8946 4.76484 39.0054 4.76484 39.0054C4.65403 39.1162 4.54321 39.1162 4.4324 39.1162C4.32159 39.1162 4.09997 39.1162 4.09997 39.0054C3.98916 38.8946 3.98916 38.7838 3.87835 38.6729L3.43511 37.6756L3.87835 38.0081H0.997268L1.44051 37.6756L0.997268 38.6729C0.886458 38.7838 0.886458 38.8946 0.775647 39.0054C0.664836 39.1162 0.554025 39.1162 0.443214 39.1162ZM2.43781 35.3486L1.55132 37.454L1.3297 37.1216H3.54592L3.3243 37.454L2.43781 35.3486Z" fill="white"/>
<path id="Vector_7" d="M6.09458 39.1162C5.87296 39.1162 5.76215 39.1162 5.65134 39.0054C5.65134 38.8946 5.54053 38.673 5.54053 38.5622V34.7946C5.54053 34.573 5.54053 34.4622 5.65134 34.3514C5.76215 34.2405 5.87296 34.2405 6.09458 34.2405H7.42431C8.3108 34.2405 8.97566 34.4622 9.41891 34.9054C9.86215 35.3486 10.0838 35.9027 10.0838 36.6784C10.0838 37.1216 9.97296 37.4541 9.86215 37.6757C9.75134 38.0081 9.52972 38.2297 9.30809 38.4514C9.08647 38.673 8.75404 38.7838 8.53242 38.8946C8.19999 39.0054 7.86755 39.0054 7.42431 39.0054H6.09458V39.1162ZM6.64864 38.2297H7.42431C7.64593 38.2297 7.97837 38.2297 8.08918 38.1189C8.3108 38.0081 8.42161 38.0081 8.53242 37.7865C8.75404 37.6757 8.86485 37.5649 8.97566 37.3432C9.08647 37.1216 9.08647 36.9 9.08647 36.6784C9.08647 36.1243 8.97566 35.7919 8.64323 35.4595C8.42161 35.2378 7.97836 35.127 7.42431 35.127H6.64864V38.2297Z" fill="white"/>
<path id="Vector_8" d="M13.0755 39.1162C12.9647 39.1162 12.8539 39.1162 12.7431 39.0054C12.6323 38.8946 12.5215 38.7838 12.5215 38.6729L10.7485 34.7946C10.6377 34.6838 10.6377 34.5729 10.6377 34.4621C10.6377 34.3513 10.7485 34.2405 10.8593 34.2405C10.9701 34.1297 11.0809 34.1297 11.1917 34.1297C11.4134 34.1297 11.5242 34.1297 11.5242 34.2405C11.635 34.3513 11.635 34.4621 11.7458 34.5729L13.2972 38.1189H12.9647L14.5161 34.5729C14.6269 34.4621 14.6269 34.3513 14.7377 34.2405C14.8485 34.1297 14.9593 34.1297 15.0701 34.1297C15.1809 34.1297 15.2917 34.1297 15.4026 34.2405C15.5134 34.3513 15.5134 34.3513 15.5134 34.4621C15.5134 34.5729 15.5134 34.6838 15.4026 34.7946L13.6296 38.7838C13.5188 38.8946 13.5188 39.0054 13.408 39.1162C13.2972 39.1162 13.1863 39.1162 13.0755 39.1162Z" fill="white"/>
<path id="Vector_9" d="M16.2892 39.1162C16.1784 39.1162 16.0676 39.1162 15.9568 39.0054C15.8459 38.8946 15.8459 38.8946 15.8459 38.7838C15.8459 38.6729 15.8459 38.5621 15.9568 38.4513L17.7297 34.5729C17.8405 34.4621 17.8405 34.3513 17.9514 34.2405C18.0622 34.1297 18.173 34.1297 18.2838 34.1297C18.3946 34.1297 18.5054 34.1297 18.6162 34.2405C18.727 34.3513 18.8378 34.4621 18.8378 34.5729L20.6108 38.4513C20.7216 38.5621 20.7216 38.6729 20.7216 38.7838C20.7216 38.8946 20.6108 39.0054 20.6108 39.0054C20.5 39.1162 20.3892 39.1162 20.2784 39.1162C20.1676 39.1162 19.9459 39.1162 19.9459 39.0054C19.8351 38.8946 19.8351 38.7838 19.7243 38.6729L19.2811 37.6756L19.7243 38.0081H16.8432L17.2865 37.6756L16.8432 38.6729C16.7324 38.7838 16.7324 38.8946 16.6216 39.0054C16.5108 39.1162 16.4 39.1162 16.2892 39.1162ZM18.2838 35.3486L17.3973 37.454L17.1757 37.1216H19.3919L19.1703 37.454L18.2838 35.3486Z" fill="white"/>
<path id="Vector_10" d="M21.9406 39.1162C21.8297 39.1162 21.6081 39.1162 21.6081 39.0054C21.4973 38.8946 21.4973 38.7838 21.4973 38.6729V34.6838C21.4973 34.4621 21.4973 34.3513 21.6081 34.2405C21.7189 34.1297 21.8297 34.1297 21.9406 34.1297C22.0514 34.1297 22.1622 34.1297 22.273 34.2405C22.3838 34.2405 22.3838 34.3513 22.4946 34.4621L24.9324 37.5648H24.7108V34.6838C24.7108 34.5729 24.7108 34.3513 24.8216 34.3513C24.9324 34.2405 25.0433 34.2405 25.1541 34.2405C25.2649 34.2405 25.4865 34.2405 25.4865 34.3513C25.5973 34.4621 25.5973 34.5729 25.5973 34.6838V38.6729C25.5973 38.7838 25.5973 38.8946 25.4865 39.0054C25.3757 39.1162 25.2649 39.1162 25.1541 39.1162C25.0433 39.1162 24.9324 39.1162 24.8216 39.0054C24.7108 39.0054 24.7108 38.8946 24.6 38.7838L22.1622 35.6811H22.3838V38.5621C22.3838 38.7838 22.3838 38.8946 22.273 38.8946C22.1622 39.1162 22.0514 39.1162 21.9406 39.1162Z" fill="white"/>
<path id="Vector_11" d="M29.1431 39.227C28.5891 39.227 28.1458 39.1162 27.8134 38.8946C27.481 38.6729 27.1485 38.3405 26.9269 38.0081C26.7053 37.6756 26.5945 37.2324 26.5945 36.6783C26.5945 36.3459 26.7053 35.9027 26.8161 35.6811C26.9269 35.3486 27.1485 35.127 27.3702 34.9054C27.5918 34.6838 27.8134 34.4621 28.1458 34.3513C28.4783 34.2405 28.8107 34.1297 29.2539 34.1297C29.4756 34.1297 29.6972 34.1297 30.0296 34.2405C30.2512 34.3513 30.4729 34.3513 30.6945 34.4621C30.8053 34.5729 30.9161 34.5729 30.9161 34.6838C30.9161 34.7946 30.9161 34.9054 30.9161 35.0162C30.9161 35.127 30.8053 35.2378 30.8053 35.2378C30.6945 35.3486 30.6945 35.3486 30.5837 35.3486C30.4729 35.3486 30.362 35.3486 30.2512 35.2378C30.1404 35.127 29.9188 35.127 29.808 35.0162C29.6972 35.0162 29.4756 34.9054 29.3648 34.9054C29.0323 34.9054 28.8107 35.0162 28.5891 35.127C28.3675 35.2378 28.2566 35.4594 28.1458 35.6811C28.035 35.9027 28.035 36.2351 28.035 36.5675C28.035 36.9 28.035 37.2324 28.1458 37.454C28.2566 37.6756 28.3675 37.8973 28.5891 38.0081C28.8107 38.1189 29.0323 38.2297 29.3648 38.2297C29.4756 38.2297 29.6972 38.2297 29.808 38.1189C29.9188 38.1189 30.1404 38.0081 30.2512 37.8973C30.362 37.7865 30.4729 37.7865 30.5837 37.7865C30.6945 37.7865 30.8053 37.8973 30.8053 37.8973C30.9161 38.0081 30.9161 38.0081 30.9161 38.1189C30.9161 38.2297 30.9161 38.3405 30.9161 38.4513C30.9161 38.5621 30.8053 38.6729 30.6945 38.6729C30.4729 38.7838 30.2512 38.8946 30.0296 38.8946C29.5864 39.1162 29.3648 39.227 29.1431 39.227Z" fill="white"/>
<path id="Vector_12" d="M32.1351 39.1162C31.9135 39.1162 31.8027 39.1162 31.6919 39.0054C31.5811 38.8946 31.5811 38.7838 31.5811 38.5622V34.7946C31.5811 34.573 31.5811 34.4622 31.6919 34.3514C31.8027 34.2405 31.9135 34.2405 32.1351 34.2405H34.5729C34.6838 34.2405 34.7946 34.2405 34.9054 34.3514C35.0162 34.4622 35.0162 34.573 35.0162 34.6838C35.0162 34.7946 35.0162 34.9054 34.9054 35.0162C34.7946 35.127 34.6838 35.127 34.5729 35.127H32.5784V36.2351H34.3513C34.4621 36.2351 34.5729 36.2351 34.6838 36.3459C34.7946 36.4568 34.7946 36.5676 34.7946 36.6784C34.7946 36.7892 34.7946 36.9 34.6838 37.0108C34.5729 37.1216 34.4621 37.1216 34.3513 37.1216H32.5784V38.3405H34.5729C34.6838 38.3405 34.7946 38.3405 34.9054 38.4514C35.0162 38.5622 35.0162 38.673 35.0162 38.7838C35.0162 38.8946 35.0162 39.0054 34.9054 39.1162C34.7946 39.227 34.6838 39.227 34.5729 39.227H32.1351V39.1162Z" fill="white"/>
<path id="Vector_13" d="M36.3458 39.1162C36.1242 39.1162 36.0134 39.1162 35.9026 39.0054C35.7918 38.8946 35.7917 38.7838 35.7917 38.5622V34.7946C35.7917 34.573 35.7918 34.4622 35.9026 34.3514C36.0134 34.2405 36.1242 34.2405 36.3458 34.2405H37.6755C38.562 34.2405 39.2269 34.4622 39.6701 34.9054C40.1134 35.3486 40.335 35.9027 40.335 36.6784C40.335 37.1216 40.2242 37.4541 40.1134 37.6757C40.0026 38.0081 39.7809 38.2297 39.5593 38.4514C39.3377 38.673 39.0053 38.7838 38.7836 38.8946C38.4512 39.0054 38.1188 39.0054 37.6755 39.0054H36.3458V39.1162ZM36.8999 38.2297H37.6755C37.8972 38.2297 38.2296 38.2297 38.3404 38.1189C38.562 38.0081 38.6728 38.0081 38.7836 37.7865C38.8945 37.6757 39.0053 37.4541 39.1161 37.3432C39.2269 37.1216 39.2269 36.9 39.2269 36.6784C39.2269 36.1243 39.1161 35.7919 38.7836 35.4595C38.562 35.2378 38.1188 35.127 37.5647 35.127H36.789V38.2297H36.8999Z" fill="white"/>
<path id="Vector_14" d="M43.7701 39.1162C43.5485 39.1162 43.4377 39.1162 43.3269 39.0054C43.2161 38.8946 43.2161 38.7838 43.2161 38.5621V34.6838C43.2161 34.4621 43.2161 34.3513 43.3269 34.2405C43.4377 34.1297 43.5485 34.1297 43.7701 34.1297H46.208C46.3188 34.1297 46.4296 34.1297 46.5404 34.2405C46.6512 34.3513 46.6512 34.4621 46.6512 34.5729C46.6512 34.6838 46.6512 34.7946 46.5404 34.9054C46.4296 35.0162 46.3188 35.0162 46.208 35.0162H44.3242V36.2351H46.0971C46.208 36.2351 46.3188 36.2351 46.4296 36.3459C46.5404 36.4567 46.5404 36.5675 46.5404 36.6783C46.5404 36.7892 46.5404 36.9 46.4296 37.0108C46.3188 37.1216 46.208 37.1216 46.0971 37.1216H44.3242V38.6729C44.2134 39.0054 44.1026 39.1162 43.7701 39.1162Z" fill="white"/>
<path id="Vector_15" d="M47.7594 39.1162C47.5378 39.1162 47.4269 39.1162 47.3161 39.0054C47.2053 38.8946 47.2053 38.7838 47.2053 38.5621V34.6838C47.2053 34.4621 47.2053 34.3513 47.3161 34.2405C47.4269 34.1297 47.5378 34.1297 47.7594 34.1297C47.981 34.1297 48.0918 34.1297 48.2026 34.2405C48.3134 34.3513 48.3134 34.4621 48.3134 34.6838V38.5621C48.3134 38.7838 48.3134 38.8946 48.2026 39.0054C48.0918 39.1162 47.8702 39.1162 47.7594 39.1162Z" fill="white"/>
<path id="Vector_16" d="M49.754 39.1162C49.6432 39.1162 49.4216 39.1162 49.4216 39.0054C49.3108 38.8946 49.3108 38.7838 49.3108 38.6729V34.6838C49.3108 34.4621 49.3108 34.3513 49.4216 34.2405C49.5324 34.1297 49.6432 34.1297 49.754 34.1297C49.8648 34.1297 49.9757 34.1297 50.0865 34.2405C50.1973 34.2405 50.1973 34.3513 50.3081 34.4621L52.7459 37.5648H52.5243V34.6838C52.5243 34.5729 52.5243 34.3513 52.6351 34.3513C52.7459 34.2405 52.8567 34.2405 52.9675 34.2405C53.0784 34.2405 53.3 34.2405 53.3 34.3513C53.4108 34.4621 53.4108 34.5729 53.4108 34.6838V38.6729C53.4108 38.7838 53.4108 38.8946 53.3 39.0054C53.1892 39.1162 53.0784 39.1162 52.9675 39.1162C52.8567 39.1162 52.7459 39.1162 52.6351 39.0054C52.5243 39.0054 52.5243 38.8946 52.4135 38.7838L49.9757 35.6811H50.1973V38.5621C50.1973 38.7838 50.1973 38.8946 50.0865 38.8946C50.0865 39.1162 49.9757 39.1162 49.754 39.1162Z" fill="white"/>
<path id="Vector_17" d="M54.7406 39.1162C54.6298 39.1162 54.519 39.1162 54.4082 39.0054C54.2974 38.8946 54.2974 38.8946 54.2974 38.7838C54.2974 38.6729 54.2974 38.5621 54.4082 38.4513L56.1811 34.5729C56.292 34.4621 56.292 34.3513 56.4028 34.2405C56.5136 34.1297 56.6244 34.1297 56.7352 34.1297C56.846 34.1297 56.9568 34.1297 57.0676 34.2405C57.1784 34.3513 57.2893 34.4621 57.2893 34.5729L59.0622 38.4513C59.173 38.5621 59.173 38.6729 59.173 38.7838C59.173 38.8946 59.0622 39.0054 59.0622 39.0054C58.9514 39.1162 58.8406 39.1162 58.7298 39.1162C58.619 39.1162 58.3974 39.1162 58.3974 39.0054C58.2866 38.8946 58.2866 38.7838 58.1757 38.6729L57.7325 37.6756L58.1757 38.0081H55.2947L55.7379 37.6756L55.2947 38.6729C55.1839 38.7838 55.1839 38.8946 55.073 39.0054C54.9622 39.1162 54.8514 39.1162 54.7406 39.1162ZM56.7352 35.3486L55.8487 37.454L55.6271 37.1216H57.8433L57.6217 37.454L56.7352 35.3486Z" fill="white"/>
<path id="Vector_18" d="M60.3919 39.1162C60.2811 39.1162 60.0595 39.1162 60.0595 39.0054C59.8379 38.8946 59.8379 38.7838 59.8379 38.6729V34.6838C59.8379 34.4621 59.8379 34.3513 59.9487 34.2405C60.0595 34.1297 60.1703 34.1297 60.2811 34.1297C60.3919 34.1297 60.5028 34.1297 60.6136 34.2405C60.7244 34.2405 60.7244 34.3513 60.8352 34.4621L63.273 37.5648H63.1622V34.6838C63.1622 34.5729 63.1622 34.3513 63.273 34.3513C63.3838 34.2405 63.4946 34.2405 63.6055 34.2405C63.7163 34.2405 63.9379 34.2405 63.9379 34.3513C64.0487 34.4621 64.0487 34.5729 64.0487 34.6838V38.6729C64.0487 38.7838 64.0487 38.8946 63.9379 39.0054C63.8271 39.1162 63.7163 39.1162 63.6055 39.1162C63.4946 39.1162 63.3838 39.1162 63.273 39.0054C63.1622 39.0054 63.1622 38.8946 63.0514 38.7838L60.6136 35.6811H60.8352V38.5621C60.8352 38.7838 60.8352 38.8946 60.7244 38.8946C60.6136 39.1162 60.5028 39.1162 60.3919 39.1162Z" fill="white"/>
<path id="Vector_19" d="M67.4837 39.227C66.9297 39.227 66.4864 39.1162 66.154 38.8946C65.8215 38.6729 65.4891 38.3405 65.2675 38.0081C65.0459 37.6756 64.9351 37.2324 64.9351 36.6783C64.9351 36.3459 65.0459 35.9027 65.1567 35.6811C65.2675 35.3486 65.4891 35.127 65.7107 34.9054C65.9324 34.6838 66.154 34.4621 66.4864 34.3513C66.8188 34.2405 67.1513 34.1297 67.5945 34.1297C67.8161 34.1297 68.0378 34.1297 68.3702 34.2405C68.5918 34.3513 68.8134 34.3513 69.0351 34.4621C69.1459 34.5729 69.2567 34.5729 69.2567 34.6838C69.2567 34.7946 69.2567 34.9054 69.2567 35.0162C69.2567 35.127 69.1459 35.2378 69.1459 35.2378C69.0351 35.3486 69.0351 35.3486 68.9243 35.3486C68.8134 35.3486 68.7026 35.3486 68.5918 35.2378C68.481 35.127 68.2594 35.127 68.1486 35.0162C68.0378 35.0162 67.8161 34.9054 67.7053 34.9054C67.3729 34.9054 67.1513 35.0162 66.9297 35.127C66.708 35.2378 66.5972 35.4594 66.4864 35.6811C66.3756 35.9027 66.3756 36.2351 66.3756 36.5675C66.3756 36.9 66.3756 37.2324 66.4864 37.454C66.5972 37.6756 66.708 37.8973 66.9297 38.0081C67.1513 38.1189 67.3729 38.2297 67.7053 38.2297C67.8161 38.2297 68.0378 38.2297 68.1486 38.1189C68.2594 38.1189 68.481 38.0081 68.5918 37.8973C68.7026 37.7865 68.8134 37.7865 68.9243 37.7865C69.0351 37.7865 69.1459 37.8973 69.1459 37.8973C69.2567 38.0081 69.2567 38.0081 69.2567 38.1189C69.2567 38.2297 69.2567 38.3405 69.2567 38.4513C69.2567 38.5621 69.1459 38.6729 69.0351 38.6729C68.8134 38.7838 68.5918 38.8946 68.3702 38.8946C68.0378 39.1162 67.8161 39.227 67.4837 39.227Z" fill="white"/>
<path id="Vector_20" d="M70.4757 39.1162C70.2541 39.1162 70.1433 39.1162 70.0324 39.0054C69.9216 38.8946 69.9216 38.7838 69.9216 38.5621V34.6838C69.9216 34.4621 69.9216 34.3513 70.0324 34.2405C70.1433 34.1297 70.2541 34.1297 70.4757 34.1297C70.6973 34.1297 70.8081 34.1297 70.9189 34.2405C71.0297 34.3513 71.0297 34.4621 71.0297 34.6838V38.5621C71.0297 38.7838 71.0297 38.8946 70.9189 39.0054C70.8081 39.1162 70.6973 39.1162 70.4757 39.1162Z" fill="white"/>
<path id="Vector_21" d="M72.1378 39.1162C72.027 39.1162 71.9162 39.1162 71.8054 39.0054C71.6946 38.8946 71.6946 38.8946 71.6946 38.7838C71.6946 38.6729 71.6946 38.5621 71.8054 38.4513L73.5784 34.5729C73.6892 34.4621 73.6892 34.3513 73.8 34.2405C73.9108 34.1297 74.0216 34.1297 74.1324 34.1297C74.2432 34.1297 74.354 34.1297 74.4649 34.2405C74.5757 34.3513 74.6865 34.4621 74.6865 34.5729L76.4594 38.4513C76.5703 38.5621 76.5703 38.6729 76.5703 38.7838C76.5703 38.8946 76.4594 39.0054 76.4594 39.0054C76.3486 39.1162 76.2378 39.1162 76.127 39.1162C76.0162 39.1162 75.7946 39.1162 75.7946 39.0054C75.7946 38.8946 75.6838 38.7838 75.573 38.6729L75.1297 37.6756L75.573 38.0081H72.6919L73.1351 37.6756L72.6919 38.6729C72.5811 38.7838 72.5811 38.8946 72.4703 39.0054C72.4703 39.1162 72.3594 39.1162 72.1378 39.1162ZM74.1324 35.3486L73.2459 37.454L73.1351 37.2324H75.3513L75.1297 37.5648L74.1324 35.3486Z" fill="white"/>
<path id="Vector_22" d="M77.9 39.1162C77.6784 39.1162 77.5676 39.1162 77.4568 39.0054C77.3459 38.8946 77.3459 38.7838 77.3459 38.5622V34.7946C77.3459 34.573 77.3459 34.4622 77.4568 34.3514C77.5676 34.2405 77.6784 34.2405 77.9 34.2405C78.1216 34.2405 78.2324 34.2405 78.3432 34.3514C78.454 34.4622 78.4541 34.573 78.4541 34.7946V38.2297H80.3378C80.4486 38.2297 80.5595 38.2297 80.6703 38.3405C80.7811 38.4513 80.7811 38.5622 80.7811 38.673C80.7811 38.7838 80.7811 38.8946 80.6703 39.0054C80.5595 39.1162 80.4486 39.1162 80.3378 39.1162H77.9Z" fill="white"/>
<path id="Vector_23" d="M83.7728 39.1162C83.662 39.1162 83.4404 39.1162 83.4404 39.0054C83.3296 38.8946 83.3296 38.7838 83.3296 38.6729V34.6838C83.3296 34.4621 83.3296 34.3513 83.4404 34.2405C83.5512 34.1297 83.662 34.1297 83.7728 34.1297C83.8836 34.1297 83.9945 34.1297 84.1053 34.2405C84.2161 34.2405 84.2161 34.3513 84.3269 34.4621L86.7647 37.5648H86.5431V34.6838C86.5431 34.5729 86.5431 34.3513 86.6539 34.3513C86.7647 34.2405 86.8755 34.2405 86.9863 34.2405C87.0972 34.2405 87.3188 34.2405 87.3188 34.3513C87.4296 34.4621 87.4296 34.5729 87.4296 34.6838V38.6729C87.4296 38.7838 87.4296 38.8946 87.3188 39.0054C87.208 39.1162 87.0972 39.1162 86.9863 39.1162C86.8755 39.1162 86.7647 39.1162 86.6539 39.0054C86.5431 39.0054 86.5431 38.8946 86.4323 38.7838L83.9945 35.6811H84.2161V38.5621C84.2161 38.7838 84.2161 38.8946 84.1053 38.8946C84.1053 39.1162 83.9945 39.1162 83.7728 39.1162Z" fill="white"/>
<path id="Vector_24" d="M89.2027 39.1162C88.9811 39.1162 88.8703 39.1162 88.7595 39.0054C88.6487 38.8946 88.6487 38.673 88.6487 38.5622V34.7946C88.6487 34.573 88.6487 34.4622 88.7595 34.3514C88.8703 34.2405 88.9811 34.2405 89.2027 34.2405H91.6406C91.7514 34.2405 91.8622 34.2405 91.973 34.3514C92.0838 34.4622 92.0838 34.573 92.0838 34.6838C92.0838 34.7946 92.0838 34.9054 91.973 35.0162C91.8622 35.127 91.7514 35.127 91.6406 35.127H89.646V36.2351H91.419C91.5298 36.2351 91.6406 36.2351 91.7514 36.3459C91.8622 36.4568 91.8622 36.5676 91.8622 36.6784C91.8622 36.7892 91.8622 36.9 91.7514 37.0108C91.6406 37.1216 91.5298 37.1216 91.419 37.1216H89.646V38.3405H91.6406C91.7514 38.3405 91.8622 38.3405 91.973 38.4514C92.0838 38.5622 92.0838 38.673 92.0838 38.7838C92.0838 38.8946 92.0838 39.0054 91.973 39.1162C91.8622 39.227 91.7514 39.227 91.6406 39.227H89.2027V39.1162Z" fill="white"/>
<path id="Vector_25" d="M94.6325 39.1162C94.4109 39.1162 94.3 39.1162 94.1892 39.0054C94.0784 38.8946 94.0784 38.7838 94.0784 38.5621V35.0162H92.8595C92.7487 35.0162 92.6379 35.0162 92.5271 34.9054C92.4163 34.7946 92.4163 34.6838 92.4163 34.5729C92.4163 34.4621 92.4163 34.3513 92.5271 34.2405C92.6379 34.1297 92.7487 34.1297 92.8595 34.1297H96.4054C96.5163 34.1297 96.6271 34.1297 96.7379 34.2405C96.8487 34.3513 96.8487 34.4621 96.8487 34.5729C96.8487 34.6838 96.8487 34.7946 96.7379 34.9054C96.6271 35.0162 96.5163 35.0162 96.4054 35.0162H95.1865V38.5621C95.1865 38.7838 95.1865 38.8946 95.0757 39.0054C94.9649 39.1162 94.7433 39.1162 94.6325 39.1162Z" fill="white"/>
<path id="Vector_26" d="M99.1757 39.1162C99.0649 39.1162 98.9541 39.1162 98.8432 39.0054C98.7324 38.8946 98.7324 38.7838 98.6216 38.673L97.1811 34.6838C97.0703 34.4622 97.1811 34.3514 97.1811 34.2405C97.2919 34.1297 97.4027 34.0189 97.6243 34.0189C97.7351 34.0189 97.846 34.0189 97.9568 34.1297C98.0676 34.2405 98.0676 34.3514 98.1784 34.4622L99.2865 37.8973H98.9541L100.173 34.4622C100.173 34.3514 100.284 34.2405 100.395 34.1297C100.505 34.0189 100.616 34.0189 100.727 34.0189C100.838 34.0189 100.949 34.0189 101.059 34.1297C101.17 34.2405 101.17 34.3514 101.281 34.4622L102.5 37.8973H102.278L103.497 34.4622C103.497 34.3514 103.608 34.2405 103.719 34.1297C103.83 34.0189 103.941 34.0189 104.051 34.0189C104.273 34.0189 104.384 34.1297 104.495 34.2405C104.605 34.3514 104.605 34.4622 104.495 34.6838L103.054 38.673C102.943 38.7838 102.943 38.8946 102.832 39.0054C102.722 39.1162 102.611 39.1162 102.5 39.1162C102.389 39.1162 102.278 39.1162 102.168 39.0054C102.057 38.8946 102.057 38.7838 101.946 38.673L100.838 35.5703L99.7297 38.673C99.6189 38.7838 99.6189 38.8946 99.5081 39.0054C99.3973 39.1162 99.2865 39.1162 99.1757 39.1162Z" fill="white"/>
<path id="Vector_27" d="M107.486 39.227C107.043 39.227 106.6 39.1162 106.157 38.8946C105.824 38.6729 105.492 38.3405 105.27 38.0081C105.049 37.6756 104.938 37.2324 104.938 36.6783C104.938 36.3459 105.049 35.9027 105.159 35.6811C105.27 35.3486 105.492 35.127 105.603 34.9054C105.824 34.6838 106.046 34.4621 106.378 34.3513C106.711 34.2405 107.043 34.1297 107.376 34.1297C107.819 34.1297 108.262 34.2405 108.705 34.4621C109.038 34.6838 109.37 35.0162 109.592 35.3486C109.813 35.6811 109.924 36.1243 109.924 36.6783C109.924 37.0108 109.813 37.454 109.703 37.6756C109.592 38.0081 109.37 38.2297 109.149 38.4513C108.927 38.6729 108.705 38.8946 108.373 39.0054C108.04 39.1162 107.819 39.227 107.486 39.227ZM107.486 38.2297C107.708 38.2297 108.04 38.1189 108.151 38.0081C108.373 37.8973 108.484 37.6756 108.595 37.454C108.705 37.2324 108.705 36.9 108.705 36.5675C108.705 36.0135 108.595 35.6811 108.373 35.3486C108.151 35.0162 107.819 34.9054 107.376 34.9054C107.154 34.9054 106.822 35.0162 106.711 35.127C106.489 35.2378 106.378 35.4594 106.267 35.6811C106.157 35.9027 106.157 36.2351 106.157 36.5675C106.157 37.1216 106.267 37.454 106.489 37.7865C106.711 38.1189 107.043 38.2297 107.486 38.2297Z" fill="white"/>
<path id="Vector_28" d="M111.365 39.1162C111.143 39.1162 111.032 39.1162 110.922 39.0054C110.811 38.8946 110.811 38.7838 110.811 38.5621V34.6838C110.811 34.4621 110.811 34.3513 110.922 34.2405C111.032 34.1297 111.143 34.1297 111.365 34.1297H113.027C113.581 34.1297 114.024 34.2405 114.357 34.5729C114.689 34.7946 114.8 35.2378 114.8 35.6811C114.8 36.0135 114.689 36.2351 114.578 36.4567C114.468 36.6784 114.246 36.9 114.024 37.0108C113.803 37.1216 113.47 37.2324 113.138 37.2324L113.249 37.1216H113.581C113.803 37.1216 113.913 37.1216 114.135 37.2324C114.246 37.3432 114.357 37.454 114.468 37.6756L114.911 38.4513C115.022 38.5621 115.022 38.6729 115.022 38.7838C115.022 38.8946 115.022 39.0054 114.911 39.0054C114.8 39.1162 114.689 39.1162 114.578 39.1162C114.468 39.1162 114.246 39.1162 114.246 39.0054C114.135 38.8946 114.024 38.8946 114.024 38.6729L113.359 37.454C113.249 37.3432 113.249 37.2324 113.138 37.2324C113.027 37.2324 112.916 37.1216 112.805 37.1216H111.919V38.5621C111.919 38.7838 111.919 38.8946 111.808 39.0054C111.586 39.1162 111.476 39.1162 111.365 39.1162ZM111.919 36.4567H112.916C113.249 36.4567 113.47 36.3459 113.581 36.2351C113.692 36.1243 113.803 35.9027 113.803 35.6811C113.803 35.4594 113.692 35.2378 113.581 35.127C113.47 35.0162 113.249 34.9054 112.916 34.9054H111.919V36.4567Z" fill="white"/>
<path id="Vector_29" d="M116.241 39.1162C116.019 39.1162 115.908 39.1162 115.797 39.0054C115.687 38.8946 115.687 38.7838 115.687 38.5621V34.6838C115.687 34.4621 115.687 34.3513 115.797 34.2405C115.908 34.1297 116.019 34.1297 116.241 34.1297C116.462 34.1297 116.573 34.1297 116.684 34.2405C116.795 34.3513 116.795 34.4621 116.795 34.6838V36.3459L118.678 34.4621C118.789 34.3513 118.789 34.3513 118.9 34.2405C119.011 34.2405 119.122 34.1297 119.232 34.1297C119.343 34.1297 119.565 34.1297 119.565 34.2405C119.676 34.3513 119.676 34.4621 119.676 34.5729C119.676 34.6838 119.565 34.7946 119.565 34.9054L117.681 36.7892V36.3459L119.676 38.4513C119.787 38.5621 119.897 38.6729 119.897 38.7838C119.897 38.8946 119.897 39.0054 119.787 39.1162C119.676 39.227 119.565 39.227 119.454 39.227C119.343 39.227 119.232 39.227 119.122 39.1162C119.011 39.0054 118.9 39.0054 118.9 38.8946L117.016 36.9V38.6729C117.016 38.8946 117.016 39.0054 116.905 39.1162C116.573 39.1162 116.351 39.1162 116.241 39.1162Z" fill="white"/>
</g>
</g>
<defs>
<clipPath id="clip0_4512_13581">
<rect width="125.216" height="41" fill="white"/>
</clipPath>
</defs>
</svg>
