<svg width="54" height="32" viewBox="0 0 54 32" fill="none" xmlns="http://www.w3.org/2000/svg">
<g id="AWS" clip-path="url(#clip0_3698_4723)">
<g id="Group">
<path id="Vector" d="M15.6222 11.6747C15.6222 12.3253 15.6926 12.8528 15.8157 13.2396C15.9563 13.6264 16.1321 14.0484 16.3783 14.5055C16.4662 14.6462 16.5014 14.7868 16.5014 14.9099C16.5014 15.0857 16.3959 15.2616 16.1673 15.4374L15.0596 16.1758C14.9014 16.2813 14.7431 16.3341 14.6025 16.3341C14.4266 16.3341 14.2508 16.2462 14.075 16.0879C13.8288 15.8242 13.6178 15.5429 13.442 15.2616C13.2662 14.9627 13.0904 14.6286 12.897 14.2242C11.5255 15.8418 9.80246 16.6506 7.72774 16.6506C6.25082 16.6506 5.07279 16.2286 4.21126 15.3846C3.34972 14.5407 2.91016 13.4154 2.91016 12.0088C2.91016 10.5143 3.43763 9.30111 4.51016 8.38683C5.58268 7.47254 7.00686 7.0154 8.81785 7.0154C9.41565 7.0154 10.031 7.06815 10.6816 7.15606C11.3321 7.24397 12.0003 7.38463 12.7036 7.54287V6.25935C12.7036 4.92309 12.4222 3.99122 11.8772 3.44617C11.3146 2.90111 10.3651 2.63738 9.01125 2.63738C8.39587 2.63738 7.7629 2.70771 7.11235 2.86595C6.4618 3.02419 5.82884 3.2176 5.21345 3.46375C4.93213 3.58683 4.72115 3.65716 4.59807 3.69232C4.47499 3.72749 4.38708 3.74507 4.31675 3.74507C4.0706 3.74507 3.94752 3.56924 3.94752 3.20001V2.33848C3.94752 2.05716 3.98268 1.84617 4.0706 1.72309C4.15851 1.60001 4.31675 1.47694 4.5629 1.35386C5.17829 1.03738 5.91675 0.77364 6.77829 0.562651C7.63983 0.33408 8.55411 0.228585 9.52115 0.228585C11.6135 0.228585 13.1431 0.70331 14.1277 1.65276C15.0948 2.60221 15.5871 4.04397 15.5871 5.97804V11.6747H15.6222ZM8.48378 14.3473C9.064 14.3473 9.6618 14.2418 10.2948 14.0308C10.9277 13.8198 11.4904 13.433 11.9651 12.9055C12.2464 12.5714 12.4574 12.2022 12.5629 11.7802C12.6684 11.3583 12.7387 10.8484 12.7387 10.2506V9.5121C12.2288 9.38902 11.6838 9.28353 11.1211 9.2132C10.5585 9.14287 10.0135 9.10771 9.4684 9.10771C8.29038 9.10771 7.42884 9.33628 6.84862 9.811C6.2684 10.2857 5.98708 10.9539 5.98708 11.833C5.98708 12.6594 6.19807 13.2747 6.63763 13.6967C7.05961 14.1363 7.67499 14.3473 8.48378 14.3473ZM22.6025 16.2462C22.286 16.2462 22.075 16.1934 21.9343 16.0703C21.7937 15.9648 21.6706 15.7187 21.5651 15.3846L17.4332 1.79342C17.3277 1.44177 17.275 1.2132 17.275 1.09012C17.275 0.808805 17.4157 0.650563 17.697 0.650563H19.42C19.7541 0.650563 19.9827 0.70331 20.1058 0.826387C20.2464 0.931882 20.3519 1.17804 20.4574 1.5121L23.4113 13.1517L26.1541 1.5121C26.242 1.16045 26.3475 0.931882 26.4882 0.826387C26.6288 0.720893 26.875 0.650563 27.1915 0.650563H28.5981C28.9321 0.650563 29.1607 0.70331 29.3014 0.826387C29.442 0.931882 29.5651 1.17804 29.6354 1.5121L32.4135 13.2923L35.4552 1.5121C35.5607 1.16045 35.6838 0.931882 35.8069 0.826387C35.9475 0.720893 36.1761 0.650563 36.4926 0.650563H38.1277C38.4091 0.650563 38.5673 0.791223 38.5673 1.09012C38.5673 1.17804 38.5497 1.26595 38.5321 1.37144C38.5145 1.47694 38.4794 1.6176 38.4091 1.811L34.1717 15.4022C34.0662 15.7539 33.9431 15.9824 33.8025 16.0879C33.6618 16.1934 33.4332 16.2638 33.1343 16.2638H31.6222C31.2882 16.2638 31.0596 16.211 30.9189 16.0879C30.7783 15.9648 30.6552 15.7363 30.5849 15.3846L27.8596 4.04397L25.1519 15.367C25.064 15.7187 24.9585 15.9473 24.8178 16.0703C24.6772 16.1934 24.431 16.2462 24.1146 16.2462H22.6025ZM45.1959 16.7209C44.2816 16.7209 43.3673 16.6154 42.4882 16.4044C41.6091 16.1934 40.9233 15.9648 40.4662 15.7011C40.1849 15.5429 39.9915 15.367 39.9211 15.2088C39.8508 15.0506 39.8157 14.8747 39.8157 14.7165V13.8198C39.8157 13.4506 39.9563 13.2747 40.22 13.2747C40.3255 13.2747 40.431 13.2923 40.5365 13.3275C40.642 13.3627 40.8003 13.433 40.9761 13.5033C41.5739 13.767 42.2244 13.978 42.9102 14.1187C43.6135 14.2594 44.2992 14.3297 45.0025 14.3297C46.1102 14.3297 46.9717 14.1363 47.5695 13.7495C48.1673 13.3626 48.4838 12.8 48.4838 12.0791C48.4838 11.5868 48.3255 11.1824 48.0091 10.8484C47.6926 10.5143 47.0948 10.2154 46.2332 9.93408L43.6838 9.14287C42.4003 8.73847 41.4508 8.14067 40.8706 7.34946C40.2904 6.57584 39.9915 5.7143 39.9915 4.80001C39.9915 4.06155 40.1497 3.411 40.4662 2.84837C40.7827 2.28573 41.2047 1.79342 41.7321 1.40661C42.2596 1.00221 42.8574 0.70331 43.5607 0.492321C44.264 0.281332 45.0025 0.19342 45.7761 0.19342C46.1629 0.19342 46.5673 0.211003 46.9541 0.26375C47.3585 0.316497 47.7277 0.386827 48.097 0.457157C48.4486 0.545069 48.7827 0.632981 49.0992 0.738475C49.4156 0.84397 49.6618 0.949464 49.8376 1.05496C50.0838 1.19562 50.2596 1.33628 50.3651 1.49452C50.4706 1.63518 50.5233 1.82859 50.5233 2.07474V2.90111C50.5233 3.27034 50.3827 3.46375 50.1189 3.46375C49.9783 3.46375 49.7497 3.39342 49.4508 3.25276C48.4486 2.79562 47.3233 2.56705 46.075 2.56705C45.0728 2.56705 44.2816 2.72529 43.7365 3.05935C43.1915 3.39342 42.9102 3.90331 42.9102 4.62419C42.9102 5.1165 43.086 5.53848 43.4376 5.87254C43.7893 6.20661 44.4398 6.54067 45.3717 6.83957L47.8684 7.63078C49.1343 8.03518 50.0486 8.59782 50.5937 9.3187C51.1387 10.0396 51.4025 10.8659 51.4025 11.7802C51.4025 12.5363 51.2442 13.222 50.9453 13.8198C50.6288 14.4176 50.2069 14.9451 49.6618 15.367C49.1167 15.8066 48.4662 16.1231 47.7102 16.3517C46.9189 16.5978 46.0926 16.7209 45.1959 16.7209Z" fill="white"/>
<g id="Group_2">
<path id="Vector_2" fill-rule="evenodd" clip-rule="evenodd" d="M48.5193 25.266C42.7346 29.5385 34.3302 31.8066 27.1039 31.8066C16.9764 31.8066 7.85112 28.0616 0.95881 21.8374C0.413755 21.3451 0.906063 20.677 1.55661 21.0638C9.01156 25.389 18.2072 28.0088 27.7192 28.0088C34.1368 28.0088 41.1874 26.6726 47.6753 23.9297C48.6423 23.4901 49.4687 24.5627 48.5193 25.266Z" fill="white"/>
<path id="Vector_3" fill-rule="evenodd" clip-rule="evenodd" d="M50.928 22.5231C50.1895 21.5737 46.04 22.066 44.1587 22.2945C43.5961 22.3649 43.5082 21.8726 44.0181 21.5033C47.3236 19.1825 52.7565 19.8506 53.3895 20.6242C54.0225 21.4154 53.2137 26.8484 50.1192 29.4506C49.6444 29.855 49.1873 29.644 49.3983 29.1165C50.1016 27.3759 51.6664 23.455 50.928 22.5231Z" fill="white"/>
</g>
</g>
</g>
<defs>
<clipPath id="clip0_3698_4723">
<rect width="53.4506" height="32" fill="white" transform="translate(0.431641)"/>
</clipPath>
</defs>
</svg>
