<svg width="141" height="38" viewBox="0 0 141 38" fill="none" xmlns="http://www.w3.org/2000/svg">
<g id="Belvoir" clip-path="url(#clip0_4389_24793)">
<g id="Vector">
<path id="Vector_2" d="M14.8289 12.7493C14.8289 14.3375 14.1913 15.5556 12.9163 16.4049C11.6413 17.2527 9.80338 17.6766 7.40117 17.6766H0.959961V0.635742H7.59792C12.0146 0.635742 14.223 2.04105 14.223 4.85168C14.223 5.8331 13.9645 6.65623 13.4461 7.32112C12.9278 7.98751 12.1841 8.44045 11.2134 8.68146V8.83098C12.4066 8.97323 13.3069 9.35943 13.9157 9.99096C14.5244 10.6253 14.8289 11.5429 14.8289 12.7493ZM9.39993 5.489C9.39993 4.89813 9.24338 4.48729 8.93182 4.25355C8.61879 4.02127 8.15786 3.90367 7.54911 3.90367H5.88352V7.19777H7.59792C8.24691 7.19777 8.71068 7.06709 8.98638 6.8043C9.26207 6.54302 9.39993 6.10454 9.39993 5.489ZM9.85652 12.4619C9.85652 11.7302 9.68566 11.2148 9.34389 10.9157C9.00217 10.6166 8.48242 10.4671 7.78313 10.4671H5.88352V14.4334H7.52466C8.37182 14.4334 8.97202 14.2824 9.32667 13.9775C9.67848 13.6755 9.85652 13.1689 9.85652 12.4619Z" fill="white"/>
<path id="Vector_3" d="M23.6506 0.635742H33.5479V4.02853H28.2252V7.2471H33.5479V10.653H28.2252V14.3086H33.5479V17.6766H23.6506V0.635742Z" fill="white"/>
<path id="Vector_4" d="M42.947 17.6766V0.635742H47.8706V13.9209H53.8796V17.6766H42.947Z" fill="white"/>
<path id="Vector_5" d="M72.5813 17.6766H66.7203L61.3401 0.635742H66.1648L68.9174 10.6036L69.4975 13.4606H69.5722L70.1522 10.6036L72.9164 0.635742H77.9615L72.5813 17.6766Z" fill="white"/>
<path id="Vector_6" d="M101.659 8.94415C101.659 11.8709 100.947 14.1009 99.5238 15.631C98.1009 17.1612 96.0491 17.9262 93.3666 17.9262C90.7754 17.9262 88.7739 17.1743 87.3581 15.6688C85.9435 14.1633 85.2356 12.0553 85.2356 9.34337C85.2356 6.4413 85.9637 4.22155 87.4195 2.68849C88.8754 1.15542 90.9606 0.385986 93.6754 0.385986C96.1999 0.385986 98.1629 1.13656 99.5611 2.63768C100.96 4.14027 101.659 6.24244 101.659 8.94415ZM96.6736 9.19386C96.6736 7.36466 96.4154 6.01302 95.8972 5.13908C95.3785 4.26512 94.5845 3.82958 93.5164 3.82958C92.4636 3.82958 91.6499 4.29124 91.0742 5.21457C90.4979 6.13788 90.2095 7.45608 90.2095 9.16919C90.2095 10.891 90.4809 12.2106 91.0237 13.1296C91.5665 14.0485 92.3474 14.5088 93.3683 14.5088C94.5286 14.5088 95.3686 14.0515 95.8912 13.1369C96.4127 12.2209 96.6736 10.907 96.6736 9.19386Z" fill="white"/>
<path id="Vector_7" d="M110.851 0.635742H115.775V17.6766H110.851V0.635742Z" fill="white"/>
<path id="Vector_8" d="M130.352 17.6766H125.43V0.635742H132.597C134.497 0.635742 135.941 1.0887 136.928 1.99604C137.916 2.90341 138.409 4.19548 138.409 5.87518C138.409 6.98143 138.166 7.93817 137.68 8.74388C137.195 9.55103 136.529 10.171 135.681 10.6021L140.211 17.6751H135.029L131.512 11.3382H130.352V17.6766ZM133.584 5.87518C133.584 4.61069 132.955 3.97917 131.695 3.97917H130.351V7.99621H131.387C132.851 7.99621 133.584 7.28918 133.584 5.87518Z" fill="white"/>
<path id="Vector_9" d="M7.5088 36.708C7.07227 36.9359 6.15909 37.1624 5.0061 37.1624C2.33398 37.1624 0.338135 35.4565 0.338135 32.3004C0.338135 29.2866 2.34977 27.2686 5.28752 27.2686C6.45486 27.2686 7.21446 27.524 7.53753 27.6953L7.22882 28.7043C6.77936 28.4764 6.11742 28.3066 5.33059 28.3066C3.10933 28.3066 1.63328 29.7424 1.63328 32.2583C1.63328 34.6188 2.96862 36.1113 5.26168 36.1113C6.02125 36.1113 6.78078 35.9545 7.27187 35.7135L7.5088 36.708Z" fill="white"/>
<path id="Vector_10" d="M14.2588 33.9931L13.2752 37.007H12.0103L15.2438 27.4253H16.7055L19.9391 37.007H18.6324L17.6202 33.9931H14.2588ZM17.3804 33.0262L16.4385 30.2678C16.2274 29.6421 16.0867 29.073 15.946 28.5199H15.9173C15.7766 29.0745 15.6359 29.6712 15.4391 30.2548L14.5116 33.0277H17.3804V33.0262Z" fill="white"/>
<path id="Vector_11" d="M24.9473 27.5384C25.5374 27.4396 26.3114 27.354 27.2949 27.354C28.5039 27.354 29.3898 27.6385 29.9527 28.1496C30.4581 28.604 30.7826 29.3009 30.7826 30.1545C30.7826 31.0211 30.5299 31.705 30.0517 32.2014C29.3913 32.8983 28.3503 33.254 27.1556 33.254C26.7895 33.254 26.4521 33.2395 26.172 33.1683V37.0068H24.9487V27.5384H24.9473ZM26.1707 32.1579C26.4377 32.229 26.7752 32.2566 27.1829 32.2566C28.6589 32.2566 29.5592 31.5176 29.5592 30.2242C29.5592 28.9451 28.6589 28.334 27.3236 28.334C26.7895 28.334 26.3817 28.376 26.1707 28.434V32.1579Z" fill="white"/>
<path id="Vector_12" d="M37.2655 27.4236V37.0053H36.0278V27.4236H37.2655Z" fill="white"/>
<path id="Vector_13" d="M44.8181 28.4762H41.9363V27.4236H48.9519V28.4762H46.0557V37.0053H44.8181V28.4762Z" fill="white"/>
<path id="Vector_14" d="M54.0994 33.9931L53.1158 37.007H51.8508L55.0844 27.4253H56.5462L59.7796 37.007H58.4714L57.4592 33.9931H54.0994ZM57.2212 33.0262L56.2792 30.2678C56.0681 29.6421 55.9272 29.073 55.7868 28.5199H55.7578C55.6174 29.0745 55.4765 29.6712 55.2796 30.2548L54.3521 33.0277H57.2212V33.0262Z" fill="white"/>
<path id="Vector_15" d="M64.7732 27.4236H66.0114V35.9673H70.0602V37.0053H64.7732V27.4236Z" fill="white"/>
<path id="Vector_16" d="M83.1667 33.9931L82.1829 37.007H80.918L84.1515 27.4253H85.6133L88.8468 37.007H87.5401L86.5279 33.9931H83.1667ZM86.2883 33.0262L85.3462 30.2678C85.1351 29.6421 84.9942 29.073 84.8538 28.5199H84.8248C84.6844 29.0745 84.5435 29.6712 84.3466 30.2548L83.4194 33.0277H86.2883V33.0262Z" fill="white"/>
<path id="Vector_17" d="M100.871 36.58C100.322 36.7934 99.2251 37.1055 97.9459 37.1055C96.5115 37.1055 95.3315 36.7353 94.4026 35.841C93.5866 35.0454 93.0801 33.765 93.0801 32.2726C93.0801 29.414 95.0342 27.325 98.2118 27.325C99.3085 27.325 100.18 27.5674 100.588 27.7663L100.278 28.7753C99.7723 28.5328 99.1391 28.363 98.1827 28.363C95.877 28.363 94.3724 29.8132 94.3724 32.216C94.3724 34.6477 95.8069 36.0835 98.0281 36.0835C98.8292 36.0835 99.3775 35.9703 99.6588 35.828V32.9708H97.7495V31.9765H100.871V36.58Z" fill="white"/>
<path id="Vector_18" d="M115.566 36.1401C117.701 36.1401 119.431 34.391 119.431 32.2334C119.431 30.0757 117.701 28.3267 115.566 28.3267C113.432 28.3267 111.703 30.0757 111.703 32.2334C111.703 34.391 113.432 36.1401 115.566 36.1401Z" fill="white"/>
<path id="Vector_19" d="M126.014 36.1401C128.148 36.1401 129.878 34.391 129.878 32.2334C129.878 30.0757 128.148 28.3267 126.014 28.3267C123.88 28.3267 122.15 30.0757 122.15 32.2334C122.15 34.391 123.88 36.1401 126.014 36.1401Z" fill="white"/>
<path id="Vector_20" d="M136.461 36.1401C138.596 36.1401 140.326 34.391 140.326 32.2334C140.326 30.0757 138.596 28.3267 136.461 28.3267C134.328 28.3267 132.598 30.0757 132.598 32.2334C132.598 34.391 134.328 36.1401 136.461 36.1401Z" fill="white"/>
</g>
</g>
<defs>
<clipPath id="clip0_4389_24793">
<rect width="140.389" height="38" fill="white"/>
</clipPath>
</defs>
</svg>
