<svg width="204" height="32" viewBox="0 0 204 32" fill="none" xmlns="http://www.w3.org/2000/svg">
<g id="Blockworks" clip-path="url(#clip0_4513_13639)">
<path id="Vector" d="M23.2881 31.3559H29.1525V0H23.2881V31.3559ZM47.2203 20.4746C47.2203 16.3729 44.5762 14.2712 41.6949 14.2712C38.8135 14.2712 36.1694 16.339 36.1694 20.4746C36.1694 24.5424 38.8135 26.678 41.6949 26.678C44.5762 26.6441 47.2203 24.5763 47.2203 20.4746ZM53.0847 20.4746C53.0847 27.1525 48.1694 32 41.6949 32C35.2203 32 30.305 27.1525 30.305 20.4746C30.305 13.7627 35.2203 8.94916 41.6949 8.94916C48.1694 8.94916 53.0847 13.7627 53.0847 20.4746ZM59.4915 20.4746C59.4915 24.4068 62.0677 26.6102 65.0508 26.6102C68.0338 26.6102 69.5593 24.6102 70.0338 22.9492L75.2203 24.678C74.2372 28.3051 70.8474 32 65.0508 32C58.644 32 53.5932 27.1525 53.5932 20.4746C53.5932 13.7627 58.5423 8.94916 64.8813 8.94916C70.8135 8.94916 74.1694 12.6102 75.0847 16.2712L69.8304 18.0339C69.2881 16.2373 67.9321 14.3729 65.0169 14.3729C61.9999 14.3729 59.4915 16.5424 59.4915 20.4746ZM88.3728 18.7458L97.2542 31.3559H90.0338L84.2711 23.0508L81.8305 25.6271V31.3559H75.966V0H81.8305V17.6949L89.3559 9.59322H97.0508M114.78 9.59322L119.458 23.5932L123.491 9.59322H129.322L122.508 31.3559H116.644L111.559 16.5085L106.576 31.3559H100.61L93.661 9.59322H99.8643L103.898 23.5593L108.644 9.59322M145.017 20.4746C145.017 16.3729 142.373 14.2712 139.491 14.2712C136.61 14.2712 133.966 16.339 133.966 20.4746C133.966 24.5424 136.61 26.678 139.491 26.678C142.373 26.678 145.017 24.5763 145.017 20.4746ZM150.915 20.4746C150.915 27.1525 146 32 139.525 32C133.017 32 128.136 27.1525 128.136 20.4746C128.136 13.7627 133.051 8.94916 139.525 8.94916C146 8.91526 150.915 13.7627 150.915 20.4746ZM165.254 15.4237C164.576 15.2881 164 15.2542 163.491 15.2542C160.475 15.2542 157.864 16.7119 157.864 21.3898V31.322H152V9.55932H157.695V12.7797C159.017 9.89831 162.034 9.38983 163.898 9.38983C164.373 9.38983 164.813 9.42373 165.254 9.49152M178.576 18.7458L187.458 31.3559H180.237L174.508 23.0508L172.068 25.6271V31.3559H166.203V0H172.068V17.6949L179.593 9.59322H187.288M190.915 24.1695C191.051 25.8983 192.339 27.4915 194.881 27.4915C196.813 27.4915 197.763 26.4746 197.763 25.322C197.763 24.339 197.085 23.5593 195.424 23.1864L192.542 22.5085C188.339 21.5932 186.441 19.0508 186.441 16C186.441 12.1017 189.898 8.88136 194.576 8.88136C200.78 8.88136 202.847 12.8136 203.119 15.1525L198.203 16.2712C198.034 14.983 197.085 13.3559 194.61 13.3559C193.051 13.3559 191.83 14.2712 191.83 15.5254C191.83 16.5763 192.61 17.2542 193.83 17.4576L196.915 18.1356C201.22 19.0169 203.356 21.6271 203.356 24.8136C203.356 28.339 200.61 31.9661 194.915 31.9661C188.373 31.9661 186.136 27.7288 185.864 25.2542" fill="white"/>
<path id="Vector_2" d="M0 23.5255H7.83051V15.6949H0V23.5255Z" fill="#482AAA"/>
<path id="Vector_3" d="M0 31.356H7.83051V23.5255H0V31.356Z" fill="#5B35D4"/>
<path id="Vector_4" d="M0 7.86438H7.83051V0.0338745H0V7.86438Z" fill="#231454"/>
<path id="Vector_5" d="M0 15.6949H7.83051V7.86438H0V15.6949Z" fill="#371F80"/>
<path id="Vector_6" d="M14.4746 0.0678007C14.2373 0.0339024 13.9662 0 13.7289 0H7.83057V7.86441H15.6611V0.406784C15.2882 0.237292 14.8814 0.135597 14.4746 0.0678007Z" fill="#120A2B"/>
<path id="Vector_7" d="M20.949 7.86442V7.83052C20.949 4.4068 18.7456 1.45765 15.6609 0.406799V7.86442" fill="black"/>
<path id="Vector_8" d="M20.949 7.86438H15.6609V15.2542C18.7117 14.1695 20.9151 11.2881 20.949 7.86438Z" fill="#120A2B"/>
<path id="Vector_9" d="M7.83057 7.86438V15.6949L13.0848 15.661C14.2034 15.661 14.8475 15.5254 15.6611 15.2542V7.86438" fill="#231454"/>
<path id="Vector_10" d="M14.678 15.6949C14.4407 15.661 14.2034 15.661 13.9662 15.661C13.7289 15.661 7.83057 15.6949 7.83057 15.6949V23.5254H15.6611V15.8305C15.3221 15.7627 15.017 15.7288 14.678 15.6949Z" fill="#371F80"/>
<path id="Vector_11" d="M15.6609 15.8305V23.5254H21.8304C21.8304 19.7627 19.1863 16.6102 15.6609 15.8305Z" fill="#A3A3A3"/>
<path id="Vector_12" d="M7.83057 23.5255V31.356H14.678C15.017 31.3221 15.356 31.2882 15.6611 31.1865V23.5255" fill="#482AAA"/>
<path id="Vector_13" d="M15.6609 31.1864C19.1863 30.4068 21.8304 27.2542 21.8304 23.4915H15.6609" fill="#371F80"/>
<path id="Vector_14" d="M0 23.5255H7.83051V15.6949H0V23.5255Z" fill="#ECECEC"/>
<path id="Vector_15" d="M0 31.356H7.83051V23.5255H0V31.356Z" fill="white"/>
<path id="Vector_16" d="M0 7.86438H7.83051V0.0338745H0V7.86438Z" fill="#A3A3A3"/>
<path id="Vector_17" d="M0 15.6949H7.83051V7.86438H0V15.6949Z" fill="#CDCDCD"/>
<path id="Vector_18" d="M14.4746 0.0678007C14.2373 0.0339024 13.9662 0 13.7289 0H7.83057V7.86441H15.6611V0.406784C15.2882 0.237292 14.8814 0.135597 14.4746 0.0678007Z" fill="#8C8C8C"/>
<path id="Vector_19" d="M20.949 7.86442V7.83052C20.949 4.4068 18.7456 1.45765 15.6609 0.406799V7.86442" fill="#565656"/>
<path id="Vector_20" d="M20.949 7.86438H15.6609V15.2542C18.7117 14.1695 20.9151 11.2881 20.949 7.86438Z" fill="#8C8C8C"/>
<path id="Vector_21" d="M7.83057 7.86438V15.6949L13.0848 15.661C14.2034 15.661 14.8475 15.5254 15.6611 15.2542V7.86438" fill="#A3A3A3"/>
<path id="Vector_22" d="M14.678 15.6949C14.4407 15.661 14.2034 15.661 13.9662 15.661C13.7289 15.661 7.83057 15.6949 7.83057 15.6949V23.5254H15.6611V15.8305C15.3221 15.7627 15.017 15.7288 14.678 15.6949Z" fill="#CDCDCD"/>
<path id="Vector_23" d="M7.83057 23.5255V31.356H14.678C15.017 31.3221 15.356 31.2882 15.6611 31.1865V23.5255" fill="#ECECEC"/>
<path id="Vector_24" d="M15.6609 31.1864C19.1863 30.4068 21.8304 27.2542 21.8304 23.4915H15.6609" fill="#CDCDCD"/>
</g>
<defs>
<clipPath id="clip0_4513_13639">
<rect width="203.356" height="32" fill="white"/>
</clipPath>
</defs>
</svg>
