<svg width="90" height="40" viewBox="0 0 90 40" fill="none" xmlns="http://www.w3.org/2000/svg">
<g id="BOSTON UNIVERSITY" clip-path="url(#clip0_4503_6553)">
<path id="Exclude" fill-rule="evenodd" clip-rule="evenodd" d="M89.2819 40H0V0H89.2819V40ZM2.07565 37.9189H87.2051V2.07463H2.07565V37.9189ZM1.46816 38.5329V1.46605H87.8158V38.5329H1.46816ZM15.9849 15.4233C15.9806 16.7458 15.3524 18.1195 13.1126 18.1228C11.6825 18.1152 11.2076 17.6859 11.1989 16.3981V12.7901H13.0105C14.9938 12.7912 15.9838 14.1246 15.9849 15.4233ZM13.0279 12.3945H11.1989V8.23986L11.4415 8.22979C11.8536 8.2125 12.3671 8.19095 12.6682 8.19095C14.7591 8.19421 15.4502 9.26466 15.4546 10.446C15.4502 11.762 14.6623 12.3891 13.0279 12.3945ZM15.1579 12.5032C16.2805 12.2706 17.0641 11.3686 17.0651 10.3949C17.0662 9.56352 16.7141 8.96689 16.0067 8.46699C15.3774 8.01381 14.057 7.79538 12.5486 7.79429C12.2226 7.79429 10.9239 7.81168 9.98172 7.84537C9.72672 7.85431 9.29043 7.87679 8.8618 7.89886C8.45744 7.91969 8.0599 7.94017 7.82778 7.94861H7.793V8.34418H8.42766C9.61005 8.35396 9.69808 8.82018 9.70894 9.79608V16.8936C9.69808 17.9641 9.46768 18.2499 8.06795 18.2608H7.63977V18.6564H13.9342C16.7065 18.6531 17.6596 16.7372 17.6639 15.3711C17.6639 14.0388 16.7337 12.9911 15.1579 12.5032ZM30.5681 13.5755C30.566 10.4098 28.5652 8.19177 25.7636 8.19068C22.7805 8.19503 21.5927 10.9695 21.5916 13.0115C21.5927 16.1935 23.7488 18.4311 26.4819 18.4322C29.2434 18.4268 30.566 15.9935 30.5681 13.5755ZM19.9125 13.5418C19.9191 10.1197 22.5501 7.69838 26.2081 7.69186C29.4553 7.6973 32.245 9.90992 32.2461 13.0115C32.2395 16.4869 29.4575 18.9234 26.1222 18.9299C22.7566 18.9245 19.9136 16.763 19.9125 13.5418ZM35.2031 18.6565H35.2226L35.2324 18.6413C35.2954 18.5456 35.4052 18.4685 35.5454 18.4685C35.6176 18.4678 35.7967 18.5174 36.0385 18.5845C36.5319 18.7213 37.286 18.9303 37.9221 18.9303C39.9358 18.9271 41.4453 17.6708 41.4453 15.9711C41.4372 14.2659 39.8588 13.2846 38.397 12.3758C37.1273 11.5865 35.9456 10.8519 35.9573 9.74513C35.9573 8.80944 36.7202 8.17478 37.8373 8.17261C39.0002 8.17261 40.0826 8.94963 40.5575 10.169L40.5662 10.1907H40.9204L40.6216 7.94874H40.2977L40.288 7.96178C40.1847 8.09545 40.1391 8.11718 40.0087 8.12044C39.7844 8.12129 39.6012 8.0568 39.3762 7.97764C39.0224 7.85311 38.5653 7.69226 37.683 7.69226C35.9247 7.69444 34.6043 8.7638 34.6032 10.207C34.6123 11.8058 36.1437 12.7727 37.5865 13.6835C38.8807 14.5006 40.1036 15.2727 40.0923 16.4156C40.0913 17.7414 38.9023 18.3957 37.7678 18.3978C36.4496 18.3967 35.2683 17.5219 34.9118 16.0135L34.9053 15.9863H34.5119L34.8814 18.6565H35.2031ZM43.5841 10.5025L43.5786 10.5319H43.5482H43.2015L43.4819 7.69221H43.8688L43.8742 7.72047C43.8894 7.80958 43.9449 7.86609 44.0394 7.89869C44.1361 7.9313 44.2535 7.9476 44.3698 7.9476H52.5954C52.8345 7.94868 53.0659 7.89217 53.0899 7.72047L53.0942 7.69221H53.4822L53.7626 10.5319H53.3855L53.3811 10.5025C53.1203 8.99631 52.829 8.6366 52.1672 8.63442H49.2275V17.048C49.2362 17.962 49.5058 18.2511 50.5436 18.2609H51.2109V18.6564H45.7532V18.2609H46.4205C47.4583 18.2511 47.7278 17.962 47.7365 17.048V8.63442H44.7969C44.135 8.6366 43.8438 8.99631 43.5841 10.5025ZM61.5352 18.4315C58.802 18.4315 56.647 16.1939 56.6459 13.0119C56.647 10.9699 57.8348 8.19543 60.8168 8.19C63.6185 8.19108 65.6192 10.4091 65.6213 13.5759C65.6192 15.9939 64.2977 18.4272 61.5352 18.4315ZM61.2624 7.69118C57.6022 7.6977 54.9734 10.119 54.9669 13.5422C54.9679 16.7634 57.8098 18.9238 61.1765 18.9303C64.5107 18.9238 67.2939 16.4862 67.3004 13.0119C67.2993 9.91032 64.5096 7.6977 61.2624 7.69118ZM73.0277 18.2608V18.2967V18.6564H68.9904V18.2608H69.0936C70.1478 18.2532 70.4532 17.924 70.4597 17.1513V8.75504C70.076 8.49314 69.6435 8.36164 69.0578 8.34425L69.0241 8.34317V7.94868H71.7583L79.7633 16.2927V9.57554C79.7536 8.54313 79.4938 8.3899 78.1223 8.34425L78.0876 8.34317V7.94868H82.1596V8.34534H82.1248C80.8392 8.35403 80.611 8.54965 80.6045 9.19844V18.777H80.1089L71.3008 9.56033V16.8089C71.3117 18.0337 71.5399 18.2489 72.9929 18.2608H73.0277ZM13.6486 24.7105V24.9942L13.6822 24.9974C14.6147 25.0529 14.744 25.1985 14.756 26.2841V28.9173C14.7527 30.8181 13.4845 31.3288 12.2141 31.3332C10.5448 31.3299 9.67758 30.4388 9.67432 28.9282V25.7875C9.68192 25.1441 9.9134 25.0061 10.5307 24.9974H10.6676V24.7105H7.69209V24.9963L7.72795 24.9974C8.49628 25.0192 8.65386 25.0952 8.66473 25.8092V29.1086C8.66799 30.742 9.79386 31.9885 11.9663 31.9928C14.4354 31.9885 15.3439 30.4692 15.3461 29.0521V26.0016C15.3548 25.2865 15.5938 25.0148 16.3404 24.9974L16.3752 24.9963V24.7105H16.3393H13.6486ZM23.4759 24.9953V24.9616V24.7105H26.1906V24.9974H26.1558C25.3049 25.0061 25.1701 25.1267 25.1625 25.5495V31.8907H24.818L19.0148 25.8179V30.5779C19.0256 31.3853 19.1604 31.5136 20.1211 31.5255H20.1558V31.8113H17.4629V31.5255H17.5433C18.2388 31.5179 18.429 31.3114 18.4355 30.8039V25.2626C18.1845 25.0931 17.903 25.0072 17.5205 24.9963L17.4857 24.9953V24.7116H19.3114L24.5833 30.2062V25.7973C24.5735 25.1202 24.417 25.0311 23.5106 24.9963L23.4759 24.9953ZM27.7317 24.9615V24.9941L27.7654 24.9963C28.3946 25.0387 28.5707 25.1745 28.5794 25.7755V30.5898C28.5685 31.344 28.4587 31.482 27.7654 31.5255L27.7317 31.5277V31.8124H30.5485V31.5255H30.5127C29.74 31.5157 29.5987 31.3288 29.5889 30.6691V25.8766C29.5987 25.1278 29.8052 25.0072 30.5127 24.9963H30.5485V24.7105H27.7317V24.9615ZM36.5896 24.9974V24.9616V24.7105H39.2826V24.9963H39.2467C38.6729 24.9996 38.3893 25.2506 38.1154 25.9462L35.7789 31.9917H35.1649L32.7045 25.856C32.4143 25.1441 32.3122 25.0029 31.6297 24.9963H31.5938V24.7105H34.7726V24.9963H34.7378C33.9195 25.0159 33.6228 25.1659 33.6282 25.4441C33.6282 25.5234 33.651 25.618 33.6967 25.7288L35.6974 30.7072L37.4503 26.1233C37.5742 25.8092 37.6405 25.5843 37.6405 25.4365C37.6394 25.1289 37.396 25.0007 36.6244 24.9974H36.5896ZM45.8034 30.0573L45.7958 30.0834C45.5078 31.0539 45.297 31.3288 44.5199 31.3331L42.779 31.3342C42.3649 31.3245 42.2128 31.2582 42.2041 30.7474V28.3761H44.0787C44.5351 28.3848 44.7112 28.4391 44.8112 29.2379L44.8144 29.2683H45.097V27.0514H44.8144L44.8112 27.0829C44.7492 27.736 44.5819 27.8925 44.1917 27.8979H42.2041V25.1897H44.5525C44.9416 25.193 45.2024 25.3647 45.3546 26.3232L45.3589 26.3537H45.6306L45.536 24.7105H40.0425V24.9974H40.3273C41.0738 25.0061 41.1858 25.2365 41.1945 25.8668V30.6344C41.1847 31.3071 41.0673 31.5157 40.1675 31.5266H39.8165V31.8124H45.8849L46.0729 30.0573H45.8306H45.8034ZM58.1454 24.8844C57.4119 24.8855 56.9174 25.3006 56.9163 25.9114C56.9047 26.6326 57.6793 27.1141 58.5154 27.6339C59.4834 28.2357 60.534 28.8888 60.5428 30.0247C60.5428 31.156 59.5386 31.9896 58.2019 31.9928C57.7803 31.9921 57.2794 31.8533 56.9538 31.7631C56.7943 31.7189 56.677 31.6864 56.6316 31.6875C56.5435 31.6875 56.4751 31.7364 56.4349 31.7961L56.424 31.8124H56.1827L55.9361 30.0236H56.2186L56.2251 30.0508C56.4599 31.0408 57.2347 31.6157 58.1009 31.6157C58.8475 31.6146 59.6234 31.1854 59.6245 30.3192C59.6358 29.5737 58.8339 29.0676 57.9813 28.5295C57.0256 27.9263 56.0061 27.2828 55.9969 26.2168C55.998 25.2539 56.8783 24.5432 58.0443 24.5421C58.6292 24.5421 58.9338 24.6492 59.1679 24.7316C59.3161 24.7837 59.4361 24.8259 59.581 24.8246C59.6647 24.8214 59.6875 24.8127 59.756 24.7257L59.7668 24.7105H59.9962L60.1983 26.2178H59.9407L59.9331 26.195C59.6201 25.393 58.9083 24.8844 58.1454 24.8844ZM62.5199 24.9615V24.9952L62.5536 24.9963C63.1817 25.0387 63.3589 25.1756 63.3676 25.7755V30.5898C63.3567 31.344 63.248 31.482 62.5536 31.5255L62.5199 31.5277V31.8124H65.3367V31.5255H65.302C64.5282 31.5157 64.3858 31.3288 64.3761 30.6691V25.8766C64.3858 25.1278 64.5923 25.0072 65.302 24.9963H65.3367V24.7105H62.5199V24.9615ZM73.3012 24.5424H73.3317H73.5783L73.7664 26.4431H73.4936L73.4881 26.4149C73.3132 25.4172 73.1284 25.1912 72.6992 25.1901L70.768 25.189V30.7369C70.7767 31.3378 70.9419 31.5171 71.6255 31.5269H72.0797V31.8127H68.4478V31.5269L68.901 31.5258C69.5845 31.5171 69.7497 31.3378 69.7584 30.7369V25.1901H67.8284C67.398 25.1912 67.2122 25.4172 67.0383 26.4149L67.0329 26.4431H66.7601L66.9481 24.5424H67.2252L67.2296 24.5717C67.2393 24.625 67.2709 24.6598 67.3306 24.6793C67.3926 24.7011 67.4697 24.7108 67.5447 24.7108H72.9817C73.1393 24.7119 73.2849 24.6739 73.2958 24.5717L73.3012 24.5424ZM79.5371 24.7105V24.9963H79.573C80.0664 24.9985 80.2848 25.0855 80.2848 25.3017C80.2859 25.4093 80.2326 25.5604 80.1185 25.756L78.5525 28.4196L76.7757 25.6756C76.654 25.4908 76.5888 25.3463 76.5898 25.2496C76.5898 25.0887 76.7768 24.9963 77.3451 24.9963H77.381V24.7094H74.3044V24.9953L74.3392 24.9963C75.0673 25.0224 75.2999 25.1626 75.8585 26.0309L77.8635 29.164V30.7463C77.8559 31.2919 77.6875 31.5168 76.9952 31.5255H76.7452V31.8114H79.924V31.5255H79.7425C79.06 31.5168 78.8807 31.3147 78.8731 30.7235L78.872 29.0293L80.7445 25.8712C81.0596 25.3452 81.3694 25.0539 82.129 24.9963L82.1616 24.9942V24.7105H79.5371ZM50.1811 28.5893C51.4211 28.5849 52.2111 28.0785 52.2155 26.7461C52.209 25.7116 51.7667 24.9313 50.0452 24.9258C49.842 24.9258 49.7029 24.9258 49.5182 24.9443V28.5719C49.6616 28.5882 49.7768 28.5914 49.8974 28.5914C49.9387 28.5914 49.9807 28.5909 50.0248 28.5904C50.0737 28.5899 50.1251 28.5893 50.1811 28.5893ZM52.8988 29.6312C53.3462 30.2006 53.8217 30.8058 53.8217 30.8051C54.3227 31.4029 54.5683 31.5398 55.2573 31.6572L55.2866 31.6626V31.931H55.2519C55.2441 31.931 55.2366 31.9307 55.2293 31.9305C55.2223 31.9302 55.2153 31.9299 55.2084 31.9299C53.6793 31.9343 53.4087 31.7376 52.5133 30.7193L51.8514 29.9031C51.744 29.7675 51.6376 29.6286 51.5369 29.4971C51.2423 29.1124 50.9967 28.7918 50.919 28.8055V28.7892L50.9146 28.8066C50.6745 28.849 50.3745 28.874 50.0692 28.874C49.8495 28.875 49.7033 28.8653 49.5487 28.855L49.5236 28.8533L49.5182 30.7193C49.5258 31.3811 49.7573 31.517 50.3821 31.5267H50.6777V31.8104H47.4218V31.5267H47.649C48.3064 31.517 48.5042 31.3746 48.5129 30.628L48.514 25.8909C48.5042 25.1986 48.3499 25.0356 47.7055 25.0258H47.4218V24.7411H47.4577C47.644 24.7411 48.0341 24.7194 48.4098 24.6986C48.5732 24.6895 48.7338 24.6806 48.8737 24.6737L48.92 24.6715C49.3506 24.6512 49.5865 24.64 50.293 24.64C52.3818 24.6422 53.3414 25.5072 53.3446 26.6788C53.3446 27.5558 52.8262 28.1948 51.9916 28.5078C52.034 28.5436 52.084 28.6012 52.1568 28.6871C52.2541 28.8107 52.5688 29.2112 52.8988 29.6312Z" fill="white"/>
</g>
<defs>
<clipPath id="clip0_4503_6553">
<rect width="89.2819" height="40" fill="white"/>
</clipPath>
</defs>
</svg>
