<svg width="84" height="36" viewBox="0 0 84 36" fill="none" xmlns="http://www.w3.org/2000/svg">
<g id="Vector" opacity="0.5">
<path d="M0.216652 0.0316445C27.9906 0.0307568 55.7646 0.0316445 83.5395 0.0316445C83.5412 11.9554 83.5395 23.8801 83.5403 35.8039C55.7646 35.8039 27.9897 35.8048 0.213989 35.8039C0.218428 23.8793 0.213989 11.9554 0.216652 0.0316445ZM0.814085 0.62819C0.817636 12.1516 0.813198 23.6751 0.816748 35.1985C28.1912 35.1967 55.5658 35.1976 82.9403 35.1985C82.9429 23.676 82.9376 12.1525 82.9429 0.629965C55.5666 0.62819 28.1904 0.631741 0.814085 0.62819Z" fill="black"/>
<path d="M49.8045 6.03618C49.9261 6.03796 50.0486 6.03974 50.172 6.04151C50.2625 6.95497 50.3495 7.86843 50.4427 8.78189C50.3504 8.78278 50.1649 8.78455 50.0726 8.78544C49.9696 8.29897 49.8986 7.79031 49.65 7.35178C49.4991 7.07659 49.1822 6.94165 48.8777 6.95586C47.9412 6.95053 47.0037 6.95852 46.0672 6.95497C46.069 9.6776 46.0681 12.4002 46.0681 15.1228C46.0699 15.4788 46.1329 15.9191 46.4924 16.0913C46.9558 16.3017 47.4813 16.2165 47.974 16.2316C47.974 16.3639 47.9749 16.4961 47.9767 16.6293C46.2208 16.6275 44.464 16.6293 42.7081 16.6275C42.7063 16.4953 42.7054 16.3639 42.7045 16.2325C43.2105 16.2165 43.7547 16.3044 44.2261 16.0736C44.5856 15.8712 44.6158 15.4105 44.6167 15.0438C44.6131 12.3478 44.622 9.65096 44.6122 6.95497C43.6641 6.95852 42.7161 6.94964 41.7689 6.95763C41.5106 6.95408 41.2442 7.04996 41.0969 7.27277C40.7844 7.71397 40.7249 8.26968 40.614 8.78544C40.4888 8.78455 40.3654 8.78367 40.2411 8.78278C40.3352 7.86754 40.4231 6.95142 40.5145 6.0353C40.6246 6.03707 40.7356 6.04062 40.8465 6.04329C40.9877 6.27143 41.2593 6.2954 41.5026 6.29185C43.8124 6.29185 46.1231 6.29185 48.433 6.29185C48.8582 6.28652 49.2896 6.32558 49.7077 6.22172C49.7317 6.17556 49.7805 6.08235 49.8045 6.03618Z" fill="black"/>
<path d="M22.6421 6.13571C24.3457 5.84898 26.1797 6.18453 27.5912 7.20541C28.6715 7.96618 29.4509 9.16371 29.6347 10.4784C29.7891 11.6511 29.5716 12.8744 29.0026 13.9139C28.3919 15.0422 27.371 15.929 26.1868 16.4128C24.762 17.0147 23.1286 17.0218 21.6594 16.5779C20.3296 16.1713 19.0948 15.3227 18.4042 14.0959C17.2004 11.9884 17.7757 9.09092 19.6026 7.52232C20.4521 6.77398 21.5307 6.3168 22.6421 6.13571ZM22.7345 6.58578C21.7074 6.74113 20.7966 7.38828 20.2426 8.25646C18.9191 10.3417 19.1685 13.3546 20.9422 15.107C22.0234 16.1962 23.6985 16.6578 25.1819 16.2583C26.0962 16.0115 26.8703 15.3609 27.3346 14.5442C28.0634 13.2827 28.2081 11.7407 27.9081 10.3302C27.6604 9.13885 27.0017 8.00701 25.9879 7.31016C25.0541 6.65236 23.8574 6.41534 22.7345 6.58578Z" fill="black"/>
<path d="M33.3515 6.37965C34.3928 5.89141 35.6321 5.95088 36.6902 6.35835C36.9477 6.45333 37.2593 6.51192 37.4741 6.29621C37.5682 6.29265 37.6632 6.28999 37.7591 6.28644C37.8665 7.00993 37.9526 7.73519 38.0547 8.45868C37.9393 8.45957 37.8247 8.46134 37.7102 8.46223C37.4572 7.8506 37.0498 7.29045 36.4843 6.93447C35.7155 6.43913 34.6387 6.33438 33.8602 6.85991C33.3018 7.23275 33.1145 8.01394 33.3853 8.6167C33.6303 9.15909 34.1088 9.54613 34.5819 9.88435C35.5913 10.5954 36.7266 11.1396 37.6197 12.006C38.1301 12.5005 38.526 13.16 38.5518 13.8853C38.6122 14.7002 38.2482 15.5231 37.6241 16.046C36.8225 16.7402 35.704 16.9808 34.6671 16.8574C34.0626 16.7881 33.4883 16.5706 32.8944 16.4526C32.7461 16.4108 32.644 16.5582 32.526 16.6186C32.423 16.6239 32.32 16.6283 32.217 16.6337C32.0972 15.7681 31.9756 14.9035 31.8575 14.038C31.9845 14.0371 32.1123 14.0362 32.2392 14.0353C32.3999 14.6656 32.7088 15.271 33.2095 15.698C33.9525 16.3602 35.0684 16.5449 35.9925 16.1854C36.6015 15.9705 37.1137 15.4379 37.2149 14.789C37.3454 14.1853 37.0737 13.5781 36.6423 13.1636C35.4714 12.014 33.8469 11.4485 32.7186 10.2465C32.2259 9.73078 31.8868 9.02682 31.9561 8.30067C32.0013 7.45645 32.6023 6.72764 33.3515 6.37965Z" fill="black"/>
<path d="M56.7073 6.10002C58.3603 5.87276 60.1153 6.24738 61.4664 7.24695C62.513 8.00683 63.2738 9.18128 63.4513 10.4711C63.6102 11.6616 63.3848 12.9053 62.7971 13.9545C62.1881 15.0597 61.1823 15.9297 60.0185 16.4082C58.6044 17.0092 56.9843 17.0207 55.5222 16.5919C54.0708 16.1641 52.7375 15.1938 52.0699 13.8116C51.0189 11.6092 51.7512 8.72677 53.7166 7.28157C54.5813 6.62288 55.6332 6.23495 56.7073 6.10002ZM56.5547 6.58649C55.5294 6.74095 54.6168 7.38277 54.0673 8.25273C53.1698 9.64289 53.0038 11.4361 53.4938 13.002C53.8116 14.0318 54.4508 14.9754 55.3447 15.5897C56.3966 16.3363 57.7904 16.5955 59.0358 16.2475C60.0008 15.9794 60.7971 15.255 61.2498 14.3735C61.8783 13.1733 62.0035 11.753 61.7505 10.4347C61.5321 9.30734 60.9631 8.2261 60.0602 7.49995C59.0962 6.70455 57.7815 6.39296 56.5547 6.58649Z" fill="black"/>
<path d="M6.07026 6.29368C7.37697 6.21822 8.68369 6.15697 9.99219 6.14277C11.0912 6.12057 12.2133 6.133 13.275 6.44548C13.8751 6.61414 14.4121 7.00652 14.7468 7.53293C15.1392 8.19073 15.1454 9.08644 14.6962 9.71938C14.3624 10.2209 13.8138 10.5379 13.2403 10.6905C14.1254 10.9746 14.9936 11.5206 15.3895 12.3941C15.9212 13.5854 15.4641 15.0767 14.4601 15.8721C13.7073 16.4767 12.7113 16.6595 11.7676 16.6294C9.82174 16.6285 7.87587 16.6302 5.93 16.6285C5.93088 16.4971 5.93177 16.3657 5.93266 16.2343C6.4644 16.2228 7.03609 16.2858 7.527 16.0408C7.87676 15.8482 7.91848 15.4061 7.92647 15.0474C7.92825 12.679 7.92913 10.3097 7.92647 7.94039C7.92736 7.51873 7.88475 6.95947 7.41958 6.78902C6.99259 6.62657 6.52654 6.68871 6.08002 6.67362C6.07647 6.54668 6.07381 6.42062 6.07026 6.29368ZM9.3841 6.57509C9.38321 7.90755 9.38321 9.24001 9.38499 10.5725C10.0898 10.5671 10.7956 10.5858 11.5013 10.5636C12.0419 10.5174 12.6252 10.394 13.0202 9.99368C13.3921 9.62617 13.4933 9.07223 13.4694 8.5689C13.4525 7.88447 13.0841 7.20536 12.4654 6.88845C11.5199 6.37801 10.4112 6.56266 9.3841 6.57509ZM9.38499 10.9755C9.38233 12.1846 9.37966 13.3936 9.38588 14.6027C9.38765 15.0767 9.52525 15.6218 9.97177 15.8659C10.4946 16.1447 11.1134 16.1065 11.6868 16.079C12.4565 16.0177 13.2448 15.6555 13.6345 14.9605C14.1041 14.0887 14.1281 12.9373 13.551 12.1091C13.1303 11.4904 12.421 11.1122 11.6904 11.0083C10.9252 10.9338 10.1529 10.9906 9.38499 10.9755Z" fill="black"/>
<path d="M65.1584 6.29087C66.0435 6.29353 66.9276 6.29264 67.8127 6.29175C70.3808 8.96644 72.9428 11.6473 75.5154 14.3185C75.5225 12.1631 75.5172 10.0086 75.5181 7.85325C75.5101 7.50526 75.4959 7.0614 75.1488 6.87054C74.7644 6.67702 74.3179 6.70898 73.9006 6.66992C73.898 6.54387 73.8962 6.4187 73.8953 6.29442C75.2082 6.28732 76.5212 6.29087 77.835 6.29264C77.8368 6.38674 77.8394 6.57582 77.8412 6.66992C77.4302 6.69655 76.9917 6.66548 76.6144 6.85457C76.3818 6.97618 76.3374 7.25936 76.3392 7.4955C76.3374 10.5785 76.3392 13.6616 76.3383 16.7446C76.1741 16.7437 76.0125 16.7437 75.851 16.7428C73.0174 13.7841 70.19 10.82 67.3591 7.85946C67.3662 10.2234 67.3555 12.5883 67.3644 14.9523C67.3813 15.3189 67.3795 15.7646 67.7008 16.0087C68.0905 16.2564 68.577 16.2138 69.02 16.2351C69.02 16.3664 69.0218 16.4987 69.0244 16.631C67.7239 16.6274 66.4234 16.6292 65.1229 16.6301C65.1229 16.4996 65.1238 16.37 65.1256 16.2404C65.5028 16.2253 65.9218 16.2324 66.2405 15.9963C66.5486 15.745 66.5459 15.3172 66.545 14.955C66.5361 12.322 66.5557 9.68816 66.5344 7.05519C66.1189 6.79598 65.6378 6.68856 65.154 6.66371C65.1549 6.53943 65.1566 6.41515 65.1584 6.29087Z" fill="black"/>
<path d="M52.8032 23.1504C53.1991 22.5068 54.0078 22.2564 54.7295 22.2937C55.113 22.2964 55.4788 22.418 55.8392 22.5343C56.0487 22.6151 56.2502 22.4801 56.4499 22.4331C56.5183 22.9373 56.5937 23.4398 56.6497 23.9458C56.4002 23.9751 56.3194 23.7611 56.2244 23.5836C55.8152 22.8113 54.773 22.3727 53.9723 22.8015C53.4983 23.0376 53.342 23.6972 53.6279 24.1348C53.9244 24.6098 54.4286 24.8903 54.8858 25.1886C55.5409 25.6049 56.2564 25.9964 56.7003 26.656C57.0509 27.1797 57.0837 27.8996 56.7633 28.4456C56.3975 29.0998 55.6412 29.4514 54.9133 29.4842C54.3966 29.5259 53.8968 29.3724 53.4033 29.2437C53.1867 29.1673 52.9807 29.3049 52.7703 29.336C52.6878 28.7519 52.6034 28.1695 52.5324 27.5845C52.599 27.5836 52.7313 27.5836 52.7979 27.5836C52.9594 28.205 53.374 28.7936 54.0007 29.0084C54.6585 29.2516 55.516 29.099 55.9199 28.4873C56.1827 28.0683 56.1321 27.4895 55.7877 27.1309C54.9674 26.2334 53.6989 25.8792 52.9426 24.9107C52.552 24.4216 52.4579 23.6892 52.8032 23.1504Z" fill="black"/>
<path d="M5.98504 22.459C6.94288 22.4626 7.90073 22.459 8.85946 22.4608C8.86035 22.5292 8.86124 22.6659 8.86212 22.7342C8.62066 22.7564 8.35435 22.7333 8.13864 22.8638C7.91937 23.0218 7.90783 23.3192 7.90517 23.5651C7.90783 24.5718 7.90517 25.5785 7.90694 26.5842C7.9096 27.2181 8.11289 27.8927 8.61534 28.31C9.1888 28.7902 9.97976 28.8923 10.7015 28.8328C11.3007 28.7858 11.9194 28.5701 12.3145 28.096C12.6837 27.6566 12.8027 27.0627 12.8 26.5017C12.7974 25.5935 12.8062 24.6845 12.7956 23.7755C12.7761 23.4914 12.7858 23.1594 12.5683 22.9446C12.3313 22.7573 12.0117 22.7759 11.7286 22.7298C11.7312 22.6623 11.7365 22.5265 11.7392 22.4581C12.6163 22.4626 13.4942 22.459 14.3713 22.4599C14.3731 22.5496 14.3757 22.6383 14.3784 22.728C14.1085 22.7742 13.7898 22.76 13.5901 22.9801C13.3939 23.1816 13.3859 23.4817 13.3797 23.7462C13.3753 24.7511 13.385 25.756 13.377 26.76C13.3593 27.5803 12.9758 28.4023 12.3011 28.8834C11.535 29.4311 10.5479 29.5519 9.63089 29.4684C8.85413 29.4027 8.06229 29.1027 7.54653 28.4973C7.12841 28.0232 6.93134 27.3876 6.92335 26.7618C6.91802 25.6681 6.92601 24.5736 6.92158 23.4799C6.91359 23.258 6.90293 22.9899 6.70231 22.8505C6.48038 22.7449 6.22649 22.76 5.9877 22.7333C5.98681 22.665 5.98504 22.5274 5.98504 22.459Z" fill="black"/>
<path d="M15.4241 22.7261C15.4286 22.6364 15.4321 22.5468 15.4365 22.4571C16.0269 22.4624 16.6181 22.458 17.2084 22.4606C18.8977 24.2236 20.5897 25.984 22.2791 27.7479C22.2773 26.3266 22.2799 24.9054 22.2773 23.4842C22.272 23.2667 22.2675 22.9924 22.0518 22.8708C21.7926 22.7438 21.4908 22.7669 21.2102 22.7358C21.2111 22.6666 21.2129 22.5281 21.2138 22.4589C22.0873 22.4562 22.9617 22.4615 23.8352 22.4571C23.8361 22.5263 23.8397 22.6666 23.8405 22.7367C23.5751 22.7571 23.2946 22.7394 23.0469 22.8495C22.8756 22.9258 22.8507 23.13 22.8516 23.2951C22.8507 25.3315 22.8578 27.3688 22.8472 29.4052C22.6972 29.3795 22.5081 29.431 22.406 29.2881C20.5755 27.3813 18.7548 25.4647 16.9252 23.557C16.9146 25.0696 16.9235 26.5814 16.9199 28.0941C16.9394 28.3551 16.8977 28.6809 17.1179 28.8708C17.3744 29.051 17.7144 29.0084 18.0118 29.0395C18.0136 29.1079 18.0162 29.2446 18.018 29.3129C17.1445 29.3138 16.2719 29.3147 15.3993 29.312C15.4037 29.2446 15.4135 29.1096 15.4188 29.0422C15.6558 29.0209 15.9141 29.0324 16.1236 28.8992C16.3269 28.7661 16.35 28.5007 16.3527 28.2796C16.3509 26.514 16.3544 24.7492 16.35 22.9835C16.065 22.8255 15.7464 22.7545 15.4241 22.7261Z" fill="black"/>
<path d="M25.323 22.4571C26.2303 22.4615 27.1384 22.4589 28.0457 22.4589C28.0457 22.5272 28.0465 22.6657 28.0465 22.7341C27.7731 22.766 27.4207 22.7234 27.2423 22.9826C27.1056 23.2099 27.1287 23.4895 27.1136 23.7443C27.1153 25.1957 27.1144 26.6471 27.1136 28.0985C27.126 28.3276 27.11 28.5806 27.2343 28.7838C27.418 29.0395 27.7669 29.0102 28.0457 29.0439C28.0465 29.1105 28.0492 29.2446 28.051 29.312C27.1384 29.3129 26.2267 29.3103 25.315 29.3156C25.3168 29.2481 25.3186 29.1123 25.3195 29.0448C25.5485 28.9969 25.8344 29.0226 25.9995 28.8265C26.1468 28.6152 26.1202 28.3409 26.1362 28.0968C26.1388 26.5867 26.1371 25.0767 26.1371 23.5667C26.1273 23.3528 26.1388 23.1078 25.9853 22.9365C25.8148 22.7536 25.5414 22.7776 25.3159 22.7287C25.3177 22.6613 25.3213 22.5254 25.323 22.4571Z" fill="black"/>
<path d="M29.0488 22.4581C30.0723 22.4626 31.0959 22.4572 32.1185 22.4608C32.1194 22.5292 32.1203 22.665 32.1203 22.7333C31.7528 22.7821 31.2903 22.7227 31.0311 23.0431C30.9858 23.2162 31.0657 23.3885 31.1216 23.55C31.7545 25.1062 32.383 26.6659 33.0027 28.2274C33.5974 26.7059 34.1718 25.1754 34.7586 23.6494C34.8243 23.4213 34.9743 23.1221 34.7825 22.9189C34.5207 22.7244 34.1691 22.7671 33.862 22.736C33.8611 22.6667 33.8611 22.5291 33.8602 22.4599C34.7293 22.4617 35.5975 22.459 36.4657 22.4617C36.4674 22.5274 36.471 22.6588 36.4719 22.7253C36.2659 22.7608 36.0396 22.7653 35.8629 22.8922C35.5913 23.0831 35.4466 23.3973 35.3285 23.6974C34.589 25.6308 33.8354 27.5589 33.0932 29.4915C32.8917 29.4915 32.6902 29.4924 32.4887 29.4924C31.68 27.4844 30.8846 25.471 30.0697 23.4657C29.9915 23.2855 29.9161 23.0991 29.7883 22.9482C29.5992 22.7413 29.2938 22.7662 29.0417 22.7262C29.0435 22.6588 29.047 22.5247 29.0488 22.4581Z" fill="black"/>
<path d="M37.19 22.7368C37.1909 22.6436 37.1927 22.5512 37.1954 22.4589C38.9646 22.4598 40.7338 22.458 42.503 22.4598C42.5332 22.9907 42.566 23.5206 42.6007 24.0506C42.5341 24.0524 42.4018 24.055 42.3352 24.0559C42.2544 23.7452 42.2216 23.4026 42.0254 23.1371C41.9073 22.9756 41.6996 22.9276 41.5105 22.933C40.7702 22.9294 40.0298 22.9338 39.2904 22.933C39.2806 23.7994 39.285 24.6658 39.2886 25.5331C39.9721 25.5233 40.6566 25.5553 41.3392 25.5171C41.7342 25.4816 41.7582 25.0102 41.8097 24.7111C41.8781 24.7093 42.0148 24.7075 42.0831 24.7066C42.0778 25.4239 42.0822 26.142 42.0831 26.8593C42.0148 26.8611 41.8781 26.8629 41.8097 26.8646C41.7422 26.5602 41.7334 26.0764 41.3339 26.0222C40.6521 25.9858 39.9686 26.016 39.2859 26.008C39.2895 26.7643 39.2779 27.5198 39.2895 28.2761C39.2948 28.4785 39.3143 28.7608 39.5576 28.8185C40.0831 28.8878 40.6175 28.8327 41.1466 28.8514C41.5123 28.8398 41.934 28.8975 42.2402 28.6525C42.5456 28.3906 42.6308 27.9778 42.7578 27.6157C42.8235 27.6157 42.9549 27.6165 43.0205 27.6165C42.9646 28.182 42.9043 28.7475 42.8448 29.313C40.8909 29.3156 38.9379 29.313 36.9841 29.3139C36.9841 29.2215 36.985 29.1292 36.9867 29.0378C37.34 29.0236 37.7227 29.0706 38.0484 28.9037C38.3281 28.7404 38.2917 28.3764 38.3121 28.0995C38.3032 26.6179 38.321 25.1363 38.3103 23.6547C38.2935 23.3741 38.3254 23.0049 38.036 22.8468C37.7759 22.7146 37.4714 22.751 37.19 22.7368Z" fill="black"/>
<path d="M58.8858 22.4589C59.794 22.4598 60.7021 22.4598 61.6111 22.4589C61.612 22.5486 61.6138 22.6391 61.6155 22.7288C61.3226 22.767 60.9356 22.7252 60.7731 23.0333C60.6737 23.2552 60.6888 23.5073 60.679 23.7452C60.6799 25.225 60.6781 26.7057 60.6834 28.1856C60.6923 28.4066 60.6888 28.6516 60.8299 28.8363C61.0359 29.0387 61.351 29.0111 61.6155 29.0449C61.6155 29.1123 61.6147 29.2455 61.6147 29.313C60.7021 29.3139 59.7904 29.3139 58.8787 29.3121C58.8796 29.2455 58.8814 29.1132 58.8823 29.0467C59.0784 29.0156 59.2835 29.0032 59.4655 28.9162C59.6723 28.7786 59.683 28.5025 59.6919 28.2797C59.6936 26.7093 59.6901 25.1389 59.6936 23.5677C59.6839 23.3342 59.7105 23.0413 59.493 22.8877C59.311 22.7723 59.0873 22.7643 58.8814 22.7243C58.8823 22.6578 58.8849 22.5255 58.8858 22.4589Z" fill="black"/>
<path d="M70.2468 22.459C71.2419 22.4608 72.238 22.4581 73.2331 22.4599C73.2331 22.5283 73.2331 22.6641 73.2331 22.7324C73.0058 22.7537 72.7688 22.7475 72.554 22.8319C72.3613 22.9757 72.538 23.1985 72.6223 23.3503C73.1985 24.2424 73.7737 25.1346 74.3551 26.0232C74.8505 25.1958 75.3316 24.3596 75.8261 23.5323C75.9237 23.3441 76.0684 23.1328 75.9948 22.9118C75.8119 22.7253 75.526 22.7653 75.2908 22.7289C75.2926 22.6614 75.297 22.5256 75.2988 22.4581C76.151 22.459 77.0032 22.4572 77.8563 22.459C77.8465 22.5238 77.8288 22.6534 77.819 22.7182C77.598 22.7813 77.3636 22.799 77.1541 22.8993C76.8594 23.0325 76.6517 23.2961 76.4883 23.5669C75.9238 24.5096 75.3716 25.4595 74.8026 26.4005C74.7404 26.5114 74.6632 26.6233 74.6747 26.7565C74.6685 27.2624 74.6738 27.7684 74.673 28.2744C74.6783 28.4919 74.6907 28.752 74.8824 28.895C75.115 29.053 75.4115 29.0219 75.6787 29.0423C75.6787 29.1098 75.6796 29.2456 75.6796 29.3131C74.6561 29.314 73.6334 29.3157 72.6117 29.3122C72.6126 29.2447 72.6161 29.1107 72.6179 29.0432C72.9002 29.0201 73.218 29.061 73.4674 28.8941C73.7062 28.7059 73.684 28.3668 73.6894 28.0942C73.6743 27.6504 73.7116 27.2039 73.6698 26.7627C73.0902 25.803 72.4634 24.8709 71.8651 23.9229C71.6405 23.5882 71.4443 23.2189 71.1212 22.9686C70.8735 22.7697 70.5433 22.7671 70.2441 22.728C70.245 22.6614 70.2459 22.5265 70.2468 22.459Z" fill="black"/>
<path d="M63.1566 22.2599C63.296 22.2892 63.4318 22.3407 63.5454 22.4321C65.2818 22.4952 67.0226 22.4383 68.7617 22.4614C69.0466 22.4943 69.2978 22.3434 69.5597 22.2581C69.613 22.8858 69.6875 23.5107 69.739 24.1383C69.6733 24.1401 69.542 24.1428 69.4754 24.1436C69.3591 23.7388 69.3671 23.1521 68.9205 22.9612C68.2343 22.8973 67.5402 22.955 66.8513 22.9328C66.8477 24.7118 66.8504 26.4908 66.8495 28.2689C66.854 28.5103 66.8726 28.8263 67.1283 28.94C67.4345 29.0749 67.7816 29.0225 68.1074 29.0376C68.1101 29.1291 68.1136 29.2214 68.1181 29.3137C66.9445 29.3137 65.7709 29.3119 64.5974 29.3146C64.6 29.2453 64.6036 29.1078 64.6054 29.0385C64.9383 29.0216 65.2916 29.074 65.6049 28.9346C65.8384 28.8068 65.8597 28.5077 65.8659 28.2715C65.8668 26.4917 65.8641 24.7127 65.8668 22.9337C65.2916 22.9346 64.7163 22.9337 64.142 22.9319C63.9529 22.9363 63.7212 22.923 63.5934 23.0908C63.3563 23.39 63.3279 23.7868 63.2374 24.1445C63.1708 24.1436 63.0377 24.1419 62.9711 24.141C63.0385 23.5143 63.0945 22.8866 63.1566 22.2599Z" fill="black"/>
<path d="M44.3166 22.4898C45.4502 22.457 46.5865 22.3256 47.721 22.4179C48.3797 22.4889 49.0757 22.6709 49.5595 23.152C50.1143 23.7015 50.1826 24.6274 49.7983 25.2906C49.5692 25.69 49.1689 25.9475 48.7579 26.1294C49.2399 26.726 49.7059 27.335 50.1844 27.9342C50.4587 28.2786 50.7126 28.6577 51.0899 28.9009C51.3358 29.0642 51.6341 29.1095 51.9164 29.1734C51.9164 29.2409 51.9164 29.3749 51.9164 29.4424C51.4725 29.4211 51.0189 29.4397 50.5866 29.3235C50.2226 29.2302 49.9137 28.9994 49.6545 28.7358C48.954 28.015 48.4001 27.169 47.7334 26.4197C47.278 26.4907 46.8164 26.4925 46.3575 26.4703C46.353 27.1033 46.3264 27.7362 46.3486 28.3692C46.3584 28.5778 46.4187 28.8192 46.6131 28.9311C46.8786 29.0607 47.183 29.0234 47.4689 29.042C47.468 29.1095 47.4662 29.2444 47.4653 29.3119C46.4125 29.3128 45.3606 29.3163 44.3086 29.3119C44.3095 29.2453 44.3131 29.1122 44.3148 29.0456C44.5776 29.0234 44.8608 29.0536 45.104 28.9293C45.357 28.774 45.3517 28.4437 45.3677 28.1827C45.3721 26.6745 45.3668 25.1663 45.3712 23.6589C45.3597 23.3713 45.3694 22.9905 45.0676 22.8431C44.827 22.7526 44.5616 22.7765 44.3104 22.7552C44.3113 22.6895 44.3148 22.5564 44.3166 22.4898ZM46.3468 22.6887C46.3415 23.856 46.3424 25.0234 46.3459 26.1898C46.9931 26.2031 47.6997 26.252 48.2714 25.888C48.7224 25.6057 48.9292 25.0589 48.9354 24.544C48.962 23.9909 48.8253 23.3642 48.3397 23.034C47.7574 22.6425 47.0188 22.6629 46.3468 22.6887Z" fill="black"/>
</g>
</svg>
