<svg width="161" height="38" viewBox="0 0 161 38" fill="none" xmlns="http://www.w3.org/2000/svg">
<g id="certik-logotype-h-w.b7600cfc 1" clip-path="url(#clip0_4503_6617)">
<g id="Clip path group">
<mask id="mask0_4503_6617" style="mask-type:luminance" maskUnits="userSpaceOnUse" x="0" y="0" width="160" height="38">
<g id="clip0_422_7349">
<path id="Vector" d="M159.981 0H0.566406V38H159.981V0Z" fill="white"/>
</g>
</mask>
<g mask="url(#mask0_4503_6617)">
<g id="Group">
<path id="Vector_2" fill-rule="evenodd" clip-rule="evenodd" d="M33.4305 5.83382L33.6304 7.04269C33.7881 8.16726 33.861 9.30208 33.8489 10.4376C33.8475 12.9469 33.5449 15.447 32.9472 17.8841C32.139 21.1951 30.7313 24.3301 28.7939 27.134C26.555 30.3541 23.3178 33.5213 18.5992 36.0661L18.0219 36.3773L17.4446 36.0661C12.726 33.5213 9.49011 30.3541 7.24992 27.134C5.31247 24.3301 3.9048 21.1951 3.09657 17.8841C2.49909 15.4474 2.19637 12.9478 2.19494 10.4389C2.18274 9.30341 2.25576 8.16858 2.4134 7.04401L2.61332 5.83515C2.63038 5.73656 2.62777 5.63557 2.60563 5.53799C2.5835 5.44043 2.54227 5.3482 2.48432 5.26664C2.42637 5.18507 2.35286 5.11578 2.26802 5.06276C2.18317 5.00973 2.08868 4.97402 1.98997 4.95769C1.89127 4.94135 1.79031 4.94471 1.69291 4.96758C1.5955 4.99043 1.50359 5.03236 1.42247 5.09091C1.34134 5.14945 1.2726 5.22348 1.22021 5.30871C1.16782 5.39396 1.13281 5.48872 1.11721 5.58755L0.917286 6.79641C0.745325 8.00276 0.665214 9.22042 0.677644 10.4389C0.678597 13.0714 0.995983 15.6941 1.62297 18.2509C2.47645 21.7423 3.96221 25.0478 6.0067 28.0039C8.37002 31.4054 11.7978 34.75 16.731 37.4047L17.6684 37.9091C17.7788 37.9689 17.9023 38.0001 18.0278 38.0001C18.1533 38.0001 18.2769 37.9689 18.3873 37.9091L19.3234 37.4047C24.2513 34.7487 27.6804 31.4054 30.0477 28.0039C32.0912 25.048 33.576 21.743 34.4287 18.2522C35.0557 15.6955 35.3731 13.0727 35.3741 10.4403C35.3865 9.22175 35.3063 8.00409 35.1345 6.79774L34.9345 5.58888C34.9189 5.49004 34.8839 5.39528 34.8315 5.31004C34.7792 5.2248 34.7104 5.15077 34.6293 5.09223C34.5481 5.03368 34.4562 4.99176 34.3588 4.9689C34.2614 4.94603 34.1605 4.94268 34.0617 4.95901C33.963 4.97535 33.8685 5.01105 33.7837 5.06408C33.6988 5.1171 33.6253 5.18639 33.5675 5.26796C33.5095 5.34952 33.4683 5.44175 33.4461 5.53932C33.424 5.6369 33.4214 5.73788 33.4385 5.83648L33.4305 5.83382Z" fill="white"/>
<path id="Vector_3" fill-rule="evenodd" clip-rule="evenodd" d="M6.75626 5.01025L18.0237 1.56772L29.5428 5.0844C29.7356 5.14205 29.9435 5.12096 30.1209 5.02575C30.2981 4.93053 30.4306 4.76894 30.489 4.57634C30.5475 4.38374 30.5273 4.17582 30.4328 3.99807C30.3384 3.82033 30.1774 3.68724 29.985 3.62794L18.2448 0.0437383C18.1008 -0.000419287 17.9467 -0.000419287 17.8026 0.0437383L6.31271 3.55115C6.21668 3.57986 6.12729 3.62724 6.04963 3.69059C5.97197 3.75394 5.9076 3.832 5.86019 3.9203C5.81278 4.00859 5.78328 4.10539 5.77338 4.20511C5.76348 4.30484 5.77337 4.40554 5.80248 4.50143C5.8316 4.59733 5.87937 4.68653 5.94305 4.76392C6.00672 4.8413 6.08506 4.90534 6.17356 4.95238C6.26206 4.9994 6.35898 5.02849 6.45873 5.03797C6.5585 5.04744 6.65917 5.03713 6.75494 5.0076L6.75626 5.01025Z" fill="white"/>
<path id="Vector_4" fill-rule="evenodd" clip-rule="evenodd" d="M1.19245 6.0563L17.3462 37.5848C17.4092 37.7081 17.5047 37.8117 17.6224 37.8844C17.7402 37.9571 17.8755 37.9963 18.0139 37.9975C18.1523 37.9988 18.2883 37.9621 18.4073 37.8914C18.5263 37.8207 18.6237 37.7188 18.6888 37.5967L28.5399 19.1724L28.5545 19.1433L34.8598 6.03512C34.9452 5.85422 34.9559 5.6469 34.8893 5.45823C34.8228 5.26956 34.6844 5.11477 34.5043 5.02755C34.3243 4.94032 34.1171 4.92767 33.9278 4.99238C33.7384 5.05708 33.5824 5.1939 33.4933 5.37308L27.1986 18.4707L18.044 35.604L2.54168 5.36249C2.497 5.2727 2.43496 5.19266 2.35912 5.12703C2.28329 5.06139 2.19519 5.01145 2.09991 4.98011C2.00465 4.94876 1.90411 4.93664 1.80411 4.94443C1.70412 4.95223 1.60667 4.97979 1.51741 5.02551C1.42814 5.07124 1.34884 5.13422 1.2841 5.21082C1.21935 5.28741 1.17045 5.37609 1.14022 5.47172C1.11 5.56735 1.09905 5.66803 1.10801 5.76792C1.11698 5.86781 1.14568 5.96493 1.19245 6.05365V6.0563Z" fill="white"/>
<path id="Vector_5" fill-rule="evenodd" clip-rule="evenodd" d="M8.92513 20.0972H26.8885C27.0895 20.0972 27.2822 20.0174 27.4244 19.8752C27.5666 19.7331 27.6465 19.5403 27.6465 19.3392C27.6465 19.1382 27.5666 18.9454 27.4244 18.8032C27.2822 18.6611 27.0895 18.5812 26.8885 18.5812H8.92513C8.72409 18.5812 8.53129 18.6611 8.38913 18.8032C8.24698 18.9454 8.16711 19.1382 8.16711 19.3392C8.16711 19.5403 8.24698 19.7331 8.38913 19.8752C8.53129 20.0174 8.72409 20.0972 8.92513 20.0972ZM59.0295 13.5565H47.3436C47.1416 13.5575 46.9482 13.6383 46.8054 13.781C46.6626 13.9238 46.582 14.1171 46.5809 14.3191V23.6987C46.5822 23.9004 46.6631 24.0937 46.8058 24.2364C46.9485 24.3791 47.1417 24.4599 47.3436 24.4613H59.0295V26.0501H47.3436C47.0352 26.0515 46.7297 25.9919 46.4445 25.8745C46.1594 25.7571 45.9003 25.5845 45.6823 25.3665C45.4643 25.1485 45.2917 24.8894 45.1742 24.6043C45.0569 24.3191 44.9973 24.0136 44.9987 23.7053V14.3258C44.9973 14.0174 45.0569 13.7119 45.1742 13.4268C45.2917 13.1416 45.4643 12.8825 45.6823 12.6645C45.9003 12.4465 46.1594 12.2739 46.4445 12.1565C46.7297 12.0391 47.0352 11.9795 47.3436 11.9809H59.0295V13.5565ZM80.9729 11.9729V13.5618H69.7185V18.2052H78.7643V19.8073H69.7172V24.4587H80.9716V26.0475H68.1283V11.9729H80.9729Z" fill="white"/>
<path id="Vector_6" d="M104.148 14.3376V18.4607C104.15 18.7689 104.09 19.0744 103.972 19.3595C103.854 19.6445 103.682 19.9035 103.464 20.1215C103.246 20.3395 102.987 20.5121 102.702 20.6295C102.417 20.7469 102.111 20.8068 101.803 20.8056H99.6543L104.07 26.0421H101.979L97.5823 20.8056H92.4183C92.163 20.7925 91.9083 20.7665 91.6556 20.7275V26.0421H90.0668V11.9927H101.791C102.1 11.9915 102.405 12.0513 102.69 12.1687C102.975 12.2861 103.234 12.4588 103.452 12.6768C103.67 12.8948 103.843 13.1538 103.96 13.4388C104.077 13.7239 104.137 14.0293 104.136 14.3376H104.148ZM92.4236 19.2035H101.803C101.901 19.2047 101.998 19.1864 102.089 19.1494C102.179 19.1126 102.262 19.0579 102.331 18.9887C102.401 18.9194 102.455 18.8371 102.492 18.7464C102.529 18.6557 102.547 18.5585 102.546 18.4607V14.3376C102.547 14.2383 102.529 14.1396 102.493 14.0474C102.456 13.9551 102.401 13.871 102.331 13.8001C102.264 13.7274 102.182 13.6697 102.091 13.631C102 13.5921 101.901 13.5731 101.802 13.5749H92.4223C92.2203 13.576 92.027 13.6567 91.8841 13.7995C91.7413 13.9423 91.6607 14.1357 91.6596 14.3376V18.4607C91.6576 18.5599 91.6765 18.6583 91.7154 18.7496C91.7542 18.8409 91.8119 18.9229 91.8847 18.9903C91.9558 19.0598 92.0401 19.1146 92.1326 19.1511C92.2252 19.1878 92.3241 19.2056 92.4236 19.2035Z" fill="white"/>
<path id="Vector_7" fill-rule="evenodd" clip-rule="evenodd" d="M112.552 11.9729H126.615V13.5618H120.393V26.0488H118.803V13.5618H112.552V11.9729ZM135.14 26.0422V11.9729H136.729V26.0422H135.14ZM157.846 11.9729H159.879L153.997 19.0076L159.898 26.0422H157.846L152.609 19.8086H148.076V26.0422H146.476V11.9729H148.079V18.2052H152.612L157.846 11.9729Z" fill="white"/>
</g>
</g>
</g>
</g>
<defs>
<clipPath id="clip0_4503_6617">
<rect width="159.6" height="38" fill="white" transform="translate(0.566406)"/>
</clipPath>
</defs>
</svg>
