<svg xmlns="http://www.w3.org/2000/svg" width="118" height="37" viewBox="0 0 118 37" fill="none">
    <g opacity="0.4" clip-path="url(#clip0_4701_3267)">
        <path d="M40.6691 18.2678C40.6352 17.4304 40.7674 16.5945 41.0581 15.8085C41.3488 15.0224 41.7923 14.3017 42.363 13.6879C42.9337 13.0741 43.6203 12.5795 44.3832 12.2324C45.146 11.8853 45.9701 11.6927 46.8077 11.6658H47.068C50.3055 11.6658 52.2163 13.5702 52.7813 15.7984L50.7689 16.4713C50.5881 15.641 50.1149 14.9033 49.4355 14.3929C48.7561 13.8825 47.9158 13.6333 47.068 13.6908C44.9731 13.6908 42.8719 15.2207 42.8719 18.3059C42.8719 21.391 44.9224 22.8638 47.0934 22.8638C47.9454 22.8871 48.7807 22.6239 49.4654 22.1164C50.1502 21.6088 50.645 20.8863 50.8705 20.0643L52.8448 20.6991C52.504 21.953 51.746 23.0532 50.6958 23.8184C49.6456 24.5835 48.366 24.9678 47.068 24.9079C45.4005 24.9385 43.7892 24.3057 42.5881 23.1487C41.387 21.9916 40.6945 20.405 40.6628 18.7375C40.6564 18.5852 40.6628 18.4265 40.6691 18.2678Z" fill="black"/>
        <path d="M56.7599 24.6159H54.6777V11.6277H56.7599V16.7062C57.0622 16.3476 57.4423 16.0629 57.8714 15.8737C58.3005 15.6844 58.7671 15.5957 59.2357 15.6143C61.3877 15.6143 62.4097 17.1569 62.4097 19.0803V24.6159H60.4037V19.4485C60.4638 19.008 60.3484 18.5616 60.0825 18.2053C59.8165 17.8491 59.4212 17.6116 58.9817 17.5441C58.8572 17.5313 58.7317 17.5313 58.6072 17.5441C58.1257 17.5441 57.6639 17.7354 57.3234 18.0759C56.9829 18.4163 56.7916 18.8781 56.7916 19.3597C56.7885 19.4125 56.7885 19.4655 56.7916 19.5184L56.7599 24.6159Z" fill="black"/>
        <path d="M67.0829 19.6136L69.3174 19.2644C69.8252 19.2009 69.9522 18.9407 69.9522 18.6296C69.9522 17.8932 69.457 17.3028 68.3017 17.3028C67.8653 17.2676 67.4327 17.4057 67.0976 17.6874C66.7624 17.969 66.5519 18.3714 66.5115 18.8073V18.9026L64.6071 18.4772C64.7658 16.9664 66.137 15.6206 68.2826 15.6206C70.9742 15.6206 71.9963 17.1441 71.9963 18.9216V23.2574C71.9941 23.7272 72.0302 24.1963 72.1042 24.6603H70.1998C70.1311 24.292 70.1035 23.9173 70.1172 23.543C69.8282 23.9879 69.4275 24.3492 68.9552 24.5909C68.483 24.8326 67.9556 24.9463 67.4256 24.9206C66.7019 24.9803 65.984 24.7505 65.4294 24.2817C64.8748 23.8128 64.5289 23.143 64.4674 22.4194C64.4674 22.375 64.4674 22.3305 64.4674 22.2924C64.4357 20.6864 65.5847 19.823 67.0829 19.6136ZM69.9649 21.0165V20.6165L67.6859 20.9593C67.3765 20.9692 67.0829 21.0982 66.8664 21.3194C66.65 21.5406 66.5273 21.8369 66.5242 22.1464C66.5267 22.2998 66.5596 22.4512 66.6212 22.5917C66.6827 22.7322 66.7717 22.859 66.8827 22.9648C66.9938 23.0705 67.1249 23.1531 67.2682 23.2077C67.4116 23.2623 67.5644 23.2878 67.7177 23.2827H67.8129C68.0727 23.3099 68.3354 23.2855 68.5857 23.2107C68.8361 23.136 69.0691 23.0124 69.2715 22.8472C69.4739 22.682 69.6416 22.4784 69.765 22.248C69.8883 22.0177 69.9649 21.7653 69.9903 21.5053C69.9993 21.3417 69.9887 21.1776 69.9585 21.0165H69.9649Z" fill="black"/>
        <path d="M75.5387 11.45C75.7176 11.4474 75.8953 11.4803 76.0615 11.5466C76.2277 11.613 76.3791 11.7115 76.5071 11.8366C76.6351 11.9616 76.7371 12.1107 76.8073 12.2753C76.8776 12.44 76.9145 12.6168 76.9162 12.7957C76.9162 13.0636 76.837 13.3255 76.6885 13.5485C76.5401 13.7714 76.329 13.9455 76.0819 14.0489C75.8348 14.1523 75.5626 14.1803 75.2996 14.1294C75.0366 14.0785 74.7945 13.951 74.6038 13.7629C74.4131 13.5748 74.2822 13.3345 74.2277 13.0723C74.1731 12.81 74.1973 12.5375 74.2972 12.2889C74.3972 12.0404 74.5683 11.8269 74.7892 11.6754C75.0101 11.5239 75.2708 11.441 75.5387 11.4373V11.45ZM74.523 24.654V15.8809H76.6051V24.6159L74.523 24.654Z" fill="black"/>
        <path d="M81.3473 24.6158H79.2715V15.8808H81.2965V17.0425C81.5605 16.5964 81.9397 16.2296 82.3943 15.9805C82.8489 15.7315 83.3621 15.6093 83.8802 15.6269C86.0132 15.6269 87.0542 17.1695 87.0542 19.093V24.6158H84.9784V19.4485C84.9784 18.3756 84.4896 17.5059 83.1819 17.5059C82.9401 17.5076 82.7011 17.5569 82.4784 17.6509C82.2556 17.745 82.0536 17.882 81.8839 18.0541C81.7141 18.2262 81.5799 18.4301 81.4889 18.6541C81.3979 18.8781 81.352 19.1178 81.3537 19.3596C81.3537 19.4294 81.3537 19.4992 81.3537 19.5691L81.3473 24.6158Z" fill="black"/>
        <path d="M89.5684 24.6159V11.6277H91.6505V24.6159H89.5684Z" fill="black"/>
        <path d="M95.3634 11.45C95.6314 11.4487 95.8936 11.5271 96.117 11.6752C96.3403 11.8233 96.5146 12.0344 96.6177 12.2817C96.7209 12.5291 96.7482 12.8015 96.6962 13.0643C96.6442 13.3272 96.5153 13.5687 96.3258 13.7582C96.1364 13.9477 95.8948 14.0766 95.632 14.1286C95.3691 14.1805 95.0967 14.1532 94.8494 14.0501C94.602 13.947 94.3909 13.7727 94.2428 13.5493C94.0947 13.326 94.0163 13.0637 94.0176 12.7958C94.0209 12.4399 94.1638 12.0995 94.4154 11.8478C94.6671 11.5961 95.0075 11.4533 95.3634 11.45ZM94.3414 24.654V15.8809H96.4045V24.6159L94.3414 24.654Z" fill="black"/>
        <path d="M101.178 24.6159H99.0957V15.881H101.121V17.0427C101.385 16.597 101.765 16.2306 102.219 15.9816C102.673 15.7326 103.186 15.6101 103.704 15.627C105.837 15.627 106.878 17.1696 106.878 19.0931V24.6159H104.796V19.4486C104.856 19.0081 104.741 18.5616 104.475 18.2054C104.209 17.8491 103.814 17.6117 103.374 17.5442C103.248 17.5314 103.12 17.5314 102.993 17.5442C102.508 17.5492 102.045 17.7453 101.704 18.09C101.363 18.4347 101.172 18.9001 101.172 19.3851C101.165 19.459 101.165 19.5334 101.172 19.6073L101.178 24.6159Z" fill="black"/>
        <path d="M113.983 19.5691L117.646 24.6476H115.107L112.568 21.0482L111.495 22.1782V24.6159H109.432V11.6277H111.495V19.4104L114.847 15.8809H117.608L113.983 19.5691Z" fill="black"/>
        <path d="M16.0186 8.11087L25.0202 13.2782V23.6637L16.044 28.8628L7.04879 23.7081V13.329L16.0186 8.11087ZM16.0186 0.493164L12.7176 2.39759L3.72874 7.61572L0.427734 9.52015V27.5297L3.72874 29.4341L12.7303 34.6014L16.0313 36.5059L19.3323 34.6014L28.3022 29.396L31.6032 27.4916V9.45666L28.3022 7.55224L19.3069 2.39759L16.0059 0.493164H16.0186Z" fill="black"/>
    </g>
    <defs>
        <clipPath id="clip0_4701_3267">
            <rect width="117.217" height="36" fill="white" transform="translate(0.427734 0.493164)"/>
        </clipPath>
    </defs>
</svg>
