<svg width="131" height="40" viewBox="0 0 131 40" fill="none" xmlns="http://www.w3.org/2000/svg">
<g id="Chainlink Logo Blue 1" clip-path="url(#clip0_4389_24634)">
<g id="Layer 2">
<g id="Layer 1">
<path id="Vector" d="M44.7116 19.7496C44.6739 18.8192 44.8208 17.8905 45.1438 17.0171C45.4669 16.1437 45.9596 15.3429 46.5938 14.6609C47.2279 13.9789 47.9907 13.4293 48.8383 13.0436C49.686 12.658 50.6016 12.444 51.5323 12.4141H51.8215C55.4187 12.4141 57.5418 14.5301 58.1696 17.0058L55.9336 17.7535C55.7328 16.8309 55.2069 16.0113 54.452 15.4442C53.6971 14.877 52.7635 14.6002 51.8215 14.6641C49.4939 14.6641 47.1592 16.364 47.1592 19.7919C47.1592 23.2199 49.4374 24.8563 51.8497 24.8563C52.7964 24.8822 53.7244 24.5898 54.4853 24.0258C55.2462 23.4619 55.7959 22.659 56.0465 21.7457L58.2401 22.4511C57.8615 23.8443 57.0192 25.0668 55.8524 25.9169C54.6855 26.7671 53.2637 27.1941 51.8215 27.1275C49.9688 27.1615 48.1783 26.4584 46.8438 25.1728C45.5092 23.8872 44.7398 22.1243 44.7046 20.2716C44.6975 20.1023 44.7046 19.926 44.7116 19.7496Z" fill="white"/>
<path id="Vector_2" d="M62.5921 26.8031H60.2786V12.3718H62.5921V18.0146C62.9279 17.6162 63.3504 17.2998 63.8271 17.0896C64.3038 16.8793 64.8223 16.7808 65.3429 16.8014C67.734 16.8014 68.8696 18.5154 68.8696 20.6526V26.8031H66.6408V21.0617C66.7075 20.5722 66.5793 20.0761 66.2838 19.6803C65.9883 19.2845 65.549 19.0206 65.0608 18.9456C64.9224 18.9314 64.783 18.9314 64.6446 18.9456C64.1096 18.9456 63.5965 19.1582 63.2182 19.5365C62.8399 19.9148 62.6274 20.4279 62.6274 20.9629C62.6238 21.0216 62.6238 21.0805 62.6274 21.1392L62.5921 26.8031Z" fill="white"/>
<path id="Vector_3" d="M74.061 21.245L76.5438 20.857C77.1081 20.7865 77.2492 20.4973 77.2492 20.1517C77.2492 19.3335 76.699 18.6775 75.4153 18.6775C74.9305 18.6383 74.4497 18.7918 74.0774 19.1048C73.705 19.4177 73.471 19.8648 73.4262 20.3492V20.455L71.3102 19.9824C71.4865 18.3037 73.0101 16.8083 75.3941 16.8083C78.3848 16.8083 79.5204 18.5012 79.5204 20.4761V25.2936C79.5179 25.8156 79.558 26.337 79.6403 26.8524H77.5243C77.448 26.4433 77.4173 26.0269 77.4326 25.611C77.1114 26.1053 76.6662 26.5068 76.1415 26.7754C75.6167 27.0439 75.0307 27.1702 74.4419 27.1416C73.6377 27.208 72.84 26.9527 72.2238 26.4317C71.6076 25.9107 71.2233 25.1666 71.155 24.3626C71.155 24.3132 71.155 24.2638 71.155 24.2215C71.1197 22.437 72.3964 21.4777 74.061 21.245ZM77.2633 22.8038V22.3594L74.7311 22.7403C74.3874 22.7512 74.0611 22.8945 73.8206 23.1403C73.58 23.3861 73.4438 23.7154 73.4403 24.0593C73.443 24.2297 73.4797 24.3979 73.5481 24.554C73.6164 24.7101 73.7152 24.851 73.8387 24.9685C73.9621 25.0861 74.1077 25.1778 74.267 25.2385C74.4263 25.2991 74.596 25.3275 74.7664 25.3218H74.8722C75.1609 25.3521 75.4527 25.3249 75.7309 25.2418C76.009 25.1587 76.268 25.0215 76.4929 24.8379C76.7178 24.6543 76.9041 24.4281 77.0412 24.1722C77.1782 23.9163 77.2633 23.6358 77.2915 23.3469C77.3016 23.1651 77.2897 22.9827 77.2562 22.8038H77.2633Z" fill="white"/>
<path id="Vector_4" d="M83.4563 12.1743C83.6551 12.1715 83.8525 12.208 84.0372 12.2817C84.2218 12.3554 84.3901 12.4649 84.5323 12.6039C84.6746 12.7428 84.7879 12.9085 84.8659 13.0914C84.9439 13.2743 84.985 13.4708 84.9869 13.6696C84.9869 13.9672 84.8988 14.2582 84.7339 14.5059C84.569 14.7537 84.3344 14.9471 84.0599 15.062C83.7853 15.1768 83.4829 15.2079 83.1907 15.1514C82.8985 15.0948 82.6295 14.9532 82.4176 14.7442C82.2057 14.5352 82.0603 14.2682 81.9996 13.9768C81.939 13.6854 81.9659 13.3826 82.0769 13.1065C82.1879 12.8303 82.3781 12.5931 82.6235 12.4248C82.869 12.2564 83.1587 12.1643 83.4563 12.1602V12.1743ZM82.3277 26.8454V17.0976H84.6413V26.8031L82.3277 26.8454Z" fill="white"/>
<path id="Vector_5" d="M89.91 26.803H87.6035V17.0975H89.8536V18.3882C90.1469 17.8926 90.5682 17.485 91.0733 17.2083C91.5784 16.9315 92.1487 16.7958 92.7243 16.8153C95.0943 16.8153 96.251 18.5293 96.251 20.6665V26.803H93.9446V21.0615C93.9446 19.8695 93.4014 18.9031 91.9484 18.9031C91.6798 18.905 91.4142 18.9597 91.1667 19.0642C90.9193 19.1687 90.6948 19.321 90.5062 19.5122C90.3175 19.7035 90.1684 19.93 90.0673 20.1789C89.9663 20.4278 89.9152 20.6941 89.917 20.9627C89.917 21.0403 89.917 21.1179 89.917 21.1955L89.91 26.803Z" fill="white"/>
<path id="Vector_6" d="M99.0442 26.8031V12.3718H101.358V26.8031H99.0442Z" fill="white"/>
<path id="Vector_7" d="M105.484 12.1743C105.782 12.1729 106.073 12.26 106.321 12.4246C106.57 12.5891 106.763 12.8237 106.878 13.0985C106.992 13.3733 107.023 13.676 106.965 13.9681C106.907 14.2602 106.764 14.5285 106.554 14.739C106.343 14.9496 106.075 15.0928 105.783 15.1506C105.49 15.2083 105.188 15.178 104.913 15.0634C104.638 14.9488 104.404 14.7551 104.239 14.507C104.075 14.2588 103.987 13.9674 103.989 13.6697C103.992 13.2742 104.151 12.896 104.431 12.6164C104.71 12.3367 105.089 12.178 105.484 12.1743ZM104.349 26.8455V17.0976H106.641V26.8031L104.349 26.8455Z" fill="white"/>
<path id="Vector_8" d="M111.945 26.8031H109.631V17.0976H111.881V18.3883C112.175 17.8932 112.597 17.486 113.102 17.2094C113.607 16.9327 114.177 16.7966 114.752 16.8154C117.122 16.8154 118.279 18.5294 118.279 20.6666V26.8031H115.965V21.0616C116.032 20.5722 115.904 20.0761 115.608 19.6803C115.313 19.2844 114.874 19.0206 114.385 18.9456C114.245 18.9314 114.103 18.9314 113.962 18.9456C113.423 18.9511 112.908 19.1691 112.529 19.5521C112.15 19.9351 111.938 20.4522 111.938 20.9911C111.931 21.0732 111.931 21.1558 111.938 21.2379L111.945 26.8031Z" fill="white"/>
<path id="Vector_9" d="M126.172 21.1957L130.242 26.8384H127.42L124.599 22.8391L123.407 24.0946V26.8031H121.115V12.3718H123.407V21.0193L127.131 17.0976H130.199L126.172 21.1957Z" fill="white"/>
<path id="Vector_10" d="M17.3232 8.46412L27.325 14.2056V25.745L17.3514 31.5218L7.35673 25.7944V14.262L17.3232 8.46412ZM17.3232 0L13.6554 2.11603L3.66778 7.91395L0 10.03V30.0406L3.66778 32.1566L13.6695 37.8981L17.3373 40.0141L21.0051 37.8981L30.9716 32.1143L34.6394 29.9982V9.95944L30.9716 7.84341L20.9769 2.11603L17.3091 0H17.3232Z" fill="white"/>
</g>
</g>
</g>
<defs>
<clipPath id="clip0_4389_24634">
<rect width="130.242" height="40" fill="white"/>
</clipPath>
</defs>
</svg>
