<svg width="233" height="40" viewBox="0 0 233 40" fill="none" xmlns="http://www.w3.org/2000/svg">
<g id="CoinMarketCap" clip-path="url(#clip0_4862_11924)">
<path id="Vector" d="M34.2636 23.9147C33.5659 24.3411 32.7519 24.4186 32.1318 24.0698C31.3566 23.6047 30.8915 22.5581 30.8915 21.124V16.7442C30.8915 14.6512 30.0775 13.1395 28.6822 12.7519C26.3178 12.0543 24.5349 14.9612 23.876 16.0465L19.6899 22.7519V14.4961C19.6512 12.5969 19.031 11.4729 17.8682 11.124C17.093 10.8915 15.9302 11.0078 14.8062 12.7132L5.46512 27.6744C4.22481 25.3101 3.56589 22.6744 3.56589 20C3.56589 10.969 10.814 3.64341 19.6899 3.64341C28.5659 3.64341 35.814 10.969 35.814 20V20.0388V20.0775C35.8915 21.8217 35.3488 23.2171 34.2636 23.9147ZM39.3799 20V19.9612V19.9225C39.3411 8.95349 30.5039 0 19.6899 0C8.83721 0 0 8.95349 0 20C0 31.0077 8.83721 40 19.6899 40C24.6899 40 29.4186 38.1008 33.062 34.6512C33.7985 33.9535 33.8372 32.8295 33.1395 32.093C32.4806 31.3566 31.3566 31.3178 30.6202 31.9767C30.6202 31.9767 30.6202 31.9767 30.5814 32.0155C27.6357 34.8062 23.6822 36.3953 19.6124 36.3953C14.845 36.3953 10.5814 34.3023 7.63566 30.969L16.0465 17.4806V23.7209C16.0465 26.7054 17.2093 27.6744 18.1783 27.9457C19.1473 28.2171 20.6202 28.0233 22.2093 25.5039L26.8217 18.0233C26.9767 17.7907 27.093 17.5581 27.2481 17.4031V21.2016C27.2481 23.9922 28.3721 26.2403 30.3101 27.3256C32.0543 28.3333 34.2636 28.217 36.0853 27.093C38.3333 25.6201 39.5349 23.062 39.3799 20ZM66.8217 13.1783C67.2868 13.4496 67.7132 14.1085 67.7132 14.6899C67.7132 15.6202 66.938 16.3954 66.0465 16.3954C65.814 16.3954 65.6202 16.3178 65.4264 16.2791C64.3799 15.5039 63.062 15 61.6667 15C58.3721 15 56.124 17.6744 56.124 21.0078C56.124 24.3411 58.4109 26.9767 61.6667 26.9767C63.2946 26.9767 64.7674 26.3178 65.8527 25.2713C66.124 25.0775 66.4729 24.9612 66.8217 24.9612C67.7132 24.9612 68.4109 25.6589 68.4109 26.5504C68.4109 27.1318 68.062 27.6357 67.6357 27.907C66.0465 29.2636 63.9147 30.155 61.7054 30.155C56.6667 30.155 52.5581 26.0077 52.5581 20.8915C52.5581 15.7752 56.6667 11.6279 61.7054 11.6279C63.5659 11.5891 65.3488 12.1705 66.8217 13.1783ZM76.0465 17.0543C79.4961 17.0543 82.3643 19.9612 82.3643 23.5659C82.3643 27.1318 79.4574 30.1938 76.0465 30.1938C72.4419 30.1938 69.4574 27.1705 69.4574 23.5659C69.4574 19.9612 72.4419 17.0543 76.0465 17.0543ZM76.0078 26.9767C77.5194 26.9767 78.7985 25.5426 78.7985 23.6046C78.7985 21.6667 77.5194 20.4264 76.0078 20.4264C74.3799 20.4264 73.0233 21.6279 73.0233 23.6046C73.0233 25.5039 74.3799 26.9767 76.0078 26.9767ZM84.5349 28.1783V19.031C84.5349 18.0233 85.3101 17.2093 86.3178 17.2093C87.2868 17.2093 88.1008 18.0233 88.1008 19.031V28.1783C88.1008 29.186 87.2868 30 86.3178 30C85.3488 30 84.5349 29.1473 84.5349 28.1783ZM84.2636 13.7597C84.2636 12.5581 85.1938 11.6279 86.3178 11.6279C87.4806 11.6279 88.4109 12.5969 88.4109 13.7597C88.4109 14.9225 87.4806 15.8527 86.3178 15.8527C85.155 15.8139 84.2636 14.8837 84.2636 13.7597ZM94.9225 23.217V28.1783C94.9225 29.186 94.1085 30 93.1395 30C92.1706 30 91.3566 29.186 91.3566 28.1783V18.6046C91.3566 17.8295 91.9768 17.2093 92.7519 17.2093C93.5271 17.2093 94.1085 17.8682 94.1085 18.6046C95.5426 17.2481 96.8217 17.0543 98.0233 17.0543C101.589 17.0543 103.178 19.7287 103.178 22.7907V28.1783C103.178 29.186 102.364 30 101.395 30C100.426 30 99.6124 29.186 99.6124 28.1783V23.217C99.6124 21.6667 99.4186 20.3488 97.1705 20.3488C95.5814 20.3488 94.9225 21.6667 94.9225 23.217ZM114.729 25.1163C114.302 25.1163 114.031 24.9225 113.798 24.6512L109.651 20.155V28.1783C109.651 29.186 108.837 30 107.868 30C106.899 30 106.085 29.186 106.085 28.1783V12.2868C106.202 12.0155 106.473 11.8217 106.744 11.8217C107.054 11.8217 107.326 12.093 107.519 12.2868L114.147 19.7287C114.341 19.9612 114.574 20.0775 114.729 20.0775C114.845 20.0775 115.116 19.9612 115.31 19.7287L121.938 12.2868C122.132 12.093 122.364 11.8217 122.713 11.8217C123.023 11.8217 123.295 12.0155 123.372 12.2868V28.1783C123.372 29.186 122.597 30 121.589 30C120.62 30 119.806 29.186 119.806 28.1783V20.155L115.659 24.6512C115.349 24.9225 115.078 25.1163 114.729 25.1163ZM131.86 26.9767C133.45 26.9767 134.806 25.5426 134.806 23.6046C134.806 21.6667 133.411 20.3876 131.86 20.3876C130.31 20.3876 129.031 21.7054 129.031 23.6046C129.031 25.4651 130.271 26.9767 131.86 26.9767ZM135.659 28.6047L135.581 28.1783C134.884 29.5349 132.674 30.155 131.279 30.155C127.946 30.155 125.465 27.1318 125.465 23.5271C125.465 19.9612 127.984 17.0155 131.473 17.0155C132.054 17.0155 134.07 17.1705 135.62 18.9922L135.698 18.5659C135.698 17.7907 136.279 17.1705 137.054 17.1705C137.829 17.1705 138.45 17.8295 138.45 18.5659V28.5659C138.45 29.3411 137.829 29.9612 137.054 29.9612C136.24 30 135.659 29.3411 135.659 28.6047ZM148.256 20.3488H147.868C145.62 20.4651 145.194 21.7442 145.194 23.217V28.1783C145.194 29.186 144.38 30 143.411 30C142.442 30 141.628 29.186 141.628 28.1783V18.6046C141.628 17.8295 142.248 17.2093 143.023 17.2093C143.798 17.2093 144.38 17.8682 144.38 18.6046C145.698 17.3643 146.783 17.093 147.868 17.0543H148.217C149.07 17.0543 149.845 17.7907 149.845 18.7209C149.884 19.5736 149.109 20.3488 148.256 20.3488ZM162.016 27.3256C162.171 27.5969 162.287 27.8682 162.287 28.1783C162.287 29.1085 161.434 29.9612 160.504 29.9612C159.884 29.9612 159.341 29.4961 158.915 28.9535L154.806 24.186V28.1395C154.806 29.1473 153.992 29.9612 153.023 29.9612C152.054 29.9612 151.24 29.1473 151.24 28.1395V13.6047C151.24 12.5969 152.016 11.7829 153.023 11.7829C154.031 11.7829 154.806 12.5969 154.806 13.6047V22.6744L158.915 18.1395C159.341 17.6744 159.845 17.1705 160.465 17.1705C161.357 17.1705 162.171 17.9845 162.171 18.9147C162.171 19.1861 162.093 19.4961 161.938 19.7287L158.682 23.2946L162.016 27.3256ZM168.992 20.3876C168.023 20.3876 166.434 20.8915 166.434 22.4031H171.589C171.55 20.8915 169.923 20.3876 168.992 20.3876ZM173.643 24.6899H166.434C166.434 26.8217 168.488 27.1705 169.38 27.1705C170.039 27.1705 170.969 27.0543 171.705 26.7054C171.938 26.5504 172.287 26.4341 172.636 26.4341C173.411 26.4341 174.07 27.093 174.07 27.907C174.07 28.4496 173.721 28.9147 173.295 29.1861C172.209 30 170.775 30.1938 169.419 30.1938C165.814 30.1938 162.829 28.2558 162.829 23.7209C162.829 20.155 164.651 17.0543 168.915 17.0543C172.364 17.0543 174.961 19.3023 175.039 23.2946C175.039 24.031 174.419 24.6899 173.643 24.6899ZM183.566 30.155H182.597C179.884 30.155 178.295 28.9535 178.295 24.7287V20.3488H177.364C176.512 20.3488 175.775 19.5736 175.775 18.7209C175.775 17.7907 176.55 17.0543 177.364 17.0543H178.295V13.6822C178.295 12.6744 179.07 11.8605 180.078 11.8605C181.047 11.8605 181.86 12.6744 181.86 13.6822V17.0543H183.333C184.186 17.0543 184.922 17.7907 184.922 18.7209C184.922 19.5736 184.147 20.3488 183.333 20.3488H181.86V24.031C181.86 26.4729 181.977 26.9767 183.062 26.9767H183.566C184.419 26.9767 185.155 27.6744 185.155 28.5659C185.155 29.4186 184.419 30.155 183.566 30.155ZM200.814 13.1783C201.279 13.4496 201.705 14.1085 201.705 14.6899C201.705 15.6202 200.93 16.3954 200.039 16.3954C199.806 16.3954 199.612 16.3178 199.419 16.2791C198.372 15.5039 197.054 15 195.659 15C192.364 15 190.116 17.6744 190.116 21.0078C190.116 24.3411 192.403 26.9767 195.659 26.9767C197.287 26.9767 198.76 26.3178 199.845 25.2713C200.116 25.0775 200.465 24.9612 200.814 24.9612C201.705 24.9612 202.403 25.6589 202.403 26.5504C202.403 27.1318 202.054 27.6357 201.628 27.907C200.039 29.2636 197.907 30.155 195.698 30.155C190.659 30.155 186.55 26.0077 186.55 20.8915C186.55 15.7752 190.659 11.6279 195.698 11.6279C197.558 11.5891 199.38 12.1705 200.814 13.1783ZM209.845 26.9767C211.434 26.9767 212.791 25.5426 212.791 23.6046C212.791 21.6667 211.395 20.3876 209.845 20.3876C208.256 20.3876 207.016 21.7054 207.016 23.6046C207.016 25.4651 208.295 26.9767 209.845 26.9767ZM213.643 28.6047L213.566 28.1783C212.868 29.5349 210.659 30.155 209.264 30.155C205.93 30.155 203.45 27.1318 203.45 23.5271C203.45 19.9612 205.969 17.0155 209.457 17.0155C210.039 17.0155 212.054 17.1705 213.605 18.9922L213.682 18.5659C213.682 17.7907 214.264 17.1705 215.039 17.1705C215.814 17.1705 216.434 17.8295 216.434 18.5659V28.5659C216.434 29.3411 215.814 29.9612 215.039 29.9612C214.225 30 213.643 29.3411 213.643 28.6047ZM226.163 26.9767C227.752 26.9767 228.992 25.4651 228.992 23.6046C228.992 21.6667 227.713 20.3876 226.163 20.3876C224.574 20.3876 223.217 21.6667 223.217 23.6046C223.217 25.5426 224.574 26.9767 226.163 26.9767ZM223.217 29.1085V33.6434C223.217 34.6512 222.403 35.4651 221.434 35.4651C220.465 35.4651 219.651 34.6512 219.651 33.6434V18.6046C219.651 17.8295 220.271 17.2093 221.047 17.2093C221.822 17.2093 222.403 17.8682 222.403 18.7597C223.721 17.4031 225.349 17.0543 226.589 17.0543C230.039 17.0543 232.597 19.9612 232.597 23.5659C232.597 27.1318 230.155 30.1938 226.783 30.1938C225.736 30.155 224.186 29.845 223.217 29.1085Z" fill="white"/>
</g>
<defs>
<clipPath id="clip0_4862_11924">
<rect width="232.597" height="40" fill="white"/>
</clipPath>
</defs>
</svg>
