<svg xmlns="http://www.w3.org/2000/svg" width="148" height="25" viewBox="0 0 148 25" fill="none">
    <g clip-path="url(#clip0_4502_5558)">
        <path d="M25.9633 5.68995V8.47395H25.0862C22.3546 8.47395 20.5982 10.395 20.5982 13.2772V19.8085H17.5742V5.88195H20.5982V9.43613C21.0869 7.32304 22.4528 5.59395 25.0862 5.59395C25.3786 5.59395 25.6709 5.59395 25.9633 5.68995ZM42.5549 5.87431L36.6422 19.7998L34.4124 24.7939H31.504L33.8309 19.6078L28.0142 5.87322H31.0197L35.188 16.1496L39.4535 5.77831H42.5549V5.87431ZM59.8928 12.7939C59.8928 17.5939 56.404 19.9939 53.1095 19.9939C50.5906 19.9939 48.7502 18.6499 48.2658 17.4979H48.1677V24.7939H45.1655V5.88195H48.1688V8.08995H48.2658C48.7502 7.03395 50.5906 5.59395 53.1095 5.59395C56.5011 5.59395 59.8928 7.99395 59.8928 12.7939ZM56.9855 12.7939C56.9855 9.81795 54.7568 8.28195 52.5291 8.28195C50.3004 8.28195 48.0717 9.81795 48.0717 12.7939C48.0717 15.7699 50.3004 17.3059 52.5291 17.3059C54.8538 17.3059 56.9855 15.7699 56.9855 12.7939ZM66.7829 8.21213V15.7841C66.7829 16.551 67.1702 17.2219 68.3298 17.2219C68.62 17.2219 69.1033 17.1259 69.5866 16.9339V19.2347C69.1033 19.6176 68.1357 19.8096 67.3633 19.8096C65.236 19.8096 63.6902 18.7558 63.6902 16.2641V8.21213H61.7549V5.81758H63.6891V2.27104H66.6848V5.81649H69.4884V8.21322H66.7818L66.7829 8.21213ZM72.0095 12.7939C72.0095 8.08995 75.6695 5.59395 79.2313 5.59395C82.8913 5.59395 86.5513 8.08995 86.5513 12.7939C86.5513 17.4979 82.8913 19.9939 79.2313 19.9939C75.6695 19.9939 72.0095 17.4979 72.0095 12.7939ZM83.5655 12.7939C83.5655 9.91395 81.5429 8.28195 79.2324 8.28195C76.9207 8.28195 74.8993 9.91395 74.8993 12.7939C74.8993 15.6739 77.0168 17.3059 79.2324 17.3059C81.4469 17.3059 83.5655 15.6739 83.5655 12.7939ZM97.9229 5.68995V8.47395H97.0447C94.3131 8.47395 92.5568 10.395 92.5568 13.2772V19.8085H89.5338V5.88195H92.5578V9.43613C93.0455 7.32304 94.4102 5.59395 97.0447 5.59395C97.3371 5.59395 97.6295 5.59395 97.9229 5.68995ZM130.732 11.6419V19.8085H127.734V12.123C127.734 9.72085 126.38 8.37576 124.349 8.37576C122.318 8.37576 120.867 9.72085 120.867 12.123V19.8085H117.869V5.97358H120.867V8.08776C121.641 6.83867 123.091 5.78158 125.316 5.78158C128.315 5.68558 130.732 7.51067 130.732 11.6419ZM139.238 14.1434L137.292 16.2565V19.8096H134.274V0.793945H137.292V12.4143L143.228 5.88413H146.829L141.087 12.1263L147.51 19.8096H144.104L139.238 14.1434ZM114.887 12.6838V5.51431H111.883V7.73649H111.786C111.302 6.57685 109.46 5.22522 106.943 5.22522C103.648 5.22522 100.159 7.6394 100.159 12.4689C100.159 17.2983 103.647 19.7125 106.941 19.8096C107.292 19.8096 107.629 19.7812 107.951 19.7299C108.557 19.3579 109.227 18.7634 110.027 17.8612C109.55 17.7892 109.165 17.7379 108.837 17.6932C107.687 17.5383 107.213 17.4739 105.829 16.9809C105.124 16.7299 103.878 15.615 103.505 14.5678C103.227 13.9732 103.065 13.2739 103.065 12.4689C103.065 9.47431 105.294 7.92958 107.523 7.92958C109.752 7.92958 111.98 9.47431 111.98 12.4678L111.979 12.5638C113.072 12.6009 114.095 12.6456 114.887 12.6838Z" fill="white"/>
        <path d="M110.264 20.9157L109.677 20.3462L112.221 17.5906L109.48 15.0248L110.068 14.4553L113.396 17.5906L110.264 20.9157Z" fill="white" stroke="white" stroke-width="1.196" stroke-miterlimit="10"/>
        <path d="M6.46965 17.1904C5.78674 16.9307 5.08092 16.5413 4.57692 15.9631C3.82507 15.0792 3.41414 13.9555 3.41837 12.7951C3.41837 9.91509 5.44746 8.28199 7.76455 8.28199C8.92419 8.28199 10.0827 8.66599 10.8562 9.52999C11.0853 9.75909 11.2707 9.99581 11.4191 10.2369L11.9624 10.0318C12.7151 9.74818 13.4667 9.46345 14.2195 9.17327C12.9104 6.82018 10.338 5.59399 7.76455 5.59399C4.09474 5.59399 0.423828 8.08999 0.423828 12.794C0.423828 17.4227 3.97583 19.9144 7.58565 19.994C8.21837 19.4594 8.93837 18.734 9.4751 18.1918L9.8471 17.8165C8.60346 17.8165 7.35983 17.6082 6.46965 17.1904Z" fill="white"/>
        <path d="M9.96882 21.2857L9.38082 20.7162L11.9259 17.9606L9.18555 15.3948L9.77246 14.8242L13.0997 17.9606L9.96882 21.2857Z" fill="white" stroke="white" stroke-width="1.196" stroke-miterlimit="10"/>
    </g>
    <defs>
        <clipPath id="clip0_4502_5558">
            <rect width="147.273" height="24" fill="white" transform="translate(0.423828 0.793945)"/>
        </clipPath>
    </defs>
</svg>
