<svg xmlns="http://www.w3.org/2000/svg" width="32" height="33" viewBox="0 0 32 33" fill="none">
    <path d="M27.0894 6.04044C25.0498 5.1046 22.8626 4.41511 20.5759 4.02021C20.5342 4.01259 20.4926 4.03164 20.4712 4.06973C20.1899 4.57002 19.8783 5.22268 19.6601 5.73567C17.2005 5.36745 14.7536 5.36745 12.3444 5.73567C12.1262 5.21128 11.8033 4.57002 11.5208 4.06973C11.4993 4.03291 11.4577 4.01386 11.4161 4.02021C9.13055 4.41385 6.94341 5.10333 4.90258 6.04044C4.88491 6.04806 4.86977 6.06077 4.85972 6.07726C0.711189 12.2751 -0.425267 18.3206 0.13224 24.2911C0.134763 24.3203 0.15116 24.3482 0.173864 24.366C2.91095 26.376 5.56228 27.5963 8.16437 28.4052C8.20602 28.4179 8.25014 28.4026 8.27664 28.3683C8.89217 27.5278 9.44086 26.6415 9.9113 25.7094C9.93906 25.6548 9.91256 25.5901 9.85582 25.5685C8.98551 25.2383 8.1568 24.8358 7.35964 24.3787C7.29659 24.3419 7.29154 24.2517 7.34954 24.2085C7.5173 24.0828 7.68509 23.952 7.84527 23.82C7.87425 23.7958 7.91464 23.7908 7.94871 23.806C13.1857 26.197 18.8554 26.197 24.0306 23.806C24.0647 23.7895 24.1051 23.7946 24.1353 23.8187C24.2955 23.9508 24.4633 24.0828 24.6323 24.2085C24.6903 24.2517 24.6865 24.3419 24.6235 24.3787C23.8263 24.8447 22.9976 25.2383 22.126 25.5672C22.0693 25.5888 22.044 25.6548 22.0718 25.7094C22.5523 26.6401 23.101 27.5265 23.7052 28.3671C23.7304 28.4026 23.7758 28.4179 23.8175 28.4052C26.4322 27.5963 29.0835 26.376 31.8206 24.366C31.8446 24.3482 31.8597 24.3215 31.8622 24.2923C32.5294 17.3898 30.7447 11.3939 27.131 6.07852C27.1221 6.06077 27.107 6.04806 27.0894 6.04044ZM10.6934 20.6557C9.11666 20.6557 7.81751 19.2081 7.81751 17.4304C7.81751 15.6527 9.09147 14.2052 10.6934 14.2052C12.3078 14.2052 13.5944 15.6654 13.5692 17.4304C13.5692 19.2081 12.2952 20.6557 10.6934 20.6557ZM21.3263 20.6557C19.7497 20.6557 18.4505 19.2081 18.4505 17.4304C18.4505 15.6527 19.7244 14.2052 21.3263 14.2052C22.9408 14.2052 24.2274 15.6654 24.2022 17.4304C24.2022 19.2081 22.9408 20.6557 21.3263 20.6557Z" fill="white"/>
</svg>
