<svg width="201" height="47" viewBox="0 0 201 47" fill="none" xmlns="http://www.w3.org/2000/svg">
<g id="Frame 1171277159" clip-path="url(#clip0_2393_24582)">
<g id="Vector">
<path d="M0.306182 27.2389L2.83741 26.8404V3.43045L0 3.06216L0.152987 0.546875H17.8264L17.3977 7.63067L13.8703 7.53834L13.6567 3.09259H8.1872V13.6187H10.5696L11.1211 11.1957L13.5974 11.2564V18.5251H11.1513L10.5679 16.0415H8.187V27.2087H13.6869L14.2082 22.3644L17.919 22.4872L18.1947 29.8772H0.184868L0.306182 27.2389Z" fill="white"/>
<path d="M19.8132 29.877L19.9055 27.6995L21.8923 27.301V12.5414L19.5693 12.3263V10.1186L25.381 9.29117L25.8184 10.5488V11.3763C27.2291 9.90353 28.9156 9.04585 31.0626 9.04585C34.222 9.04585 36.5524 10.9475 36.5524 14.7507V27.3025L38.6605 27.701L38.5377 29.8784H31.6835V15.8075C31.6835 13.7831 30.9399 12.6482 29.1293 12.6482C28.5157 12.6482 28.078 12.771 27.5886 12.9239C27.281 13.1695 27.0053 13.5376 26.7599 13.8754V27.3008L28.8451 27.6993L28.6921 29.8768C28.6919 29.877 19.8132 29.877 19.8132 29.877Z" fill="white"/>
<path d="M130.695 29.877L130.788 27.6995L132.774 27.301V12.5414L130.451 12.3263V10.1186L136.263 9.29117L136.699 10.5488V11.3763C138.109 9.90353 139.796 9.04585 141.943 9.04585C145.102 9.04585 147.433 10.9475 147.433 14.7507V27.3025L149.541 27.701L149.418 29.8784H142.564V15.8075C142.564 13.7831 141.819 12.6482 140.01 12.6482C139.398 12.6482 138.96 12.771 138.469 12.9239C138.163 13.1695 137.886 13.5376 137.642 13.8754V27.3008L139.727 27.6993L139.574 29.8768C139.574 29.877 130.695 29.877 130.695 29.877Z" fill="white"/>
<path d="M49.6184 29.4698C48.8214 29.8076 47.3803 30.1745 45.5091 30.1745C43.0559 30.1745 40.7716 29.0713 40.7716 25.4817V12.5312L38.4412 12.1629L38.5336 9.587L41.1716 9.46424L42.3065 5.53832L45.665 5.38388V9.58576H49.3151L49.0624 12.1617L45.7298 12.5314V25.4515C45.7298 26.5243 46.3131 27.2304 47.4161 27.2304H49.4015L49.6184 29.4698Z" fill="white"/>
<path d="M186.986 29.877L187.078 27.7602L188.95 27.3313V12.5428L186.742 12.3277V10.1186L192.744 9.29117L193.143 10.7322V11.1928C194.708 10.0275 196.854 9.26094 199.401 9.26094L200.29 10.0277L199.677 15.5796L196.364 15.4568L196.028 12.4824C195.261 12.6051 194.525 12.8202 193.911 13.2492V27.3331L195.998 27.7621L195.845 29.8788H186.986V29.877H186.986Z" fill="white"/>
<path d="M100.536 29.877L100.629 27.7602L102.5 27.3313V12.5428L100.291 12.3277V10.1186L106.293 9.29117L106.692 10.7322V11.1928C108.257 10.0275 110.403 9.26094 112.95 9.26094L113.839 10.0277L113.226 15.5796L109.913 15.4568L109.577 12.4824C108.81 12.6051 108.074 12.8202 107.46 13.2492V27.3331L109.546 27.7621L109.393 29.8788H100.536V29.877Z" fill="white"/>
<path d="M51.0812 29.877L51.1735 27.7602L53.0448 27.3313V12.5428L50.8357 12.3277V10.1186L56.8395 9.29117L57.238 10.7322V11.1928C58.8018 10.0275 60.9488 9.26094 63.4945 9.26094L64.3839 10.0277L63.7703 15.5796L60.4579 15.4568L60.1201 12.4824C59.3533 12.6051 58.6169 12.8202 58.0033 13.2492V27.3331L60.0897 27.7621L59.9367 29.8788H51.0812V29.877Z" fill="white"/>
<path d="M70.109 20.8828C70.109 24.4088 71.6337 27.1393 74.6905 27.1393C76.2544 27.1393 77.512 26.8015 78.9847 26.1272L79.8136 28.0591C78.3105 29.2547 76.1246 30.1745 73.3637 30.1745C68.0197 30.1745 64.9327 25.5438 64.9327 19.5935C64.9327 14.5327 67.1563 8.99513 73.306 8.99513C78.6471 8.99513 80.6742 13.9506 80.6742 19.4707L80.1529 20.789L70.109 20.8828ZM70.0164 18.5207L76.1891 18.245C76.0664 15.7903 75.5582 11.8787 73.1424 11.8787C72.5692 11.8787 72.1562 11.971 71.4198 12.3695C70.4266 14.0561 70.0036 17.1041 70.0164 18.5207Z" fill="white"/>
<path d="M155.392 20.8828C155.392 24.4088 156.917 27.1393 159.973 27.1393C161.539 27.1393 162.795 26.8015 164.268 26.1272L165.095 28.0591C163.593 29.2547 161.406 30.1745 158.645 30.1745C153.301 30.1745 150.214 25.5438 150.214 19.5935C150.214 14.5327 152.436 8.99513 158.587 8.99513C163.929 8.99513 165.956 13.9506 165.956 19.4707L165.434 20.789L155.392 20.8828ZM155.3 18.5207L161.472 18.245C161.349 15.7903 160.841 11.8787 158.426 11.8787C157.852 11.8787 157.439 11.971 156.703 12.3695C155.71 14.0561 155.288 17.1041 155.3 18.5207Z" fill="white"/>
<path d="M119.563 20.8828C119.563 24.4088 121.088 27.1393 124.144 27.1393C125.71 27.1393 126.966 26.8015 128.439 26.1272L129.266 28.0591C127.764 29.2547 125.577 30.1745 122.816 30.1745C117.472 30.1745 114.385 25.5438 114.385 19.5935C114.385 14.5327 116.607 8.99513 122.757 8.99513C128.098 8.99513 130.125 13.9506 130.125 19.4707L129.604 20.789L119.563 20.8828ZM119.47 18.5207L125.643 18.245C125.52 15.7903 125.012 11.8787 122.596 11.8787C122.023 11.8787 121.61 11.971 120.874 12.3695C119.88 14.0561 119.459 17.1041 119.47 18.5207Z" fill="white"/>
<path d="M179.83 29.877L179.309 28.1285C177.959 29.4164 176.641 30.1832 174.586 30.1832C171.427 30.1832 168.598 28.5891 168.598 24.2328V12.0145L166.275 11.7994V9.86751L172.944 9.10071L173.465 10.8492V23.6206C173.465 25.8602 174.368 27.0253 176.18 27.0253C176.696 27.0253 177.347 26.9632 177.929 26.7191C178.265 26.3812 178.573 25.9827 178.848 25.5842V12.0143L176.456 11.7992V9.8673L183.195 9.1005L183.716 10.849V27.3008L185.794 27.6993L185.548 29.8768C185.548 29.877 179.83 29.877 179.83 29.877Z" fill="white"/>
<path d="M90.6629 27.2389C89.5901 27.2389 88.7612 27.0541 88.087 26.6874V13.7139C88.3627 13.2852 88.7006 12.8865 89.0384 12.5184C89.652 12.3033 90.2296 12.2122 90.8736 12.2122C93.6316 12.2122 94.0878 15.0061 94.0878 20.0065C94.0878 24.822 93.3716 26.1475 93.1796 26.6889C92.4418 27.0555 91.6448 27.2389 90.6629 27.2389ZM98.8888 19.0998C98.8888 12.9068 97.0492 9.01542 92.4851 9.01542C89.45 9.01542 88.0075 10.7668 87.4127 11.5061V10.8318L86.8914 9.08332L80.8964 9.91223V12.0261L83.2195 12.3323V37.3479L81.2557 37.7464L81.1634 39.833H90.0189L90.1719 37.7464L88.0868 37.3479V29.4151C88.9157 29.8757 90.1025 30.1819 91.3918 30.1819C98.8211 30.1846 98.8888 22.5853 98.8888 19.0998Z" fill="white"/>
<path d="M199.03 27.0064C200.039 27.0064 200.683 27.6043 200.683 28.4446C200.683 29.2921 200.022 29.8828 199.03 29.8828C198.054 29.8828 197.375 29.2921 197.375 28.4446C197.375 27.5956 198.045 27.0064 199.03 27.0064ZM199.03 29.4323C199.717 29.4323 200.166 29.0265 200.166 28.4432C200.166 27.8598 199.717 27.454 199.03 27.454C198.351 27.454 197.901 27.8525 197.901 28.4432C197.901 29.0265 198.351 29.4323 199.03 29.4323ZM198.309 29.093L198.318 28.8936L198.488 28.8562V27.9709L198.293 27.9492L198.302 27.7498H199.09C199.429 27.7498 199.744 27.8596 199.736 28.1556C199.727 28.362 199.609 28.4804 199.447 28.5469C199.532 28.6798 199.651 28.8197 199.736 28.8717L199.854 28.8934L199.837 29.0928H199.438C199.302 28.9816 199.175 28.8344 199.057 28.599H198.93V28.8574L199.099 28.8949L199.083 29.0942H198.309L198.309 29.093ZM198.927 27.9941V28.3782H199.072C199.267 28.3782 199.31 28.3045 199.31 28.1933C199.31 28.0244 199.183 27.9939 199.021 27.9939L198.927 27.9941Z" fill="white"/>
<path d="M152.528 35.6048V36.7256H147.343V39.9129H152.184V41.0337H147.343V44.6534H152.787V45.7732H146.136V35.6048H152.528Z" fill="white"/>
<path d="M162.279 41.8953C162.279 42.4505 162.21 42.9776 162.071 43.4755C161.932 43.9733 161.712 44.4116 161.411 44.7892C161.109 45.1678 160.714 45.4695 160.225 45.6939C159.737 45.9195 159.143 46.0317 158.444 46.0317C157.745 46.0317 157.152 45.9195 156.664 45.6939C156.175 45.4695 155.78 45.1678 155.479 44.7892C155.177 44.4116 154.956 43.9733 154.818 43.4755C154.679 42.9776 154.609 42.4505 154.609 41.8953V35.6048H155.816V41.7235C155.816 42.1348 155.86 42.5323 155.945 42.9157C156.032 43.2978 156.175 43.638 156.376 43.9348C156.577 44.2317 156.845 44.4689 157.18 44.6455C157.516 44.8232 157.937 44.912 158.444 44.912C158.951 44.912 159.373 44.8232 159.708 44.6455C160.043 44.4689 160.311 44.2317 160.512 43.9348C160.714 43.638 160.857 43.2978 160.943 42.9157C161.029 42.5323 161.072 42.135 161.072 41.7235V35.6048H162.279V41.8953H162.279Z" fill="white"/>
<path d="M164.764 35.6048H167.363C167.852 35.6048 168.338 35.634 168.822 35.6913C169.304 35.7487 169.738 35.8737 170.121 36.0642C170.503 36.2559 170.816 36.5364 171.054 36.9045C171.293 37.2738 171.414 37.7739 171.414 38.4051C171.414 39.1521 171.188 39.7551 170.738 40.2155C170.288 40.6749 169.667 40.967 168.872 41.091L171.759 45.7732H170.279L167.522 41.2055H165.971V45.7732H164.764V35.6048ZM165.971 40.0859H167.048C167.383 40.0859 167.73 40.0766 168.089 40.0567C168.448 40.0381 168.779 39.976 169.08 39.8708C169.382 39.7657 169.631 39.5996 169.827 39.3752C170.023 39.1496 170.122 38.827 170.122 38.4051C170.122 38.0416 170.049 37.7495 169.906 37.5297C169.763 37.3088 169.574 37.1392 169.339 37.0189C169.104 36.8997 168.841 36.8214 168.549 36.7829C168.256 36.7444 167.962 36.7256 167.666 36.7256H165.971L165.971 40.0859Z" fill="white"/>
<path d="M178.264 46.0315C177.49 46.0315 176.778 45.8972 176.131 45.6295C175.485 45.3618 174.925 44.9902 174.452 44.5168C173.977 44.0423 173.609 43.4777 173.345 42.8221C173.082 42.1665 172.951 41.4558 172.951 40.689C172.951 39.9234 173.082 39.2117 173.345 38.5559C173.609 37.9002 173.977 37.3357 174.452 36.8612C174.925 36.3877 175.485 36.0161 176.131 35.7485C176.778 35.4808 177.489 35.3464 178.264 35.3464C179.041 35.3464 179.751 35.4808 180.398 35.7485C181.044 36.0161 181.604 36.3877 182.078 36.8612C182.552 37.3357 182.92 37.9002 183.184 38.5559C183.447 39.2115 183.579 39.9234 183.579 40.689C183.579 41.4558 183.447 42.1663 183.184 42.8221C182.92 43.4777 182.552 44.0423 182.078 44.5168C181.604 44.9902 181.044 45.3618 180.398 45.6295C179.751 45.8972 179.041 46.0315 178.264 46.0315ZM178.264 44.912C178.858 44.912 179.402 44.802 179.895 44.5812C180.388 44.3615 180.811 44.0599 181.165 43.6765C181.52 43.2931 181.795 42.8455 181.992 42.3335C182.188 41.8216 182.286 41.2734 182.286 40.689C182.286 40.1046 182.188 39.5564 181.992 39.0444C181.796 38.5325 181.52 38.0849 181.165 37.7015C180.811 37.3193 180.388 37.0177 179.895 36.7968C179.402 36.5772 178.858 36.466 178.264 36.466C177.671 36.466 177.127 36.577 176.634 36.7968C176.141 37.0177 175.718 37.3193 175.363 37.7015C175.009 38.0849 174.733 38.5325 174.537 39.0444C174.341 39.5564 174.242 40.1046 174.242 40.689C174.242 41.2734 174.341 41.8216 174.537 42.3335C174.733 42.8455 175.009 43.2931 175.363 43.6765C175.718 44.0599 176.141 44.3613 176.634 44.5812C177.127 44.802 177.671 44.912 178.264 44.912Z" fill="white"/>
<path d="M185.517 35.6048H188.533C189.002 35.6048 189.45 35.6503 189.876 35.7416C190.302 35.8327 190.68 35.9859 191.011 36.201C191.341 36.4161 191.604 36.7036 191.8 37.0624C191.996 37.4224 192.095 37.8654 192.095 38.3913C192.095 38.9465 191.99 39.4059 191.779 39.7704C191.569 40.134 191.298 40.4215 190.968 40.6318C190.637 40.8422 190.276 40.9906 189.884 41.0771C189.491 41.1637 189.117 41.2057 188.763 41.2057H186.724V45.7734H185.517V35.6048H185.517ZM186.724 40.0859H188.762C189.367 40.0859 189.856 39.9491 190.235 39.6769C190.613 39.4034 190.802 38.9802 190.802 38.4051C190.802 37.8313 190.613 37.4069 190.235 37.1347C189.856 36.8612 189.367 36.7256 188.762 36.7256H186.724V40.0859Z" fill="white"/>
<path d="M194.032 35.6048H200.425V36.7256H195.24V39.9129H200.08V41.0337H195.24V44.6534H200.683V45.7732H194.032V35.6048Z" fill="white"/>
</g>
</g>
<defs>
<clipPath id="clip0_2393_24582">
<rect width="200.683" height="45.4849" fill="white" transform="translate(0 0.546875)"/>
</clipPath>
</defs>
</svg>
