<svg width="484" height="355" viewBox="0 0 484 355" fill="none" xmlns="http://www.w3.org/2000/svg">
<path d="M1.37664 241.217C1.37664 250.218 7.9396 258.91 20.1001 266.908C32.2403 274.893 49.8405 282.102 71.634 288.165C115.214 300.288 175.447 307.793 242 307.793C308.552 307.793 368.786 300.288 412.366 288.165C434.159 282.102 451.759 274.893 463.9 266.908C476.06 258.91 482.623 250.218 482.623 241.217C482.623 232.216 476.06 223.523 463.9 215.525C451.759 207.541 434.159 200.331 412.366 194.268C368.786 182.145 308.552 174.641 242 174.641C175.447 174.641 115.214 182.145 71.634 194.268C49.8405 200.331 32.2403 207.541 20.1001 215.525C7.9396 223.523 1.37664 232.216 1.37664 241.217Z" stroke="#4936A7"/>
<path d="M241.999 481.84C252.054 481.84 261.727 475.246 270.606 463.096C279.477 450.957 287.486 433.36 294.222 411.569C307.69 367.994 316.028 307.765 316.028 241.217C316.028 174.668 307.69 114.44 294.222 70.8647C287.486 49.0742 279.477 31.4765 270.606 19.3374C261.727 7.18767 252.054 0.593746 241.999 0.593747C231.945 0.593747 222.272 7.18767 213.393 19.3374C204.522 31.4766 196.512 49.0743 189.777 70.8647C176.309 114.44 167.97 174.668 167.97 241.217C167.97 307.766 176.309 367.994 189.777 411.569C196.512 433.36 204.522 450.957 213.393 463.096C222.272 475.246 231.945 481.84 241.999 481.84Z" stroke="#4936A7"/>
<mask id="path-3-inside-1_2393_24243" fill="white">
<ellipse cx="241.562" cy="241.217" rx="241.123" ry="0.438406" transform="rotate(90 241.562 241.217)"/>
</mask>
<path d="M241.562 481.34C241.912 481.404 242.333 481.705 242.427 481.841C242.463 481.909 242.508 482.02 242.52 482.059C242.538 482.124 242.545 482.173 242.546 482.178C242.549 482.201 242.549 482.211 242.548 482.19C242.545 482.156 242.542 482.092 242.538 481.991C242.531 481.792 242.524 481.488 242.517 481.077C242.502 480.259 242.487 479.038 242.473 477.432C242.445 474.223 242.417 469.488 242.391 463.387C242.339 451.187 242.291 433.532 242.252 411.715C242.172 368.081 242.123 307.801 242.123 241.217L240.123 241.217C240.123 307.802 240.172 368.083 240.252 411.719C240.291 433.536 240.339 451.193 240.391 463.396C240.417 469.497 240.445 474.236 240.473 477.45C240.488 479.057 240.502 480.285 240.517 481.113C240.524 481.526 240.532 481.845 240.54 482.062C240.544 482.169 240.548 482.262 240.553 482.333C240.555 482.365 240.559 482.413 240.566 482.462C240.569 482.481 240.577 482.54 240.598 482.611C240.611 482.654 240.656 482.767 240.693 482.837C240.788 482.974 241.21 483.277 241.562 483.34L241.562 481.34ZM242.123 241.217C242.123 174.633 242.172 114.353 242.252 70.7189C242.291 48.9018 242.338 31.247 242.391 19.0467C242.417 12.9463 242.445 8.21102 242.473 5.0014C242.487 3.3961 242.502 2.17507 242.517 1.35654C242.524 0.946285 242.531 0.64237 242.538 0.443343C242.542 0.34186 242.545 0.277984 242.548 0.244084C242.549 0.223325 242.549 0.23239 242.546 0.255563C242.545 0.260509 242.538 0.310309 242.52 0.374627C242.508 0.414029 242.463 0.524796 242.427 0.592916C242.333 0.728909 241.912 1.03024 241.562 1.09375L241.562 -0.90625C241.21 -0.842737 240.788 -0.540585 240.693 -0.402946C240.656 -0.33318 240.611 -0.219944 240.598 -0.177253C240.577 -0.106356 240.569 -0.0466924 240.566 -0.0286075C240.559 0.0208423 240.555 0.0692836 240.553 0.100922C240.548 0.171815 240.544 0.264813 240.54 0.371653C240.532 0.589274 240.524 0.907805 240.517 1.32074C240.502 2.1486 240.488 3.37696 240.473 4.98363C240.445 8.19797 240.417 12.937 240.391 19.0381C240.339 31.2408 240.291 48.8977 240.252 70.7153C240.172 114.351 240.123 174.632 240.123 241.217L242.123 241.217ZM241.562 1.09375C241.211 1.03024 240.79 0.728909 240.696 0.592916C240.66 0.524796 240.616 0.414029 240.603 0.374627C240.585 0.310309 240.578 0.260509 240.577 0.255563C240.574 0.23239 240.574 0.223325 240.575 0.244084C240.578 0.277984 240.581 0.34186 240.585 0.443344C240.592 0.64237 240.599 0.946285 240.607 1.35654C240.621 2.17507 240.636 3.3961 240.65 5.0014C240.679 8.21102 240.706 12.9463 240.732 19.0467C240.785 31.247 240.832 48.9018 240.872 70.7189C240.951 114.353 241 174.633 241 241.217L243 241.217C243 174.632 242.951 114.351 242.872 70.7153C242.832 48.8977 242.785 31.2408 242.732 19.0381C242.706 12.937 242.678 8.19797 242.65 4.98363C242.636 3.37696 242.621 2.1486 242.606 1.32074C242.599 0.907805 242.591 0.589274 242.584 0.371652C242.58 0.264813 242.575 0.171815 242.57 0.100922C242.568 0.0692835 242.564 0.0208422 242.557 -0.0286076C242.555 -0.0466925 242.546 -0.106356 242.526 -0.177253C242.512 -0.219945 242.467 -0.33318 242.43 -0.402946C242.335 -0.540585 241.913 -0.842737 241.562 -0.90625L241.562 1.09375ZM241 241.217C241 307.801 240.951 368.081 240.872 411.715C240.832 433.532 240.785 451.187 240.732 463.387C240.706 469.488 240.679 474.223 240.65 477.432C240.636 479.038 240.621 480.259 240.607 481.077C240.599 481.488 240.592 481.792 240.585 481.991C240.581 482.092 240.578 482.156 240.575 482.19C240.574 482.211 240.574 482.201 240.577 482.178C240.578 482.173 240.585 482.124 240.603 482.059C240.616 482.02 240.66 481.909 240.696 481.841C240.79 481.705 241.211 481.404 241.562 481.34L241.562 483.34C241.913 483.277 242.335 482.974 242.43 482.837C242.467 482.767 242.512 482.654 242.526 482.611C242.546 482.54 242.555 482.481 242.557 482.462C242.564 482.413 242.568 482.365 242.57 482.333C242.575 482.262 242.58 482.169 242.584 482.062C242.591 481.845 242.599 481.526 242.606 481.113C242.621 480.285 242.636 479.057 242.65 477.45C242.678 474.236 242.706 469.497 242.732 463.396C242.785 451.193 242.832 433.536 242.872 411.719C242.951 368.083 243 307.802 243 241.217L241 241.217Z" fill="#4936A7" mask="url(#path-3-inside-1_2393_24243)"/>
<path d="M242 481.401C285.36 481.401 324.679 454.599 353.182 411.132C381.682 367.669 399.326 307.596 399.326 241.216C399.326 174.836 381.682 114.763 353.182 71.3004C324.679 27.8332 285.36 1.03124 242 1.03124C198.641 1.03124 159.322 27.8332 130.819 71.3004C102.318 114.763 84.6743 174.836 84.6743 241.216C84.6743 307.596 102.318 367.669 130.819 411.132C159.322 454.599 198.641 481.401 242 481.401Z" stroke="#4936A7"/>
<path d="M36.4498 362.655C36.4498 369.888 42.0143 376.909 52.4069 383.391C62.7733 389.857 77.8068 395.699 96.4282 400.612C133.664 410.436 185.131 416.518 242.001 416.518C298.87 416.518 350.337 410.436 387.573 400.612C406.194 395.699 421.228 389.857 431.594 383.391C441.987 376.909 447.551 369.888 447.551 362.655C447.551 355.422 441.987 348.402 431.594 341.919C421.228 335.453 406.194 329.612 387.573 324.699C350.337 314.875 298.87 308.793 242.001 308.793C185.131 308.793 133.664 314.875 96.4282 324.699C77.8068 329.612 62.7733 335.453 52.4069 341.919C42.0143 348.402 36.4498 355.422 36.4498 362.655Z" stroke="#4936A7"/>
<path d="M36.4498 121.094C36.4498 114.048 42.006 107.2 52.4023 100.872C62.769 94.5623 77.8033 88.862 96.4253 84.0678C133.662 74.4814 185.131 68.5464 242.001 68.5464C298.87 68.5464 350.339 74.4814 387.576 84.0678C406.198 88.862 421.232 94.5623 431.599 100.872C441.995 107.2 447.551 114.048 447.551 121.094C447.551 128.139 441.995 134.987 431.599 141.315C421.232 147.625 406.198 153.325 387.576 158.119C350.339 167.706 298.87 173.641 242.001 173.641C185.131 173.641 133.662 167.706 96.4253 158.119C77.8033 153.325 62.769 147.625 52.4023 141.315C42.006 134.987 36.4498 128.139 36.4498 121.094Z" stroke="#4936A7"/>
<path d="M132.022 37.3585C132.022 33.3817 134.929 29.4758 140.478 25.8311C146.008 22.1998 154.042 18.9104 164.014 16.1402C183.952 10.602 211.524 7.17006 242 7.17006C272.476 7.17006 300.048 10.602 319.986 16.1402C329.959 18.9104 337.993 22.1998 343.522 25.8311C349.072 29.4758 351.978 33.3817 351.978 37.3585C351.978 41.3352 349.072 45.2412 343.522 48.8859C337.993 52.5172 329.959 55.8066 319.986 58.5767C300.048 64.115 272.476 67.5469 242 67.5469C211.524 67.5469 183.952 64.115 164.014 58.5767C154.042 55.8066 146.008 52.5172 140.478 48.8859C134.929 45.2412 132.022 41.3352 132.022 37.3585Z" stroke="#4936A7"/>
<circle cx="242" cy="242" r="241.5" transform="matrix(-1 0 0 1 484 1.41016)" stroke="#4936A7"/>
</svg>
