<svg width="208" height="32" viewBox="0 0 208 32" fill="none" xmlns="http://www.w3.org/2000/svg">
<g id="Google Cloud">
<path id="Vector" d="M25.1614 8.46859H26.3043L29.5614 5.21144L29.7214 3.82859C27.8555 2.18168 25.6006 1.03763 23.1696 0.504508C20.7386 -0.0286118 18.2119 0.0667985 15.828 0.781726C13.4442 1.49665 11.2819 2.8075 9.54553 4.59043C7.80914 6.37336 6.55593 8.56952 5.9043 10.9714C6.26716 10.8227 6.66911 10.7986 7.04715 10.9029L13.5614 9.82859C13.5614 9.82859 13.8929 9.28001 14.0643 9.3143C15.4601 7.78135 17.3891 6.8399 19.4563 6.68268C21.5236 6.52546 23.5727 7.16436 25.1843 8.46859H25.1614Z" fill="white"/>
<path id="Vector_2" d="M34.2002 10.9715C33.4516 8.21447 31.9144 5.73596 29.7774 3.84003L25.2059 8.41146C26.1587 9.18993 26.9222 10.1746 27.4389 11.2912C27.9556 12.4077 28.212 13.6271 28.1888 14.8572V15.6686C28.7231 15.6686 29.2522 15.7738 29.7458 15.9783C30.2394 16.1828 30.6879 16.4825 31.0657 16.8603C31.4435 17.2381 31.7432 17.6866 31.9477 18.1802C32.1521 18.6738 32.2574 19.2029 32.2574 19.7372C32.2574 20.2715 32.1521 20.8005 31.9477 21.2941C31.7432 21.7878 31.4435 22.2363 31.0657 22.6141C30.6879 22.9919 30.2394 23.2916 29.7458 23.496C29.2522 23.7005 28.7231 23.8057 28.1888 23.8057H20.0517L19.2402 24.6286V29.5086L20.0517 30.32H28.1888C30.4611 30.3377 32.6787 29.6236 34.5136 28.2832C36.3485 26.9428 37.7033 25.0474 38.3775 22.8774C39.0517 20.7074 39.0096 18.378 38.2572 16.2338C37.5049 14.0896 36.0825 12.2445 34.2002 10.9715Z" fill="white"/>
<path id="Vector_3" d="M11.9042 30.2743H20.0413V23.76H11.9042C11.3245 23.7599 10.7515 23.6352 10.2242 23.3943L9.08134 23.7486L5.80134 27.0057L5.51562 28.1486C7.35498 29.5375 9.59937 30.2843 11.9042 30.2743Z" fill="white"/>
<path id="Vector_4" d="M11.9044 9.14283C9.69963 9.156 7.55402 9.85746 5.76726 11.1492C3.98049 12.441 2.6418 14.2586 1.93816 16.3481C1.23452 18.4376 1.20107 20.6947 1.84248 22.8042C2.48389 24.9137 3.76813 26.7701 5.51583 28.1143L10.2358 23.3943C9.63602 23.1233 9.11091 22.7108 8.70555 22.1922C8.30019 21.6737 8.02669 21.0645 7.90852 20.417C7.79034 19.7695 7.83102 19.103 8.02706 18.4747C8.2231 17.8464 8.56865 17.275 9.03406 16.8096C9.49947 16.3442 10.0708 15.9987 10.6992 15.8026C11.3275 15.6066 11.994 15.5659 12.6415 15.6841C13.289 15.8023 13.8981 16.0758 14.4167 16.4811C14.9352 16.8865 15.3477 17.4116 15.6187 18.0114L20.3387 13.2914C19.348 11.9963 18.0712 10.9479 16.608 10.2282C15.1448 9.50848 13.535 9.13702 11.9044 9.14283Z" fill="white"/>
<path id="Vector_5" d="M60.5219 25.7257C59.1209 25.7436 57.7307 25.4785 56.4346 24.9463C55.1385 24.4141 53.9632 23.6258 52.979 22.6286C51.9638 21.6737 51.1582 20.5182 50.6132 19.2355C50.0683 17.9528 49.7959 16.5708 49.8133 15.1772C49.7966 13.7837 50.0693 12.4019 50.6142 11.1192C51.1591 9.83661 51.9644 8.68106 52.979 7.72574C53.9584 6.7182 55.1315 5.91932 56.4279 5.37722C57.7242 4.83513 59.1168 4.56103 60.5219 4.57145C61.8607 4.55361 63.1896 4.80206 64.4316 5.30236C65.6735 5.80267 66.8036 6.54484 67.7561 7.48574L65.7219 9.55431C64.3287 8.20797 62.459 7.4683 60.5219 7.49717C59.517 7.48483 58.5205 7.68166 57.5958 8.07516C56.6711 8.46866 55.8383 9.05022 55.1504 9.78288C54.4355 10.4921 53.8716 11.3387 53.4925 12.2716C53.1134 13.2046 52.9271 14.2046 52.9447 15.2115C52.9363 16.2068 53.1272 17.1938 53.506 18.1143C53.8848 19.0348 54.4439 19.8703 55.1504 20.5715C56.5657 21.9818 58.4756 22.7842 60.4735 22.8077C62.4714 22.8311 64.3996 22.0739 65.8476 20.6972C66.744 19.7154 67.294 18.467 67.4133 17.1429H60.5561V14.2172H70.259C70.3543 14.8064 70.3926 15.4034 70.3733 16C70.4336 17.2348 70.2429 18.4689 69.8128 19.6279C69.3826 20.7869 68.7218 21.8465 67.8704 22.7429C66.9238 23.7284 65.7802 24.5034 64.514 25.0174C63.2478 25.5313 61.8876 25.7727 60.5219 25.7257ZM83.0819 23.7829C81.7797 25.0311 80.0456 25.728 78.2419 25.728C76.4381 25.728 74.704 25.0311 73.4019 23.7829C72.7537 23.1545 72.2433 22.3982 71.9029 21.5621C71.5626 20.7259 71.3997 19.8282 71.4247 18.9257C71.4004 18.0234 71.5636 17.1259 71.9039 16.2898C72.2442 15.4538 72.7543 14.6974 73.4019 14.0686C74.7054 12.823 76.4389 12.1279 78.2419 12.1279C80.0448 12.1279 81.7784 12.823 83.0819 14.0686C83.7294 14.6974 84.2395 15.4538 84.5798 16.2898C84.9201 17.1259 85.0833 18.0234 85.059 18.9257C85.0825 19.829 84.9179 20.7273 84.5755 21.5634C84.2332 22.3996 83.7206 23.1555 83.0704 23.7829H83.0819ZM75.539 21.8743C75.8854 22.2442 76.304 22.5391 76.7689 22.7406C77.2338 22.9422 77.7351 23.0462 78.2419 23.0462C78.7486 23.0462 79.2499 22.9422 79.7149 22.7406C80.1798 22.5391 80.5984 22.2442 80.9447 21.8743C81.3224 21.484 81.6181 21.022 81.8143 20.5156C82.0106 20.0092 82.1035 19.4686 82.0876 18.9257C82.1044 18.381 82.012 17.8385 81.8157 17.3301C81.6194 16.8217 81.3232 16.3578 80.9447 15.9657C80.5938 15.5996 80.1724 15.3083 79.7059 15.1093C79.2395 14.9103 78.7376 14.8077 78.2304 14.8077C77.7233 14.8077 77.2214 14.9103 76.7549 15.1093C76.2885 15.3083 75.8671 15.5996 75.5162 15.9657C75.1376 16.3578 74.8415 16.8217 74.6452 17.3301C74.4489 17.8385 74.3565 18.381 74.3733 18.9257C74.3589 19.4694 74.4536 20.0105 74.6518 20.5169C74.8501 21.0234 75.1479 21.4849 75.5276 21.8743H75.539ZM97.9619 23.7829C96.6597 25.0311 94.9257 25.728 93.1219 25.728C91.3181 25.728 89.584 25.0311 88.2819 23.7829C87.6337 23.1545 87.1233 22.3982 86.7829 21.5621C86.4426 20.7259 86.2797 19.8282 86.3047 18.9257C86.2804 18.0234 86.4436 17.1259 86.7839 16.2898C87.1242 15.4538 87.6343 14.6974 88.2819 14.0686C89.584 12.8204 91.3181 12.1235 93.1219 12.1235C94.9257 12.1235 96.6597 12.8204 97.9619 14.0686C98.6094 14.6974 99.1195 15.4538 99.4598 16.2898C99.8001 17.1259 99.9633 18.0234 99.939 18.9257C99.964 19.8282 99.8011 20.7259 99.4608 21.5621C99.1204 22.3982 98.61 23.1545 97.9619 23.7829ZM90.419 21.8743C90.7654 22.2442 91.184 22.5391 91.6489 22.7406C92.1138 22.9422 92.6151 23.0462 93.1219 23.0462C93.6286 23.0462 94.1299 22.9422 94.5949 22.7406C95.0598 22.5391 95.4784 22.2442 95.8247 21.8743C96.2024 21.484 96.4981 21.022 96.6943 20.5156C96.8906 20.0092 96.9835 19.4686 96.9676 18.9257C96.9844 18.381 96.892 17.8385 96.6957 17.3301C96.4994 16.8217 96.2032 16.3578 95.8247 15.9657C95.4738 15.5996 95.0524 15.3083 94.5859 15.1093C94.1195 14.9103 93.6176 14.8077 93.1104 14.8077C92.6033 14.8077 92.1014 14.9103 91.6349 15.1093C91.1685 15.3083 90.7471 15.5996 90.3961 15.9657C90.0176 16.3578 89.7215 16.8217 89.5252 17.3301C89.3289 17.8385 89.2364 18.381 89.2533 18.9257C89.2388 19.4694 89.3335 20.0105 89.5318 20.5169C89.7301 21.0234 90.0279 21.4849 90.4076 21.8743H90.419ZM107.745 31.8286C106.375 31.8722 105.032 31.4446 103.939 30.6172C102.969 29.8879 102.205 28.9191 101.722 27.8057L104.328 26.72C104.611 27.3854 105.055 27.9704 105.619 28.4229C106.223 28.9097 106.981 29.165 107.756 29.1429C108.248 29.1728 108.74 29.0964 109.2 28.9189C109.659 28.7414 110.075 28.467 110.419 28.1143C111.108 27.2838 111.448 26.2188 111.368 25.1429V24.16H111.265C110.829 24.6773 110.279 25.086 109.658 25.3538C109.037 25.6216 108.363 25.7411 107.688 25.7029C106.83 25.7055 105.98 25.5301 105.193 25.1878C104.407 24.8455 103.699 24.3438 103.116 23.7143C102.483 23.0898 101.984 22.3435 101.648 21.5204C101.312 20.6973 101.147 19.8146 101.162 18.9257C101.146 18.0317 101.311 17.1436 101.647 16.3149C101.983 15.4861 102.482 14.7338 103.116 14.1029C103.698 13.4708 104.405 12.9665 105.192 12.6222C105.979 12.2779 106.829 12.101 107.688 12.1029C108.415 12.1016 109.133 12.2616 109.79 12.5715C110.359 12.8199 110.867 13.1906 111.276 13.6572H111.379V12.5715H114.213V24.7429C114.288 25.7057 114.165 26.6736 113.853 27.5874C113.54 28.5012 113.045 29.3416 112.396 30.0572C111.778 30.6481 111.049 31.1093 110.25 31.4136C109.451 31.7178 108.599 31.8589 107.745 31.8286ZM107.95 23.0515C108.438 23.0622 108.923 22.9653 109.369 22.7678C109.816 22.5703 110.213 22.277 110.533 21.9086C111.238 21.1005 111.61 20.0547 111.573 18.9829C111.616 17.893 111.244 16.8274 110.533 16C110.214 15.631 109.816 15.3373 109.37 15.1397C108.923 14.9421 108.439 14.8456 107.95 14.8572C107.449 14.8469 106.951 14.9435 106.49 15.1405C106.029 15.3376 105.615 15.6306 105.276 16C104.52 16.7976 104.109 17.8613 104.133 18.96C104.122 19.4989 104.217 20.0348 104.413 20.5369C104.609 21.039 104.902 21.4974 105.276 21.8857C105.614 22.2588 106.027 22.5556 106.488 22.7566C106.949 22.9576 107.447 23.0581 107.95 23.0515ZM119.253 5.33717V25.3143H116.27V5.33717H119.253ZM127.436 25.7257C126.543 25.7487 125.654 25.587 124.826 25.2507C123.999 24.9144 123.249 24.4108 122.625 23.7715C121.991 23.1368 121.493 22.3799 121.161 21.5469C120.829 20.714 120.67 19.8222 120.693 18.9257C120.659 18.0271 120.807 17.1309 121.127 16.2905C121.447 15.4501 121.933 14.6828 122.556 14.0343C123.143 13.4154 123.853 12.926 124.64 12.5973C125.428 12.2686 126.275 12.108 127.128 12.1257C127.912 12.1175 128.69 12.2691 129.413 12.5715C130.065 12.8346 130.659 13.2228 131.162 13.7143C131.593 14.131 131.977 14.5948 132.305 15.0972C132.57 15.5213 132.796 15.9689 132.979 16.4343L133.288 17.2115L124.145 20.9715C124.421 21.6068 124.884 22.1434 125.471 22.5106C126.059 22.8779 126.744 23.0584 127.436 23.0286C128.11 23.0304 128.772 22.8577 129.359 22.5272C129.946 22.1967 130.437 21.7198 130.785 21.1429L133.07 22.6857C132.487 23.5203 131.741 24.2279 130.876 24.7657C129.848 25.4153 128.652 25.7491 127.436 25.7257ZM123.619 18.72L129.699 16.1943C129.512 15.749 129.177 15.3817 128.75 15.1543C128.273 14.8848 127.733 14.7467 127.185 14.7543C126.255 14.7784 125.372 15.1686 124.728 15.84C124.342 16.2088 124.043 16.6582 123.851 17.1561C123.66 17.6539 123.58 18.188 123.619 18.72Z" fill="white"/>
<path id="Vector_6" d="M148.91 25.7257C147.641 25.7476 146.381 25.513 145.206 25.0358C144.03 24.5587 142.963 23.8489 142.069 22.9491C141.174 22.0493 140.471 20.978 140 19.7996C139.53 18.6211 139.303 17.3599 139.333 16.0915C139.303 14.823 139.53 13.5618 140 12.3833C140.471 11.2049 141.174 10.1336 142.069 9.23382C142.963 8.33401 144.03 7.62423 145.206 7.14708C146.381 6.66994 147.641 6.43527 148.91 6.45717C150.194 6.41702 151.47 6.66754 152.644 7.18999C153.817 7.71244 154.858 8.49333 155.687 9.47431L154.041 11.0743C153.432 10.3085 152.651 9.69715 151.762 9.29005C150.872 8.88295 149.899 8.69156 148.921 8.73145C147.98 8.71025 147.045 8.87953 146.171 9.22912C145.297 9.57871 144.502 10.1014 143.835 10.7657C143.142 11.4629 142.601 12.2959 142.245 13.2124C141.889 14.1289 141.726 15.1091 141.767 16.0915C141.726 17.0738 141.889 18.054 142.245 18.9705C142.601 19.887 143.142 20.72 143.835 21.4172C144.502 22.0815 145.297 22.6042 146.171 22.9538C147.045 23.3034 147.98 23.4727 148.921 23.4515C150.013 23.4637 151.094 23.2296 152.084 22.7666C153.073 22.3036 153.945 21.6236 154.635 20.7772L156.281 22.4229C155.42 23.4533 154.338 24.2773 153.115 24.8343C151.798 25.4426 150.361 25.7472 148.91 25.7257Z" fill="white"/>
<path id="Vector_7" d="M160.704 25.3143H158.338V6.85712H160.704V25.3143Z" fill="white"/>
<path id="Vector_8" d="M164.566 14.2057C165.806 12.9746 167.482 12.2837 169.229 12.2837C170.976 12.2837 172.652 12.9746 173.892 14.2057C174.498 14.8457 174.972 15.5993 175.285 16.4231C175.599 17.2469 175.747 18.1246 175.72 19.0057C175.747 19.8868 175.599 20.7645 175.285 21.5883C174.972 22.4121 174.498 23.1657 173.892 23.8057C172.652 25.0368 170.976 25.7277 169.229 25.7277C167.482 25.7277 165.806 25.0368 164.566 23.8057C163.96 23.1657 163.486 22.4121 163.172 21.5883C162.859 20.7645 162.711 19.8868 162.737 19.0057C162.711 18.1246 162.859 17.2469 163.172 16.4231C163.486 15.5993 163.96 14.8457 164.566 14.2057ZM166.326 22.32C166.699 22.7139 167.148 23.0277 167.646 23.2421C168.144 23.4566 168.681 23.5672 169.223 23.5672C169.765 23.5672 170.302 23.4566 170.8 23.2421C171.298 23.0277 171.748 22.7139 172.12 22.32C172.534 21.8763 172.855 21.3547 173.065 20.7857C173.275 20.2167 173.369 19.6116 173.343 19.0057C173.369 18.3998 173.275 17.7947 173.065 17.2257C172.855 16.6566 172.534 16.1351 172.12 15.6914C171.748 15.2975 171.298 14.9837 170.8 14.7693C170.302 14.5548 169.765 14.4442 169.223 14.4442C168.681 14.4442 168.144 14.5548 167.646 14.7693C167.148 14.9837 166.699 15.2975 166.326 15.6914C165.913 16.1351 165.591 16.6566 165.382 17.2257C165.172 17.7947 165.077 18.3998 165.103 19.0057C165.08 19.6105 165.177 20.2139 165.389 20.7809C165.601 21.3479 165.923 21.8671 166.337 22.3086L166.326 22.32Z" fill="white"/>
<path id="Vector_9" d="M188.829 25.3143H186.543V23.5657H186.474C186.068 24.2298 185.492 24.7741 184.806 25.1429C184.094 25.5554 183.286 25.7723 182.463 25.7714C181.795 25.8171 181.125 25.7114 180.504 25.462C179.882 25.2127 179.325 24.8262 178.874 24.3314C178.009 23.2364 177.574 21.8623 177.651 20.4686V12.6971H180.017V20.0343C180.017 22.3886 181.057 23.5657 183.137 23.5657C183.599 23.5801 184.058 23.4839 184.476 23.2851C184.893 23.0864 185.257 22.7907 185.537 22.4229C186.15 21.6458 186.477 20.6812 186.463 19.6914V12.6971H188.829V25.3143Z" fill="white"/>
<path id="Vector_10" d="M196.864 25.7257C196.061 25.7284 195.268 25.5571 194.538 25.2237C193.808 24.8902 193.159 24.4026 192.635 23.7943C191.45 22.4856 190.816 20.7704 190.864 19.0057C190.816 17.241 191.45 15.5258 192.635 14.2171C193.159 13.6088 193.808 13.1212 194.538 12.7877C195.268 12.4543 196.061 12.283 196.864 12.2857C197.763 12.2715 198.651 12.4837 199.447 12.9028C200.146 13.2546 200.738 13.7874 201.161 14.4457H201.264L201.161 12.6971V6.85712H203.527V25.3143H201.241V23.5657H201.138C200.715 24.224 200.123 24.7568 199.424 25.1085C198.635 25.5239 197.755 25.7361 196.864 25.7257ZM197.252 23.5657C197.787 23.5735 198.317 23.4674 198.808 23.2546C199.299 23.0418 199.738 22.7271 200.098 22.3314C200.902 21.4164 201.312 20.2214 201.241 19.0057C201.312 17.7899 200.902 16.595 200.098 15.68C199.736 15.2821 199.295 14.9642 198.803 14.7467C198.311 14.5292 197.779 14.4168 197.241 14.4168C196.703 14.4168 196.171 14.5292 195.679 14.7467C195.187 14.9642 194.746 15.2821 194.384 15.68C193.985 16.13 193.678 16.6545 193.482 17.2232C193.286 17.7919 193.204 18.3938 193.241 18.9943C193.204 19.5947 193.286 20.1966 193.482 20.7653C193.678 21.334 193.985 21.8585 194.384 22.3085C194.744 22.7114 195.187 23.0321 195.681 23.249C196.176 23.4659 196.712 23.5739 197.252 23.5657Z" fill="white"/>
</g>
</svg>
