<svg width="215" height="32" viewBox="0 0 215 32" fill="none" xmlns="http://www.w3.org/2000/svg">
<g id="Frame 1171277160" clip-path="url(#clip0_2393_24584)">
<g id="Vector">
<path d="M194.218 18.5688C194.254 18.5688 194.325 18.6046 194.432 18.6046C194.54 18.6046 194.54 18.6761 194.54 18.6761L194.575 18.8192C194.575 18.8192 194.718 18.8549 194.754 18.9265C194.826 18.998 194.719 18.998 194.683 18.998C194.647 19.0337 194.54 18.998 194.54 18.998L194.611 19.141L194.468 19.2125L194.254 19.141L194.325 19.2483L194.254 19.3198C194.254 19.3198 193.932 19.2125 193.932 19.1768C193.932 19.141 193.86 19.1053 193.86 19.1053L193.61 19.141L193.646 19.0337L193.896 18.9622C193.896 18.9622 194.075 18.8907 194.111 18.8907C194.146 18.8907 193.932 18.8192 193.932 18.7834C193.932 18.7477 193.86 18.7119 193.86 18.7119C193.86 18.7119 193.824 18.7119 193.789 18.7119C193.717 18.7476 193.646 18.7834 193.574 18.8192L193.646 18.8549L193.503 18.998C193.503 18.998 193.467 19.0337 193.395 19.0695C193.288 19.1053 193.217 19.0695 193.145 19.1053C193.145 19.1053 193.145 19.1053 193.109 19.1053C193.073 19.141 193.038 19.141 192.966 19.1768L193.038 19.141H193.145L193.217 19.2125L193.288 19.2483C193.288 19.2483 193.252 19.2841 193.181 19.2841C193.109 19.2841 193.038 19.2841 193.002 19.2841L192.859 19.3198L192.895 19.2483C192.895 19.2483 192.859 19.2483 192.823 19.2483C192.537 19.4271 192.251 19.6417 191.965 19.8562C191.965 19.892 191.965 19.9278 191.965 19.9278H192.108L192.323 19.9993L192.394 20.035H192.573L192.537 20.1066L192.501 20.2139V20.3211L192.573 20.3569L192.716 20.2496V20.1066C192.716 20.1066 192.859 20.0708 192.93 20.035C193.002 19.9993 193.109 19.892 193.109 19.892C193.109 19.8562 193.074 19.7847 193.074 19.7847C193.074 19.7847 193.181 19.7132 193.217 19.6774C193.252 19.6417 193.252 19.5344 193.252 19.5344C193.252 19.5344 193.217 19.4629 193.324 19.4271C193.431 19.4271 193.538 19.4271 193.574 19.4271C193.61 19.4271 193.646 19.3913 193.717 19.4271C193.753 19.4271 193.789 19.4629 193.789 19.4986H193.896L193.824 19.6059L193.717 19.6774L193.824 19.7132L193.896 19.749L194.075 19.6417L194.146 19.5702V19.6059C194.54 19.1768 194.969 18.7834 195.469 18.4616L195.362 18.2828H195.005C194.862 18.3185 194.54 18.4258 194.218 18.5688ZM191.929 21.1079L192.001 21.1436L192.251 21.1079L192.466 21.0364L192.537 20.9291L192.358 20.9648L192.287 21.0364H192.251L192.001 21.0721L191.929 21.1079ZM192.001 20.5715L191.893 20.5357C191.893 20.5357 191.786 20.5357 191.786 20.5715C191.75 20.6072 191.715 20.6072 191.679 20.643C191.643 20.643 191.5 20.7145 191.5 20.7145L191.536 20.7503L191.679 20.7145L191.858 20.6787L191.929 20.7503L192.072 20.7145L192.179 20.6787L192.144 20.6072L192.001 20.5715ZM192.001 20.786H191.893L191.715 20.8933L191.607 21.1079H191.715L191.786 20.9648L191.929 20.8218H192.036L191.893 20.9291H192.001L192.072 20.8933V20.9648L192.179 20.9291L192.251 20.786L192.179 20.7503L192.001 20.786ZM193.753 20.3211C193.681 20.3211 193.681 20.3211 193.646 20.3569C193.61 20.3927 193.574 20.4284 193.574 20.4284L193.467 20.4999H193.503L193.717 20.4642C193.717 20.4284 193.717 20.3569 193.753 20.3211ZM193.002 28.6177C193.002 28.5462 192.966 28.4389 192.93 28.4031C192.895 28.3674 192.895 28.3316 192.859 28.2958L192.823 28.2243C192.823 28.2243 192.823 28.2601 192.787 28.2243C192.752 28.1885 192.68 28.117 192.68 28.117V28.0455L192.644 27.8667V27.5091L192.537 27.2945V27.08L192.609 26.9369L192.573 26.9012V26.7939C192.573 26.7939 192.573 26.7224 192.573 26.6866C192.573 26.6866 192.573 26.6508 192.573 26.6151C191.929 26.5435 191.285 26.472 190.606 26.3647C191.178 27.1872 191.965 27.974 193.002 28.6177ZM189.962 23.8972C189.962 24.684 190.177 25.3992 190.534 26.0786C191.178 26.1859 191.858 26.2575 192.573 26.3647V26.2217C192.573 26.2217 192.537 26.1859 192.501 26.1502C192.466 26.1144 192.501 26.1502 192.466 26.1144C192.43 26.0787 192.287 26.0071 192.287 26.0071C192.287 26.0071 192.144 25.9356 192.108 25.8998C192.072 25.8641 192.001 25.8641 191.965 25.8283C191.929 25.7926 191.929 25.7568 191.929 25.7568C191.929 25.7568 191.75 25.4707 191.715 25.435C191.679 25.3992 191.643 25.3634 191.643 25.3277C191.643 25.2919 191.536 25.2204 191.536 25.1846L191.428 25.1131C191.428 25.1131 191.393 25.0416 191.393 25.0058C191.393 24.9701 191.428 24.9343 191.464 24.8985C191.464 24.8628 191.464 24.827 191.464 24.827C191.464 24.7913 191.464 24.7913 191.464 24.7555C191.464 24.7197 191.464 24.7197 191.464 24.684C191.464 24.6482 191.643 24.5052 191.643 24.5052C191.643 24.4694 191.715 24.4337 191.75 24.3979C191.786 24.3621 191.822 24.2906 191.822 24.2906C191.822 24.2548 191.858 24.1476 191.822 24.1118C191.786 24.076 191.715 23.933 191.715 23.933L191.643 23.8615H191.572L191.536 23.8972V23.933L191.5 23.9688H191.428L191.285 23.8972L191.214 23.8257L191.035 23.7899L190.999 23.6827L190.856 23.5396H190.713L190.606 23.5039H190.534L190.463 23.4323L190.32 23.3251H190.213C190.213 23.3251 190.141 23.3608 190.105 23.3608H190.034C189.962 23.5039 189.962 23.6827 189.962 23.8972ZM193.002 21.1079C193.109 21.1079 193.217 21.1079 193.36 21.1079C193.395 21.0006 193.467 20.8933 193.503 20.786L193.145 20.9648C193.145 20.9291 193.002 21.1079 193.002 21.1079ZM199.975 19.141C200.047 19.141 200.047 19.141 200.047 19.141V19.0695H200.154V19.0337L200.261 18.998C200.226 18.9622 200.226 18.9265 200.19 18.8907L200.083 18.9622C200.083 18.9622 199.94 18.9265 199.904 18.9265L199.797 18.9622L199.832 19.0337C199.868 19.0695 199.94 19.141 199.975 19.141ZM200.798 21.1079C200.691 21.0721 200.583 21.0721 200.476 21.0721L200.619 21.1079H200.798ZM199.975 21.0721C199.975 21.0721 200.011 21.0721 200.047 21.0721C199.975 21.0721 199.904 21.0721 199.832 21.0721V21.1079H199.975M200.512 22.2165C200.44 22.1807 200.44 22.2522 200.44 22.2522L200.619 22.5383L200.655 22.6456L200.762 22.7886C200.762 22.7886 200.798 22.8602 200.798 22.8959C200.798 22.9317 200.869 23.039 200.869 23.039C200.869 23.039 200.869 23.1105 200.905 23.1463C200.941 23.182 201.084 23.3966 201.12 23.4323C201.155 23.4681 201.191 23.4681 201.299 23.5039C201.406 23.5754 201.406 23.6111 201.406 23.6111V23.6469L201.513 23.7184C201.513 23.6469 201.513 23.6111 201.513 23.5396H201.477C201.406 23.5396 201.406 23.5039 201.406 23.4681C201.406 23.4323 201.334 23.3608 201.334 23.2893C201.334 23.2178 201.263 23.1105 201.263 23.1105C201.263 23.1105 201.191 23.0747 201.191 23.0032C201.191 22.9674 201.12 22.9317 201.084 22.8959C201.048 22.8602 201.012 22.8602 201.012 22.7886C201.012 22.7171 200.977 22.6814 200.941 22.6098C200.905 22.5383 200.834 22.5383 200.834 22.5383C200.834 22.5383 200.834 22.5026 200.798 22.4668C200.726 22.3595 200.691 22.288 200.619 22.1807C200.548 22.2165 200.512 22.2165 200.512 22.2165ZM201.763 21.2152L201.799 21.1794L201.763 21.1436C201.62 21.1436 201.513 21.1436 201.37 21.1079L201.406 21.1794L201.477 21.2152L201.406 21.2509V21.394L201.442 21.5012C201.442 21.5012 201.477 21.5012 201.513 21.5012L201.549 21.537C201.549 21.537 201.62 21.5728 201.656 21.5728C201.692 21.5728 201.692 21.5728 201.692 21.5728C201.728 21.5728 201.835 21.537 201.835 21.537L201.799 21.4655V21.3582L201.763 21.3224V21.2509H201.728V21.1794C201.656 21.1794 201.763 21.2152 201.763 21.2152ZM206.841 21.8589C206.877 21.8589 206.913 21.8946 206.913 21.8946C206.913 21.8946 206.949 21.9661 206.984 21.9661C207.02 21.9661 207.056 22.0377 207.056 22.0377L207.092 22.0734H206.984H207.02L207.056 22.1449V22.1807H207.092C207.092 22.1807 207.092 22.2165 207.056 22.288C207.02 22.3595 207.056 22.4668 206.984 22.5741C207.092 22.9674 207.163 23.3608 207.163 23.7899L207.199 23.7542V23.7184L207.235 23.6827V23.7542L207.199 23.8257L207.128 23.8615V23.933C207.128 24.0045 207.128 24.076 207.128 24.1476H207.163L207.235 24.1833H207.163V24.2191H207.128C207.128 24.2548 207.128 24.2906 207.128 24.3264V24.3621L207.199 24.3979V24.4336H207.128L207.092 24.5052V24.5767L207.056 24.6124C207.02 24.7913 206.985 24.9701 206.949 25.1131C206.985 25.1131 207.02 25.1131 207.056 25.1131C207.128 25.1131 207.163 25.1131 207.199 25.1131C207.235 25.1131 207.342 25.1131 207.378 25.1131C207.414 25.1131 207.414 25.1489 207.414 25.1489L207.271 25.1846L206.949 25.2204H206.913C206.841 25.5065 206.734 25.7568 206.591 26.0429C206.877 26.0071 207.128 25.9356 207.378 25.8998L207.449 25.8641C207.449 25.8641 207.485 25.7926 207.557 25.7568C207.628 25.721 207.664 25.6853 207.7 25.6495C207.735 25.6138 207.807 25.6138 207.843 25.6138C207.879 25.6138 207.879 25.6853 207.879 25.6853L207.986 25.6495C207.986 25.6495 207.95 25.6495 207.986 25.6138C208.022 25.578 208.093 25.4707 208.093 25.4707H208.236V25.3992L208.558 25.4707L208.486 25.578L208.415 25.6495L208.486 25.721C208.63 25.6853 208.737 25.6495 208.88 25.6138V25.5065L208.987 25.3277L209.023 25.3634L209.094 25.5422C209.273 25.4707 209.452 25.435 209.595 25.3992C209.81 24.9343 209.917 24.4336 209.917 23.9688C209.917 23.4323 209.81 22.8959 209.559 22.431C209.023 22.2522 208.486 22.1092 207.95 22.0019V22.0377H207.914L207.879 21.9661C207.843 21.9661 207.843 21.9661 207.843 21.9661H207.735L207.664 22.0019L207.592 21.9661L207.628 21.9304C207.557 21.9304 207.485 21.8946 207.378 21.8946C207.378 21.8946 207.378 21.9304 207.342 21.9304C207.342 21.9661 207.199 21.9661 207.199 21.9661L207.163 21.9304C207.163 21.9304 207.163 21.8946 207.163 21.8589C207.02 21.8231 206.877 21.8231 206.77 21.7873L206.698 21.8589C206.77 21.8231 206.806 21.8231 206.841 21.8589ZM207.449 25.3634L207.378 25.3277L207.449 25.2919L207.521 25.3634H207.449ZM209.667 24.8985H209.81L209.953 24.827L209.917 24.8985L209.845 24.9343L209.667 24.8985ZM208.379 24.5409L208.558 24.6124V24.6482L208.665 24.7555L208.88 24.6124L208.916 24.6482L209.13 24.684L209.38 24.7913L209.488 24.8628V24.8985L209.667 24.9343V25.0058L209.595 25.0416H209.631L209.702 25.1489L209.774 25.1846L209.81 25.2562L209.738 25.2204L209.595 25.1846L209.524 25.0416L209.416 25.0058L209.309 25.0773L209.345 25.1131L209.273 25.1489L209.13 25.1131H209.023L208.916 25.0773L209.023 25.0416L208.987 24.9701L208.916 24.8628L208.808 24.827L208.63 24.7555L208.558 24.7913V24.7197L208.63 24.6482H208.558L208.486 24.5767H208.415V24.5052L208.379 24.5409ZM207.521 24.6482L207.592 24.5767H207.628L207.557 24.684L207.592 24.7913L207.664 24.827V24.8985L207.557 24.827L207.521 24.7197L207.449 24.7555V24.9701H207.378V24.8628L207.306 24.7555L207.342 24.6124L207.414 24.4694L207.557 24.4336L207.664 24.3979H207.7L207.592 24.4694H207.449L207.414 24.5767L207.521 24.6482ZM207.378 23.5039H207.449V23.5396L207.414 23.5754L207.378 23.5396V23.5039ZM207.592 23.7184L207.521 23.7542V23.6111L207.628 23.6469L207.592 23.7184ZM207.628 23.7184V23.8257H207.592V23.7542L207.628 23.7184ZM207.735 25.3277L207.7 25.2919L207.879 25.1846L207.914 25.2204L207.735 25.3277ZM207.879 23.8615L207.914 23.8972V23.9688L207.879 24.0045L207.843 23.9688L207.807 24.0045L207.843 24.0403L207.807 24.076H207.771L207.7 24.0045V23.933H207.664H207.592L207.557 24.0045H207.521L207.557 23.933H207.592V23.8972H207.664V23.933L207.735 23.8972V23.8615L207.771 23.8257L207.735 23.7899L207.879 23.8615ZM207.771 23.7184L207.7 23.6827L207.735 23.6469L207.7 23.6111L207.735 23.5754L207.771 23.6111V23.6469L207.735 23.6827C207.771 23.6827 207.771 23.7184 207.771 23.7184ZM207.7 21.9661L207.771 22.0019L207.807 22.0734V22.1807H207.735V22.0734L207.664 22.0377L207.628 22.0019L207.7 21.9661ZM207.521 23.4323L207.592 23.4681L207.664 23.5396L207.628 23.5754H207.592L207.557 23.5039H207.485L207.521 23.4323ZM207.378 23.0747L207.449 23.1463L207.485 23.2178L207.449 23.2893L207.414 23.3251V23.3966L207.449 23.4323V23.5039L207.414 23.5396L207.378 23.4681H207.306L207.271 23.3608H207.306V23.182L207.378 23.0747ZM207.235 22.6098H207.306V22.6456L207.271 22.7886L207.235 22.8244L207.163 22.7529V22.6814L207.235 22.6098ZM200.548 20.8218L200.44 20.7503C200.44 20.7503 200.583 20.6072 200.548 20.6072C200.512 20.6072 200.226 20.643 200.226 20.643L200.261 20.7503L200.154 20.786L200.118 20.7503V20.7145H199.94L199.904 20.786L199.797 20.8933V20.9648C200.083 20.9648 200.404 20.9648 200.691 21.0006C200.655 20.8933 200.548 20.8218 200.548 20.8218ZM208.88 25.7926C208.88 25.7926 208.844 25.7926 208.808 25.7926C208.844 25.8283 208.88 25.7926 208.88 25.7926ZM193.61 18.2828C193.646 18.2828 193.681 18.2828 193.681 18.2828C193.681 18.2828 193.717 18.2828 193.717 18.247C193.717 18.2828 193.646 18.2828 193.61 18.2828ZM193.932 18.2828L194.325 18.247V18.3185C194.575 18.2112 194.826 18.1397 195.076 18.0682L195.291 17.9967C195.076 18.0324 194.862 18.0682 194.647 18.104L194.468 18.247L194.325 18.1755C194.254 18.1755 194.146 18.2112 194.075 18.2112L193.932 18.2828ZM188.854 20.2854C188.854 20.2496 188.818 20.0708 188.818 20.0708L188.711 19.9993L188.568 19.9278C188.532 19.9278 188.425 19.9278 188.425 19.9278H188.353C186.744 20.8218 185.635 21.9661 185.349 23.2178C185.707 22.8602 186.35 22.5383 187.209 22.2522C187.566 21.5013 188.138 20.8576 188.854 20.2854ZM187.173 25.5065C186.315 25.2204 185.707 24.8985 185.349 24.5409C185.886 27.0084 189.497 29.0826 194.361 29.8336C190.821 29.1183 188.103 27.4733 187.173 25.5065ZM188.782 20.5715L188.854 20.6072C188.854 20.6072 188.925 20.6072 188.925 20.5715C188.889 20.5715 188.854 20.5357 188.854 20.5357L188.889 20.4999C188.854 20.4999 188.818 20.5357 188.782 20.5715ZM193.681 29.2256C193.681 29.2256 193.789 29.2971 193.789 29.3329C193.789 29.3687 193.932 29.4402 193.932 29.4402C193.932 29.4402 193.789 29.4402 193.717 29.4044C193.646 29.3687 193.36 29.1899 193.324 29.1899C193.288 29.1541 193.109 28.9753 193.038 28.9038C193.002 28.868 193.002 28.868 193.002 28.8323C191.858 28.1528 190.964 27.2588 190.391 26.2575C189.211 26.0786 188.174 25.8283 187.352 25.578C188.46 27.6879 191.572 29.3329 195.541 29.9051C194.933 29.7263 194.289 29.476 193.681 29.2256ZM209.345 25.8641C209.345 25.8998 209.38 25.9356 209.416 25.9356C209.488 25.8283 209.559 25.6853 209.631 25.5422C209.524 25.578 209.416 25.6138 209.309 25.6495V25.6853C209.345 25.7568 209.309 25.7926 209.345 25.8641ZM188.818 20.6787L188.746 20.6072C188.174 21.0721 187.745 21.5728 187.423 22.1449C187.745 22.0377 188.067 21.9661 188.425 21.8589C188.389 21.8589 188.389 21.8231 188.389 21.8231L188.353 21.6085V21.5012C188.353 21.5012 188.389 21.2867 188.496 21.2152C188.568 21.1436 188.746 20.9648 188.818 20.8933C188.889 20.8218 188.889 20.7503 188.889 20.7503H188.925L188.818 20.6787ZM188.889 22.1092C188.854 22.0734 188.818 22.0734 188.818 22.0734L188.746 22.1449C188.746 22.1807 188.818 22.288 188.818 22.288V22.3595L188.889 22.5026V22.6098L188.925 22.6456C188.925 22.6814 188.961 22.6814 188.961 22.7171L188.997 22.7529H188.925L188.782 22.6098L188.818 22.5383C188.818 22.5383 188.782 22.5026 188.782 22.4668C188.782 22.4668 188.746 22.431 188.711 22.3953C188.675 22.3595 188.603 22.3595 188.603 22.3595L188.675 22.3237V22.288L188.639 22.2522V22.1807L188.568 22.0377V22.0019C188.103 22.1092 187.674 22.2165 187.28 22.3595C187.03 22.8602 186.923 23.3608 186.923 23.8972C186.923 24.3979 187.03 24.8985 187.244 25.3634C188.067 25.6495 189.104 25.8641 190.284 26.0786C189.927 25.3992 189.783 24.684 189.748 23.933C189.748 23.7184 189.748 23.5039 189.783 23.2535C189.712 23.2178 189.712 23.2178 189.676 23.2178C189.64 23.2178 189.569 23.182 189.569 23.182L189.533 23.1463C189.497 23.1463 189.462 23.1463 189.426 23.1105L189.319 23.0747L189.247 23.0032V22.9675L189.319 22.8959L189.283 22.7886C189.283 22.7886 189.14 22.6814 189.14 22.6456C189.104 22.6098 189.104 22.6098 189.068 22.5741C189.068 22.5741 188.997 22.5383 188.997 22.5026C188.997 22.4668 188.997 22.5026 188.997 22.4668C188.997 22.431 188.925 22.3595 188.925 22.3595C188.925 22.3595 188.854 22.2522 188.818 22.2165C188.889 22.1807 188.925 22.1449 188.889 22.1092ZM190.034 19.1768L190.32 19.1053C190.32 19.1053 190.642 19.0337 190.678 19.0337L190.713 19.0695L190.892 19.0337L190.964 18.998H191.071C191.178 18.9265 191.321 18.8907 191.428 18.8549C191.393 18.8549 191.357 18.8907 191.285 18.9265C191.142 18.9622 191.321 18.8549 191.142 18.8549C191.107 18.8549 191.214 18.7834 191.321 18.7477C191.428 18.7119 191.393 18.7119 191.607 18.6761C191.822 18.6404 191.822 18.7119 191.822 18.7119H191.858C192.573 18.4258 193.324 18.2112 194.111 18.0324H194.146C194.146 18.0324 194.182 18.0324 194.218 17.9967C192.644 18.247 191.214 18.6404 189.998 19.141H190.034C189.962 19.1768 190.034 19.1768 190.034 19.1768ZM198.116 17.8536C198.116 17.8536 197.865 18.0324 197.83 18.0324C197.794 18.0682 197.758 18.247 197.758 18.2828C197.758 18.3185 197.722 18.4258 197.722 18.4258C197.722 18.4258 197.472 18.5331 197.365 18.5688C197.258 18.6046 197.15 18.7119 197.007 18.7834C196.971 18.8192 196.936 18.8192 196.864 18.8192C196.507 19.3556 196.185 20.0708 195.97 20.9291C196.363 20.9291 196.757 20.8933 197.114 20.8933L197.079 20.786H197.15L197.186 20.7145H197.579C197.651 20.7145 197.651 20.6787 197.651 20.6787V20.5357L197.615 20.4284L197.544 20.3569L197.401 20.2854V20.2496H197.472L197.508 20.2854L197.615 20.2496L197.579 20.1781H197.687L197.758 20.1423L197.865 20.0708C197.865 20.0708 197.937 20.035 197.973 19.9635C198.008 19.892 198.152 19.892 198.152 19.892L198.259 19.8562L198.187 19.7132L198.152 19.6774L198.295 19.6059L198.33 19.7132L198.295 19.8205H198.366V19.4629L198.223 19.4986C198.223 19.4986 198.116 19.4986 198.08 19.4986C198.044 19.4986 198.008 19.4271 198.008 19.4271C198.008 19.4271 198.008 19.3198 198.008 19.2841C197.973 19.2125 198.044 19.2125 198.08 19.1768C198.152 19.141 198.152 19.141 198.223 19.1053C198.295 19.0695 198.366 18.998 198.366 18.9622L198.402 18.9265V17.7106C198.33 17.7106 198.295 17.7106 198.223 17.7463L198.116 17.8536ZM197.329 19.8205L197.293 19.8562L197.329 19.9635V19.9993H197.258L197.186 20.035H197.114L197.043 19.9993V19.9635L197.114 19.9278V19.892H197.079L197.114 19.8205H197.186V19.749L197.258 19.7132L197.329 19.749H197.365V19.7847C197.329 19.749 197.329 19.7847 197.329 19.8205ZM197.83 20.035L197.758 20.0708L197.83 20.1066V20.1423L197.651 20.1781H197.365L197.472 20.0708H197.544L197.579 20.035H197.436V19.9993L197.508 19.9635V19.9278L197.472 19.892L197.508 19.8562L197.579 19.892L197.615 19.8205L197.579 19.7847V19.749C197.579 19.749 197.544 19.7847 197.508 19.749C197.472 19.749 197.472 19.7132 197.472 19.7132L197.508 19.6774C197.508 19.6774 197.508 19.6417 197.472 19.6417H197.401L197.436 19.5702L197.401 19.5344V19.4629L197.436 19.4271L197.472 19.4629L197.508 19.3914H197.615V19.4271L197.472 19.4986H197.579L197.651 19.5344L197.615 19.6059L197.544 19.6417V19.6774H197.615C197.615 19.6774 197.651 19.6774 197.651 19.7132C197.651 19.749 197.651 19.749 197.687 19.7847C197.722 19.7847 197.722 19.8205 197.722 19.8562L197.794 19.9278V19.9993L197.83 20.035L197.865 19.9993L197.901 20.035H197.83ZM208.451 20.1781H208.522L208.665 20.2496V20.3211L208.737 20.3569V20.3927L208.701 20.4284L208.737 20.4642L208.701 20.4999L208.773 20.5715L208.737 20.6072C209.237 21.0721 209.667 21.5728 209.917 22.1092C210.775 22.3953 211.419 22.7171 211.776 23.0747C211.49 21.8589 210.453 20.786 208.916 19.892C208.88 19.9278 208.844 19.9635 208.844 19.9635V19.9993L208.773 19.9635C208.737 19.9278 208.63 19.9635 208.63 19.9635V19.9993L208.558 19.9635L208.522 19.9993H208.451L208.486 20.0708C208.415 20.1423 208.451 20.1781 208.451 20.1781ZM198.259 20.8575L198.116 20.8218L197.973 20.8575V20.8933C198.116 20.8933 198.259 20.8933 198.438 20.8933V20.786L198.366 20.7503L198.259 20.8575ZM194.969 26.7581C194.933 26.7581 194.862 26.7939 194.862 26.7939C194.826 26.8296 194.647 26.9011 194.647 26.9369C194.611 26.9727 194.683 27.08 194.647 27.1157C194.647 27.1515 194.611 27.1872 194.575 27.223L194.504 27.2588C194.504 27.2588 194.54 27.2588 194.468 27.2945C194.432 27.3303 194.397 27.3303 194.397 27.366C194.397 27.4018 194.325 27.5091 194.325 27.5091C194.325 27.5091 194.325 27.5449 194.289 27.5806C194.254 27.6164 194.254 27.6521 194.218 27.6879C194.182 27.6879 194.146 27.7237 194.111 27.6879H194.075C194.683 28.5462 195.469 29.2256 196.399 29.6547C196.542 29.5832 196.685 29.5832 196.828 29.5832C196.9 29.5832 196.971 29.5475 197.043 29.5475C196.471 28.9395 196.006 27.974 195.72 26.7939C195.505 26.7581 195.219 26.7581 194.969 26.7581ZM197.758 21.1079L197.794 21.2152L197.615 21.394H197.472L197.401 21.4655L197.329 21.394L197.258 21.3224H197.186L197.114 21.2867V21.2152L197.079 21.1436L197.114 21.0006C196.721 21.0006 196.328 21.0364 195.934 21.0364C195.72 21.9661 195.613 22.8959 195.613 23.8257C195.613 24.2906 195.648 24.7197 195.684 25.1489C195.72 25.1846 195.756 25.2562 195.756 25.2919C195.756 25.3277 195.756 25.3992 195.72 25.435C195.756 25.8283 195.827 26.1859 195.934 26.5435C196.757 26.5793 197.615 26.6151 198.473 26.6151V24.2906C198.438 24.2906 198.402 24.1476 198.33 24.1118C198.259 24.076 198.044 24.2191 198.044 24.2191C198.044 24.2191 197.937 24.2906 197.83 24.2906C197.758 24.2906 197.722 24.2906 197.722 24.2906H197.544C197.544 24.2906 197.436 24.3621 197.401 24.3621C197.365 24.3621 197.293 24.3264 197.258 24.2548C197.258 24.2191 197.043 24.076 197.043 24.076C197.043 24.076 196.936 23.9688 196.936 23.933C196.936 23.8972 196.828 23.7899 196.793 23.7542C196.793 23.7184 196.685 23.6827 196.65 23.6469C196.614 23.5754 196.614 23.5754 196.614 23.5039C196.614 23.4323 196.542 23.3608 196.542 23.3608L196.614 23.2535C196.614 23.2535 196.65 23.0747 196.614 23.0032C196.614 22.9317 196.578 22.9317 196.578 22.8959C196.578 22.8602 196.507 22.8244 196.507 22.6814C196.507 22.5741 196.578 22.5026 196.578 22.5026C196.578 22.5026 196.65 22.3595 196.685 22.3237C196.721 22.288 196.793 22.1092 196.828 22.1092C196.864 22.1092 197.007 22.0734 197.043 21.9304C197.043 21.8946 197.043 21.8589 197.079 21.8589V21.7158C197.114 21.6801 197.079 21.6801 197.114 21.6443C197.15 21.6085 197.186 21.5728 197.222 21.5728C197.258 21.5728 197.329 21.4655 197.329 21.4655V21.394H197.401L197.472 21.4297H197.615L197.722 21.394L197.794 21.3582C197.794 21.3582 197.865 21.3224 197.901 21.2867C197.937 21.2867 198.044 21.3582 198.187 21.2867C198.33 21.2509 198.295 21.2867 198.295 21.2867L198.402 21.3224V20.9648C198.187 20.9648 197.973 20.9648 197.794 20.9648L197.758 21.1079ZM194.039 27.9382C194.039 27.974 194.003 28.0097 193.968 28.0455C193.896 28.0455 193.824 28.0813 193.789 28.0813C193.753 28.0813 193.681 28.0813 193.681 28.0813C193.681 28.0813 193.681 28.1528 193.681 28.1885C193.681 28.2243 193.717 28.2243 193.717 28.2601C193.681 28.2958 193.646 28.2958 193.646 28.2958L193.538 28.2601C193.538 28.2601 193.503 28.2601 193.503 28.2958C193.503 28.3316 193.538 28.3673 193.538 28.3673L193.61 28.4031L193.538 28.4746L193.574 28.5462V28.6177L193.503 28.6534C193.503 28.6892 193.503 28.7607 193.538 28.7607C193.574 28.7607 193.646 28.7965 193.646 28.7965L193.681 28.868V28.9395C193.681 28.9395 193.646 28.9753 193.646 29.0111C193.646 29.0111 193.646 29.0468 193.646 29.0826C194.432 29.4759 195.291 29.762 196.149 29.9408C196.185 29.9051 196.256 29.9051 196.292 29.8693C195.398 29.3329 194.647 28.725 194.039 27.9382ZM197.293 29.5117H197.758L198.116 29.6905L198.438 29.7263V26.8296C197.579 26.8296 196.757 26.7939 195.934 26.7581C196.22 27.974 196.721 28.9395 197.293 29.5117ZM187.066 25.2562C186.887 24.827 186.78 24.3621 186.78 23.8972C186.78 23.3966 186.887 22.8959 187.101 22.431C186.172 22.7529 185.528 23.1105 185.278 23.5039C185.278 23.6469 185.242 23.7542 185.242 23.8972C185.242 24.0045 185.242 24.1118 185.242 24.1833C185.528 24.5767 186.136 24.9343 187.066 25.2562ZM199.081 26.472C199.046 26.4363 199.081 26.3647 199.081 26.329C199.081 26.2932 199.081 26.1144 199.081 26.0786C199.081 26.0071 199.153 25.9356 199.153 25.8641C199.153 25.7926 199.153 25.7568 199.117 25.6853C199.081 25.6138 199.117 25.6138 199.081 25.5065C199.046 25.4349 198.724 24.9343 198.724 24.9343L198.652 24.8628C198.652 24.8628 198.724 24.7913 198.724 24.7555C198.759 24.7197 198.688 24.684 198.688 24.6482C198.688 24.6124 198.724 24.5767 198.724 24.5409C198.759 24.4694 198.688 24.4337 198.616 24.3979C198.581 24.3979 198.581 24.3979 198.545 24.3979V26.7224C198.759 26.7224 198.938 26.7224 199.153 26.7224C199.189 26.5793 199.117 26.472 199.081 26.472ZM198.831 21.7873L198.938 21.8231L198.974 21.9304L199.081 21.9661L199.224 22.0377L199.296 21.9661V21.8946L199.332 21.8589L199.475 21.8231L199.618 21.8946L199.725 21.9304C199.725 21.9304 199.797 21.9304 199.832 21.9304C199.868 21.9304 199.975 21.9661 199.975 21.9661C200.011 21.9661 200.047 21.9661 200.047 21.9661L200.118 21.9304L200.226 21.9661H200.333L200.404 21.9304L200.44 21.8589L200.476 21.7516L200.512 21.6801V21.6085L200.476 21.5728V21.4655L200.44 21.5012L200.369 21.4655L200.297 21.537C200.297 21.537 200.226 21.537 200.19 21.537C200.154 21.537 200.154 21.5012 200.154 21.4655C200.154 21.4297 200.047 21.4297 200.047 21.4297L200.011 21.4655H199.94L199.904 21.4297H199.797L199.654 21.3224V21.2152C199.654 21.2152 199.618 21.1794 199.618 21.1436C199.618 21.1079 199.582 21.0721 199.582 21.0721H199.51L199.475 21.1079H199.332V21.1794L199.439 21.2867L199.403 21.3582V21.4655H199.367L199.296 21.4297L199.224 21.3582V21.3224L199.153 21.2509L199.081 21.1079V21.0721H198.903C198.938 21.0721 199.01 21.1436 199.01 21.1436V21.1794L198.938 21.1079C198.903 21.1079 198.903 21.1436 198.903 21.1436V21.1794C198.903 21.1794 198.938 21.1794 198.938 21.2152V21.2509H198.903V21.2867L198.867 21.3224H198.831V21.2867L198.867 21.2509L198.831 21.1436L198.688 21.0364H198.509V21.6801C198.545 21.7158 198.616 21.7873 198.652 21.7873C198.759 21.7873 198.831 21.7873 198.831 21.7873ZM200.333 21.5728V21.6085L200.297 21.6443H200.261L200.226 21.6085L200.333 21.5728ZM199.546 21.537L199.689 21.5728L199.725 21.6085H199.761V21.6443H199.654L199.546 21.537ZM198.938 29.7263C199.046 29.6548 199.546 29.4759 199.546 29.4759C199.546 29.4759 199.618 29.4759 199.725 29.5117C200.297 28.9395 200.798 27.974 201.084 26.7581C201.012 26.7581 200.941 26.7581 200.869 26.7581C200.869 26.7939 200.869 26.7939 200.869 26.8296C200.834 26.8654 200.798 26.8654 200.762 26.8654C200.726 26.8654 200.691 26.9727 200.691 26.9727C200.691 26.9727 200.726 27.08 200.691 27.1157C200.691 27.1515 200.655 27.1872 200.619 27.2588C200.548 27.2945 200.404 27.4733 200.333 27.5806C200.261 27.6521 200.154 27.7237 200.011 27.7237C199.868 27.7237 199.725 27.8309 199.725 27.8309L199.618 27.6521C199.618 27.6521 199.618 27.5448 199.618 27.5091C199.618 27.4733 199.51 27.3303 199.475 27.2588C199.439 27.1872 199.332 27.0442 199.332 27.0084C199.296 26.9369 199.296 26.8654 199.296 26.7939C199.296 26.7939 199.296 26.7581 199.26 26.7224C199.046 26.7224 198.831 26.7224 198.581 26.7224V29.6547C198.688 29.7978 198.867 29.7978 198.938 29.7263ZM199.224 29.2614L199.296 29.3687L199.046 29.4759L198.974 29.2971C198.974 29.3329 199.224 29.2614 199.224 29.2614ZM198.831 20.7503C198.831 20.7503 198.724 20.643 198.724 20.6072C198.724 20.5715 198.652 20.6072 198.652 20.643V20.7145C198.652 20.7503 198.724 20.786 198.759 20.786C198.795 20.8218 198.795 20.8218 198.795 20.8218L198.831 20.8575H199.046L198.831 20.7503ZM195.398 25.8641L195.362 25.9356C195.362 25.9356 195.362 26.1144 195.362 26.1502C195.362 26.1859 195.291 26.5078 195.255 26.5793C195.398 26.5793 195.577 26.5793 195.72 26.6151C195.648 26.329 195.577 26.0071 195.541 25.721C195.505 25.7568 195.469 25.7926 195.469 25.7926C195.469 25.7926 195.434 25.8641 195.398 25.8641ZM201.334 18.3185L201.406 18.3543H201.37C201.62 18.5331 201.871 18.7119 202.121 18.9265V18.8907C202.121 18.8907 202.157 18.6761 202.121 18.6046C202.121 18.5331 202.228 18.5688 202.336 18.5331C202.407 18.5331 202.55 18.4616 202.693 18.4616C201.906 18.1397 201.048 17.9252 200.226 17.7821C200.583 17.9252 200.941 18.0682 201.299 18.2828L201.334 18.3185ZM199.081 18.6046H199.546C199.546 18.6046 199.582 18.6761 199.618 18.6761C199.689 18.6761 200.154 18.8549 200.154 18.8549L200.226 18.8907C199.761 18.1755 199.224 17.7463 198.616 17.7106V18.7119C198.652 18.6761 198.652 18.6761 198.724 18.6761C198.831 18.6761 199.081 18.6046 199.081 18.6046ZM198.831 19.8562H198.974L199.081 19.8205V19.6774L199.153 19.6059H199.189V19.4986H199.51C199.546 19.4986 199.689 19.4271 199.725 19.3914C199.797 19.3914 199.689 19.2841 199.689 19.2841L199.51 19.3556L199.189 19.4271L199.046 19.3556V19.2841C199.046 19.2841 198.974 19.1768 199.046 19.1768C199.117 19.141 199.189 19.0337 199.189 19.0337L199.046 18.9622L198.938 18.998L198.974 19.0695L198.903 19.141L198.759 19.2483V19.3914L198.903 19.4986L198.795 19.6417L198.652 19.7847H198.545V19.9278L198.616 19.9635L198.831 19.8562ZM200.44 18.9622L200.619 18.9265C200.619 18.9265 200.941 18.9265 201.12 18.8907C201.299 18.8549 201.227 18.7834 201.227 18.7834L201.585 18.8192V18.7477C201.442 18.6404 201.299 18.5331 201.155 18.4616L200.977 18.6404L201.048 18.7477L200.941 18.7834L200.726 18.6046L200.941 18.39H201.012C200.512 18.104 199.94 17.9251 199.367 17.8179C199.761 18.0324 200.118 18.4258 200.44 18.9622ZM195.505 19.141V18.9265C195.505 18.8907 195.577 18.7834 195.577 18.7834C195.577 18.7834 195.613 18.6761 195.648 18.6761C195.684 18.6761 195.648 18.6404 195.613 18.6046C195.183 18.8907 194.79 19.2841 194.432 19.6774C194.432 19.7132 194.432 19.749 194.397 19.7847C194.361 19.8205 194.504 19.8562 194.504 19.8562C194.54 19.8562 194.54 19.892 194.575 19.9278L194.432 19.9635H194.575L194.647 19.9993L194.683 20.035L194.647 20.1066L194.611 20.1423L194.432 20.2139C194.432 20.2139 194.289 20.2854 194.254 20.2854C194.218 20.2854 194.182 20.3211 194.146 20.3211H193.896C193.824 20.4284 193.753 20.5715 193.681 20.6787H193.86L194.003 20.6072L194.039 20.643L193.896 20.7503L193.717 20.786L193.61 20.8575C193.574 20.9291 193.538 21.0364 193.467 21.1079C194.218 21.0364 194.969 21.0006 195.72 20.9648C195.934 20.1423 196.22 19.4271 196.578 18.8907C196.507 18.8907 196.435 18.8907 196.435 18.8907L196.042 19.1053L195.827 19.3556L195.72 19.3198L195.541 19.2841L195.505 19.141ZM194.683 20.4642C194.683 20.4642 194.683 20.5357 194.647 20.5357C194.611 20.5357 194.468 20.5357 194.468 20.5357L194.432 20.4999H194.254V20.4284L194.397 20.3211L194.504 20.1781L194.611 20.1066L194.647 20.2139L194.575 20.2496H194.683C194.683 20.2496 194.754 20.2496 194.754 20.2854C194.683 20.3569 194.683 20.4642 194.683 20.4642ZM209.559 26.0786C209.595 26.1502 209.667 26.2575 209.702 26.329C209.738 26.3647 209.774 26.329 209.738 26.4363C209.702 26.5435 209.738 26.5793 209.631 26.6508C209.524 26.7581 209.273 27.0442 209.202 27.1515C209.13 27.2588 209.094 27.2945 209.059 27.2945C208.987 27.2945 208.88 27.3303 208.808 27.366C208.737 27.366 208.701 27.366 208.63 27.4018C208.594 27.4018 208.558 27.4376 208.486 27.4018C208.415 27.4018 208.415 27.366 208.379 27.366C207.056 28.4746 205.053 29.3687 202.729 29.8693C204.66 29.5475 206.448 29.0468 207.95 28.3316C210.096 27.2945 211.419 25.9714 211.705 24.5767C211.347 24.9343 210.739 25.2561 209.881 25.5422C209.81 25.6853 209.667 25.8998 209.559 26.0786ZM208.808 27.6521C208.737 27.6879 208.665 27.7594 208.63 27.7952L208.558 27.8309L208.63 27.5806H208.701L208.844 27.5449C208.808 27.5806 208.808 27.6164 208.808 27.6521ZM209.953 22.431C210.167 22.8959 210.275 23.3966 210.275 23.8972C210.275 24.3621 210.167 24.827 209.988 25.2562C210.918 24.9343 211.526 24.5767 211.776 24.1833C211.776 24.076 211.812 23.9688 211.812 23.8972C211.812 23.7542 211.812 23.6111 211.776 23.5039C211.526 23.1105 210.882 22.7529 209.953 22.431ZM203.516 26.6508C202.8 26.7223 202.049 26.7581 201.299 26.7939C201.012 27.974 200.512 28.9753 199.94 29.5832C200.154 29.619 200.404 29.6548 200.512 29.6905C201.799 29.1183 202.872 28.0097 203.516 26.6508ZM193.467 21.2509C193.109 22.0377 192.93 22.9317 192.93 23.7899H192.966C193.002 23.7899 193.109 23.7542 193.109 23.7542C193.109 23.7542 193.145 23.7899 193.217 23.7899C193.252 23.7899 193.288 23.8257 193.324 23.8257V23.8615H193.395C193.395 23.8615 193.395 23.8972 193.467 23.933C193.503 23.933 193.574 24.0045 193.574 24.0045V24.0403C193.574 24.0403 193.574 24.0045 193.646 24.076C193.681 24.1118 193.681 24.1476 193.753 24.1476C193.789 24.1476 193.86 24.1118 193.932 24.1476C194.003 24.1833 194.146 24.2191 194.146 24.2548C194.182 24.2906 194.218 24.3264 194.218 24.3621C194.218 24.3979 194.254 24.4336 194.254 24.4336L194.325 24.5409C194.325 24.5409 194.325 24.5767 194.325 24.6124C194.325 24.6482 194.361 24.684 194.361 24.684C194.397 24.684 194.468 24.7197 194.468 24.7197L194.504 24.7913C194.504 24.7913 194.647 24.7913 194.683 24.7913C194.719 24.827 194.862 24.8628 194.862 24.8985C194.862 24.8985 194.897 24.9343 194.933 24.9343C194.969 24.9343 195.076 25.0058 195.112 25.0058C195.148 25.0058 195.183 24.9701 195.219 25.0058C195.255 25.0416 195.291 25.0416 195.326 25.0773C195.362 25.1131 195.398 25.1489 195.469 25.1846C195.434 24.7913 195.398 24.3621 195.398 23.9688C195.398 22.9674 195.505 22.0019 195.72 21.1794C194.933 21.1436 194.182 21.1794 193.467 21.2509ZM206.412 26.2932C205.518 26.4363 204.589 26.5435 203.694 26.6151C203.087 28.0097 202.049 29.1183 200.798 29.7263C200.905 29.7263 201.012 29.762 201.12 29.7978C203.516 29.2256 205.447 27.9382 206.412 26.2932ZM208.379 27.08C208.379 27.08 208.308 27.1157 208.272 27.1157C208.236 27.1157 208.165 27.1515 208.165 27.1157C208.165 27.1157 208.165 27.0084 208.093 26.9727C208.022 26.9369 207.843 26.9369 207.843 26.9369C207.807 26.9369 207.7 26.9727 207.592 26.9727C207.521 26.9727 207.521 26.9727 207.414 27.0442C207.306 27.1157 207.342 27.1157 207.271 27.1515C207.199 27.1515 207.163 27.1157 207.092 27.1515C207.02 27.1872 206.984 27.1872 206.913 27.223C206.841 27.2588 206.734 27.2945 206.698 27.2588C206.663 27.223 206.627 27.1872 206.627 27.1872C206.627 27.1872 206.806 27.08 206.77 27.0084C206.77 26.9369 206.77 26.6866 206.77 26.6508C206.77 26.5793 206.734 26.6151 206.77 26.5435C206.77 26.472 206.841 26.2932 206.877 26.2575C206.913 26.2217 206.949 26.2217 206.984 26.1859C206.877 26.2217 206.77 26.2217 206.627 26.2575C205.697 27.9382 203.838 29.2614 201.513 29.8693C204.41 29.4402 206.841 28.4746 208.379 27.1515V27.08ZM204.302 24.1476L204.267 24.076C204.231 24.8985 204.088 25.6853 203.802 26.4363C204.732 26.3647 205.626 26.2217 206.555 26.0786C206.698 25.7926 206.806 25.5065 206.913 25.2204L206.77 25.1846H206.555L206.412 25.1489V25.1131L206.341 25.0773V25.0416H206.448C206.484 25.0416 206.52 25.0773 206.52 25.0773C206.52 25.0773 206.591 25.1131 206.627 25.1131C206.663 25.1131 206.663 25.1131 206.698 25.1131L206.734 25.0773L206.877 25.1131L206.949 25.1489C206.985 25.0416 207.02 24.9343 207.02 24.827H206.913L206.841 24.8628L206.806 24.827H206.698L206.663 24.684L206.591 24.6124V24.5052L206.627 24.4336L206.734 24.4694L206.806 24.3621L206.913 24.3264L206.984 24.2191L207.056 24.1833V24.1476C207.056 24.076 207.056 24.0045 207.056 23.8972C207.056 23.5039 206.984 23.1105 206.913 22.7171C206.877 22.7529 206.806 22.7886 206.77 22.7886C206.698 22.7886 206.52 22.8602 206.52 22.8602L206.448 22.8959V22.9675H206.412L206.377 22.8602C206.377 22.8602 206.305 22.8244 206.198 22.8959C206.126 22.9317 206.09 23.0747 206.09 23.0747L206.162 23.1463C206.162 23.1463 206.198 23.182 206.234 23.2178C206.269 23.2535 206.377 23.3251 206.377 23.3251C206.377 23.3251 206.448 23.4323 206.448 23.4681C206.448 23.5039 206.448 23.6469 206.448 23.6469L206.341 23.7184L206.198 23.8615H206.162V23.7899L206.198 23.7542H206.09C206.09 23.7542 206.019 23.7184 206.019 23.6827C206.019 23.6469 205.912 23.5754 205.912 23.5754H205.84V23.5039H205.769V23.6111L205.733 23.7542V23.8257H205.769L205.804 23.8615L205.876 23.9688L205.912 24.0045C205.912 24.0045 205.947 24.0045 205.983 24.0403C206.019 24.076 206.055 24.1476 206.09 24.1476C206.126 24.1476 206.126 24.3264 206.126 24.3264C206.126 24.3621 206.198 24.3979 206.198 24.3979H206.162L205.947 24.2906C205.947 24.2906 205.84 24.1118 205.84 24.0403C205.84 24.0045 205.697 23.8615 205.661 23.8257C205.626 23.8257 205.661 23.6469 205.661 23.5754C205.661 23.5039 205.554 23.3608 205.554 23.3251C205.554 23.2893 205.447 23.1463 205.447 23.1463C205.447 23.1463 205.447 23.182 205.447 23.2178C205.447 23.2535 205.375 23.2893 205.375 23.2893L205.304 23.2535C205.304 23.2535 205.304 23.1105 205.304 23.0747C205.268 23.0747 205.232 22.9317 205.161 22.9317C205.089 22.8959 205.053 22.7886 205.053 22.7886C205.053 22.7529 204.946 22.7171 204.946 22.7171L204.91 22.7529L204.803 22.7886H204.732L204.624 22.8244V22.8959C204.624 22.8959 204.624 22.9317 204.589 22.9317C204.553 22.9674 204.445 23.0747 204.445 23.0747C204.41 23.1105 204.338 23.1462 204.338 23.2178C204.338 23.2535 204.231 23.2893 204.231 23.2893C204.231 23.4323 204.267 23.6111 204.267 23.7899C204.267 23.7899 204.374 23.933 204.41 23.933C204.41 23.9688 204.41 23.9688 204.41 24.0045V24.0403L204.302 24.1476ZM206.484 23.1463L206.412 23.1105C206.377 23.1105 206.412 23.039 206.412 23.039L206.448 22.9675H206.555L206.52 23.0747L206.484 23.1463ZM205.483 24.1476L205.554 24.1833H205.661L205.697 24.2548L205.84 24.3264L206.055 24.4694L206.198 24.5409L206.162 24.6124H206.198L206.269 24.684L206.377 24.7197V24.9701H206.305C206.305 24.9701 206.162 24.827 206.126 24.827C206.09 24.7913 206.055 24.7555 206.019 24.7197C206.019 24.684 205.947 24.6482 205.947 24.6482L205.876 24.5767L205.84 24.4336C205.804 24.3979 205.804 24.3979 205.769 24.3621L205.697 24.2906C205.697 24.2906 205.554 24.1476 205.554 24.1118C205.447 24.1476 205.483 24.1476 205.483 24.1476ZM208.343 21.6801L208.379 21.7873C208.844 21.8946 209.237 22.0019 209.595 22.1092C209.166 21.3224 208.451 20.6072 207.485 19.9993H207.378C207.378 19.9993 207.342 19.9993 207.306 19.9993C207.235 19.9993 207.163 19.9635 207.056 19.9635C206.985 19.9635 206.984 19.9635 206.984 19.9635L206.913 20.1781L206.841 20.2854H206.877L206.984 20.3211L207.02 20.3927H207.092V20.3569C207.092 20.3569 207.235 20.4284 207.271 20.4284C207.306 20.4284 207.378 20.4642 207.378 20.4642C207.378 20.4642 207.414 20.4999 207.414 20.5357L207.485 20.643C207.521 20.6787 207.592 20.8218 207.592 20.8218V20.8575C207.592 20.8575 207.592 20.9291 207.628 20.9291C207.628 20.9291 207.592 21.0006 207.592 21.0364C207.592 21.0721 207.557 21.1436 207.557 21.1436L207.485 21.2152H207.414L207.378 21.1794L207.342 21.2152C207.342 21.2509 207.271 21.2867 207.271 21.2867L207.342 21.3582L207.271 21.4297H207.235L207.271 21.5012C207.271 21.5012 207.378 21.537 207.414 21.5728C207.664 21.6085 207.879 21.6443 208.093 21.7158L208.165 21.6801L208.2 21.537L208.129 21.4655V21.394H208.2L208.236 21.4297L208.343 21.5012L208.308 21.6085L208.343 21.6801ZM207.914 20.9291L207.843 20.8218L207.521 20.4999L207.485 20.4284L207.7 20.5715L207.879 20.7145V20.8218L207.986 20.9648L207.95 21.0006L207.914 20.9291ZM208.308 21.2509L208.272 21.3582L208.165 21.3224H208.129V21.3582H208.093L207.986 21.2867C207.986 21.2867 207.986 21.2152 208.022 21.2152C208.057 21.2152 208.022 21.1794 208.022 21.1794L207.95 21.0721V21.0364L208.129 21.1436L208.308 21.1794L208.343 21.2509H208.308ZM201.549 20.643L201.513 20.6072H201.334L201.263 20.643L201.191 20.7145C201.191 20.786 201.227 20.8218 201.227 20.8933C201.299 20.8933 201.37 20.8933 201.442 20.8933L201.37 20.8218V20.786L201.406 20.8218L201.442 20.786L201.406 20.7503L201.442 20.7145H201.585V20.6787L201.513 20.643C201.549 20.7503 201.549 20.643 201.549 20.643ZM207.092 21.537C207.092 21.5013 207.056 21.4655 207.056 21.4655C207.056 21.4655 206.949 21.4655 206.913 21.4655C206.877 21.4655 206.841 21.5012 206.841 21.5012C206.949 21.5012 207.02 21.5013 207.092 21.537ZM191.25 19.141H191.464L191.607 19.1053H191.679L191.643 19.141C191.643 19.141 191.643 19.1768 191.679 19.1768C191.715 19.1768 191.75 19.1053 191.75 19.1053V19.0695L191.965 19.0337H192.179V18.998C192.179 18.9622 192.036 18.998 192.036 18.998C192.036 18.998 191.643 19.0695 191.607 19.0337C191.572 19.0337 191.536 18.998 191.536 18.9622C191.572 18.9265 191.679 18.9265 191.679 18.8907C191.679 18.8907 191.679 18.8907 191.643 18.8907C191.536 18.9265 191.428 18.9622 191.321 19.0337H191.393V19.0695L191.25 19.141ZM203.551 18.5331C203.695 18.5688 203.873 18.6046 203.73 18.6404C203.623 18.6761 203.873 18.7477 203.873 18.7477L204.267 18.8192C204.267 18.8192 204.589 18.7834 204.696 18.7834C204.803 18.7834 205.053 18.9265 205.053 18.9265L205.447 18.998H205.661V18.9622C204.445 18.4258 203.015 18.0682 201.442 17.8179C202.049 17.9967 202.622 18.1755 203.158 18.4258C203.301 18.5331 203.444 18.5331 203.551 18.5331ZM190.785 22.1807C190.749 22.1807 190.642 22.1807 190.642 22.1807C190.642 22.1807 190.499 22.2165 190.427 22.2165C190.356 22.2165 190.32 22.2522 190.248 22.3237C190.177 22.5026 190.141 22.6814 190.07 22.8959C190.105 23.039 190.248 23.1105 190.356 23.1105C190.534 23.0747 190.642 23.039 190.642 23.0032C190.642 22.9674 190.749 22.8959 190.749 22.8959L190.928 22.8602H190.999C190.999 22.8602 191.035 22.8959 190.999 22.9317C190.964 23.0032 190.856 23.0747 190.856 23.0747C190.856 23.0747 190.785 23.1462 190.785 23.182C190.785 23.2178 190.713 23.2535 190.678 23.2893C190.642 23.3251 190.821 23.3251 190.821 23.3251L191.071 23.2893L191.214 23.3251C191.214 23.3608 191.142 23.5754 191.142 23.6469C191.142 23.7184 191.25 23.79 191.321 23.8257C191.321 23.8257 191.357 23.8615 191.428 23.8257C191.5 23.79 191.607 23.7899 191.607 23.7899L191.715 23.8257L191.786 23.933L191.822 23.8615L191.893 23.8257L191.929 23.7899C191.929 23.7899 191.893 23.7542 191.965 23.7184C192.036 23.6827 191.965 23.6827 192.036 23.6827C192.108 23.6827 192.108 23.6827 192.179 23.6469C192.251 23.6111 192.287 23.6111 192.287 23.6111L192.323 23.6469L192.287 23.7184V23.7542C192.287 23.7899 192.251 23.8257 192.287 23.8257H192.358L192.323 23.7542V23.7184L192.501 23.6469L192.609 23.6827V23.7184C192.609 23.7184 192.609 23.7184 192.716 23.7184C192.716 23.5039 192.716 23.2893 192.752 23.0747V23.039C192.823 22.3953 192.966 21.7873 193.217 21.2509C192.966 21.2867 192.716 21.2867 192.501 21.3224C192.501 21.3224 192.501 21.3582 192.466 21.3582C192.43 21.394 192.394 21.4297 192.323 21.4655V21.537L192.072 21.7158C192.001 21.7516 191.929 21.7516 191.893 21.7873C191.858 21.7873 191.75 21.8946 191.75 21.9304C191.715 21.9661 191.715 22.1449 191.715 22.1449C191.715 22.1807 191.75 22.2522 191.75 22.288C191.75 22.3237 191.786 22.3237 191.75 22.3595C191.715 22.3953 191.679 22.431 191.643 22.431H191.607C191.607 22.431 191.572 22.3237 191.572 22.288C191.572 22.2522 191.536 22.2165 191.536 22.2165V22.1449L191.5 22.1092C191.5 22.1092 191.428 22.0734 191.393 22.0734C191.357 22.1092 191.321 22.1092 191.321 22.1092C191.321 22.1092 191.25 22.0377 191.178 22.0377C191.107 22.0377 190.928 21.9661 190.928 22.0377C190.928 22.1092 191.035 22.1092 190.928 22.1092C190.821 22.1807 190.821 22.1807 190.785 22.1807ZM191.965 23.1463H191.858L191.822 23.1105V23.0747L191.965 23.1463ZM192.287 23.0032V22.9675L192.394 23.0032L192.501 22.9675C192.501 22.9675 192.573 23.0032 192.573 23.039L192.68 23.0747V23.1105H192.573L192.501 23.1463H192.466L192.394 23.2178L192.358 23.182H192.144V23.0747H192.251L192.287 23.0032ZM191.464 22.6814H191.679L191.75 22.7171L191.965 22.7886L192.036 22.8244L192.144 22.8602V22.8959L192.108 22.9317H191.822L191.893 22.8959H191.858L191.786 22.8602L191.75 22.7886H191.679L191.572 22.7529L191.5 22.7171L191.464 22.6814L191.393 22.7171L191.285 22.7529H191.25L191.464 22.6814ZM207.771 19.9635C207.914 20.0708 208.057 20.1423 208.165 20.2496L208.129 20.2139V20.1423C208.129 20.1423 208.2 20.1423 208.2 20.1066C208.2 20.0708 208.2 20.035 208.2 19.9993C208.2 19.9635 208.2 19.9278 208.2 19.9278L208.236 19.892V19.8562L208.165 19.8205V19.7847H208.093L208.129 19.8205H208.093L208.057 19.892L207.986 19.8562C207.986 19.8205 207.95 19.8205 207.843 19.8205C207.7 19.8562 207.771 19.9635 207.771 19.9635ZM203.301 22.7171C203.301 22.7171 203.23 22.7529 203.23 22.7171C203.23 22.6814 203.122 22.6456 203.122 22.6456L203.015 22.5026H202.944L202.693 22.5383C202.586 22.5026 202.514 22.5026 202.407 22.4668C202.3 22.4668 202.336 22.431 202.3 22.3953C202.3 22.3595 202.264 22.3237 202.228 22.3237C202.157 22.3237 202.121 22.3595 202.121 22.3595C202.085 22.3595 201.978 22.288 201.942 22.288C201.906 22.288 201.835 22.2522 201.799 22.2165C201.763 22.1807 201.692 22.0377 201.656 22.0377C201.62 22.0377 201.549 22.0377 201.513 22.0377C201.477 22.0734 201.513 22.1092 201.549 22.1449C201.585 22.1807 201.62 22.2522 201.656 22.288C201.692 22.3237 201.692 22.3595 201.692 22.3953C201.692 22.431 201.728 22.4668 201.728 22.4668H201.763V22.3953L201.799 22.3595L201.835 22.3953L201.871 22.5026L201.906 22.5383C201.942 22.5383 201.942 22.5383 201.978 22.5383C202.014 22.5383 202.049 22.5383 202.049 22.5026C202.085 22.4668 202.193 22.3595 202.193 22.3595C202.193 22.3595 202.193 22.3953 202.193 22.4668C202.193 22.5383 202.3 22.5741 202.336 22.5741C202.371 22.5741 202.371 22.5741 202.407 22.6098C202.443 22.6098 202.443 22.6456 202.479 22.6814C202.479 22.7171 202.514 22.7171 202.514 22.7171C202.514 22.7171 202.514 22.7886 202.443 22.8602C202.371 22.9317 202.407 23.0032 202.407 23.0032C202.407 23.0032 202.371 23.0032 202.336 23.039C202.336 23.0747 202.336 23.0747 202.3 23.0747C202.264 23.0747 202.228 23.1105 202.193 23.1463C202.157 23.182 202.121 23.182 202.049 23.182C201.978 23.2178 202.014 23.2893 202.014 23.2893C201.906 23.3251 201.763 23.3966 201.62 23.4323C201.62 23.5039 201.62 23.5754 201.62 23.6469C201.656 23.6469 201.656 23.6469 201.692 23.6469C201.728 23.6469 201.728 23.6469 201.763 23.6469C201.799 23.6469 201.799 23.6469 201.835 23.6469L201.942 23.5754H201.978C201.978 23.5754 202.014 23.7184 201.942 23.7899C201.906 23.8615 201.906 24.0403 201.835 24.1476C201.763 24.2191 201.692 24.3264 201.656 24.3979L201.62 24.4336C201.585 25.1489 201.513 25.8641 201.334 26.5435C202.085 26.5078 202.836 26.472 203.587 26.4005C203.909 25.6138 204.088 24.7913 204.088 23.8972H204.052C204.052 23.8972 203.981 23.8257 203.945 23.7542C203.909 23.6827 203.873 23.6469 203.802 23.5039C203.73 23.3608 203.659 23.2893 203.659 23.2178L203.551 22.9317C203.551 22.9317 203.551 22.8959 203.551 22.8602C203.551 22.8244 203.551 22.8244 203.551 22.8244L203.516 22.7886L203.48 22.8602C203.48 22.8602 203.408 22.8959 203.373 22.8959C203.337 22.8959 203.23 22.7529 203.23 22.7529C203.23 22.7529 203.265 22.7529 203.301 22.7171ZM206.698 21.3582L206.663 21.4655C206.698 21.4655 206.734 21.4655 206.77 21.5012V21.394L206.698 21.3582ZM206.555 19.1053C206.806 19.141 206.698 19.1053 206.984 19.2125C207.092 19.2483 207.342 19.2841 207.592 19.3198C206.198 18.7119 204.553 18.247 202.729 17.9609C203.981 18.2112 205.125 18.6046 206.126 19.0695C206.234 19.0695 206.412 19.1053 206.555 19.1053ZM201.155 26.6151C201.299 26.0071 201.406 25.3634 201.442 24.6482C201.406 24.684 201.37 24.7197 201.334 24.7555C201.227 24.8985 201.12 25.2204 201.12 25.2204L201.191 25.2919C201.191 25.2919 201.227 25.3634 201.227 25.3992C201.227 25.435 201.227 25.5422 201.227 25.5422C201.227 25.5422 201.299 25.578 201.299 25.6495C201.299 25.6853 201.299 25.6853 201.299 25.7926C201.299 25.8998 201.299 25.8999 201.299 26.0071C201.299 26.1144 201.12 26.2217 201.048 26.2575C200.977 26.2932 200.977 26.329 200.941 26.3647C200.905 26.4005 200.869 26.472 200.869 26.472C200.869 26.472 200.905 26.5078 200.905 26.6151C200.977 26.6151 201.048 26.6151 201.155 26.6151ZM193.503 18.39C193.574 18.3543 193.431 18.3543 193.431 18.3543L193.217 18.4258H193.181C192.787 18.5331 192.43 18.6404 192.072 18.7834C192.108 18.7834 192.108 18.7834 192.108 18.7834C192.108 18.7834 192.179 18.7476 192.251 18.7119C192.287 18.7119 192.394 18.7119 192.394 18.7119L192.287 18.8192L192.358 18.8549L192.287 19.0695H192.358C192.358 19.0695 192.501 19.0337 192.501 19.0695C192.501 19.1053 192.501 18.998 192.501 18.998L192.68 18.9622H192.752L192.859 18.8907L192.823 18.8549L192.752 18.8192L192.895 18.7477L193.109 18.5331L193.252 18.4973V18.5331L193.074 18.6404L192.966 18.7477L193.038 18.8192C193.038 18.8192 193.073 18.7834 193.109 18.7834H193.145C193.217 18.7477 193.288 18.7119 193.36 18.6761C193.145 18.6761 193.324 18.6046 193.324 18.6046L193.467 18.4973L193.646 18.39L193.932 18.3543L194.075 18.2828L193.574 18.3185C193.61 18.4616 193.467 18.4258 193.503 18.39ZM192.716 18.7477L192.609 18.6404L192.823 18.5688L192.895 18.6046L192.716 18.7477ZM191.929 13.312C191.893 13.312 191.893 13.3477 191.893 13.3835C191.893 13.4193 191.965 13.4193 192.001 13.4193C192.036 13.3835 192.108 13.312 192.144 13.2762C192.108 13.2762 191.965 13.312 191.929 13.312Z" fill="white"/>
<path d="M214.494 1.2963C214.459 1.2963 214.423 1.26053 214.351 1.2963C214.208 1.36782 213.708 1.76118 213.529 1.86847C213.529 1.83271 213.529 1.83271 213.565 1.79695L213.6 1.72543C213.708 1.4751 214.065 0.795639 214.065 0.366508C214.065 0.259225 214.065 0.187704 214.029 0.116182C214.029 0.116182 214.029 0.0446611 213.958 0.0446611C213.886 0.00890007 213.815 0.0446567 213.708 0.15194C213.529 0.330745 212.384 1.40357 212.349 1.40357L212.313 1.43934C212.313 1.43934 212.313 1.40358 212.313 1.36782L212.384 1.11749C212.42 0.938685 212.492 0.72412 212.492 0.581076C212.492 0.509554 212.492 0.438032 212.456 0.402271C212.456 0.36651 212.42 0.330745 212.384 0.330745C212.313 0.330745 212.241 0.366507 212.206 0.438029C212.098 0.616833 210.596 2.19032 210.31 2.40488C210.275 2.44064 210.275 2.44065 210.275 2.44065C210.275 2.36912 210.346 2.26184 210.418 2.08304C210.453 1.97575 210.775 1.26053 210.775 0.938685C210.775 0.902924 210.775 0.867162 210.739 0.831401C210.739 0.79564 210.668 0.759881 210.632 0.759881C210.418 0.759881 209.988 1.22477 208.951 2.40488C208.951 2.40488 208.129 3.33467 208.093 3.37043C208.093 3.33467 208.093 3.29891 208.093 3.26315C208.093 3.08434 208.057 2.72673 207.95 2.54793C207.879 2.47641 207.843 2.44065 207.771 2.44065C207.664 2.44065 207.592 2.54792 207.449 2.83401C207.306 3.15586 206.162 4.33597 204.875 5.33728L204.839 5.37304C203.659 6.30283 202.872 6.91077 201.978 8.26969C201.263 9.30675 200.047 9.84317 199.153 10.2723C198.903 10.3796 198.652 10.4869 198.438 10.5941C198.366 10.5941 197.508 10.4869 196.542 10.5226C196.471 10.1293 196.22 9.02066 194.933 8.23392C193.646 7.41142 191.75 6.19555 190.427 5.0512C189.605 4.33598 189.068 3.65652 188.746 3.22739C188.532 2.97706 188.46 2.86978 188.425 2.86978C188.353 2.83402 188.282 2.86978 188.246 2.90554C188.21 2.9413 188.21 2.97706 188.21 3.08434C188.21 3.19163 188.246 3.37043 188.353 3.65652L188.282 3.62076C188.103 3.51348 187.638 3.29891 187.101 2.54793C186.565 1.79695 186.172 0.724117 186.172 0.724117C186.172 0.688356 186.136 0.652597 186.1 0.652597C186.029 0.652597 185.993 0.724116 185.993 0.795638C185.957 0.938682 185.921 1.11749 185.921 1.40357C185.921 1.6539 185.957 2.01151 186.064 2.4764C185.993 2.44064 185.278 1.76119 184.562 0.581076C184.527 0.545315 184.455 0.438031 184.348 0.473792C184.312 0.473792 184.276 0.509552 184.276 0.545313C184.276 0.581074 184.241 0.616832 184.241 0.688354C184.241 0.974442 184.455 1.54662 184.813 2.2976C184.348 1.86847 183.954 1.40358 183.561 0.902922C183.525 0.867161 183.418 0.688354 183.311 0.688354C183.275 0.688354 183.239 0.688356 183.203 0.724117C183.168 0.759878 183.168 0.795637 183.168 0.867159C183.168 1.11749 183.311 1.61814 183.633 2.2976C183.382 2.11879 183.168 1.93999 182.917 1.76118C182.917 1.76118 182.81 1.68966 182.739 1.72543C182.703 1.76119 182.667 1.83271 182.667 1.93999C182.667 2.15455 182.846 2.54793 182.917 2.69097C182.882 2.69097 182.846 2.65521 182.846 2.65521C182.774 2.61945 182.631 2.54793 182.56 2.54793C182.524 2.54793 182.488 2.54793 182.452 2.58369C182.452 2.61945 182.452 2.61945 182.452 2.65521C182.452 2.79825 182.56 3.01282 182.631 3.15587C182.739 3.33467 183.239 3.79956 183.418 3.97837C183.239 3.90685 182.882 3.83532 182.846 3.79956C182.846 3.79956 182.703 3.7638 182.631 3.83532C182.596 3.87108 182.596 3.87108 182.596 3.90684C182.596 3.90684 182.596 3.94261 182.596 3.97837C182.667 4.15717 183.275 4.62206 184.419 5.26576C184.205 5.23 184.097 5.26576 184.062 5.30152L184.026 5.33728C184.026 5.37304 184.026 5.37304 184.026 5.37304C184.097 5.55185 184.777 5.90946 185.349 6.08826C185.349 6.08826 185.313 6.08826 185.278 6.08826C185.135 6.08826 185.063 6.08827 185.027 6.12403V6.19555C185.063 6.30283 185.099 6.44587 186.386 6.94653C186.207 6.94653 186.1 6.94653 186.064 7.01805V7.08957C186.136 7.23262 186.744 7.62599 187.924 7.9836C187.817 8.01936 187.745 8.01936 187.709 8.05512V8.09088C187.781 8.34121 188.961 8.77034 190.034 9.09218C189.927 9.09218 189.855 9.12795 189.819 9.16371C189.783 9.16371 189.783 9.19946 189.783 9.23523C189.783 9.34251 190.105 9.70012 192.573 10.3438C192.609 10.3438 192.609 10.3438 192.644 10.3438H192.609C192.573 10.3796 192.501 10.3796 192.501 10.4511C192.501 10.5226 192.573 10.5941 192.752 10.7014C193.109 10.916 193.717 11.1306 193.896 11.2021C193.145 11.5955 192.394 12.0246 191.679 12.4895L191.643 12.5252V12.561C191.643 12.6325 191.607 12.9186 191.321 13.0617C191.142 13.1689 190.892 13.3477 190.821 13.7053C190.821 13.7411 190.821 13.7769 190.821 13.8126C190.821 14.0987 190.999 14.4563 191.357 14.8139C191.428 14.8855 191.5 14.8855 191.5 14.8497C191.536 14.8139 191.536 14.7424 191.536 14.7067C191.536 14.7067 191.464 14.5279 191.536 14.4206C191.572 14.349 191.607 14.3133 191.679 14.3133C191.893 14.2418 192.108 14.3133 192.215 14.3491L192.323 14.3848C192.466 14.4206 192.752 14.4206 192.966 14.2775C193.145 14.1702 193.717 14.206 194.039 14.2418H194.254C194.182 14.349 194.075 14.4563 194.003 14.5279L193.824 14.6709C193.646 14.8139 193.538 14.8855 193.395 15.0643C193.36 15.0643 192.394 15.2431 192.394 15.2431C192.394 15.2431 192.358 15.2431 192.358 15.2788C192.358 15.2788 192.108 15.7437 191.75 16.0656C191.393 16.3874 190.999 16.5305 190.999 16.5305C190.999 16.5305 190.856 16.745 190.821 17.2099C190.821 17.2457 190.821 17.2815 190.821 17.353C190.821 17.3887 190.821 17.3887 190.821 17.4245V17.4603C190.821 17.4603 190.892 17.5675 190.964 17.6033C190.999 17.6033 191.107 17.7106 191.25 17.7821C191.25 17.7821 191.357 17.8179 191.464 17.8536H191.5C190.463 18.1397 189.497 18.4973 188.603 18.9265C185.85 20.2496 184.312 22.0377 184.312 24.0045C184.312 25.9714 185.814 27.7594 188.603 29.0826C191.214 30.3342 194.683 31.0137 198.366 31.0137C202.049 31.0137 205.518 30.3342 208.129 29.0826C210.882 27.7594 212.42 25.9714 212.42 24.0045C212.42 22.0377 210.918 20.2496 208.129 18.9265C206.484 18.1397 204.517 17.5675 202.371 17.2814C202.371 17.2814 202.371 17.2814 202.407 17.2814C202.514 17.2457 202.55 17.1742 202.586 17.0669C202.729 17.1384 203.087 17.3172 203.373 17.2457C203.766 17.1384 203.873 16.8166 203.873 16.745C203.873 16.7093 203.909 16.7093 203.945 16.7093L204.016 16.745C204.124 16.7808 204.338 16.8523 204.553 16.7808C204.696 16.7093 204.803 16.5662 204.839 16.4947C204.875 16.4232 204.91 16.3874 204.946 16.3874C204.982 16.3517 205.018 16.3517 205.089 16.3517C205.196 16.3159 205.375 16.3159 205.447 16.2086C205.447 16.2086 205.518 16.0656 205.518 15.9583C205.518 15.9225 205.518 15.8153 205.59 15.7795C205.59 15.7795 206.162 15.5649 206.269 15.1716C206.269 15.1716 206.305 15.0643 206.269 14.957C206.234 14.8497 206.126 14.8139 205.983 14.7782L201.513 13.5981C201.513 13.5981 201.37 13.5265 201.227 13.3477C201.62 13.3477 203.087 13.3477 204.016 13.0617C204.052 13.0617 204.124 12.9901 204.124 12.9544C204.124 12.9186 204.088 12.8828 204.052 12.8471C203.981 12.8113 203.945 12.7756 203.909 12.7756H203.945C204.124 12.7398 205.375 12.4537 205.661 12.3107C205.804 12.2392 205.84 12.1676 205.84 12.1319C205.84 12.0603 205.733 12.0246 205.661 12.0246C205.626 12.0246 205.518 12.0246 205.447 11.9888C205.483 11.9888 205.554 11.9531 205.554 11.9531C205.912 11.8815 206.877 11.667 207.449 11.4166C207.485 11.3809 207.592 11.3451 207.592 11.2736C207.592 11.2378 207.592 11.2021 207.521 11.1663C207.414 11.0948 206.913 11.0948 206.841 11.0948C206.841 11.0948 206.877 11.0948 206.877 11.059C206.913 11.059 207.056 10.9875 207.199 10.9518C207.843 10.7372 209.023 10.3438 209.345 9.91469C209.38 9.87893 209.38 9.84316 209.38 9.8074C209.38 9.77164 209.345 9.73589 209.273 9.70012C209.13 9.70012 208.987 9.70012 208.844 9.70012L208.88 9.66436L208.987 9.6286C209.38 9.44979 210.561 8.84186 211.169 8.30544C211.204 8.26968 211.276 8.1624 211.276 8.09088L211.24 8.01935C211.24 8.01935 211.169 7.94783 210.99 7.94783H210.954C210.954 7.94783 210.99 7.91208 211.025 7.91208L211.097 7.87631C211.884 7.48294 212.42 7.08957 212.706 6.76772C212.706 6.76772 212.742 6.6962 212.742 6.66044C212.742 6.62468 212.742 6.62468 212.742 6.62468C212.742 6.58892 212.706 6.55316 212.635 6.55316C212.492 6.55316 212.134 6.58892 212.063 6.62468C212.063 6.62468 212.063 6.58892 212.134 6.55316L212.241 6.48164C212.527 6.30283 213.135 5.8737 213.457 5.33728C213.457 5.30152 213.457 5.19424 213.386 5.15848C213.35 5.15848 213.314 5.12272 213.278 5.15848L212.957 5.23C212.957 5.23 212.957 5.23 212.992 5.19424C212.992 5.19424 214.029 4.12141 214.244 3.51347C214.315 3.33467 214.351 3.22739 214.351 3.15587C214.351 3.1201 214.351 3.08434 214.316 3.08434C214.28 3.04858 214.172 3.08434 214.101 3.15587L214.065 3.19162L213.35 3.62076C213.35 3.62076 213.386 3.58499 213.421 3.54923L213.565 3.37043C213.851 3.01282 214.423 2.36912 214.494 1.83271V1.79695C214.566 1.40358 214.566 1.33206 214.494 1.2963ZM208.916 3.79956C209.774 3.19163 210.847 2.36912 211.776 1.40357C211.776 1.43933 211.776 1.4751 211.705 1.54662C211.526 1.83271 210.418 2.90554 208.844 3.97837C208.916 3.94261 208.916 3.87109 208.916 3.79956ZM212.992 1.33205H213.028L213.064 1.36782C213.064 1.40358 213.028 1.54662 212.849 1.76118C212.635 2.01151 210.668 3.87108 208.343 5.15848C208.451 5.01543 208.522 4.87239 208.594 4.72935C209.774 4.01413 211.276 2.9413 212.992 1.33205ZM208.594 4.04989C208.594 4.08565 208.522 4.19293 208.236 4.44326C207.914 4.65782 207.592 4.83663 207.235 5.01543C207.271 4.94391 207.306 4.90815 207.342 4.83663C207.378 4.80087 207.879 4.51478 208.594 4.04989ZM206.627 8.59153C205.983 8.8061 205.34 9.02067 204.696 9.16371H204.66V9.12795L204.946 8.66305C204.946 8.66305 204.946 8.6273 204.982 8.6273C205.697 8.44849 206.377 8.26968 207.056 8.01935C207.056 8.01935 207.056 8.01936 207.056 8.05512V8.09088C207.056 8.12664 207.056 8.12664 207.056 8.1624C206.949 8.34121 206.806 8.48425 206.627 8.59153ZM206.627 9.09218C206.627 9.12794 206.591 9.12795 206.591 9.16371C206.52 9.27099 206.341 9.41404 205.983 9.55708C205.34 9.77165 204.66 9.98621 203.981 10.1293C203.945 10.1293 203.945 10.1293 203.945 10.0935V10.0577L204.231 9.70012C204.231 9.70012 204.231 9.70012 204.267 9.70012C204.553 9.6286 205.411 9.44979 206.591 9.05642C206.627 9.02066 206.627 9.05642 206.627 9.09218ZM206.949 7.55447C206.412 7.76903 205.84 7.91207 205.34 8.05512C205.304 8.05512 205.304 8.05512 205.304 8.05512V8.01935L205.518 7.55447L205.554 7.5187C205.876 7.44718 206.484 7.26838 207.306 6.98229C207.342 6.98229 207.342 7.01805 207.342 7.01805C207.342 7.05381 207.342 7.08957 207.342 7.12533C207.271 7.23261 207.163 7.41142 206.949 7.55447ZM207.235 6.48164C206.77 6.66044 206.305 6.80348 205.84 6.94653H205.804V6.91077L205.947 6.58892C205.947 6.58892 205.947 6.55316 205.983 6.55316C206.448 6.44588 206.913 6.26707 207.378 6.08826C207.378 6.08826 207.414 6.08827 207.414 6.12403V6.19555C207.378 6.26707 207.342 6.41012 207.235 6.48164ZM206.52 6.01674C206.484 6.01674 206.484 6.01674 206.448 6.01674C206.448 6.01674 206.448 5.98098 206.448 5.94522L206.627 5.73065C207.128 5.51609 207.628 5.30152 208.093 5.01543C207.95 5.23 207.735 5.44457 207.521 5.58761C207.199 5.73066 206.877 5.8737 206.52 6.01674ZM188.782 3.7638C188.818 3.79956 188.925 3.97837 188.925 3.97837C189.283 4.55054 190.141 5.62337 191.536 6.5174C192.93 7.41142 193.181 7.44718 194.575 8.52001C195.97 9.59284 195.863 10.2723 195.863 10.3796C195.863 10.4869 195.756 10.4869 195.756 10.4869C195.469 10.5584 194.826 10.7729 194.718 10.8445C194.611 10.916 194.647 10.773 194.647 10.773C194.826 10.5226 194.862 10.2008 194.862 10.2008C194.897 8.87762 192.716 8.1624 190.821 6.58892C188.889 5.01543 188.818 4.30022 188.746 4.04989C188.675 3.7638 188.746 3.72804 188.782 3.7638ZM189.032 6.55316C189.497 6.62468 189.927 6.6962 190.391 6.76772H190.427L190.821 7.01805V7.05381C190.821 7.05381 190.821 7.08957 190.785 7.05381L190.57 7.01805C190.32 6.98229 190.07 6.94653 189.783 6.91077C189.354 6.80348 189.033 6.66044 188.997 6.58892C189.033 6.58892 189.032 6.58892 189.032 6.55316ZM188.46 6.01674C188.425 5.98098 188.425 5.94522 188.425 5.94522L188.854 6.0525L189.64 6.19555L190.034 6.44587C190.034 6.44587 190.07 6.48164 190.034 6.48164L189.998 6.5174C189.783 6.48163 189.533 6.44588 189.319 6.37435C188.854 6.19555 188.496 6.08827 188.46 6.01674ZM189.927 7.37566C190.248 7.44718 190.57 7.48294 190.928 7.5187L191.572 7.59022L191.965 7.80479C191.965 7.80479 192.001 7.84055 191.965 7.84055L191.929 7.87631L191.107 7.76903C190.964 7.76903 190.821 7.73327 190.678 7.69751C190.105 7.59023 189.927 7.41142 189.927 7.37566ZM190.964 8.12664C191.107 8.1624 191.214 8.1624 191.321 8.1624C191.679 8.19816 192.036 8.23392 192.394 8.26969L192.537 8.37696C192.537 8.37696 192.573 8.41273 192.537 8.41273L192.501 8.44849H192.466C192.323 8.41273 192.108 8.41273 191.893 8.41273C191.393 8.37697 190.964 8.23392 190.928 8.19816C190.928 8.1624 190.964 8.12664 190.964 8.12664ZM188.603 5.40881H188.639L188.711 5.44457L189.104 5.73065C189.104 5.73065 189.14 5.76642 189.104 5.76642L189.068 5.80218L188.711 5.69489C188.639 5.69489 188.568 5.65913 188.496 5.62337C188.067 5.48033 187.995 5.37305 187.96 5.30152C187.96 5.30152 187.96 5.26576 187.924 5.26576C187.924 5.26576 187.924 5.26576 187.924 5.23C188.174 5.30153 188.389 5.37305 188.603 5.40881ZM188.282 4.94391C188.282 4.94391 188.246 4.97967 188.246 4.94391C187.995 4.87239 187.745 4.80087 187.495 4.72935C187.28 4.62206 187.066 4.47902 186.887 4.33598C186.851 4.30022 186.851 4.30022 186.851 4.30022C187.173 4.4075 187.566 4.55054 187.96 4.65782L188.282 4.87239C188.282 4.90815 188.282 4.94391 188.282 4.94391ZM186.315 1.90423C187.03 3.22739 187.817 3.65652 187.888 3.69228C188.067 3.79956 188.174 4.12141 188.246 4.26445V4.30022C188.174 4.26445 186.994 3.54923 186.672 2.86978C186.386 2.36912 186.315 2.04727 186.315 1.90423ZM186.172 3.40619C186.493 3.585 186.815 3.7638 187.173 3.90684L187.459 4.15717V4.19293C187.459 4.19293 187.423 4.22869 187.423 4.19293L187.137 4.08565C187.137 4.08565 187.101 4.04989 186.958 4.01413C186.815 3.9426 186.708 3.87108 186.565 3.83532C186.35 3.69228 186.243 3.62075 186.207 3.54923C186.207 3.51347 186.172 3.51347 186.172 3.47771C186.172 3.44195 186.172 3.44195 186.172 3.40619ZM183.811 1.54662H183.847C183.919 1.6539 184.133 1.93999 184.598 2.36912L184.634 2.40488C184.777 2.54793 184.956 2.65521 185.135 2.79826C185.349 2.9413 185.528 3.08434 185.742 3.19162C185.778 3.26314 185.778 3.33467 185.814 3.40619C185.528 3.22739 185.242 3.04858 184.992 2.83401C184.705 2.61945 184.455 2.36912 184.205 2.11879L183.954 1.86847L183.883 1.76118C183.847 1.72542 183.776 1.6539 183.776 1.58238L183.811 1.54662ZM183.597 2.61945C183.597 2.58369 183.597 2.58369 183.597 2.58369H183.633C183.668 2.61945 183.811 2.72673 183.99 2.90554C184.348 3.15587 185.027 3.58499 186.172 4.08565C186.243 4.19293 186.315 4.26445 186.422 4.37174C185.599 4.01413 184.634 3.54923 183.883 2.9413L183.704 2.79826C183.668 2.72673 183.633 2.65521 183.597 2.61945ZM183.883 3.62076L183.776 3.54923V3.47771C183.776 3.47771 183.811 3.44195 183.811 3.47771C183.99 3.62076 184.634 4.04989 185.85 4.51478C186.136 4.62207 186.458 4.76511 186.744 4.87239C186.958 4.94392 187.209 5.01544 187.423 5.12272C187.495 5.15848 187.566 5.19424 187.602 5.26576V5.33728C187.602 5.37304 187.602 5.40881 187.602 5.40881C187.244 5.30153 186.887 5.19424 186.565 5.0512C185.492 4.65783 184.67 4.22869 184.026 3.7638C184.062 3.72804 183.883 3.62076 183.883 3.62076ZM184.384 4.5863C184.384 4.5863 184.276 4.51478 184.241 4.51478C184.241 4.51478 184.241 4.51478 184.241 4.47902V4.44326C184.241 4.44326 184.276 4.4075 184.276 4.44326L184.491 4.55054C184.848 4.72935 185.242 4.90815 185.635 5.0512C186.279 5.30153 187.03 5.55185 187.781 5.76642L187.924 5.80218C187.96 5.83794 188.067 5.90946 188.067 5.98098C188.067 6.01674 188.067 6.01674 188.067 6.01674C188.031 6.01674 187.995 6.01674 187.852 5.98098L187.459 5.8737L186.78 5.65913H186.744L186.493 5.58761L186.136 5.48033C185.492 5.19424 184.848 4.90815 184.384 4.5863ZM185.778 5.83794C185.778 5.83794 185.707 5.80218 185.421 5.65913L185.313 5.62337V5.58761C185.313 5.55185 185.349 5.55185 185.349 5.55185C185.742 5.69489 186.172 5.83794 186.601 5.98098C187.209 6.15979 187.817 6.30283 188.46 6.44587C188.532 6.48164 188.675 6.62468 188.711 6.66044C188.746 6.6962 188.711 6.6962 188.711 6.73196C188.353 6.66044 187.96 6.55316 187.602 6.44587C187.244 6.33859 186.887 6.23131 186.529 6.08826C186.243 6.0525 186.029 5.94522 185.778 5.83794ZM186.851 6.66044C186.815 6.62468 186.815 6.66044 186.851 6.66044L186.815 6.62468C186.815 6.58892 186.851 6.58892 186.851 6.58892C187.173 6.6962 188.067 7.01805 189.39 7.26838C189.462 7.30414 189.676 7.48294 189.712 7.5187C189.712 7.5187 189.748 7.55447 189.712 7.55447C189.676 7.55447 189.676 7.55446 189.64 7.5187C188.568 7.30414 187.638 7.01805 186.851 6.66044ZM188.389 7.66175C188.389 7.62598 188.389 7.62598 188.389 7.66175L188.353 7.62599L188.389 7.59022C189.032 7.76903 189.676 7.91207 190.32 8.05512C190.391 8.09088 190.499 8.1624 190.534 8.19816C190.57 8.19816 190.57 8.23392 190.57 8.26969C190.499 8.26969 190.463 8.23392 190.427 8.23392C189.748 8.05512 189.068 7.87631 188.389 7.66175ZM189.783 8.52001C189.748 8.52001 189.748 8.48425 189.748 8.48425L189.783 8.44849C190.177 8.55577 190.749 8.66305 191.428 8.77034C191.464 8.77034 191.5 8.8061 191.536 8.8061C191.607 8.84186 191.786 8.94914 191.786 8.98491C191.142 8.87762 190.463 8.73458 189.783 8.52001ZM192.644 9.66436C192.43 9.6286 192.179 9.59284 191.858 9.55708C191.822 9.55708 191.822 9.52132 191.822 9.52132C191.822 9.48556 191.822 9.48556 191.858 9.48556C192.108 9.52132 192.358 9.52132 192.609 9.55708C192.609 9.55708 192.68 9.55707 192.752 9.59284C192.823 9.6286 192.966 9.70013 192.966 9.73589C192.859 9.70013 192.752 9.70012 192.644 9.66436ZM193.002 9.12795C192.537 9.09219 192.144 8.94914 192.108 8.91338C192.072 8.87762 192.072 8.87762 192.072 8.87762C192.43 8.91338 192.752 8.94914 193.109 8.94914C193.109 8.94914 193.145 8.98491 193.181 8.98491C193.288 9.02067 193.395 9.12795 193.002 9.12795ZM193.824 9.73589C193.753 9.73589 193.574 9.70012 193.503 9.66436L193.467 9.6286C193.395 9.59284 193.431 9.55708 193.431 9.55708H193.824C193.824 9.55708 193.896 9.6286 193.896 9.66436C193.86 9.70012 193.86 9.70013 193.824 9.73589ZM193.932 10.165C193.86 10.1293 193.896 10.1293 193.896 10.1293H194.075C194.075 10.1293 194.111 10.165 194.111 10.2008C194.111 10.2008 194.111 10.2008 194.075 10.2365C194.111 10.2008 194.003 10.2008 193.932 10.165ZM194.111 14.9212L194.969 14.2775C195.04 14.206 195.076 14.206 195.076 14.206H195.613C195.613 14.206 194.826 14.6709 194.575 14.7782C194.361 14.8855 194.146 14.957 194.111 14.9212ZM198.33 13.8484C198.33 13.7769 198.187 13.5265 197.651 13.4193C197.651 13.4193 197.615 13.3835 197.687 13.3835C197.758 13.3477 198.152 13.2762 198.724 13.455H198.759C198.759 13.4193 198.652 13.2047 198.402 13.1332C198.402 13.1332 198.366 13.0974 198.402 13.0974C198.438 13.0974 199.403 12.9544 199.403 14.3491C199.403 14.3491 199.367 14.3848 199.332 14.3491C199.296 14.3133 199.081 14.0272 198.974 13.8842C198.831 13.7411 198.831 13.8842 198.831 14.0987C198.831 14.3133 198.724 15.0643 198.652 14.957C198.581 14.8139 198.509 14.5279 198.402 14.6709C198.295 14.8139 198.187 15.1358 197.687 15.4219C197.687 15.4219 197.651 15.4576 197.651 15.3861C197.651 15.3146 197.722 14.9212 197.722 14.9212V14.8497C197.722 14.8497 197.222 15.2788 196.65 15.5292C196.65 15.5292 196.578 15.5649 196.578 15.4934C196.614 15.4219 196.793 14.957 196.793 14.957C196.793 14.957 196.328 15.2431 195.469 15.2788C195.469 15.2788 195.434 15.2788 195.434 15.2431C195.434 15.2073 195.398 14.9212 195.255 14.8139C195.255 14.8139 195.72 14.6351 196.149 14.3491C196.363 14.206 196.578 14.063 196.721 13.9199C197.079 13.8126 197.579 13.7411 198.295 13.8126C198.295 13.8842 198.366 13.9199 198.33 13.8484ZM201.012 16.5305L200.977 16.602C200.941 16.602 200.905 16.602 200.798 16.5662L199.975 15.3504V15.3146C200.011 15.3146 200.011 15.3146 200.011 15.3146L201.012 16.5305ZM200.333 14.8855C200.369 14.8855 200.369 14.8855 200.333 14.8855L202.228 16.5662V16.602C202.228 16.6378 202.193 16.6735 202.157 16.6735C202.121 16.7093 202.049 16.7093 201.978 16.6735L201.906 16.6378L201.084 15.7437L200.512 15.1L200.333 14.8855C200.333 14.9212 200.333 14.9212 200.333 14.8855ZM200.047 16.1013C200.011 16.1013 200.011 16.1013 200.011 16.1013L199.689 15.4576V15.4219H199.725L200.047 16.0656C200.083 16.0656 200.083 16.1013 200.047 16.1013ZM200.154 13.3477H200.118C199.94 13.1689 199.761 12.9901 199.546 12.8828L199.51 12.8471C199.51 12.8471 199.546 12.8113 199.546 12.8471C199.546 12.8471 199.868 13.0259 200.154 13.3477C200.154 13.312 200.154 13.312 200.154 13.3477ZM199.832 13.6696C199.832 13.7054 199.832 13.7411 199.797 13.7769C199.761 13.7769 199.725 13.7769 199.725 13.7411C199.51 13.2047 199.189 12.9901 199.189 12.9901C199.153 12.9544 199.153 12.9186 199.153 12.8828C199.189 12.8471 199.224 12.8471 199.26 12.8471C199.224 12.8828 199.582 13.0974 199.832 13.6696ZM192.144 16.2086C192.287 15.9941 192.752 15.4934 192.752 15.4934C192.752 15.4934 193.395 15.4219 193.753 15.3504C194.111 15.2788 194.826 15.1716 194.826 15.1716V15.2431C194.826 15.3146 194.683 15.3146 194.683 15.3146C194.325 15.3504 194.218 15.5292 194.182 15.708C194.182 15.8868 194.075 16.1013 194.075 16.1013C194.075 16.0298 194.003 15.7795 193.824 15.708C193.61 15.6364 193.181 15.7795 192.966 16.0298C192.787 16.3159 192.966 16.7093 192.966 16.7093C192.609 16.5662 192.573 16.3159 192.609 16.2444C192.609 16.1371 192.716 15.9583 192.716 15.9225C192.716 15.8868 192.68 15.8868 192.68 15.8868C192.68 15.8868 192.394 16.1371 192.358 16.2444C192.358 16.3517 192.466 16.6735 192.466 16.6735C192.466 16.6735 192.179 16.459 192.072 16.3517C192.036 16.2801 192.144 16.2086 192.144 16.2086ZM192.358 17.5675C192.323 17.5318 192.323 17.496 192.287 17.496L192.108 17.2814C192.108 17.2814 192.108 17.2815 192.072 17.2457V17.1742C192.108 17.1026 192.144 17.0669 192.179 17.0311C192.251 17.1026 192.537 17.2815 192.966 17.353H193.002V17.3172C193.002 17.3172 193.002 17.2099 193.002 17.1742C193.073 17.1742 193.252 17.2099 193.467 17.2099C193.467 17.2099 193.503 17.2099 193.538 17.1742C193.538 17.1742 193.538 17.1384 193.538 17.1026V16.9954C193.467 16.9238 193.288 16.7093 193.288 16.5305C193.288 16.4232 193.395 16.3159 193.574 16.2444C193.717 16.2086 193.86 16.2801 193.932 16.3874C194.146 16.745 194.003 16.8881 194.003 16.8881C194.003 16.8881 194.003 16.9238 194.003 16.9596L194.039 16.9954C194.039 16.9954 194.397 16.8881 194.397 16.5305V16.3159C194.397 16.1371 194.397 16.0656 194.504 15.9225C194.504 15.9225 194.611 15.851 194.683 15.9583C194.719 15.9941 194.862 16.2086 195.577 16.1013C195.541 16.1729 195.469 16.2801 195.434 16.3159C195.434 16.3159 195.398 16.3517 195.398 16.3874C195.398 16.4232 195.434 16.4232 195.469 16.4589C195.577 16.4589 196.363 16.4947 197.043 16.1729C197.043 16.2086 197.007 16.3159 196.971 16.3874C196.936 16.4232 196.936 16.4232 196.971 16.4589C196.971 16.4947 197.007 16.4947 197.043 16.4947C197.114 16.4947 197.794 16.3159 198.473 15.4934C198.473 15.5292 198.545 15.6364 198.616 15.7437C198.652 15.7795 198.688 15.8153 198.724 15.7795C198.724 15.7795 198.759 15.7795 199.081 15.3504C199.081 15.3504 199.081 15.3504 199.117 15.3861C199.153 15.4219 199.475 16.0656 199.654 16.4589C199.654 16.4589 199.832 16.745 200.047 16.745H200.19C200.297 16.745 200.333 16.745 200.404 16.7808L200.512 16.8523C200.583 16.8881 200.655 16.9596 200.762 16.9954C200.011 16.9238 199.26 16.8881 198.473 16.8881C196.363 16.8881 194.254 17.1026 192.358 17.5675ZM208.808 19.5702C208.951 19.6417 209.059 19.7132 209.202 19.7847C211.133 20.9648 212.17 22.3953 212.17 23.8972C212.17 25.6853 210.739 27.3303 208.129 28.5819C205.554 29.7978 202.157 30.4773 198.545 30.4773C194.933 30.4773 191.536 29.7978 188.961 28.5819C186.35 27.3303 184.92 25.6853 184.92 23.8972C184.92 22.5383 185.742 21.2152 187.316 20.1423C187.781 19.8205 188.353 19.4986 188.961 19.2125C189.033 19.1768 189.104 19.141 189.14 19.141C191.679 17.9609 195.005 17.3172 198.509 17.3172C202.121 17.3172 205.518 17.9967 208.093 19.2125C208.343 19.3198 208.558 19.4271 208.808 19.5702ZM201.227 16.9954C201.37 16.9596 201.477 16.8523 201.477 16.8523C201.477 16.8523 201.477 16.8523 201.513 16.8523L201.62 16.9238L201.799 17.0311C201.585 17.0311 201.406 17.0311 201.227 16.9954ZM203.551 16.602C203.516 16.6378 203.444 16.7093 203.23 16.5662L200.583 14.5994L200.512 14.5279C200.512 14.5279 200.512 14.5279 200.512 14.4921H200.548L200.691 14.5636L203.408 16.2801C203.408 16.2801 203.551 16.3874 203.587 16.4589V16.4947C203.587 16.5662 203.587 16.5662 203.551 16.602ZM204.517 16.0656V16.1013C204.481 16.1729 204.374 16.2086 204.302 16.2086H204.267L204.124 16.1371L202.049 14.957L200.834 14.2418L200.798 14.206C200.798 14.206 200.798 14.206 200.798 14.1702C200.798 14.1702 200.798 14.1702 200.834 14.1702L200.905 14.206L204.481 15.9583V15.9941L204.517 16.0656ZM205.196 15.6722C205.161 15.7437 205.053 15.8153 204.982 15.7795H204.946L200.941 13.9199V13.8842L200.977 13.8484L204.41 15.1716L205.268 15.4934C205.232 15.5649 205.196 15.6007 205.196 15.6722ZM205.483 14.9927C205.518 14.9927 205.554 15.0285 205.59 15.1C205.59 15.1358 205.59 15.1716 205.59 15.2073C205.518 15.2788 205.411 15.2431 205.411 15.2431L201.299 13.7053L201.227 13.6696C201.227 13.6696 201.227 13.6338 201.263 13.6338H201.334L205.483 14.9927ZM201.656 11.2736C200.548 12.0603 198.33 12.3464 197.865 12.3464C197.401 12.3464 197.043 12.9186 196.363 13.3835C195.684 13.8842 194.969 13.7411 194.969 13.7411C195.148 13.4908 195.112 13.1332 195.112 13.1332C194.933 13.455 194.611 13.7054 194.254 13.8126C193.968 13.8842 193.86 13.8842 193.467 13.8842C193.109 13.8842 192.823 14.0272 192.644 14.063C192.466 14.0987 192.179 14.0272 192.179 14.0272C192.287 13.9557 192.501 13.8842 192.609 13.8842C192.716 13.8842 193.074 13.7769 193.074 13.7769C192.68 13.6696 192.144 13.8842 192.144 13.8842C191.858 13.9914 191.715 13.8842 191.715 13.8842C191.321 13.9914 191.357 14.3133 191.357 14.3133C191.357 14.3133 191.214 14.0987 191.214 13.7411C191.214 13.3835 192.036 12.9901 192.036 12.9901C192.466 12.9186 192.68 13.1332 192.68 13.1332C192.787 13.3477 192.966 13.455 193.109 13.312C193.252 13.2047 193.288 13.0259 193.395 13.0259C193.503 13.0259 193.61 13.0259 193.61 13.0259L193.753 12.9186C193.753 12.8829 193.717 12.8828 193.717 12.8828C193.717 12.8828 193.503 12.9544 192.895 12.9544C192.287 12.9901 192.072 12.5968 192.072 12.5968C193.181 12.2392 194.289 11.2021 195.469 10.9518C196.65 10.7014 197.901 10.916 197.901 10.916C197.579 11.3094 197.472 11.5955 197.472 11.5955C200.19 9.8074 201.871 9.27099 201.871 9.27099C203.015 7.19685 204.267 6.26707 205.268 5.62337C206.234 4.97967 207.449 3.47771 207.521 3.29891C207.628 3.08434 207.7 3.08434 207.7 3.08434C207.664 3.83532 206.949 4.62207 206.341 5.23C205.733 5.80218 204.839 6.44587 204.839 6.44587C204.767 6.5174 204.839 6.55316 204.839 6.55316C204.839 6.55316 205.018 6.58892 205.053 6.58892C205.089 6.58892 205.089 6.66044 205.089 6.66044C204.91 6.94653 204.553 7.19685 204.517 7.23261C204.481 7.30414 204.517 7.30414 204.517 7.30414C204.517 7.30414 204.589 7.30414 204.66 7.3399C204.732 7.37566 204.66 7.44718 204.66 7.44718L204.088 7.9836C204.052 8.01936 204.052 8.05512 204.052 8.05512C204.052 8.05512 204.302 8.01935 204.338 8.01935C204.374 8.01935 204.374 8.09088 204.374 8.09088C204.267 8.37697 203.909 8.69881 203.873 8.73457C203.838 8.8061 203.838 8.8061 203.838 8.8061C203.838 8.8061 204.088 8.8061 204.124 8.8061C204.159 8.8061 204.124 8.84186 204.124 8.84186C203.659 9.52132 202.729 10.0577 202.729 10.0577C202.729 10.0577 203.015 10.165 203.015 10.2008C203.051 10.2365 203.015 10.2365 203.015 10.2365C202.407 10.6657 201.442 10.9875 201.442 10.9875C201.442 10.9875 201.656 11.0948 201.656 11.1306C201.692 11.2021 201.656 11.2736 201.656 11.2736ZM202.765 11.9888C202.407 12.0246 201.835 11.9888 201.835 11.9888C201.799 11.9888 201.763 11.9531 201.763 11.9173C201.763 11.8815 201.799 11.8458 201.835 11.8458C201.835 11.8458 202.407 11.8458 202.765 11.8458C202.8 11.8458 202.836 11.8815 202.836 11.9173C202.836 11.9531 202.8 11.9888 202.765 11.9888ZM204.732 10.9518L204.66 10.9875C204.445 11.059 204.267 11.1306 204.052 11.2021C203.873 11.2378 203.695 11.2736 203.551 11.3094C203.48 11.3094 203.408 11.3451 203.373 11.3451C203.087 11.3809 202.836 11.4166 202.586 11.4524C202.336 11.4882 202.55 11.3451 202.586 11.3094H202.622C202.872 11.2736 203.623 11.2021 204.767 10.9518C204.732 10.8802 204.767 10.916 204.732 10.9518ZM203.194 10.8445C203.158 10.8087 203.158 10.8445 203.194 10.8445L203.373 10.6657C203.444 10.5941 203.516 10.5941 203.516 10.5941C203.802 10.5584 204.696 10.3796 205.947 9.98621C205.947 9.98621 205.983 9.98621 205.947 10.022L205.912 10.0577C205.84 10.1293 205.554 10.2365 205.125 10.3796C204.517 10.5584 203.873 10.7014 203.194 10.8445ZM207.986 9.95045C207.986 9.95045 207.95 9.95045 207.95 9.98621C207.843 10.022 206.913 10.4869 205.34 10.916C205.447 10.8445 205.554 10.7729 205.661 10.6657C206.305 10.4869 207.056 10.2365 207.914 9.95045C207.95 9.95045 207.986 9.95045 207.986 9.91469C208.022 9.87893 208.022 9.91468 207.986 9.95045ZM209.988 8.44849C209.953 8.48425 209.81 8.55577 209.524 8.69882C209.38 8.77034 209.202 8.84186 209.023 8.94914C208.951 8.9849 208.88 9.02066 208.773 9.05642C208.272 9.27099 207.664 9.52131 206.984 9.77164C206.77 9.84316 206.555 9.91469 206.341 10.022C206.377 9.95045 206.448 9.87893 206.484 9.84317C206.698 9.77164 206.877 9.70012 207.092 9.6286C207.843 9.37827 208.63 9.09219 209.488 8.69882C209.667 8.55577 209.845 8.48425 209.988 8.44849C210.06 8.34121 209.988 8.41273 209.988 8.44849ZM210.99 7.23261C210.99 7.26838 210.99 7.26837 210.99 7.30414C210.954 7.3399 210.811 7.41142 210.561 7.55447L209.845 7.94783L209.559 8.09088C209.094 8.34121 208.594 8.55577 208.093 8.77034C207.735 8.91338 207.342 9.09218 206.913 9.23523C206.984 9.12794 207.02 9.02066 207.092 8.91338C207.378 8.8061 207.628 8.73458 207.914 8.6273C208.665 8.34121 209.452 7.94784 210.453 7.44718C210.561 7.37566 210.918 7.23262 210.99 7.19686C210.954 7.1611 210.954 7.19685 210.99 7.23261ZM212.563 5.55185C212.563 5.69489 211.025 6.58892 209.667 7.26838L208.701 7.73327C208.2 7.94784 207.735 8.1624 207.271 8.34121C207.342 8.19816 207.378 8.01936 207.414 7.87631C209.166 7.26838 210.847 6.44588 212.456 5.48033C212.456 5.48033 212.527 5.44457 212.563 5.44457C212.563 5.48033 212.563 5.48033 212.563 5.55185ZM213.243 3.97837C213.207 4.12141 210.418 6.12403 207.557 7.3399C207.592 7.16109 207.592 7.01805 207.628 6.875C209.559 6.15979 211.383 5.15848 213.028 3.94261C213.135 3.87108 213.171 3.83532 213.243 3.87108C213.278 3.87108 213.243 3.94261 213.243 3.97837ZM213.851 2.15456C213.743 2.2976 210.775 4.94392 207.628 6.30283C207.628 6.23131 207.628 6.19555 207.628 6.12403C207.628 6.05251 207.628 5.98098 207.628 5.94522C210.918 4.58631 213.743 2.04728 213.743 2.01151C213.815 1.97575 213.851 1.93999 213.886 1.97575C213.958 2.04727 213.922 2.08303 213.851 2.15456ZM14.6978 22.8244C14.6978 20.9291 13.5892 20.8933 12.7667 20.8933H11.8011V19.6774C13.3388 19.749 14.9481 19.8562 16.8077 19.8562C18.6672 19.8562 20.3122 19.7847 21.9215 19.6774V20.8933H21.4208C20.6341 20.8933 19.4897 20.9648 19.4897 22.8244V28.4031C17.9162 28.868 14.1613 29.6905 11.2289 29.6905C4.79197 29.6905 0 25.8641 0 18.8907C0 13.4908 3.32577 8.09088 11.372 8.09088C14.1613 8.09088 17.1295 8.77034 19.5255 9.55708L19.3467 15.4219H17.4156C17.3798 12.0246 15.0554 9.98621 11.8726 9.98621C6.65154 9.98621 5.14958 13.9199 5.14958 18.8907C5.14958 23.6827 7.65285 27.9382 12.266 27.9382C13.16 27.9382 14.0541 27.7594 14.6978 27.6164V22.8244ZM24.2102 11.4882C24.2102 10.2723 24.0314 9.70012 21.993 9.66436V8.44849C23.4234 8.52001 25.0327 8.6273 26.6419 8.6273C28.2154 8.6273 29.8604 8.55577 31.4697 8.44849V9.66436C29.2525 9.70012 29.0737 10.2723 29.0737 11.4882V22.5741C29.0737 25.8641 31.0763 27.08 33.9729 27.08C37.8709 27.08 39.1583 25.0416 39.1583 20.9291V11.4882C39.1583 10.2723 38.9795 9.70012 36.7265 9.66436V8.44849C37.7278 8.52001 38.8364 8.6273 39.9808 8.6273C40.9105 8.6273 41.9119 8.55577 42.8059 8.44849V9.66436C41.1609 9.70012 40.9821 10.2723 40.9821 11.4882V21.1436C40.9821 27.9382 36.9411 29.6905 32.8286 29.6905C27.7148 29.6905 24.2102 28.2601 24.2102 22.1807V11.4882ZM44.129 28.0813C46.525 28.0455 46.7038 27.4733 46.7038 26.2575V11.4882C46.7038 10.2723 46.525 9.70012 44.2721 9.66436V8.44849C45.8813 8.52001 47.5263 8.6273 49.0998 8.6273C50.6733 8.6273 52.3183 8.55577 54.4282 8.44849V9.66436C51.7104 9.70012 51.4958 10.2723 51.4958 11.4882V26.5435C51.4958 27.4018 51.5316 27.7237 53.1408 27.7237C56.5023 27.7237 59.4347 27.08 60.1857 23.182H61.5446C61.0797 25.1846 60.6506 27.223 60.3645 29.2614C58.0401 29.1898 55.4295 29.0826 52.4971 29.0826C49.3859 29.0826 46.5608 29.1541 44.0933 29.2614V28.0813H44.129ZM62.1168 28.0813C64.5128 28.0455 64.6916 27.4733 64.6916 26.2575V11.4882C64.6916 10.2723 64.5128 9.70012 62.2956 9.66436V8.44849C64.8346 8.52001 67.4094 8.6273 69.9842 8.6273C72.5948 8.6273 75.1696 8.55577 77.7801 8.44849C77.7801 10.165 77.8874 12.3822 77.9947 13.7053H76.6C76.4212 10.1293 74.4901 10.022 71.5935 10.022C70.3418 10.022 69.5193 10.022 69.5193 10.916V18.2112H71.9153C74.1325 18.2112 74.9192 17.9251 74.9192 15.5292H76.0993C75.9921 16.745 75.9205 17.9609 75.9205 19.1768C75.9205 20.5715 75.9921 21.9304 76.0993 22.8602H74.9192V22.0019C74.8835 19.9635 73.9894 19.6059 72.1299 19.6059H69.5193V26.2575C69.5193 27.4733 69.6981 28.0455 72.559 28.0813V29.2971C70.7352 29.2256 68.7683 29.1183 67.1949 29.1183C65.6571 29.1183 63.8691 29.1899 62.1168 29.2971V28.0813ZM91.1547 10.5584C90.6183 9.84317 89.7243 9.66436 89.1163 9.66436H88.7945V8.44849C89.9746 8.52001 91.1905 8.6273 92.3348 8.6273C93.5149 8.6273 94.7308 8.55577 95.9467 8.44849L106.21 21.6801H106.282V11.4524C106.282 10.2365 106.103 9.66436 103.635 9.6286V8.41273C104.923 8.48425 106.21 8.59153 107.211 8.59153C108.213 8.59153 109.5 8.52001 110.215 8.41273V9.6286C108.32 9.66436 108.141 10.2365 108.141 11.4524V29.2614H105.852L93.0501 12.5968H92.9785V26.2575C92.9785 27.4733 93.1573 28.0455 95.6606 28.0813V29.2971C94.3732 29.2256 93.0858 29.1183 92.0845 29.1183C91.0832 29.1183 89.7958 29.1899 88.5084 29.2971V28.0813C90.9759 28.0455 91.1905 27.4733 91.1905 26.2575L91.1547 10.5584ZM111.395 28.0813C113.863 28.0455 114.077 27.4733 114.077 26.2575V11.4882C114.077 10.2723 113.899 9.70012 111.646 9.66436V8.44849C114.185 8.52001 116.76 8.6273 119.334 8.6273C121.945 8.6273 124.52 8.55577 127.13 8.44849C127.13 10.165 127.238 12.3822 127.345 13.7769H125.95C125.771 10.1293 123.84 10.022 120.944 10.022H119.799C119.084 10.022 118.869 10.2723 118.869 10.8802V17.8536H121.087C123.304 17.8536 124.091 17.2815 124.091 15.0643H125.271C125.163 16.2086 125.092 17.3887 125.092 18.5331C125.092 19.9278 125.163 21.2867 125.271 22.1807H124.091C124.091 19.7847 123.304 19.2125 121.087 19.2125H118.869V26.4005C118.869 27.223 119.263 27.5091 120.05 27.5091H121.265C124.484 27.5091 126.844 27.0442 127.524 23.5396H128.847C128.346 25.4349 128.06 27.3303 127.774 29.2256C125.092 29.1541 122.41 29.0468 119.728 29.0468C116.938 29.0468 114.149 29.1183 111.36 29.2256L111.395 28.0813ZM128.346 8.44849C129.777 8.52001 131.171 8.6273 132.602 8.6273C133.961 8.6273 135.284 8.55577 136.643 8.44849V9.66436H136.07C135.32 9.77164 135.284 10.1293 135.284 10.4869C135.284 10.8087 135.427 11.4524 135.606 12.1319L138.967 23.9688H139.039L142.078 14.1345L141.363 11.2736C141.006 9.84317 140.791 9.66436 139.575 9.66436H138.931V8.44849C140.362 8.52001 141.864 8.6273 143.294 8.6273C144.868 8.6273 146.477 8.55577 148.086 8.44849V9.66436H147.586C146.62 9.66436 146.084 9.91469 146.084 10.4511C146.084 10.916 146.227 11.4524 146.441 12.5252L149.052 24.4336H149.123L153.021 12.2392C153.236 11.5239 153.415 10.9875 153.415 10.4153C153.415 9.77165 152.807 9.6286 151.877 9.6286H151.197V8.41273C152.306 8.48425 153.629 8.59153 154.487 8.59153C155.417 8.59153 156.347 8.52001 157.277 8.41273V9.6286C155.989 9.6286 155.381 10.5941 154.917 12.0246L149.195 29.4402H146.084L142.937 17.4603H142.865L138.967 29.4402H135.856L130.563 11.9173C129.955 9.95045 129.812 9.70012 128.275 9.70012L128.346 8.44849ZM170.329 14.5994H168.649C168.577 11.667 167.719 9.8074 164.393 9.8074C162.784 9.8074 161.21 10.4869 161.21 12.561C161.21 16.745 171.688 15.2073 171.688 22.7886C171.688 27.6521 168.041 29.6547 163.785 29.6547C161.604 29.6547 158.85 28.9753 156.955 27.8309C157.062 26.1502 157.098 23.7184 157.098 22.0377H159.101C159.101 25.1846 160.352 27.7594 163.606 27.7594C165.645 27.7594 167.504 26.9369 167.504 25.0058C167.504 20.1066 157.205 21.6443 157.205 14.2418C157.205 10.3081 160.102 8.05512 164.465 8.05512C166.503 8.05512 168.577 8.48425 170.58 8.87762L170.329 14.5994Z" fill="white"/>
</g>
</g>
<defs>
<clipPath id="clip0_2393_24584">
<rect width="214.548" height="30.9824" fill="white" transform="translate(0 0.03125)"/>
</clipPath>
</defs>
</svg>
