<svg width="222" height="28" viewBox="0 0 222 28" fill="none" xmlns="http://www.w3.org/2000/svg">
<g id="Frame 1171277161" clip-path="url(#clip0_2393_24592)">
<g id="Vector">
<path d="M4.37295 21.9714H8.80212V24.12H15.4729V21.9723C16.2487 21.9723 16.9661 21.9776 17.6844 21.9723C18.4027 21.967 19.121 21.9443 19.8393 21.9306L19.8287 21.9217C19.8411 22.5422 19.8614 23.1614 19.865 23.782C19.8703 25.141 19.865 26.5 19.865 27.8591H4.39063C4.40302 26.7387 4.42337 25.6192 4.42425 24.4987C4.42425 23.652 4.39859 22.8062 4.38444 21.9594L4.37295 21.9714Z" fill="white"/>
<path d="M183.596 6.62193V22.1537H167.769V6.62193H183.596ZM180.429 19.0653V9.73387H170.922V19.0653H180.429Z" fill="white"/>
<path d="M186.86 6.6166H202.684V22.159H186.86V6.6166ZM190.028 9.71568V19.067H199.533V9.71568H190.028Z" fill="white"/>
<path d="M56.3682 15.9733V22.159H53.2519V6.62548H69.0462V22.1546H65.9361V15.9688L56.3682 15.9733ZM56.3966 9.71923V12.8108H65.8979V9.71923H56.3966Z" fill="white"/>
<path d="M110.516 6.61749H126.3V9.6771H113.682V12.8423H119.99V15.9342H113.675V19.0706H126.297V22.1572H110.516V6.61749Z" fill="white"/>
<path d="M142.233 19.1176L139.767 19.0732C139.565 19.0732 139.363 19.0732 139.121 19.0732V15.9759H132.752V22.1856C131.726 22.1856 130.771 22.191 129.818 22.1772C129.743 22.1772 129.632 22.057 129.606 21.9723C129.581 21.8445 129.576 21.7141 129.59 21.5846V6.62636H145.424V15.936H142.291C142.291 16.5552 142.299 17.1296 142.291 17.7036C142.282 18.1768 142.251 18.6497 142.23 19.1229L142.233 19.1176ZM132.784 9.72012V12.8188H142.279V9.72012H132.784Z" fill="white"/>
<path d="M37.2997 22.1692H34.1497V6.62015H37.2759V12.8108H46.8404V6.62548H49.9771V22.1572H46.8656V15.9848H37.2997V22.1692Z" fill="white"/>
<path d="M161.371 9.71125H151.831V22.1546H148.674V6.63346H164.497V22.1621H161.371V9.71125Z" fill="white"/>
<path d="M221.796 6.62193V22.1648H218.652V9.72456H209.092V22.163H205.955V6.62193H221.796Z" fill="white"/>
<path d="M72.3338 22.1648V6.62814H88.1402V9.69306H75.5025V19.0834H88.1521V22.1648H72.3338Z" fill="white"/>
<path d="M13.2586 15.4339H11.0594V4.60954C10.3518 4.60954 9.6945 4.59845 9.03814 4.62506C8.96029 4.62506 8.83291 4.83797 8.82847 4.95551C8.80634 5.54455 8.81787 6.13402 8.81787 6.78515H7.49977C6.60105 6.78515 5.70229 6.78515 4.80353 6.78515C4.60096 6.78515 4.42404 6.78515 4.42581 6.49995C4.43642 4.63394 4.4373 2.76793 4.44349 0.901913C4.44349 0.87663 4.46563 0.850459 4.48861 0.800781H19.8258V6.78515H18.8174C17.8443 6.78515 16.8713 6.77451 15.8982 6.79003C15.5797 6.79536 15.4488 6.71197 15.4638 6.3762C15.4895 5.81556 15.4709 5.2518 15.4709 4.64724H13.2523L13.2586 15.4339Z" fill="white"/>
<path d="M100.989 15.9254L95.201 15.9462C95.0107 15.9462 94.8213 15.9462 94.5818 15.9462V22.1502H91.43V6.62193H94.5517V12.8702H100.989L100.979 12.8596V15.9396L100.989 15.9254Z" fill="white"/>
<path d="M100.976 15.9396H104.073V19.0861H107.244V22.1612H104.105V19.079H100.987C100.987 17.9928 100.987 16.9606 100.987 15.9263L100.976 15.9396Z" fill="white"/>
<path d="M22.0765 11.0991H24.273V13.3182H26.4606V15.4392H24.2871V17.5745H22.05L22.0597 17.5869C22.073 17.3004 22.0969 17.0125 22.0969 16.726C22.0969 14.8462 22.0948 12.9665 22.0906 11.0867L22.0765 11.0991Z" fill="white"/>
<path d="M2.18433 17.598H0.0683707C0.0551018 17.4485 0.0329846 17.3106 0.0329846 17.174C0.0329846 15.3106 0.0427148 13.4477 0.0214844 11.5844C0.0214844 11.1852 0.157713 11.1018 0.530129 11.1138C1.06885 11.1315 1.61023 11.0867 2.14984 11.0694L2.14187 11.0614C2.163 11.1155 2.17726 11.1714 2.18433 11.2291C2.18433 13.3559 2.1805 15.4827 2.17283 17.6095L2.18433 17.598Z" fill="white"/>
<path d="M104.02 9.68419C104.044 9.31471 104.081 8.94568 104.088 8.57532C104.099 7.92862 104.088 7.28149 104.088 6.61616H107.244V9.67222H104.008L104.02 9.68419Z" fill="white"/>
<path d="M142.201 19.1229H145.402V22.163H142.279C142.279 21.8148 142.286 21.4751 142.279 21.1344C142.261 20.4616 142.235 19.7891 142.21 19.1176L142.201 19.1229Z" fill="white"/>
<path d="M100.989 12.8702V9.68596H104.021L104.008 9.67399C104.031 10.1144 104.066 10.5562 104.075 10.998C104.086 11.5861 104.075 12.1743 104.075 12.8587H100.978L100.989 12.8702Z" fill="white"/>
<path d="M4.3858 21.9577H2.18403V17.6016L2.17253 17.6131H4.37342C4.37342 19.1287 4.37342 20.5525 4.37342 21.9758L4.3858 21.9577Z" fill="white"/>
<path d="M19.8368 21.9306C19.8553 21.5744 19.8863 21.2187 19.8898 20.8625C19.8969 19.9102 19.9013 18.9588 19.8898 18.0074C19.8898 17.72 19.9872 17.6366 20.2711 17.6375C20.8691 17.6375 21.4662 17.6078 22.0633 17.5887L22.0527 17.5754C22.0527 19.012 22.0527 20.4505 22.0527 21.9226H19.8253L19.8368 21.9306Z" fill="white"/>
<path d="M2.14984 11.0694C2.1693 10.8144 2.20417 10.5598 2.20594 10.3047C2.21214 9.17189 2.20594 8.03064 2.20594 6.85656H4.36702V11.0623H2.14047L2.14984 11.0694Z" fill="white"/>
<path d="M22.0898 11.0858H19.9137V6.85922H22.073V11.0991L22.0898 11.0858Z" fill="white"/>
</g>
</g>
<defs>
<clipPath id="clip0_2393_24592">
<rect width="221.775" height="27.0583" fill="white" transform="translate(0.0214844 0.800781)"/>
</clipPath>
</defs>
</svg>
