<svg xmlns="http://www.w3.org/2000/svg" width="73" height="28" viewBox="0 0 73 28" fill="none">
    <g clip-path="url(#clip0_4773_3067)">
        <mask id="mask0_4773_3067" style="mask-type:luminance" maskUnits="userSpaceOnUse" x="0" y="0" width="73" height="28">
            <path d="M72.4138 0H0V28H72.4138V0Z" fill="white"/>
        </mask>
        <g mask="url(#mask0_4773_3067)">
            <path d="M12.0113 8.63933C12.0943 4.52761 9.76607 0.94471 8.55338 0.0836061C8.54786 0.0780612 8.43986 0.019923 8.44814 0.180517C8.44814 0.183275 8.44538 0.183275 8.44538 0.186048C8.32083 7.95271 4.32855 10.046 2.16083 12.8923C-2.65647 19.2218 1.36345 26.4431 6.57104 27.8108C6.65973 27.833 6.90055 27.905 7.35738 27.9991C7.59545 28.049 7.66469 27.8468 7.49021 27.545C6.86731 26.4624 5.75986 24.6349 5.54124 22.2869C5.0429 16.8351 11.9143 13.4239 12.0113 8.63933Z" fill="white"/>
            <path d="M14.6364 11.2725C14.5949 11.242 14.5368 11.2448 14.5313 11.2974C14.4205 12.2859 13.3989 14.3349 12.0534 16.2509C7.52399 22.7106 9.80537 25.64 11.5772 27.6724C11.9039 28.0489 12.0672 27.9659 12.2389 27.6974C12.3994 27.4426 12.643 27.1186 13.6896 26.623C13.853 26.5455 17.8065 24.4467 18.2356 19.6677C18.6481 15.0437 15.6829 12.1197 14.6364 11.2725Z" fill="#B9B9B9"/>
            <path d="M38.1565 10.0957V27.0936H34.5103V20.227H27.5031V27.0936H23.7656V10.0957H27.5031V16.9625H34.5103V10.0957H38.1565Z" fill="white"/>
            <path d="M55.0107 10.0957V13.4571H53.2748H49.7754V27.0909H46.0241V13.4571H42.6187H40.8828V10.0957H55.0107Z" fill="white"/>
            <path fill-rule="evenodd" clip-rule="evenodd" d="M68.2903 27.1103L64.0045 21.196L59.7521 27.0854L55.5938 27.0909L61.8978 18.4134L55.9481 10.0957H60.1037L72.4292 27.1103H68.2903Z" fill="white"/>
            <path d="M65.1719 13.8999L67.229 16.7575L72.1017 10.0928H67.9682L65.1719 13.8999Z" fill="#B9B9B9"/>
        </g>
    </g>
    <defs>
        <clipPath id="clip0_4773_3067">
            <rect width="72.4138" height="28" fill="white"/>
        </clipPath>
    </defs>
</svg>
