<svg width="127" height="32" viewBox="0 0 127 32" fill="none" xmlns="http://www.w3.org/2000/svg">
<g id="Hyperion" clip-path="url(#clip0_3698_4660)">
<path id="Vector" d="M14.7299 0.690736C15.6726 0.623404 16.6169 0.628214 17.5596 0.692342C17.566 1.42981 17.5628 2.16729 17.566 2.90636C17.4025 2.89834 17.2421 2.89193 17.0819 2.88712L16.8783 2.88071C16.1921 2.83582 15.5043 2.86147 14.8213 2.9288C14.653 2.19454 14.7492 1.43622 14.7299 0.690736Z" fill="white"/>
<path id="Vector_2" d="M11.9485 1.20221C12.5016 1.05953 13.0595 0.942494 13.6206 0.841492C13.6318 2.3501 13.6303 3.85871 13.619 5.36732C13.619 5.68956 13.6158 6.02303 13.7665 6.31642C13.9926 6.77493 14.2426 7.22221 14.4703 7.67916C14.7685 8.31563 15.1388 8.91521 15.4274 9.55488C15.4643 11.413 15.4306 13.2711 15.4387 15.1292C14.7124 15.1276 13.9845 15.1276 13.2583 15.1276C13.1877 13.5292 13.2647 11.9276 13.2262 10.3277C13.2182 10.0054 13.0355 9.72644 12.8992 9.44589C12.4871 8.67795 12.1056 7.89558 11.6839 7.13405C11.5621 6.88393 11.421 6.62904 11.421 6.34367C11.3954 5.46352 11.4291 4.58176 11.413 3.7016C10.8968 3.91002 10.3902 4.14569 9.89318 4.39578C9.91402 5.09317 9.84348 5.79698 9.93165 6.48956C10.3068 7.40821 10.8359 8.2579 11.2719 9.14927C11.4915 9.56931 11.7561 9.99896 11.7096 10.4959C11.7096 14.4462 11.7112 18.3981 11.7 22.3484C11.1629 23.5572 10.4383 24.6795 9.93008 25.9011C9.85949 27.4065 9.89318 28.9215 9.91885 30.4301C9.22301 30.1272 8.54167 29.7889 7.9052 29.3784C5.00503 27.5444 2.69322 24.7661 1.54051 21.5244C0.262764 18.1432 0.259557 14.31 1.51005 10.9208C2.49281 8.17294 4.27878 5.72965 6.57616 3.93246C6.56654 4.84308 6.60021 5.75369 6.56975 6.6643C6.57295 7.00096 6.25873 7.20621 6.07917 7.45307C3.12287 10.7397 2.06156 15.5813 3.29922 19.817C4.00783 22.4366 5.61264 24.7628 7.67434 26.5071C7.69041 25.9684 7.60544 25.3865 7.9052 24.9039C8.33485 24.1183 8.72447 23.3103 9.14928 22.5215C9.33364 22.1737 9.5357 21.8065 9.502 21.3961C9.49077 18.4318 9.51003 15.4675 9.4924 12.5048C9.4363 11.6823 9.69439 10.7765 9.24071 10.0294C8.8014 9.19413 8.37495 8.35247 7.93406 7.5172C7.78817 7.24945 7.66951 6.95772 7.68721 6.64667C7.67754 5.47474 7.69041 4.3044 7.68558 3.13246C9.00502 2.28758 10.4479 1.63989 11.9485 1.20221Z" fill="white"/>
<path id="Vector_3" d="M18.6705 5.69267C18.6785 4.07344 18.6545 2.45421 18.6801 0.833374C19.2493 0.948803 19.8216 1.06102 20.3844 1.21333C21.8769 1.6478 23.3102 2.29068 24.6136 3.13877C24.6039 4.31232 24.6152 5.48425 24.612 6.65782C24.628 6.94314 24.5222 7.21253 24.3907 7.45939C23.9146 8.38125 23.432 9.29827 22.9591 10.2201C22.8292 10.4477 22.7811 10.7059 22.7908 10.9672C22.7987 14.4477 22.7972 17.9283 22.7923 21.4088C22.7811 21.6669 22.8324 21.9251 22.9607 22.1527C23.4448 23.1098 23.9515 24.0573 24.4388 25.0128C24.705 25.4665 24.5895 26.01 24.62 26.5086C25.8769 25.4376 26.9559 24.1583 27.7895 22.7331C29.2565 20.1102 29.8304 16.9872 29.327 14.0181C28.8957 11.3407 27.6051 8.83813 25.7198 6.89507C25.715 5.9059 25.7166 4.91672 25.7166 3.92915C26.7987 4.79808 27.7992 5.77763 28.6184 6.90147C30.3082 9.14435 31.3503 11.8634 31.6436 14.6514C32.0364 18.5119 30.8997 22.499 28.543 25.5771C26.9703 27.6838 24.822 29.3222 22.446 30.4284C22.3274 28.9311 22.4669 27.4256 22.3771 25.9299C21.8881 24.6777 21.0849 23.5603 20.6088 22.305C20.5527 18.4766 20.6104 14.645 20.58 10.8149C20.5911 10.4974 20.5431 10.1608 20.6697 9.86102C21.2036 8.71307 21.8849 7.63414 22.3723 6.46701C22.414 5.77764 22.4637 5.061 22.3466 4.38125C21.8865 4.09428 21.3735 3.91312 20.8782 3.7015C20.8557 4.64257 20.9182 5.58525 20.8509 6.52312C20.5639 7.34072 20.0782 8.07339 19.7126 8.85739C19.4641 9.38324 19.0489 9.87702 19.0633 10.4895C19.0585 11.8024 19.0649 13.1155 19.0633 14.4301C19.0633 14.6626 19.0633 14.895 19.0633 15.1275C18.3259 15.1291 17.5868 15.1275 16.8493 15.1275C16.8493 13.2806 16.8573 11.4354 16.8477 9.59006C16.9359 9.39604 17.0321 9.20528 17.1298 9.01609C17.5259 8.27545 17.8994 7.52195 18.2954 6.78125C18.4669 6.43815 18.6946 6.09347 18.6705 5.69267Z" fill="white"/>
<path id="Vector_4" d="M105.45 5.05464C105.744 4.99532 106.042 4.96326 106.345 4.9376C106.426 4.9344 106.593 4.92638 106.674 4.92157C107.034 4.91516 107.395 4.91676 107.756 4.91836C107.837 4.91836 107.997 4.91836 108.079 4.91836C108.451 4.91997 108.826 4.91516 109.201 4.92318C109.265 4.92958 109.395 4.94081 109.461 4.94562C109.842 4.97768 110.221 5.04502 110.591 5.15083C110.67 5.18289 110.825 5.24702 110.904 5.27908C111.253 5.44742 111.591 5.64141 111.911 5.86906C112.88 6.68666 113.427 7.94198 113.413 9.20853C113.388 10.2314 113.498 11.2686 113.296 12.2803C112.93 14.0149 111.361 15.3632 109.594 15.4771C109.499 15.4803 109.307 15.4882 109.211 15.4931C108.052 15.4899 106.888 15.5588 105.733 15.4385C105.094 15.3039 104.488 15.0426 103.946 14.6803C102.633 13.744 102.141 12.0622 102.275 10.5103C102.254 9.34959 102.215 8.1296 102.787 7.07465C103.015 6.71233 103.279 6.37246 103.574 6.06144C104.097 5.56446 104.76 5.24382 105.45 5.05464ZM105.176 7.14681C104.887 7.37767 104.634 7.64862 104.427 7.95484C104.206 8.44222 104.125 8.97604 104.137 9.50835C104.14 9.69427 104.144 9.8819 104.151 10.0695C104.13 10.714 104.132 11.36 104.212 12.0013L104.239 11.9772C104.379 12.3845 104.603 12.7596 104.911 13.0642L105.059 13.1075L105.046 13.1765C105.193 13.2614 105.342 13.3432 105.496 13.4297C106.235 13.7007 107.041 13.6269 107.815 13.6318C108.283 13.6397 108.75 13.6397 109.222 13.6365C109.976 13.5868 110.723 13.263 111.165 12.6282C111.827 11.3985 111.48 9.94276 111.508 8.61052C111.361 8.12634 111.096 7.69512 110.768 7.31517C110.416 7.11311 110.051 6.88552 109.631 6.91275L109.538 6.95762L109.52 6.86306C109.419 6.84059 109.219 6.79409 109.118 6.77006C108.788 6.78606 108.46 6.78933 108.135 6.78769C108.027 6.78769 107.816 6.78769 107.71 6.78769C107.371 6.78769 107.03 6.78449 106.694 6.77646C106.173 6.83099 105.655 6.93195 105.176 7.14681Z" fill="white"/>
<path id="Vector_5" d="M116.221 5.19733C116.556 4.84784 117.163 4.83341 117.505 5.18451C118.263 5.89954 118.94 6.69635 119.689 7.42255C120.187 7.97406 120.742 8.51277 121.251 9.07225C121.832 9.67829 122.413 10.2843 122.996 10.8887C123.454 11.3616 123.911 11.8362 124.362 12.3187C124.359 9.89955 124.386 7.48191 124.362 5.06427C124.771 5.06267 125.181 5.05946 125.593 5.05946C125.683 5.06107 125.861 5.06267 125.951 5.06427C126.023 5.06748 126.164 5.07389 126.236 5.0771C126.233 5.34002 126.231 5.60294 126.236 5.86747C126.238 5.92198 126.239 6.03261 126.239 6.08711C126.231 6.79731 126.226 7.50595 126.238 8.21615C126.236 8.35401 126.236 8.49194 126.238 8.63137C126.23 9.2903 126.23 9.94924 126.239 10.6097C126.238 10.738 126.238 10.8663 126.241 10.9945C126.213 12.2113 126.262 13.4282 126.221 14.6434C126.212 15.049 125.893 15.3568 125.536 15.4931C125.255 15.4722 124.936 15.5139 124.724 15.2959C124.205 14.8438 123.768 14.3051 123.27 13.8289C122.815 13.3432 122.362 12.8526 121.896 12.378C121.585 12.0607 121.28 11.7384 120.976 11.4162C120.654 11.073 120.32 10.7412 119.992 10.4046L119.889 10.2939C119.595 9.97648 119.298 9.66386 118.999 9.3528C118.598 8.93922 118.202 8.52237 117.808 8.10552C117.805 9.12358 117.811 10.1432 117.808 11.1613C117.801 12.5624 117.807 13.962 117.811 15.3616C117.187 15.36 116.564 15.3633 115.942 15.3568C115.936 14.5456 115.939 13.7328 115.937 12.9215C115.939 12.0607 115.936 11.1997 115.937 10.3388C115.936 10.0342 115.936 9.72955 115.939 9.4266C115.939 8.33801 115.936 7.24942 115.936 6.16086C115.937 5.8258 115.937 5.43461 116.221 5.19733Z" fill="white"/>
<path id="Vector_6" d="M35.0021 5.05944C35.1239 5.06104 35.3692 5.06104 35.4911 5.06265C35.9512 5.06265 36.4129 5.06265 36.8762 5.06265C36.8602 6.46545 36.8714 7.86826 36.8618 9.27104C39.0518 9.27267 41.2401 9.27267 43.4301 9.27104C43.4221 7.86983 43.4317 6.46705 43.4237 5.06425C44.0489 5.06104 44.6726 5.06906 45.2978 5.04822C45.2882 8.4871 45.2962 11.9259 45.293 15.3632C44.6694 15.3616 44.0457 15.3632 43.4237 15.3632C43.4349 13.9588 43.4221 12.556 43.4269 11.1516C41.2401 11.1548 39.0533 11.1564 36.8682 11.1516C36.8634 12.556 36.8666 13.9604 36.8666 15.3632C36.243 15.3632 35.6209 15.3632 34.9973 15.3664C34.9973 11.9308 34.9876 8.49507 35.0021 5.05944Z" fill="white"/>
<path id="Vector_7" d="M47.6816 5.03063C48.3566 5.02422 49.0331 5.02902 49.7081 5.02742C50.7758 6.41259 51.8435 7.79456 52.9129 9.1765C53.979 7.79292 55.0499 6.41259 56.1145 5.02742C56.7894 5.03223 57.4644 5.03223 58.1409 5.02582C56.7157 6.87113 55.3048 8.72758 53.8572 10.5552C53.8491 12.1601 53.862 13.7648 53.8507 15.3697C53.2239 15.36 52.5987 15.3633 51.975 15.3665C51.9654 13.7712 51.9654 12.1745 51.9766 10.5793C50.5385 8.73405 49.1181 6.87589 47.6816 5.03063Z" fill="white"/>
<path id="Vector_8" d="M62.3596 5.16198C63.5267 4.97281 64.7147 5.09786 65.8913 5.06259C67.0649 5.07221 68.3873 4.95517 69.3702 5.72471C70.3903 6.48783 70.8004 7.81685 70.7201 9.05134C70.7906 10.2329 70.3661 11.5074 69.3401 12.1776C68.0223 13.1235 66.3243 12.7644 64.8141 12.8349C64.3427 12.8349 63.873 12.8397 63.4049 12.8381C63.3151 12.8349 63.1339 12.8317 63.0425 12.8285C63.0393 12.7676 63.0329 12.6441 63.0297 12.5832C63.0201 12.0429 63.0297 11.501 63.0281 10.9608C63.6661 10.964 64.3042 10.9608 64.9439 10.9656C65.7934 10.9463 66.6495 11.0265 67.4965 10.9175C68.1313 10.8421 68.7341 10.3644 68.8092 9.70224C68.8784 8.91667 68.9503 7.98201 68.3618 7.36317C67.9374 6.89663 67.2608 6.92869 66.6848 6.92712C65.4538 6.94476 64.2209 6.90786 62.9912 6.94632C62.6177 6.92549 62.2634 7.21891 62.2954 7.60846C62.2666 9.12507 62.2954 10.6417 62.2842 12.1583C62.2826 13.2277 62.2842 14.2954 62.2842 15.3647C61.6606 15.3632 61.0385 15.3615 60.4165 15.3631C60.4325 12.7211 60.3989 10.079 60.4293 7.43854C60.4486 6.34515 61.303 5.38483 62.3596 5.16198Z" fill="white"/>
<path id="Vector_9" d="M73.2498 5.35931C73.5241 5.03386 73.9904 5.07234 74.3737 5.05951C77.0428 5.07875 79.7105 5.03867 82.3783 5.07875C82.3515 5.38496 82.3483 5.69117 82.3483 5.99738C82.3483 6.3068 82.3515 6.6146 82.3541 6.92402C82.1092 6.92565 81.8637 6.92565 81.6221 6.93042C79.369 6.93368 77.1185 6.92722 74.8674 6.93205C74.8707 8.81417 74.8785 10.6964 74.8642 12.5785C74.8243 12.9601 75.0007 13.4827 75.4637 13.4651C77.7533 13.5436 80.0475 13.4699 82.3385 13.4956L82.3483 13.6479C82.3541 13.9284 82.3528 14.209 82.3541 14.4911C82.3528 14.7813 82.3528 15.0715 82.3541 15.3617C80.0573 15.3649 77.7599 15.3665 75.4624 15.3584C74.2248 15.3055 73.0591 14.318 73.0095 13.0435C72.9808 10.8567 73.0108 8.66834 72.9951 6.48155C73.0062 6.10159 72.9546 5.6559 73.2498 5.35931Z" fill="white"/>
<path id="Vector_10" d="M85.442 5.12837C86.5718 4.99691 87.7133 5.08989 88.8483 5.06424C88.9652 5.06424 89.1977 5.06424 89.3153 5.06424C89.6627 5.06424 90.0127 5.06424 90.3621 5.06424C90.5816 5.06424 90.803 5.06424 91.0256 5.06424C91.1412 5.06424 91.3685 5.06424 91.4828 5.06424C91.8178 5.06264 92.1541 5.06264 92.4924 5.06103C92.5741 5.05943 92.736 5.05943 92.8183 5.05782C93.1501 5.07867 93.4831 5.12035 93.8103 5.1957C93.8828 5.23578 94.0252 5.31434 94.0976 5.35442C94.3301 5.51955 94.545 5.70552 94.7481 5.90752C94.9871 6.32435 95.1745 6.78444 95.1811 7.27182C95.1974 8.33317 95.298 9.49386 94.6861 10.427C94.0669 11.437 92.8901 11.9484 91.7407 12.0157C92.5891 12.7276 93.4289 13.4506 94.2596 14.1832C94.4803 14.3756 94.705 14.5648 94.9296 14.7556C95.1621 14.956 95.3959 15.158 95.6304 15.3583C95.4887 15.3583 95.2052 15.3583 95.0622 15.36C94.835 15.36 94.6103 15.36 94.3876 15.3616C94.1949 15.3632 94.0043 15.3632 93.8155 15.3648C93.5138 15.3664 93.2141 15.3664 92.9156 15.3583C92.8725 15.3536 92.7876 15.3455 92.7445 15.3423C92.6322 15.2558 92.5231 15.1692 92.4186 15.0778C92.2919 14.972 92.1685 14.8662 92.047 14.7588C91.2967 14.1095 90.5332 13.4714 89.7959 12.8077C89.5798 12.6185 89.3662 12.4277 89.1514 12.2417C88.7138 11.8121 88.0503 12.0462 87.507 11.9997C87.5096 11.3728 87.505 10.746 87.5017 10.1191C88.6864 10.1576 89.873 10.1079 91.0609 10.132C91.8302 10.1753 92.8052 10.0486 93.1625 9.2566C93.4211 8.51433 93.3486 7.6967 93.2186 6.93517C91.1092 6.93197 88.9992 6.93033 86.8892 6.9336H86.7566C86.7723 9.74555 86.7657 12.556 86.7677 15.368C86.1388 15.3632 85.5138 15.3696 84.8869 15.3712C84.8901 12.5704 84.8954 9.76965 84.8888 6.96723C84.898 6.4462 84.8242 5.8979 85.0599 5.41214C85.182 5.31273 85.3087 5.21654 85.442 5.12837Z" fill="white"/>
<path id="Vector_11" d="M97.8083 6.25701C97.807 5.853 97.8135 5.4506 97.8325 5.0482C98.4451 5.06423 99.0589 5.07706 99.6728 5.03217C99.6761 5.47785 99.6761 5.92355 99.678 6.36924C99.6761 6.67384 99.6793 6.97843 99.6813 7.28308C99.6793 7.7175 99.6793 8.15198 99.6813 8.58803C99.6793 8.92632 99.6793 9.2646 99.6793 9.60289C99.678 10.0133 99.678 10.4221 99.6793 10.8325C99.6793 11.1885 99.6793 11.5459 99.6813 11.9035C99.678 12.2962 99.678 12.6891 99.6813 13.0802C99.6793 13.4169 99.6793 13.7535 99.6813 14.0886C99.6813 14.5295 99.6761 14.9704 99.6617 15.4096C99.0491 15.3231 98.4274 15.376 97.8135 15.368C97.8135 15.2911 97.8135 15.1371 97.8116 15.0586C97.8103 14.5776 97.8103 14.0967 97.8103 13.6157C97.8083 13.4073 97.807 13.1988 97.8083 12.9921C97.8083 12.4726 97.8103 11.9548 97.8103 11.4369C97.807 11.2061 97.807 10.9768 97.8083 10.7459C97.8083 10.2041 97.8103 9.66219 97.8103 9.12191C97.8083 8.95042 97.8083 8.77886 97.8103 8.60893C97.8103 8.03339 97.8116 7.45778 97.8103 6.88224C97.807 6.67384 97.8051 6.46543 97.8083 6.25701Z" fill="white"/>
<path id="Vector_12" d="M75.6131 9.27269C77.0877 9.27106 78.5611 9.27426 80.0363 9.27106C80.5268 9.27106 81.0192 9.27269 81.5109 9.27269C81.5096 9.8771 81.5077 10.4831 81.522 11.0891L81.4548 11.1372C81.091 11.1548 80.7286 11.1548 80.3681 11.1548C78.7824 11.1596 77.1988 11.1532 75.6144 11.1532C75.6131 10.5264 75.6112 9.89956 75.6131 9.27269Z" fill="white"/>
<path id="Vector_13" d="M13.2293 17.2469C13.9668 17.2486 14.7027 17.2486 15.4402 17.2486C15.4418 18.9544 15.4386 20.6602 15.445 22.366C15.4562 22.6514 15.3953 22.9319 15.2558 23.182C14.7796 24.099 14.2987 25.0128 13.8258 25.9315C13.7023 26.1591 13.6126 26.4092 13.6254 26.6754C13.6126 27.5475 13.6334 28.4212 13.6222 29.295C15.2879 29.606 17.0017 29.5916 18.669 29.2998C18.6594 28.4292 18.6786 27.5571 18.6674 26.6866C18.6722 26.1158 18.2891 25.6525 18.063 25.154C17.683 24.3572 17.2037 23.6052 16.8798 22.7828C16.8125 20.9423 16.867 19.0922 16.8558 17.2486C17.5901 17.2501 18.326 17.2486 19.0618 17.2486C19.0618 18.6802 19.0666 20.1135 19.0586 21.5451C19.065 21.8866 19.0377 22.2505 19.2109 22.5616C19.6903 23.5107 20.1905 24.4517 20.6794 25.3976C20.8125 25.6429 20.8943 25.9139 20.8798 26.196C20.8815 27.804 20.8734 29.412 20.8798 31.0184C17.8178 31.9707 14.4815 31.9675 11.4193 31.0248C11.4146 30.4092 11.4193 29.792 11.4033 29.1764C11.4562 28.0429 11.3488 26.903 11.4562 25.7744C11.9452 24.6457 12.5977 23.5908 13.1203 22.4766C13.263 22.1928 13.2261 21.8658 13.2374 21.5596C13.2278 20.1231 13.231 18.685 13.2293 17.2469Z" fill="white"/>
<path id="Vector_14" d="M74.5322 20.2209C76.8663 20.2289 79.199 20.2225 81.5337 20.2225C81.5317 20.6522 81.5317 21.0835 81.5363 21.5147C80.5841 21.5195 79.632 21.5163 78.6811 21.5179C78.6844 23.4642 78.6798 25.4105 78.6831 27.3584C78.2501 27.3551 77.8204 27.3551 77.3907 27.3584C77.3861 25.4105 77.3926 23.4642 77.3861 21.5179C76.6547 21.5195 75.9239 21.5163 75.1925 21.5163C74.9717 21.5163 74.7517 21.5163 74.5342 21.5163C74.5342 21.085 74.5335 20.6522 74.5322 20.2209Z" fill="white"/>
<path id="Vector_15" d="M36.5237 23.1371C37.8865 23.1388 39.2508 23.1404 40.6135 23.1356C40.6151 23.57 40.6151 24.0061 40.6135 24.4406C39.666 24.4453 38.7201 24.4421 37.7742 24.4453C37.3558 24.4438 36.9374 24.4502 36.5222 24.4181C36.5205 23.9917 36.5222 23.5636 36.5237 23.1371Z" fill="white"/>
<path id="Vector_16" d="M59.3329 20.7419C59.3089 20.3057 59.8411 19.9852 60.2179 20.1904C60.6315 20.4372 60.9185 20.8381 61.252 21.1779C61.9975 21.9554 62.7446 22.7314 63.4933 23.5057C63.6007 23.6228 63.7081 23.7398 63.8203 23.8585C64.0175 24.0701 64.2211 24.2769 64.4247 24.4853C64.6668 24.7354 64.9089 24.9872 65.1542 25.2372C65.151 23.5667 65.1574 21.8961 65.151 20.2256C65.4203 20.2256 65.6878 20.224 65.9608 20.224C66.0228 20.224 66.1449 20.224 66.2076 20.224C66.2684 20.224 66.3905 20.2224 66.4512 20.2224C66.4512 20.3234 66.4493 20.5238 66.4493 20.6248C66.448 20.8028 66.4467 20.9808 66.448 21.1603C66.4447 21.6525 66.4467 22.1478 66.4512 22.6416C66.4493 22.8276 66.4512 23.0152 66.4525 23.2028C66.448 23.7639 66.448 24.3266 66.4545 24.8893C66.4525 25.0192 66.4525 25.149 66.4545 25.2805C66.4467 25.808 66.4558 26.3354 66.4525 26.8644C66.3742 27.2909 65.9862 27.4609 65.5918 27.4865C65.5134 27.4112 65.3545 27.2588 65.276 27.1819C64.7165 26.6352 64.1843 26.0612 63.644 25.4969C63.2592 25.0929 62.8744 24.6889 62.4881 24.2881C62.4111 24.2112 62.3373 24.1342 62.2652 24.0589C61.7137 23.4833 61.1671 22.9013 60.6107 22.3322C60.6171 22.4349 60.6283 22.64 60.6347 22.7426C60.577 24.2817 60.6283 25.824 60.6059 27.3631C60.1762 27.3599 59.7466 27.3663 59.3186 27.3518C59.3169 26.2103 59.3218 25.0689 59.3121 23.929C59.3314 22.8661 59.2832 21.8032 59.3329 20.7419Z" fill="#FFFFFE"/>
<path id="Vector_17" d="M119.123 20.2145C119.221 20.216 119.416 20.2192 119.514 20.2209C119.564 20.2209 119.662 20.2224 119.711 20.2241L119.869 20.2224C119.998 20.2209 120.26 20.2192 120.389 20.2177C120.391 20.6153 120.394 21.0112 120.399 21.4089C120.399 21.667 120.401 21.925 120.401 22.1832C120.394 22.5102 120.391 22.8373 120.388 23.1644C121.906 23.1275 123.425 23.1531 124.942 23.1339C124.939 22.1671 124.939 21.2004 124.941 20.2337C125.01 20.2305 125.148 20.2256 125.217 20.2224C125.554 20.2177 125.893 20.2241 126.233 20.2273C126.233 22.6048 126.239 24.9808 126.237 27.3583C126.137 27.3583 125.936 27.3599 125.837 27.3615C125.625 27.3599 125.414 27.3599 125.207 27.3551C125.142 27.3535 125.01 27.3471 124.944 27.3439C124.938 26.3772 124.94 25.4088 124.944 24.4405C124.6 24.4389 124.258 24.4389 123.918 24.4405C123.64 24.4405 123.363 24.4405 123.09 24.4405C122.716 24.4405 122.343 24.4389 121.97 24.4389C121.449 24.4357 120.928 24.4485 120.409 24.4581C120.406 24.6954 120.402 24.9326 120.404 25.1699C120.404 25.2805 120.406 25.5034 120.406 25.6141C120.404 25.9443 120.401 26.2761 120.402 26.608C120.394 26.8565 120.394 27.105 120.393 27.3551C120.261 27.3567 119.997 27.3583 119.865 27.3599C119.779 27.3599 119.609 27.3615 119.524 27.3615C119.418 27.3615 119.21 27.3631 119.105 27.3631C119.112 25.4826 119.094 23.6036 119.105 21.7247C119.105 21.606 119.105 21.3703 119.105 21.2517C119.105 20.9054 119.113 20.5592 119.123 20.2145Z" fill="#FFFFFE"/>
<path id="Vector_18" d="M89.5971 20.9054C89.5599 20.5511 89.8485 20.3154 90.1548 20.2224C90.4866 20.2176 90.8216 20.2208 91.1566 20.2208C91.2271 20.2208 91.3682 20.2208 91.4387 20.2208C91.8802 20.2192 92.3243 20.2208 92.7664 20.224C93.1772 20.2256 93.5873 20.224 93.9994 20.2208C94.6884 20.2128 95.378 20.2224 96.0689 20.2048C96.0676 20.6361 96.0722 21.0673 96.0624 21.4986C96.0128 21.5018 95.9122 21.5098 95.8606 21.513C94.3507 21.5322 92.8389 21.5098 91.3284 21.521C91.2448 21.5162 91.0815 21.5082 90.9999 21.5034L90.8778 21.4922C90.8987 22.7598 90.8588 24.0303 90.8876 25.2983C90.8921 25.485 90.849 25.7007 90.9672 25.8454C91.1736 26.0985 91.5596 26.065 91.8861 26.064C93.2079 26.06 94.5303 26.0668 95.8528 26.0597L96.0657 26.042C96.0676 26.4845 96.0709 26.927 96.0755 27.3695C94.3801 27.3001 92.6796 27.4324 90.9888 27.3008C90.9333 27.2965 90.8817 27.2885 90.8281 27.2747C90.7263 27.2488 90.625 27.2086 90.5362 27.1527C90.4657 27.1082 90.3971 27.062 90.3292 27.0139C90.083 26.8396 89.8838 26.5999 89.7591 26.3251C89.6396 26.0619 89.5965 25.7698 89.5932 25.4808C89.5762 23.9556 89.5795 22.4305 89.5971 20.9054Z" fill="#FFFFFD"/>
<path id="Vector_19" d="M34.7264 20.9119C34.6944 20.5222 35.031 20.1952 35.419 20.2353C37.3364 20.2096 39.2539 20.2369 41.1713 20.2241C41.2162 20.6585 41.213 21.1011 41.1344 21.5323C39.4254 21.505 37.7164 21.5275 36.0074 21.5178C36.0058 22.4557 36.009 23.3936 36.0058 24.3331C36.0074 25.3399 36.0026 26.3483 36.0074 27.3567C35.5745 27.3567 35.1432 27.3567 34.7136 27.3599C34.7264 25.2101 34.6927 23.0601 34.7264 20.9119Z" fill="#FFFFFD"/>
<path id="Vector_20" d="M91.4494 23.1403C92.7673 23.1419 94.0852 23.121 95.4031 23.1451L95.4769 23.2092C95.4945 23.6197 95.4847 24.0285 95.4847 24.4389C95.3933 24.4389 95.2104 24.4405 95.119 24.4405C94.863 24.4405 94.6096 24.4405 94.3562 24.4405C94.1779 24.4405 94.0016 24.4405 93.8272 24.4421C93.4857 24.4405 93.1454 24.4405 92.8071 24.4453C92.3585 24.4485 91.9111 24.4581 91.4658 24.4453L91.3809 24.4036C91.3887 23.982 91.3854 23.5587 91.4494 23.1403Z" fill="#FFFFFD"/>
<path id="Vector_21" d="M105.488 20.3299C105.61 20.2895 105.738 20.2647 105.867 20.2544C106.661 20.1907 107.459 20.2388 108.255 20.2225C108.529 20.2209 108.807 20.2225 109.085 20.2241C109.653 20.2257 110.22 20.2241 110.79 20.2289C110.788 20.6634 110.787 21.0963 110.778 21.5307C110.267 21.5179 109.757 21.5179 109.249 21.5163C108.986 21.5163 108.723 21.5179 108.465 21.5179C108.359 21.5179 108.151 21.5179 108.045 21.5179C107.41 21.5221 106.773 21.508 106.138 21.5256C105.963 21.5305 105.799 21.6292 105.704 21.775C105.652 21.8545 105.626 21.9398 105.622 22.0348C105.573 23.1233 105.597 24.2178 105.614 25.3092C105.616 25.4767 105.567 25.6664 105.654 25.8091C105.814 26.0681 106.183 26.0623 106.487 26.0632C107.104 26.065 107.723 26.0578 108.342 26.063C108.447 26.0614 108.659 26.0614 108.765 26.0614C108.943 26.0614 109.122 26.0614 109.305 26.0614C109.372 26.0614 109.509 26.063 109.578 26.063C109.898 26.063 110.222 26.0678 110.548 26.0662C110.612 26.0646 110.742 26.0597 110.806 26.0582C110.775 26.4846 110.783 26.9127 110.804 27.3407C109.255 27.3227 107.704 27.4018 106.155 27.3484C105.949 27.3413 105.744 27.312 105.547 27.2509C105.537 27.2476 105.526 27.2443 105.516 27.241C105.388 27.2006 105.263 27.1452 105.147 27.0772C104.939 26.9545 104.756 26.793 104.625 26.5895C104.611 26.5669 104.596 26.5442 104.583 26.5212C104.401 26.2226 104.327 25.8737 104.314 25.5245C104.274 24.4691 104.324 23.4099 104.297 22.3531C104.277 21.9882 104.338 21.6249 104.474 21.2883C104.577 21.0328 104.759 20.8192 104.955 20.6265C104.959 20.6235 104.963 20.6202 104.968 20.6169C105.125 20.4932 105.298 20.3925 105.488 20.3299Z" fill="#FFFEFF"/>
<path id="Vector_22" d="M49.3827 20.2224C49.8124 20.2256 50.2421 20.2256 50.6733 20.2256C50.6669 22.6031 50.6749 24.9807 50.6701 27.3566C50.2389 27.355 49.8093 27.355 49.3795 27.355C49.3812 24.9775 49.3731 22.5999 49.3827 20.2224Z" fill="#FFFEFD"/>
</g>
<defs>
<clipPath id="clip0_3698_4660">
<rect width="126.694" height="32" fill="white" transform="translate(0.157227)"/>
</clipPath>
</defs>
</svg>
