<svg width="177" height="33" viewBox="0 0 177 33" fill="none" xmlns="http://www.w3.org/2000/svg">
<g id="Frame 1171277196" clip-path="url(#clip0_4701_3017)">
<g id="Group 1171277196">
<path id="Vector" d="M4.5644 6.16899C4.7644 5.92099 4.9724 5.68099 5.1804 5.44099C5.1884 5.43299 5.2124 5.42499 5.2204 5.41699C5.2364 5.39299 5.2684 5.37699 5.2924 5.35299L5.3084 5.32899C5.4524 5.19299 5.6124 5.04899 5.7884 4.91299C6.4284 4.43299 7.0844 4.06499 7.7804 3.81699C10.0204 3.03299 12.5084 3.51299 14.4604 5.36099C17.1884 7.91299 16.9404 12.033 14.7644 14.769C12.0124 18.849 7.2924 24.537 13.8284 29.633C15.0044 30.553 15.8764 31.305 19.5804 32.377C17.1564 32.825 14.9084 32.681 12.4124 32.049C10.6444 31.049 7.8604 28.913 6.9164 26.025C5.4844 21.649 9.4364 15.097 11.3404 12.577C13.9564 9.08899 9.7244 5.31299 6.5964 9.52899C4.9804 11.729 2.1244 17.945 3.1164 22.561C3.6924 25.177 4.4684 27.081 7.5324 29.705C6.9644 29.369 6.4124 28.993 5.8764 28.561C-1.2356 21.929 -0.411602 11.673 4.5644 6.16899Z" fill="url(#paint0_linear_4701_3017)"/>
<path id="Vector_2" d="M28.8051 27.1129C28.6051 27.3609 28.3971 27.6009 28.1891 27.8409C28.1811 27.8489 28.1571 27.8569 28.1491 27.8649C28.1331 27.8889 28.1011 27.9049 28.0771 27.9289L28.0611 27.9529C27.9171 28.0889 27.7571 28.2329 27.5811 28.3609C26.9411 28.8409 26.2851 29.2089 25.5891 29.4569C23.3491 30.2409 20.8611 29.7609 18.9091 27.9129C16.1811 25.3609 16.4291 21.2409 18.6051 18.5049C21.3571 14.4249 26.0771 8.73692 19.5411 3.64092C18.3651 2.72092 17.4931 1.96892 13.7891 0.896924C16.2131 0.448924 18.4611 0.592924 20.9571 1.22492C22.7251 2.22492 25.5091 4.36092 26.4531 7.24892C27.8851 11.6249 23.9331 18.1769 22.0291 20.6969C19.4131 24.1849 23.6451 27.9609 26.7731 23.7449C28.4051 21.5449 31.2611 15.3289 30.2691 10.7129C29.6931 8.09692 28.9171 6.19292 25.8531 3.56892C26.4211 3.90492 26.9731 4.28092 27.5091 4.71292C34.6051 11.3529 33.7811 21.6089 28.8051 27.1129Z" fill="url(#paint1_linear_4701_3017)"/>
</g>
<path id="Vector_3" d="M38.6836 25.7922V10.5639C38.6836 9.74653 39.0083 8.96261 39.5863 8.38462C40.1643 7.80663 40.9482 7.48192 41.7656 7.48192V25.7922H38.6836ZM46.2333 25.7922V7.48192H49.4764L56.9002 20.7698V7.48192C57.2874 7.4818 57.6709 7.55797 58.0286 7.70607C58.3865 7.85416 58.7117 8.07131 58.9855 8.34509C59.2593 8.61887 59.4766 8.94392 59.6248 9.30168C59.7731 9.65944 59.8494 10.0429 59.8494 10.4301V25.7913H56.6062L49.1815 12.5043V25.7932L46.2333 25.7922ZM69.5621 26.2366C67.65 26.2366 66.1579 25.6526 65.0856 24.4837C64.0134 23.3157 63.4782 21.764 63.4782 19.8275H66.5601C66.5601 20.9613 66.8102 21.8684 67.3102 22.5482C67.8277 23.2112 68.5797 23.5422 69.5621 23.5422C70.5446 23.5422 71.2945 23.2103 71.813 22.5482C72.3492 21.8684 72.6168 20.9701 72.6168 19.8539V10.5639C72.6168 10.1591 72.6965 9.75825 72.8514 9.38427C73.0064 9.01028 73.2335 8.67048 73.5198 8.38428C73.8061 8.09808 74.146 7.87108 74.52 7.71625C74.894 7.56143 75.2949 7.4818 75.6998 7.48192V19.8548C75.6998 21.7894 75.1538 23.3411 74.064 24.51C72.9927 25.6613 71.4918 26.2366 69.5621 26.2366ZM79.8852 7.48192H90.7142C90.7142 8.1965 90.4303 8.8818 89.9251 9.38709C89.4198 9.89237 88.7345 10.1762 88.0199 10.1762H82.9692V15.3549H90.7142V18.0491H82.9692V23.0979H90.7142V25.7922H79.8852V7.48192ZM158.119 7.48192H168.946C168.946 8.19643 168.663 8.88158 168.157 9.3868C167.652 9.89203 166.967 10.176 166.253 10.1762H161.201V15.3549H168.946V18.0491H161.201V23.0979H168.946V25.7922H158.119V7.48192ZM103.314 26.2356C100.64 26.2356 98.5237 25.3469 96.9641 23.5686C95.4046 21.7894 94.6243 19.4789 94.6243 16.6361C94.6243 13.7943 95.4046 11.4838 96.9641 9.70456C98.5237 7.92625 100.64 7.03662 103.314 7.03662C105.558 7.03662 107.404 7.66455 108.853 8.92039C110.301 10.1577 111.152 11.7719 111.406 13.7592C109.651 13.7592 108.275 12.3676 107.035 11.1254C106.922 11.012 106.804 10.9045 106.68 10.8032C105.82 10.0883 104.707 9.73092 103.338 9.73092C101.508 9.73092 100.075 10.3588 99.0413 11.6147C98.0227 12.852 97.513 14.5268 97.513 16.6361C97.513 18.7464 98.0227 20.4291 99.0413 21.6848C100.075 22.9232 101.508 23.5422 103.338 23.5422C104.706 23.5422 105.82 23.1849 106.68 22.47C106.805 22.3675 106.924 22.2611 107.035 22.1478C108.275 20.9046 109.652 19.514 111.407 19.514C111.152 21.5023 110.301 23.1233 108.853 24.3792C107.404 25.6174 105.558 26.2356 103.314 26.2356ZM119.366 25.7922V10.3061H113.925C113.925 9.55717 114.223 8.83898 114.752 8.3094C115.282 7.77982 116 7.48219 116.749 7.48192H127.914V10.3061H122.446V25.7922H119.366ZM131.826 25.7922V10.5639C131.826 9.74653 132.151 8.96261 132.729 8.38462C133.307 7.80663 134.091 7.48192 134.908 7.48192V25.7922H131.826ZM145.037 25.7922L138.819 7.48192C139.792 7.48197 140.739 7.791 141.525 8.36442C142.31 8.93783 142.894 9.746 143.19 10.6723L146.511 21.057L149.832 10.6723C150.129 9.746 150.711 8.93777 151.498 8.36432C152.283 7.79088 153.23 7.48188 154.203 7.48192L147.985 25.7922H145.037Z" fill="#929292"/>
</g>
<defs>
<linearGradient id="paint0_linear_4701_3017" x1="0.684398" y1="18.0519" x2="32.6844" y2="18.0519" gradientUnits="userSpaceOnUse">
<stop stop-color="#858585"/>
<stop offset="1" stop-color="#DEDEDE"/>
</linearGradient>
<linearGradient id="paint1_linear_4701_3017" x1="0.685066" y1="15.23" x2="32.6851" y2="15.23" gradientUnits="userSpaceOnUse">
<stop stop-color="#858585"/>
<stop offset="1" stop-color="#DEDEDE"/>
</linearGradient>
<clipPath id="clip0_4701_3017">
<rect width="175.938" height="32" fill="white" transform="translate(0.683594 0.636719)"/>
</clipPath>
</defs>
</svg>
