<svg width="202" height="35" viewBox="0 0 202 35" fill="none" xmlns="http://www.w3.org/2000/svg">
<g id="Frame 1171277158" clip-path="url(#clip0_2393_24590)">
<g id="Vector">
<path d="M6.66986 28.153H0.0214844V2.76834H6.66986V28.153Z" fill="white"/>
<path d="M15.5344 28.153H9.08745V10.2226H15.3329V13.1294H15.4192C16.5417 10.9997 18.8441 9.70453 21.2617 9.90599C23.5642 9.90599 25.2047 10.5104 26.212 11.7192C27.2481 13.2733 27.7086 15.1153 27.536 16.9573V28.153H21.089V17.9646C21.1754 17.0724 21.0027 16.1514 20.571 15.3456C20.1105 14.7124 19.3334 14.367 18.5563 14.4534C16.628 14.4534 15.6207 15.6622 15.6207 18.0798L15.5344 28.153Z" fill="white"/>
<path d="M40.2283 28.153H33.5799L27.2194 10.2226H33.6951L35.9975 17.9934C36.6019 20.2095 37.12 22.5408 37.12 22.6271H37.2351C37.5517 21.1017 37.8395 19.6051 38.2424 18.0798L40.5737 10.3089H46.8191L40.2283 28.153Z" fill="white"/>
<path fill-rule="evenodd" clip-rule="evenodd" d="M54.9641 28.6423C49.1216 28.6423 45.783 25.2174 45.783 19.0583C45.6967 16.5831 46.5601 14.1656 48.2006 12.2948C49.985 10.5392 52.4601 9.61818 54.9641 9.76209C58.1012 9.76209 60.5188 10.6543 62.0154 12.3811C63.5408 14.3382 64.3179 16.7558 64.2315 19.231V20.6412H52.2299C52.4314 23.2603 53.2372 24.4691 55.1656 24.4691C56.3168 24.6706 57.4392 23.9223 57.6983 22.7422H64.0588C63.6271 26.5125 60.49 28.6423 54.9641 28.6423ZM52.2299 17.2451C52.4314 14.8275 53.2372 13.6187 54.9641 13.6187C56.5758 13.6187 57.468 14.7412 57.6695 17.0436V17.2451H52.2299Z" fill="white"/>
<path d="M73.096 28.7287C70.8799 28.9301 68.6925 28.3545 66.8506 27.1169C65.6418 26.0808 64.9222 24.5842 64.8359 22.9725H70.5921C70.7072 24.1813 71.5131 24.7857 73.0097 24.7857C74.4199 24.7857 75.3121 24.2676 75.3121 23.2891C75.3121 22.4832 74.7941 22.0803 73.4989 21.8788L70.5633 21.4759C67.052 21.073 65.1237 19.0583 65.1237 15.9212C65.0949 14.3095 65.7569 12.7841 66.9369 11.6904C70.4194 9.27281 75.0243 9.15769 78.6219 11.4026C79.8307 12.4099 80.5215 13.8777 80.5215 15.4319H74.8516C74.8229 14.3958 73.9594 13.5899 72.9521 13.6187H72.837C71.2253 13.6187 70.9087 14.3382 70.9087 15.029C70.9087 15.7197 71.1965 16.2378 72.6355 16.4392L75.7726 16.8422C77.1541 16.8997 78.478 17.4466 79.5141 18.3388C80.5215 19.3173 81.0395 20.6988 80.9244 22.0803C81.1834 26.2247 78.0463 28.7574 73.096 28.7287Z" fill="white"/>
<path d="M88.4074 28.4409C86.8532 28.5848 85.2991 28.1243 84.0615 27.1457C82.8527 25.8794 82.2195 24.1525 82.3346 22.3969V5.27228H88.6089V10.2226H92.3504V14.6548H88.724V21.2169C88.724 23.1164 89.3284 23.8359 91.0552 23.8359C91.4582 23.8647 91.8611 23.8071 92.264 23.7208V28.2394C90.9401 28.3257 89.7313 28.4409 88.4074 28.4409Z" fill="white"/>
<path d="M100.294 28.153H93.847V10.2226H100.294V28.153Z" fill="white"/>
<path d="M93.6455 8.29426L100.294 7.08547V0.523438L93.6455 1.73223V8.29426Z" fill="white"/>
<path d="M108.871 28.153H102.424V10.2226H108.669V13.1294H108.784C109.907 10.9997 112.209 9.70453 114.627 9.90599C116.929 9.90599 118.57 10.5104 119.577 11.7192C120.613 13.2733 121.074 15.1153 120.872 16.9573V28.153H114.425V17.9646C114.512 17.0724 114.339 16.1514 113.907 15.3456C113.447 14.7124 112.67 14.367 111.893 14.4534C109.993 14.4534 108.986 15.6622 108.986 18.0798L108.871 28.153Z" fill="white"/>
<path fill-rule="evenodd" clip-rule="evenodd" d="M131.751 34.8014C128.614 34.8014 126.312 34.197 124.786 32.9882C123.491 32.0097 122.772 30.4843 122.772 28.8438H129.017C129.305 30.0526 129.823 30.7433 131.838 30.7433C134.054 30.7433 134.975 29.5345 134.975 26.8003V24.3828H134.86C134.083 26.3686 132.068 27.6062 129.909 27.4047C124.758 27.4047 122.139 24.4691 122.139 18.7417C122.023 16.2953 122.858 13.9353 124.47 12.0933C125.909 10.5967 127.923 9.76209 130.024 9.79087C132.039 9.5894 133.996 10.6255 134.946 12.4099H135.061V10.1938H141.22V26.2247C141.22 29.1604 140.501 31.2614 139.004 32.5853C137.392 34.0819 135.061 34.8014 131.751 34.8014ZM128.729 18.7705C128.729 15.8636 129.938 14.1368 131.953 14.1368C133.852 14.1368 134.946 15.547 134.946 17.9646V20.2671C134.946 21.9939 133.565 23.4042 131.838 23.4042C129.823 23.4042 128.729 21.7925 128.729 18.7705Z" fill="white"/>
<path d="M147.782 28.153H143.35V23.9223H147.782V28.153Z" fill="white"/>
<path d="M156.129 28.556C154.172 28.6711 152.272 27.9228 150.891 26.5413C149.624 25.0159 148.962 23.0876 149.077 21.1017C149.077 16.468 151.812 13.6475 156.244 13.6475C160.273 13.6475 162.691 15.6622 162.806 19.0871H158.69C158.604 17.8783 158.086 16.468 156.273 16.468C153.74 16.468 153.452 19.3749 153.452 21.1017C153.452 24.2388 154.373 25.7355 156.273 25.7355C157.654 25.7355 158.777 24.6418 158.805 23.2603V23.2027V22.9149H162.835C162.835 24.5554 162.144 26.0808 160.906 27.1745C159.467 28.0955 157.827 28.5848 156.129 28.556Z" fill="white"/>
<path fill-rule="evenodd" clip-rule="evenodd" d="M170.548 28.556C168.591 28.6711 166.691 27.9228 165.31 26.5413C163.986 25.0159 163.295 23.0301 163.381 20.9866C163.266 19.0007 163.957 17.0436 165.31 15.547C166.72 14.1943 168.591 13.4748 170.548 13.5324C174.98 13.5324 177.714 16.3529 177.714 20.9866C177.714 25.6203 174.865 28.556 170.548 28.556ZM167.727 21.1017C167.727 19.0007 168.217 16.468 170.548 16.468C172.361 16.468 173.368 18.0798 173.368 21.1017C173.368 24.1237 172.361 25.7355 170.548 25.7355C168.735 25.7355 167.727 24.2388 167.727 21.1017Z" fill="white"/>
<path d="M192.508 28.153H188.277V19.7778C188.363 18.972 188.219 18.1949 187.874 17.4753C187.471 16.871 186.78 16.5544 186.061 16.6695C184.334 16.6695 183.327 17.8783 183.327 19.8929V28.153H179.096V13.9353H183.125V16.2666C183.96 14.5973 185.687 13.5612 187.557 13.6475C189.975 13.6475 191.385 14.6548 191.99 16.5831H192.076C192.882 14.7412 194.724 13.5899 196.71 13.6475C199.933 13.6475 201.458 15.3743 201.458 18.8856V28.153H197.228V19.8066C197.314 19.0007 197.17 18.2237 196.825 17.5041C196.422 16.8997 195.731 16.5831 195.012 16.6983C193.285 16.6983 192.277 17.9071 192.277 19.9217L192.508 28.153Z" fill="white"/>
</g>
</g>
<defs>
<clipPath id="clip0_2393_24590">
<rect width="201.437" height="34.278" fill="white" transform="translate(0.0214844 0.523438)"/>
</clipPath>
</defs>
</svg>
