<svg xmlns="http://www.w3.org/2000/svg" width="119" height="28" viewBox="0 0 119 28" fill="none">
    <g clip-path="url(#clip0_4307_11825)">
        <path d="M93.3494 14.4677C93.3494 13.7639 93.3494 13.1122 93.3233 12.5125C93.2972 11.9129 93.2451 11.3394 93.1669 10.8441C93.0887 10.3227 92.9323 9.85334 92.6976 9.38412C92.4891 8.91486 92.1501 8.49773 91.7591 8.08062C91.1855 7.50708 90.5599 7.08996 89.856 6.77712C89.1521 6.49035 88.3439 6.30786 87.4315 6.30786C86.519 6.30786 85.7109 6.46428 85.007 6.77712C84.3032 7.06389 83.6513 7.50708 83.0778 8.08062C82.6607 8.49773 82.374 8.91486 82.1654 9.38412C81.9568 9.85334 81.7744 10.3227 81.6962 10.8441C81.618 11.3654 81.5658 11.9129 81.5397 12.5125C81.5137 13.1122 81.5137 13.7639 81.5137 14.4677C81.5137 15.1716 81.5137 15.7974 81.5397 16.423C81.5658 17.0226 81.618 17.5961 81.6962 18.0914C81.7744 18.6129 81.9308 19.0821 82.1654 19.5514C82.374 20.0206 82.7128 20.4377 83.0778 20.8548C83.6513 21.4284 84.2771 21.8455 85.007 22.1584C85.7109 22.4451 86.519 22.6276 87.4315 22.6276C88.3439 22.6276 89.126 22.4712 89.856 22.1584C90.5599 21.8716 91.2116 21.4284 91.7591 20.8548C92.1762 20.4377 92.4629 20.0206 92.6976 19.5514C92.9062 19.0821 93.0887 18.6129 93.1669 18.0914C93.2451 17.57 93.3233 17.0226 93.3233 16.423C93.3494 15.7713 93.3494 15.1716 93.3494 14.4677ZM90.2471 14.4677C90.2471 15.2237 90.2471 15.8756 90.221 16.3969C90.1949 16.9183 90.1689 17.3094 90.0907 17.6483C90.0385 17.9611 89.9603 18.2478 89.856 18.4304C89.7518 18.639 89.6475 18.8475 89.465 19.0039C89.2563 19.2646 88.9435 19.4732 88.6307 19.6296C88.2918 19.786 87.9008 19.8381 87.4576 19.8642C87.0144 19.8642 86.6494 19.786 86.2844 19.6296C85.9455 19.4732 85.6587 19.2907 85.4241 19.0039C85.2677 18.8475 85.1634 18.665 85.0331 18.4304C84.9288 18.2218 84.8506 17.9611 84.7985 17.6483C84.7463 17.3354 84.6942 16.9183 84.6942 16.3969C84.6681 15.8756 84.6681 15.2498 84.6681 14.4677C84.6681 13.7117 84.6681 13.06 84.6942 12.5385C84.7203 12.0172 84.7463 11.6261 84.7985 11.2872C84.8506 10.9483 84.9288 10.6876 85.0331 10.5052C85.1374 10.2966 85.2416 10.088 85.4241 9.93154C85.6327 9.67085 85.9455 9.46232 86.2844 9.3059C86.6233 9.14949 87.0144 9.09735 87.4576 9.07128C87.9008 9.07128 88.2657 9.14949 88.6307 9.3059C88.9435 9.46232 89.2563 9.64481 89.465 9.93154C89.6214 10.088 89.7257 10.2705 89.856 10.5052C89.9603 10.7137 90.0385 10.9744 90.0907 11.2872C90.1428 11.6001 90.1949 12.0172 90.221 12.5385C90.221 13.06 90.2471 13.7117 90.2471 14.4677Z" fill="white"/>
        <path d="M118.247 6.72505C118.247 6.56864 118.117 6.46436 117.987 6.46436H115.431C115.275 6.46436 115.17 6.59471 115.17 6.72505V16.2667L108.888 6.54257C108.836 6.49042 108.81 6.46436 108.731 6.46436H106.333C106.203 6.46436 106.072 6.59471 106.072 6.72505C106.072 11.8869 106.072 17.0487 106.072 22.1584C106.072 22.3149 106.203 22.4191 106.333 22.4191H108.888C109.044 22.4191 109.148 22.2888 109.148 22.1584V12.5907L115.431 22.3409C115.483 22.3931 115.509 22.4191 115.587 22.4191H117.987C118.143 22.4191 118.247 22.2888 118.247 22.1584V6.72505Z" fill="white"/>
        <path d="M100.963 6.72505C100.963 6.56864 100.833 6.46436 100.702 6.46436H98.1474C97.991 6.46436 97.8867 6.59471 97.8867 6.72505V22.1584C97.8867 22.3149 98.0171 22.4191 98.1474 22.4191H100.702C100.859 22.4191 100.963 22.2888 100.963 22.1584V6.72505Z" fill="white"/>
        <path d="M70.1466 14.4677C70.1466 13.7117 70.1466 13.06 70.1727 12.5385C70.1988 12.0172 70.2248 11.6261 70.277 11.2872C70.5116 9.90548 71.5805 9.09735 72.9361 9.09735C73.8224 9.09735 74.6046 9.41018 75.126 10.1662C75.3345 10.4791 75.517 10.8701 75.6213 11.3133C75.6213 11.3654 75.6474 11.3915 75.6995 11.3915H78.7236C78.7757 11.3915 78.7757 11.3654 78.7757 11.3133C78.4629 9.46232 77.4462 7.74171 75.6734 6.90748C74.8653 6.51642 73.9267 6.30786 72.884 6.30786C71.1894 6.30786 69.7295 6.90748 68.5564 8.05455C67.8785 8.73237 67.4614 9.54053 67.2529 10.453C67.0704 11.3394 66.9922 12.6689 66.9922 14.4156C66.9922 16.1623 67.0704 17.4918 67.2529 18.3782C67.4354 19.2907 67.9046 20.0988 68.5564 20.7766C69.7295 21.9498 71.1633 22.5233 72.884 22.5233C73.9007 22.5233 74.8392 22.3409 75.6734 21.9238C77.4202 21.0895 78.4629 19.421 78.7757 17.5179C78.7757 17.4658 78.7757 17.4397 78.7236 17.4397H75.6995C75.6474 17.4397 75.6213 17.4658 75.6213 17.5179C75.517 17.9611 75.3606 18.326 75.126 18.665C74.6046 19.395 73.8224 19.7078 72.9361 19.7339C71.5805 19.7339 70.5377 18.9257 70.277 17.544C70.2248 17.2311 70.1727 16.814 70.1727 16.2927C70.1466 15.8756 70.1466 15.2237 70.1466 14.4677Z" fill="white"/>
        <path d="M38.1329 6.72505C38.1329 6.56864 38.0025 6.46436 37.8722 6.46436H35.3173C35.1609 6.46436 35.0566 6.59471 35.0566 6.72505V22.1584C35.0566 22.3149 35.187 22.4191 35.3173 22.4191H37.8722C38.0286 22.4191 38.1329 22.2888 38.1329 22.1584V17.6222L40.2185 15.1456L44.4679 22.367C44.494 22.4191 44.5461 22.4452 44.6243 22.4452H47.7527C47.8831 22.4452 47.9091 22.367 47.857 22.2366L42.3041 12.8254L47.4138 6.69899C47.5181 6.56863 47.466 6.46436 47.3095 6.46436H43.8682C43.8161 6.46436 43.79 6.46436 43.764 6.51649L38.1329 13.2165V6.72505Z" fill="white"/>
        <path d="M56.9041 19.8122C55.4441 19.8122 54.1407 18.4565 54.1407 16.8662V6.75118C54.1407 6.59475 54.0103 6.49048 53.8799 6.49048H51.3251C51.1687 6.49048 51.0645 6.62082 51.0645 6.75118V16.8402C51.0645 20.3857 53.7235 22.6278 56.9562 22.6278C60.1889 22.6278 62.848 20.3857 62.848 16.8402V6.75118C62.848 6.59475 62.7177 6.49048 62.5873 6.49048H60.0325C59.8761 6.49048 59.7718 6.62082 59.7718 6.75118V16.8662C59.6414 18.4565 58.3379 19.8122 56.9041 19.8122Z" fill="white"/>
        <path d="M9.09177 14.4677L17.0952 22.4712L22.1527 17.4136C23.0392 16.5272 24.499 16.5272 25.3855 17.4136C26.2718 18.2999 26.2718 19.7599 25.3855 20.6462L18.7115 27.3202C17.8252 28.2065 16.3652 28.2065 15.4789 27.3202L5.88517 17.7004V23.4357C5.88517 24.6871 4.86845 25.7299 3.59102 25.7299C2.3136 25.7299 1.29688 24.7132 1.29688 23.4357V5.55178C1.29688 4.27435 2.3136 3.25762 3.59102 3.25762C4.86845 3.25762 5.88517 4.27435 5.88517 5.55178V11.2351L15.5049 1.61522C16.3913 0.728845 17.8512 0.728845 18.7376 1.61522L25.4115 8.28912C26.2979 9.17549 26.2979 10.6354 25.4115 11.5218C24.5251 12.4082 23.0652 12.4082 22.1789 11.5218L17.1213 6.46422L9.09177 14.4677ZM17.1213 12.1735C15.8438 12.1735 14.8271 13.1902 14.8271 14.4677C14.8271 15.7451 15.8438 16.7619 17.1213 16.7619C18.3987 16.7619 19.4154 15.7451 19.4154 14.4677C19.3893 13.1902 18.3726 12.1735 17.1213 12.1735Z" fill="white"/>
    </g>
    <defs>
        <clipPath id="clip0_4307_11825">
            <rect width="117.793" height="28" fill="white" transform="translate(0.673828)"/>
        </clipPath>
    </defs>
</svg>
