<svg width="24" height="24" viewBox="0 0 24 24" fill="none" xmlns="http://www.w3.org/2000/svg">
<g id="logo-linkedin 1" clip-path="url(#clip0_3491_3914)">
<g id="Group">
<path id="Vector" d="M22.0805 0H2.05071C0.956248 0 0 0.787499 0 1.8691V21.9434C0 23.0309 0.956248 24 2.05071 24H22.0746C23.175 24 24 23.0244 24 21.9434V1.8691C24.0064 0.787499 23.175 0 22.0805 0ZM7.43945 20.0051H4.00124V9.31499H7.43945V20.0051ZM5.83928 7.68963H5.81463C4.71428 7.68963 4.00178 6.87052 4.00178 5.84517C4.00178 4.80106 4.73303 4.00124 5.85803 4.00124C6.98303 4.00124 7.67142 4.79517 7.69606 5.84517C7.69552 6.87052 6.98302 7.68963 5.83928 7.68963ZM20.0051 20.0051H16.5669V14.16C16.5669 12.7596 16.0666 11.8028 14.8227 11.8028C13.8723 11.8028 13.3098 12.4457 13.0596 13.0719C12.9659 13.2969 12.9407 13.6034 12.9407 13.9162V20.0051H9.50249V9.31499H12.9407V10.8027C13.441 10.0902 14.2227 9.06481 16.0414 9.06481C18.2984 9.06481 20.0057 10.5525 20.0057 13.7598L20.0051 20.0051Z" fill="white"/>
</g>
</g>
<defs>
<clipPath id="clip0_3491_3914">
<rect width="24" height="24" fill="white"/>
</clipPath>
</defs>
</svg>
