<svg width="224" height="32" viewBox="0 0 224 32" fill="none" xmlns="http://www.w3.org/2000/svg">
<g id="Marketwatch" clip-path="url(#clip0_4862_11909)">
<path id="Vector" d="M54.0758 13.4114L53.7147 15.2757H53.6517C53.1689 14.1924 51.7874 12.75 48.8398 12.75C44.0278 12.75 39.155 16.4787 38.0737 22.3131C37.1122 27.4253 39.6378 31.937 45.2917 31.937C47.3974 31.937 49.8055 31.0972 51.0064 29.3505H51.0694L50.7083 31.2757H55.9989L59.3077 13.3505H54.0758V13.4114ZM52.3921 22.3131C52.031 24.0556 50.4081 26.9445 47.0384 26.9445C43.7906 26.9445 43.1292 24.0577 43.4274 22.4306C43.7885 20.3858 45.6528 17.7992 48.718 17.7992C51.7265 17.7992 52.749 20.2052 52.3879 22.3131H52.3921ZM62.3771 13.4114H67.3696L67.0085 15.2757H67.0715C67.7328 14.4359 68.9358 12.75 72.064 12.75L71.1025 18.1666C68.5768 18.2296 66.6936 18.7083 66.2905 21.4754L64.4262 31.3429H58.9676L62.3771 13.4114ZM75.6709 6.37396H81.0875L78.5618 19.9071H78.6815L84.8749 13.4114H91.1901L82.9497 21.2906L87.7008 31.3366H81.625L78.1357 22.6742H78.0937L76.4687 31.3366H71.1151L75.6709 6.37396ZM99.8147 12.75C94.3981 12.75 89.5273 17.4423 88.6246 22.4348C87.663 27.7255 91.2111 31.9391 96.3842 31.9391C98.3085 31.9303 100.189 31.366 101.801 30.3141C103.485 29.2917 105.049 27.7276 106.315 25.7436H100.841C99.9386 26.7051 98.9161 27.4274 97.2303 27.4274C95.1245 27.4274 93.6192 26.1635 93.6612 24.0598H107.098C107.278 23.6399 107.339 23.3376 107.459 22.6742C108.481 17.14 105.294 12.75 99.8147 12.75ZM94.3981 20.3921C94.818 19.3087 96.2624 17.3268 99.0904 17.3268C101.857 17.3268 102.58 19.3108 102.58 20.3921H94.3981ZM30.1378 31.3366H35.4914V6.35297H30.9188L21.4145 20.5453H21.3515V6.35297H16.781L0 31.3366H6.49573L15.9391 17.1442H16.0021V31.3366H20.6335L30.0181 17.1442H30.1378V31.3366ZM121.086 13.4114H117.719L118.68 8.12071H113.988L113.627 10.1656C113.207 12.5107 111.763 13.2308 109.777 13.4135H109.714L108.874 17.4444H111.519L108.933 31.3009H114.286L116.873 17.4444H120.301L121.086 13.4114Z" fill="white"/>
<path id="Vector_2" d="M204.091 24.5427C202.348 28.6325 198.137 31.9412 193.325 31.9412C187.908 31.9412 184.482 27.6709 185.504 22.3173C186.466 17.0266 191.341 12.7542 196.753 12.7542C201.504 12.7542 204.731 15.9412 204.815 20.3123H199.398C199.037 19.0484 198.256 17.7866 195.97 17.7866C193.444 17.667 191.338 19.7706 190.858 22.3005C190.375 24.887 191.697 26.871 194.286 26.871C196.512 26.871 197.855 25.6071 198.617 24.465H204.091V24.5427ZM159.582 0L149.177 6.37607H152.125L142.681 20.5684H142.562V6.37607H137.928L128.481 20.5705H128.418V6.37816H123.001V31.3618H127.693L137.137 17.1694H137.2V31.3618H141.831L158.553 6.37816H161.199L159.582 0ZM169.806 31.3387H164.516L164.877 29.4135H164.814C163.55 31.156 161.203 32 159.099 32C153.384 32 150.92 27.4861 151.881 22.3761C152.965 16.5396 157.896 12.813 162.647 12.813C165.595 12.813 166.978 14.2574 167.459 15.3387H167.522L167.883 13.4743H173.174L169.806 31.3387ZM160.783 26.9508C164.092 26.9508 165.775 24.064 166.137 22.3194C166.498 20.1569 165.475 17.8055 162.467 17.8055C159.401 17.8055 157.533 20.3921 157.176 22.437C156.815 24.1207 157.537 26.9508 160.787 26.9508H160.783ZM186.585 13.4177H183.218L184.179 8.12702H179.487L179.126 10.1719C178.706 12.517 177.262 13.2371 175.275 13.4198H175.212L174.431 17.4507H177.077L174.49 31.3072H179.844L182.43 17.4507H185.859L186.585 13.4177ZM209.142 6.38027H214.496L212.871 15.282H212.934C214.076 13.5982 215.642 12.7563 217.987 12.7563C219.671 12.7563 221.598 13.4177 222.501 14.7403C223.643 16.4829 223.523 18.0491 222.921 21.2969L221.056 31.282H215.703L217.508 21.5405C217.689 20.7007 218.17 17.7509 215.346 17.7509C212.337 17.7509 211.856 20.4593 211.676 21.362L209.812 31.2862H204.521L209.142 6.38027Z" fill="#B6B6B6"/>
</g>
<defs>
<clipPath id="clip0_4862_11909">
<rect width="223.37" height="32" fill="white"/>
</clipPath>
</defs>
</svg>
