<svg xmlns="http://www.w3.org/2000/svg" width="32" height="33" viewBox="0 0 32 33" fill="none">
    <g clip-path="url(#clip0_1357_7947)">
        <path d="M9.02511 25.3729C14.0093 25.3729 18.0499 21.2972 18.0499 16.2696C18.0499 11.242 14.0096 7.16602 9.02511 7.16602C4.04067 7.16602 0 11.2429 0 16.2696C0 21.2963 4.04097 25.3729 9.02511 25.3729Z" fill="white"/>
        <path d="M27.9509 16.2696C27.9509 21.002 25.9306 24.8399 23.4383 24.8399C20.9461 24.8399 18.9258 21.002 18.9258 16.2696C18.9258 11.5371 20.9458 7.69922 23.438 7.69922C25.9303 7.69922 27.9509 11.5359 27.9509 16.2696Z" fill="white"/>
        <path d="M32 16.27C32 20.509 31.2896 23.9476 30.4129 23.9476C29.5363 23.9476 28.8262 20.51 28.8262 16.27C28.8262 12.0299 29.5366 8.59229 30.4129 8.59229C31.2893 8.59229 32 12.0296 32 16.27Z" fill="white"/>
    </g>
    <defs>
        <clipPath id="clip0_1357_7947">
            <rect width="32" height="32" fill="white" transform="translate(0 0.5)"/>
        </clipPath>
    </defs>
</svg>
