<svg xmlns="http://www.w3.org/2000/svg" width="125" height="19" viewBox="0 0 125 19" fill="none">
    <path d="M29.3685 13.3621L22.9243 2.17358C21.5179 -0.156472 18.0542 -0.177464 16.6897 2.27855L9.93046 13.9078C8.67097 16.049 10.2243 18.7149 12.7643 18.7149H26.3458C28.8858 18.7359 30.7961 15.965 29.3685 13.3621Z" fill="white"/>
    <path d="M20.067 14.2435L19.6682 13.5507C19.2903 12.9 18.4717 11.5146 18.4717 11.5146L13.0139 2.02642C11.6074 -0.0727341 8.2488 -0.261661 6.84238 2.40427L0.481948 13.4038C-0.840518 15.7129 0.733849 18.7147 3.5887 18.7356H17.0862H22.8379H26.2596C22.7749 18.7567 21.6624 16.9304 20.067 14.2435Z" fill="white"/>
    <path d="M20.0684 14.2017L19.6695 13.5089C19.2917 12.8582 18.473 11.4728 18.473 11.4728L14.9465 5.25928L9.88749 13.9078C8.628 16.0489 10.1814 18.7148 12.7213 18.7148H17.0666H22.8183H26.2609C22.7553 18.6939 21.6638 16.9096 20.0684 14.2017Z" fill="url(#paint0_linear_4773_3058)"/>
    <path d="M113.266 5.22607C114.21 4.34442 115.868 3.92459 118.282 3.92459H123.929V0.712891H117.254C115.658 0.712891 114.315 0.880829 113.266 1.21669C112.237 1.55256 111.334 2.07734 110.558 2.81204C109.739 3.60972 109.088 4.59631 108.626 5.77184C108.165 6.96835 107.934 8.26983 107.934 9.63428C107.934 10.9358 108.165 12.1952 108.626 13.3498C109.088 14.5043 109.739 15.5119 110.558 16.3096C111.313 17.0443 112.216 17.5691 113.223 17.9049C114.252 18.2408 115.616 18.4087 117.254 18.4087H123.929V15.239H118.282C117.002 15.239 116.12 15.197 115.616 15.0921C115.092 14.9871 114.609 14.8192 114.21 14.5673C113.412 14.0635 112.804 13.4127 112.405 12.5941C112.027 11.7964 111.838 10.7888 111.838 9.6133C111.838 7.5981 112.321 6.10771 113.266 5.22607Z" fill="white"/>
    <path d="M64.125 18.4507H79.8687V15.344H67.9664V10.9148H78.3573V7.97595H67.9664V3.86162H79.8687V0.733887H64.125V18.4507Z" fill="white"/>
    <path d="M83.793 0.733887L91.1611 9.59229L83.793 18.4507H88.5581L94.3728 11.4396V7.76603L88.5581 0.733887H83.793Z" fill="white"/>
    <path d="M101.678 0.733887L95.8633 7.76603V11.4396L101.678 18.4507H106.443L99.054 9.59229L106.443 0.733887H101.678Z" fill="white"/>
    <path d="M48.6954 9.46636L41.6212 0.733887H37.9688V18.4507H41.8102V6.6325L47.9397 13.9795H49.43L55.5595 6.56954V18.4507H59.401V0.733887H55.7905L48.6954 9.46636Z" fill="white"/>
    <defs>
        <linearGradient id="paint0_linear_4773_3058" x1="8.08195" y1="9.98817" x2="23.764" y2="15.7832" gradientUnits="userSpaceOnUse">
            <stop stop-color="white" stop-opacity="0"/>
            <stop offset="1" stop-color="#969696"/>
        </linearGradient>
    </defs>
</svg>
