<svg width="107" height="36" viewBox="0 0 107 36" fill="none" xmlns="http://www.w3.org/2000/svg">
<g opacity="0.4">
<path d="M0.430814 0.493164C10.3914 0.493164 20.3519 0.493164 30.3125 0.493164C30.3125 4.93099 30.3125 9.36733 30.3125 13.8052C30.3036 15.0925 30.3646 16.3872 30.1771 17.6671C29.7038 21.4501 27.857 24.9622 25.324 27.7735C23.3239 29.9939 20.9353 31.8526 18.3265 33.3036C17.4752 33.7575 16.6106 34.207 15.6819 34.4808C15.2474 34.6445 14.8143 34.39 14.4066 34.2576C12.451 33.4554 10.6488 32.3184 8.97014 31.043C5.74371 28.5756 2.9935 25.3507 1.53953 21.523C0.787983 19.5452 0.399562 17.4245 0.429326 15.3068C0.432302 10.3689 0.430814 5.43103 0.430814 0.493164ZM0.99782 1.06017C0.99782 5.60813 0.99782 10.1561 0.99782 14.7025C0.954662 16.353 1.09455 18.0138 1.52464 19.6106C2.58871 23.7136 5.24367 27.2496 8.47456 29.9224C10.2961 31.4151 12.2859 32.7292 14.4527 33.6667C14.8694 33.823 15.3263 34.082 15.7712 33.8632C17.5928 33.189 19.2596 32.1518 20.8386 31.0311C24.2704 28.5503 27.217 25.2271 28.7127 21.2224C29.424 19.3338 29.7648 17.3143 29.7604 15.2978C29.7619 10.5519 29.7604 5.80606 29.7604 1.06166C20.1733 1.06166 10.5863 1.06166 0.99782 1.06017Z" fill="black"/>
<path d="M12.4347 3.22997C12.5686 3.12431 12.6996 3.01269 12.8484 2.92489C13.0984 2.89661 13.2844 3.11389 13.4928 3.21807C13.7175 3.09306 13.9407 2.95614 14.1937 2.89215C14.414 2.94721 14.4988 3.18235 14.6357 3.33861C14.8872 3.30885 15.1387 3.29248 15.3917 3.29099C15.3947 3.41451 15.4007 3.66304 15.4036 3.78656C15.7013 3.81484 16.0852 3.69132 16.2891 3.98003C16.3219 4.15117 16.3487 4.3238 16.3695 4.49792C16.5451 4.51876 16.7207 4.54406 16.8948 4.5768C16.9157 4.75538 16.9291 4.93397 16.935 5.11404C17.0243 5.15125 17.2029 5.22566 17.2922 5.26137C17.2713 5.42954 17.2505 5.59622 17.2297 5.7629C17.4812 5.9519 17.6583 6.20341 17.6642 6.53379C16.6344 5.70783 16.0064 4.43244 14.8084 3.81186C13.6952 3.26123 12.399 3.48892 11.2873 3.92199C11.3944 3.58417 11.5031 3.1258 11.9198 3.06032C12.0939 3.10943 12.265 3.16598 12.4347 3.22997Z" fill="black"/>
<path d="M22.8655 3.46065C23.2048 3.30587 23.5188 3.09008 23.876 2.97549C24.3046 2.90108 24.7034 3.13175 25.1008 3.25825C25.1023 4.40417 25.0993 5.55157 25.1023 6.69749C24.3805 6.93709 23.6379 7.12758 22.87 7.08145C22.8685 5.87452 22.8759 4.66758 22.8655 3.46065Z" fill="black"/>
<path d="M3.19292 3.45916C3.53372 3.30438 3.85071 3.09901 4.20342 2.97251C4.63797 2.90108 5.0383 3.13473 5.44011 3.25825C5.4416 4.40417 5.44011 5.55009 5.4416 6.696C4.71536 6.93709 3.96977 7.12609 3.19888 7.08294C3.19441 5.87451 3.20334 4.66758 3.19292 3.45916Z" fill="black"/>
<path d="M5.65441 3.25081C6.05028 3.12729 6.44763 2.8981 6.87623 2.974C7.23042 3.10199 7.5489 3.30885 7.89268 3.46213C7.88077 4.66907 7.8897 5.87452 7.88821 7.08145C7.11881 7.12758 6.37471 6.94156 5.65293 6.70047C5.65441 5.55158 5.65144 4.40119 5.65441 3.25081Z" fill="black"/>
<path d="M25.3196 3.25974C25.7124 3.12877 26.1053 2.90406 26.5324 2.97251C26.8881 3.09455 27.2066 3.3029 27.5474 3.45916C27.5385 4.66609 27.5459 5.87451 27.5429 7.08294C26.778 7.12461 26.0384 6.94156 25.321 6.69898C25.321 5.55306 25.3225 4.40565 25.3196 3.25974Z" fill="black"/>
<path d="M2.53662 3.46064C2.64824 3.45916 2.87147 3.45469 2.98457 3.4532C2.9816 4.77919 2.98309 6.10518 2.98309 7.43118C3.68552 7.43118 4.38795 7.42522 5.09038 7.43564C5.23623 7.54279 5.38059 7.65292 5.54429 7.73031C5.69757 7.64101 5.84342 7.54279 5.9848 7.43713C6.69021 7.42522 7.3971 7.43266 8.104 7.43118C8.10251 6.10518 8.104 4.77919 8.10251 3.4532C8.21413 3.45469 8.43587 3.45767 8.54749 3.45916C8.54897 3.59161 8.55195 3.85502 8.55493 3.98598C8.66357 4.09611 8.77369 4.20475 8.88382 4.31488C8.77369 4.44733 8.66208 4.57829 8.55046 4.71074C8.54897 5.36406 8.54897 6.01887 8.55195 6.67368C8.66208 6.78529 8.77369 6.89691 8.88382 7.01002C8.77369 7.13949 8.66357 7.26896 8.55195 7.39843C8.55046 7.51898 8.54897 7.76007 8.54749 7.88061C6.55776 7.88061 4.56802 7.8821 2.57829 7.88061C2.56044 7.53981 2.41013 7.24217 2.21666 6.96983C2.32083 6.87012 2.42501 6.7719 2.52769 6.67219C2.53514 6.02185 2.53365 5.3715 2.53067 4.72115C2.41757 4.58573 2.30446 4.4503 2.19285 4.31488C2.30298 4.20475 2.4131 4.09462 2.52323 3.98598C2.52621 3.85502 2.53365 3.59161 2.53662 3.46064Z" fill="black"/>
<path d="M22.2077 3.46362C22.3179 3.46065 22.5366 3.45469 22.6467 3.45172C22.6467 4.77771 22.6467 6.1037 22.6467 7.42969C23.3522 7.43118 24.0576 7.4282 24.763 7.43415C24.9371 7.5547 25.1172 7.66631 25.3017 7.77198C25.3984 7.65887 25.4967 7.54428 25.5949 7.43118C26.3167 7.42969 27.0384 7.43118 27.7587 7.43118C27.7587 6.10519 27.7602 4.77771 27.7587 3.45172C27.8703 3.45469 28.0936 3.45916 28.2052 3.46065C28.2097 3.59161 28.2156 3.85353 28.2186 3.98449C28.3287 4.09313 28.4388 4.20326 28.5505 4.31339C28.4374 4.4503 28.3257 4.58573 28.2126 4.72264C28.2082 5.3715 28.2067 6.02185 28.2156 6.6707C28.3257 6.78083 28.4374 6.89096 28.549 7.00257C28.4388 7.13651 28.3287 7.27045 28.2171 7.4029C28.2141 7.52196 28.2082 7.76156 28.2052 7.88061C26.2036 7.88061 24.2019 7.8821 22.2003 7.88061C22.1988 7.75561 22.1973 7.5041 22.1958 7.37909C22.0842 7.27194 21.9726 7.16479 21.8625 7.05912C21.9711 6.92072 22.0827 6.78381 22.1958 6.64838C22.2003 6.01143 22.2033 5.37597 22.1928 4.7405C22.0946 4.6021 21.9904 4.46518 21.9101 4.31488C21.9964 4.19135 22.0887 4.07081 22.1854 3.95473C22.1899 3.8327 22.2018 3.58714 22.2077 3.46362Z" fill="black"/>
<path d="M9.82288 6.0784C9.95086 5.14827 10.4182 4.29404 10.9941 3.56482C11.2575 4.06634 11.6296 4.57977 11.6028 5.1691C11.4346 5.44145 11.2233 5.68254 11.0551 5.95339C11.506 5.79266 11.8275 5.22268 12.3543 5.35959C12.7279 5.49353 12.8916 5.89386 13.1252 6.18406C12.8305 6.40134 12.5359 6.6201 12.2487 6.84631C12.4555 6.92667 12.6639 7.00257 12.8737 7.07996C12.4481 7.78239 11.7159 8.32261 10.8914 8.42381C10.6101 8.49376 10.3943 8.2869 10.1756 8.15147C10.8259 8.10087 11.6013 7.94312 11.9064 7.28682C11.2932 7.66929 10.5015 8.20802 9.79163 7.71691C9.91515 7.38355 10.1027 7.08145 10.2351 6.75404C10.0893 6.54272 9.76335 6.37455 9.82288 6.0784ZM10.6816 6.38497C10.6786 6.64243 10.6816 6.8984 10.689 7.15586C10.9688 7.0115 11.2352 6.84036 11.4867 6.65284C11.2635 6.44598 10.9881 6.32842 10.6816 6.38497Z" fill="black"/>
<path d="M11.5358 4.06783C12.4049 3.7062 13.3946 3.53208 14.3098 3.82972C15.0896 4.05146 15.6537 4.67204 16.1716 5.2584C16.81 6.00994 17.4752 6.75553 18.2923 7.31807C18.7387 7.62613 19.3786 7.75114 19.8504 7.42969C20.2998 7.14544 20.2701 6.35372 19.7566 6.15579C19.3578 5.98464 19.0438 6.36711 18.7506 6.56802C18.7715 6.27484 18.6926 5.94892 18.8667 5.68998C19.0483 5.40871 19.398 5.34025 19.6882 5.22119C19.7388 4.84914 19.7194 4.43542 19.9531 4.11843C20.1361 3.83716 20.4948 3.80442 20.7835 3.69876C20.6868 4.13927 20.5439 4.59168 20.6272 5.04856C20.7374 5.72421 21.0678 6.39836 20.8802 7.09336C20.6213 8.10236 19.4784 8.64555 18.4976 8.52054C16.9633 8.38363 15.7444 7.33891 14.3411 6.8225C13.7815 6.59183 13.1788 6.71982 12.6118 6.83738C12.8692 6.62606 13.1356 6.42366 13.402 6.22424C13.2115 5.96529 13.027 5.70337 12.8499 5.43698C12.9913 5.35067 13.1356 5.27179 13.2844 5.20036C13.5389 5.27626 13.7622 5.44591 14.0315 5.4727C14.2667 5.42954 14.4899 5.33876 14.7191 5.26881C14.92 5.4474 15.0539 5.67658 15.1477 5.9266C15.3337 5.94148 15.5182 5.96529 15.7028 5.99655C15.9022 6.14537 15.8903 6.42217 15.9662 6.63648C16.1388 6.6335 16.31 6.63052 16.4811 6.62755C16.5362 6.84929 16.5868 7.07252 16.6344 7.29724C16.7698 7.36867 16.9052 7.44011 17.0422 7.51303C17.1329 7.68268 17.2297 7.84936 17.3294 8.01306C17.374 7.61125 17.1761 7.31063 16.8279 7.13949C16.7713 6.75404 16.5883 6.4311 16.1716 6.3805C16.0302 5.98018 15.7162 5.7376 15.292 5.71528C15.1611 5.49353 15.0509 5.22417 14.7846 5.13636C14.5152 5.11999 14.2652 5.245 14.0032 5.28221C13.7517 5.21524 13.53 5.07088 13.2785 5.00391C13.082 5.05749 12.9154 5.17952 12.7427 5.2837C12.4436 5.20036 12.1385 5.14529 11.829 5.12297C11.765 4.76283 11.6549 4.4131 11.5358 4.06783Z" fill="black"/>
<path d="M1.41005 10.1144C10.7173 10.1144 20.026 10.1159 29.3333 10.1144C29.3333 11.8928 29.3318 13.6712 29.3333 15.4481C29.3511 17.8561 28.7796 20.2521 27.7498 22.4248C23.629 18.4365 19.4962 14.4585 15.3724 10.4731C11.2471 14.457 7.11434 18.435 2.99499 22.4263C2.02766 20.389 1.46809 18.1552 1.41452 15.8976C1.40559 13.9704 1.41303 12.0431 1.41005 10.1144Z" fill="black"/>
<path d="M14.6953 13.4688C16.0555 13.0343 17.6121 14.0343 17.7952 15.4467C18.0556 16.8218 16.9231 18.2236 15.5301 18.2847C14.2399 18.3948 13.0047 17.3277 12.9273 16.0345C12.8112 14.9005 13.597 13.765 14.6953 13.4688Z" fill="black"/>
<path d="M8.13674 19.5467C9.62941 19.1493 11.2248 20.4604 11.1414 21.9977C11.1518 23.5068 9.55798 24.7435 8.09954 24.3268C6.77652 24.0381 5.90741 22.5275 6.33453 21.2373C6.57561 20.4054 7.29293 19.7371 8.13674 19.5467Z" fill="black"/>
<path d="M21.3922 19.5779C22.7435 19.1478 24.2867 20.1449 24.4802 21.5408C24.7377 22.8594 23.7123 24.2285 22.3818 24.3789C21.0931 24.5827 19.7819 23.5812 19.6287 22.2879C19.4382 21.1093 20.2388 19.8815 21.3922 19.5779Z" fill="black"/>
<path d="M7.45068 28.4491C10.0937 25.6483 12.7293 22.8371 15.3724 20.0363C18.014 22.8386 20.6481 25.6483 23.2926 28.4476C21.099 30.5147 18.575 32.2783 15.7742 33.4167C15.3248 33.6712 14.8619 33.3617 14.4378 33.2024C11.8558 32.0401 9.5044 30.3927 7.45068 28.4491Z" fill="black"/>
<path fill-rule="evenodd" clip-rule="evenodd" d="M33.4972 1.36822C35.4408 1.36599 37.3835 1.36627 39.326 1.36655C39.9731 1.36664 40.6201 1.36673 41.2671 1.36673L41.3548 1.36615C43.3684 1.35282 45.4148 1.33927 47.3643 1.90844C49.424 2.47396 51.3959 3.69429 52.4629 5.59175C53.844 8.01157 53.6148 11.4151 51.5581 13.3914C50.4315 14.4853 48.9165 15.0791 47.4 15.3856C44.9594 15.8767 42.4488 15.7056 39.9932 15.4303C39.9915 16.7647 39.9918 18.0996 39.992 19.4347V19.4365C39.9922 20.4385 39.9924 21.4406 39.9918 22.4427L39.9933 22.5924C40.0025 23.4773 40.0117 24.3751 40.2596 25.2316C40.4084 25.7525 40.6912 26.2644 41.1659 26.5546C41.6611 26.8747 42.2606 26.9169 42.8361 26.9575L42.8365 26.9575C42.8871 26.9611 42.9374 26.9646 42.9875 26.9683C42.9845 27.2303 42.983 27.4907 42.983 27.7541C41.6276 27.7535 40.2723 27.7536 38.9172 27.7538H38.9165C37.1102 27.7541 35.304 27.7543 33.4972 27.7526C33.4972 27.6215 33.4968 27.4903 33.4965 27.3594C33.4961 27.2288 33.4957 27.0984 33.4957 26.9683C34.2964 26.9415 35.2146 26.8314 35.7414 26.1498C36.3739 25.3075 36.4543 24.2018 36.4766 23.1853C36.4766 21.2656 36.4769 19.3459 36.4773 17.4261C36.4779 13.5863 36.4786 9.74638 36.4766 5.90576C36.4468 4.89527 36.3873 3.78953 35.7459 2.95614C35.2101 2.28347 34.2934 2.19269 33.4957 2.14953C33.4957 2.01931 33.4961 1.88909 33.4965 1.75888C33.4969 1.62866 33.4972 1.49844 33.4972 1.36822ZM39.9916 7.12676V7.13274C39.9911 9.49599 39.9906 11.8589 39.9932 14.2219C40.648 14.4228 41.3163 14.5999 42.0023 14.6371C43.6051 14.7353 45.2898 14.6668 46.7512 13.9317C48.0147 13.323 49.0043 12.1696 49.3808 10.8153C49.9211 8.89408 49.5922 6.74511 48.543 5.05302C47.6798 3.65262 46.1559 2.72695 44.5367 2.49926C43.5637 2.37041 42.5826 2.38445 41.6018 2.39849C41.0645 2.40617 40.5274 2.41386 39.9918 2.39806C39.9923 3.9745 39.992 5.5507 39.9916 7.12676Z" fill="black"/>
<path fill-rule="evenodd" clip-rule="evenodd" d="M57.3517 11.1249C59.4352 10.7171 61.6809 11.2291 63.3536 12.5476C64.9683 13.7695 66.0056 15.7607 65.8925 17.8055C63.0455 17.8087 60.1985 17.8081 57.3515 17.8074C56.2131 17.8072 55.0747 17.807 53.9362 17.807C53.8842 20.1628 54.3262 22.6615 55.8099 24.5604C57.1508 26.3076 59.4724 27.3151 61.66 26.8433C63.4113 26.511 64.6543 25.1598 65.8186 23.8943C65.9316 23.7714 66.044 23.6494 66.1559 23.5291C66.1544 23.9354 66.1559 24.3432 66.1589 24.7494C65.0145 26.2436 63.5084 27.5845 61.6273 28.0131C58.956 28.6128 55.9721 28.1247 53.78 26.4341C52.2457 25.2584 51.1905 23.5053 50.8214 21.6123C50.3675 19.2222 50.8006 16.6372 52.1683 14.6058C53.3425 12.8185 55.2414 11.5104 57.3517 11.1249ZM55.6105 12.9733C54.469 13.9808 54.0285 15.5345 53.9154 17.0033C56.8765 17.0108 59.8361 17.0078 62.7972 17.0048H62.7985C62.803 15.8172 62.5872 14.5701 61.8386 13.6132C60.4308 11.7187 57.371 11.3973 55.6105 12.9733Z" fill="black"/>
<path d="M68.3478 11.2865C67.6606 11.362 66.9736 11.4375 66.2854 11.4939C66.2854 11.6214 66.285 11.7497 66.2846 11.8782V11.8834V11.8864C66.2842 12.016 66.2839 12.1458 66.2839 12.2752C66.4022 12.2825 66.5227 12.2873 66.6442 12.2921C67.2612 12.3165 67.9047 12.342 68.4194 12.7112C68.9289 13.1327 68.9593 13.8478 68.9856 14.4642C68.9868 14.4943 68.9881 14.5241 68.9894 14.5536C68.9889 15.7936 68.9894 17.0333 68.9899 18.273V18.2747C68.9908 20.2572 68.9916 22.2396 68.9879 24.2225C68.982 24.3194 68.9773 24.4178 68.9725 24.5171C68.9402 25.1894 68.906 25.9016 68.482 26.4489C68.0135 26.9283 67.3237 26.9365 66.681 26.9442C66.5457 26.9458 66.4125 26.9474 66.2839 26.9533C66.2839 27.2128 66.2853 27.4723 66.2868 27.7332V27.7478L66.2868 27.754C67.2407 27.754 68.1946 27.7538 69.1486 27.7537H69.1557C71.0614 27.7533 72.9673 27.753 74.8738 27.754C74.8738 27.4891 74.8753 27.2242 74.8783 26.9608C74.78 26.9551 74.6794 26.9509 74.5775 26.9467C73.8803 26.9176 73.1219 26.886 72.6207 26.3536C72.1654 25.7709 72.1483 25.01 72.1322 24.2911V24.2909C72.1295 24.1709 72.1268 24.052 72.1221 23.9353C72.1277 22.9297 72.1242 21.9236 72.1207 20.9173V20.913C72.115 19.2488 72.1092 17.5842 72.1444 15.9213C72.8111 14.8647 73.7264 13.9256 74.7919 13.2619C76.356 12.2796 78.6806 12.6145 79.7477 14.1712C80.1837 14.7977 80.3742 15.5701 80.3757 16.3276C80.3763 17.4805 80.3759 18.6334 80.3756 19.7864C80.375 21.5161 80.3745 23.2458 80.3772 24.9755C80.3787 25.5172 80.2968 26.1423 79.8325 26.492C79.268 26.8978 78.5536 26.9228 77.8768 26.9465C77.7792 26.9499 77.6823 26.9533 77.5868 26.9578L77.5913 27.754C81.4057 27.753 85.2195 27.7533 89.0335 27.7537H89.0521C90.9623 27.7538 92.8726 27.754 94.783 27.754C94.7815 27.4876 94.783 27.2242 94.786 26.9593C94.6998 26.9549 94.6119 26.9515 94.523 26.948C93.8251 26.9209 93.0649 26.8913 92.5448 26.3804C92.0783 25.8232 92.0587 25.0601 92.0409 24.3632C92.0397 24.3175 92.0386 24.272 92.0373 24.227C92.0373 23.4312 92.0375 22.6353 92.0378 21.8392C92.0384 19.8471 92.039 17.8544 92.0358 15.8618C92.9302 14.701 93.9332 13.5119 95.3292 12.9538C96.6983 12.424 98.4053 12.7484 99.4009 13.8542C100.014 14.5253 100.279 15.4495 100.282 16.3439C100.282 17.0631 100.282 17.7823 100.282 18.5015C100.281 20.659 100.281 22.8165 100.283 24.974C100.285 25.5381 100.187 26.1959 99.6792 26.5337C99.1023 26.9055 98.3971 26.9279 97.7258 26.9492H97.7257L97.6057 26.9531C97.5625 26.9546 97.5194 26.9561 97.4767 26.9578C97.4767 27.2212 97.4767 27.4876 97.4781 27.7525C98.9284 27.7533 100.379 27.7533 101.829 27.7533C103.28 27.7533 104.73 27.7533 106.181 27.754V27.7528C106.18 27.4883 106.178 27.2238 106.181 26.9593C106.107 26.9556 106.032 26.9525 105.955 26.9494C105.229 26.9195 104.423 26.8864 103.906 26.3194C103.44 25.734 103.435 24.9588 103.43 24.2362C103.429 24.1321 103.429 24.029 103.427 23.9278C103.427 23.3194 103.428 22.7109 103.428 22.1024V22.0987C103.431 20.2752 103.433 18.4517 103.425 16.6282C103.406 15.0194 102.788 13.372 101.544 12.3139C100.06 11.0117 97.8695 10.6649 96.0182 11.2959C94.4243 11.8332 93.1415 12.991 92.0373 14.2232C92.0383 13.5049 92.0379 12.7872 92.0376 12.0697V12.069C92.0374 11.7106 92.0373 11.3522 92.0373 10.9938C90.7568 11.0084 89.484 11.149 88.2108 11.2896C87.5323 11.3645 86.8536 11.4395 86.1737 11.4954C86.1737 11.5816 86.1736 11.6679 86.1734 11.7542C86.1731 11.927 86.1728 12.1 86.1737 12.2737C86.2962 12.2815 86.4207 12.2866 86.546 12.2917L86.5461 12.2917C87.1334 12.3155 87.7393 12.34 88.2483 12.6577C88.8034 13.0357 88.8629 13.7768 88.8748 14.3914C88.8748 15.3415 88.8751 16.2917 88.8753 17.242V17.2481C88.8759 19.6227 88.8765 21.9977 88.8733 24.3728C88.8725 24.3929 88.8717 24.4131 88.8709 24.4333L88.8687 24.4912C88.8446 25.1184 88.8189 25.7853 88.476 26.3298C88.0898 26.8932 87.3451 26.9223 86.7241 26.9465L86.6634 26.9489C86.5772 26.9483 86.4901 26.9483 86.4023 26.9484H86.4019C85.6469 26.9491 84.8447 26.9498 84.2048 26.5099C83.6497 26.0872 83.559 25.3282 83.5456 24.6779C83.5422 23.3112 83.5431 21.9441 83.544 20.5767V20.5737C83.5447 19.5091 83.5454 18.4444 83.5441 17.3797C83.5247 16.457 83.4965 15.515 83.1839 14.6355C82.8059 13.4985 82.038 12.4939 81.0246 11.8525C79.5825 10.9269 77.7163 10.7513 76.1045 11.3004C74.5092 11.8436 73.2234 13.0029 72.1176 14.2396C72.1221 13.427 72.1215 12.6143 72.121 11.8017C72.1208 11.5309 72.1206 11.2601 72.1206 10.9894C70.858 11.0105 69.6028 11.1485 68.3478 11.2865Z" fill="black"/>
<path d="M69.0376 30.0657C69.0975 30.0669 69.1569 30.068 69.2156 30.068C69.1874 30.2317 69.1606 30.3969 69.1338 30.5636C69.0725 30.5318 69.0117 30.4921 68.9504 30.4519C68.7642 30.3301 68.5726 30.2047 68.3465 30.2898C68.0832 30.4394 67.9867 30.7252 67.8935 31.0011C67.8634 31.0901 67.8337 31.1781 67.7989 31.2601C68.0787 31.2675 68.3599 31.2764 68.6397 31.2854C68.6085 31.3329 68.5432 31.425 68.5104 31.4712L68.5102 31.4714C68.4242 31.4909 68.3296 31.4922 68.2349 31.4936C68.0691 31.496 67.9026 31.4985 67.7795 31.5979C67.6533 32.0329 67.55 32.4749 67.4467 32.9171L67.446 32.9199C67.301 33.5402 67.156 34.1609 66.9476 34.7633C66.9127 34.9129 66.8039 35.0158 66.6969 35.1169C66.6623 35.1495 66.628 35.1819 66.5964 35.2157C66.6812 34.4468 66.8431 33.6899 67.005 32.9334L67.0053 32.9323L67.0053 32.9321C67.1047 32.4678 67.204 32.0036 67.2854 31.5369L67.2844 31.5367C67.1368 31.5068 66.8431 31.4475 66.6946 31.4193C66.897 31.3449 67.1054 31.2794 67.3122 31.2169C67.3289 31.1851 67.3455 31.153 67.3622 31.1206C67.5427 30.7714 67.7348 30.3997 68.104 30.2213C68.3861 30.0532 68.717 30.0596 69.0376 30.0657Z" fill="black"/>
<path d="M34.9988 30.2482C34.4556 30.2169 33.9095 30.2155 33.3678 30.2646C33.403 30.2795 33.4383 30.2944 33.4737 30.3094L33.4742 30.3096C33.6223 30.3724 33.7713 30.4355 33.9214 30.4967C33.94 30.8348 33.9351 31.174 33.9302 31.5132C33.9229 32.0133 33.9156 32.5132 33.9839 33.0088C34.1952 34.2634 36.2757 34.2857 36.6641 33.1323C36.8086 32.677 36.7976 32.2033 36.7865 31.7284C36.778 31.362 36.7694 30.9949 36.8323 30.6351C36.9261 30.5153 37.0504 30.4262 37.1748 30.337C37.2281 30.2988 37.2814 30.2605 37.3323 30.2199C36.877 30.2274 36.423 30.2274 35.9706 30.2199C36.0231 30.266 36.0793 30.3086 36.1358 30.3514C36.2508 30.4386 36.3665 30.5263 36.4513 30.6441C36.4983 30.9921 36.4947 31.344 36.4912 31.6958C36.4897 31.8345 36.4883 31.9731 36.49 32.1114C36.4878 32.1732 36.4868 32.2362 36.4858 32.2998C36.4801 32.6608 36.4741 33.0422 36.24 33.3332C35.8174 33.8943 34.7101 33.8288 34.5315 33.0817C34.4278 32.5129 34.4424 31.9333 34.4571 31.3547C34.4643 31.0705 34.4714 30.7865 34.4646 30.5042C34.5033 30.4858 34.542 30.4675 34.5806 30.4492L34.5813 30.4489L34.5825 30.4483L34.5841 30.4475L34.5846 30.4473L34.5847 30.4473C34.7232 30.3817 34.8615 30.3163 34.9988 30.2482Z" fill="black"/>
<path d="M70.6741 30.284C71.3884 30.2141 72.1295 30.1516 72.8349 30.3212C73.5582 30.5013 73.6668 31.5371 73.1356 31.9835C72.8129 32.2926 72.3571 32.3152 71.9342 32.3361C71.8948 32.3381 71.8557 32.34 71.817 32.3422C71.9173 32.2921 72.0317 32.2543 72.1478 32.216C72.4381 32.1202 72.7382 32.0212 72.8498 31.7171C72.9793 31.3257 72.9882 30.7811 72.6028 30.5296C72.4133 30.4402 72.2049 30.4238 71.9981 30.4076L71.9979 30.4076C71.9156 30.4012 71.8335 30.3947 71.753 30.3837C71.7564 30.7345 71.7539 31.0855 71.7514 31.4365C71.7461 32.1754 71.7408 32.9143 71.7902 33.6518C71.9271 33.6994 72.201 33.7947 72.3364 33.8408C71.7798 33.8988 71.2202 33.8914 70.6622 33.8691C70.8497 33.7887 71.0387 33.7113 71.2292 33.6369C71.2545 32.5848 71.2604 31.5311 71.2262 30.4804C71.1811 30.4644 71.1214 30.4432 71.0566 30.4202L70.9501 30.3822C70.8467 30.3454 70.7433 30.3086 70.6741 30.284Z" fill="black"/>
<path d="M58.7476 31.0549H56.5228C56.4766 31.287 56.4305 31.5192 56.3873 31.7543C56.6284 31.3971 56.9722 31.1561 57.4142 31.1352C57.427 31.6554 57.4263 32.1762 57.4256 32.6968C57.4252 33.0222 57.4247 33.3475 57.4276 33.6726C57.3145 33.7262 57.0868 33.8318 56.9722 33.8839C57.0831 33.8836 57.1942 33.8834 57.3053 33.8832H57.3087C57.6405 33.8826 57.9727 33.8821 58.3041 33.8765C58.1881 33.8274 57.9574 33.7277 57.8413 33.6771C57.8435 33.3601 57.8433 33.0429 57.843 32.7256V32.7254C57.8425 32.1967 57.8421 31.6679 57.8532 31.1397C58.2893 31.1665 58.6449 31.3837 58.8786 31.7543C58.8452 31.5844 58.8143 31.4161 58.7833 31.2482L58.7833 31.248L58.7833 31.2478L58.7832 31.2473L58.7831 31.247L58.7631 31.1382C58.7579 31.1104 58.7528 31.0826 58.7476 31.0549Z" fill="black"/>
<path d="M75.6223 31.0543C75.7424 31.0545 75.8624 31.0546 75.9825 31.0546C75.9795 31.3017 75.9795 31.5487 75.981 31.7957C75.8739 31.6082 75.7593 31.4267 75.6373 31.2511C75.4036 31.2094 75.1685 31.1781 74.9333 31.1603C74.9259 31.5591 74.9259 31.9594 74.9274 32.3598C74.9955 32.3542 75.0948 32.3464 75.1959 32.3384C75.3114 32.3293 75.4294 32.32 75.5063 32.3136L75.5066 32.313L75.5079 32.3104C75.5758 32.1716 75.6437 32.0328 75.7132 31.8954C75.7206 32.2467 75.7251 32.5979 75.7251 32.9491C75.6587 32.8312 75.5944 32.7123 75.5305 32.594L75.4899 32.519L75.4536 32.5165L75.4531 32.5164C75.275 32.5039 75.0982 32.4914 74.9214 32.4803C74.9332 32.6134 74.9277 32.752 74.9222 32.8914C74.911 33.1761 74.8997 33.4638 75.0345 33.7125C75.2905 33.7468 75.5524 33.7512 75.8114 33.717C75.9525 33.5894 76.0531 33.4291 76.1536 33.2691C76.1972 33.1997 76.2408 33.1303 76.2876 33.0637C76.2474 33.336 76.2087 33.6099 76.17 33.8837C75.7495 33.8774 75.3295 33.8792 74.9094 33.881C74.6293 33.8822 74.3491 33.8834 74.0687 33.8822C74.2145 33.8093 74.3619 33.7393 74.5107 33.6694C74.5077 32.8762 74.5077 32.083 74.5107 31.2897C74.4359 31.252 74.3615 31.2146 74.2875 31.1774C74.2127 31.1398 74.1383 31.1024 74.0642 31.065C74.5827 31.0529 75.1021 31.0536 75.6217 31.0543H75.6223Z" fill="black"/>
<path d="M85.568 31.0402C85.2187 31.0162 84.8523 30.991 84.5695 31.2231C84.2644 31.4344 84.254 31.9196 84.5248 32.1636C84.647 32.2828 84.785 32.3853 84.9232 32.4878L84.9235 32.4881C85.1286 32.6404 85.3339 32.7929 85.4877 33C85.7184 33.3244 85.4341 33.8423 85.0308 33.7888C84.7156 33.7968 84.5569 33.5381 84.4083 33.2958C84.3647 33.2246 84.3219 33.1549 84.2763 33.0938C84.2867 33.3408 84.2971 33.5893 84.3075 33.8379L84.3334 33.8428C84.3544 33.8468 84.3755 33.8509 84.3967 33.855C84.8122 33.9355 85.2651 34.0233 85.6454 33.7873C86.016 33.6012 86.1142 33.0774 85.8761 32.7515C85.7256 32.5579 85.5328 32.4077 85.3401 32.2576C85.1403 32.1019 84.9405 31.9463 84.7882 31.7425C84.6677 31.4835 84.8641 31.1353 85.1677 31.1725C85.4175 31.1342 85.5421 31.3382 85.6611 31.5332C85.7088 31.6112 85.7556 31.6878 85.8091 31.7469C85.8062 31.5163 85.8047 31.2841 85.8062 31.0534C85.7285 31.0512 85.6487 31.0457 85.568 31.0402Z" fill="black"/>
<path d="M37.505 31.0624L37.5087 31.0623C37.7843 31.0578 38.0598 31.0534 38.3354 31.0504C38.953 31.7856 39.5676 32.5208 40.1733 33.2649C40.1735 33.173 40.1739 33.0812 40.1742 32.9893V32.9875C40.1762 32.4323 40.1782 31.8765 40.154 31.3228C40.0177 31.2575 39.8805 31.193 39.7438 31.1287C39.6999 31.1081 39.656 31.0874 39.6123 31.0668C39.7397 31.0638 39.8672 31.0612 39.9948 31.0585C40.2489 31.0532 40.5031 31.048 40.7567 31.04C40.7143 31.0919 40.659 31.1373 40.6034 31.1829C40.4932 31.2734 40.3816 31.3649 40.3668 31.5103C40.3283 31.9453 40.3333 32.3816 40.3384 32.8179C40.3429 33.2087 40.3474 33.5995 40.3207 33.9897C39.8871 33.5366 39.4868 33.0544 39.0864 32.5722C38.8148 32.245 38.5431 31.9178 38.261 31.5996C38.2607 31.6628 38.2604 31.7261 38.2601 31.7893L38.2601 31.794C38.2571 32.411 38.2542 33.0291 38.2744 33.6459C38.4559 33.7203 38.639 33.7962 38.822 33.8736C38.551 33.8795 38.2813 33.8828 38.0117 33.8861C37.877 33.8878 37.7424 33.8895 37.6077 33.8914C37.758 33.8021 37.9083 33.7158 38.0586 33.6295C38.0735 32.8765 38.0735 32.1249 38.0601 31.3719C37.9515 31.312 37.8435 31.2515 37.7356 31.1912L37.7353 31.191L37.7351 31.1909L37.721 31.183L37.7193 31.182L37.7188 31.1818C37.6475 31.1419 37.5762 31.102 37.505 31.0624Z" fill="black"/>
<path d="M41.9342 31.0564L41.9248 31.0566C41.7552 31.0589 41.5856 31.0613 41.416 31.065C41.4747 31.094 41.5621 31.1382 41.6495 31.1825C41.7369 31.2268 41.8245 31.2711 41.8833 31.3001C41.8848 32.0889 41.8848 32.8761 41.8833 33.6634C41.7285 33.7363 41.5737 33.8107 41.4205 33.8851C41.6364 33.8844 41.8524 33.884 42.0686 33.8836H42.0697C42.2851 33.8833 42.5007 33.8829 42.7167 33.8821C42.608 33.8286 42.3893 33.7199 42.2806 33.6649C42.2849 33.3917 42.2807 33.1183 42.2765 32.845C42.2688 32.3471 42.2612 31.8495 42.3044 31.3537C42.3937 31.2763 42.5723 31.12 42.6601 31.0426C42.4191 31.0496 42.1775 31.053 41.9357 31.0564H41.9342Z" fill="black"/>
<path d="M44.1365 31.0575L44.138 31.0575L44.2842 31.059C44.3396 31.0595 44.395 31.0601 44.4504 31.0607C44.382 31.1008 44.2724 31.1666 44.1723 31.2266L44.1713 31.2272L44.1704 31.2277C44.1079 31.2653 44.0492 31.3005 44.0069 31.3256C44.2197 32.0161 44.4504 32.6992 44.6855 33.3823L44.7427 33.2426L44.7428 33.2424C45.0021 32.6089 45.2616 31.975 45.5055 31.336C45.3927 31.2692 45.1673 31.1327 45.0539 31.0641L45.0531 31.0637C45.1647 31.0612 45.2764 31.0589 45.388 31.0566C45.6112 31.0519 45.8344 31.0473 46.0577 31.0413C45.615 31.4919 45.4025 32.0772 45.1895 32.6639C45.0415 33.0714 44.8934 33.4795 44.6677 33.8436L44.6591 33.8476L44.6425 33.8553L44.5337 33.9052C44.5208 33.9112 44.509 33.9166 44.4995 33.921C44.309 33.5673 44.1902 33.173 44.0716 32.7792C43.8797 32.1422 43.6882 31.5065 43.1944 31.0458C43.5082 31.0514 43.8221 31.0545 44.1365 31.0575Z" fill="black"/>
<path d="M48.0968 31.0552C47.5853 31.0561 47.0745 31.057 46.5637 31.0413L46.566 31.0432L46.5664 31.0435C46.6685 31.1245 46.8682 31.2831 46.9685 31.3613L46.9705 31.4161C46.9982 32.1543 47.0262 32.9005 46.9521 33.6353C46.9052 33.6688 46.8345 33.719 46.7638 33.7692C46.6931 33.8194 46.6225 33.8697 46.5756 33.9032C47.2023 33.8706 47.829 33.8764 48.4568 33.8822H48.4569C48.5179 33.8827 48.5788 33.8833 48.6397 33.8838C48.6508 33.8081 48.6621 33.7324 48.6733 33.6568C48.7026 33.4593 48.7319 33.2623 48.7588 33.0653C48.6906 33.1364 48.6369 33.2331 48.5826 33.3307C48.4711 33.5314 48.3572 33.7365 48.1099 33.7335C47.8867 33.7529 47.6605 33.7365 47.4447 33.6814C47.3943 33.3822 47.3953 33.0787 47.3964 32.7767C47.3967 32.6777 47.3971 32.5789 47.3956 32.4804C47.5831 32.4923 47.7706 32.5057 47.9581 32.5206C47.9926 32.5802 48.0272 32.6404 48.0618 32.7008C48.1093 32.7835 48.157 32.8666 48.2052 32.9492C48.2037 32.595 48.1992 32.2438 48.1873 31.8911C48.1159 32.031 48.0459 32.1709 47.976 32.3123L47.6895 32.3361C47.582 32.345 47.4745 32.3539 47.403 32.3599C47.4 31.9596 47.4 31.5592 47.4075 31.1589C47.6426 31.1783 47.8778 31.211 48.1114 31.2542C48.2014 31.3731 48.2755 31.5028 48.3498 31.6327C48.3825 31.6898 48.4152 31.747 48.4492 31.8033C48.4507 31.5533 48.4537 31.3033 48.4582 31.0547C48.3377 31.0547 48.2172 31.055 48.0968 31.0552Z" fill="black"/>
<path fill-rule="evenodd" clip-rule="evenodd" d="M49.2246 31.0636C49.4175 31.0785 49.6219 31.0675 49.8284 31.0565C50.3007 31.0311 50.7845 31.0052 51.1697 31.2868C51.5923 31.7288 51.2247 32.3419 50.8259 32.65C51.131 33.0935 51.4495 33.5265 51.7828 33.9477C51.5745 33.915 51.3676 33.8703 51.1652 33.8152C51.0387 33.6765 50.9479 33.5003 50.8573 33.3244C50.6934 33.0061 50.5301 32.689 50.1562 32.5979C50.1117 32.8492 50.1102 33.1043 50.1087 33.3594C50.1081 33.4623 50.1075 33.5652 50.1041 33.6679C50.2187 33.72 50.4464 33.8257 50.561 33.8792C50.2665 33.8822 49.9714 33.8825 49.677 33.8829H49.6696C49.523 33.883 49.3766 33.8832 49.2305 33.8837L49.2312 33.8834C49.3489 33.8312 49.5835 33.7274 49.7008 33.6768V33.6708C49.7023 32.8737 49.7038 32.078 49.6993 31.2823C49.5803 31.2273 49.3422 31.1171 49.2246 31.0636ZM50.1205 31.1335C50.1214 31.2739 50.1176 31.4148 50.1139 31.5559C50.1053 31.88 50.0966 32.205 50.1443 32.5265L50.173 32.5245L50.1739 32.5244L50.1743 32.5244C50.4027 32.5087 50.6794 32.4898 50.8333 32.3003C50.9658 31.9996 50.9658 31.6291 50.811 31.3374C50.6473 31.2671 50.4738 31.2235 50.302 31.1804C50.2411 31.1651 50.1804 31.1499 50.1205 31.1335Z" fill="black"/>
<path d="M53.7623 31.0409C53.2644 31.007 52.6069 30.9624 52.3945 31.5191C52.286 32.0041 52.63 32.2495 52.9786 32.4982C53.276 32.7105 53.5768 32.9251 53.6029 33.293C53.6267 33.7067 53.0954 33.93 52.7769 33.7097C52.6353 33.5867 52.5376 33.4285 52.4405 33.2715C52.405 33.2139 52.3695 33.1565 52.332 33.1011C52.3348 33.3359 52.3376 33.5734 52.3405 33.8111L52.3409 33.8437C52.3802 33.8502 52.42 33.8571 52.4602 33.8641L52.4646 33.8648L52.4653 33.865C52.8998 33.9405 53.3774 34.0234 53.7547 33.7425C54.0612 33.5505 54.1118 33.1174 53.96 32.8138C53.8105 32.5888 53.598 32.4254 53.3857 32.2622C53.1626 32.0906 52.9398 31.9193 52.7903 31.6768C52.7591 31.4402 52.9004 31.1634 53.1683 31.1753C53.4387 31.1164 53.5765 31.3268 53.7093 31.5295C53.7578 31.6035 53.8055 31.6764 53.8588 31.7349C53.8499 31.5042 53.8425 31.275 53.8365 31.0458C53.8266 31.0452 53.8166 31.0445 53.8065 31.0439L53.7623 31.0409Z" fill="black"/>
<path d="M54.6283 31.0623C55.0673 31.0549 55.5078 31.0534 55.9483 31.0623C55.8382 31.1204 55.6164 31.2364 55.5048 31.2945C55.5033 32.0847 55.5033 32.8749 55.5048 33.6667C55.6492 33.7351 55.7935 33.8051 55.9394 33.8765C55.5167 33.881 55.0941 33.8854 54.6729 33.9137C54.7696 33.8482 54.9616 33.7188 55.0584 33.6548C55.104 33.1722 55.0965 32.6875 55.089 32.2028C55.0842 31.8968 55.0795 31.5908 55.0881 31.2855C54.9735 31.229 54.7429 31.1174 54.6283 31.0623Z" fill="black"/>
<path d="M60.0972 31.0574C59.8221 31.0549 59.5479 31.0523 59.2729 31.0459C59.9754 31.7066 60.4635 32.677 60.3817 33.6592C60.3237 33.6859 60.2364 33.7264 60.1491 33.7669L60.149 33.767C60.0615 33.8076 59.9739 33.8481 59.9158 33.875C60.2306 33.8813 60.5454 33.8839 60.8602 33.8865C60.9859 33.8875 61.1116 33.8886 61.2374 33.8898C61.1213 33.8363 60.8877 33.7291 60.7701 33.6755C60.6361 32.668 61.2091 31.7736 61.8356 31.0444C61.6226 31.0493 61.4096 31.0529 61.197 31.0566C61.0888 31.0584 60.9807 31.0602 60.8728 31.0623C60.9272 31.0958 61.0084 31.1465 61.0896 31.1971C61.1706 31.2477 61.2516 31.2982 61.3058 31.3316C61.096 31.7319 60.8787 32.1293 60.6585 32.5252C60.5293 32.2589 60.4008 31.9927 60.2725 31.7268L60.272 31.726L60.2671 31.7157L60.2668 31.715L60.2664 31.7144L60.0766 31.3212C60.1205 31.2885 60.1856 31.2397 60.2507 31.191C60.3158 31.1422 60.3809 31.0935 60.4248 31.0608C60.3154 31.0595 60.2062 31.0585 60.0972 31.0574Z" fill="black"/>
<path d="M76.7661 31.062C77.0436 31.0575 77.3212 31.053 77.6002 31.0501C78.2133 31.7793 78.8205 32.513 79.4262 33.2481L79.4267 33.0731V33.0724C79.4281 32.4896 79.4296 31.9068 79.4188 31.3254C79.3202 31.2784 79.2221 31.2319 79.1244 31.1856C79.0361 31.1438 78.9483 31.1021 78.8607 31.0605C79.2685 31.0545 79.6748 31.0545 80.084 31.0605C79.9307 31.1527 79.779 31.245 79.6272 31.3388C79.6187 31.696 79.6196 32.0535 79.6204 32.4111V32.4114C79.6216 32.9387 79.6228 33.4662 79.5944 33.9937C79.1265 33.5145 78.7001 32.9986 78.2737 32.4825L78.2734 32.4822L78.2733 32.482C78.0244 32.1809 77.7755 31.8797 77.5184 31.5858C77.5223 31.8075 77.5181 32.0297 77.514 32.252C77.5056 32.7055 77.4971 33.1594 77.5571 33.6098C77.68 33.6979 77.8138 33.7707 77.9479 33.8436L77.9482 33.8438C77.986 33.8643 78.0239 33.885 78.0616 33.9059C77.6702 33.8866 77.2803 33.8836 76.8903 33.8821C77.0332 33.7973 77.1776 33.714 77.3234 33.6306C77.3547 32.882 77.3502 32.132 77.3338 31.3834C77.142 31.2764 76.9532 31.1693 76.7643 31.0622L76.7639 31.062H76.7661Z" fill="black"/>
<path d="M80.8028 31.0525C80.667 31.0514 80.5316 31.0503 80.3965 31.0488C80.4445 31.0823 80.4938 31.1148 80.5433 31.1474C80.6717 31.232 80.8012 31.3174 80.9129 31.4238C80.9657 31.9788 80.9507 32.5371 80.9356 33.0944V33.0947C80.9308 33.2756 80.9259 33.4563 80.9233 33.6367C80.773 33.7201 80.6227 33.8049 80.4754 33.8897C80.5391 33.889 80.6029 33.8884 80.6668 33.8877L80.6794 33.8876C81.0151 33.8841 81.3519 33.8805 81.6898 33.8719C81.5097 33.796 81.3296 33.7231 81.1496 33.6501C81.1103 33.0662 81.1141 32.4823 81.118 31.8984C81.1183 31.8515 81.1186 31.8046 81.1189 31.7578C81.1192 31.7025 81.1195 31.6472 81.1198 31.5919C81.4072 31.914 81.6832 32.2462 81.9593 32.5785C82.3593 33.06 82.7594 33.5416 83.1943 33.9924C83.2151 33.5896 83.2154 33.1862 83.2156 32.7829C83.2159 32.2907 83.2162 31.7985 83.2539 31.3077C83.367 31.2452 83.5932 31.1217 83.7078 31.0607C83.297 31.0547 82.8878 31.0547 82.4785 31.0636C82.6566 31.1497 82.8377 31.2358 83.0187 31.3219L83.0189 31.3219L83.0202 31.3226C83.0433 31.9108 83.0404 32.5003 83.0374 33.0899V33.0901L83.0366 33.2587C82.4324 32.5191 81.8237 31.7824 81.2046 31.0562C81.0703 31.0547 80.9364 31.0536 80.8028 31.0525Z" fill="black"/>
<path d="M87.3591 31.0572L87.3637 31.0573C87.4918 31.0593 87.62 31.0612 87.7483 31.0637C87.653 31.1172 87.4625 31.2259 87.3673 31.2809C87.5518 31.7021 87.7513 32.1158 87.9551 32.531C88.0068 32.4351 88.0599 32.3398 88.113 32.2444C88.2743 31.9548 88.4359 31.6647 88.5579 31.3568L88.229 31.0458C88.5311 31.0518 88.8347 31.0518 89.1398 31.0503C88.4968 31.7616 87.9313 32.6665 88.0548 33.665C88.1129 33.6918 88.2003 33.732 88.2878 33.7722L88.2954 33.7757C88.3802 33.8147 88.4643 33.8533 88.5207 33.8793C88.1878 33.8827 87.8549 33.8835 87.5232 33.8844H87.522C87.4107 33.8846 87.2996 33.8849 87.1887 33.8853C87.3093 33.8302 87.5489 33.7231 87.6694 33.6695C87.7632 32.6813 87.2646 31.7214 86.5815 31.0413C86.8397 31.0493 87.0992 31.0533 87.3591 31.0572Z" fill="black"/>
<path d="M90.9568 31.0623C90.5223 31.0534 90.0892 31.0549 89.6561 31.0623C89.7112 31.0913 89.7945 31.1349 89.8779 31.1784C89.9612 31.2219 90.0446 31.2655 90.0996 31.2945V33.6682C90.0446 33.6957 89.9621 33.7362 89.8796 33.7767L89.8788 33.7771L89.8769 33.778L89.8757 33.7786L89.8739 33.7795C89.8393 33.7964 89.8049 33.8134 89.7725 33.8293L89.7171 33.8566C89.7041 33.8631 89.6917 33.8692 89.6801 33.875L89.6591 33.8854C89.8784 33.885 90.0979 33.8836 90.3175 33.8823H90.3207C90.7972 33.8793 91.274 33.8764 91.75 33.8825L91.7594 33.8272C91.8024 33.5731 91.8456 33.318 91.8914 33.0654C91.8437 33.1297 91.7985 33.1962 91.7532 33.2628C91.6434 33.4243 91.5334 33.5861 91.3869 33.7158C91.127 33.7461 90.8659 33.7238 90.6078 33.7018C90.5748 33.699 90.5418 33.6962 90.5089 33.6935C90.5057 33.1241 90.5063 32.5539 90.5069 31.9841L90.5072 31.6571C90.5073 31.5377 90.5074 31.4183 90.5074 31.2989C90.5839 31.2592 90.7134 31.1908 90.8238 31.1325C90.8745 31.1057 90.9212 31.0811 90.9568 31.0623Z" fill="black"/>
<path d="M93.1252 31.058C93.207 31.0588 93.2888 31.0596 93.3707 31.0605C93.3163 31.0941 93.2349 31.1445 93.1535 31.1949L93.1503 31.1969L93.0389 31.2658C93.0005 31.2896 92.9656 31.3112 92.9377 31.3284C93.1505 32.0174 93.3826 32.699 93.6193 33.3806L93.7551 33.0467L93.7555 33.0459C93.9876 32.4761 94.2197 31.9061 94.4363 31.3299C94.3429 31.2738 94.2495 31.2184 94.1564 31.1631C94.1012 31.1304 94.0462 31.0977 93.9913 31.065C94.16 31.0605 94.3291 31.0571 94.4984 31.0538C94.6666 31.0504 94.8349 31.0471 95.0033 31.0426C94.5391 31.5006 94.3192 32.1069 94.0988 32.7147L94.0988 32.7148C93.9539 33.1143 93.8088 33.5143 93.594 33.8732C93.5832 33.8739 93.5699 33.8749 93.5553 33.876C93.5443 33.8769 93.5325 33.8778 93.5204 33.8787C93.4826 33.8817 93.4426 33.8849 93.4169 33.8866C93.2322 33.5365 93.1143 33.1497 92.9967 32.7635C92.8053 32.1352 92.6144 31.5086 92.137 31.0441C92.4651 31.0513 92.7932 31.0546 93.122 31.0579L93.1252 31.058Z" fill="black"/>
<path fill-rule="evenodd" clip-rule="evenodd" d="M95.7105 32.2624C95.5123 32.8541 95.3148 33.4437 94.8812 33.9061C95.1595 33.8912 95.4408 33.8808 95.7236 33.8718C95.6164 33.7944 95.5107 33.7171 95.4066 33.6397C95.481 33.4149 95.5569 33.1902 95.6343 32.967C95.6724 32.967 95.7107 32.967 95.7489 32.967C95.7906 32.9671 95.8324 32.9671 95.8741 32.9672C95.9624 32.9674 96.0508 32.9675 96.1393 32.9677H96.1399C96.3092 32.9681 96.4786 32.9685 96.6477 32.9685C96.7221 33.1947 96.7965 33.4194 96.8739 33.6471C96.7906 33.7051 96.6239 33.8212 96.5406 33.8778C96.8754 33.8837 97.2103 33.8912 97.5451 33.9061C97.1702 33.3795 96.9808 32.7681 96.7909 32.1554C96.6566 31.7223 96.5221 31.2885 96.3218 30.8835C96.033 31.2998 95.8715 31.7818 95.7105 32.2624ZM95.7023 32.7899C95.8597 32.3578 96.0171 31.9258 96.1715 31.4937C96.3069 31.9282 96.4468 32.3613 96.5882 32.7944C96.2927 32.7929 95.9972 32.7929 95.7033 32.7929H95.7012L95.7023 32.7899Z" fill="black"/>
<path d="M97.9782 31.0488C98.2431 31.0517 98.508 31.0532 98.7744 31.0547C99.3935 31.7839 100.004 32.5206 100.611 33.2602C100.611 33.2085 100.611 33.1569 100.612 33.1052C100.615 32.511 100.617 31.9168 100.591 31.3226C100.458 31.2586 100.187 31.1291 100.053 31.0636C100.461 31.0547 100.867 31.0547 101.276 31.0592L101.132 31.141L101.132 31.1414C101.021 31.2047 100.892 31.2779 100.815 31.3226C100.806 31.7418 100.806 32.1618 100.807 32.5819V32.5827C100.807 33.0511 100.807 33.5197 100.795 33.988C100.326 33.5464 99.9164 33.0492 99.5069 32.5519L99.5068 32.5518L99.5067 32.5517C99.2399 32.2277 98.973 31.9037 98.6895 31.5949C98.6893 31.6244 98.6891 31.654 98.6889 31.6835L98.6883 31.7735C98.6837 32.3988 98.6792 33.0249 98.7267 33.6486C98.8994 33.7216 99.0735 33.7975 99.2476 33.8749C98.9606 33.8812 98.6736 33.8838 98.3866 33.8864C98.2718 33.8874 98.157 33.8885 98.0422 33.8897C98.1925 33.8034 98.3428 33.7186 98.4946 33.6338C98.4958 33.4278 98.5009 33.2216 98.506 33.0152C98.5191 32.4834 98.5322 31.9509 98.4797 31.4223C98.3736 31.3182 98.2503 31.235 98.1283 31.1525C98.0776 31.1183 98.0271 31.0842 97.9782 31.0488Z" fill="black"/>
<path d="M102.94 31.0489C102.543 31.0564 102.148 31.0564 101.754 31.0474C101.846 31.1174 102.031 31.2588 102.123 31.3302C102.181 31.8192 102.171 32.3123 102.161 32.8054C102.155 33.0928 102.149 33.3801 102.157 33.6667C102.044 33.7203 101.816 33.8274 101.702 33.881L101.771 33.8812C102.162 33.8826 102.554 33.8839 102.944 33.9078C102.508 33.748 102.528 33.3425 102.547 32.9513V32.9511C102.553 32.8141 102.56 32.6788 102.547 32.5565C102.566 32.4113 102.557 32.2497 102.548 32.0865C102.524 31.6693 102.5 31.2415 102.94 31.0489Z" fill="black"/>
<path fill-rule="evenodd" clip-rule="evenodd" d="M103.488 33.9091C103.915 33.4597 104.107 32.8835 104.3 32.3056C104.465 31.81 104.631 31.3131 104.946 30.894C105.128 31.2825 105.255 31.6958 105.382 32.1088L105.382 32.1089C105.576 32.7398 105.77 33.37 106.159 33.9106C105.821 33.8942 105.483 33.8823 105.148 33.8748C105.23 33.8183 105.395 33.7067 105.479 33.6501C105.423 33.4843 105.371 33.3192 105.318 33.1544L105.318 33.1542C105.298 33.0928 105.278 33.0314 105.258 32.97C104.916 32.9685 104.577 32.9685 104.236 32.9685C104.16 33.1888 104.086 33.409 104.013 33.6308C104.033 33.6461 104.058 33.6655 104.085 33.6869C104.111 33.7072 104.139 33.7292 104.167 33.7513C104.203 33.78 104.24 33.8087 104.271 33.8334C104.29 33.8478 104.307 33.8609 104.321 33.8719C104.041 33.8823 103.764 33.8942 103.488 33.9091ZM104.779 31.516C104.619 31.9417 104.462 32.3673 104.306 32.7944C104.601 32.7929 104.897 32.7929 105.195 32.7944C105.107 32.5265 105.02 32.2591 104.934 31.992C104.907 31.9088 104.88 31.8255 104.853 31.7423C104.828 31.6669 104.804 31.5915 104.779 31.516Z" fill="black"/>
<path fill-rule="evenodd" clip-rule="evenodd" d="M65.8597 31.6084C65.6603 31.1679 65.0874 31.1724 64.69 31.2884C63.8447 31.659 63.3372 32.8347 63.8328 33.6592C64.3343 34.2678 65.3121 33.8764 65.6187 33.2544C65.9133 32.7722 66.0592 32.1516 65.8597 31.6084ZM64.1766 33.4374C64.0501 32.735 64.2272 31.8629 64.824 31.4164C65.0487 31.2572 65.4014 31.3882 65.4341 31.6724C65.4996 32.3391 65.4058 33.1011 64.9445 33.6175C64.7123 33.9077 64.2376 33.8169 64.1766 33.4374Z" fill="black"/>
</g>
</svg>
