<svg xmlns="http://www.w3.org/2000/svg" width="33" height="33" viewBox="0 0 33 33" fill="none">
    <g clip-path="url(#clip0_4502_5545)">
        <path d="M16.5762 0.173828C25.4132 0.173828 32.5762 7.33683 32.5762 16.1738C32.5762 25.0108 25.4132 32.1738 16.5762 32.1738C7.73917 32.1738 0.576172 25.0108 0.576172 16.1738C0.576172 7.33683 7.73917 0.173828 16.5762 0.173828Z" fill="#8F5AE8"/>
        <path d="M22.0511 12.4845C21.8426 12.3734 21.61 12.3153 21.3738 12.3153C21.1376 12.3153 20.905 12.3734 20.6966 12.4845L17.6431 14.2903L15.5101 15.4758L12.4566 17.2825C12.2481 17.3936 12.0155 17.4517 11.7793 17.4517C11.5431 17.4517 11.3105 17.3936 11.1021 17.2825L8.67532 15.8703C8.47559 15.7551 8.30853 15.5909 8.18993 15.3931C8.07134 15.1954 8.00514 14.9707 7.99757 14.7403V11.9213C7.99327 11.6884 8.0545 11.4589 8.17429 11.2591C8.29408 11.0593 8.4676 10.8972 8.67507 10.7913L11.1021 9.43702C11.3104 9.32546 11.543 9.26708 11.7793 9.26708C12.0156 9.26708 12.2483 9.32546 12.4566 9.43702L14.8833 10.7915C15.083 10.9067 15.25 11.071 15.3686 11.2687C15.4871 11.4664 15.5533 11.6911 15.5608 11.9215V13.726L17.6431 12.4848V10.7358C17.6487 10.504 17.5893 10.2753 17.4716 10.0756C17.3539 9.87584 17.1826 9.71309 16.9771 9.60577L12.5121 7.01027C12.3038 6.89871 12.0711 6.84033 11.8348 6.84033C11.5985 6.84033 11.3659 6.89871 11.1576 7.01027L6.64307 9.60577C6.41769 9.69332 6.22557 9.84956 6.09393 10.0524C5.96228 10.2552 5.89778 10.4943 5.90957 10.7358V15.9835C5.90627 16.2155 5.96802 16.4437 6.08781 16.6424C6.2076 16.841 6.38064 17.0022 6.58732 17.1075L11.1021 19.7093C11.3105 19.8204 11.5431 19.8785 11.7793 19.8785C12.0155 19.8785 12.2481 19.8204 12.4566 19.7093L15.5101 17.9593L17.5981 16.718L20.6411 14.9738C20.8495 14.8627 21.0821 14.8046 21.3183 14.8046C21.5545 14.8046 21.7871 14.8627 21.9956 14.9738L24.4223 16.3283C24.6219 16.4435 24.7889 16.6078 24.9073 16.8055C25.0257 17.0032 25.0917 17.2279 25.0991 17.4583V20.2238C25.1034 20.4565 25.0423 20.6857 24.9226 20.8853C24.8029 21.0849 24.6296 21.2469 24.4223 21.3528L21.9956 22.7628C21.7873 22.8743 21.5546 22.9327 21.3183 22.9327C21.082 22.9327 20.8494 22.8743 20.6411 22.7628L18.2143 21.4083C18.0147 21.2933 17.8476 21.1293 17.729 20.9318C17.6104 20.7343 17.5442 20.5098 17.5366 20.2795V18.467L15.5101 19.6515V21.4563C15.5056 21.6891 15.5667 21.9185 15.6864 22.1183C15.806 22.3181 15.9794 22.4803 16.1868 22.5863L20.7016 25.1815C20.9101 25.2931 21.1429 25.3515 21.3793 25.3515C21.6158 25.3515 21.8486 25.2931 22.0571 25.1815L26.5716 22.5858C26.77 22.4701 26.9357 22.306 27.0533 22.1087C27.1708 21.9114 27.2363 21.6875 27.2436 21.458V16.208C27.2479 15.9752 27.1866 15.7459 27.0668 15.5462C26.9469 15.3466 26.7733 15.1847 26.5658 15.079L22.0511 12.4845Z" fill="white"/>
    </g>
    <defs>
        <clipPath id="clip0_4502_5545">
            <rect width="32" height="32" fill="white" transform="translate(0.576172 0.173828)"/>
        </clipPath>
    </defs>
</svg>
