<svg xmlns="http://www.w3.org/2000/svg" width="164" height="32" viewBox="0 0 164 32" fill="none">
    <g clip-path="url(#clip0_4664_3623)">
        <path d="M25.5316 0L15.5372 5.73993V23.6545L10.0229 26.8512L4.47476 23.652V17.2561L10.0229 14.088L13.5903 16.1568V10.9821L9.99174 8.93916L0 14.7439V26.2264L10.0254 32L20.0172 26.2264V8.31435L25.5652 5.11512L31.1108 8.31435V14.6817L25.5652 17.9095L21.9668 15.8224V20.9712L25.5316 23.0272L35.6219 17.2872V5.73993L25.5316 0Z" fill="white"/>
        <path fill-rule="evenodd" clip-rule="evenodd" d="M84.1674 24.8704H88.6474V0.313721H84.1674V24.8704ZM55.3666 7.41475C57.4899 7.41475 59.2503 8.2677 60.6425 9.97102C62.0373 11.6743 62.7321 13.7872 62.7321 16.3099C62.7321 18.8324 62.0347 20.9454 60.6425 22.6487C59.2477 24.3519 57.4899 25.205 55.3666 25.205C53.863 25.205 52.5563 24.7408 51.4519 23.8102C50.3682 22.8587 49.5723 21.5754 49.0615 19.9602V31.5075H44.5815V7.7466H49.0615V12.6569C49.5697 11.0417 50.3682 9.76879 51.4519 8.84066C52.5589 7.88919 53.863 7.41475 55.3666 7.41475ZM53.7385 21.1216C54.9545 21.1216 55.9837 20.6679 56.8237 19.7606C57.6637 18.8324 58.0837 17.6814 58.0837 16.3099C58.0837 14.9384 57.6637 13.8314 56.8237 12.9239C55.9837 11.9958 54.9545 11.5291 53.7385 11.5291C52.3878 11.5291 51.273 11.9828 50.3863 12.8902C49.5023 13.7976 49.059 14.9358 49.059 16.3072C49.059 17.6787 49.5023 18.8298 50.3863 19.7579C51.2705 20.6654 52.3878 21.1191 53.7385 21.1191V21.1216ZM63.9221 16.3099C63.9221 18.8324 64.7958 20.9454 66.5431 22.6487C68.2906 24.3519 70.4709 25.205 73.0817 25.205C75.6923 25.205 77.8727 24.3519 79.6201 22.6487C81.3674 20.9454 82.2411 18.8324 82.2411 16.3099C82.2411 13.7872 81.3674 11.6743 79.6201 9.97102C77.8727 8.2677 75.6923 7.41475 73.0817 7.41475C70.4709 7.41475 68.2906 8.2677 66.5431 9.97102C64.7958 11.6743 63.9221 13.7872 63.9221 16.3099ZM69.8617 19.7606C68.9983 18.8324 68.5679 17.6814 68.5679 16.3099C68.5679 14.9384 68.9983 13.8314 69.8617 12.9239C70.725 11.9958 71.7983 11.5291 73.0817 11.5291C74.365 11.5291 75.4383 11.9828 76.3015 12.8902C77.1649 13.7976 77.5953 14.9358 77.5953 16.3072C77.5953 17.6787 77.1649 18.8298 76.3015 19.7579C75.4383 20.6654 74.365 21.1191 73.0817 21.1191C71.7983 21.1191 70.725 20.6654 69.8617 19.7579V19.7606ZM130.035 22.6487C128.288 20.9454 127.414 18.8324 127.414 16.3099C127.414 13.7872 128.288 11.6743 130.035 9.97102C131.782 8.2677 133.963 7.41475 136.573 7.41475C139.184 7.41475 141.364 8.2677 143.112 9.97102C144.86 11.6743 145.733 13.7872 145.733 16.3099C145.733 18.8324 144.86 20.9454 143.112 22.6487C141.364 24.3519 139.184 25.205 136.573 25.205C133.963 25.205 131.785 24.3519 130.035 22.6487ZM132.057 16.3099C132.057 17.6814 132.488 18.8324 133.351 19.7606C134.215 20.6679 135.288 21.1216 136.571 21.1216C137.855 21.1216 138.928 20.6679 139.791 19.7606C140.655 18.8324 141.084 17.6814 141.084 16.3099C141.084 14.9384 140.655 13.7976 139.791 12.8928C138.928 11.9854 137.855 11.5317 136.571 11.5317C135.288 11.5317 134.215 11.9958 133.351 12.9265C132.488 13.8339 132.057 14.9618 132.057 16.3124V16.3099ZM157.656 7.41475C159.559 7.41475 161.087 8.07844 162.235 9.40584C163.407 10.7332 163.992 12.4262 163.992 14.482V24.8679H159.512V15.278C159.512 14.171 159.16 13.2636 158.449 12.5558C157.741 11.848 156.857 11.4929 155.795 11.4929C154.6 11.4929 153.628 11.848 152.876 12.5558C152.124 13.2636 151.748 14.171 151.748 15.278V24.8679H147.268V7.7466H151.748V12.128C152.191 10.6684 152.932 9.51732 153.972 8.67732C155.035 7.83734 156.261 7.41734 157.656 7.41734V7.41475ZM99.4091 20.305L103.988 7.76215H108.535L99.111 31.523H94.5637L96.9539 25.4823L89.9514 7.76215H94.797L99.4091 20.305ZM121.275 7.7466V12.0373C120.341 9.23732 118.037 7.7466 114.97 7.7466C110.339 7.7466 107.602 11.791 107.602 16.0428C107.602 20.2946 110.319 24.6708 114.97 24.6708C118.037 24.6708 120.341 22.4594 121.275 19.6594V22.9442C121.275 24.339 120.821 25.4875 119.914 26.395C119.006 27.3023 117.902 27.756 116.595 27.756C114.824 27.756 113.51 26.8719 112.647 25.1012L108.631 27.2246C109.383 28.6194 110.456 29.7342 111.851 30.5767C113.246 31.4167 114.827 31.8367 116.595 31.8367C119.206 31.8367 121.386 30.9863 123.134 29.2804C124.881 27.5771 125.755 25.4642 125.755 22.9416V7.7466H121.275ZM119.981 19.2964C119.118 20.1598 118.034 20.5902 116.73 20.5902C115.426 20.5902 114.407 20.1598 113.544 19.2964C112.68 18.4124 112.25 17.3287 112.25 16.0454C112.25 14.762 112.68 13.6887 113.544 12.8254C114.407 11.9621 115.467 11.5317 116.73 11.5317C117.993 11.5317 119.12 11.9621 119.981 12.8254C120.844 13.6654 121.275 14.7387 121.275 16.0454C121.275 17.352 120.844 18.4358 119.981 19.2964Z" fill="white"/>
    </g>
    <defs>
        <clipPath id="clip0_4664_3623">
            <rect width="164" height="32" fill="white"/>
        </clipPath>
    </defs>
</svg>
