<svg width="209" height="34" viewBox="0 0 209 34" fill="none" xmlns="http://www.w3.org/2000/svg">
<g id="logo 2" clip-path="url(#clip0_4503_6629)">
<g id="vector-SVG">
<g id="Group 1">
<path id="Path 1" d="M17.4636 7.99663C17.5442 7.94321 17.6337 7.90456 17.7279 7.88246C22.6497 5.90112 27.7997 4.54226 33.0583 3.83746C33.2767 2.94441 33.734 2.12766 34.3813 1.47482C35.0792 0.774659 35.9693 0.297578 36.9387 0.104087C37.9081 -0.0894047 38.9132 0.00941383 39.8263 0.388024C40.7395 0.766634 41.5196 1.40797 42.0677 2.23065C42.6158 3.05332 42.9072 4.02027 42.9049 5.00881C42.9083 5.14215 42.9021 5.27557 42.8865 5.40804C43.7327 5.95375 44.524 6.58028 45.2492 7.27883C45.9621 7.95481 46.5961 8.70937 47.1391 9.52809C47.3306 9.81688 47.4002 10.1696 47.3329 10.5095C47.2656 10.8494 47.0668 11.1489 46.7798 11.343C46.6891 11.4008 46.5941 11.4515 46.4956 11.4947C46.458 11.4947 34.2879 15.6898 31.6219 26.346H36.6681C37.0165 26.346 37.3506 26.4844 37.5969 26.7307C37.8432 26.9771 37.9816 27.3111 37.9816 27.6595C37.9816 28.0079 37.8432 28.3419 37.5969 28.5883C37.3506 28.8346 37.0165 28.973 36.6681 28.973H30.0154C29.9403 28.973 29.8828 28.9538 29.8078 28.9538C29.4655 28.8989 29.1586 28.7115 28.9534 28.4321C28.7483 28.1526 28.6614 27.8037 28.7115 27.4607C30.3747 16.8771 40.032 11.4723 43.9429 9.69576C43.7912 9.52569 43.6027 9.33646 43.4327 9.16639C42.9434 8.69863 42.4191 8.26888 41.8645 7.88087C41.7467 8.03315 41.6128 8.17234 41.4653 8.29606C40.6195 9.03865 39.6376 9.61001 38.574 9.97842C34.9458 11.4156 30.7124 13.2473 27.8012 16.0252C26.425 17.2525 25.399 18.8231 24.8281 20.5765C24.2571 22.33 24.1617 24.2035 24.5515 26.0059C24.7672 26.5279 24.8826 27.0859 24.8916 27.6507C24.8908 28.0014 24.7511 28.3374 24.5032 28.5853C24.2553 28.8333 23.9192 28.9729 23.5686 28.9738H8.31802C8.14542 28.9754 7.97418 28.943 7.81415 28.8783C7.65412 28.8136 7.50845 28.718 7.38551 28.5968C7.26256 28.4756 7.16478 28.3314 7.09775 28.1723C7.03073 28.0132 6.99581 27.8425 6.99498 27.6699C6.9279 26.2455 6.4044 24.8805 5.50185 23.7766C4.51235 22.6824 3.20311 21.9281 1.76026 21.6208C1.42231 21.5378 1.13107 21.3241 0.950399 21.0267C0.769732 20.7293 0.714402 20.3724 0.796534 20.0342C0.839647 19.8482 0.923346 19.6739 1.04165 19.524C1.49438 18.9004 6.36498 12.6085 17.4636 7.99663ZM34.1881 6.31428C34.1447 6.32942 34.1004 6.34195 34.0556 6.35181C28.8802 6.98764 23.8063 8.27678 18.9551 10.1884C15.477 15.0638 18.785 18.7687 21.5102 21.8291L21.7944 22.1485C22.1874 19.061 23.6761 16.2173 25.9895 14.1352C29.2392 11.0356 33.7577 9.07057 37.6119 7.55909C38.3631 7.29495 39.0608 6.89821 39.6719 6.38774C39.8657 6.21473 40.02 6.00204 40.1243 5.7641C40.2286 5.52616 40.2805 5.26857 40.2764 5.00881C40.2768 4.38077 40.0325 3.77727 39.5953 3.32645C39.3749 3.10471 39.1128 2.92874 38.8242 2.80866C38.5355 2.68858 38.226 2.62676 37.9133 2.62676C37.6007 2.62676 37.2911 2.68858 37.0025 2.80866C36.7138 2.92874 36.4518 3.10471 36.2314 3.32645C35.7946 3.7776 35.5504 4.38089 35.5503 5.00881C35.5494 5.18142 35.5145 5.35216 35.4475 5.51123C35.3805 5.6703 35.2827 5.81456 35.1597 5.93572C35.0368 6.05688 34.8911 6.15255 34.7311 6.21724C34.5711 6.28194 34.3998 6.31437 34.2272 6.31269H34.1913L34.1881 6.31428ZM19.5396 23.5682C16.7609 20.4494 13.5112 16.8028 15.0977 11.9275C11.0725 13.8793 7.42028 16.5212 4.30656 19.7332C5.52955 20.2721 6.6197 21.0722 7.5004 22.0775C8.5216 23.3024 9.19989 24.7761 9.4662 26.3484H21.788C21.1099 25.3662 20.3582 24.4368 19.5396 23.5682Z" fill="white"/>
<path id="Path 2" d="M66.0119 28.6129H70.0753L65.6151 21.9409C66.7596 21.5529 67.7533 20.8149 68.4554 19.8312C69.1575 18.8476 69.5326 17.668 69.5275 16.4595C69.5287 15.7048 69.3807 14.9572 69.092 14.2599C68.8032 13.5626 68.3795 12.9292 67.8452 12.3962C67.2686 11.8029 66.5733 11.3379 65.8047 11.0316C65.0361 10.7253 64.2116 10.5847 63.385 10.6188H54.6346V28.6089H58.1311V22.317H61.9477L66.0119 28.6129ZM58.1311 13.7783H63.2724C63.6487 13.7645 64.0238 13.8279 64.3748 13.9643C64.7257 14.1008 65.0451 14.3076 65.3133 14.5719C65.5745 14.8156 65.7817 15.1113 65.9216 15.44C66.0615 15.7687 66.1309 16.1231 66.1253 16.4803C66.1308 16.8477 66.0597 17.2122 65.9166 17.5507C65.7735 17.8891 65.5615 18.1941 65.2941 18.4461C65.0042 18.7119 64.6643 18.9174 64.2941 19.0503C63.924 19.1833 63.531 19.2412 63.1383 19.2206H58.108L58.1311 13.7783Z" fill="white"/>
<path id="_x31__9_" d="M77.596 28.9722C78.3968 29.0048 79.1939 28.8451 79.9204 28.5066C80.6469 28.168 81.2818 27.6605 81.772 27.0264V28.6129H85.1734V15.6108H81.772V17.179C81.2782 16.5452 80.6394 16.0393 79.9093 15.7039C79.1793 15.3685 78.3793 15.2133 77.5768 15.2515C76.7201 15.2321 75.8691 15.3955 75.0805 15.7311C74.292 16.0666 73.5841 16.5665 73.0041 17.1973C71.8102 18.5557 71.1517 20.3022 71.1517 22.1107C71.1517 23.9191 71.8102 25.6657 73.0041 27.024C73.5832 27.6573 74.2905 28.1601 75.0789 28.4991C75.8673 28.838 76.7188 29.0053 77.5768 28.9898L77.596 28.9722ZM78.1629 25.9485C77.6711 25.9641 77.1815 25.8762 76.7258 25.6905C76.2701 25.5048 75.8585 25.2255 75.5176 24.8706C74.8233 24.1158 74.4567 23.1166 74.498 22.0919C74.4779 21.5904 74.5576 21.0898 74.7327 20.6194C74.9077 20.1489 75.1745 19.718 75.5176 19.3516C76.2212 18.6618 77.1672 18.2755 78.1525 18.2755C79.1378 18.2755 80.0838 18.6618 80.7874 19.3516C81.1432 19.7078 81.4222 20.1331 81.6075 20.6012C81.7927 21.0693 81.8802 21.5703 81.8646 22.0735C81.8803 22.5824 81.793 23.0891 81.6079 23.5633C81.4228 24.0375 81.1437 24.4694 80.7874 24.833C80.4489 25.1871 80.0408 25.4673 79.5887 25.656C79.1366 25.8446 78.6503 25.9377 78.1605 25.9293L78.1629 25.9485Z" fill="white"/>
<path id="_x32__9_" d="M96.0795 15.2514C95.2736 15.2248 94.4733 15.3931 93.7463 15.7418C93.0193 16.0906 92.3872 16.6096 91.9036 17.2547V15.6099H88.5205V28.6128H91.9036V22.1868C91.8513 21.1922 92.16 20.2122 92.7731 19.4273C93.0471 19.0942 93.3943 18.8289 93.7876 18.6521C94.1809 18.4752 94.6098 18.3916 95.0407 18.4077C95.4307 18.3795 95.8219 18.4435 96.1826 18.5945C96.5432 18.7456 96.8632 18.9795 97.1167 19.2772C97.6153 19.9678 97.8622 20.8085 97.8162 21.659V28.6136H101.198V21.0163C101.285 19.5002 100.822 18.0038 99.8946 16.8012C99.4156 16.2724 98.8236 15.8585 98.1625 15.5903C97.5014 15.3221 96.7883 15.2065 96.0763 15.2522L96.0795 15.2514Z" fill="white"/>
<path id="_x33__9_" d="M110.045 28.9721C110.847 29.0067 111.644 28.8479 112.371 28.5092C113.098 28.1705 113.732 27.6619 114.221 27.0263V28.6128H117.642V15.6107H114.223V17.1789C113.732 16.5471 113.096 16.0423 112.37 15.7069C111.643 15.3716 110.846 15.2154 110.047 15.2514C109.187 15.2318 108.333 15.3952 107.541 15.7306C106.75 16.0661 106.038 16.566 105.454 17.1973C104.272 18.561 103.621 20.3055 103.621 22.1106C103.621 23.9156 104.272 25.6601 105.454 27.0239C106.037 27.6577 106.748 28.1606 107.54 28.4995C108.331 28.8384 109.186 29.0054 110.047 28.9897L110.045 28.9721ZM110.631 25.9484C110.14 25.964 109.65 25.8761 109.194 25.6904C108.739 25.5047 108.327 25.2254 107.986 24.8705C107.639 24.4992 107.369 24.062 107.194 23.5846C107.019 23.1073 106.942 22.5997 106.967 22.0918C106.942 21.5898 107.02 21.0881 107.195 20.617C107.37 20.146 107.64 19.7154 107.986 19.3515C108.327 18.9967 108.739 18.7175 109.194 18.532C109.65 18.3464 110.14 18.2587 110.631 18.2744C111.12 18.2643 111.605 18.3547 112.057 18.54C112.509 18.7252 112.918 19.0015 113.258 19.3515C113.614 19.7076 113.893 20.1329 114.079 20.601C114.264 21.0691 114.352 21.5702 114.336 22.0734C114.352 22.5823 114.265 23.0891 114.079 23.5633C113.894 24.0375 113.615 24.4694 113.258 24.8329C112.92 25.187 112.512 25.4672 112.06 25.6559C111.608 25.8446 111.121 25.9376 110.631 25.9292V25.9484Z" fill="white"/>
<path id="_x34__9_" d="M129.721 28.9539C131.59 28.9944 133.427 28.4674 134.991 27.4424C136.414 26.5131 137.506 25.1564 138.11 23.5675L136.164 23.0381C135.689 24.2327 134.841 25.2413 133.744 25.9126C132.535 26.6737 131.128 27.0625 129.699 27.0304C128.722 27.0634 127.749 26.8865 126.846 26.5116C125.943 26.1366 125.131 25.5724 124.465 24.857C123.121 23.4205 122.394 21.5138 122.442 19.5473C122.422 18.5935 122.591 17.6451 122.938 16.7564C123.285 15.8678 123.804 15.0563 124.465 14.3685C125.136 13.6666 125.947 13.1137 126.846 12.7459C127.744 12.378 128.71 12.2034 129.681 12.2334C131.119 12.1954 132.534 12.5904 133.744 13.3672C134.833 14.0477 135.679 15.0533 136.164 16.2417L138.167 15.7498C137.576 14.1486 136.482 12.7824 135.048 11.8565C133.457 10.828 131.593 10.3014 129.699 10.345C128.476 10.3271 127.262 10.5541 126.128 11.0127C124.994 11.4714 123.963 12.1524 123.097 13.0156C122.23 13.8788 121.546 14.9067 121.083 16.0388C120.62 17.1709 120.388 18.3842 120.401 19.6072C120.373 20.8458 120.595 22.0775 121.056 23.2275C121.518 24.3775 122.208 25.4219 123.084 26.2975C123.952 27.174 124.99 27.864 126.134 28.3253C127.278 28.7866 128.504 29.0095 129.737 28.9803L129.721 28.9539Z" fill="white"/>
<path id="_x35__9_" d="M146.671 28.9539C147.677 29.0095 148.679 28.7911 149.571 28.3218C150.463 27.8526 151.211 27.1502 151.735 26.2894V28.6137H153.72V15.7809H151.735V18.0861C151.194 17.2408 150.439 16.5541 149.546 16.096C148.653 15.6379 147.655 15.4247 146.652 15.4783C145.793 15.4587 144.939 15.6182 144.145 15.9468C143.351 16.2753 142.635 16.7657 142.041 17.3866C141.431 18.0247 140.955 18.7779 140.639 19.602C140.324 20.4262 140.176 21.3049 140.204 22.1869C140.151 23.9792 140.812 25.7192 142.041 27.0248C142.631 27.6519 143.347 28.1476 144.141 28.4797C144.936 28.8118 145.791 28.9728 146.652 28.9523H146.672L146.671 28.9539ZM146.953 27.1582C146.309 27.1785 145.667 27.0648 145.068 26.8241C144.469 26.5834 143.927 26.2211 143.476 25.7601C142.611 24.7821 142.134 23.5218 142.134 22.2165C142.134 20.9112 142.611 19.6508 143.476 18.6729C144.396 17.7733 145.633 17.2712 146.92 17.275C148.206 17.2787 149.44 17.788 150.355 18.6929C151.266 19.6441 151.774 20.9101 151.774 22.2269C151.774 23.5437 151.266 24.8097 150.355 25.7609C149.913 26.2202 149.382 26.5832 148.793 26.8273C148.205 27.0713 147.572 27.191 146.935 27.1789L146.953 27.1582Z" fill="white"/>
<path id="_x36__9_" d="M164.606 15.4798C163.604 15.4233 162.605 15.6373 161.714 16.0995C160.823 16.5616 160.072 17.255 159.541 18.1068V15.7825H157.556V34.0041H159.544V26.275C160.038 27.1066 160.751 27.7866 161.604 28.2408C162.835 28.8724 164.235 29.0957 165.601 28.8783C166.967 28.661 168.228 28.0143 169.202 27.032C169.819 26.3909 170.301 25.6322 170.619 24.8011C170.937 23.9701 171.085 23.0835 171.054 22.1941C171.082 21.3136 170.932 20.4364 170.614 19.6149C170.295 18.7934 169.815 18.0443 169.202 17.4121C168.609 16.7898 167.892 16.2984 167.098 15.9697C166.303 15.6411 165.449 15.4824 164.59 15.5038L164.606 15.4798ZM164.303 27.1589C163.666 27.1694 163.034 27.0489 162.446 26.805C161.857 26.561 161.325 26.1989 160.883 25.7409C159.976 24.7998 159.468 23.5453 159.465 22.2388C159.461 20.9324 159.962 19.675 160.863 18.7288C161.306 18.2734 161.839 17.9143 162.427 17.6738C163.016 17.4332 163.648 17.3165 164.283 17.3307C164.924 17.3049 165.564 17.4143 166.159 17.6519C166.755 17.8895 167.295 18.2499 167.742 18.7096C168.195 19.1805 168.549 19.7378 168.782 20.3482C169.015 20.9586 169.123 21.6098 169.1 22.2628C169.121 22.9095 169.012 23.554 168.779 24.1576C168.545 24.7612 168.193 25.3116 167.742 25.776C167.296 26.2385 166.757 26.6019 166.161 26.8428C165.565 27.0836 164.926 27.1965 164.283 27.1741L164.303 27.1589Z" fill="white"/>
<path id="_x37__9_" d="M175.189 13.3999C175.368 13.4045 175.547 13.3714 175.713 13.3026C175.879 13.2338 176.029 13.131 176.152 13.0006C176.402 12.7356 176.538 12.3828 176.53 12.0185C176.533 11.8475 176.498 11.678 176.429 11.5215C176.36 11.365 176.259 11.2251 176.131 11.1115C176.004 10.9871 175.853 10.8896 175.687 10.8247C175.522 10.7598 175.345 10.7289 175.167 10.7338C174.986 10.7272 174.806 10.7572 174.637 10.8221C174.469 10.8871 174.315 10.9855 174.185 11.1115C174.055 11.2277 173.952 11.3707 173.883 11.5307C173.815 11.6906 173.781 11.8636 173.786 12.0377C173.781 12.219 173.814 12.3993 173.882 12.5675C173.95 12.7357 174.052 12.8881 174.181 13.0153C174.31 13.1425 174.464 13.2419 174.633 13.3072C174.803 13.3725 174.983 13.4024 175.165 13.3951L175.189 13.3999ZM174.187 28.6137H176.153V15.7817H174.187V28.6137Z" fill="white"/>
<path id="_x38__9_" d="M187.171 26.5322C186.595 26.8162 185.961 26.9647 185.319 26.9666C183.94 26.9666 183.243 26.2104 183.243 24.6989V17.5743H187.646V15.7785H183.242V11.3774H181.276V15.7817H178.721V17.5775H181.276V24.7021C181.21 25.7858 181.547 26.8556 182.221 27.7067C182.581 28.0829 183.021 28.3746 183.508 28.5609C183.995 28.7473 184.517 28.8237 185.037 28.7847C185.955 28.7845 186.863 28.5913 187.701 28.2177L187.171 26.5322Z" fill="white"/>
<path id="_x39__9_" d="M195.504 28.9539C196.51 29.0074 197.512 28.7881 198.404 28.319C199.295 27.85 200.043 27.1487 200.569 26.2894V28.6138H202.535V15.7809H200.568V18.0861C200.027 17.2408 199.271 16.5541 198.378 16.096C197.485 15.6379 196.487 15.4247 195.485 15.4783C194.623 15.4585 193.766 15.6179 192.969 15.9464C192.172 16.2749 191.451 16.7653 190.853 17.3866C189.63 18.6807 188.97 20.4069 189.017 22.1869C188.973 23.9777 189.632 25.7144 190.853 27.0248C191.448 27.6522 192.167 28.1479 192.964 28.48C193.762 28.812 194.621 28.9729 195.485 28.9523H195.503L195.504 28.9539ZM195.77 27.1582C195.128 27.1766 194.489 27.062 193.894 26.8213C193.298 26.5807 192.759 26.2193 192.311 25.7601C191.435 24.7875 190.95 23.5252 190.95 22.2165C190.95 20.9078 191.435 19.6454 192.311 18.6729C193.231 17.7733 194.468 17.2712 195.754 17.2749C197.041 17.2786 198.275 17.7879 199.19 18.6929C200.101 19.6441 200.609 20.9101 200.609 22.2269C200.609 23.5437 200.101 24.8097 199.19 25.7609C198.748 26.2188 198.215 26.581 197.627 26.8249C197.039 27.0688 196.406 27.1893 195.77 27.1789V27.1582Z" fill="white"/>
<path id="_x31_0_9_" d="M206.39 28.6137H208.356V9.84985H206.39V28.6137Z" fill="white"/>
</g>
</g>
</g>
<defs>
<clipPath id="clip0_4503_6629">
<rect width="207.599" height="34" fill="white" transform="translate(0.756226)"/>
</clipPath>
</defs>
</svg>
