<svg width="88" height="36" viewBox="0 0 88 36" fill="none" xmlns="http://www.w3.org/2000/svg">
<g id="Group 1171275447" opacity="0.5">
<g id="Vector">
<path d="M37.7651 11.9232H38.5099V4.6792H37.7651V11.9232Z" fill="black"/>
<path d="M34.5215 12.0101C33.8316 12.0101 32.2267 11.7572 32.2267 9.41062C32.2267 7.07447 33.8316 6.82142 34.5215 6.82142C35.2083 6.82142 36.8071 7.07435 36.8071 9.41062C36.8071 11.7571 35.2083 12.0101 34.5215 12.0101ZM34.5215 7.46072C33.9463 7.46072 32.9817 7.71365 32.9817 9.41062C32.9817 10.3092 33.2523 11.3812 34.5412 11.3812C35.1051 11.3812 36.0511 11.125 36.0511 9.41062C36.0511 8.5214 35.7857 7.46072 34.5215 7.46072Z" fill="black"/>
<path d="M30.8919 11.9232L29.2673 8.83511H27.2978V11.9232H26.5232V5.35981C26.5232 4.93429 26.7989 4.6792 27.2616 4.6792H29.4408C30.4188 4.6792 31.4723 5.31848 31.4723 6.72305C31.4723 7.67735 30.9456 8.41584 30.0625 8.69882L31.7542 11.9232H30.8919ZM29.2848 8.10804C30.1307 8.10804 30.6987 7.55135 30.6987 6.72305C30.6987 5.8989 30.1834 5.38666 29.353 5.38666H27.2978V8.10804H29.2848Z" fill="black"/>
<path d="M47.9558 11.9226V8.98222C47.9558 7.77076 47.2122 7.60657 46.4841 7.60657L46.353 7.6076C45.6341 7.6076 45.5515 7.69949 45.5071 7.74809C45.4307 7.83387 45.4204 7.95071 45.4204 8.05279V11.9226H44.6757V7.84315C44.6757 7.5013 44.8172 7.24205 45.0971 7.07163C45.3791 6.90007 45.9688 6.90009 46.2528 6.90009L46.6318 6.903C48.0488 6.94632 48.7098 7.60738 48.7098 8.98097V11.9213L47.9558 11.9226Z" fill="black"/>
<path d="M41.4715 11.9248C40.0907 11.9248 39.4204 11.4249 39.4204 10.3973C39.4204 9.36242 40.2993 8.8997 41.1699 8.8997C42.213 8.8997 42.7997 9.3242 42.8048 9.32832L42.8069 8.62502C42.8069 7.6893 42.2213 7.56121 41.5882 7.56121C40.7372 7.56121 40.132 7.86489 39.912 7.99604L39.8459 8.03527L39.5856 7.38664L39.6311 7.35738C39.8252 7.23237 40.541 6.82445 41.6078 6.82445C42.8781 6.82445 43.5236 7.40071 43.5236 8.53576V11.0362C43.5236 11.3242 43.4131 11.5175 43.1291 11.723C42.8534 11.9232 42.3081 11.9232 42.0457 11.9232L41.4715 11.9248ZM41.1699 9.57723C40.5565 9.57723 40.1754 9.89532 40.1754 10.4076C40.1754 11.0025 40.5627 11.2565 41.4715 11.2565C41.4715 11.2565 41.7483 11.2555 41.897 11.2555C42.2213 11.2555 42.6406 11.1975 42.7253 11.1141C42.7986 11.0418 42.809 10.9437 42.809 10.858L42.8069 10.0265C42.7832 10.009 42.2027 9.57723 41.1699 9.57723Z" fill="black"/>
<path d="M52.0512 11.9245C51.3345 11.9245 49.6686 11.6715 49.6686 9.32496C49.6686 7.77785 50.4215 6.85348 51.6815 6.85348C52.6058 6.85348 53.2296 7.5248 53.2554 7.55267L53.2607 7.55852V4.68222H53.9868V10.9254C53.9868 11.2311 53.8422 11.4976 53.5695 11.6948C53.4342 11.7929 53.1471 11.9097 52.5347 11.9241L52.0512 11.9245ZM51.6711 7.57027C51.2054 7.57027 50.4235 7.79861 50.4235 9.32496C50.4235 10.5343 51.0174 11.2274 52.0512 11.2274H52.3569C52.832 11.2274 53.1212 11.1395 53.178 11.0766C53.2585 10.9858 53.2585 10.8535 53.2585 10.7955L53.2596 8.33027C53.2318 8.29923 52.5573 7.57027 51.6711 7.57027Z" fill="black"/>
<path d="M54.2317 16.1165H53.3838C50.8411 16.1165 48.8705 17.0636 48.8705 20.3385V26.2967H50.4073V20.3385C50.4073 18.149 51.5899 17.5965 53.3838 17.5965H54.2317V16.1165Z" fill="black"/>
<path d="M47.2539 20.8918C47.2539 17.6168 45.3619 15.9592 42.8398 15.9592C40.6121 15.9592 38.2666 17.5373 38.2666 21.2078C38.2666 24.9754 40.6317 26.4554 43.2529 26.4554C45.6583 26.4554 47.1744 25.2914 47.1744 25.2914L46.6436 23.9498C46.6436 23.9498 45.2834 24.9558 43.3521 24.9558C41.8535 24.9558 39.9821 24.3051 39.7838 21.8388H47.2539V20.8918ZM39.8045 20.5168C39.9821 18.1105 41.4796 17.3215 42.8594 17.3215C44.2186 17.3215 45.6975 18.1683 45.6975 20.5168H39.8045Z" fill="black"/>
<path d="M27.9392 16.1165H27.0913C24.5485 16.1165 22.578 17.0636 22.578 20.3385V26.2967H24.1148V20.3385C24.1148 18.149 25.2973 17.5965 27.0913 17.5965H27.9392V16.1165Z" fill="black"/>
<path d="M20.9623 20.8918C20.9623 17.6168 19.0692 15.9592 16.5472 15.9592C14.3205 15.9592 11.975 17.5373 11.975 21.2078C11.975 24.9754 14.3391 26.4554 16.9603 26.4554C19.3657 26.4554 20.8838 25.2914 20.8838 25.2914L20.3509 23.9498C20.3509 23.9498 18.9907 24.9558 17.0594 24.9558C15.5619 24.9558 13.6895 24.3051 13.4922 21.8388H20.9623V20.8918ZM13.5118 20.5168C13.6895 18.1105 15.187 17.3215 16.5668 17.3215C17.927 17.3215 19.4049 18.1683 19.4049 20.5168H13.5118Z" fill="black"/>
<path d="M8.344 18.6048C8.344 18.6048 10.1947 17.7764 10.1947 15.3928C10.1947 12.7323 8.344 11.6293 6.15965 11.6293H2.00579C1.06182 11.6293 0.510315 12.1416 0.510315 13.0091V24.9089C0.510315 25.7754 1.06182 26.2876 2.00579 26.2876H6.57277C8.659 26.2876 10.6864 24.9089 10.6864 22.1895C10.6864 19.3143 8.344 18.6048 8.344 18.6048ZM2.06569 13.0484H5.8839C7.49815 13.0484 8.63937 13.7186 8.63937 15.432C8.63937 17.1464 7.41965 18.0718 5.84362 18.0718H2.06569V13.0484ZM6.39513 24.8303H2.06569V19.5301H6.25777C7.83277 19.5301 9.11239 20.3966 9.11239 22.2102C9.11239 23.9824 7.93088 24.8303 6.39513 24.8303Z" fill="black"/>
<path d="M32.9508 16.0106H32.9126C30.437 16.0416 28.137 17.7684 28.137 21.2458C28.137 24.6396 30.0487 25.9811 32.137 25.9811C34.1478 25.9811 35.4285 24.6044 35.4285 24.6044L35.4212 25.9553C35.4212 28.5589 33.4372 29.3593 31.0732 29.3593H30.2634V30.7412H31.1909C34.2066 30.7412 36.8877 29.4193 36.8877 25.9863V20.0633C36.8877 16.9432 35.2137 16.0209 32.9508 16.0106ZM35.4088 23.0263C35.4088 23.0263 34.0094 24.5208 32.2361 24.5208C30.8955 24.5208 29.6737 23.7317 29.6737 21.2458C29.6737 18.6432 31.1671 17.4483 32.9208 17.4307C34.5051 17.4327 35.4109 17.9719 35.4109 20.0633L35.4088 23.0263Z" fill="black"/>
</g>
<g id="Vector_2" opacity="0.6">
<path d="M61.5509 0.173828H73.9313C78.4348 0.173828 82.0857 3.82466 82.0857 8.32818C82.0857 12.8317 78.4348 16.4825 73.9313 16.4825H61.5509V0.173828Z" fill="black"/>
<path d="M61.5509 16.4825H77.4733C82.8547 16.4825 87.2173 20.8451 87.2173 26.2266C87.2173 31.608 82.8547 35.9706 77.4733 35.9706H61.5509V16.4825Z" fill="black"/>
</g>
</g>
</svg>
