<svg xmlns="http://www.w3.org/2000/svg" width="16" height="16" viewBox="0 0 16 16" fill="none">
	<g clip-path="url(#clip0_3571_6037)">
		<path d="M8 5.99666V5.33333" stroke="#00A3FF" stroke-linecap="round" stroke-linejoin="round" />
		<path d="M8 10.0033V10.6667" stroke="#00A3FF" stroke-linecap="round" stroke-linejoin="round" />
		<path d="M6.84397 9.51933C7.01664 9.802 7.31064 9.99733 7.66664 9.99733H7.99997H8.39664C8.9133 9.99733 9.33197 9.57867 9.33197 9.062C9.33197 8.63333 9.04064 8.25867 8.62397 8.15533L7.37597 7.842C6.95997 7.73733 6.66797 7.36333 6.66797 6.93533C6.66797 6.41867 7.08664 6 7.6033 6H7.99997H8.3333C8.68797 6 8.98197 6.19467 9.1553 6.47533" stroke="#00A3FF" stroke-linecap="round" stroke-linejoin="round" />
		<path d="M2.33 8.976L3.12667 10.0187L3.29867 11.3167C3.394 12.0367 3.96 12.6033 4.68 12.6993L5.98133 12.8733L7.02333 13.6693C7.6 14.11 8.39933 14.11 8.976 13.6693L10.0187 12.8727H10.0173L11.316 12.7007C12.036 12.6053 12.6027 12.0393 12.6987 11.3193L12.872 10.018C12.872 10.018 13.2747 9.49133 13.6687 8.976C14.1093 8.39933 14.1087 7.6 13.6687 7.02333L12.8733 5.98067L12.7013 4.68267C12.606 3.96267 12.04 3.396 11.32 3.3L10.018 3.12667L8.976 2.33067C8.39933 1.89 7.6 1.89 7.02333 2.33067L5.98067 3.12667H5.982L4.68333 3.29933C3.96333 3.39467 3.39667 3.96067 3.30067 4.68067L3.12667 5.982C3.12667 5.982 2.724 6.50867 2.33 7.024C1.89 7.6 1.89 8.4 2.33 8.976Z" stroke="#00A3FF" stroke-linecap="round" stroke-linejoin="round" />
	</g>
	<defs>
		<clipPath id="clip0_3571_6037">
			<rect width="16" height="16" fill="white" />
		</clipPath>
	</defs>
</svg>
