<svg width="800" height="800" viewBox="0 0 800 800" fill="none" xmlns="http://www.w3.org/2000/svg">
<g opacity="0.08">
<g opacity="0.65">
<mask id="path-1-inside-1_3491_3902" fill="white">
<path d="M635.873 165.485C607.886 137.499 568.675 153.368 534.525 165.485C500.375 177.603 436.482 208.448 410.043 208.448C383.604 208.448 298.781 178.704 269.037 166.587C239.294 154.469 195.125 139.151 167.139 167.138C139.152 195.124 154.47 239.293 166.588 269.036C178.705 298.78 208.449 383.604 208.449 410.042C208.449 436.481 177.604 500.374 165.486 534.524C153.369 568.674 137.5 607.885 165.486 635.872C193.472 663.858 232.684 647.989 266.834 635.872C300.984 623.754 364.877 592.909 391.316 592.909C417.754 592.909 502.578 622.653 532.322 634.77C562.065 646.888 606.234 662.206 634.22 634.219C662.207 606.233 646.889 562.064 634.771 532.321C622.653 502.577 592.91 417.753 592.91 391.315C592.91 364.876 623.755 300.983 635.873 266.833C647.99 232.683 663.859 193.472 635.873 165.485Z"/>
</mask>
<path d="M635.873 165.485L638.701 162.657L635.873 165.485ZM534.525 165.485L533.187 161.716L534.525 165.485ZM410.043 208.448L410.043 212.448L410.043 208.448ZM269.037 166.587L270.546 162.882L269.037 166.587ZM167.139 167.138L164.31 164.309L167.139 167.138ZM166.588 269.036L170.292 267.527L166.588 269.036ZM208.449 410.042L212.449 410.042L208.449 410.042ZM165.486 534.524L169.256 535.861L165.486 534.524ZM165.486 635.872L162.658 638.7L165.486 635.872ZM266.834 635.872L265.496 632.102L265.496 632.102L266.834 635.872ZM391.316 592.909L391.316 596.909L391.316 592.909ZM532.322 634.77L533.831 631.066L533.831 631.066L532.322 634.77ZM634.22 634.219L631.392 631.391L634.22 634.219ZM634.771 532.321L638.475 530.811L638.475 530.811L634.771 532.321ZM592.91 391.315L588.91 391.315L592.91 391.315ZM635.873 266.833L639.642 268.171L639.642 268.171L635.873 266.833ZM638.701 162.657C623.59 147.545 605.427 144.398 587.061 146.471C568.923 148.519 550.064 155.727 533.187 161.716L535.862 169.255C553.136 163.126 570.957 156.34 587.959 154.421C604.733 152.527 620.169 155.439 633.044 168.314L638.701 162.657ZM533.187 161.716C516.069 167.79 491.204 178.668 467.933 187.786C456.196 192.385 444.78 196.574 434.692 199.609C424.517 202.67 416.036 204.448 410.043 204.448L410.043 212.448C417.27 212.448 426.69 210.37 436.997 207.269C447.393 204.142 459.042 199.862 470.851 195.235C494.674 185.901 518.83 175.299 535.862 169.255L533.187 161.716ZM410.043 204.448C403.963 204.448 394.12 202.702 381.993 199.726C369.976 196.778 356.057 192.709 341.988 188.249C313.845 179.325 285.305 168.895 270.546 162.882L267.528 170.291C282.513 176.396 311.257 186.897 339.571 195.874C353.731 200.364 367.834 204.489 380.087 207.496C392.229 210.476 402.904 212.448 410.043 212.448L410.043 204.448ZM270.546 162.882C255.651 156.814 236.71 149.752 217.831 147.843C198.874 145.927 179.452 149.167 164.31 164.309L169.967 169.966C182.812 157.121 199.467 154.028 217.027 155.803C234.665 157.586 252.681 164.242 267.528 170.291L270.546 162.882ZM164.31 164.309C149.168 179.451 145.928 198.873 147.844 217.83C149.753 236.709 156.815 255.65 162.883 270.545L170.292 267.527C164.243 252.68 157.587 234.664 155.804 217.026C154.029 199.466 157.122 182.811 169.967 169.966L164.31 164.309ZM162.883 270.545C168.896 285.304 179.326 313.844 188.249 341.987C192.71 356.056 196.778 369.975 199.727 381.992C202.703 394.119 204.449 403.962 204.449 410.042L212.449 410.042C212.449 402.903 210.476 392.228 207.497 380.086C204.49 367.833 200.365 353.73 195.875 339.57C186.898 311.256 176.397 282.512 170.292 267.527L162.883 270.545ZM204.449 410.042C204.449 416.035 202.671 424.516 199.609 434.691C196.575 444.779 192.386 456.195 187.787 467.932C178.669 491.203 167.79 516.068 161.716 533.186L169.256 535.861C175.299 518.83 185.902 494.673 195.236 470.85C199.863 459.041 204.143 447.392 207.27 436.996C210.371 426.689 212.449 417.269 212.449 410.042L204.449 410.042ZM161.716 533.186C155.728 550.063 148.52 568.922 146.472 587.06C144.399 605.426 147.546 623.589 162.658 638.7L168.314 633.043C155.439 620.168 152.528 604.732 154.422 587.958C156.341 570.956 163.127 553.135 169.256 535.861L161.716 533.186ZM162.658 638.7C177.769 653.812 195.932 656.959 214.297 654.886C232.436 652.838 251.295 645.63 268.172 639.641L265.496 632.102C248.223 638.231 230.402 645.017 213.4 646.936C196.625 648.83 181.19 645.918 168.314 633.043L162.658 638.7ZM268.172 639.641C285.289 633.567 310.154 622.689 333.426 613.571C345.163 608.972 356.579 604.783 366.666 601.748C376.842 598.687 385.323 596.909 391.316 596.909L391.316 588.909C384.089 588.909 374.669 590.987 364.362 594.088C353.966 597.215 342.317 601.495 330.507 606.122C306.685 615.456 282.528 626.058 265.496 632.102L268.172 639.641ZM391.316 596.909C397.396 596.909 407.238 598.655 419.366 601.631C431.383 604.579 445.302 608.648 459.37 613.108C487.514 622.032 516.054 632.462 530.812 638.475L533.831 631.066C518.845 624.961 490.102 614.46 461.788 605.483C447.628 600.993 433.525 596.868 421.272 593.861C409.13 590.881 398.455 588.909 391.316 588.909L391.316 596.909ZM530.812 638.475C545.708 644.543 564.649 651.605 583.527 653.514C602.485 655.43 621.907 652.19 637.049 637.048L631.392 631.391C618.547 644.236 601.892 647.329 584.332 645.554C566.694 643.771 548.678 637.115 533.831 631.066L530.812 638.475ZM637.049 637.048C652.19 621.906 655.431 602.484 653.514 583.527C651.606 564.648 644.544 545.707 638.475 530.811L631.067 533.83C637.116 548.677 643.772 566.693 645.555 584.331C647.33 601.891 644.237 618.546 631.392 631.391L637.049 637.048ZM638.475 530.811C632.463 516.053 622.033 487.513 613.109 459.37C608.649 445.301 604.58 431.382 601.632 419.365C598.656 407.238 596.91 397.395 596.91 391.315L588.91 391.315C588.91 398.454 590.882 409.129 593.862 421.271C596.869 433.524 600.994 447.627 605.484 461.787C614.461 490.101 624.962 518.845 631.067 533.83L638.475 530.811ZM596.91 391.315C596.91 385.322 598.688 376.841 601.749 366.666C604.784 356.578 608.973 345.162 613.572 333.425C622.69 310.154 633.568 285.289 639.642 268.171L632.103 265.495C626.059 282.527 615.457 306.684 606.123 330.507C601.496 342.316 597.216 353.965 594.088 364.361C590.988 374.668 588.91 384.088 588.91 391.315L596.91 391.315ZM639.642 268.171C645.631 251.294 652.839 232.435 654.887 214.297C656.96 195.931 653.813 177.768 638.701 162.657L633.044 168.314C645.919 181.189 648.831 196.625 646.937 213.399C645.018 230.401 638.232 248.222 632.103 265.495L639.642 268.171Z" fill="url(#paint0_linear_3491_3902)" mask="url(#path-1-inside-1_3491_3902)"/>
</g>
<g opacity="0.65">
<mask id="path-3-inside-2_3491_3902" fill="white">
<path d="M66.7025 397.392C66.7025 436.97 105.65 453.476 138.366 469.055C171.082 484.635 238.072 508.003 256.767 526.698C275.462 545.393 314.41 626.404 326.873 656.005C339.337 685.605 359.737 727.669 399.316 727.669C438.895 727.669 459.296 685.605 471.759 656.005C484.222 626.404 523.17 545.393 541.865 526.698C560.56 508.003 627.55 484.635 660.266 469.056C692.982 453.476 731.93 436.971 731.93 397.392C731.93 357.813 692.982 341.307 660.266 325.728C627.55 310.149 560.56 286.78 541.865 268.085C523.17 249.39 484.222 168.379 471.759 138.779C459.296 109.179 438.895 67.1149 399.316 67.1149C359.737 67.1149 339.337 109.178 326.873 138.779C314.41 168.379 275.462 249.39 256.767 268.085C238.073 286.78 171.082 310.149 138.366 325.728C105.65 341.307 66.7025 357.813 66.7025 397.392Z"/>
</mask>
<path d="M138.366 469.055L140.086 465.444L138.366 469.055ZM399.316 727.669L399.316 731.669L399.316 727.669ZM326.873 656.005L330.56 654.452L326.873 656.005ZM138.366 325.728L136.647 322.116L138.366 325.728ZM326.873 138.779L330.56 140.331L326.873 138.779ZM256.767 268.085L253.939 265.257L256.767 268.085ZM660.266 325.728L658.546 329.339L660.266 325.728ZM471.759 138.779L468.072 140.331L471.759 138.779ZM541.865 268.085L539.036 270.914L541.865 268.085ZM660.266 469.056L658.546 465.444L658.546 465.444L660.266 469.056ZM471.759 656.005L468.072 654.453L471.759 656.005ZM541.865 526.698L544.693 529.527L541.865 526.698ZM140.086 465.444C123.538 457.564 106.138 449.76 92.7591 439.096C79.5586 428.573 70.7025 415.6 70.7025 397.392L62.7025 397.392C62.7025 418.762 73.3202 433.831 87.7726 445.351C102.046 456.729 120.479 464.968 136.647 472.667L140.086 465.444ZM399.316 723.669C381.151 723.669 367.186 714.079 356.025 700.407C344.814 686.674 336.781 669.229 330.56 654.452L323.187 657.557C329.429 672.381 337.828 690.768 349.828 705.466C361.877 720.226 377.902 731.669 399.316 731.669L399.316 723.669ZM136.647 472.667C153.046 480.476 178.32 490.366 201.223 500.374C212.775 505.422 223.808 510.532 233.087 515.519C242.447 520.55 249.702 525.289 253.939 529.527L259.596 523.87C254.486 518.76 246.356 513.568 236.875 508.472C227.313 503.333 216.049 498.122 204.426 493.043C180.981 482.798 156.403 473.214 140.086 465.444L136.647 472.667ZM253.939 529.527C258.238 533.826 263.964 542.02 270.435 552.7C276.847 563.282 283.813 576.001 290.606 589.103C304.197 615.314 317.003 642.87 323.187 657.557L330.56 654.452C324.281 639.539 311.381 611.789 297.708 585.421C290.87 572.233 283.815 559.344 277.277 548.554C270.798 537.861 264.644 528.918 259.596 523.87L253.939 529.527ZM136.647 322.116C120.479 329.816 102.046 338.054 87.7726 349.432C73.3202 360.952 62.7025 376.021 62.7025 397.392L70.7025 397.392C70.7025 379.184 79.5586 366.21 92.7591 355.688C106.138 345.023 123.538 337.219 140.086 329.339L136.647 322.116ZM399.316 63.1149C377.902 63.1149 361.877 74.5572 349.828 89.3172C337.828 104.016 329.429 122.402 323.187 137.227L330.56 140.331C336.781 125.555 344.814 108.11 356.025 94.3763C367.186 80.7044 381.151 71.1149 399.316 71.1149L399.316 63.1149ZM140.086 329.339C156.403 321.569 180.981 311.985 204.426 301.74C216.049 296.662 227.313 291.451 236.875 286.311C246.356 281.216 254.486 276.024 259.596 270.914L253.939 265.257C249.702 269.494 242.447 274.234 233.087 279.265C223.808 284.252 212.775 289.362 201.223 294.41C178.32 304.418 153.046 314.307 136.647 322.116L140.086 329.339ZM259.596 270.914C264.644 265.865 270.798 256.923 277.277 246.23C283.815 235.44 290.87 222.55 297.708 209.363C311.381 182.994 324.281 155.244 330.56 140.331L323.187 137.227C317.003 151.914 304.197 179.469 290.606 205.68C283.813 218.782 276.847 231.501 270.435 242.084C263.964 252.763 258.238 260.958 253.939 265.257L259.596 270.914ZM658.546 329.339C675.094 337.22 692.494 345.023 705.873 355.688C719.074 366.21 727.93 379.184 727.93 397.392L735.93 397.392C735.93 376.021 725.312 360.952 710.86 349.432C696.586 338.054 678.154 329.816 661.986 322.117L658.546 329.339ZM399.316 71.1149C417.481 71.1149 431.446 80.7044 442.607 94.3764C453.819 108.11 461.851 125.555 468.072 140.331L475.445 137.227C469.204 122.402 460.804 104.016 448.804 89.3172C436.755 74.5572 420.73 63.1149 399.316 63.1149L399.316 71.1149ZM661.986 322.117C645.586 314.307 620.312 304.418 597.409 294.41C585.858 289.362 574.824 284.252 565.545 279.265C556.185 274.234 548.931 269.494 544.693 265.257L539.036 270.914C544.146 276.024 552.277 281.216 561.757 286.311C571.32 291.451 582.583 296.662 594.206 301.74C617.651 311.985 642.229 321.569 658.546 329.339L661.986 322.117ZM544.693 265.257C540.394 260.958 534.668 252.764 528.197 242.084C521.785 231.501 514.82 218.782 508.026 205.68C494.435 179.47 481.629 151.914 475.445 137.227L468.072 140.331C474.352 155.244 487.251 182.994 500.924 209.363C507.762 222.551 514.818 235.44 521.355 246.23C527.835 256.923 533.988 265.865 539.036 270.914L544.693 265.257ZM661.986 472.667C678.154 464.968 696.586 456.729 710.86 445.351C725.312 433.831 735.93 418.763 735.93 397.392L727.93 397.392C727.93 415.6 719.074 428.573 705.873 439.096C692.494 449.76 675.094 457.564 658.546 465.444L661.986 472.667ZM399.316 731.669C420.73 731.669 436.755 720.226 448.804 705.466C460.804 690.768 469.204 672.381 475.445 657.557L468.072 654.453C461.851 669.229 453.818 686.674 442.607 700.407C431.446 714.079 417.481 723.669 399.316 723.669L399.316 731.669ZM658.546 465.444C642.229 473.214 617.651 482.798 594.206 493.043C582.583 498.122 571.32 503.333 561.757 508.472C552.277 513.568 544.146 518.76 539.036 523.87L544.693 529.527C548.931 525.289 556.185 520.55 565.545 515.519C574.824 510.532 585.858 505.422 597.409 500.374C620.312 490.366 645.586 480.476 661.986 472.667L658.546 465.444ZM539.036 523.87C533.988 528.918 527.835 537.861 521.355 548.554C514.818 559.344 507.762 572.233 500.924 585.421C487.251 611.789 474.352 639.539 468.072 654.453L475.445 657.557C481.629 642.87 494.435 615.314 508.026 589.103C514.82 576.001 521.785 563.282 528.197 552.7C534.668 542.02 540.394 533.826 544.693 529.527L539.036 523.87Z" fill="url(#paint1_linear_3491_3902)" mask="url(#path-3-inside-2_3491_3902)"/>
</g>
</g>
<defs>
<linearGradient id="paint0_linear_3491_3902" x1="42.5536" y1="400.567" x2="619.575" y2="764.823" gradientUnits="userSpaceOnUse">
<stop stop-color="#D8CBFE"/>
<stop offset="1" stop-color="#D8CBFE" stop-opacity="0"/>
</linearGradient>
<linearGradient id="paint1_linear_3491_3902" x1="-291.632" y1="128.227" x2="793.758" y2="779.575" gradientUnits="userSpaceOnUse">
<stop stop-color="#D8CBFE"/>
<stop offset="1" stop-color="#D8CBFE" stop-opacity="0"/>
</linearGradient>
</defs>
</svg>
