<svg width="48" height="48" viewBox="0 0 48 48" fill="none" xmlns="http://www.w3.org/2000/svg">
    <path fill-rule="evenodd" clip-rule="evenodd"
        d="M42.2286 24.1446C36.7488 25.921 32.4534 30.2164 30.6768 35.6986C28.9002 30.2164 24.6048 25.921 19.125 24.1446C24.6048 22.368 28.9002 18.0725 30.6768 12.5928C32.4534 18.0725 36.7488 22.368 42.2286 24.1446Z"
        fill="#258CF7" stroke="#258CF7" stroke-width="1.5" stroke-linecap="round" stroke-linejoin="round" />
    <path fill-rule="evenodd" clip-rule="evenodd"
        d="M17.9672 11.1374C16.0555 11.7572 14.557 13.2557 13.9372 15.1682C13.3174 13.2557 11.8189 11.7572 9.90723 11.1374C11.8189 10.5176 13.3174 9.0191 13.9372 7.10742C14.557 9.0191 16.0555 10.5176 17.9672 11.1374Z"
        fill="#258CF7" stroke="#258CF7" stroke-width="1.5" stroke-linecap="round" stroke-linejoin="round" />
    <path fill-rule="evenodd" clip-rule="evenodd"
        d="M18.1856 34.9126C15.3496 35.832 13.1266 38.055 12.2071 40.8924C11.2876 38.055 9.06454 35.832 6.22852 34.9126C9.06454 33.9932 11.2876 31.77 12.2071 28.934C13.1266 31.77 15.3496 33.9932 18.1856 34.9126Z"
        fill="#258CF7" stroke="#258CF7" stroke-width="1.5" stroke-linecap="round" stroke-linejoin="round" />
</svg>
