<svg width="225" height="48" viewBox="0 0 225 48" fill="none" xmlns="http://www.w3.org/2000/svg">
<g id="Frame 1171277156" clip-path="url(#clip0_2393_24580)">
<g id="Vector">
<path d="M65.0028 15.4725V12.6182H82.0107V15.4725H75.1539V34.5944H71.8489V15.4725H65.0028Z" fill="white"/>
<path d="M107.799 34.9271C106.204 34.9271 104.83 34.5658 103.678 33.8433C102.534 33.1136 101.654 32.1085 101.039 30.828C100.424 29.5475 100.116 28.081 100.116 26.4285C100.116 24.7545 100.431 23.2773 101.06 21.9967C101.69 20.7091 102.577 19.704 103.721 18.9814C104.866 18.2589 106.214 17.8977 107.767 17.8977C109.019 17.8977 110.135 18.1301 111.115 18.5951C112.095 19.053 112.885 19.6968 113.486 20.5266C114.094 21.3565 114.456 22.3258 114.57 23.4346H111.447C111.276 22.662 110.882 21.9967 110.267 21.4387C109.659 20.8808 108.843 20.6018 107.82 20.6018C106.926 20.6018 106.143 20.8378 105.47 21.31C104.805 21.775 104.287 22.4403 103.915 23.3059C103.543 24.1643 103.357 25.1801 103.357 26.3534C103.357 27.5552 103.539 28.5925 103.904 29.4652C104.269 30.338 104.784 31.014 105.449 31.4933C106.121 31.9726 106.912 32.2123 107.82 32.2123C108.429 32.2123 108.979 32.1014 109.473 31.8796C109.974 31.6507 110.392 31.3252 110.728 30.9031C111.072 30.4811 111.311 29.9731 111.447 29.3794H114.57C114.456 30.4453 114.109 31.3967 113.529 32.2337C112.95 33.0707 112.174 33.7288 111.201 34.2081C110.235 34.6874 109.101 34.9271 107.799 34.9271Z" fill="white"/>
<path d="M121.21 24.8081V34.5944H118.001V12.6182H121.167V20.7949H121.371C121.757 19.9079 122.347 19.2032 123.141 18.681C123.935 18.1588 124.972 17.8977 126.253 17.8977C127.383 17.8977 128.37 18.1301 129.215 18.5951C130.066 19.0601 130.724 19.754 131.189 20.6769C131.661 21.5926 131.897 22.7371 131.897 24.1107V34.5944H128.689V24.497C128.689 23.288 128.378 22.3508 127.755 21.6856C127.133 21.0131 126.267 20.6769 125.158 20.6769C124.4 20.6769 123.721 20.8378 123.12 21.1597C122.526 21.4817 122.057 21.9538 121.714 22.5762C121.378 23.1914 121.21 23.9354 121.21 24.8081Z" fill="white"/>
<path d="M162.391 34.9271C160.846 34.9271 159.497 34.573 158.345 33.8648C157.194 33.1565 156.299 32.1658 155.663 30.8924C155.026 29.619 154.708 28.1311 154.708 26.4285C154.708 24.7187 155.026 23.2236 155.663 21.9431C156.299 20.6626 157.194 19.6682 158.345 18.96C159.497 18.2518 160.846 17.8977 162.391 17.8977C163.936 17.8977 165.285 18.2518 166.436 18.96C167.588 19.6682 168.482 20.6626 169.119 21.9431C169.756 23.2236 170.074 24.7187 170.074 26.4285C170.074 28.1311 169.756 29.619 169.119 30.8924C168.482 32.1658 167.588 33.1565 166.436 33.8648C165.285 34.573 163.936 34.9271 162.391 34.9271ZM162.402 32.2337C163.403 32.2337 164.233 31.969 164.891 31.4397C165.549 30.9103 166.036 30.2056 166.35 29.3257C166.672 28.4458 166.833 27.4765 166.833 26.4177C166.833 25.3661 166.672 24.4004 166.35 23.5205C166.036 22.6334 165.549 21.9216 164.891 21.3851C164.233 20.8486 163.403 20.5803 162.402 20.5803C161.393 20.5803 160.556 20.8486 159.891 21.3851C159.232 21.9216 158.742 22.6334 158.421 23.5205C158.106 24.4004 157.948 25.3661 157.948 26.4177C157.948 27.4765 158.106 28.4458 158.421 29.3257C158.742 30.2056 159.232 30.9103 159.891 31.4397C160.556 31.969 161.393 32.2337 162.402 32.2337Z" fill="white"/>
<path d="M184.096 27.7591V18.1123H187.315V34.5944H184.161V31.7401H183.989C183.61 32.62 183.002 33.3533 182.165 33.9399C181.335 34.5193 180.301 34.8091 179.063 34.8091C178.005 34.8091 177.068 34.5766 176.252 34.1116C175.444 33.6394 174.807 32.9419 174.342 32.0191C173.884 31.0963 173.655 29.9553 173.655 28.596V18.1123H176.864V28.2097C176.864 29.3329 177.175 30.2271 177.797 30.8924C178.42 31.5577 179.228 31.8903 180.222 31.8903C180.823 31.8903 181.421 31.7401 182.014 31.4397C182.615 31.1392 183.113 30.6849 183.506 30.0769C183.907 29.4688 184.103 28.6962 184.096 27.7591Z" fill="white"/>
<path d="M194.835 24.8081V34.5944H191.626V18.1123H194.706V20.7949H194.91C195.289 19.9222 195.883 19.2211 196.691 18.6917C197.507 18.1623 198.533 17.8977 199.771 17.8977C200.894 17.8977 201.878 18.1337 202.722 18.6059C203.566 19.0709 204.22 19.7648 204.685 20.6876C205.15 21.6104 205.383 22.7515 205.383 24.1107V34.5944H202.174V24.497C202.174 23.3023 201.863 22.3687 201.241 21.6963C200.619 21.0167 199.764 20.6769 198.676 20.6769C197.932 20.6769 197.271 20.8378 196.691 21.1597C196.119 21.4817 195.665 21.9538 195.328 22.5762C194.999 23.1914 194.835 23.9354 194.835 24.8081Z" fill="white"/>
<path d="M215.856 34.9164C214.525 34.9164 213.338 34.5766 212.293 33.897C211.256 33.2102 210.441 32.2337 209.847 30.9675C209.26 29.6941 208.967 28.1668 208.967 26.3855C208.967 24.6043 209.264 23.0805 209.858 21.8143C210.458 20.5481 211.281 19.5788 212.326 18.9063C213.37 18.2339 214.554 17.8977 215.877 17.8977C216.9 17.8977 217.723 18.0693 218.345 18.4127C218.975 18.7489 219.461 19.1424 219.805 19.5931C220.155 20.0438 220.427 20.4408 220.62 20.7842H220.814V12.6182H224.022V34.5944H220.889V32.0298H220.62C220.427 32.3804 220.148 32.781 219.783 33.2317C219.426 33.6823 218.932 34.0758 218.303 34.412C217.673 34.7482 216.857 34.9164 215.856 34.9164ZM216.564 32.1801C217.487 32.1801 218.267 31.9368 218.903 31.4504C219.547 30.9568 220.034 30.2736 220.363 29.4008C220.699 28.5281 220.867 27.5123 220.867 26.3534C220.867 25.2088 220.703 24.2072 220.374 23.3488C220.044 22.4903 219.562 21.8215 218.925 21.3422C218.288 20.8629 217.501 20.6232 216.564 20.6232C215.598 20.6232 214.794 20.8736 214.15 21.3744C213.506 21.8751 213.02 22.5583 212.69 23.4239C212.369 24.2895 212.208 25.266 212.208 26.3534C212.208 27.455 212.372 28.4458 212.701 29.3257C213.03 30.2056 213.517 30.9031 214.161 31.4182C214.812 31.9261 215.613 32.1801 216.564 32.1801Z" fill="white"/>
<path fill-rule="evenodd" clip-rule="evenodd" d="M90.225 34.9271C88.6011 34.9271 87.2025 34.5801 86.0293 33.8862C84.8633 33.1852 83.9619 32.2015 83.3252 30.9353C82.6957 29.662 82.3809 28.1704 82.3809 26.4607C82.3809 24.7724 82.6957 23.2844 83.3252 21.9967C83.9619 20.7091 84.849 19.704 85.9864 18.9814C87.131 18.2589 88.4688 17.8977 89.9996 17.8977C90.9296 17.8977 91.831 18.0515 92.7038 18.3591C93.5765 18.6667 94.3598 19.1496 95.0538 19.8077C95.7477 20.4658 96.2949 21.3207 96.6955 22.3723C97.0961 23.4167 97.2964 24.6865 97.2964 26.1817V27.3191H85.5814C85.6062 28.3238 85.7984 29.1858 86.1581 29.9052C86.5516 30.6778 87.0988 31.268 87.7999 31.6757C88.501 32.0763 89.3201 32.2766 90.2572 32.2766C90.8653 32.2766 91.4197 32.1908 91.9204 32.0191C92.4212 31.8403 92.854 31.5756 93.2188 31.225C93.5837 30.8745 93.8627 30.4417 94.0558 29.9266L97.0926 30.4739C96.8493 31.3681 96.413 32.1514 95.7834 32.8239C95.1611 33.4892 94.3777 34.0078 93.4334 34.3798C92.4963 34.7447 91.4268 34.9271 90.225 34.9271ZM93.6373 22.6728C93.9807 23.3238 94.1524 24.0713 94.1524 24.9155H85.5868C85.6253 24.207 85.8014 23.5452 86.1152 22.9303C86.48 22.2221 86.9951 21.6498 87.6604 21.2134C88.3328 20.7699 89.1197 20.5481 90.0211 20.5481C90.8509 20.5481 91.5735 20.7377 92.1887 21.1168C92.8111 21.496 93.2939 22.0146 93.6373 22.6728Z" fill="white"/>
<path fill-rule="evenodd" clip-rule="evenodd" d="M136.436 34.5944V12.6182H144.27C145.972 12.6182 147.385 12.9115 148.508 13.4981C149.638 14.0847 150.483 14.8967 151.041 15.934C151.599 16.9641 151.878 18.1552 151.878 19.5072C151.878 20.8521 151.595 22.0361 151.03 23.0591C150.472 24.0749 149.628 24.8654 148.497 25.4305C148.292 25.5341 148.076 25.6282 147.851 25.7128L152.715 34.5944H148.937L144.472 26.2767C144.402 26.2777 144.331 26.2782 144.259 26.2782H139.752V34.5944H136.436ZM146.577 22.9625C145.904 23.2701 145.031 23.4239 143.958 23.4239H139.752V15.4618H143.915C145.01 15.4618 145.893 15.6263 146.566 15.9554C147.246 16.2773 147.743 16.7423 148.057 17.3504C148.379 17.9585 148.54 18.6774 148.54 19.5072C148.54 20.3299 148.383 21.0346 148.068 21.6212C147.753 22.2078 147.256 22.6549 146.577 22.9625Z" fill="white"/>
<path d="M0 0H36.3226C43.9646 0 50.1597 6.19509 50.1597 13.8371C50.1597 18.9624 47.3732 23.4368 43.2325 25.8281L53.5908 47.5453H47.1654L37.6574 27.6107C37.2182 27.6527 36.7729 27.6743 36.3226 27.6743H27.3691V22.7905H36.3225C41.2674 22.7905 45.276 18.782 45.276 13.8371C45.276 8.89231 41.2673 4.88374 36.3225 4.88371H21.9767L21.9767 46.9038H16.1772L16.1772 4.88371H0V0Z" fill="white"/>
</g>
</g>
<defs>
<clipPath id="clip0_2393_24580">
<rect width="224.022" height="47.5453" fill="white"/>
</clipPath>
</defs>
</svg>
