<svg width="188" height="27" viewBox="0 0 188 27" fill="none" xmlns="http://www.w3.org/2000/svg">
<g id="Frame 1171277162" clip-path="url(#clip0_2393_24586)">
<g id="Vector">
<path d="M0 7.38871H7.2362V25.6452H11.6178V7.38871H18.854V3.33909H0V7.38871Z" fill="white"/>
<path d="M34.7869 21.5292H26.3557V16.2182H33.6583V12.1022H26.3557V7.38871H34.7869V3.33909H21.9742V25.6452H34.7869V21.5292Z" fill="white"/>
<path d="M48.529 21.9939C44.5458 21.9939 41.8903 18.8073 41.8903 14.4921C41.8903 10.177 44.5458 7.05678 48.4626 7.05678C51.4501 7.05678 53.1097 8.38452 53.9064 10.5753H58.6863C57.4913 6.06097 54.1719 2.94077 48.4626 2.94077C41.9567 2.94077 37.3096 7.78704 37.3096 14.4921C37.3096 21.1972 41.9567 26.1099 48.4626 26.1099C54.1719 26.1099 57.5577 23.1225 58.7527 18.2762H54.1055C53.4417 20.4006 51.6492 21.9939 48.529 21.9939Z" fill="white"/>
<path d="M66.2544 16.1518H70.7023V16.2182H75.8142V25.6452H80.1957V16.1518H85.2411C85.8386 16.8821 86.7017 17.4132 87.7638 17.4132C89.5563 17.4132 91.0168 15.8863 91.0168 14.0938C91.0168 12.235 89.5563 10.7745 87.7638 10.7745C86.7017 10.7745 85.8386 11.3056 85.2411 12.0358H80.1957V0.0197353H75.8142V12.0358H66.2544V3.33909H61.8728V25.6452H66.2544V16.1518Z" fill="white"/>
<path d="M97.979 5.38908H105.215V23.6456H109.597V5.38908H116.833V1.33946H97.979V5.38908Z" fill="white"/>
<path d="M122.675 0.0117188C121.148 0.0117188 119.887 1.20669 119.887 2.73359C119.887 4.2605 121.082 5.45547 122.675 5.45547C124.202 5.45547 125.463 4.32689 125.463 2.73359C125.397 1.20669 124.136 0.0117188 122.675 0.0117188Z" fill="white"/>
<path d="M124.667 7.51347H120.551V23.6456H124.667V7.51347Z" fill="white"/>
<path d="M141.396 15.6791L140.931 17.0068L140.4 15.6791L134.027 1.33946H129.048V23.6456H133.363V9.50508L134.027 11.4967L139.073 23.6456H142.79L147.836 11.4967L148.5 9.50508V23.6456H152.881V1.33946H147.836L141.396 15.6791Z" fill="white"/>
<path d="M157.396 23.6456H170.208V19.5295H161.777V14.2186H169.08V10.1026H161.777V5.38908H170.208V1.33946H157.396V23.6456Z" fill="white"/>
<path d="M181.627 10.3681C178.905 9.4387 177.71 8.84121 177.71 7.18153C177.71 5.65463 178.639 4.7916 180.233 4.7916C181.76 4.7916 182.888 5.7874 182.955 7.57986H187.402C187.203 3.13192 184.548 0.941137 180.365 0.941137C175.984 0.941137 173.328 3.7294 173.328 7.57986C173.328 11.2975 175.718 13.09 179.702 14.4177C182.49 15.3472 183.618 16.2102 183.618 17.6707C183.618 19.1312 182.556 20.1934 180.697 20.1934C178.44 20.1934 177.312 18.9985 177.179 16.8077H172.731C172.864 21.0565 175.519 24.0439 180.565 24.0439C184.747 24.0439 188 21.5876 188 17.2724C188.066 13.953 186.407 11.9614 181.627 10.3681Z" fill="white"/>
</g>
</g>
<defs>
<clipPath id="clip0_2393_24586">
<rect width="188.002" height="26.0982" fill="white" transform="translate(0 0.0117188)"/>
</clipPath>
</defs>
</svg>
