<svg xmlns="http://www.w3.org/2000/svg" width="32" height="33" viewBox="0 0 32 33" fill="none">
    <g clip-path="url(#clip0_1357_7986)">
        <path fill-rule="evenodd" clip-rule="evenodd" d="M32 16.625C32 25.4616 24.8366 32.625 16 32.625C7.16344 32.625 0 25.4616 0 16.625C0 7.78844 7.16344 0.625 16 0.625C24.8366 0.625 32 7.78844 32 16.625ZM16.5734 12.4369C15.0171 13.0842 11.9068 14.4239 7.24252 16.4561C6.48511 16.7573 6.08834 17.052 6.05222 17.3401C5.99118 17.827 6.60095 18.0187 7.43129 18.2798C7.54424 18.3153 7.66127 18.3521 7.78125 18.3911C8.59818 18.6567 9.6971 18.9674 10.2684 18.9797C10.7866 18.9909 11.365 18.7773 12.0035 18.3388C16.3615 15.397 18.6112 13.9101 18.7524 13.878C18.8521 13.8554 18.9901 13.827 19.0837 13.9101C19.1772 13.9933 19.168 14.1508 19.1581 14.193C19.0977 14.4505 16.7042 16.6758 15.4655 17.8274C15.0793 18.1864 14.8054 18.441 14.7494 18.4992C14.624 18.6295 14.4962 18.7527 14.3733 18.8711C13.6144 19.6028 13.0452 20.1514 14.4048 21.0474C15.0582 21.4779 15.581 21.834 16.1026 22.1892C16.6722 22.5771 17.2404 22.964 17.9755 23.4459C18.1628 23.5687 18.3416 23.6962 18.5159 23.8204C19.1788 24.293 19.7743 24.7176 20.5101 24.6498C20.9377 24.6105 21.3793 24.2085 21.6036 23.0095C22.1336 20.1759 23.1755 14.0363 23.4163 11.5063C23.4374 11.2846 23.4108 11.001 23.3895 10.8764C23.3682 10.7519 23.3237 10.5745 23.1618 10.4431C22.9701 10.2876 22.6742 10.2548 22.5418 10.2571C21.94 10.2677 21.0167 10.5888 16.5734 12.4369Z" fill="white"/>
    </g>
    <defs>
        <clipPath id="clip0_1357_7986">
            <rect width="32" height="32" fill="white" transform="translate(0 0.625)"/>
        </clipPath>
    </defs>
</svg>
