<svg xmlns="http://www.w3.org/2000/svg" width="156" height="33" viewBox="0 0 156 33" fill="none">
    <g opacity="0.6" clip-path="url(#clip0_4701_3080)">
        <path d="M54.3616 13.7823V11.98H52.6371V10.5818H50.4154V11.98H49.623V13.7823H50.4154V17.4799C50.4154 19.7171 51.4874 20.1521 52.7769 20.1521C53.5071 20.1521 54.0043 20.0434 54.3461 19.8725V18.0547C54.0043 18.1945 53.7246 18.2411 53.3051 18.2411C52.7769 18.2411 52.6371 17.8217 52.6371 17.4643V13.7823H54.3616Z" fill="black" fill-opacity="0.6"/>
        <path d="M60.5602 11.9024C58.9134 11.9024 57.9967 13.0366 57.9346 13.5027V9.18359H55.7129V20.059H57.9346V15.5534C57.9967 15.2583 58.6958 13.7979 60.063 13.7979C60.8243 13.7979 61.3681 14.2173 61.3681 15.5534V20.059H63.5898V15.4136C63.5898 12.8657 62.0672 11.9024 60.5602 11.9024Z" fill="black" fill-opacity="0.6"/>
        <path d="M69.0431 11.8867C67.2875 11.8867 64.957 13.2228 64.957 16.0504C64.957 18.878 67.4118 20.1675 69.0897 20.1675C70.2549 20.1675 71.4822 19.6859 72.3523 18.6916L70.519 17.7594C70.2238 18.0701 69.7577 18.2566 69.1052 18.2566C68.3439 18.2566 67.4894 17.7439 67.2409 16.8583H73.0203C73.0669 16.5942 73.0825 16.3145 73.0825 16.0504C73.0825 13.2228 70.7676 11.8867 69.0431 11.8867ZM69.0431 13.8132C69.7733 13.8132 70.5812 14.2638 70.8297 15.1804H67.2719C67.5205 14.2638 68.2662 13.8132 69.0431 13.8132Z" fill="black" fill-opacity="0.6"/>
        <path d="M79.6933 9.07471C76.99 9.07471 74.209 11.343 74.209 14.6522C74.209 17.8993 76.99 20.1676 79.6933 20.1676C81.1381 20.1676 82.4121 19.6238 83.3443 18.7693L81.946 17.0759C81.4023 17.5264 80.6721 17.9459 79.7399 17.9459C78.062 17.9459 76.7259 16.4855 76.7259 14.6211C76.7259 12.7879 78.062 11.2964 79.7399 11.2964C80.6721 11.2964 81.3867 11.6693 81.8994 12.1198L83.3132 10.4264C82.381 9.57187 81.1381 9.07471 79.6933 9.07471Z" fill="black" fill-opacity="0.6"/>
        <path d="M89.4529 11.9023C87.7595 11.9023 87.0138 13.0831 86.8429 14.5746V11.98H84.6367V20.0589H86.8429V16.5632C86.9827 15.0096 88.0547 13.9842 89.4374 13.9842C89.7326 13.9842 89.9501 13.9842 90.2142 14.0308V11.9645C90.0278 11.9179 89.7326 11.9023 89.4529 11.9023Z" fill="black" fill-opacity="0.6"/>
        <path d="M97.4447 11.98L95.3162 17.2468L93.0324 11.98H90.8418L94.2598 19.8413L92.9858 23.0107H95.1609L99.6353 11.98H97.4447Z" fill="black" fill-opacity="0.6"/>
        <path d="M105.017 11.8867C103.743 11.8867 102.95 12.5858 102.95 12.9276V11.9799H100.729V23.0107H102.95V18.9868C102.95 19.2975 103.743 20.1675 105.017 20.1675C106.71 20.1675 108.807 18.847 108.807 16.0038C108.807 13.2539 106.726 11.8867 105.017 11.8867ZM104.659 18.2566C103.727 18.2566 102.841 17.6351 102.841 16.0038C102.841 14.357 103.727 13.7821 104.659 13.7821C105.638 13.7821 106.586 14.6056 106.586 16.0038C106.586 17.4487 105.638 18.2566 104.659 18.2566Z" fill="black" fill-opacity="0.6"/>
        <path d="M114.653 13.7823V11.98H112.928V10.5818H110.706V11.98H109.914V13.7823H110.706V17.4799C110.706 19.7171 111.778 20.1521 113.068 20.1521C113.798 20.1521 114.295 20.0434 114.637 19.8725V18.0547C114.295 18.1945 114.016 18.2411 113.596 18.2411C113.068 18.2411 112.928 17.8217 112.928 17.4643V13.7823H114.653Z" fill="black" fill-opacity="0.6"/>
        <path d="M119.597 11.8867C117.92 11.8867 115.465 13.2228 115.465 16.0504C115.465 18.878 117.92 20.1675 119.597 20.1675C121.26 20.1675 123.715 18.878 123.715 16.0504C123.715 13.2228 121.26 11.8867 119.597 11.8867ZM119.597 13.7821C120.514 13.7821 121.493 14.559 121.493 16.0504C121.493 17.4953 120.514 18.2566 119.597 18.2566C118.665 18.2566 117.687 17.4953 117.687 16.0504C117.687 14.559 118.665 13.7821 119.597 13.7821Z" fill="black" fill-opacity="0.6"/>
        <path d="M127.246 17.6506H124.791V20.0588H127.246V17.6506Z" fill="black" fill-opacity="0.6"/>
        <path d="M132.101 11.8867C130.408 11.8867 128.326 13.2539 128.326 16.0038C128.326 18.847 130.408 20.1675 132.101 20.1675C133.391 20.1675 134.168 19.2975 134.183 18.9868V20.0588H136.405V11.9799H134.183V12.9276C134.168 12.5858 133.391 11.8867 132.101 11.8867ZM132.474 13.7821C133.407 13.7821 134.277 14.357 134.277 16.0038C134.277 17.6351 133.407 18.2566 132.474 18.2566C131.496 18.2566 130.548 17.4487 130.548 16.0038C130.548 14.6056 131.496 13.7821 132.474 13.7821Z" fill="black" fill-opacity="0.6"/>
        <path d="M142.296 11.8867C141.022 11.8867 140.229 12.5858 140.229 12.9276V11.9799H138.008V23.0107H140.229V18.9868C140.229 19.2975 141.022 20.1675 142.296 20.1675C143.989 20.1675 146.087 18.847 146.087 16.0038C146.087 13.2539 144.005 11.8867 142.296 11.8867ZM141.938 18.2566C141.006 18.2566 140.121 17.6351 140.121 16.0038C140.121 14.357 141.006 13.7821 141.938 13.7821C142.917 13.7821 143.865 14.6056 143.865 16.0038C143.865 17.4487 142.917 18.2566 141.938 18.2566Z" fill="black" fill-opacity="0.6"/>
        <path d="M151.747 11.8867C150.473 11.8867 149.681 12.5858 149.681 12.9276V11.9799H147.459V23.0107H149.681V18.9868C149.681 19.2975 150.473 20.1675 151.747 20.1675C153.44 20.1675 155.538 18.847 155.538 16.0038C155.538 13.2539 153.456 11.8867 151.747 11.8867ZM151.39 18.2566C150.457 18.2566 149.572 17.6351 149.572 16.0038C149.572 14.357 150.457 13.7821 151.39 13.7821C152.368 13.7821 153.316 14.6056 153.316 16.0038C153.316 17.4487 152.368 18.2566 151.39 18.2566Z" fill="black" fill-opacity="0.6"/>
        <path d="M28.0452 8.03125L34.3453 11.6646L41.2703 7.6646L28.0452 0.03125L14.1953 8.03125L21.1203 12.0312L28.0452 8.03125Z" fill="black" fill-opacity="0.6"/>
        <path d="M34.9783 12.7646V20.0313L28.0449 24.0313V32.0313L41.9032 24.0313V8.76465L34.9783 12.7646Z" fill="black" fill-opacity="0.6"/>
        <path d="M14.1957 24.0312L7.89569 20.3979L0.970703 24.3979L14.1957 32.0312L28.0457 24.0312L21.1207 20.0312L14.1957 24.0312Z" fill="black" fill-opacity="0.6"/>
        <path d="M7.26094 12.0312L14.1943 8.03125V0.03125L0.335938 8.03125V23.2978L7.26094 19.2979V12.0312Z" fill="black" fill-opacity="0.6"/>
    </g>
    <defs>
        <clipPath id="clip0_4701_3080">
            <rect width="155.362" height="32" fill="white" transform="translate(0.255859 0.03125)"/>
        </clipPath>
    </defs>
</svg>
