<svg xmlns="http://www.w3.org/2000/svg" width="145" height="36" viewBox="0 0 145 36" fill="none">
    <g clip-path="url(#clip0_4773_3025)">
        <path fill-rule="evenodd" clip-rule="evenodd" d="M0.561886 0.706076C4.15885 5.11574 8.10823 10.6556 8.74702 11.5517C8.78109 11.5994 8.80573 11.634 8.82042 11.6545C9.16093 12.1299 9.44205 12.4833 9.65553 12.7517C10.1295 13.3475 10.2701 13.5243 9.98731 13.6867C9.75921 13.8176 9.5239 13.8608 9.28911 13.8608C9.02353 13.8608 8.72433 13.7316 8.50647 13.5229C8.35248 13.3754 7.29879 11.8296 5.86398 9.58089C4.76616 7.86024 3.84741 6.43289 3.82234 6.40899C3.7644 6.35372 3.76539 6.35559 5.75205 9.94605C6.99949 12.2006 7.8528 13.8667 7.8528 13.9733C7.8528 14.1901 7.79422 14.3041 7.52943 14.6024C7.08801 15.0999 6.89067 15.6588 6.74823 16.8155C6.58854 18.1121 6.1395 19.0281 4.89507 20.5956C4.16662 21.5133 4.04743 21.6815 3.86362 22.0514C3.63211 22.5171 3.56844 22.778 3.54264 23.3661C3.51537 23.988 3.56848 24.3897 3.75657 24.9842C3.92124 25.5047 4.09311 25.8485 4.5325 26.5359C4.9117 27.129 5.13004 27.5699 5.13004 27.7424C5.13004 27.8796 5.15598 27.8798 5.74357 27.7458C7.14976 27.425 8.29158 26.861 8.93376 26.1696C9.3312 25.7417 9.42451 25.5054 9.42753 24.9191C9.42952 24.5355 9.41616 24.4553 9.31353 24.2346C9.14644 23.8754 8.84227 23.5769 8.17188 23.114C7.29346 22.5074 6.91828 22.0191 6.81465 21.3476C6.72964 20.7966 6.82827 20.4078 7.31421 19.3791C7.81717 18.3143 7.94182 17.8605 8.02614 16.7871C8.08059 16.0937 8.15601 15.8202 8.35326 15.6008C8.55898 15.3719 8.74417 15.2943 9.25327 15.224C10.0833 15.1095 10.6118 14.8926 11.0462 14.4882C11.4231 14.1375 11.5808 13.7994 11.605 13.2906L11.6234 12.905L11.4128 12.657C10.6501 11.7587 0.0511314 0 0.00419654 0C-0.00583009 0 0.24514 0.317756 0.561886 0.706076ZM5.55817 24.0698C5.73061 23.7612 5.63899 23.3648 5.35054 23.171C5.07801 22.988 4.65465 23.0742 4.65465 23.3127C4.65465 23.3855 4.69449 23.4384 4.78431 23.4852C4.93552 23.5638 4.9465 23.6522 4.82752 23.8328C4.70703 24.0158 4.71675 24.1766 4.85496 24.2858C5.07771 24.462 5.39302 24.3651 5.55817 24.0698ZM10.7484 7.24868C10.4082 7.19537 10.3938 7.18911 10.5539 7.16426C10.8608 7.11659 11.5853 7.18155 12.0846 7.30148C13.2503 7.58133 14.3109 8.29827 15.4431 9.57156L15.7439 9.90983L16.1742 9.83996C17.987 9.5457 19.8311 9.77955 21.3735 10.4993C21.7979 10.6973 22.4669 11.0914 22.5504 11.1927C22.577 11.225 22.626 11.4328 22.659 11.6545C22.7736 12.4216 22.7163 13.0096 22.484 13.4487C22.3577 13.6877 22.3506 13.7634 22.4355 13.968C22.5033 14.1312 22.6925 14.2519 22.8798 14.2517C23.2631 14.2512 23.6756 13.6253 23.8668 12.7545L23.9427 12.4085L24.0932 12.5807C24.9182 13.5249 25.5663 14.8126 25.6776 15.7292L25.7066 15.9681L25.568 15.7509C25.3292 15.3771 25.0895 15.1226 24.7823 14.9173C24.2288 14.5473 23.6433 14.4214 22.0932 14.3389C20.6931 14.2644 19.9008 14.1436 19.1151 13.8848C17.7782 13.4445 17.1044 12.8582 15.5163 10.7538C14.811 9.81909 14.3751 9.30194 13.9414 8.88546C12.956 7.93916 11.9878 7.44287 10.7484 7.24868ZM22.8662 9.33566C22.9014 8.70932 22.9856 8.29619 23.1546 7.91891C23.2215 7.76957 23.2842 7.64733 23.2938 7.64733C23.3036 7.64733 23.2745 7.75757 23.2292 7.89227C23.1063 8.25843 23.0861 8.75924 23.1708 9.34191C23.2782 10.0812 23.3394 10.1879 24.113 10.9865C24.4758 11.3611 24.8979 11.8336 25.0509 12.0364L25.3292 12.4052L25.0509 12.1416C24.7107 11.8193 23.9283 11.1907 23.7555 11.1008C23.6396 11.0406 23.6223 11.0416 23.5509 11.1135C23.4851 11.1797 23.4711 11.2792 23.462 11.7496C23.4477 12.4828 23.3489 12.9533 23.1101 13.4239C22.9809 13.6784 22.9605 13.624 23.0774 13.3368C23.1647 13.1223 23.1735 13.028 23.1729 12.3183C23.1716 10.8923 23.0039 10.5495 22.0209 9.96218C21.7721 9.81341 21.3617 9.59885 21.1092 9.48534C20.8569 9.37185 20.6564 9.273 20.6636 9.26562C20.6915 9.23763 21.6501 9.52025 22.0359 9.67014C22.6098 9.89313 22.7045 9.92204 22.7742 9.89513C22.8209 9.8771 22.8435 9.73967 22.8662 9.33566ZM10.3837 8.24088C10.2912 9.34184 10.7186 10.8146 11.4093 11.7752C11.9448 12.5198 12.7749 13.0984 13.3877 13.1543C13.7889 13.1909 13.9095 13.064 13.728 12.7963C13.476 12.4245 13.166 11.8521 13.084 11.607C13.033 11.4548 12.9223 11.005 12.8379 10.6076C12.5497 9.25089 12.2665 8.72253 11.6123 8.32122C11.3739 8.17496 10.8648 7.98356 10.5696 7.92917L10.4124 7.90017L10.3837 8.24088ZM22.0284 18.9242C18.8003 17.6114 17.6632 16.4718 17.6632 14.5491C17.6632 14.2661 17.673 14.0346 17.6847 14.0346C17.6966 14.0346 17.8214 14.128 17.9622 14.2421C18.6168 14.7724 19.3499 14.999 21.3792 15.2979C22.5732 15.474 23.2452 15.6161 23.8652 15.8238C25.8354 16.4838 27.0545 17.8232 27.3452 19.6476C27.4296 20.1777 27.3801 21.1718 27.2432 21.6957C27.135 22.1096 26.805 22.8554 26.7176 22.884C26.6933 22.892 26.6694 22.7981 26.6633 22.6703C26.6301 21.9852 26.2874 21.3183 25.7118 20.8187C25.0574 20.2506 24.1781 19.7985 22.0284 18.9242ZM19.6062 18.7797C19.6515 18.9161 19.7217 19.2264 19.7621 19.4696C20.0207 21.0239 19.2129 22.2797 17.6417 22.7663C17.4753 22.8177 16.8201 22.9473 16.1856 23.054C14.9012 23.27 14.328 23.423 13.7521 23.7032C13.3437 23.9019 12.8492 24.1995 12.8786 24.2291C12.8881 24.2387 12.9813 24.2162 13.0857 24.1791C13.8119 23.9216 14.6202 23.7882 15.8481 23.7237C16.3355 23.6982 16.8897 23.6574 17.0799 23.6333C18.1739 23.4941 18.9321 23.1584 19.5218 22.5522C19.8498 22.2149 20.0454 21.9006 20.2031 21.4575C20.303 21.1764 20.3165 21.072 20.3172 20.574C20.3181 20.0666 20.306 19.9737 20.1977 19.6616C20.0559 19.2524 19.8887 18.9453 19.6769 18.7052L19.5239 18.5318L19.6062 18.7797ZM21.242 22.1241C20.813 21.1928 20.7146 20.2937 20.9495 19.4552C20.9747 19.3655 21.015 19.2921 21.0395 19.2921C21.0638 19.2921 21.1649 19.3475 21.2643 19.415C21.4619 19.5494 21.8583 19.7757 22.9143 20.3573C24.2322 21.083 24.9836 21.6449 25.4945 22.287C25.9419 22.8492 26.2188 23.4896 26.352 24.2705C26.4276 24.7128 26.3834 25.7772 26.271 26.2226C25.9167 27.627 25.0932 28.7301 23.9187 29.3739C23.7467 29.4681 23.5922 29.5455 23.5754 29.546C23.5587 29.5463 23.6214 29.3853 23.7147 29.1881C24.1098 28.3538 24.1548 27.5423 23.8562 26.6391C23.6732 26.0861 23.3003 25.4112 22.5473 24.2706C21.6719 22.9446 21.4572 22.5917 21.242 22.1241ZM13.163 25.1787C11.8053 25.4015 10.3148 26.1272 9.11688 27.1488L8.76024 27.453L9.07366 27.5025C10.7093 27.7604 11.1497 27.9891 12.2842 29.1696C12.9371 29.8488 13.1576 30 13.6991 30.1397C14.4945 30.3447 15.2786 29.9679 15.5475 29.2512C15.6677 28.931 15.6516 28.4007 15.5138 28.1345C15.1859 27.5004 14.2305 27.2955 13.7686 27.7599C13.3838 28.1468 13.4959 28.7295 13.9745 28.8297C14.084 28.8528 14.0809 28.8479 13.9466 28.7865C13.7371 28.6908 13.6461 28.5582 13.645 28.3472C13.6423 27.8523 14.2029 27.5745 14.7245 27.8121C15.1064 27.9863 15.258 28.2137 15.258 28.6124C15.258 29.2263 14.7407 29.6889 14.1387 29.6133C13.8169 29.5728 13.4233 29.3649 13.2123 29.124C12.6813 28.5176 12.8882 27.5606 13.6295 27.1934C14.1939 26.9139 14.9441 26.9828 15.5259 27.3675C16.1943 27.8097 16.4785 28.2138 17.0543 29.5401C17.2418 29.972 17.483 30.4581 17.5902 30.6204C18.1356 31.445 18.789 31.8494 19.5761 31.8494C20.0102 31.8494 20.3367 31.7693 20.7476 31.5621C21.0528 31.4081 21.4856 31.1154 21.4544 31.0841C21.4455 31.0752 21.3189 31.115 21.173 31.1724C20.3136 31.511 19.44 31.4877 18.9327 31.1126C18.6132 30.8765 18.3555 30.4061 18.2231 29.8178C18.2001 29.7159 18.1245 29.2662 18.0549 28.8183C17.8785 27.6831 17.7092 27.1728 17.3142 26.5872C16.9101 25.9881 16.1333 25.4853 15.2648 25.2608C14.7229 25.1207 13.7481 25.0826 13.163 25.1787ZM11.2615 16.4018C11.3787 15.9644 11.7575 15.5472 12.1472 15.4263C12.3949 15.3495 12.9071 15.3986 13.1479 15.5222C13.6146 15.7619 13.9533 16.3077 13.8798 16.7018C13.7902 17.1822 13.0188 17.5667 12.1314 17.573C11.6782 17.5761 11.5108 17.5146 11.3377 17.2812C11.2306 17.1366 11.19 16.6686 11.2615 16.4018ZM13.0287 15.6935C13.2615 15.837 13.3213 16.0493 13.1845 16.2456C13.0902 16.3809 12.7984 16.5095 12.5852 16.5095C12.2648 16.5095 11.9153 16.2797 11.9153 16.0692C11.9153 15.6464 12.5855 15.42 13.0287 15.6935ZM82.5837 16.9043C81.8598 14.4964 83.0537 12.4991 85.601 11.8573C86.3315 11.6731 89.6394 11.7562 90.2061 11.9731C90.4143 12.0525 90.5049 12.3575 90.5069 12.9842C90.5082 13.4778 90.5621 14.0772 90.6263 14.3163C90.7238 14.6786 90.6668 14.7499 90.2844 14.7441C89.9385 14.7387 89.7294 14.536 89.4374 13.9228C88.971 12.9434 88.4063 12.6319 87.0903 12.6282C85.4103 12.6234 84.1811 13.7545 84.3812 15.1212C84.5115 16.0106 85.4001 16.8857 87.3942 18.0887C89.2916 19.233 90.399 20.1741 90.8402 21.0173C92.0201 23.2715 91.0125 25.6838 88.3838 26.8992C87.0344 27.5231 84.7728 27.5876 83.1828 27.0476L82.1646 26.7017V25.0748C82.1646 23.6013 82.1997 23.4476 82.5356 23.4476C82.8165 23.4476 82.9379 23.6333 83.0364 24.215C83.2818 25.6614 84.381 26.5395 85.9466 26.5395C87.4802 26.5395 88.5522 25.7016 88.9629 24.1823C89.1378 23.535 89.1077 23.2964 88.7607 22.5824C88.3449 21.7263 87.629 21.1583 85.1973 19.7555C83.8481 18.977 82.8939 17.9361 82.5837 16.9043ZM34.9167 12.8186C34.5849 12.8186 34.4555 12.7101 34.4555 12.432C34.4555 12.0639 34.5849 12.0455 37.1849 12.0455C39.5981 12.0455 39.9069 12.0819 39.8516 12.3588C39.8169 12.5312 39.4835 12.7703 39.1101 12.8903L38.4312 13.1084L38.3733 18.0365C38.3345 21.3248 38.3891 23.2217 38.5371 23.7374C38.9774 25.2711 40.3203 26.1531 42.2151 26.1531C43.5342 26.1531 44.3048 25.8447 45.2729 24.9288C46.3142 23.9442 46.4802 23.0087 46.4769 18.1463C46.4738 13.35 46.3902 12.9542 45.3602 12.8547C44.8914 12.8093 44.7344 12.7001 44.7344 12.4199C44.7344 12.0705 44.889 12.0455 47.0616 12.0455C49.2596 12.0455 49.3889 12.067 49.3889 12.432C49.3889 12.6701 49.2585 12.8197 49.0494 12.8214C48.1512 12.8294 48.1347 12.9148 48.0138 18.174C47.8884 23.6355 47.7713 24.2822 46.6644 25.62C46.3452 26.006 45.584 26.5664 44.9729 26.8655C43.977 27.3528 43.6602 27.4088 41.9222 27.4056C40.32 27.4023 39.8142 27.3249 39.0131 26.9603C37.8437 26.4279 37.0832 25.739 36.5225 24.7037C36.1311 23.981 36.0977 23.5899 36.0071 18.6935C35.9033 13.0887 35.853 12.8186 34.9167 12.8186ZM53.0646 12.8186C52.6212 12.8186 52.4919 12.7312 52.4919 12.432C52.4919 12.0697 52.6158 12.0465 54.4797 12.0614L56.4677 12.0772L57.4188 13.1726C57.9416 13.775 59.6462 15.6594 61.2063 17.36C62.7666 19.0607 64.5579 21.039 65.1869 21.7565C65.816 22.4741 66.408 23.061 66.5027 23.061C66.5999 23.061 66.6483 21.0342 66.6137 18.4059L66.5525 13.7508L66.0083 13.2847C65.709 13.0282 65.2511 12.8186 64.9902 12.8186C64.6433 12.8186 64.5162 12.7134 64.5162 12.4266C64.5162 12.0492 64.6152 12.0366 67.1828 12.0884C69.366 12.1325 69.8495 12.1934 69.8495 12.4241C69.8495 12.5886 69.5795 12.7612 69.2012 12.8383C68.8448 12.911 68.4519 13.071 68.3285 13.1939C68.1692 13.3525 68.088 15.404 68.0486 20.2683L67.9929 27.1193H67.4309C66.947 27.1193 66.371 26.5748 63.2915 23.2059C61.3239 21.0534 59.0273 18.4953 58.1879 17.5212C57.3483 16.547 56.5961 15.7425 56.5161 15.7337C56.291 15.7085 56.3454 24.4124 56.5757 25.2386C56.7552 25.8824 56.8787 25.9932 57.6414 26.1966C58.2557 26.3603 58.5041 26.5263 58.5041 26.7729C58.5041 27.0896 58.2699 27.1193 55.7889 27.1193C53.2634 27.1193 53.0738 27.0941 53.0738 26.757C53.0738 26.5103 53.2565 26.3583 53.6468 26.2805C54.831 26.0445 54.9096 25.67 54.9761 19.9445C55.0133 16.7378 54.9587 14.4941 54.8316 14.0243C54.6084 13.1981 54.0522 12.8186 53.0646 12.8186ZM73.4004 12.8186C72.9849 12.8186 72.8556 12.7268 72.8556 12.432C72.8556 12.0627 72.9849 12.0455 75.7647 12.0455C78.5444 12.0455 78.6738 12.0627 78.6738 12.432C78.6738 12.7156 78.5444 12.8186 78.1889 12.8186C77.9223 12.8186 77.526 12.996 77.3084 13.2128C76.9242 13.5956 76.9143 13.786 76.9691 19.7027C77.0223 25.4784 77.0451 25.8126 77.4017 26.0723C77.6088 26.223 77.9796 26.3463 78.2259 26.3463C78.5444 26.3463 78.6738 26.4578 78.6738 26.7329C78.6738 27.1022 78.5444 27.1193 75.7647 27.1193C73.0511 27.1193 72.8556 27.095 72.8556 26.7576C72.8556 26.4855 73.046 26.3654 73.6239 26.2733C74.7716 26.0904 74.8302 25.716 74.7587 19.0352C74.7015 13.6849 74.6769 13.3514 74.3216 13.0926C74.1144 12.9419 73.7 12.8186 73.4004 12.8186ZM93.6929 12.8186C93.4275 12.8186 93.2258 12.6715 93.1629 12.432C93.0651 12.0583 93.1572 12.0455 95.9526 12.0455C98.7141 12.0455 98.8434 12.0627 98.8434 12.432C98.8434 12.7291 98.7141 12.8186 98.2853 12.8186C97.0644 12.8186 97.0919 13.0396 98.9397 18.0936C99.8801 20.6663 100.793 23.1101 100.969 23.5242L101.288 24.2774L102.769 20.3355C104.513 15.6956 104.739 14.8375 104.443 13.9912C104.237 13.4014 103.434 12.8186 102.829 12.8186C102.658 12.8186 102.528 12.6524 102.528 12.432C102.528 12.0622 102.658 12.0455 105.534 12.0455C108.411 12.0455 108.54 12.0622 108.54 12.432C108.54 12.7071 108.411 12.8186 108.093 12.8186C107.277 12.8186 106.918 13.2518 107.035 14.0937C107.156 14.9602 110.491 24.2736 110.631 24.1343C110.859 23.9076 114.553 13.8816 114.553 13.4909C114.553 13.0226 114.224 12.8186 113.47 12.8186C113.13 12.8186 113.001 12.7121 113.001 12.432C113.001 12.067 113.13 12.0455 115.328 12.0455C117.302 12.0455 117.656 12.0912 117.656 12.3455C117.656 12.5105 117.414 12.7295 117.118 12.8321C116.453 13.063 116.286 13.3266 115.452 15.4619C115.086 16.3995 113.94 19.3341 112.905 21.9828C111.871 24.6318 110.979 26.9147 110.925 27.0558C110.871 27.1971 110.55 27.3126 110.212 27.3126H109.598L108.205 23.6891C107.439 21.6963 106.534 19.3353 106.194 18.4425C105.611 16.9127 105.562 16.8462 105.343 17.2829C105.215 17.538 104.294 19.9032 103.297 22.539L101.484 27.3315L100.808 27.2738L100.131 27.216L97.5501 20.4672C96.1083 16.6967 94.7825 13.5197 94.5455 13.2685C94.3121 13.0209 93.9285 12.8186 93.6929 12.8186ZM132.471 12.9005C132.439 12.8271 132.439 12.5633 132.439 12.5633C132.439 12.5633 132.432 12.4681 132.472 12.4174C132.512 12.3668 132.526 12.3654 132.668 12.3519L132.67 12.3517C133.193 12.3019 134.244 12.2181 135.121 12.1799C135.201 12.1763 135.29 12.1723 135.387 12.1679L135.389 12.1678L135.39 12.1677L135.391 12.1677C136.356 12.1239 138.083 12.0654 139.269 12.1247C141.546 12.2385 143.166 13.3391 143.718 15.158C144.27 16.9767 143.978 18.684 143.226 19.7708C142.473 20.8575 141.208 21.7932 139.106 21.7323C137.37 21.6821 136.905 21.357 136.534 21.0974C136.456 21.0425 136.382 20.9904 136.3 20.9447V23.2641C136.319 24.846 136.332 25.6058 136.454 25.887C136.619 26.2656 136.992 26.4989 137.719 26.6777C137.719 26.6777 138.048 26.7548 138.133 26.837C138.218 26.9192 138.218 27.1017 138.218 27.1017C138.218 27.1017 138.235 27.2724 138.167 27.3594C138.099 27.4464 137.967 27.429 137.967 27.429L134.748 27.4031L132.807 27.398C132.807 27.398 132.604 27.437 132.527 27.3551C132.451 27.273 132.458 27.1022 132.458 27.1022C132.458 27.1022 132.475 26.9181 132.564 26.8358C132.653 26.7533 132.984 26.6612 132.984 26.6612C133.733 26.451 134.058 26.2287 134.227 25.8099C134.364 25.4723 134.365 24.8462 134.363 19.7367C134.362 14.8912 134.355 13.9874 134.244 13.7274C134.079 13.3426 133.668 13.2407 133.082 13.0955L133.081 13.0955C132.965 13.0667 132.842 13.0362 132.713 13.0015C132.713 13.0015 132.504 12.9739 132.471 12.9005ZM141.844 16.8543C141.844 17.6489 141.83 18.8928 140.985 19.688C140.139 20.4831 138.473 20.7008 137.343 20.4794C136.986 20.4096 136.783 20.3021 136.626 20.2191L136.61 20.2109L136.32 20.0585L136.304 17.2668C136.293 15.5177 136.311 14.378 136.353 14.2151C136.39 13.2928 137.751 13.1781 138.416 13.2122C141.259 13.2122 141.761 15.6084 141.844 16.8543ZM123.541 12.1538C123.541 12.1538 123.402 12.2071 123.192 12.2869L122.432 12.6791L121.886 14.0442C121.585 14.795 121.035 16.1733 120.663 17.1071C119.986 18.8078 119.539 19.9251 119.069 21.0914C118.931 21.4344 118.513 22.479 118.141 23.4128C117.768 24.3464 117.396 25.235 117.314 25.3874C117.3 25.4127 117.286 25.44 117.27 25.4688C117.062 25.86 116.701 26.5395 116.062 26.6423C116.062 26.6423 115.711 26.6768 115.581 26.8052C115.451 26.9337 115.464 27.0387 115.464 27.0387V27.2006C115.464 27.2006 115.475 27.279 115.549 27.318C115.623 27.3572 115.722 27.3594 115.722 27.3594L118.058 27.3329H120.472C120.472 27.3329 120.643 27.3528 120.709 27.2982C120.775 27.2436 120.793 27.1626 120.793 27.1626V26.9922C120.793 26.9922 120.759 26.8074 120.664 26.7353C120.568 26.6633 120.21 26.6139 120.21 26.6139C119.243 26.4869 119.077 25.7559 119.196 25.0986C119.255 24.7757 119.643 23.5811 120.081 22.3784L120.232 21.9627L122.761 21.9434C124.153 21.9327 125.354 21.9399 125.431 21.9594C125.54 21.9872 125.694 22.2993 126.146 23.4111C126.829 25.0956 126.884 25.3008 126.733 25.616C126.723 25.6352 126.714 25.6563 126.703 25.6791C126.561 25.9839 126.285 26.5761 125.59 26.6364C125.59 26.6364 125.221 26.6492 125.129 26.7594C125.038 26.8698 125.058 26.9967 125.058 26.9967V27.1653C125.058 27.1653 125.082 27.2642 125.129 27.3033C125.177 27.3425 125.257 27.3326 125.257 27.3326L127.553 27.3161L130.781 27.3159C130.781 27.3159 130.907 27.3294 130.942 27.2808C130.976 27.2321 130.983 27.1748 130.983 27.1748V26.9508C130.983 26.9508 130.969 26.8317 130.907 26.766C130.845 26.7005 130.426 26.6312 130.426 26.6312C129.892 26.5449 129.626 26.1036 129.427 25.775C129.377 25.6911 129.33 25.6146 129.285 25.5533C129.194 25.428 128.865 24.7416 128.608 24.0815C128.351 23.4213 127.771 21.93 127.32 20.7677C126.868 19.6053 126.237 17.9838 125.919 17.1645C125.6 16.3451 124.994 14.786 124.573 13.6998C124.503 13.5215 124.441 13.3614 124.386 13.218L124.386 13.2174C124.103 12.488 123.989 12.1936 123.958 12.1538C123.856 12.0244 123.541 12.1538 123.541 12.1538ZM123.391 16.5924C123.289 16.3448 123.11 15.9005 122.993 15.6051C122.78 15.0683 122.699 14.9446 122.633 15.0555C122.613 15.0879 122.479 15.4548 122.335 15.8709C121.399 18.5649 120.975 19.778 120.89 20.0066C120.836 20.1503 120.793 20.2983 120.793 20.3357C120.793 20.3786 121.554 20.4036 122.859 20.4036C123.995 20.4036 124.924 20.3895 124.924 20.3723C124.924 20.355 124.823 20.0979 124.699 19.8006C124.575 19.5033 124.272 18.7613 124.025 18.1515C123.778 17.5418 123.493 16.8402 123.391 16.5924Z" fill="white"/>
    </g>
    <defs>
        <clipPath id="clip0_4773_3025">
            <rect width="144.15" height="36" fill="white"/>
        </clipPath>
    </defs>
</svg>
