<svg width="110" height="40" viewBox="0 0 110 40" fill="none" xmlns="http://www.w3.org/2000/svg">
<g id="yahoo! Finance" clip-path="url(#clip0_4862_11903)">
<path id="Vector" fill-rule="evenodd" clip-rule="evenodd" d="M39.1667 12.037V24.0741H42.1296H45.0926V19.4444C45.0926 16.3889 45.0926 14.7222 45.0926 14.537C45.1852 14.0741 45.2778 13.6111 45.5556 13.2407C45.9259 12.5926 46.5741 12.3148 47.3148 12.4074C48.3333 12.5 48.9815 13.0556 49.1667 14.2593C49.1667 14.4444 49.1667 16.2963 49.1667 19.2593V23.9815H52.1296H55.0926V18.4259C55.0926 13.7037 55.0926 12.7778 55 12.3148C54.8148 10.6481 54.2593 9.35185 53.2407 8.42593C52.4074 7.59259 51.3889 7.12963 50.1852 6.94444C49.7222 6.85185 48.4259 6.94444 48.0556 7.03704C46.9445 7.31481 46.1111 7.68519 45.3704 8.51852L44.9074 8.88889V4.44444V0H41.9445H38.9815V12.037H39.1667ZM102.13 0.185186C101.944 0.555556 95.9259 15.0926 95.9259 15.0926C95.9259 15.0926 97.5 15.0926 99.4445 15.0926H102.963L106.111 7.59259C107.87 3.42593 109.259 0 109.259 0C109.259 0 107.685 0 105.741 0H102.222L102.13 0.185186ZM26.2037 7.03704C24.9074 7.22222 23.8889 7.59259 22.8704 8.24074C20.8333 9.53704 19.537 11.7593 19.1667 14.3519C18.9815 15.5556 19.0741 17.037 19.3519 18.1481C20.0926 21.0185 22.037 23.2407 24.537 24.0741C25.463 24.3519 25.8333 24.4444 26.9444 24.4444C27.7778 24.4444 28.0556 24.4444 28.3333 24.3519C29.537 24.0741 30.3704 23.6111 31.1111 22.8704L31.4815 22.5V23.2407V23.9815H34.3519H37.2222V15.6482V7.31482H34.3519H31.4815V8.05556V8.7963L31.2037 8.51852C30.5556 7.77778 29.6296 7.31481 28.4259 7.03704C28.0556 6.94444 27.8704 6.94444 27.1296 6.94444C26.6667 7.03704 26.2963 7.03704 26.2037 7.03704ZM63.9815 7.03704C62.4074 7.22222 60.7407 7.96296 59.537 8.88889C57.2222 10.8333 56.0185 13.8889 56.4815 17.037C56.9445 20.5556 59.4445 23.2407 62.963 24.1667C63.7037 24.3519 64.4445 24.4444 65.3704 24.4444C67.037 24.4444 68.2407 24.1667 69.537 23.5185C72.1296 22.2222 73.7963 19.9074 74.1667 17.037C74.2593 16.2963 74.2593 15.0926 74.1667 14.4444C73.9815 13.0556 73.4259 11.6667 72.5926 10.5556C72.2222 10.0926 71.4815 9.25926 71.0185 8.88889C69.7222 7.87037 68.2408 7.22222 66.5741 7.03704C65.9259 6.94444 64.6296 6.94444 63.9815 7.03704ZM82.8704 7.03704C81.2963 7.22222 79.7222 7.87037 78.5185 8.88889C78.0556 9.25926 77.2222 10.0926 76.9445 10.5556C76.1111 11.6667 75.6482 13.0556 75.3704 14.4444C75.2778 15.0926 75.2778 16.3889 75.3704 17.037C75.9259 20.7407 78.6111 23.6111 82.3148 24.3519C83.0556 24.537 83.4259 24.537 84.2593 24.537C85.8333 24.537 87.2222 24.2593 88.5185 23.5185C91.9445 21.7593 93.7963 17.8704 92.963 13.8889C92.2222 10.1852 89.2593 7.5 85.463 7.03704C84.8148 6.94444 83.5185 6.94444 82.8704 7.03704ZM0 7.40741C0 7.40741 1.57407 11.2037 3.51852 15.8333C5.46296 20.463 7.03704 24.2593 7.03704 24.2593C7.03704 24.2593 6.48148 25.6481 5.74074 27.3148C5 28.9815 4.44444 30.2778 4.44444 30.3704C4.44444 30.463 5.83333 30.3704 7.59259 30.3704H10.7407L15.463 18.9815C18.0556 12.6852 20.1852 7.59259 20.1852 7.5C20.1852 7.5 19.537 7.40741 17.037 7.5H13.8889L11.9444 12.3148C11.1111 14.9074 10.2778 17.1296 10.2778 17.1296C10.2778 17.1296 9.44445 14.9074 8.33333 12.3148L6.48148 7.5H3.24074C1.48148 7.40741 0 7.40741 0 7.40741ZM29.0741 12.4074C30.2778 12.6852 31.2037 13.6111 31.5741 14.8148C31.6667 15.2778 31.6667 16.1111 31.5741 16.5741C31.2963 17.7778 30.3704 18.7037 29.1667 18.9815C28.7037 19.0741 27.8704 19.0741 27.4074 18.9815C26.3889 18.7037 25.463 17.963 25.0926 17.037C24.6296 16.0185 24.8148 14.7222 25.3704 13.7963C26.2037 12.5926 27.5926 12.1296 29.0741 12.4074ZM66.0185 12.5C67.3148 12.6852 68.3333 13.7037 68.6111 15C68.7037 15.463 68.7037 16.2037 68.6111 16.6667C68.3333 17.8704 67.4074 18.7037 66.2963 19.0741C65.9259 19.1667 64.9074 19.1667 64.537 19.0741C63.6111 18.7963 62.8704 18.1481 62.4074 17.3148C62.1296 16.7593 62.1296 16.4815 62.1296 15.8333C62.1296 15.2778 62.2222 15 62.4074 14.537C62.6852 13.9815 63.0556 13.4259 63.6111 13.0556C64.1667 12.5 65.0926 12.3148 66.0185 12.5ZM84.8148 12.5C85.9259 12.6852 86.8519 13.4259 87.2222 14.4444C87.4074 14.9074 87.5 15.1852 87.5 15.7407C87.5 16.3889 87.4074 16.6667 87.2222 17.2222C86.8519 18.0556 86.0185 18.7037 85.0926 18.9815C84.7222 19.0741 83.7037 19.0741 83.3333 18.9815C82.2222 18.7037 81.2963 17.7778 81.0185 16.5741C80.9259 16.1111 80.9259 15.2778 81.0185 14.8148C81.3889 13.3333 82.6852 12.3148 84.1667 12.3148C84.3519 12.4074 84.6296 12.4074 84.8148 12.5ZM97.4074 16.5741C95.6482 16.7593 94.3519 18.0556 93.9815 19.7222C93.8889 20.1852 93.8889 21.0185 93.9815 21.4815C94.3519 22.963 95.463 23.9815 96.9445 24.3519C97.1296 24.3519 97.5 24.4444 97.7778 24.4444C98.8889 24.4444 99.8148 24.0741 100.556 23.3333C101.389 22.5 101.667 21.6667 101.667 20.5556C101.667 19.1667 101.019 17.963 99.9074 17.3148C99.1667 16.6667 98.1482 16.4815 97.4074 16.5741ZM48.6111 25.6481C47.4074 26.0185 46.8519 27.4074 47.5 28.4259C47.6852 28.7037 48.0556 29.0741 48.3333 29.1667C48.6111 29.2593 48.6111 29.2593 49.1667 29.2593C49.6296 29.2593 49.7222 29.2593 50 29.1667C50.3704 28.9815 50.7407 28.6111 50.9259 28.2407C51.3889 27.3148 50.9259 26.2037 50 25.7407C49.7222 25.5556 49.6296 25.5556 49.2593 25.5556C48.8889 25.5556 48.7963 25.5556 48.6111 25.6481ZM43.6111 25.7407C42.037 26.0185 41.0185 27.037 40.5556 28.7037C40.463 28.9815 40.463 29.2593 40.463 29.6296V30.2778H39.8148H39.1667V31.6667V33.0556H39.8148H40.463V36.3889V39.7222H42.2222H43.9815V36.3889V33.0556H45.1852H46.3889V31.6667V30.2778H45.1852H43.9815V30C44.0741 29.3519 44.3519 28.8889 44.9074 28.7963C45.2778 28.7037 45.8333 28.7037 46.2037 28.8889C46.3889 28.9815 46.4815 28.9815 46.4815 28.9815C46.4815 28.9815 46.4815 28.3333 46.4815 27.5V26.0185L46.2037 25.9259C45.8333 25.7407 45.3704 25.7407 44.7222 25.7407C44.2593 25.6481 43.8889 25.7407 43.6111 25.7407ZM57.6852 30.0926C56.9445 30.2778 56.3889 30.6481 56.0185 31.1111L55.8333 31.3889V30.8333V30.2778H54.0741H52.3148V35V39.7222H54.0741H55.8333V37.1296C55.8333 35.6481 55.8333 34.4444 55.8333 34.2593C55.9259 33.8889 56.1111 33.5185 56.2963 33.3333C56.7593 32.963 57.5926 33.0556 57.963 33.5185C58.2407 33.8889 58.2407 33.8889 58.2407 36.8519V39.6296H60H61.7593V36.4815C61.7593 33.1482 61.7593 32.7778 61.5741 32.1296C61.3889 31.5741 61.2037 31.1111 60.7407 30.7407C60.3704 30.3704 60 30.0926 59.4444 30C58.9815 30 58.0556 30 57.6852 30.0926ZM66.4815 30C65.9259 30.0926 65.0926 30.3704 64.6296 30.7407C63.6111 31.4815 62.963 32.5926 62.6852 33.9815C62.5926 34.537 62.5926 35.5556 62.6852 36.1111C62.8704 36.9444 63.1482 37.7778 63.6111 38.3333C64.2593 39.1667 65.0926 39.7222 66.1111 39.9074C66.6667 40 67.5926 40 68.0556 39.8148C68.6111 39.6296 68.9815 39.4444 69.4445 39.0741L69.8148 38.7037V39.1667V39.6296H71.5741H73.3333V34.9074V30.1852H71.5741H69.8148V30.6481V31.1111L69.537 31.0185C69.0741 30.5556 68.4259 30.1852 67.6852 30.0926C67.4074 30 66.7593 30 66.4815 30ZM79.9074 30.0926C79.2593 30.1852 78.6111 30.6481 78.2408 31.1111L78.0556 31.2963V30.7407V30.1852H76.2963H74.537V34.9074V39.6296H76.2963H78.0556V36.9444C78.0556 34.0741 78.0556 34.0741 78.2408 33.6111C78.4259 33.2407 78.7963 33.0556 79.1667 33.0556C79.537 33.0556 79.7222 33.1482 80 33.3333C80.3704 33.7037 80.3704 33.6111 80.3704 36.7593V39.537H82.1296H83.8889V36.1111C83.8889 32.6852 83.8889 32.6852 83.7963 32.3148C83.7037 32.1296 83.6111 31.7593 83.5185 31.4815C83.3333 31.1111 83.2407 31.0185 82.963 30.7407C82.5926 30.3704 82.3148 30.1852 81.9445 30C81.2963 30 80.5556 29.9074 79.9074 30.0926ZM89.0741 30.0926C87.5 30.3704 86.2963 31.1111 85.5556 32.4074C85.3704 32.7778 85.1852 33.2407 85 33.7037C84.9074 34.1667 84.9074 34.2593 84.9074 35C84.9074 35.8333 84.9074 36.1111 85.1852 36.7593C85.7408 38.3333 87.037 39.537 88.7963 39.9074C89.0741 40 89.3519 40 90 40C90.9259 40 91.2963 39.9074 91.9445 39.6296L92.3148 39.4444V37.8704V36.2963L92.037 36.4815C91.5741 36.7593 91.2963 36.8519 90.7408 36.8519C90.1852 36.8519 89.9074 36.8519 89.537 36.6667C89.1667 36.4815 88.8889 36.2037 88.7037 35.8333C88.6111 35.5556 88.6111 35.5556 88.6111 35.0926C88.6111 34.7222 88.6111 34.6296 88.7037 34.3519C88.9815 33.6111 89.6296 33.2407 90.5556 33.1482C91.2037 33.1482 91.4815 33.1482 92.4074 33.6111C92.4074 33.6111 92.4074 32.8704 92.4074 32.037V30.463L92.1296 30.3704C91.1111 30 90 29.9074 89.0741 30.0926ZM97.037 30.0926C94.3519 30.5556 92.6852 32.8704 92.8704 35.5556C92.963 36.4815 93.2407 37.3148 93.7037 37.963C94.3519 38.9815 95.3704 39.6296 96.6667 39.9074C97.2222 40 98.7037 40 99.3519 39.9074C100.278 39.7222 101.111 39.2593 101.759 38.6111C102.037 38.3333 102.5 37.6852 102.5 37.6852C102.5 37.6852 101.852 37.4074 101.019 37.1296L99.537 36.5741L99.3519 36.7593C99.0741 37.037 98.8889 37.1296 98.5185 37.2222C97.5 37.5 96.4815 36.9444 96.2963 36.0185V35.8333H99.537H102.778V35C102.778 34.4445 102.778 34.0741 102.685 33.8889C102.5 32.7778 102.037 32.037 101.389 31.2963C100.741 30.6482 100 30.2778 98.9815 30.0926C98.6111 30 97.5 30 97.037 30.0926ZM47.4074 35V39.7222H49.1667H50.9259V35V30.2778H49.1667H47.4074V35ZM98.4259 32.6852C98.7037 32.7778 98.7963 32.8704 99.0741 33.0556C99.2593 33.2407 99.4445 33.4259 99.4445 33.7037V33.8889H97.8704C96.1111 33.8889 96.2037 33.8889 96.3889 33.5185C96.6667 32.8704 97.5 32.5 98.4259 32.6852ZM68.5185 33.1482C68.9815 33.2407 69.537 33.7037 69.7222 34.1667C70.1852 35.1852 69.7222 36.3889 68.6111 36.7593C68.2407 36.8519 67.6852 36.8519 67.3148 36.7593C66.7593 36.5741 66.2037 36.1111 66.1111 35.5556C66.0185 35.2778 66.0185 35.1852 66.0185 34.9074C66.0185 34.537 66.0185 34.4444 66.2037 34.1667C66.5741 33.3333 67.5 32.963 68.5185 33.1482Z" fill="white"/>
</g>
<defs>
<clipPath id="clip0_4862_11903">
<rect width="109.259" height="40" fill="white"/>
</clipPath>
</defs>
</svg>
