<svg xmlns="http://www.w3.org/2000/svg" width="32" height="24" viewBox="0 0 32 24" fill="none">
    <path d="M31.7904 5.29937C31.7904 2.48687 29.7216 0.224375 27.1654 0.224375C23.7029 0.0624998 20.1716 0 16.5629 0H15.4379C11.8379 0 8.30038 0.0624999 4.83788 0.225C2.28788 0.225 0.21913 2.5 0.21913 5.3125C0.0628801 7.53687 -0.00336993 9.76188 0.000380068 11.9869C-0.00586993 14.2119 0.0649634 16.439 0.21288 18.6681C0.21288 21.4806 2.28163 23.7619 4.83163 23.7619C8.46913 23.9306 12.2004 24.0056 15.9941 23.9994C19.7941 24.0119 23.515 23.9327 27.1566 23.7619C29.7129 23.7619 31.7816 21.4806 31.7816 18.6681C31.9316 16.4369 32.0004 14.2119 31.9941 11.9806C32.0083 9.75562 31.9404 7.52854 31.7904 5.29937ZM12.9379 18.1181V5.83687L22.0004 11.9744L12.9379 18.1181Z" fill="white"/>
</svg>
