<svg xmlns="http://www.w3.org/2000/svg" width="128" height="32" viewBox="0 0 128 32" fill="none">
    <g clip-path="url(#clip0_4671_3899)">
        <path d="M20.0157 0V3.51917H25.016L0.366455 27.2501V30.7693H28.7957C29.4182 30.7693 30.0154 30.522 30.4556 30.0821C30.8959 29.6421 31.1432 29.0453 31.1432 28.4232V15.3552H27.6219V27.2501H5.46071L27.6336 5.88873V11.144H31.1549V2.46154C31.1549 1.10207 30.0529 0 28.6934 0H20.0157Z" fill="white"/>
        <path d="M3.89954 3.51868H15.8018V-0.000488281H2.72575C2.10313 -0.000488281 1.50602 0.246689 1.06576 0.68667C0.625505 1.12665 0.378174 1.7234 0.378174 2.34562V16.4222H3.89954V3.51868Z" fill="white"/>
        <mask id="mask0_4671_3899" style="mask-type:luminance" maskUnits="userSpaceOnUse" x="42" y="1" width="85" height="31">
            <path d="M126.857 1.08765H42.7638V31.0053H126.857V1.08765Z" fill="white"/>
        </mask>
        <g mask="url(#mask0_4671_3899)">
            <path d="M46.6545 8.23247V6.83447H60.473V10.4797L51.5036 20.1539H60.7298V23.848H46.1512V20.4754L55.1761 10.4168H48.824C48.537 10.4245 48.2514 10.3733 47.9848 10.2662C47.7181 10.1592 47.4759 9.99857 47.273 9.79418C47.0699 9.58978 46.9104 9.34591 46.804 9.0774C46.6978 8.80891 46.6469 8.52141 46.6545 8.23247Z" fill="white"/>
            <path d="M77.3114 15.4004C77.3114 21.2685 74.7184 24.2358 69.5951 24.2358C64.4718 24.2358 61.91 21.2685 61.91 15.4004C61.91 9.459 64.4718 6.53369 69.5951 6.53369C74.7184 6.53369 77.3114 9.46947 77.3114 15.4004ZM66.2315 15.4004C66.2662 18.7207 67.384 20.3982 69.5638 20.3982C71.7436 20.3982 72.8302 18.6508 72.8614 15.2711C72.8614 11.9509 71.7715 10.3083 69.5951 10.3083C67.3527 10.3083 66.2315 12.0138 66.2315 15.4004Z" fill="white"/>
            <path d="M83.1427 3.33949V13.1254L88.5715 6.85544H93.9032L87.8427 13.391L93.9691 23.8759H88.6514L85.5273 18.0743C84.9616 17.0747 84.6526 16.575 83.9341 16.575C83.722 16.5831 83.5212 16.6735 83.3737 16.8272C83.2263 16.9809 83.1435 17.1861 83.1427 17.3998V23.8341H78.7517V1.17261H81.0358C81.5975 1.18801 82.1314 1.42265 82.5245 1.82699C82.9176 2.23131 83.1393 2.77366 83.1427 3.33949Z" fill="white"/>
            <path d="M97.8153 26.8713C100.144 26.8713 100.974 25.7145 100.304 23.4638L94.5593 6.84863H99.3773L102.727 18.6441L105.663 8.36196C105.92 7.3659 106.59 6.84863 107.677 6.84863H110.644L103.97 26.7421C102.949 29.538 101.929 30.4992 98.4158 30.4992C97.3327 30.4992 96.7566 30.4678 96.6281 30.3734V26.8784L97.8153 26.8713Z" fill="white"/>
            <path d="M127.136 15.4004C127.136 21.2685 124.539 24.2358 119.416 24.2358C114.293 24.2358 111.734 21.2685 111.734 15.4004C111.734 9.459 114.296 6.53369 119.416 6.53369C124.536 6.53369 127.136 9.46947 127.136 15.4004ZM116.056 15.4004C116.087 18.7207 117.208 20.3982 119.385 20.3982C121.561 20.3982 122.651 18.6508 122.682 15.2711C122.682 11.9509 121.596 10.3083 119.416 10.3083C117.177 10.3083 116.056 12.0138 116.056 15.4004Z" fill="white"/>
        </g>
    </g>
    <defs>
        <clipPath id="clip0_4671_3899">
            <rect width="126.769" height="32" fill="white" transform="translate(0.366455)"/>
        </clipPath>
    </defs>
</svg>
