<svg xmlns="http://www.w3.org/2000/svg" width="111" height="28" viewBox="0 0 111 28" fill="none">
    <g clip-path="url(#clip0_4197_6352)">
        <path d="M17.1931 0V3.07927H21.5683L0 23.8439V26.9231H24.8756C25.4203 26.9231 25.9428 26.7067 26.328 26.3219C26.7132 25.9369 26.9297 25.4147 26.9297 24.8703V13.4358H23.8485V23.8439H4.45747L23.8587 5.15264V9.75103H26.9399V2.15385C26.9399 0.964311 25.9756 0 24.7861 0H17.1931Z" fill="#DBFA7D"/>
        <path d="M3.09096 3.07879H13.5054V-0.000488281H2.0639C1.5191 -0.000488281 0.996629 0.215792 0.611405 0.600775C0.22618 0.985758 0.00976562 1.50791 0.00976562 2.05236V14.3694H3.09096V3.07879Z" fill="#DBFA7D"/>
        <mask id="mask0_4197_6352" style="mask-type:luminance" maskUnits="userSpaceOnUse" x="37" y="0" width="74" height="28">
            <path d="M110.679 0.95166H37.0977V27.1296H110.679V0.95166Z" fill="white"/>
        </mask>
        <g mask="url(#mask0_4197_6352)">
            <path d="M40.5029 7.20323V5.97998H52.594V9.16959L44.7458 17.6345H52.8188V20.8668H40.0625V17.9158L47.9593 9.11454H42.4011C42.15 9.12128 41.9002 9.07644 41.6669 8.98278C41.4335 8.88911 41.2216 8.74857 41.044 8.56972C40.8663 8.39088 40.7267 8.17748 40.6337 7.94254C40.5408 7.70761 40.4962 7.45605 40.5029 7.20323Z" fill="white"/>
            <path d="M67.3277 13.4752C67.3277 18.6098 65.0589 21.2061 60.576 21.2061C56.0931 21.2061 53.8516 18.6098 53.8516 13.4752C53.8516 8.27644 56.0931 5.7168 60.576 5.7168C65.0589 5.7168 67.3277 8.2856 67.3277 13.4752ZM57.6329 13.4752C57.6632 16.3804 58.6413 17.8483 60.5486 17.8483C62.456 17.8483 63.4067 16.3192 63.434 13.362C63.434 10.4569 62.4803 9.01956 60.576 9.01956C58.6139 9.01956 57.6329 10.5119 57.6329 13.4752Z" fill="white"/>
            <path d="M72.43 2.9219V11.4846L77.1802 5.99836H81.8455L76.5425 11.717L81.9031 20.8913H77.2501L74.5166 15.8149C74.0215 14.9402 73.7512 14.503 73.1225 14.503C72.9369 14.5101 72.7612 14.5891 72.6322 14.7237C72.5031 14.8582 72.4307 15.0377 72.43 15.2246V20.8547H68.5879V1.02588H70.5864C71.078 1.03936 71.5451 1.24467 71.8891 1.59846C72.2331 1.95224 72.427 2.4268 72.43 2.9219Z" fill="white"/>
            <path d="M85.2689 23.5125C87.3069 23.5125 88.0327 22.5003 87.4466 20.531L82.4199 5.99268H86.6356L89.5666 16.3137L92.136 7.31684C92.3608 6.44529 92.947 5.99268 93.8977 5.99268H96.4944L90.6539 23.3995C89.7609 25.8459 88.868 26.6869 85.7944 26.6869C84.8467 26.6869 84.3426 26.6594 84.2301 26.5768V23.5187L85.2689 23.5125Z" fill="white"/>
            <path d="M110.923 13.4752C110.923 18.6098 108.651 21.2061 104.169 21.2061C99.6856 21.2061 97.4473 18.6098 97.4473 13.4752C97.4473 8.27644 99.6887 5.7168 104.169 5.7168C108.649 5.7168 110.923 8.2856 110.923 13.4752ZM101.229 13.4752C101.256 16.3804 102.237 17.8483 104.141 17.8483C106.046 17.8483 106.999 16.3192 107.027 13.362C107.027 10.4569 106.076 9.01956 104.169 9.01956C102.21 9.01956 101.229 10.5119 101.229 13.4752Z" fill="white"/>
        </g>
    </g>
    <defs>
        <clipPath id="clip0_4197_6352">
            <rect width="110.923" height="28" fill="white"/>
        </clipPath>
    </defs>
</svg>
